G04 Layer_Physical_Order=4*
G04 Layer_Color=16711680*
%FSLAX44Y44*%
%MOMM*%
G71*
G01*
G75*
%ADD10C,0.1270*%
%ADD11R,0.5500X0.5500*%
%ADD12R,0.6400X0.6400*%
%ADD13R,0.6400X0.6400*%
%ADD23R,0.5500X0.5500*%
%ADD26R,1.6500X2.4000*%
%ADD27O,0.9000X0.4000*%
%ADD28R,0.9500X1.0000*%
%ADD29R,1.0000X0.9500*%
%ADD37R,2.7000X1.0000*%
%ADD38R,1.7000X0.6000*%
%ADD39R,1.4000X1.8000*%
%ADD40C,0.2500*%
%ADD41C,0.3000*%
%ADD42C,0.5000*%
%ADD43C,0.1500*%
%ADD44C,0.6000*%
%ADD45C,0.4000*%
%ADD46C,0.2000*%
%ADD51C,6.0000*%
%ADD52C,0.6000*%
%ADD53C,0.4500*%
%ADD54C,1.0000*%
%ADD55C,0.8000*%
%ADD56R,0.9500X0.8000*%
%ADD57R,2.7430X2.1590*%
%ADD58R,0.6000X1.7000*%
%ADD59R,1.0000X2.7000*%
%ADD60R,0.7620X1.7145*%
%ADD61R,0.6000X1.5500*%
%ADD62R,1.2000X1.8000*%
%ADD63R,0.6500X1.2000*%
%ADD64R,0.8000X0.3000*%
%ADD65R,2.2000X2.4000*%
%ADD66R,0.8500X1.3000*%
%ADD67R,1.3000X1.9000*%
%ADD68R,1.0000X2.8000*%
%ADD69R,1.0000X0.8000*%
%ADD70R,1.0000X1.2000*%
%ADD71R,0.7000X1.2000*%
%ADD72R,2.0500X3.0500*%
%ADD73C,0.1000*%
%ADD74O,0.2500X0.9000*%
%ADD75O,0.9000X0.2500*%
%ADD76R,1.7000X1.7000*%
%ADD77R,2.4500X3.3500*%
G04:AMPARAMS|DCode=78|XSize=0.3mm|YSize=1.6mm|CornerRadius=0mm|HoleSize=0mm|Usage=FLASHONLY|Rotation=135.000|XOffset=0mm|YOffset=0mm|HoleType=Round|Shape=Round|*
%AMOVALD78*
21,1,1.3000,0.3000,0.0000,0.0000,225.0*
1,1,0.3000,0.4596,0.4596*
1,1,0.3000,-0.4596,-0.4596*
%
%ADD78OVALD78*%

G04:AMPARAMS|DCode=79|XSize=0.3mm|YSize=1.6mm|CornerRadius=0mm|HoleSize=0mm|Usage=FLASHONLY|Rotation=225.000|XOffset=0mm|YOffset=0mm|HoleType=Round|Shape=Round|*
%AMOVALD79*
21,1,1.3000,0.3000,0.0000,0.0000,315.0*
1,1,0.3000,-0.4596,0.4596*
1,1,0.3000,0.4596,-0.4596*
%
%ADD79OVALD79*%

G04:AMPARAMS|DCode=80|XSize=1mm|YSize=0.95mm|CornerRadius=0mm|HoleSize=0mm|Usage=FLASHONLY|Rotation=135.000|XOffset=0mm|YOffset=0mm|HoleType=Round|Shape=Rectangle|*
%AMROTATEDRECTD80*
4,1,4,0.6894,-0.0177,0.0177,-0.6894,-0.6894,0.0177,-0.0177,0.6894,0.6894,-0.0177,0.0*
%
%ADD80ROTATEDRECTD80*%

%ADD81R,1.0000X2.3500*%
%ADD82R,3.3000X2.3500*%
%ADD83P,0.9051X4X360.0*%
G04:AMPARAMS|DCode=84|XSize=1.4mm|YSize=1.15mm|CornerRadius=0mm|HoleSize=0mm|Usage=FLASHONLY|Rotation=135.000|XOffset=0mm|YOffset=0mm|HoleType=Round|Shape=Rectangle|*
%AMROTATEDRECTD84*
4,1,4,0.9016,-0.0884,0.0884,-0.9016,-0.9016,0.0884,-0.0884,0.9016,0.9016,-0.0884,0.0*
%
%ADD84ROTATEDRECTD84*%

%ADD85R,1.0000X0.6000*%
%ADD86C,1.0000*%
G36*
X-401100Y-285500D02*
X-394000D01*
Y-288300D01*
X-401100D01*
Y-288303D01*
X-401681D01*
X-402503Y-287481D01*
Y-286319D01*
X-401681Y-285497D01*
X-401100D01*
Y-285500D01*
D02*
G37*
G36*
X-428497Y-286319D02*
Y-287481D01*
X-429319Y-288303D01*
X-429900D01*
Y-288300D01*
X-437000D01*
Y-285500D01*
X-429900D01*
Y-285497D01*
X-429319D01*
X-428497Y-286319D01*
D02*
G37*
G36*
Y-281319D02*
Y-282481D01*
X-429319Y-283303D01*
X-429900D01*
Y-283300D01*
X-437000D01*
Y-280500D01*
X-429900D01*
Y-280497D01*
X-429319D01*
X-428497Y-281319D01*
D02*
G37*
G36*
Y-276319D02*
Y-277481D01*
X-429319Y-278303D01*
X-429900D01*
Y-278300D01*
X-437000D01*
Y-275500D01*
X-429900D01*
Y-275497D01*
X-429319D01*
X-428497Y-276319D01*
D02*
G37*
G36*
X-401100Y-280500D02*
X-394000D01*
Y-283300D01*
X-401100D01*
Y-283303D01*
X-401681D01*
X-402503Y-282481D01*
Y-281319D01*
X-401681Y-280497D01*
X-401100D01*
Y-280500D01*
D02*
G37*
G36*
Y-290500D02*
X-394000D01*
Y-293300D01*
X-401100D01*
Y-293303D01*
X-401681D01*
X-402503Y-292481D01*
Y-291319D01*
X-401681Y-290497D01*
X-401100D01*
Y-290500D01*
D02*
G37*
G36*
X-406597Y-298219D02*
Y-298800D01*
X-406600D01*
Y-305900D01*
X-409400D01*
Y-298800D01*
X-409403D01*
Y-298219D01*
X-408581Y-297397D01*
X-407419D01*
X-406597Y-298219D01*
D02*
G37*
G36*
X-421597D02*
Y-298800D01*
X-421600D01*
Y-305900D01*
X-424400D01*
Y-298800D01*
X-424403D01*
Y-298219D01*
X-423581Y-297397D01*
X-422419D01*
X-421597Y-298219D01*
D02*
G37*
G36*
X-428497Y-296319D02*
Y-297481D01*
X-429319Y-298303D01*
X-429900D01*
Y-298300D01*
X-437000D01*
Y-295500D01*
X-429900D01*
Y-295497D01*
X-429319D01*
X-428497Y-296319D01*
D02*
G37*
G36*
Y-291319D02*
Y-292481D01*
X-429319Y-293303D01*
X-429900D01*
Y-293300D01*
X-437000D01*
Y-290500D01*
X-429900D01*
Y-290497D01*
X-429319D01*
X-428497Y-291319D01*
D02*
G37*
G36*
X-401100Y-295500D02*
X-394000D01*
Y-298300D01*
X-401100D01*
Y-298303D01*
X-401681D01*
X-402503Y-297481D01*
Y-296319D01*
X-401681Y-295497D01*
X-401100D01*
Y-295500D01*
D02*
G37*
G36*
Y-275500D02*
X-394000D01*
Y-278300D01*
X-401100D01*
Y-278303D01*
X-401681D01*
X-402503Y-277481D01*
Y-276319D01*
X-401681Y-275497D01*
X-401100D01*
Y-275500D01*
D02*
G37*
G36*
X-421600Y-260000D02*
X-421597D01*
Y-260581D01*
X-422419Y-261403D01*
X-423581D01*
X-424403Y-260581D01*
Y-260000D01*
X-424400D01*
Y-252900D01*
X-421600D01*
Y-260000D01*
D02*
G37*
G36*
X-401100Y-260500D02*
X-394000D01*
Y-263300D01*
X-401100D01*
Y-263303D01*
X-401681D01*
X-402503Y-262481D01*
Y-261319D01*
X-401681Y-260497D01*
X-401100D01*
Y-260500D01*
D02*
G37*
G36*
X-466374Y42838D02*
X-463052Y38948D01*
X-459162Y35626D01*
X-454800Y32953D01*
X-450074Y30995D01*
X-445100Y29801D01*
X-440000Y29399D01*
X-434900Y29801D01*
X-429926Y30995D01*
X-425200Y32953D01*
X-420838Y35626D01*
X-416948Y38948D01*
X-415483Y40664D01*
X-414214Y40714D01*
X-405500Y32000D01*
Y24604D01*
X-416613Y13491D01*
X-417331Y12415D01*
X-417584Y11147D01*
Y0D01*
X-420302D01*
X-420633Y402D01*
X-421096Y1270D01*
X-420951Y2000D01*
Y11250D01*
X-459049D01*
Y2000D01*
X-458904Y1270D01*
X-459367Y402D01*
X-459698Y0D01*
X-475702D01*
Y44500D01*
X-467393D01*
X-466374Y42838D01*
D02*
G37*
G36*
X-406600Y-260000D02*
X-406597D01*
Y-260581D01*
X-407419Y-261403D01*
X-408581D01*
X-409403Y-260581D01*
Y-260000D01*
X-409400D01*
Y-252900D01*
X-406600D01*
Y-260000D01*
D02*
G37*
G36*
X-428497Y-261319D02*
Y-262481D01*
X-429319Y-263303D01*
X-429900D01*
Y-263300D01*
X-437000D01*
Y-260500D01*
X-429900D01*
Y-260497D01*
X-429319D01*
X-428497Y-261319D01*
D02*
G37*
G36*
X-401100Y-270500D02*
X-394000D01*
Y-273300D01*
X-401100D01*
Y-273303D01*
X-401681D01*
X-402503Y-272481D01*
Y-271319D01*
X-401681Y-270497D01*
X-401100D01*
Y-270500D01*
D02*
G37*
G36*
X-428497Y-271319D02*
Y-272481D01*
X-429319Y-273303D01*
X-429900D01*
Y-273300D01*
X-437000D01*
Y-270500D01*
X-429900D01*
Y-270497D01*
X-429319D01*
X-428497Y-271319D01*
D02*
G37*
G36*
X-401100Y-265500D02*
X-394000D01*
Y-268300D01*
X-401100D01*
Y-268303D01*
X-401681D01*
X-402503Y-267481D01*
Y-266319D01*
X-401681Y-265497D01*
X-401100D01*
Y-265500D01*
D02*
G37*
G36*
X-428497Y-266319D02*
Y-267481D01*
X-429319Y-268303D01*
X-429900D01*
Y-268300D01*
X-437000D01*
Y-265500D01*
X-429900D01*
Y-265497D01*
X-429319D01*
X-428497Y-266319D01*
D02*
G37*
%LPC*%
G36*
X-423500Y28049D02*
X-437500D01*
Y16250D01*
X-420951D01*
Y25500D01*
X-421145Y26475D01*
X-421698Y27302D01*
X-422525Y27855D01*
X-423500Y28049D01*
D02*
G37*
G36*
X-442500D02*
X-456500D01*
X-457475Y27855D01*
X-458302Y27302D01*
X-458855Y26475D01*
X-459049Y25500D01*
Y16250D01*
X-442500D01*
Y28049D01*
D02*
G37*
%LPD*%
D10*
X139500Y-206000D02*
X145500D01*
X141000Y-222595D02*
X153595D01*
X154500Y-223500D01*
X141408Y-200500D02*
X153000D01*
X127500Y-210500D02*
X143000Y-195000D01*
X145500D01*
X128452Y-233360D02*
X142592Y-247500D01*
X154000D01*
X127400Y-235900D02*
X146000Y-254500D01*
X149000D01*
X-370894Y-103222D02*
Y-103222D01*
Y-103222D02*
X-369705Y-104411D01*
X-373434Y-104274D02*
Y-104274D01*
X-370605Y-99919D02*
X-367165Y-103359D01*
X-357005Y-103228D02*
X-353218Y-99440D01*
X-359545Y-102176D02*
X-355758Y-98388D01*
X-362085Y-101124D02*
X-358298Y-97336D01*
X-364625Y-100071D02*
X-360838Y-96284D01*
X-354465Y-104280D02*
X-350678Y-100492D01*
X109876Y-55500D02*
X116000D01*
X109721Y-55655D02*
X109876Y-55500D01*
X106279Y-55655D02*
X109721D01*
X106124Y-55500D02*
X106279Y-55655D01*
X88500Y-55500D02*
X106124D01*
X108000Y-51500D02*
X115500D01*
X116500Y-50500D01*
X91500Y-169000D02*
X134500Y-126000D01*
Y-78500D01*
X122075Y-66075D02*
X134500Y-78500D01*
X103925Y-66075D02*
X122075D01*
X103500Y-66500D02*
X103925Y-66075D01*
X116000Y-55500D02*
X139000Y-78500D01*
X84000Y-60000D02*
X88500Y-55500D01*
X116500Y-50500D02*
X144000Y-78000D01*
Y-129000D02*
Y-78000D01*
X119500Y-153500D02*
X144000Y-129000D01*
X117500Y-46000D02*
X149000Y-77500D01*
Y-150500D02*
Y-77500D01*
X139000Y-128000D02*
Y-78500D01*
X110500Y-156500D02*
X139000Y-128000D01*
X91500Y-171000D02*
Y-169000D01*
X104500Y-46000D02*
X117500D01*
X107930Y-70230D02*
X108200Y-70500D01*
X108500Y-76000D02*
X109000Y-76500D01*
X104000Y-80000D02*
X105000Y-81000D01*
X122000Y-70500D02*
X130500Y-79000D01*
Y-123000D02*
Y-79000D01*
X110000Y-143500D02*
X130500Y-123000D01*
X120000Y-76500D02*
X127000Y-83500D01*
Y-119500D02*
Y-83500D01*
X107500Y-139000D02*
X127000Y-119500D01*
X110500Y-171000D02*
Y-156500D01*
X119500Y-171000D02*
Y-153500D01*
X136276Y-234000D02*
X151500D01*
X130556Y-228280D02*
X136276Y-234000D01*
X140684Y-242000D02*
X148000D01*
X129504Y-230820D02*
X140684Y-242000D01*
X7500Y-171500D02*
X10000D01*
X128868Y-213040D02*
X141408Y-200500D01*
X129920Y-215580D02*
X139500Y-206000D01*
X132380Y-218120D02*
X138000Y-212500D01*
X153000D01*
X140500Y-217500D02*
X147000D01*
X137340Y-220660D02*
X140500Y-217500D01*
X140395Y-223200D02*
X141000Y-222595D01*
X133240Y-225740D02*
X135000Y-227500D01*
X147000D01*
X-463905Y-285905D02*
X-457245Y-279245D01*
X-463905Y-293595D02*
X-459500Y-298000D01*
X-463905Y-293595D02*
Y-285905D01*
X-457245Y-279245D02*
X-441745D01*
X-468500Y-298000D02*
Y-282000D01*
X-463000Y-276500D01*
X-444500D01*
X-439900Y-271900D01*
X-435600D01*
X-441400Y-266900D02*
X-435600D01*
X-448155Y-273655D02*
X-441400Y-266900D01*
X-461345Y-273655D02*
X-448155D01*
X-464000Y-271000D02*
X-461345Y-273655D01*
X-464000Y-271000D02*
Y-269000D01*
X-439400Y-276900D02*
X-435600D01*
X-441745Y-279245D02*
X-439400Y-276900D01*
X374000Y-40500D02*
X380000D01*
X382000Y-38500D01*
Y-33500D01*
X378000Y-29500D02*
X382000Y-33500D01*
X369500Y-29500D02*
X378000D01*
X352000Y-12000D02*
X369500Y-29500D01*
X350000Y-12000D02*
X352000D01*
X350000Y-30000D02*
Y-21000D01*
X346500Y-100500D02*
X374000D01*
X346500Y-110500D02*
X374000D01*
X11500Y-4000D02*
X12000Y-3500D01*
X10000Y-171500D02*
X60500Y-121000D01*
X100500D01*
X111000Y-110500D01*
Y-101000D01*
X26500Y-171500D02*
X71500Y-126500D01*
X101500D01*
X115500Y-112500D01*
Y-99500D01*
X35500Y-171500D02*
X76500Y-130500D01*
X102500D01*
X119500Y-113500D01*
Y-96000D01*
X54500Y-171000D02*
Y-159500D01*
X79500Y-134500D01*
X104500D01*
X123500Y-115500D01*
Y-90000D01*
X114500Y-81000D02*
X123500Y-90000D01*
X63500Y-171000D02*
Y-158000D01*
X82500Y-139000D01*
X107500D01*
X82500Y-171000D02*
Y-152000D01*
X91000Y-143500D01*
X110000D01*
X106000Y-96000D02*
X111000Y-101000D01*
X106000Y-96000D02*
X106000D01*
X100000Y-84000D02*
X115500Y-99500D01*
X92000Y-84000D02*
X100000D01*
X111500Y-88000D02*
X119500Y-96000D01*
X110500Y-88000D02*
X111500D01*
X105000Y-81000D02*
X114500D01*
X109000Y-76500D02*
X120000D01*
X108200Y-70500D02*
X122000D01*
X239315Y53210D02*
Y63710D01*
X249220Y54115D02*
Y64115D01*
X259125Y52710D02*
Y64210D01*
X-331502Y-74500D02*
X-331001Y-75001D01*
X-350500Y-64000D02*
X-333502D01*
X-333501Y-64001D01*
X347000Y-120000D02*
X349000D01*
X353500Y-115500D01*
X374000D01*
X-351000Y-59000D02*
X-343000D01*
X346000Y-128000D02*
X356000D01*
X363500Y-120500D01*
X374000D01*
X-351500Y-53000D02*
X-348500D01*
X346000Y-136000D02*
X357000D01*
X367500Y-125500D01*
X374000D01*
X-351500Y-45500D02*
X-339500D01*
X346500Y-144000D02*
X359000D01*
X372500Y-130500D01*
X374000D01*
X342500Y-80500D02*
X374000D01*
X-330721Y-99845D02*
X-330345D01*
X-309000Y-78500D01*
Y-52000D01*
X-344000Y-74500D02*
X-331502D01*
X346500Y-90500D02*
X374000D01*
X339499Y-83501D02*
X342500Y-80500D01*
X339499Y-86500D02*
Y-83501D01*
X331500Y-86000D02*
Y-77000D01*
X338000Y-70500D01*
X374000D01*
X319500Y-74000D02*
X333000Y-60500D01*
X319500Y-88000D02*
Y-74000D01*
X333000Y-60500D02*
X374000D01*
X305999Y-86500D02*
Y-73501D01*
X329000Y-50500D01*
X374000D01*
X-347740Y-69000D02*
X-341000D01*
X-341160Y-80000D02*
X-340500D01*
X-341620Y-88000D02*
X-340500D01*
X-335595Y-97595D02*
X-330000Y-92000D01*
X-335595Y-100905D02*
Y-97595D01*
X183750Y-299250D02*
Y-291273D01*
X227000Y-317000D02*
X253000D01*
X260000Y-324000D01*
X216500Y-306500D02*
X227000Y-317000D01*
X183750Y-299250D02*
X191000Y-306500D01*
X216500D01*
X171050Y-295550D02*
Y-291273D01*
Y-295550D02*
X181500Y-306000D01*
X186500D01*
X189540Y-309040D01*
X215448D01*
X230408Y-324000D01*
X234000D01*
X-373434Y-67434D02*
X-351500Y-45500D01*
X-370894Y-72394D02*
X-351500Y-53000D01*
X-368354Y-76354D02*
X-351000Y-59000D01*
X-365814Y-79314D02*
X-350500Y-64000D01*
X-361000Y-82260D02*
X-347740Y-69000D01*
X-360838Y-96284D02*
Y-92221D01*
X-358298Y-97336D02*
Y-91169D01*
X-361000Y-88466D02*
X-358298Y-91169D01*
X-357687Y-88187D02*
X-344000Y-74500D01*
X-357687Y-88187D02*
Y-88187D01*
Y-88187D02*
X-355758Y-90117D01*
Y-98388D02*
Y-90117D01*
X-353218Y-99440D02*
Y-92058D01*
X-341160Y-80000D01*
X-350678Y-97058D02*
X-341620Y-88000D01*
X-350678Y-100492D02*
Y-97058D01*
X-361000Y-88466D02*
Y-82260D01*
X-373434Y-84231D02*
Y-67434D01*
X-370894Y-85283D02*
Y-72394D01*
X-365814Y-87244D02*
Y-79314D01*
Y-87244D02*
X-360838Y-92221D01*
X-368354Y-86335D02*
Y-76354D01*
X-375685Y-86482D02*
X-373434Y-84231D01*
X-373145Y-87534D02*
X-370894Y-85283D01*
X-370605Y-88586D02*
X-368354Y-86335D01*
X-370605Y-99919D02*
Y-96327D01*
X-370648Y-96284D02*
X-370605Y-96327D01*
X-370648Y-96284D02*
Y-92221D01*
X-370605Y-92178D01*
Y-88586D01*
X-373145Y-91126D02*
Y-87534D01*
X-373188Y-91169D02*
X-373145Y-91126D01*
X-373188Y-97336D02*
Y-91169D01*
Y-97336D02*
X-373145Y-97379D01*
Y-100971D02*
Y-97379D01*
X-375685Y-102023D02*
Y-98431D01*
X-375728Y-98388D02*
X-375685Y-98431D01*
X-375728Y-98388D02*
Y-90117D01*
X-375685Y-90074D01*
Y-86482D01*
X-373145Y-100971D02*
X-370894Y-103222D01*
X-375685Y-102023D02*
X-373434Y-104274D01*
X-324936Y-210500D02*
X127500D01*
X-325988Y-213040D02*
X128868D01*
X-327040Y-215580D02*
X129920D01*
X-328092Y-218120D02*
X132380D01*
X-329144Y-220660D02*
X137340D01*
X-330196Y-223200D02*
X140395D01*
X-331248Y-225740D02*
X133240D01*
X-332300Y-228280D02*
X130556D01*
X-333352Y-230820D02*
X129504D01*
X-334404Y-233360D02*
X128452D01*
X-335457Y-235900D02*
X127400D01*
X-372245Y-115699D02*
Y-105463D01*
X-373434Y-104274D02*
X-372245Y-105463D01*
X-369705Y-114647D02*
Y-104411D01*
X-362085Y-111491D02*
Y-101124D01*
X-359545Y-110439D02*
Y-102176D01*
X-357005Y-109387D02*
X-356275Y-110117D01*
X-357005Y-109387D02*
Y-103228D01*
X-354465Y-108335D02*
X-353735Y-109065D01*
X-354465Y-108335D02*
Y-104280D01*
X-348655Y-113965D02*
X-335595Y-100905D01*
X-346115Y-115239D02*
X-330721Y-99845D01*
X-367165Y-113595D02*
Y-103359D01*
X-364625Y-112543D02*
Y-100071D01*
X-351195Y-106695D02*
X-340500Y-96000D01*
X-350822Y-220535D02*
X-335457Y-235900D01*
X-352854Y-220535D02*
X-350822D01*
X-349770Y-217995D02*
X-334404Y-233360D01*
X-351802Y-217995D02*
X-349770D01*
X-348718Y-215455D02*
X-333352Y-230820D01*
X-350750Y-215455D02*
X-348718D01*
X-347666Y-212915D02*
X-332300Y-228280D01*
X-349698Y-212915D02*
X-347666D01*
X-346614Y-210375D02*
X-331248Y-225740D01*
X-348646Y-210375D02*
X-346614D01*
X-345561Y-207835D02*
X-330196Y-223200D01*
X-347594Y-207835D02*
X-345561D01*
X-344509Y-205295D02*
X-329144Y-220660D01*
X-346542Y-205295D02*
X-344509D01*
X-343457Y-202755D02*
X-328092Y-218120D01*
X-345490Y-202755D02*
X-343457D01*
X-342405Y-200215D02*
X-327040Y-215580D01*
X-344438Y-200215D02*
X-342405D01*
X-341353Y-197675D02*
X-325988Y-213040D01*
X-365083Y-208306D02*
X-352854Y-220535D01*
X-365083Y-208306D02*
X-365083D01*
X-364031Y-205766D02*
X-364031D01*
X-351802Y-217995D01*
X-340301Y-195135D02*
X-324936Y-210500D01*
X-342333Y-195135D02*
X-340301D01*
X-345634Y-191834D02*
X-342333Y-195135D01*
X-348174Y-192886D02*
X-343386Y-197675D01*
X-341353D01*
X-350714Y-193938D02*
X-344438Y-200215D01*
X-353254Y-194990D02*
X-345490Y-202755D01*
X-355794Y-196042D02*
X-346542Y-205295D01*
X-355794Y-196042D02*
Y-170731D01*
X-361926Y-200686D02*
X-349698Y-212915D01*
X-361926Y-200686D02*
X-361926D01*
X-362979Y-203226D02*
X-350750Y-215455D01*
X-362979Y-203226D02*
X-362979D01*
X-369705Y-114647D02*
X-368975Y-115377D01*
X-367165Y-113595D02*
X-366435Y-114325D01*
X-364625Y-112543D02*
X-363895Y-113273D01*
X-362085Y-111491D02*
X-361355Y-112221D01*
X-359545Y-110439D02*
X-358815Y-111169D01*
X-345634Y-191834D02*
Y-174940D01*
X-339434Y-168740D01*
Y-156260D01*
X-348174Y-192886D02*
Y-173888D01*
X-341974Y-167688D01*
Y-157312D01*
X-344514Y-166636D02*
Y-158364D01*
X-350714Y-172836D02*
X-344514Y-166636D01*
X-350714Y-193938D02*
Y-172836D01*
X-353254Y-194990D02*
Y-171784D01*
X-347054Y-165583D01*
Y-159416D01*
X-349594Y-164531D02*
Y-160468D01*
X-355794Y-170731D02*
X-349594Y-164531D01*
X-346115Y-149579D02*
X-339434Y-156260D01*
X-346115Y-149579D02*
Y-115239D01*
X-348655Y-150631D02*
X-341974Y-157312D01*
X-348655Y-150631D02*
Y-113965D01*
X-351195Y-151683D02*
Y-106695D01*
Y-151683D02*
X-344514Y-158364D01*
X-353735Y-152735D02*
X-347054Y-159416D01*
X-353735Y-152735D02*
Y-109065D01*
X-356275Y-153787D02*
Y-110117D01*
Y-153787D02*
X-349594Y-160468D01*
X-358815Y-143454D02*
Y-111169D01*
X-359404Y-196024D02*
Y-157500D01*
Y-196024D02*
X-347594Y-207835D01*
X-361355Y-142402D02*
Y-112221D01*
X-363895Y-141350D02*
Y-113273D01*
X-366435Y-140298D02*
Y-114325D01*
X-368975Y-139246D02*
Y-115377D01*
X-371515Y-138194D02*
Y-116429D01*
X-372245Y-115699D02*
X-371515Y-116429D01*
X-359545Y-144184D02*
X-358815Y-143454D01*
X-359545Y-157359D02*
Y-144184D01*
Y-157359D02*
X-359404Y-157500D01*
X-362335Y-196686D02*
X-348646Y-210375D01*
X-362335Y-196686D02*
Y-143382D01*
X-361355Y-142402D01*
X-364875Y-197738D02*
X-361926Y-200686D01*
X-364875Y-197738D02*
Y-142330D01*
X-363895Y-141350D01*
X-367415Y-198790D02*
X-362979Y-203226D01*
X-367415Y-198790D02*
Y-141278D01*
X-366435Y-140298D01*
X-369955Y-140226D02*
X-368975Y-139246D01*
X-369955Y-199842D02*
Y-140226D01*
Y-199842D02*
X-364031Y-205766D01*
X-372495Y-200894D02*
X-365083Y-208306D01*
X-372495Y-200894D02*
Y-139173D01*
X-371515Y-138194D01*
D11*
X-455000Y-269000D02*
D03*
Y-260000D02*
D03*
X-464000Y-269000D02*
D03*
Y-260000D02*
D03*
X-468500Y-298000D02*
D03*
Y-307000D02*
D03*
X-459500Y-298000D02*
D03*
Y-307000D02*
D03*
X368000Y-239000D02*
D03*
Y-230000D02*
D03*
X295000Y-231500D02*
D03*
Y-240500D02*
D03*
X304000Y-231500D02*
D03*
Y-240500D02*
D03*
X309000Y-252500D02*
D03*
Y-261500D02*
D03*
X255000Y-89000D02*
D03*
Y-80000D02*
D03*
X244500Y-89000D02*
D03*
Y-80000D02*
D03*
X222500Y-89000D02*
D03*
Y-80000D02*
D03*
X266500Y-89000D02*
D03*
Y-80000D02*
D03*
X189000Y-89000D02*
D03*
Y-80000D02*
D03*
X200500Y-89000D02*
D03*
Y-80000D02*
D03*
X-406500Y-101500D02*
D03*
Y-110500D02*
D03*
Y-92000D02*
D03*
Y-83000D02*
D03*
X-464500Y-100500D02*
D03*
Y-109500D02*
D03*
Y-82500D02*
D03*
Y-91500D02*
D03*
X285000Y-156500D02*
D03*
Y-147500D02*
D03*
X422500Y-284500D02*
D03*
Y-275500D02*
D03*
D12*
X-383500Y-258000D02*
D03*
X-374500D02*
D03*
X15000Y-44000D02*
D03*
X24000D02*
D03*
X-322500Y-104000D02*
D03*
X-313500D02*
D03*
X-244500Y-59000D02*
D03*
X-235500D02*
D03*
X-224000Y-58000D02*
D03*
X-215000D02*
D03*
X-277500Y-59000D02*
D03*
X-286500D02*
D03*
X-277500Y-28000D02*
D03*
X-268500D02*
D03*
X-254000D02*
D03*
X-245000D02*
D03*
X-301400Y-68000D02*
D03*
X-292400D02*
D03*
X-277500Y-44000D02*
D03*
X-268500D02*
D03*
X-253500D02*
D03*
X-244500D02*
D03*
X10500Y-60000D02*
D03*
X19500D02*
D03*
X61500D02*
D03*
X52500D02*
D03*
X43500Y-28000D02*
D03*
X52500D02*
D03*
X18500D02*
D03*
X27500D02*
D03*
X62500Y-51000D02*
D03*
X71500D02*
D03*
X419500Y-295000D02*
D03*
X410500D02*
D03*
X421500Y-370500D02*
D03*
X412500D02*
D03*
D13*
X230000Y-267000D02*
D03*
Y-258000D02*
D03*
X278500Y-77000D02*
D03*
Y-86000D02*
D03*
X-203000Y-101500D02*
D03*
Y-92500D02*
D03*
X-309000Y-12500D02*
D03*
Y-3500D02*
D03*
X-319000Y14500D02*
D03*
Y5500D02*
D03*
X-203000Y14500D02*
D03*
Y5500D02*
D03*
X-284000Y-12500D02*
D03*
Y-3500D02*
D03*
X-261000Y-19500D02*
D03*
Y-10500D02*
D03*
X-238000Y-12500D02*
D03*
Y-3500D02*
D03*
X-274000Y-84500D02*
D03*
Y-75500D02*
D03*
X-256000Y-60500D02*
D03*
Y-69500D02*
D03*
X-284000Y-84500D02*
D03*
Y-75500D02*
D03*
X-238000Y-84500D02*
D03*
Y-75500D02*
D03*
X-266000Y-69500D02*
D03*
Y-60500D02*
D03*
X-203000Y-75500D02*
D03*
Y-84500D02*
D03*
X-212000Y-75500D02*
D03*
Y-84500D02*
D03*
X-12000Y-12500D02*
D03*
Y-3500D02*
D03*
Y-84500D02*
D03*
Y-75500D02*
D03*
X-22000Y-101500D02*
D03*
Y-92500D02*
D03*
X94000D02*
D03*
Y-101500D02*
D03*
Y6500D02*
D03*
Y15500D02*
D03*
X-22000D02*
D03*
Y6500D02*
D03*
X21000Y-3500D02*
D03*
Y-12500D02*
D03*
X60000Y-3500D02*
D03*
Y-12500D02*
D03*
X12000Y-3500D02*
D03*
Y-12500D02*
D03*
X36000Y-20500D02*
D03*
Y-11500D02*
D03*
X22000Y-86500D02*
D03*
Y-77500D02*
D03*
X59000Y-84500D02*
D03*
Y-75500D02*
D03*
X29000Y-60500D02*
D03*
Y-69500D02*
D03*
X43000Y-60500D02*
D03*
Y-69500D02*
D03*
X13000Y-77500D02*
D03*
Y-86500D02*
D03*
X85000Y-75500D02*
D03*
Y-84500D02*
D03*
X96000Y-75500D02*
D03*
Y-66500D02*
D03*
X150000Y62000D02*
D03*
Y71000D02*
D03*
D23*
X-120000Y25000D02*
D03*
X-129000D02*
D03*
X-120000Y34500D02*
D03*
X-129000D02*
D03*
X-418000Y-315500D02*
D03*
X-409000D02*
D03*
X350000Y-21000D02*
D03*
X341000D02*
D03*
X350000Y-12000D02*
D03*
X341000D02*
D03*
X1500Y40000D02*
D03*
X-7500D02*
D03*
X341000Y-30000D02*
D03*
X350000D02*
D03*
X341000Y-38500D02*
D03*
X350000D02*
D03*
X128000Y87000D02*
D03*
X119000D02*
D03*
X-409000Y-324500D02*
D03*
X-418000D02*
D03*
D26*
X-435500Y-96500D02*
D03*
D27*
X-450750Y-87000D02*
D03*
Y-96500D02*
D03*
Y-106000D02*
D03*
X-420250D02*
D03*
Y-96500D02*
D03*
Y-87000D02*
D03*
D28*
X-222000Y-45500D02*
D03*
X-209500D02*
D03*
X65750Y-36000D02*
D03*
X78250D02*
D03*
X-429250Y-123000D02*
D03*
X-441750D02*
D03*
X-429250Y-69500D02*
D03*
X-441750D02*
D03*
X410500Y-359500D02*
D03*
X423000D02*
D03*
D29*
X375000Y-278250D02*
D03*
Y-290750D02*
D03*
X390000Y-278250D02*
D03*
Y-290750D02*
D03*
X234000Y-91750D02*
D03*
Y-79250D02*
D03*
X94500Y67750D02*
D03*
Y55250D02*
D03*
X382000Y-305750D02*
D03*
Y-318250D02*
D03*
D37*
X427000Y-179000D02*
D03*
Y-253500D02*
D03*
X-452500Y-139500D02*
D03*
Y-239000D02*
D03*
D38*
X395000Y-235000D02*
D03*
Y-222500D02*
D03*
Y-210000D02*
D03*
Y-197500D02*
D03*
X-420500Y-158000D02*
D03*
Y-170500D02*
D03*
Y-220500D02*
D03*
Y-208000D02*
D03*
Y-195500D02*
D03*
Y-183000D02*
D03*
D39*
X332750Y-198500D02*
D03*
X360250D02*
D03*
D40*
X-262246Y-36500D02*
X-261000D01*
X-259754D01*
X59500Y-84000D02*
X60000Y-84500D01*
X-324000Y-104000D02*
X-323250Y-104750D01*
X-259000Y-54000D02*
X-256000Y-57000D01*
X-266000Y-57000D02*
X-263000Y-54000D01*
X-274000Y-75500D02*
Y-71000D01*
X-277000Y-68000D02*
X-274000Y-71000D01*
X-24500Y22500D02*
X-23500D01*
X-31500Y15500D02*
X-24500Y22500D01*
X-203000Y-101500D02*
X-195500D01*
X61154Y-83347D02*
X67153D01*
X60000Y-84500D02*
X61154Y-83347D01*
X59000Y-84500D02*
X59500Y-84000D01*
X67500Y-75500D02*
X68000Y-76000D01*
X59000Y-75500D02*
X67500D01*
X102000Y-61500D02*
X110000D01*
X101500Y-61000D02*
X102000Y-61500D01*
X283499Y-77000D02*
X283499Y-77000D01*
X278500Y-77000D02*
X283499D01*
X300479Y-92979D02*
Y-84213D01*
Y-92979D02*
X313000Y-105500D01*
X302844Y-81848D02*
Y-71156D01*
X300479Y-84213D02*
X302844Y-81848D01*
X313000Y-155500D02*
Y-134500D01*
X312000Y-156500D02*
X313000Y-155500D01*
X324500Y-156500D02*
Y-128000D01*
X-412000Y-92000D02*
X-406500D01*
X-416500Y-96500D02*
X-412000Y-92000D01*
X-420250Y-96500D02*
X-416500D01*
X-450750Y-114000D02*
Y-106000D01*
Y-114000D02*
X-441750Y-123000D01*
X360000Y-105500D02*
X373999D01*
X374000Y-105500D01*
X374000Y-105500D01*
X360000Y-85500D02*
X374000D01*
X360000Y-75500D02*
X374000D01*
X308000Y-123500D02*
X320000D01*
X303500Y-128000D02*
X308000Y-123500D01*
X303500Y-134500D02*
Y-128000D01*
X-277500Y-28000D02*
X-277000Y-28500D01*
X-245000Y-36000D02*
Y-28000D01*
X-268500Y-35500D02*
Y-28000D01*
X-254000Y-35000D02*
Y-28000D01*
Y-35000D02*
X-253000Y-36000D01*
X-309000Y-12500D02*
X-301500D01*
X-301000Y-12000D01*
X-309000Y-3500D02*
X-301500D01*
X-301000Y-4000D01*
X-319000Y5500D02*
X-310500D01*
X-309000Y4000D01*
X-327500Y14500D02*
X-319000D01*
X-329000Y16000D02*
X-327500Y14500D01*
X-203000D02*
X-194500D01*
X-211500Y5500D02*
X-203000D01*
X-213000Y4000D02*
X-211500Y5500D01*
X-212500Y-92500D02*
X-203000D01*
X-213000Y-92000D02*
X-212500Y-92500D01*
X-313500Y-103000D02*
X-309000Y-98500D01*
Y-92000D01*
X-301000Y-76000D02*
Y-68400D01*
X-301400Y-68000D02*
X-301000Y-68400D01*
X-292400Y-75400D02*
Y-68000D01*
X-293000Y-76000D02*
X-292400Y-75400D01*
X-244500Y-59000D02*
Y-52500D01*
X-235500Y-66500D02*
Y-59000D01*
X-286500Y-66500D02*
Y-59000D01*
Y-66500D02*
X-285000Y-68000D01*
X-277500Y-59000D02*
Y-52500D01*
X-277000Y-52000D01*
X-293000Y-84000D02*
X-284500D01*
X-284000Y-84500D01*
X-274000D01*
X-238000D02*
X-229500D01*
X-229000Y-84000D01*
X-238000Y-75500D02*
X-229500D01*
X-293000Y-76000D02*
X-284500D01*
X-284000Y-75500D01*
X-274000D01*
X-266000Y-60500D02*
Y-57000D01*
X-256000Y-60500D02*
Y-57000D01*
X-266000Y-71000D02*
Y-69500D01*
Y-71000D02*
X-261000Y-76000D01*
X-256000Y-71000D02*
Y-69500D01*
X-261000Y-76000D02*
X-256000Y-71000D01*
X-261000Y-36000D02*
Y-19500D01*
Y-10500D02*
Y-4000D01*
X-220500Y-75500D02*
X-212000D01*
X-221000Y-76000D02*
X-220500Y-75500D01*
X-221000Y-84000D02*
X-212500D01*
X-212000Y-84500D01*
Y-75500D02*
X-203000D01*
X-212000Y-84500D02*
X-203000D01*
X36000Y-36000D02*
Y-20500D01*
Y-11500D02*
Y-4000D01*
X-31500Y15500D02*
X-22000D01*
Y6500D02*
X-14500D01*
X-12000Y4000D01*
Y-3500D02*
X-4500D01*
X-4000Y-4000D01*
X-12000Y-12500D02*
X-4500D01*
X-4000Y-12000D01*
X4000D02*
X11500D01*
X12000Y-12500D01*
X4000Y-4000D02*
X11500D01*
X12000Y-3500D02*
X21000D01*
X12000Y-12500D02*
X21000D01*
X18500Y-34500D02*
Y-28000D01*
Y-34500D02*
X20000Y-36000D01*
X27500Y-28000D02*
Y-20500D01*
X28000Y-20000D01*
X29000Y-60500D02*
Y-59000D01*
X36000Y-52000D01*
X43000Y-60500D02*
Y-59000D01*
X36000Y-52000D02*
X43000Y-59000D01*
X29000Y-69500D02*
X35500Y-76000D01*
X36000D01*
X36500D02*
X43000Y-69500D01*
X36000Y-76000D02*
X36500D01*
X19500Y-60000D02*
Y-52500D01*
X20000Y-52000D01*
X10500Y-66500D02*
Y-60000D01*
Y-66500D02*
X12000Y-68000D01*
X4000Y-84000D02*
X6500Y-86500D01*
X13000D01*
X22000D01*
X13000Y-77500D02*
X22000D01*
X5500D02*
X13000D01*
X4000Y-76000D02*
X5500Y-77500D01*
X-12000Y-84500D02*
X-4500D01*
X-4000Y-84000D01*
X-12000Y-75500D02*
X-4500D01*
X-4000Y-76000D01*
X-22000Y-92500D02*
X-12500D01*
X-12000Y-92000D01*
X61500Y-66500D02*
Y-60000D01*
X60000Y-68000D02*
X61500Y-66500D01*
X52500Y-60000D02*
Y-52500D01*
X52000Y-52000D02*
X52500Y-52500D01*
X76000Y-76000D02*
X84500D01*
X85000Y-75500D01*
X96000D01*
X96000Y-75500D01*
X76000Y-84000D02*
X84500D01*
X85000Y-84500D01*
X84000Y-92000D02*
X93500D01*
X94000Y-92500D01*
X101000Y-104000D02*
X104000D01*
X98500Y-101500D02*
X101000Y-104000D01*
X94000Y-101500D02*
X98500D01*
X52500Y-35500D02*
Y-28000D01*
X60000Y-12500D02*
X67500D01*
X68000Y-12000D01*
X60000Y-3500D02*
X67500D01*
X68000Y-4000D01*
X84000Y4000D02*
X91500D01*
X94000Y6500D01*
Y15500D02*
X103500D01*
X104000Y16000D01*
X-261000Y-36500D02*
Y-36000D01*
X-285000Y-44000D02*
X-277500D01*
X96000Y-66500D02*
X101500Y-61000D01*
X258370Y28965D02*
X279164D01*
X295570Y12559D01*
Y-23329D02*
Y12559D01*
X282164Y-36735D02*
X295570Y-23329D01*
X249870Y-36735D02*
X282164D01*
X254220Y33115D02*
X258370Y28965D01*
X254220Y33115D02*
Y58115D01*
X337000Y-252000D02*
X342000D01*
X332000D02*
X337000D01*
X320000Y-123500D02*
X324500Y-128000D01*
X360000Y-95500D02*
X374000D01*
X313000Y-105500D02*
X325980Y-92520D01*
Y-75520D01*
X336000Y-65500D01*
X374000D01*
X313000Y-105500D02*
Y-72500D01*
X330000Y-55500D01*
X374000D01*
X328500Y-45500D02*
X374000D01*
X302844Y-71156D02*
X328500Y-45500D01*
X233220Y-78470D02*
X234000Y-79250D01*
X233220Y-78470D02*
Y-62885D01*
Y-53385D01*
X240000Y-46605D01*
X249870Y-36735D01*
X144506Y56506D02*
X150000Y62000D01*
X136995Y56506D02*
X144506D01*
X94500Y55250D02*
X108738D01*
X109995Y56506D01*
X94500Y67750D02*
X96244Y66006D01*
X109995D01*
X419500Y-301500D02*
Y-295000D01*
Y-301500D02*
X421493Y-303493D01*
Y-312004D02*
Y-303493D01*
X52000Y-52000D02*
X61500D01*
X62500Y-51000D01*
X65750Y-42250D02*
Y-36000D01*
X62500Y-45500D02*
X65750Y-42250D01*
X62500Y-51000D02*
Y-45500D01*
X-222000Y-51000D02*
Y-45500D01*
X-224000Y-53000D02*
X-222000Y-51000D01*
X-224000Y-58000D02*
Y-57000D01*
X-229000Y-52000D02*
X-224000Y-57000D01*
Y-53000D01*
X-441750Y-75250D02*
X-438000Y-79000D01*
X-427500D01*
X-441750Y-127749D02*
Y-123000D01*
X-253500Y-44000D02*
Y-42754D01*
X-259754Y-36500D02*
X-253500Y-42754D01*
X-268500Y-44000D02*
Y-42754D01*
X-262246Y-36500D01*
X-301400Y-68000D02*
Y-57400D01*
X-296000Y-52000D01*
X-277000D01*
X-296000D02*
Y-40000D01*
X-292000Y-36000D01*
X-226000D02*
X-222000Y-40000D01*
Y-45500D02*
Y-40000D01*
X-194500Y14500D02*
X-193000Y16000D01*
X-435600Y-261900D02*
Y-259100D01*
X-431500Y-255000D01*
X-431000D01*
X-435500Y-96500D02*
X-420250D01*
X52000Y-36000D02*
X52500Y-35500D01*
X-441750Y-75250D02*
Y-69500D01*
X-450750Y-87000D02*
Y-84250D01*
X-441750Y-75250D01*
X94500Y67750D02*
Y77000D01*
X96500Y79000D01*
X110500Y93000D01*
X125500D01*
X128000Y90500D01*
Y87000D02*
Y90500D01*
X412125Y-322500D02*
X421493Y-313132D01*
Y-312004D01*
X391000Y-322500D02*
X412125D01*
X382000Y-318250D02*
X386750D01*
X391000Y-322500D01*
X419500Y-295000D02*
X422500Y-292000D01*
Y-284500D01*
X-441750Y-127749D02*
X-433999Y-135500D01*
X-325000Y-105000D02*
X-324000Y-104000D01*
X-327999Y-105000D02*
X-325000D01*
X-292000Y-36000D02*
X-277000D01*
Y-28500D01*
X-269000Y-36000D02*
X-268500Y-35500D01*
X-245000Y-36000D02*
X-226000D01*
X148500Y88000D02*
X150000Y86500D01*
Y71000D02*
Y86500D01*
X-229500Y-75500D02*
X-229000Y-76000D01*
X-237000Y-68000D02*
X-235500Y-66500D01*
X-244500Y-44000D02*
X-237000D01*
X-245000Y-52000D02*
X-244500Y-52500D01*
X-245000Y-52000D02*
X-229000D01*
X-263000Y-54000D02*
X-261000D01*
X-259000D01*
X-32000Y-108000D02*
X-28500D01*
X-22000Y-101500D01*
D41*
X169000Y-83500D02*
X176500D01*
X136995Y-51495D02*
X169000Y-83500D01*
X136995Y-51495D02*
Y56506D01*
X-322500Y-115000D02*
Y-104000D01*
X-301000Y-76901D02*
Y-76000D01*
X-306020Y-81921D02*
X-301000Y-76901D01*
X-306020Y-86980D02*
Y-81921D01*
Y-86980D02*
X-289000Y-104000D01*
Y-115000D02*
Y-104000D01*
X-226000Y-33500D02*
X-218500Y-26000D01*
X-226000Y-36000D02*
Y-33500D01*
X-462500Y-66500D02*
Y-66000D01*
X-393081Y50419D02*
Y66419D01*
X-464500Y-82500D02*
Y-80000D01*
X-460000Y-75500D01*
X-452499D01*
X-463000Y-65500D02*
X-462500Y-66000D01*
X-463000Y-65500D02*
Y-46750D01*
X211220Y-71280D02*
Y-62885D01*
X210851Y-71649D02*
X211220Y-71280D01*
X207149Y-71649D02*
X210851D01*
X234000Y-120500D02*
Y-91750D01*
Y-120500D02*
X234500Y-121000D01*
X277183Y-86000D02*
X278500D01*
X272500Y-81317D02*
X277183Y-86000D01*
X272500Y-81317D02*
Y-55500D01*
X276000Y-52000D01*
X179720Y-51000D02*
X199220Y-31500D01*
X205500D01*
X179720Y-62885D02*
Y-51000D01*
X230000Y-258000D02*
Y-253000D01*
X234000Y-249000D01*
X382000Y-305750D02*
X391750D01*
X402500Y-295000D01*
X410500D01*
Y-288080D01*
X413820Y-284760D01*
X411993Y-335837D02*
X413820Y-334010D01*
X411993Y-341004D02*
Y-335837D01*
X410500Y-359500D02*
X412500Y-361500D01*
Y-370500D02*
Y-361500D01*
X399000Y-359500D02*
X410500D01*
X319500Y-239500D02*
Y-234500D01*
Y-229500D01*
Y-223000D01*
X313000Y-216500D02*
X319500Y-223000D01*
X309999Y-216500D02*
X313000D01*
X308999Y-217500D02*
X309999Y-216500D01*
X304000Y-231500D02*
Y-222499D01*
X308999Y-217500D01*
X349500Y-255000D02*
Y-244500D01*
Y-239500D01*
X368000Y-239000D02*
X371500D01*
X380000Y-247500D01*
X380499D01*
X413820Y-284760D02*
Y-279180D01*
X417500Y-275500D01*
X422500D01*
D42*
X421500Y-371000D02*
X423000Y-369500D01*
X372230Y-328500D02*
X385730Y-342000D01*
X-187500Y-8000D02*
Y10500D01*
X-193000Y16000D02*
X-187500Y10500D01*
X-201000Y-107000D02*
X-195500Y-101500D01*
X-200500Y-115000D02*
X-196000Y-110500D01*
X372000Y-328500D02*
X372230D01*
X371000D02*
X372000D01*
X376500Y-333000D01*
X366230Y-322500D02*
X371000Y-327270D01*
X355000Y-311270D02*
X366230Y-322500D01*
Y-323730D02*
X371000Y-328500D01*
X366230Y-323730D02*
Y-322500D01*
X438500Y-5500D02*
Y1500D01*
X438000Y2000D02*
X438500D01*
X438000Y2000D02*
X438000Y2000D01*
X438000Y8500D02*
X438500Y9000D01*
Y16000D01*
X434500Y69000D02*
X440000Y63500D01*
X428400Y75100D02*
X434500Y69000D01*
X440000Y40000D02*
Y63500D01*
X438500Y38500D02*
X440000Y40000D01*
X408000Y75100D02*
X428400D01*
X438500Y16000D02*
Y25500D01*
X385730Y-349230D02*
Y-342000D01*
X387500Y-373000D02*
Y-351000D01*
X385730Y-349230D02*
X387500Y-351000D01*
X-201000Y-110500D02*
Y-107000D01*
Y-110500D02*
X-196000D01*
X73500Y32500D02*
Y35000D01*
X74000Y35500D01*
X73500Y36000D02*
X92750Y55250D01*
X73500Y36000D02*
X74000Y35500D01*
X92750Y55250D02*
X94500D01*
X423000Y-369500D02*
Y-359500D01*
X417000Y-382500D02*
X421500Y-378000D01*
X397000Y-382500D02*
X417000D01*
X387500Y-373000D02*
X397000Y-382500D01*
X421500Y-378000D02*
Y-371000D01*
Y-370500D01*
X-195500Y-101500D02*
X-192000Y-98000D01*
X360250Y-198500D02*
Y-187750D01*
X372500Y-175500D01*
X388000D01*
X355000Y-311270D02*
Y-305000D01*
X371000Y-328500D02*
Y-327270D01*
X438000Y2000D02*
X438500Y1500D01*
X438000Y2000D02*
Y8500D01*
D43*
X-99476Y-36500D02*
X-95976Y-33000D01*
X-383460Y-205436D02*
X-357396Y-231500D01*
X-386230Y-206583D02*
X-358544Y-234270D01*
X-386230Y-206583D02*
Y-133484D01*
X-389000Y-207731D02*
X-359691Y-237040D01*
X-392000Y-208648D02*
Y-167099D01*
Y-208648D02*
X-367000Y-233648D01*
X-400770Y-203730D02*
X-398000Y-206500D01*
Y-223927D02*
X-395479Y-226447D01*
X-398000Y-223927D02*
Y-206500D01*
X-179790Y-306790D02*
Y-295366D01*
X-185000Y-312000D02*
X-179790Y-306790D01*
X-329499Y-176000D02*
X-315999Y-189500D01*
X-163107Y-153500D02*
Y-144500D01*
X-159603Y-41603D02*
X-146021Y-55184D01*
X-84023Y16560D02*
X-64813Y35770D01*
X-97923Y16560D02*
X-84023D01*
X-80500Y24000D02*
X-65960Y38540D01*
X-100921Y17480D02*
X-94401Y24000D01*
X-80500D01*
X-138980Y17480D02*
X-100921D01*
X-99773Y14710D02*
X-97923Y16560D01*
X-89773Y13790D02*
X-88253Y12270D01*
X-96776Y13790D02*
X-89773D01*
X-98626Y11940D02*
X-96776Y13790D01*
X-141523Y11940D02*
X-98626D01*
X-115500Y25000D02*
X-113000Y22500D01*
X-120000Y25000D02*
X-115500D01*
X-97479Y9170D02*
X-95629Y11020D01*
X-159190Y25690D02*
X-142670Y9170D01*
X-158043Y28460D02*
X-141523Y11940D01*
X-156895Y31230D02*
X-140375Y14710D01*
X-155500Y34000D02*
X-138980Y17480D01*
X-140375Y14710D02*
X-99773D01*
X-142670Y9170D02*
X-97479D01*
X-104500Y23000D02*
Y24500D01*
X-92000Y34500D02*
X-69000Y57500D01*
X43500D01*
X65500Y35500D01*
Y13500D02*
Y35500D01*
Y13500D02*
X102500Y-23500D01*
Y-38000D02*
Y-23500D01*
X-165500Y-272500D02*
Y-260000D01*
X-151500Y-270901D02*
X-148079Y-267480D01*
X-151500Y-275500D02*
Y-270901D01*
X-155730Y-307730D02*
Y-264230D01*
X-165500Y-260000D02*
X-144500Y-239000D01*
X-171020Y-258020D02*
X-159500Y-246500D01*
X-171020Y-291480D02*
X-166980Y-295520D01*
X-171020Y-291480D02*
Y-258020D01*
X-155730Y-264230D02*
X-147000Y-255500D01*
X-158500Y-303401D02*
Y-262500D01*
X-115500Y34500D02*
X-105000Y24000D01*
X108040Y-248040D02*
X125040Y-265040D01*
X109770Y-245270D02*
X126770Y-262270D01*
X125040Y-265040D02*
X139788D01*
X142578Y-267830D01*
X140935Y-262270D02*
X143725Y-265060D01*
X126770Y-262270D02*
X140935D01*
X142083Y-259500D02*
X144873Y-262290D01*
X127917Y-259500D02*
X142083D01*
X110917Y-242500D02*
X127917Y-259500D01*
X154583Y-267830D02*
X164413Y-258000D01*
X125500Y-239000D02*
X146020Y-259520D01*
X151079D01*
X144873Y-262290D02*
X152227D01*
X143725Y-265060D02*
X153374D01*
X142578Y-267830D02*
X154583D01*
X159560Y-258710D02*
X163040Y-255230D01*
X159560Y-258874D02*
Y-258710D01*
X153374Y-265060D02*
X159560Y-258874D01*
X156790Y-257227D02*
X161557Y-252460D01*
X156790Y-257727D02*
Y-257227D01*
X152227Y-262290D02*
X156790Y-257727D01*
X154020Y-256079D02*
X160409Y-249690D01*
X154020Y-256579D02*
Y-256079D01*
X151079Y-259520D02*
X154020Y-256579D01*
X165561Y-260770D02*
X193561D01*
X149810Y-276520D02*
X165561Y-260770D01*
X166708Y-263540D02*
X194708D01*
X150958Y-279290D02*
X166708Y-263540D01*
X160435Y-273730D02*
X175131D01*
X152105Y-282060D02*
X160435Y-273730D01*
X161583Y-276500D02*
X173983D01*
X153253Y-284830D02*
X161583Y-276500D01*
X162697Y-279303D02*
X190697D01*
X154143Y-287857D02*
X162697Y-279303D01*
X132020Y-276520D02*
X149810D01*
X129790Y-279290D02*
X150958D01*
X128060Y-282060D02*
X152105D01*
X125830Y-284830D02*
X153253D01*
X123857Y-287857D02*
X154143D01*
X-105000Y24000D02*
X-104500Y24500D01*
X-90921Y11020D02*
X-89401Y9500D01*
X-95629Y11020D02*
X-90921D01*
X-378340Y-103123D02*
X-374900Y-106563D01*
X-383880Y-105417D02*
X-380440Y-108857D01*
X-389420Y-107712D02*
X-385980Y-111152D01*
X309750Y-306750D02*
X353250D01*
X-100500Y-152000D02*
X-99000Y-150500D01*
X-98500D01*
X-98000D01*
X-218500Y-148000D02*
X-195000Y-124500D01*
X-166500Y-165000D02*
Y-140822D01*
Y-183500D02*
Y-165000D01*
X-171107Y-192500D02*
X-153500Y-174893D01*
Y-160500D01*
X-160500Y-153500D02*
X-153500Y-160500D01*
X-155726Y-83710D02*
X-148273D01*
X-154579Y-86480D02*
X-149420D01*
X-177029Y-115996D02*
X-160500Y-99467D01*
Y-98500D01*
X-138500Y-89000D02*
X-119000D01*
X-144533Y-95550D02*
X-104000Y-136083D01*
X-144533Y-95550D02*
X-144533D01*
X-144533D02*
X-143710Y-94726D01*
Y-88273D01*
X-148273Y-83710D02*
X-143710Y-88273D01*
X-149420Y-86480D02*
X-146480Y-89420D01*
Y-93579D02*
Y-89420D01*
X-147480Y-94579D02*
X-146480Y-93579D01*
X-147480Y-96520D02*
Y-94579D01*
X-196000Y-131500D02*
X-193500D01*
X-196500Y-124500D02*
X-195000D01*
X-195500Y-149500D02*
X-192000Y-146000D01*
X-126000Y-24599D02*
Y-3000D01*
Y-24599D02*
X-109079Y-41520D01*
X-106980D02*
X-105000Y-43500D01*
X-109079Y-41520D02*
X-106980D01*
X-89401Y9500D02*
X-73000D01*
X-88253Y12270D02*
X-74230D01*
X-120000Y34500D02*
X-115500D01*
X-147480Y-96520D02*
X-106770Y-137230D01*
X-119000Y-89000D02*
X-119000Y-89000D01*
X-157227Y-85210D02*
X-155726Y-83710D01*
X-157610Y-85210D02*
X-157227D01*
X-156079Y-87980D02*
X-154579Y-86480D01*
X-161911Y-87980D02*
X-156079D01*
X-169958Y-79933D02*
X-161911Y-87980D01*
X-166422Y-76398D02*
X-157610Y-85210D01*
X-106770Y-170147D02*
Y-137230D01*
X-104000Y-169000D02*
Y-136083D01*
X-131000Y36500D02*
Y50000D01*
Y36500D02*
X-129000Y34500D01*
X-136500Y25000D02*
X-129000D01*
X-141000Y29500D02*
X-136500Y25000D01*
X-141000Y29500D02*
Y50000D01*
X-231000Y34000D02*
X-155500D01*
X-20417Y50500D02*
X29500D01*
X-65960Y38540D02*
X-32377D01*
X-20417Y50500D01*
X-31230Y35770D02*
X-20709Y46291D01*
X17709D01*
X-64813Y35770D02*
X-31230D01*
X-232147Y31230D02*
X-156895D01*
X-53500Y33000D02*
X-14500D01*
X-233295Y28460D02*
X-158043D01*
X-74230Y12270D02*
X-53500Y33000D01*
X-52500Y30000D02*
X-9500D01*
X-73000Y9500D02*
X-52500Y30000D01*
X-234442Y25690D02*
X-159190D01*
X71500Y-89000D02*
Y-80500D01*
X76000Y-76000D01*
X-48000Y-100000D02*
X-39000D01*
X-52000Y-96000D02*
X-48000Y-100000D01*
X-52000Y-96000D02*
Y-89962D01*
X-45507Y-83469D01*
X-410500Y-101500D02*
X-406500D01*
X-415000Y-106000D02*
X-410500Y-101500D01*
X-420250Y-106000D02*
X-415000D01*
X-379417Y-371500D02*
X147D01*
X-400270Y-350647D02*
X-379417Y-371500D01*
X-400270Y-350647D02*
Y-341230D01*
X-403000Y-338500D02*
X-400270Y-341230D01*
X-378270Y-368730D02*
X-1000D01*
X-397500Y-349500D02*
X-378270Y-368730D01*
X-397500Y-349500D02*
Y-322500D01*
X-414217Y-338500D02*
X-403000D01*
X-100500Y-163533D02*
Y-152000D01*
Y-163533D02*
X-95004Y-169029D01*
X-407698Y-246500D02*
X-407698D01*
X-414500D02*
X-407698D01*
X-401000Y-239802D01*
X-189520Y-57080D02*
X-181609Y-64990D01*
X-184500Y-54099D02*
X-175079Y-63520D01*
X-189520Y-57080D02*
Y-44421D01*
X-183520Y-38421D01*
Y-33520D01*
X-184500Y-54099D02*
Y-46500D01*
X-168500Y-41500D02*
X-165965D01*
X-178500Y-52500D02*
X-173000Y-58000D01*
X-178500Y-52500D02*
Y-51500D01*
X-172500Y-57500D02*
X-164107D01*
X-173000Y-58000D02*
X-172500Y-57500D01*
X-183520Y-33520D02*
X-151500Y-1500D01*
X-171000Y-49500D02*
X-167000Y-53500D01*
X-172229Y-63520D02*
X-162887Y-72862D01*
X-181609Y-80331D02*
Y-64990D01*
X-175079Y-63520D02*
X-172229D01*
X-181609Y-80331D02*
X-177029Y-84911D01*
X-119000Y-89000D02*
X-105000Y-75000D01*
Y-43500D01*
X-95976Y-33000D02*
X-95004Y-33971D01*
X-150000Y-22000D02*
Y-3917D01*
X-235590Y22920D02*
X-160821D01*
X-146480Y8579D01*
X-150000Y-3917D02*
X-146480Y-397D01*
Y8579D01*
X-151500Y-1500D02*
Y6500D01*
X247000Y-311000D02*
X259950Y-298050D01*
Y-291273D01*
X234000Y-311500D02*
X247250Y-298250D01*
Y-291273D01*
X104599Y-392000D02*
X246217D01*
X84579Y-371980D02*
X104599Y-392000D01*
X82480Y-371980D02*
X84579D01*
X55000Y-356500D02*
X77500Y-379000D01*
X84500D01*
X66000Y-355500D02*
Y-341500D01*
Y-355500D02*
X82480Y-371980D01*
X140337Y-389020D02*
X140357Y-389000D01*
X128663Y-389020D02*
X140337D01*
X128643Y-389000D02*
X128663Y-389020D01*
X115500Y-389000D02*
X128643D01*
X104500Y-378000D02*
X115500Y-389000D01*
X109599Y-330000D02*
X133099D01*
X109579Y-330020D02*
X109599Y-330000D01*
X105421Y-330020D02*
X109579D01*
X105401Y-330000D02*
X105421Y-330020D01*
X60500Y-330000D02*
X105401D01*
X133099D02*
X137520Y-334421D01*
X55000Y-335500D02*
X60500Y-330000D01*
X116000Y-343500D02*
X132000D01*
X246217Y-392000D02*
X259950Y-378267D01*
Y-375728D01*
X243410Y-389090D02*
X246750Y-385750D01*
X180180Y-386320D02*
X183250Y-383250D01*
X166403Y-386320D02*
X180180D01*
X140357Y-389000D02*
X165166D01*
X165256Y-389090D02*
X243410D01*
X165166Y-389000D02*
X165256Y-389090D01*
X166313Y-386230D02*
X166403Y-386320D01*
X163033Y-386230D02*
X166313D01*
X149710Y-372907D02*
X163033Y-386230D01*
X158479Y-357479D02*
X188979D01*
X137520Y-336520D02*
X158479Y-357479D01*
X141353Y-318770D02*
X177292Y-354709D01*
X190385D01*
X178439Y-351939D02*
X191533D01*
X142500Y-316000D02*
X178439Y-351939D01*
X164413Y-258000D02*
X191352D01*
X165128Y-378228D02*
X170550D01*
X78500Y-355000D02*
Y-343500D01*
Y-355000D02*
X84500Y-361000D01*
X91500D01*
X104500Y-374000D01*
Y-378000D02*
Y-374000D01*
X246750Y-385750D02*
Y-377228D01*
X183250Y-383250D02*
Y-377228D01*
X149710Y-372907D02*
Y-366710D01*
X138000Y-355000D02*
X149710Y-366710D01*
X110000Y-355000D02*
X138000D01*
X103500Y-348500D02*
X110000Y-355000D01*
X103500Y-348500D02*
Y-343500D01*
X152480Y-365579D02*
X165128Y-378228D01*
X152480Y-365579D02*
Y-363980D01*
X132000Y-343500D02*
X152480Y-363980D01*
X137520Y-336520D02*
Y-334421D01*
X55000Y-356500D02*
Y-335500D01*
X29000Y-329000D02*
X35500D01*
X45730Y-318770D01*
X141353D01*
X30000Y-316000D02*
X142500D01*
X11000Y-335000D02*
X30000Y-316000D01*
X14500Y-343500D02*
X29000Y-329000D01*
X147Y-371500D02*
X14500Y-357147D01*
Y-343500D01*
X11020Y-356710D02*
Y-347114D01*
X-1000Y-368730D02*
X11020Y-356710D01*
X11000Y-347094D02*
Y-335000D01*
Y-347094D02*
X11020Y-347114D01*
X270335Y-347500D02*
X286000D01*
Y-316000D01*
X190697Y-279303D02*
X239000Y-231000D01*
X189550Y-276533D02*
X236000Y-230083D01*
X188402Y-273763D02*
X232580Y-229585D01*
X175164Y-273763D02*
X188402D01*
X174016Y-276533D02*
X189550D01*
X173983Y-276500D02*
X174016Y-276533D01*
X175131Y-273730D02*
X175164Y-273763D01*
X194708Y-263540D02*
X229810Y-228438D01*
X193561Y-260770D02*
X227040Y-227291D01*
X160409Y-249690D02*
X187909D01*
X161557Y-252460D02*
X189057D01*
X190204Y-255230D02*
X221500Y-223934D01*
X163040Y-255230D02*
X190204D01*
X191352Y-258000D02*
X224270Y-225082D01*
X-389480Y-251520D02*
X-362980D01*
X-391021Y-249979D02*
X-389480Y-251520D01*
X-404078Y-249979D02*
X-391021D01*
X-408000Y-253901D02*
X-404078Y-249979D01*
X-408000Y-254300D02*
Y-253901D01*
X-353500Y-261000D02*
X-346599D01*
X-362980Y-251520D02*
X-353500Y-261000D01*
X-389000Y-246500D02*
X-386000D01*
X-82000Y-134000D02*
X-74500Y-126500D01*
X157421Y-135020D02*
X167079D01*
X153980Y-131579D02*
X157421Y-135020D01*
X153980Y-131579D02*
Y-127421D01*
X155000Y-126401D01*
Y-75500D01*
X159000Y-129500D02*
X198500D01*
X167079Y-135020D02*
X167099Y-135000D01*
X150500Y22395D02*
X170220Y42115D01*
X150500Y-53500D02*
Y22395D01*
Y-53500D02*
X172500Y-75500D01*
X293270Y-78964D02*
Y-49730D01*
X296500Y-79651D02*
Y-59500D01*
X299574Y-80494D02*
Y-68926D01*
X294439Y-81712D02*
X296500Y-79651D01*
X297209Y-82859D02*
X299574Y-80494D01*
X288899Y-86101D02*
Y-50101D01*
X276270Y-102647D02*
X291669Y-87248D01*
X280000Y-102835D02*
X294439Y-88395D01*
X286000Y-100752D02*
X297209Y-89543D01*
X273500Y-101500D02*
X288899Y-86101D01*
X291669Y-80564D02*
X293270Y-78964D01*
X291669Y-87248D02*
Y-80564D01*
X294439Y-88395D02*
Y-81712D01*
X297209Y-89543D02*
Y-82859D01*
X286000Y-131500D02*
Y-100752D01*
X280000Y-133583D02*
Y-102835D01*
X276270Y-117548D02*
Y-102647D01*
X273500Y-116401D02*
Y-101500D01*
X-111000Y50000D02*
Y63500D01*
X-177029Y-87004D02*
Y-84911D01*
X-121000Y50000D02*
Y64000D01*
X-237670Y25000D02*
X-235590Y22920D01*
X-243500Y25000D02*
X-237670D01*
X-238752Y30000D02*
X-234442Y25690D01*
X-239728Y30000D02*
X-238752D01*
X-237835Y33000D02*
X-233295Y28460D01*
X-238485Y33000D02*
X-237835D01*
X-237147Y36230D02*
X-232147Y31230D01*
X-237798Y36230D02*
X-237147D01*
X-254155Y57155D02*
X-231000Y34000D01*
X-255838Y54270D02*
X-237798Y36230D01*
X-256985Y51500D02*
X-238485Y33000D01*
X-257728Y48000D02*
X-239728Y30000D01*
X-263634Y45134D02*
X-243500Y25000D01*
X109995Y75506D02*
X118494D01*
X125000Y69000D01*
Y-45500D02*
Y69000D01*
Y-45500D02*
X155000Y-75500D01*
X167099Y-135000D02*
X200083D01*
X248000Y-141901D02*
X273500Y-116401D01*
X246770Y-170730D02*
X286000Y-131500D01*
X244000Y-169583D02*
X280000Y-133583D01*
X-144500Y-239000D02*
X125500D01*
X100120Y-259120D02*
X125830Y-284830D01*
X102350Y-256350D02*
X128060Y-282060D01*
X104080Y-253580D02*
X129790Y-279290D01*
X106310Y-250810D02*
X132020Y-276520D01*
X-128000Y-255500D02*
X-117770Y-245270D01*
X83390Y-261890D02*
X97500Y-276000D01*
X-91390Y-261890D02*
X83390D01*
X-96500Y-267000D02*
X-91390Y-261890D01*
X-93120Y-259120D02*
X100120D01*
X-100500Y-266500D02*
X-93120Y-259120D01*
X-99770Y-256350D02*
X102350D01*
X-106000Y-262580D02*
X-99770Y-256350D01*
X-101270Y-253580D02*
X104080D01*
X-109500Y-261810D02*
X-101270Y-253580D01*
X-104060Y-250810D02*
X106310D01*
X-113500Y-260250D02*
X-104060Y-250810D01*
X-106040Y-248040D02*
X108040D01*
X-116500Y-258500D02*
X-106040Y-248040D01*
X-117770Y-245270D02*
X109770D01*
X-118917Y-242500D02*
X110917D01*
X-128417Y-252000D02*
X-118917Y-242500D01*
X-166980Y-301579D02*
Y-295520D01*
X-159000Y-311000D02*
X-155730Y-307730D01*
X-158500Y-262500D02*
X-148000Y-252000D01*
X-164020Y-308921D02*
X-158500Y-303401D01*
X-77327Y-151351D02*
X-65500Y-163178D01*
Y-167500D02*
Y-163178D01*
Y-167500D02*
X-55770Y-177230D01*
X-116500Y-180000D02*
X-97110Y-199390D01*
X-76478Y-193000D02*
X-72858Y-196620D01*
X-75560Y-190000D02*
X-71710Y-193850D01*
X-74643Y-187000D02*
X-70563Y-191080D01*
X-73726Y-184000D02*
X-69416Y-188310D01*
X-72808Y-181000D02*
X-68268Y-185540D01*
X-87933Y-161958D02*
X-67121Y-182770D01*
X-84398Y-158422D02*
X-62820Y-180000D01*
X165000Y-153000D02*
Y-147500D01*
X173000Y-139500D01*
X198000D01*
X208020Y-193579D02*
Y-158020D01*
X194230Y-144230D02*
X208020Y-158020D01*
X197000Y-196000D02*
X197520Y-196520D01*
X204000Y-226500D02*
Y-219500D01*
X293000Y-256500D02*
X297000Y-252500D01*
X309000D01*
X304500Y-301500D02*
Y-289500D01*
X298500Y-283500D02*
X304500Y-289500D01*
X295000Y-283500D02*
X298500D01*
X285500Y-274000D02*
X295000Y-283500D01*
X285500Y-274000D02*
Y-250000D01*
X295000Y-240500D01*
X-82000Y-139607D02*
Y-134000D01*
Y-139607D02*
X-73791Y-147816D01*
X-58464Y-149000D02*
X-42500D01*
X-66720Y-140744D02*
X-58464Y-149000D01*
X-322000Y-205500D02*
X-175000D01*
X-317000Y-202500D02*
X-176500D01*
X-59621Y-26872D02*
Y-11065D01*
X-80862Y-48113D02*
X-59621Y-26872D01*
X-83106Y-64500D02*
X-73791Y-55184D01*
X-88000Y-64500D02*
X-83106D01*
X-138138Y-48113D02*
X-130000Y-56251D01*
Y-61500D02*
Y-56251D01*
X-56660Y-87551D02*
X-49042Y-79933D01*
X-56660Y-97160D02*
Y-87551D01*
X-61500Y-102000D02*
X-56660Y-97160D01*
X-68500Y-102000D02*
X-61500D01*
X-141500Y-30609D02*
X-131067Y-41042D01*
X-141500Y-30609D02*
Y-30500D01*
X-150500Y-42822D02*
X-141673Y-51649D01*
X-150500Y-42822D02*
Y-39500D01*
X-158500Y-31500D02*
X-150500Y-39500D01*
X-146680Y-32500D02*
X-134602Y-44578D01*
X-148000Y-32500D02*
X-146680D01*
X-146021Y-55184D02*
X-145209D01*
X-159603Y-41603D02*
X-158763D01*
X-165965Y-41500D02*
X-148744Y-58720D01*
X-161035Y-53500D02*
X-152280Y-62256D01*
X-167000Y-53500D02*
X-161035D01*
X-164107Y-57500D02*
X-155815Y-65791D01*
X-150000Y-22000D02*
X-141500Y-30500D01*
X-333866Y45134D02*
X-263634D01*
X-352000Y27000D02*
X-333866Y45134D01*
X173770Y-144230D02*
X194230D01*
X168230Y-149770D02*
X173770Y-144230D01*
X168230Y-154770D02*
Y-149770D01*
X-99000Y-193000D02*
X-76478D01*
X-95917Y-190000D02*
X-75560D01*
X-95000Y-187000D02*
X-74643D01*
X-92917Y-184000D02*
X-73726D01*
X-92000Y-181000D02*
X-72808D01*
X-113000Y-172917D02*
X-95917Y-190000D01*
X-122971Y-169029D02*
X-99000Y-193000D01*
X-104000Y-169000D02*
X-92000Y-181000D01*
X-106770Y-170147D02*
X-92917Y-184000D01*
X-110000Y-172000D02*
X-95000Y-187000D01*
X203000Y-191500D02*
Y-158000D01*
X192000Y-147000D02*
X203000Y-158000D01*
X175500Y-147000D02*
X192000D01*
X171000Y-151500D02*
X175500Y-147000D01*
X171000Y-156500D02*
Y-151500D01*
X157770Y-169730D02*
X171000Y-156500D01*
X159500Y-172500D02*
X179500Y-152500D01*
X392500Y-337500D02*
X398989D01*
X402493Y-341004D01*
X77000Y-291500D02*
X109500D01*
X118000Y-300000D01*
X131500D01*
X-133000Y-180000D02*
X-116500D01*
X-134500Y-178500D02*
X-133000Y-180000D01*
X-134500Y-178500D02*
Y-172462D01*
X-127531Y-165493D01*
X-123996Y-169029D02*
X-122971D01*
X-113000Y-172917D02*
Y-148500D01*
X-143000Y-118500D02*
X-113000Y-148500D01*
X-151249Y-118500D02*
X-143000D01*
X-162887Y-130138D02*
X-151249Y-118500D01*
X-110000Y-172000D02*
Y-147000D01*
X-141500Y-115500D02*
X-110000Y-147000D01*
X-155320Y-115500D02*
X-141500D01*
X-166422Y-126602D02*
X-155320Y-115500D01*
X-164020Y-315099D02*
X-159619Y-319500D01*
X-144500D01*
X-131480Y-306480D01*
X-116387D01*
X-109000Y-299093D01*
X-118020Y-303520D02*
X-115000Y-300500D01*
X-139520Y-303520D02*
X-118020D01*
X-147000Y-311000D02*
X-139520Y-303520D01*
X-121500Y-311500D02*
X-116500Y-316500D01*
X-100500Y-287500D02*
Y-266500D01*
X-105500Y-292500D02*
X-100500Y-287500D01*
X-111500Y-292500D02*
X-105500D01*
X-115000Y-296000D02*
X-111500Y-292500D01*
X-115000Y-300500D02*
Y-296000D01*
X-164020Y-315099D02*
Y-308921D01*
X-176500Y-362500D02*
X-166980Y-352980D01*
Y-347421D01*
X-167000Y-301599D02*
X-166980Y-301579D01*
X-167000Y-347401D02*
Y-301599D01*
Y-347401D02*
X-166980Y-347421D01*
X-148000Y-252000D02*
X-128417D01*
X-116500Y-267500D02*
Y-258500D01*
X-113500Y-269000D02*
Y-260250D01*
X-109500Y-273500D02*
Y-261810D01*
X-106000Y-275000D02*
Y-262580D01*
X-96500Y-309000D02*
Y-267000D01*
X-147000Y-255500D02*
X-128000D01*
X179500Y-75500D02*
X182500Y-78500D01*
X172500Y-75500D02*
X179500D01*
X-261000Y-362500D02*
X-176500D01*
X-320638Y-192500D02*
X-171107D01*
X-172500Y-189500D02*
X-166500Y-183500D01*
X-315999Y-189500D02*
X-172500D01*
X-166500Y-140822D02*
X-159351Y-133673D01*
X-163107Y-144500D02*
X-155815Y-137209D01*
X-445400Y-291900D02*
X-435600D01*
X-445999Y-292499D02*
X-445400Y-291900D01*
X-453000Y-291500D02*
X-448400Y-286900D01*
X-453000Y-316500D02*
Y-291500D01*
X-459000Y-288000D02*
X-452900Y-281900D01*
X-441400Y-296900D02*
X-435600D01*
X-443999Y-299499D02*
X-441400Y-296900D01*
X-443999Y-302499D02*
Y-299499D01*
X-464500Y-96000D02*
Y-91500D01*
Y-100500D02*
Y-96000D01*
X-451250D02*
X-450750Y-96500D01*
X-464500Y-96000D02*
X-451250D01*
X21000Y-3500D02*
X23000Y-1500D01*
Y23000D01*
X6000Y40000D02*
X23000Y23000D01*
X1500Y40000D02*
X6000D01*
X-14500Y33000D02*
X3000D01*
X-14500D02*
X-7500Y40000D01*
X-229500Y-12500D02*
X-229000Y-12000D01*
X-238000Y-12500D02*
X-229500D01*
X-229500Y-3500D02*
X-229000Y-4000D01*
X-238000Y-3500D02*
X-229500D01*
X-284500Y-12000D02*
X-284000Y-12500D01*
X-293000Y-12000D02*
X-284500D01*
X-284500Y-4000D02*
X-284000Y-3500D01*
X-293000Y-4000D02*
X-284500D01*
X365000Y-35500D02*
X374000D01*
X359500Y-30000D02*
X365000Y-35500D01*
X350000Y-30000D02*
X359500D01*
X364000Y-40500D02*
X374000D01*
X362000Y-38500D02*
X364000Y-40500D01*
X350000Y-38500D02*
X362000D01*
X-217700Y-168800D02*
X-193300D01*
X-192500Y-168000D01*
X-227000Y-169000D02*
X-221500Y-174500D01*
X-192500D01*
X-246000Y-169000D02*
X-235500Y-179500D01*
X-274100Y-168100D02*
X-264100D01*
X-259000Y-163000D01*
X-196500D01*
X-190000Y-156500D01*
Y-154500D01*
X-283000Y-166500D02*
X-282500D01*
X-276230Y-160230D01*
X-201230D01*
X-195500Y-154500D01*
Y-149500D01*
X-235500Y-179500D02*
X-186000D01*
X-301900Y-168600D02*
X-296100D01*
X-284000Y-156500D01*
X-210000D01*
X-196000Y-142500D01*
Y-140000D01*
X-294700Y-152500D02*
X-217000D01*
X-196000Y-131500D01*
X-301000Y-148000D02*
X-218500D01*
X-255100Y-168900D02*
X-240230Y-183770D01*
X-179075D01*
X-177000Y-181695D01*
X277810Y25695D02*
X292300Y11204D01*
Y-21974D02*
Y11204D01*
X280809Y-33465D02*
X292300Y-21974D01*
X242140Y-33465D02*
X280809D01*
X252057Y25695D02*
X277810D01*
X261720Y32235D02*
X280518D01*
X298840Y13913D01*
Y-24683D02*
Y13913D01*
X283518Y-40005D02*
X298840Y-24683D01*
X254100Y-40005D02*
X283518D01*
X281666Y35005D02*
X301610Y15061D01*
Y-25831D02*
Y15061D01*
X284666Y-42775D02*
X301610Y-25831D01*
X263830Y-42775D02*
X284666D01*
X265830Y35005D02*
X281666D01*
X272720Y38115D02*
X273060Y37775D01*
X282813D01*
X304720Y15868D01*
Y-26638D02*
Y15868D01*
X285473Y-45885D02*
X304720Y-26638D01*
X270720Y38115D02*
X272720D01*
X250910Y22925D02*
X276662D01*
X289530Y10057D01*
Y-20827D02*
Y10057D01*
X279662Y-30695D02*
X289530Y-20827D01*
X222910Y-30695D02*
X279662D01*
X249597Y20155D02*
X275515D01*
X286760Y8910D01*
Y-19680D02*
Y8910D01*
X278515Y-27925D02*
X286760Y-19680D01*
X234220Y35532D02*
Y58115D01*
Y35532D02*
X249597Y20155D01*
X239315Y34520D02*
X250910Y22925D01*
X239315Y34520D02*
Y53210D01*
X249220Y28532D02*
X252057Y25695D01*
X249220Y28532D02*
Y54115D01*
X259125Y34830D02*
X261720Y32235D01*
X259125Y34830D02*
Y52710D01*
X264219Y36616D02*
X265830Y35005D01*
X264219Y36616D02*
Y58114D01*
X269238Y39597D02*
Y64096D01*
X269220Y64115D02*
X269238Y64096D01*
Y39597D02*
X270720Y38115D01*
X266220Y-62885D02*
Y-53885D01*
X274220Y-45885D01*
X285473D01*
X255220Y-51385D02*
X263830Y-42775D01*
X255220Y-62885D02*
Y-51385D01*
X244220Y-62885D02*
Y-49885D01*
X254100Y-40005D01*
X222220Y-53385D02*
X242140Y-33465D01*
X222220Y-62885D02*
Y-53385D01*
X200220Y-53385D02*
X222910Y-30695D01*
X200220Y-62885D02*
Y-53385D01*
X170220Y42115D02*
Y52615D01*
X170720Y53115D01*
X-275280Y31615D02*
Y40114D01*
X-247665Y4000D02*
X-245000D01*
X-275280Y31615D02*
X-247665Y4000D01*
X4000D02*
Y16500D01*
X-9500Y30000D02*
X4000Y16500D01*
X3000Y33000D02*
X12000Y24000D01*
X29500Y50500D02*
X56000Y24000D01*
X-204000Y-289500D02*
X-201500Y-292000D01*
X-189000D01*
X-185107Y-295893D01*
Y-299000D02*
Y-295893D01*
X-178500Y-317500D02*
X-174000Y-313000D01*
X-191000Y-317500D02*
X-178500D01*
X-197307Y-311193D02*
X-191000Y-317500D01*
X-197307Y-311193D02*
Y-298500D01*
X-174000Y-294400D02*
Y-261500D01*
Y-313000D02*
Y-304598D01*
X-179790Y-295366D02*
X-177500Y-293076D01*
X-177020Y-301579D02*
Y-297420D01*
Y-301579D02*
X-174000Y-304598D01*
X-177020Y-297420D02*
X-174000Y-294400D01*
X377000Y-210500D02*
X377500Y-210000D01*
X395000D01*
X382020Y-222500D02*
X395000D01*
X-262500Y-328500D02*
X-253000Y-338000D01*
X-185500D01*
X-174000Y-349500D01*
X-172000D01*
X-255000Y-342000D02*
X-192500D01*
X-185000Y-349500D01*
X-266583Y-274000D02*
X-249999D01*
X-249000Y-275000D01*
X-236999D02*
X-236500Y-274500D01*
X-223000Y-286000D02*
X-216500Y-279500D01*
Y-270000D01*
X-248500Y-323500D02*
Y-303500D01*
X-235507Y-324000D02*
Y-310993D01*
X-262500Y-328500D02*
Y-294500D01*
X-266000Y-331000D02*
Y-296500D01*
Y-331000D02*
X-255000Y-342000D01*
X-395400Y-296900D02*
X-379900D01*
X-395400Y-291900D02*
X-379900D01*
X-395400Y-286900D02*
X-379900D01*
X-395400Y-281900D02*
X-380900D01*
X-395400Y-276900D02*
X-381900D01*
X-395400Y-271900D02*
X-383400D01*
X-395400Y-266900D02*
X-385400D01*
X349500Y-229500D02*
X367500D01*
X368000Y-230000D01*
X309000Y-252500D02*
X326500D01*
X327000Y-252000D01*
X306000Y-261500D02*
X309000D01*
X301000Y-266500D02*
X306000Y-261500D01*
X301000Y-273000D02*
Y-266500D01*
X295000Y-231500D02*
X295000D01*
X304000Y-240500D01*
X308000Y-244500D01*
X319500D01*
X304500Y-301500D02*
X309750Y-306750D01*
X189000Y-80000D02*
Y-63105D01*
X189220Y-62885D01*
X200500Y-80000D02*
Y-63165D01*
X200220Y-62885D02*
X200500Y-63165D01*
X222500Y-80000D02*
Y-63165D01*
X222220Y-62885D02*
X222500Y-63165D01*
X244500Y-80000D02*
Y-63165D01*
X244220Y-62885D02*
X244500Y-63165D01*
X255000Y-80000D02*
Y-63105D01*
X255220Y-62885D01*
X266500Y-80000D02*
Y-63165D01*
X266220Y-62885D02*
X266500Y-63165D01*
X-146000Y-272500D02*
X-142500Y-276000D01*
X-137500Y-267480D02*
X-134000Y-270980D01*
X-148079Y-267480D02*
X-137500D01*
X-151500Y-275500D02*
X-147500Y-279500D01*
X-146500Y-298500D02*
X-134500D01*
X-125000Y-276000D02*
X-116500Y-267500D01*
X-142500Y-276000D02*
X-125000D01*
X-124000Y-279500D02*
X-113500Y-269000D01*
X-147500Y-279500D02*
X-124000D01*
X-134500Y-298500D02*
X-109500Y-273500D01*
X-121000Y-290000D02*
X-106000Y-275000D01*
X-121000Y-298500D02*
Y-290000D01*
X-116500Y-316500D02*
X-104000D01*
X-96500Y-309000D01*
X97500Y-276000D02*
X112000D01*
X123857Y-287857D01*
X-368500Y22000D02*
X-342500Y48000D01*
X-257728D01*
X-344000Y51500D02*
X-256985D01*
X-399000Y-50500D02*
Y-1000D01*
X-405000Y-7500D02*
Y3000D01*
X-400500Y7500D01*
X-72818Y-2818D02*
X-67868D01*
X-59621Y-11065D01*
X-63613Y-37935D02*
X-55379D01*
X-77327Y-51649D02*
X-63613Y-37935D01*
X-48314Y-45000D02*
X-42000D01*
X-55379Y-37935D02*
X-48314Y-45000D01*
X-123996Y-33971D02*
X-112500Y-45467D01*
X-61680Y-85500D02*
X-52578Y-76398D01*
X-60500Y-111609D02*
X-49042Y-123067D01*
X-127531Y-37507D02*
X-117520Y-47518D01*
Y-49980D02*
Y-47518D01*
Y-49980D02*
X-114000Y-53500D01*
X-62751Y-79500D02*
X-56114Y-72862D01*
X-66000Y-79500D02*
X-62751D01*
X-68000Y-81500D02*
X-66000Y-79500D01*
X-68000Y-93000D02*
Y-81500D01*
Y-93000D02*
X-65000Y-96000D01*
X318500Y-12000D02*
X341000D01*
X256500Y-141500D02*
Y-137318D01*
X288899Y-50101D02*
X313000Y-26000D01*
Y-17500D01*
X318500Y-12000D01*
X322000Y-21000D02*
X341000D01*
X293270Y-49730D02*
X322000Y-21000D01*
X330000Y-38500D02*
X341000D01*
X-448400Y-286900D02*
X-435600D01*
X299574Y-68926D02*
X330000Y-38500D01*
X326000Y-30000D02*
X341000D01*
X296500Y-59500D02*
X326000Y-30000D01*
X256500Y-137318D02*
X276270Y-117548D01*
X-452900Y-281900D02*
X-435600D01*
X109995Y75506D02*
Y82995D01*
X114000Y87000D01*
X119000D01*
X-455000Y-269000D02*
X-450000D01*
X-442500Y-261500D01*
Y-258000D01*
X-455000Y-260000D02*
X-449500D01*
X-420500Y-195500D02*
X-407500D01*
X-464000Y-260000D02*
Y-257000D01*
X-420500Y-208000D02*
X-408500D01*
X-215770Y-253730D02*
X-204000Y-265500D01*
Y-289500D02*
Y-265500D01*
X52000Y4000D02*
Y12000D01*
X17709Y46291D02*
X52000Y12000D01*
X-345147Y54270D02*
X-255838D01*
X-207540Y-250960D02*
X-197507Y-260993D01*
Y-286000D02*
Y-260993D01*
X-200810Y-248190D02*
X-177500Y-271500D01*
Y-293076D02*
Y-271500D01*
X-190080Y-245420D02*
X-174000Y-261500D01*
X-317328Y-245420D02*
X-190080D01*
X-318475Y-248190D02*
X-200810D01*
X-319623Y-250960D02*
X-207540D01*
X-320770Y-253730D02*
X-215770D01*
X-379900Y-296900D02*
X-364000Y-281000D01*
X-281500D01*
X-266000Y-296500D01*
X-225500Y-261000D02*
X-216500Y-270000D01*
X-385400Y-266900D02*
X-382270Y-263770D01*
X-231230D02*
X-223000Y-272000D01*
X-383400Y-271900D02*
X-378040Y-266540D01*
X-245459D02*
X-236999Y-275000D01*
X-381900Y-276900D02*
X-374310Y-269310D01*
X-271273D02*
X-266583Y-274000D01*
X-380900Y-281900D02*
X-371080Y-272080D01*
X-274420D02*
X-235507Y-310993D01*
X-379900Y-286900D02*
X-367850Y-274850D01*
X-277150D02*
X-248500Y-303500D01*
X-379900Y-291900D02*
X-365620Y-277620D01*
X-279380D02*
X-262500Y-294500D01*
X-344500Y-256000D02*
Y-251083D01*
X-346599Y-261000D02*
X-346579Y-261020D01*
X-342421D01*
X-342401Y-261000D01*
X-225500D01*
X-382270Y-263770D02*
X-347747D01*
X-347727Y-263790D01*
X-341273D01*
X-341253Y-263770D01*
X-231230D01*
X-378040Y-266540D02*
X-348894D01*
X-348874Y-266560D01*
X-340126D01*
X-340106Y-266540D01*
X-245459D01*
X-374310Y-269310D02*
X-350041D01*
X-350021Y-269330D01*
X-338979D01*
X-338959Y-269310D01*
X-271273D01*
X-371080Y-272080D02*
X-351189D01*
X-351169Y-272100D01*
X-337831D01*
X-337811Y-272080D01*
X-274420D01*
X-367850Y-274850D02*
X-352336D01*
X-352316Y-274870D01*
X-336684D01*
X-336664Y-274850D01*
X-277150D01*
X-365620Y-277620D02*
X-353484D01*
X-353464Y-277640D01*
X-335536D01*
X-335516Y-277620D01*
X-279380D01*
X-336165Y-255500D02*
X-332385D01*
X-338748Y-249000D02*
X-325500D01*
X-320770Y-253730D01*
X-337601Y-246230D02*
X-324353D01*
X-319623Y-250960D01*
X-336453Y-243460D02*
X-323205D01*
X-318475Y-248190D01*
X-335306Y-240690D02*
X-322058D01*
X-317328Y-245420D01*
X-377540Y25795D02*
X-346180Y57155D01*
X-254155D01*
X-420250Y-87000D02*
X-417000D01*
X-413000Y-83000D01*
X-406500D01*
X-414270Y11147D02*
X-361147Y64270D01*
X-189270D02*
X-180000Y55000D01*
X-361147Y64270D02*
X-189270D01*
X-464500Y-109500D02*
X-460000Y-114000D01*
X-450750D01*
X280000Y-333917D02*
Y-245230D01*
X246770Y-212000D02*
X280000Y-245230D01*
X246770Y-212000D02*
Y-170730D01*
X267000Y-342500D02*
Y-237500D01*
X244000Y-214500D02*
X267000Y-237500D01*
X244000Y-214500D02*
Y-169583D01*
X196450Y-291273D02*
Y-283050D01*
X204000Y-275500D01*
X230500D01*
X234550Y-279550D01*
Y-291273D02*
Y-279550D01*
X230500Y-275500D02*
Y-267500D01*
X230000Y-267000D02*
X230500Y-267500D01*
X-453000Y-316500D02*
X-443520Y-325980D01*
X-426737D01*
X-414217Y-338500D01*
X-418000Y-324500D02*
X-409000Y-315500D01*
X-408000Y-314500D01*
Y-304500D01*
X-396000D01*
X-391500Y-309000D01*
X-382000D01*
X-408500Y-208000D02*
X-407270Y-209230D01*
X-408500Y-9541D02*
Y10500D01*
X-358000Y61000D01*
X-252500D01*
X-228500Y37000D01*
X-214000D01*
X-210500Y40500D01*
X-464000Y-257000D02*
X-453020Y-246020D01*
X-449500Y-260000D02*
X-438290Y-248790D01*
X-442500Y-258000D02*
X-436060Y-251560D01*
X-433795Y-241460D02*
X-424460D01*
X-432647Y-244230D02*
X-422730D01*
X-434210Y-245793D02*
X-432647Y-244230D01*
X-436980Y-244645D02*
X-433795Y-241460D01*
X-425500Y-247000D02*
X-423000Y-249500D01*
Y-254300D02*
Y-249500D01*
X-436980Y-244837D02*
Y-244645D01*
X-438163Y-246020D02*
X-436980Y-244837D01*
X-453020Y-246020D02*
X-438163D01*
X-434210Y-245984D02*
Y-245793D01*
X-437016Y-248790D02*
X-434210Y-245984D01*
X-438290Y-248790D02*
X-437016D01*
X-431309Y-247000D02*
X-425500D01*
X-436060Y-251560D02*
X-435869D01*
X-431309Y-247000D01*
X-395479Y-240021D02*
X-389000Y-246500D01*
X-376089Y-83131D02*
Y-66335D01*
X-378859Y-81984D02*
Y-65187D01*
X-384399Y-79689D02*
Y-62892D01*
X-387169Y-78542D02*
Y-61745D01*
X-389463Y-80835D02*
X-387169Y-78542D01*
X-386693Y-81983D02*
X-384399Y-79689D01*
X-386693Y-83864D02*
Y-81983D01*
X-378340Y-88974D02*
Y-85382D01*
X-378383Y-89017D02*
X-378340Y-88974D01*
X-381153Y-87870D02*
X-381110Y-87827D01*
Y-84235D01*
X-383923Y-86722D02*
X-383880Y-86679D01*
Y-83087D01*
X-386693Y-85575D02*
X-386650Y-85532D01*
Y-83906D01*
X-386693Y-83864D02*
X-386650Y-83906D01*
X-378340Y-85382D02*
X-376089Y-83131D01*
X-381110Y-84235D02*
X-378859Y-81984D01*
X-383880Y-83087D02*
X-381629Y-80837D01*
X-414270Y-8730D02*
Y11147D01*
X-399000Y-50500D02*
X-395003Y-54497D01*
X-405000Y-7500D02*
X-401770Y-10730D01*
X-404540Y-65690D02*
Y-13501D01*
X-408500Y-9541D02*
X-404540Y-13501D01*
X-407310Y-82190D02*
Y-15690D01*
X-414270Y-8730D02*
X-407310Y-15690D01*
Y-82190D02*
X-406500Y-83000D01*
X-404540Y-65690D02*
X-401000Y-69230D01*
X-401770Y-64543D02*
X-398000Y-68313D01*
X-401770Y-64543D02*
Y-10730D01*
X-396230Y-49353D02*
X-392233Y-53350D01*
X-396230Y-49353D02*
Y-11730D01*
X-392000Y-7500D01*
X-152391Y-105500D02*
X-150000D01*
X-169958Y-123067D02*
X-152391Y-105500D01*
X-387169Y-61745D02*
X-387169Y-61745D01*
X-380940Y-38440D02*
Y-6059D01*
X-376089Y-66335D02*
X-368500Y-58745D01*
X-378859Y-65187D02*
X-371439Y-57767D01*
Y24061D02*
X-344000Y51500D01*
X-381629Y-80837D02*
Y-64040D01*
X-374209Y-56620D01*
Y25208D02*
X-345147Y54270D01*
X-384399Y-62892D02*
X-376979Y-55472D01*
X-377540Y-45086D02*
X-376979Y-45646D01*
Y-55472D02*
Y-45646D01*
X-387169Y-61745D02*
Y-44669D01*
X-380940Y-38440D01*
X-383499Y-3500D02*
X-380940Y-6059D01*
X-377540Y-45086D02*
Y25795D01*
X-374209Y-56620D02*
Y25208D01*
X-371439Y-57767D02*
Y24061D01*
X-368500Y-58745D02*
Y22000D01*
X-352000Y27000D02*
X-349750Y24750D01*
Y-10520D02*
Y24750D01*
X-407500Y-195500D02*
X-406310Y-196690D01*
X-401000Y-112730D02*
Y-69230D01*
X-378383Y-99488D02*
Y-89017D01*
Y-99488D02*
X-378340Y-99531D01*
Y-103123D02*
Y-99531D01*
X-381110Y-104270D02*
X-377670Y-107710D01*
X-381110Y-104270D02*
Y-100678D01*
X-381153Y-100635D02*
X-381110Y-100678D01*
X-381153Y-100635D02*
Y-87870D01*
X-383880Y-105417D02*
Y-101825D01*
X-383923Y-101783D02*
X-383880Y-101825D01*
X-383923Y-101783D02*
Y-86722D01*
X-386650Y-106565D02*
X-383210Y-110005D01*
X-386650Y-106565D02*
Y-102973D01*
X-386693Y-102930D02*
X-386650Y-102973D01*
X-386693Y-102930D02*
Y-85575D01*
X-389463Y-104078D02*
Y-80835D01*
Y-104078D02*
X-389420Y-104120D01*
Y-107712D02*
Y-104120D01*
X-392233Y-107341D02*
X-392190Y-107299D01*
Y-105267D01*
X-392233Y-105225D02*
X-392190Y-105267D01*
X-392233Y-105225D02*
Y-53350D01*
X-401730Y-113460D02*
X-401000Y-112730D01*
X-424460Y-241460D02*
X-407270Y-224270D01*
Y-209230D01*
X-422730Y-244230D02*
X-404500Y-226000D01*
X-403540Y-204877D02*
X-401000Y-207417D01*
Y-239802D02*
Y-207417D01*
X-406310Y-206025D02*
X-404500Y-207835D01*
Y-226000D02*
Y-207835D01*
X-406310Y-206025D02*
Y-196690D01*
X189000Y-101000D02*
Y-89000D01*
X194563Y-110480D02*
X194579D01*
X189000Y-101000D02*
X195710Y-107710D01*
X195727D01*
X224270Y-136253D01*
X182500Y-98417D02*
X194563Y-110480D01*
X194579D02*
X221500Y-137401D01*
Y-223934D02*
Y-137401D01*
X182500Y-98417D02*
Y-78500D01*
X224270Y-225082D02*
Y-136253D01*
X222500Y-126500D02*
Y-89000D01*
Y-126500D02*
X229810Y-133810D01*
Y-228438D02*
Y-133810D01*
X227040Y-227291D02*
Y-134957D01*
X200500Y-108417D02*
X227040Y-134957D01*
X200500Y-108417D02*
Y-89000D01*
X266500D02*
X266520Y-89019D01*
X232580Y-229585D02*
Y-143420D01*
X244500Y-131500D01*
Y-89000D01*
X236000Y-230083D02*
Y-143917D01*
X239000Y-231000D02*
Y-144835D01*
X266520Y-117315D01*
X236000Y-143917D02*
X255000Y-124917D01*
Y-89000D01*
X266520Y-117315D02*
Y-89019D01*
X248000Y-141901D02*
X248500Y-142400D01*
Y-150000D02*
Y-142400D01*
X189220Y-62885D02*
Y-55280D01*
X216575Y-27925D01*
X278515D01*
X349500Y-229500D02*
Y-212500D01*
X347500Y-210500D02*
X349500Y-212500D01*
X347500Y-210500D02*
Y-173000D01*
X342500Y-168000D02*
X347500Y-173000D01*
X321500Y-168000D02*
X342500D01*
X298000Y-191500D02*
X321500Y-168000D01*
X276500Y-191500D02*
X298000D01*
X275999Y-191000D02*
X276500Y-191500D01*
X203020Y-218520D02*
X204000Y-219500D01*
X199917Y-211500D02*
X203000D01*
X197480Y-213079D02*
Y-212980D01*
Y-213079D02*
X202921Y-218520D01*
X203020D01*
X197520Y-196520D02*
X205079D01*
X208020Y-193579D01*
X218560Y-222957D02*
Y-149560D01*
X215790Y-221810D02*
Y-150707D01*
X213020Y-216040D02*
Y-154520D01*
X209020Y-220040D02*
X213020Y-216040D01*
X198000Y-139500D02*
X213020Y-154520D01*
X187909Y-249690D02*
X215790Y-221810D01*
X200083Y-135000D02*
X215790Y-150707D01*
X189057Y-252460D02*
X218560Y-222957D01*
X198500Y-129500D02*
X218560Y-149560D01*
X207979Y-201020D02*
X208000Y-201000D01*
X193355Y-201020D02*
X207979D01*
X153810Y-164190D02*
X165000Y-153000D01*
X156040Y-166960D02*
X168230Y-154770D01*
X168730Y-184230D02*
X197480Y-212980D01*
X169877Y-181460D02*
X199917Y-211500D01*
X171025Y-178690D02*
X193355Y-201020D01*
X165580Y-175920D02*
X188500Y-153000D01*
X-97110Y-199390D02*
X128610D01*
X141000Y-187000D01*
X-72858Y-196620D02*
X127463D01*
X139853Y-184230D01*
X-71710Y-193850D02*
X126315D01*
X138705Y-181460D01*
X-70563Y-191080D02*
X125168D01*
X137558Y-178690D01*
X-69416Y-188310D02*
X124021D01*
X136411Y-175920D01*
X-68268Y-185540D02*
X122873D01*
X-67121Y-182770D02*
X121726D01*
X-62820Y-180000D02*
X120578D01*
X-55770Y-177230D02*
X119431D01*
X132471Y-164190D01*
X120578Y-180000D02*
X133618Y-166960D01*
X121726Y-182770D02*
X134766Y-169730D01*
X122873Y-185540D02*
X135913Y-172500D01*
X139853Y-184230D02*
X168730D01*
X138705Y-181460D02*
X169877D01*
X137558Y-178690D02*
X171025D01*
X136411Y-175920D02*
X165580D01*
X135913Y-172500D02*
X159500D01*
X134766Y-169730D02*
X157770D01*
X133618Y-166960D02*
X156040D01*
X132471Y-164190D02*
X153810D01*
X141000Y-187000D02*
X158000D01*
X195000Y-224000D01*
X155980Y-189980D02*
X182500Y-216500D01*
X143020Y-189980D02*
X155980D01*
X130840Y-202160D02*
X143020Y-189980D01*
X-118840Y-202160D02*
X130840D01*
X-139500Y-181500D02*
X-118840Y-202160D01*
X182500Y-229499D02*
Y-216500D01*
X-176500Y-202500D02*
X-150730Y-176730D01*
Y-167479D01*
X-138138Y-154887D01*
X-147960Y-171780D02*
X-134602Y-158422D01*
X-124680Y-148500D01*
X-122500D01*
X-139500Y-181500D02*
Y-170391D01*
X-131067Y-161958D01*
X-175000Y-205500D02*
X-147960Y-178460D01*
Y-171780D01*
X-97533Y-36500D02*
X-95004Y-33971D01*
X-107000Y-36500D02*
X-99476D01*
X-97533D01*
X-96000Y-74000D02*
X-85536D01*
X-70256Y-58720D01*
X188979Y-357479D02*
X192060Y-360560D01*
X190385Y-354709D02*
X193466Y-357790D01*
X191533Y-351939D02*
X194614Y-355020D01*
X241100Y-349500D02*
X247500D01*
X257335Y-360500D02*
X270335Y-347500D01*
X256187Y-357730D02*
X280000Y-333917D01*
X194614Y-355020D02*
X254480D01*
X267000Y-342500D01*
X193466Y-357790D02*
X255627D01*
X255687Y-357730D01*
X256187D01*
X192060Y-360560D02*
X256775D01*
X256835Y-360500D01*
X257335D01*
X140573Y-300579D02*
Y-300573D01*
X221100Y-329500D02*
X241100Y-349500D01*
X185079Y-329520D02*
X185099Y-329500D01*
X221100D01*
X169514Y-329520D02*
X185079D01*
X140573Y-300579D02*
X169514Y-329520D01*
X131500Y-300000D02*
X176000Y-344500D01*
X194094D01*
X194114Y-344480D01*
X203480D01*
X208500Y-349500D01*
X216099Y-349999D02*
X222000D01*
X207809Y-341710D02*
X216099Y-349999D01*
X177210Y-341710D02*
X207809D01*
X137500Y-302000D02*
X177210Y-341710D01*
X82000Y-285500D02*
X113500D01*
X120500Y-292500D01*
X132500D01*
X140573Y-300573D01*
X137417Y-302000D02*
X137500D01*
X132647Y-297230D02*
X137417Y-302000D01*
X119147Y-297230D02*
X132647D01*
X110647Y-288730D02*
X119147Y-297230D01*
X78147Y-288730D02*
X110647D01*
X66500Y-277083D02*
X78147Y-288730D01*
X66500Y-277083D02*
Y-272000D01*
X54500Y-269500D02*
X55000D01*
X77000Y-291500D01*
X76000Y-279500D02*
X82000Y-285500D01*
X76000Y-279500D02*
Y-268500D01*
X64000Y-269500D02*
X66500Y-272000D01*
X-75500Y-95000D02*
X-68500Y-102000D01*
X-75500Y-95000D02*
Y-78500D01*
X-385250Y-132504D02*
Y-122118D01*
X-385980Y-121388D02*
X-385250Y-122118D01*
X-385980Y-121388D02*
Y-111152D01*
X-383210Y-120241D02*
X-382480Y-120971D01*
X-383210Y-120241D02*
Y-110005D01*
X-380440Y-119094D02*
X-379710Y-119824D01*
X-380440Y-119094D02*
Y-108857D01*
X-377670Y-117946D02*
X-376940Y-118676D01*
X-377670Y-117946D02*
Y-107710D01*
X-374900Y-116799D02*
X-374170Y-117529D01*
X-374900Y-116799D02*
Y-106563D01*
X-333591Y-179547D02*
Y-179039D01*
X-338000Y-181500D02*
X-317000Y-202500D01*
X-321600Y-168600D02*
X-301000Y-148000D01*
X-310600Y-168400D02*
X-294700Y-152500D01*
X-329499Y-176000D02*
X-328499D01*
X-333591Y-179547D02*
X-320638Y-192500D01*
X-339499Y-181500D02*
X-338000D01*
X-339999Y-189499D02*
X-339000Y-188500D01*
X-450750Y-114000D02*
X-450250Y-113500D01*
X-401730Y-114087D02*
Y-113460D01*
X-398000Y-114274D02*
Y-68313D01*
X-395003Y-115194D02*
Y-54497D01*
X-392233Y-116341D02*
Y-107341D01*
X-450250Y-113500D02*
X-409500D01*
X-406500Y-110500D01*
X-404330Y-152781D02*
Y-116687D01*
X-401730Y-114087D01*
X-401560Y-117834D02*
X-398000Y-114274D01*
X-398790Y-118982D02*
X-395003Y-115194D01*
X-396020Y-120129D02*
X-392233Y-116341D01*
X-396020Y-127612D02*
Y-120129D01*
X-398790Y-128759D02*
Y-118982D01*
X-406249Y-158618D02*
X-401560Y-153929D01*
Y-117834D01*
X-409019Y-157471D02*
X-404330Y-152781D01*
X-336499Y-176131D02*
X-333591Y-179039D01*
X-395479Y-240021D02*
Y-226447D01*
X-367000Y-246500D02*
Y-233648D01*
X-359691Y-237040D02*
X-358543D01*
X-344500Y-251083D01*
X-357396Y-234270D02*
X-336165Y-255500D01*
X-358544Y-234270D02*
X-357396D01*
X-356248Y-231500D02*
X-338748Y-249000D01*
X-357396Y-231500D02*
X-356248D01*
X-355101Y-228730D02*
X-337601Y-246230D01*
X-356249Y-228730D02*
X-355101D01*
X-353954Y-225960D02*
X-336453Y-243460D01*
X-355101Y-225960D02*
X-353954D01*
X-352806Y-223190D02*
X-335306Y-240690D01*
X-353954Y-223190D02*
X-352806D01*
X-329600Y-168600D02*
X-321600D01*
X-339999Y-189500D02*
Y-189499D01*
X-386230Y-133484D02*
X-385250Y-132504D01*
X-336499Y-176131D02*
Y-173500D01*
X-374170Y-137094D02*
Y-117529D01*
X-376940Y-135946D02*
Y-118676D01*
X-379710Y-134799D02*
Y-119824D01*
X-382480Y-133652D02*
Y-120971D01*
X-396020Y-127612D02*
X-389000Y-134632D01*
X-375150Y-201994D02*
X-353954Y-223190D01*
X-375150Y-201994D02*
Y-138074D01*
X-374170Y-137094D01*
X-377920Y-136926D02*
X-376940Y-135946D01*
X-377920Y-203141D02*
Y-136926D01*
Y-203141D02*
X-355101Y-225960D01*
X-380690Y-204288D02*
X-356249Y-228730D01*
X-380690Y-204288D02*
Y-135779D01*
X-379710Y-134799D01*
X-383460Y-134632D02*
X-382480Y-133652D01*
X-383460Y-205436D02*
Y-134632D01*
X-389000Y-207731D02*
Y-134632D01*
X-392000Y-167099D02*
X-391980Y-167079D01*
Y-135569D01*
X-398790Y-128759D02*
X-391980Y-135569D01*
X-409019Y-172481D02*
Y-157471D01*
Y-172481D02*
X-403540Y-177960D01*
Y-204877D02*
Y-177960D01*
X-406249Y-171333D02*
Y-158618D01*
Y-171333D02*
X-400770Y-176813D01*
Y-203730D02*
Y-176813D01*
X353250Y-306750D02*
X355000Y-305000D01*
X-339000Y-188500D02*
X-322000Y-205500D01*
D44*
X382500Y18500D02*
X388500Y24500D01*
X377000Y13000D02*
X382500Y18500D01*
X388500Y24500D02*
X394900Y30900D01*
X408000D01*
X355000Y-288250D02*
X357500Y-290750D01*
X332750Y-182250D02*
X338500Y-176500D01*
X332750Y-198500D02*
Y-182250D01*
X320750Y-284500D02*
Y-275750D01*
X337000Y-259500D01*
Y-252000D01*
X332750Y-198500D02*
X337000Y-202750D01*
Y-222000D02*
Y-202750D01*
X375000Y-290750D02*
X390000D01*
X357500D02*
X375000D01*
D45*
X-336999Y-114999D02*
X-336620Y-115379D01*
X-415250Y30250D02*
X-409500Y36000D01*
X392750Y-278250D02*
X399500Y-285000D01*
X390000Y-278250D02*
X392750D01*
X-407500Y36000D02*
X-401919Y41581D01*
X-409500Y36000D02*
X-407500D01*
X-430750Y13750D02*
X-415250Y29250D01*
Y30250D01*
X-417250Y-46750D02*
X-417000D01*
X-429250Y-58750D02*
X-417250Y-46750D01*
X-429250Y-69500D02*
Y-58750D01*
X-39000Y-100000D02*
Y-95500D01*
X-12000Y-114000D02*
X-1000Y-103000D01*
X57500D01*
X71500Y-89000D01*
X-75000Y77500D02*
Y94500D01*
X-79230Y73270D02*
X-75000Y77500D01*
X-142230Y73270D02*
X-79230D01*
X-151000Y64500D02*
X-142230Y73270D01*
X-151000Y50000D02*
Y64500D01*
X-4000Y-30500D02*
Y-12000D01*
Y-30500D02*
X1500Y-36000D01*
X20000D01*
X421493Y-341004D02*
X423000Y-342511D01*
Y-359500D02*
Y-342511D01*
X-440000Y13750D02*
X-430750D01*
X-440000Y-46750D02*
Y13750D01*
X-455499Y-156000D02*
X-440000D01*
X-438000Y-158000D01*
X-420500D01*
X-417000Y-46750D02*
Y-33000D01*
X-419750Y-30250D02*
X-417000Y-33000D01*
X-431500Y-30250D02*
X-419750D01*
X-431500D02*
Y-19250D01*
X375000Y-278250D02*
X390000D01*
X398500Y-269750D01*
Y-266000D01*
X-429250Y-130349D02*
Y-123000D01*
Y-130349D02*
X-420500Y-139099D01*
Y-158000D02*
Y-139099D01*
X-39000Y-108806D02*
X-33807Y-114000D01*
X-39000Y-108806D02*
Y-100000D01*
X-33807Y-114000D02*
X-12000D01*
X-33500Y-90000D02*
Y-87000D01*
X-39000Y-95500D02*
X-33500Y-90000D01*
X-336999Y-114999D02*
X-334000Y-112000D01*
X-336620Y-152137D02*
Y-115379D01*
D46*
X-395999Y-255000D02*
X-395400Y-255599D01*
X-93000Y4636D02*
X-79182Y-9182D01*
X-93000Y4636D02*
Y6000D01*
X395000Y-235000D02*
X416000D01*
X47500Y-373500D02*
Y-353207D01*
X43793Y-349500D02*
X47500Y-353207D01*
X-173493Y-119531D02*
X-155000Y-101038D01*
Y-95000D01*
X-151500Y-91500D01*
X-399000Y-314500D02*
Y-310500D01*
X-409000Y-324500D02*
X-399000Y-314500D01*
X-395999Y-255000D02*
X-395500D01*
X-374500Y-258000D02*
X-366000D01*
X-395400Y-261900D02*
Y-255599D01*
X-389000Y-258000D02*
X-383500D01*
X-392900Y-261900D02*
X-389000Y-258000D01*
X-395400Y-261900D02*
X-392900D01*
X-91500Y-144249D02*
X-80862Y-154887D01*
X-91500Y-144249D02*
Y-136500D01*
X-159500Y-242500D02*
X-159500Y-242500D01*
X-159500Y-246500D02*
Y-242500D01*
X337000Y-222000D02*
X342000D01*
X332000D02*
X337000D01*
X-423000Y-310500D02*
X-418000Y-315500D01*
X-423000Y-310500D02*
Y-304500D01*
X24000Y-44000D02*
X28000D01*
X36000Y-36000D01*
X71500Y-58500D02*
Y-51000D01*
X70000Y-60000D02*
X71500Y-58500D01*
X61500Y-60000D02*
X70000D01*
X78250Y-38250D02*
Y-36000D01*
X71500Y-45000D02*
X78250Y-38250D01*
X71500Y-51000D02*
Y-45000D01*
X351250Y-284500D02*
Y-263750D01*
X360500Y-254500D01*
Y-238000D01*
X357000Y-234500D02*
X360500Y-238000D01*
X349500Y-234500D02*
X357000D01*
X-429000Y-315500D02*
X-418000D01*
X-434000Y-310500D02*
X-429000Y-315500D01*
X-434000Y-310500D02*
Y-308500D01*
X-433999Y-308499D01*
X-45507Y-119531D02*
X-35000Y-130038D01*
Y-131500D02*
Y-130038D01*
X-91469Y-165493D02*
X-81010Y-175952D01*
Y-175980D02*
Y-175952D01*
X-70935Y-22379D02*
Y-17429D01*
X-79182Y-9182D02*
X-70935Y-17429D01*
X-44065Y-30207D02*
Y-26621D01*
Y-30207D02*
X-35636Y-38636D01*
X-44065Y-26621D02*
X-20944Y-3500D01*
X-12000D01*
X-101000Y50000D02*
X-95500D01*
X-93000Y52500D01*
X43500Y-28000D02*
Y-12694D01*
X44000Y-12194D01*
X4000Y-44000D02*
X15000D01*
X-214980Y-50980D02*
X-209500Y-45500D01*
X-215000Y-58000D02*
X-214980D01*
X-213000Y-68000D02*
Y-60000D01*
X-215000Y-58000D02*
X-213000Y-60000D01*
X285000Y-147500D02*
Y-140000D01*
X290500Y-134500D01*
X294000D01*
X285000Y-156500D02*
X295500D01*
X296500Y-157500D01*
X-91000Y-120500D02*
X-85500D01*
X-99500Y-112000D02*
X-91000Y-120500D01*
X-99500Y-112000D02*
Y-94000D01*
X-75000Y-69500D01*
X-73500D01*
X-66720Y-62720D01*
Y-62256D01*
X-37141Y-79500D02*
X-31500D01*
X-41971Y-87004D02*
X-37141Y-82174D01*
Y-79500D01*
X-214980Y-58000D02*
Y-50980D01*
D51*
X-440000Y-358000D02*
D03*
X350000D02*
D03*
Y62000D02*
D03*
X-440000D02*
D03*
D52*
X385000Y-67000D02*
D03*
X383000Y-93500D02*
D03*
X-189500Y9000D02*
D03*
X-113000Y22500D02*
D03*
X-104500Y23000D02*
D03*
X-92000Y34500D02*
D03*
X102500Y-38000D02*
D03*
X-165500Y-272500D02*
D03*
X412500Y51500D02*
D03*
X421000D02*
D03*
X438500Y-5500D02*
D03*
Y2000D02*
D03*
Y9000D02*
D03*
X382500Y18500D02*
D03*
X377000Y13000D02*
D03*
X434500Y69000D02*
D03*
X440000Y63500D02*
D03*
X428400Y75100D02*
D03*
X403500Y51500D02*
D03*
X388500Y24500D02*
D03*
X438500Y16000D02*
D03*
X145500Y-206000D02*
D03*
X154500Y-223500D02*
D03*
X153000Y-200500D02*
D03*
X145500Y-195000D02*
D03*
X154000Y-247500D02*
D03*
X149000Y-254500D02*
D03*
X-93000Y6000D02*
D03*
X416000Y-235000D02*
D03*
X-166500Y-165000D02*
D03*
X-138500Y-89000D02*
D03*
X-151500Y-91500D02*
D03*
X-160500Y-98500D02*
D03*
X-107000Y-36500D02*
D03*
X-160500Y-153500D02*
D03*
X-389999Y-222000D02*
D03*
X-318057Y-378057D02*
D03*
X-330757Y-378243D02*
D03*
X-311807Y-362000D02*
D03*
X-324507D02*
D03*
X-312007Y-337000D02*
D03*
X-324707D02*
D03*
X-31500Y-79500D02*
D03*
X338500Y-176500D02*
D03*
X-367000Y-355000D02*
D03*
X-98500Y-150500D02*
D03*
X-75000Y94500D02*
D03*
X276500Y-200000D02*
D03*
X273000Y-246500D02*
D03*
X-122500Y-148500D02*
D03*
X246000Y-255000D02*
D03*
X188000Y-238500D02*
D03*
X-22000Y-132500D02*
D03*
X-334000Y-112000D02*
D03*
X-414500Y-246500D02*
D03*
X-399000Y-310500D02*
D03*
X323000Y18000D02*
D03*
X271500Y8500D02*
D03*
X229200Y33496D02*
D03*
X-84500Y67000D02*
D03*
X-184500Y-46500D02*
D03*
X-168500Y-41500D02*
D03*
X-178500Y-51500D02*
D03*
X-171000Y-49500D02*
D03*
X-126000Y-3000D02*
D03*
X-151500Y6500D02*
D03*
X73500Y32500D02*
D03*
X184000Y-312000D02*
D03*
X247000Y-311000D02*
D03*
X234000Y-311500D02*
D03*
X84500Y-379000D02*
D03*
X171000Y-362499D02*
D03*
X184000D02*
D03*
X81500Y-324000D02*
D03*
X119500Y-310000D02*
D03*
X132500Y-336500D02*
D03*
X107500Y-325000D02*
D03*
X69500Y-324000D02*
D03*
X95000Y-374493D02*
D03*
X183000Y-324500D02*
D03*
X171000Y-312000D02*
D03*
X259000Y-310500D02*
D03*
X272393Y-286000D02*
D03*
X158000Y-347500D02*
D03*
X157500Y-363500D02*
D03*
X208500Y-349500D02*
D03*
X-395500Y-255000D02*
D03*
X-366000Y-258000D02*
D03*
X-367000Y-246500D02*
D03*
X-386000D02*
D03*
X159000Y-129500D02*
D03*
X215000Y-80000D02*
D03*
X160500Y-11500D02*
D03*
X283499Y-77000D02*
D03*
X-111000Y63500D02*
D03*
X-121000Y64000D02*
D03*
X139000Y-271500D02*
D03*
X209020Y-220040D02*
D03*
X204000Y-226500D02*
D03*
X293000Y-256500D02*
D03*
X-42500Y-149000D02*
D03*
X125000Y-248500D02*
D03*
X253500Y-272500D02*
D03*
X-96000Y-74000D02*
D03*
X-91500Y-109000D02*
D03*
Y-136500D02*
D03*
X-88000Y-64500D02*
D03*
X-130000Y-61500D02*
D03*
X-158500Y-31500D02*
D03*
X-148000Y-32500D02*
D03*
X-158763Y-41603D02*
D03*
X203000Y-191500D02*
D03*
X188500Y-153000D02*
D03*
X179500Y-152500D02*
D03*
X197000Y-196000D02*
D03*
X324500Y-156500D02*
D03*
X296500Y-157500D02*
D03*
X312000Y-156500D02*
D03*
X392500Y-337500D02*
D03*
X-74500Y-126500D02*
D03*
X153000Y-212500D02*
D03*
X151500Y-234000D02*
D03*
X147000Y-227500D02*
D03*
X147000Y-217500D02*
D03*
X148000Y-242000D02*
D03*
X-121500Y-311500D02*
D03*
X196500Y38500D02*
D03*
X204500Y46500D02*
D03*
X-109000Y-299093D02*
D03*
X-159000Y-311000D02*
D03*
X-159500Y-242500D02*
D03*
X-445999Y-292499D02*
D03*
X-459000Y-288000D02*
D03*
X-443999Y-302499D02*
D03*
X360000Y-105500D02*
D03*
Y-85500D02*
D03*
Y-75500D02*
D03*
X-428500Y-102000D02*
D03*
Y-91000D02*
D03*
X-434000Y-188000D02*
D03*
Y-177000D02*
D03*
X244220Y58115D02*
D03*
X228719Y63614D02*
D03*
X234220Y58115D02*
D03*
X239315Y63710D02*
D03*
X249220Y64115D02*
D03*
X254220Y58115D02*
D03*
X259125Y64210D02*
D03*
X264219Y58114D02*
D03*
X269220Y64115D02*
D03*
X170720Y53115D02*
D03*
X-324780Y-286273D02*
D03*
X-275280Y40114D02*
D03*
X-185000Y-312000D02*
D03*
X-185107Y-299000D02*
D03*
X-197307Y-298500D02*
D03*
X-197507Y-286000D02*
D03*
X-235500Y-298593D02*
D03*
X-197307Y-349500D02*
D03*
X-172000Y-299499D02*
D03*
X-146707Y-286000D02*
D03*
X-134000Y-285993D02*
D03*
X-108207Y-311000D02*
D03*
X-134000Y-324093D02*
D03*
X-121000Y-336493D02*
D03*
X-108607Y-349500D02*
D03*
X-82907Y-336500D02*
D03*
X-70500Y-349493D02*
D03*
X-83000Y-311193D02*
D03*
X-89457Y-269043D02*
D03*
X-70507Y-286000D02*
D03*
X-51357Y-269357D02*
D03*
X-32407Y-286000D02*
D03*
X-32407Y-298500D02*
D03*
X-57607D02*
D03*
X-45207Y-311500D02*
D03*
X-32307Y-324000D02*
D03*
X-31907Y-349000D02*
D03*
X-19607Y-324000D02*
D03*
X-13257Y-378243D02*
D03*
X5500Y-336407D02*
D03*
X6000Y-349193D02*
D03*
X18593Y-362000D02*
D03*
X31000Y-323807D02*
D03*
X-13257Y-270757D02*
D03*
X-500Y-286999D02*
D03*
X12143Y-299857D02*
D03*
X28000Y-270500D02*
D03*
X31293Y-298500D02*
D03*
X56593Y-324000D02*
D03*
X43793Y-349500D02*
D03*
X56493Y-286000D02*
D03*
X69000Y-298893D02*
D03*
X82500Y-310793D02*
D03*
X94693Y-324000D02*
D03*
X107500Y-298493D02*
D03*
X101043Y-268957D02*
D03*
X132500Y-324293D02*
D03*
X145500Y-336693D02*
D03*
X196193Y-349500D02*
D03*
X145593Y-298500D02*
D03*
X177243Y-268743D02*
D03*
X208893Y-286000D02*
D03*
X208993Y-324000D02*
D03*
X221293Y-299000D02*
D03*
X56500Y-298693D02*
D03*
X31000Y-336893D02*
D03*
X120000Y-377000D02*
D03*
X-261000Y-362500D02*
D03*
X-331001Y-75001D02*
D03*
X346500Y-100500D02*
D03*
X-341000Y-69000D02*
D03*
X346500Y-110500D02*
D03*
X-333501Y-64001D02*
D03*
X347000Y-120000D02*
D03*
X-343000Y-59000D02*
D03*
X346000Y-128000D02*
D03*
X-348500Y-53000D02*
D03*
X346000Y-136000D02*
D03*
X-339500Y-45500D02*
D03*
X346500Y-144000D02*
D03*
X-340500Y-80000D02*
D03*
Y-88000D02*
D03*
Y-96000D02*
D03*
X-330000Y-92000D02*
D03*
X377000Y-210500D02*
D03*
X382020Y-222500D02*
D03*
X-410000Y-268400D02*
D03*
X-421000D02*
D03*
X-410000Y-279400D02*
D03*
X-421000D02*
D03*
X-410000Y-290400D02*
D03*
X-421000D02*
D03*
X-223000Y-286000D02*
D03*
X-248500Y-323500D02*
D03*
X-172000Y-349500D02*
D03*
X-185000D02*
D03*
X-249000Y-275000D02*
D03*
X-236999D02*
D03*
X-223000Y-272000D02*
D03*
X-235507Y-324000D02*
D03*
X301000Y-273000D02*
D03*
X-146000Y-272500D02*
D03*
X-134000Y-270980D02*
D03*
X-146500Y-298500D02*
D03*
X-109107Y-286500D02*
D03*
X-121000Y-298500D02*
D03*
X-147000Y-311000D02*
D03*
X-435500Y-102000D02*
D03*
Y-91000D02*
D03*
X-431500Y-30250D02*
D03*
Y-19250D02*
D03*
X-392000Y-7500D02*
D03*
X-399000Y-1000D02*
D03*
X-400500Y7500D02*
D03*
X-112500Y-45467D02*
D03*
X-61680Y-85500D02*
D03*
X-60500Y-111609D02*
D03*
X-114000Y-53500D02*
D03*
X-65000Y-96000D02*
D03*
X256500Y-141500D02*
D03*
X360000Y-95500D02*
D03*
X346500Y-90500D02*
D03*
X339499Y-86500D02*
D03*
X331500Y-86000D02*
D03*
X305999Y-86500D02*
D03*
X319500Y-88000D02*
D03*
X-397500Y-322500D02*
D03*
X176500Y-83500D02*
D03*
X240000Y-46605D02*
D03*
X391000Y-322500D02*
D03*
X286000Y-316000D02*
D03*
X-344500Y-256000D02*
D03*
X-332385Y-255500D02*
D03*
X-180000Y55000D02*
D03*
X260000Y-324000D02*
D03*
X208500Y-299000D02*
D03*
X234000Y-324000D02*
D03*
X-382000Y-309000D02*
D03*
X-210500Y40500D02*
D03*
X-454000Y-66000D02*
D03*
X-412999Y-67000D02*
D03*
X-427500Y-79000D02*
D03*
X-419499Y-7500D02*
D03*
X-409500Y36000D02*
D03*
X-431000Y-255000D02*
D03*
X-462500Y-66000D02*
D03*
X-452499Y-75500D02*
D03*
X-365743Y-94252D02*
D03*
X-390500Y-38000D02*
D03*
X-433999Y-308499D02*
D03*
X-35000Y-131500D02*
D03*
X-81010Y-175980D02*
D03*
X-150000Y-105500D02*
D03*
X-135000Y-136000D02*
D03*
X-117500Y-103000D02*
D03*
X-84500Y-113000D02*
D03*
X-136500Y-12000D02*
D03*
X-93000Y52500D02*
D03*
X-393081Y66419D02*
D03*
X-381999Y-48500D02*
D03*
X-383499Y-3500D02*
D03*
X-361500Y-500D02*
D03*
X-349750Y-10520D02*
D03*
X-344499Y-3500D02*
D03*
X-391000Y-124500D02*
D03*
X96500Y79000D02*
D03*
X206500Y7500D02*
D03*
X312253Y23253D02*
D03*
X328500Y-4500D02*
D03*
X277999Y-20500D02*
D03*
X261500Y-112000D02*
D03*
X209500Y-51500D02*
D03*
X207149Y-71649D02*
D03*
X234500Y-121000D02*
D03*
X248500Y-150000D02*
D03*
X276000Y-52000D02*
D03*
X205500Y-31500D02*
D03*
X139000Y-374499D02*
D03*
X234000Y-249000D02*
D03*
X330000Y-233000D02*
D03*
X339000D02*
D03*
X330000Y-241000D02*
D03*
X339000Y-241500D02*
D03*
X282999Y-229499D02*
D03*
X289499Y-178000D02*
D03*
X436820Y-280260D02*
D03*
Y-301010D02*
D03*
Y-317760D02*
D03*
Y-338510D02*
D03*
X413820Y-284760D02*
D03*
Y-334010D02*
D03*
X399000Y-359500D02*
D03*
X398500Y-266000D02*
D03*
X399500Y-285000D02*
D03*
X388000Y-175500D02*
D03*
X379000Y-192500D02*
D03*
X308999Y-217500D02*
D03*
X349500Y-255000D02*
D03*
X380499Y-247500D02*
D03*
X382499Y-73500D02*
D03*
X419000Y26500D02*
D03*
X437000Y-18000D02*
D03*
X437500Y-50000D02*
D03*
Y-33500D02*
D03*
Y-66000D02*
D03*
Y-82000D02*
D03*
Y-98000D02*
D03*
Y-114000D02*
D03*
X432500Y-150000D02*
D03*
X383500Y-49000D02*
D03*
X275999Y-191000D02*
D03*
X203000Y-211500D02*
D03*
X208000Y-201000D02*
D03*
X195000Y-224000D02*
D03*
X182500Y-229499D02*
D03*
X247500Y-349500D02*
D03*
X233500Y-350000D02*
D03*
X222000Y-349999D02*
D03*
X184500Y-336500D02*
D03*
X54500Y-269500D02*
D03*
X76000Y-268500D02*
D03*
X64000Y-269500D02*
D03*
X-85500Y-120500D02*
D03*
X-75500Y-78500D02*
D03*
X-367000Y-348500D02*
D03*
X-375000D02*
D03*
Y-355000D02*
D03*
X-433999Y-135500D02*
D03*
X-328499Y-176000D02*
D03*
X-339499Y-181500D02*
D03*
X148500Y88000D02*
D03*
X191500Y-115000D02*
D03*
X205500Y-22000D02*
D03*
X-400499Y-161000D02*
D03*
X-433270Y-218309D02*
D03*
X-33500Y-87000D02*
D03*
X-409499Y-120500D02*
D03*
X-472000Y35000D02*
D03*
X-472500Y26000D02*
D03*
Y18000D02*
D03*
X-465000Y30000D02*
D03*
X-465500Y22000D02*
D03*
X-417000Y34000D02*
D03*
X-413999Y-125000D02*
D03*
X-354499Y-162500D02*
D03*
X-339999Y-189500D02*
D03*
X-397000Y-165000D02*
D03*
X-336499Y-173500D02*
D03*
X-336620Y-152137D02*
D03*
X355000Y-305000D02*
D03*
X371000Y-328500D02*
D03*
X376500Y-333000D02*
D03*
D53*
X-193500Y-131500D02*
D03*
X-196500Y-124500D02*
D03*
X-201000Y-110500D02*
D03*
X-192000Y-146000D02*
D03*
X-23500Y22500D02*
D03*
X67153Y-83347D02*
D03*
X68000Y-76000D02*
D03*
X108000Y-51500D02*
D03*
X110000Y-61500D02*
D03*
X104500Y-46000D02*
D03*
X103500Y-66500D02*
D03*
X107930Y-70230D02*
D03*
X108500Y-76000D02*
D03*
X104000Y-80000D02*
D03*
X84000Y-60000D02*
D03*
X7500Y-171500D02*
D03*
X149000Y-150500D02*
D03*
X-329000Y16000D02*
D03*
X-301000Y-12000D02*
D03*
X-245000Y-36000D02*
D03*
X-193000Y16000D02*
D03*
X-309000Y4000D02*
D03*
X-301000Y-4000D02*
D03*
X-293000Y-12000D02*
D03*
X-285000Y-20000D02*
D03*
Y-68000D02*
D03*
X-309000Y-92000D02*
D03*
X-213000Y-92000D02*
D03*
X-221000Y-84000D02*
D03*
X-237000Y-20000D02*
D03*
X-229000Y-12000D02*
D03*
X-221000Y-4000D02*
D03*
X-213000Y4000D02*
D03*
X-293000Y-84000D02*
D03*
X-229000D02*
D03*
X-261000Y-36000D02*
D03*
X-293000Y-4000D02*
D03*
X-229000D02*
D03*
X-221000Y-76000D02*
D03*
X-253000Y-36000D02*
D03*
X76000Y-76000D02*
D03*
X68000Y-4000D02*
D03*
X4000D02*
D03*
X36000Y-36000D02*
D03*
X4000Y-84000D02*
D03*
X36000Y-52000D02*
D03*
X84000Y4000D02*
D03*
X76000Y-4000D02*
D03*
X68000Y-12000D02*
D03*
X60000Y-20000D02*
D03*
Y-68000D02*
D03*
X76000Y-84000D02*
D03*
X84000Y-92000D02*
D03*
X-12000Y-92000D02*
D03*
X-4000Y-84000D02*
D03*
X4000Y-76000D02*
D03*
X12000Y-68000D02*
D03*
X36000Y-44000D02*
D03*
X12000Y-20000D02*
D03*
X4000Y-12000D02*
D03*
X-4000Y-4000D02*
D03*
X-12000Y4000D02*
D03*
X104000Y16000D02*
D03*
Y-104000D02*
D03*
X-4000Y-76000D02*
D03*
X52000Y-52000D02*
D03*
X20000D02*
D03*
Y-36000D02*
D03*
X-4000Y-12000D02*
D03*
X-261000Y-76000D02*
D03*
X-277000Y-68000D02*
D03*
X-261000Y-4000D02*
D03*
X36000D02*
D03*
X28000Y-20000D02*
D03*
X36000Y-76000D02*
D03*
X-285000Y-44000D02*
D03*
X-217700Y-168800D02*
D03*
X-227000Y-169000D02*
D03*
X-246000D02*
D03*
X-255100Y-168900D02*
D03*
X-283000Y-166500D02*
D03*
X-274100Y-168100D02*
D03*
X-301900Y-168600D02*
D03*
X-192500Y-168000D02*
D03*
Y-174500D02*
D03*
X-190000Y-154500D02*
D03*
X-186000Y-179500D02*
D03*
X-196000Y-140000D02*
D03*
X-177000Y-181695D02*
D03*
X26500Y-171500D02*
D03*
X35500D02*
D03*
X54500Y-171000D02*
D03*
X63500Y-171000D02*
D03*
X82500D02*
D03*
X91500Y-171000D02*
D03*
X110500Y-171000D02*
D03*
X119500D02*
D03*
X92000Y-84000D02*
D03*
X110500Y-88000D02*
D03*
X106000Y-96000D02*
D03*
X-245000Y4000D02*
D03*
X4000D02*
D03*
X12000Y24000D02*
D03*
X52000Y4000D02*
D03*
X56000Y24000D02*
D03*
X-309000Y-52000D02*
D03*
X-301000Y-76000D02*
D03*
X-277000Y-52000D02*
D03*
X52000Y-36000D02*
D03*
X44000Y-12194D02*
D03*
X4000Y-44000D02*
D03*
X-213000Y-68000D02*
D03*
X-327999Y-105000D02*
D03*
X-310600Y-168400D02*
D03*
X-277000Y-36000D02*
D03*
X-269000D02*
D03*
X-229000Y-76000D02*
D03*
X-237000Y-68000D02*
D03*
Y-44000D02*
D03*
X-245000Y-52000D02*
D03*
X-261000Y-42500D02*
D03*
X-261000Y-54000D02*
D03*
X-32000Y-108000D02*
D03*
X-329600Y-168600D02*
D03*
D54*
X-450500Y-5000D02*
D03*
X-455499Y-156000D02*
D03*
X-469000Y-211500D02*
D03*
D55*
X6500Y-120000D02*
D03*
X32000Y-123500D02*
D03*
X54095Y-113985D02*
D03*
X50000Y-123000D02*
D03*
X-221500Y-135000D02*
D03*
X-229000Y-124000D02*
D03*
X-236000Y-116500D02*
D03*
X-251500Y-127500D02*
D03*
D56*
X438500Y38500D02*
D03*
Y25500D02*
D03*
D57*
X408000Y75100D02*
D03*
Y30900D02*
D03*
D58*
X66000Y-341500D02*
D03*
X116000D02*
D03*
X103500D02*
D03*
X91000D02*
D03*
X78500D02*
D03*
D59*
X134500Y-373500D02*
D03*
X47500D02*
D03*
D60*
X171050Y-291273D02*
D03*
X183750D02*
D03*
X196450D02*
D03*
X234550D02*
D03*
X247250D02*
D03*
X259950D02*
D03*
X234550Y-375728D02*
D03*
X247250D02*
D03*
X259950D02*
D03*
X196450D02*
D03*
X183750D02*
D03*
X171050D02*
D03*
D61*
X-151000Y50000D02*
D03*
X-101000D02*
D03*
X-141000D02*
D03*
X-131000D02*
D03*
X-121000D02*
D03*
X-111000D02*
D03*
D62*
X-164000Y88750D02*
D03*
X-88000D02*
D03*
D63*
X313000Y-105500D02*
D03*
X294000D02*
D03*
Y-134500D02*
D03*
X303500D02*
D03*
X313000D02*
D03*
X421493Y-312004D02*
D03*
X402493D02*
D03*
Y-341004D02*
D03*
X411993D02*
D03*
X421493D02*
D03*
D64*
X374000Y-60500D02*
D03*
Y-70500D02*
D03*
Y-80500D02*
D03*
Y-90500D02*
D03*
Y-130500D02*
D03*
Y-125500D02*
D03*
Y-120500D02*
D03*
Y-115500D02*
D03*
Y-110500D02*
D03*
Y-100500D02*
D03*
Y-50500D02*
D03*
Y-105500D02*
D03*
Y-95500D02*
D03*
Y-85500D02*
D03*
Y-75500D02*
D03*
Y-65500D02*
D03*
Y-55500D02*
D03*
Y-45500D02*
D03*
Y-40500D02*
D03*
Y-35500D02*
D03*
D65*
X391000Y-11000D02*
D03*
Y-155000D02*
D03*
D66*
X406250Y-16500D02*
D03*
Y-149500D02*
D03*
D67*
X305220Y88115D02*
D03*
D68*
X170220Y83615D02*
D03*
D69*
Y42115D02*
D03*
D70*
Y-19885D02*
D03*
X281720Y-62885D02*
D03*
D71*
X179720D02*
D03*
X189220D02*
D03*
X200220D02*
D03*
X211220D02*
D03*
X222220D02*
D03*
X233220D02*
D03*
X244220D02*
D03*
X255220D02*
D03*
X266220D02*
D03*
D72*
X-415500Y-279400D02*
D03*
D73*
X-395400Y-261900D02*
D03*
Y-266900D02*
D03*
Y-271900D02*
D03*
Y-276900D02*
D03*
Y-281900D02*
D03*
Y-286900D02*
D03*
Y-291900D02*
D03*
Y-296900D02*
D03*
X-408000Y-304500D02*
D03*
X-423000D02*
D03*
X-435600Y-296900D02*
D03*
Y-291900D02*
D03*
Y-286900D02*
D03*
Y-281900D02*
D03*
Y-276900D02*
D03*
Y-271900D02*
D03*
Y-266900D02*
D03*
Y-261900D02*
D03*
X-423000Y-254300D02*
D03*
X-408000D02*
D03*
D74*
X342000Y-252000D02*
D03*
X337000D02*
D03*
X332000D02*
D03*
X327000D02*
D03*
Y-222000D02*
D03*
X332000D02*
D03*
X337000D02*
D03*
X342000D02*
D03*
D75*
X319500Y-244500D02*
D03*
Y-239500D02*
D03*
Y-234500D02*
D03*
Y-229500D02*
D03*
X349500D02*
D03*
Y-234500D02*
D03*
Y-239500D02*
D03*
Y-244500D02*
D03*
D76*
X334500Y-237000D02*
D03*
D77*
X351250Y-284500D02*
D03*
X320750D02*
D03*
D78*
X-95004Y-33971D02*
D03*
X-91469Y-37507D02*
D03*
X-87933Y-41042D02*
D03*
X-84398Y-44578D02*
D03*
X-80862Y-48113D02*
D03*
X-77327Y-51649D02*
D03*
X-73791Y-55184D02*
D03*
X-70256Y-58720D02*
D03*
X-66720Y-62256D02*
D03*
X-63184Y-65791D02*
D03*
X-59649Y-69327D02*
D03*
X-56114Y-72862D02*
D03*
X-52578Y-76398D02*
D03*
X-49042Y-79933D02*
D03*
X-45507Y-83469D02*
D03*
X-41971Y-87004D02*
D03*
X-123996Y-169029D02*
D03*
X-127531Y-165493D02*
D03*
X-131067Y-161958D02*
D03*
X-134602Y-158422D02*
D03*
X-138138Y-154887D02*
D03*
X-141673Y-151351D02*
D03*
X-145209Y-147816D02*
D03*
X-148744Y-144280D02*
D03*
X-152280Y-140744D02*
D03*
X-155815Y-137209D02*
D03*
X-159351Y-133673D02*
D03*
X-162887Y-130138D02*
D03*
X-166422Y-126602D02*
D03*
X-169958Y-123067D02*
D03*
X-173493Y-119531D02*
D03*
X-177029Y-115996D02*
D03*
D79*
X-41971D02*
D03*
X-45507Y-119531D02*
D03*
X-49042Y-123067D02*
D03*
X-52578Y-126602D02*
D03*
X-56113Y-130138D02*
D03*
X-59649Y-133673D02*
D03*
X-63184Y-137209D02*
D03*
X-66720Y-140744D02*
D03*
X-70256Y-144280D02*
D03*
X-73791Y-147816D02*
D03*
X-77327Y-151351D02*
D03*
X-80862Y-154887D02*
D03*
X-84398Y-158422D02*
D03*
X-87933Y-161958D02*
D03*
X-91469Y-165493D02*
D03*
X-95004Y-169029D02*
D03*
X-177029Y-87004D02*
D03*
X-173493Y-83469D02*
D03*
X-169958Y-79933D02*
D03*
X-166422Y-76398D02*
D03*
X-162887Y-72862D02*
D03*
X-159351Y-69327D02*
D03*
X-155815Y-65791D02*
D03*
X-152280Y-62256D02*
D03*
X-148744Y-58720D02*
D03*
X-145209Y-55184D02*
D03*
X-141673Y-51649D02*
D03*
X-138138Y-48113D02*
D03*
X-134602Y-44578D02*
D03*
X-131067Y-41042D02*
D03*
X-127531Y-37507D02*
D03*
X-123996Y-33971D02*
D03*
D80*
X-393081Y50419D02*
D03*
X-401919Y41581D02*
D03*
D81*
X-417000Y-46750D02*
D03*
X-440000D02*
D03*
X-463000D02*
D03*
D82*
X-440000Y13750D02*
D03*
D83*
X-35636Y-38636D02*
D03*
X-42000Y-45000D02*
D03*
X-79182Y-9182D02*
D03*
X-72818Y-2818D02*
D03*
D84*
X-44065Y-26621D02*
D03*
X-59621Y-11065D02*
D03*
X-70935Y-22379D02*
D03*
X-55379Y-37935D02*
D03*
D85*
X136995Y56506D02*
D03*
Y75506D02*
D03*
X109995D02*
D03*
Y66006D02*
D03*
Y56506D02*
D03*
D86*
X-210000Y-115000D02*
X-200500D01*
X351250Y-284500D02*
X355000Y-288250D01*
X-289000Y-115000D02*
X-272500Y-98500D01*
X-226500D02*
X-210000Y-115000D01*
X-272500Y-98500D02*
X-226500D01*
X-196540Y-39540D02*
X-192000Y-35000D01*
X-196540Y-59988D02*
X-192000Y-64527D01*
X-196540Y-59988D02*
Y-39540D01*
X-192000Y-98000D02*
Y-64527D01*
X-322500Y-115000D02*
X-289000D01*
X-201000Y-26000D02*
X-192000Y-35000D01*
X-218500Y-26000D02*
X-201000D01*
X-192000Y-35000D02*
Y-12500D01*
X-187500Y-8000D01*
X355000Y-305000D02*
Y-288250D01*
M02*
