G04 Layer_Color=8388736*
%FSLAX44Y44*%
%MOMM*%
G71*
G01*
G75*
%ADD89R,0.7100X0.7100*%
%ADD90R,0.8000X0.8000*%
%ADD91R,0.8000X0.8000*%
%ADD92O,1.7600X0.5100*%
%ADD93O,0.5100X1.7600*%
%ADD94R,1.9800X1.2550*%
%ADD95R,1.9800X2.4550*%
%ADD96R,2.1800X1.5550*%
%ADD97R,1.4600X0.5300*%
%ADD98R,1.1800X0.2800*%
%ADD99R,1.6300X0.8800*%
%ADD100R,0.7600X0.6600*%
%ADD101R,0.7100X0.7100*%
%ADD102R,0.9600X1.1100*%
%ADD103R,0.5500X0.9000*%
%ADD104R,1.7300X2.4800*%
%ADD105O,0.9800X0.4800*%
%ADD106R,1.1100X1.1600*%
%ADD107R,1.0300X1.0800*%
%ADD108R,1.1600X1.1100*%
%ADD109R,2.1400X1.9400*%
%ADD110C,0.5600*%
%ADD111C,0.7350*%
%ADD112R,0.3800X0.8800*%
%ADD113R,1.3800X0.9300*%
%ADD114R,2.4800X2.2800*%
%ADD115O,1.8100X0.8100*%
%ADD116R,2.8600X1.1600*%
%ADD117R,1.8600X0.7600*%
%ADD118R,1.4800X1.8800*%
%ADD119R,5.9600X2.6100*%
%ADD120C,0.1600*%
%ADD121C,6.1600*%
D89*
X-126500Y-92000D02*
D03*
Y-101000D02*
D03*
X-357000Y-94000D02*
D03*
Y-103000D02*
D03*
X-391500Y-26500D02*
D03*
Y-17500D02*
D03*
X105500Y-135500D02*
D03*
Y-144500D02*
D03*
X96500Y-135500D02*
D03*
Y-144500D02*
D03*
X133500Y-135500D02*
D03*
Y-144500D02*
D03*
X124500Y-135500D02*
D03*
Y-144500D02*
D03*
X110500Y-153500D02*
D03*
Y-162500D02*
D03*
X91500Y-153500D02*
D03*
Y-162500D02*
D03*
X77500Y-135500D02*
D03*
Y-144500D02*
D03*
X68500Y-135500D02*
D03*
Y-144500D02*
D03*
X138500Y-153500D02*
D03*
Y-162500D02*
D03*
X119500Y-153500D02*
D03*
Y-162500D02*
D03*
X49500Y-135500D02*
D03*
Y-144500D02*
D03*
X40500Y-135500D02*
D03*
Y-144500D02*
D03*
X26500Y-153500D02*
D03*
Y-162500D02*
D03*
X7500Y-153500D02*
D03*
Y-162500D02*
D03*
X21500Y-135500D02*
D03*
Y-144500D02*
D03*
X12500Y-135500D02*
D03*
Y-144500D02*
D03*
X35500Y-162500D02*
D03*
Y-153500D02*
D03*
X54500Y-162500D02*
D03*
Y-153500D02*
D03*
X63500Y-162500D02*
D03*
Y-153500D02*
D03*
X82500Y-162500D02*
D03*
Y-153500D02*
D03*
X363000Y-123000D02*
D03*
Y-132000D02*
D03*
X372004Y-122995D02*
D03*
Y-131995D02*
D03*
X-109500Y-111500D02*
D03*
Y-120500D02*
D03*
X-101000Y-94500D02*
D03*
Y-85500D02*
D03*
X-457500Y-101500D02*
D03*
Y-110500D02*
D03*
X-399500Y-101500D02*
D03*
Y-110500D02*
D03*
X-462750Y-188000D02*
D03*
Y-197000D02*
D03*
X-457500Y-92500D02*
D03*
Y-83500D02*
D03*
X-462750Y-179000D02*
D03*
Y-170000D02*
D03*
X-404750Y-169000D02*
D03*
Y-178000D02*
D03*
X-81500Y-85500D02*
D03*
Y-94500D02*
D03*
X-91000Y-94500D02*
D03*
Y-85500D02*
D03*
X-124500Y-67000D02*
D03*
Y-76000D02*
D03*
X-110500Y-85500D02*
D03*
Y-94500D02*
D03*
X-164000Y58500D02*
D03*
Y67500D02*
D03*
X-203700Y-134300D02*
D03*
X-212700D02*
D03*
X-232000Y-134200D02*
D03*
Y-143200D02*
D03*
X-241000Y-134200D02*
D03*
Y-143200D02*
D03*
X-260100Y-134200D02*
D03*
X-269100Y-134200D02*
D03*
X-287900Y-134200D02*
D03*
Y-143200D02*
D03*
X-296900Y-134200D02*
D03*
Y-143200D02*
D03*
X-315600Y-134100D02*
D03*
Y-143100D02*
D03*
X-324600Y-134100D02*
D03*
Y-143100D02*
D03*
X-282900Y-152200D02*
D03*
Y-161200D02*
D03*
X-301900Y-152200D02*
D03*
Y-161200D02*
D03*
X-217700Y-152300D02*
D03*
Y-161300D02*
D03*
X-198700Y-152300D02*
D03*
Y-161300D02*
D03*
X-246000Y-152200D02*
D03*
Y-161200D02*
D03*
X-227000Y-152200D02*
D03*
Y-161200D02*
D03*
X-310600Y-161100D02*
D03*
Y-152100D02*
D03*
X-329600Y-161100D02*
D03*
Y-152100D02*
D03*
X-274100Y-161200D02*
D03*
Y-152200D02*
D03*
X-255100Y-161200D02*
D03*
Y-152200D02*
D03*
X-269100Y-143200D02*
D03*
X-260100Y-143200D02*
D03*
X-203700Y-143300D02*
D03*
X-212700D02*
D03*
X325000Y-57500D02*
D03*
Y-66500D02*
D03*
X-404750Y-196000D02*
D03*
Y-187000D02*
D03*
X-399500Y-92500D02*
D03*
Y-83500D02*
D03*
X-402496Y-29245D02*
D03*
Y-38245D02*
D03*
Y-10745D02*
D03*
Y-19745D02*
D03*
X-460500Y-29000D02*
D03*
Y-38000D02*
D03*
X-460496Y-19745D02*
D03*
Y-10745D02*
D03*
X325000Y-32500D02*
D03*
Y-41500D02*
D03*
X334000Y-43500D02*
D03*
Y-52500D02*
D03*
Y-68500D02*
D03*
Y-77500D02*
D03*
Y-17500D02*
D03*
Y-26500D02*
D03*
D90*
X223500Y-114500D02*
D03*
X214500D02*
D03*
X241500Y36500D02*
D03*
X250500D02*
D03*
D91*
X167500Y-33000D02*
D03*
Y-24000D02*
D03*
X320000Y3000D02*
D03*
Y-6000D02*
D03*
X377500Y-301500D02*
D03*
Y-292500D02*
D03*
X-93000Y-45500D02*
D03*
Y-54500D02*
D03*
X-122500Y-45500D02*
D03*
Y-54500D02*
D03*
X-71500Y-86000D02*
D03*
Y-95000D02*
D03*
X-76000Y-110000D02*
D03*
Y-119000D02*
D03*
X-149000Y-113500D02*
D03*
Y-122500D02*
D03*
X285500Y-186000D02*
D03*
Y-195000D02*
D03*
X284000Y-239000D02*
D03*
Y-248000D02*
D03*
X-93500Y67000D02*
D03*
Y58000D02*
D03*
X-434500Y-276000D02*
D03*
Y-267000D02*
D03*
D92*
X186000Y-24500D02*
D03*
Y-34500D02*
D03*
Y-39500D02*
D03*
Y-69500D02*
D03*
Y-59500D02*
D03*
Y-54500D02*
D03*
Y-49500D02*
D03*
Y-44500D02*
D03*
Y-19500D02*
D03*
X302000Y-74500D02*
D03*
Y-69500D02*
D03*
Y500D02*
D03*
Y-4500D02*
D03*
Y-9500D02*
D03*
Y-14500D02*
D03*
Y-29500D02*
D03*
Y-54500D02*
D03*
X186000Y-74500D02*
D03*
Y-64500D02*
D03*
Y-29500D02*
D03*
Y-14500D02*
D03*
Y-9500D02*
D03*
Y-4500D02*
D03*
Y500D02*
D03*
X302000Y-19500D02*
D03*
Y-24500D02*
D03*
Y-34500D02*
D03*
Y-39500D02*
D03*
Y-44500D02*
D03*
Y-49500D02*
D03*
Y-59500D02*
D03*
Y-64500D02*
D03*
D93*
X271500Y-95000D02*
D03*
X266500D02*
D03*
X256500D02*
D03*
X251500D02*
D03*
X216500D02*
D03*
X221500D02*
D03*
X231500D02*
D03*
X236500D02*
D03*
X241500D02*
D03*
X246500D02*
D03*
X276500D02*
D03*
X281500D02*
D03*
X261500D02*
D03*
X226500D02*
D03*
X211500D02*
D03*
X206500D02*
D03*
Y21000D02*
D03*
X211500D02*
D03*
X216500D02*
D03*
X221500D02*
D03*
X226500D02*
D03*
X231500D02*
D03*
X236500D02*
D03*
X241500D02*
D03*
X246500D02*
D03*
X251500D02*
D03*
X256500D02*
D03*
X261500D02*
D03*
X266500D02*
D03*
X271500D02*
D03*
X276500D02*
D03*
X281500D02*
D03*
D94*
X436820Y-301010D02*
D03*
Y-317760D02*
D03*
D95*
Y-280260D02*
D03*
Y-338510D02*
D03*
D96*
X413820Y-284760D02*
D03*
Y-334010D02*
D03*
D97*
X410220Y-296385D02*
D03*
Y-302885D02*
D03*
Y-309385D02*
D03*
Y-315885D02*
D03*
Y-322385D02*
D03*
D98*
X395000Y-48000D02*
D03*
Y-52000D02*
D03*
Y-56000D02*
D03*
Y-60000D02*
D03*
Y-64000D02*
D03*
Y-68000D02*
D03*
Y-72000D02*
D03*
Y-76000D02*
D03*
Y-80000D02*
D03*
Y-84000D02*
D03*
Y-88000D02*
D03*
Y-92000D02*
D03*
Y-96000D02*
D03*
Y-100000D02*
D03*
Y-104000D02*
D03*
Y-108000D02*
D03*
Y-112000D02*
D03*
Y-116000D02*
D03*
Y-120000D02*
D03*
Y-124000D02*
D03*
Y-24000D02*
D03*
Y-28000D02*
D03*
Y-16000D02*
D03*
Y-20000D02*
D03*
Y-40000D02*
D03*
Y-44000D02*
D03*
Y-32000D02*
D03*
Y-36000D02*
D03*
Y-8000D02*
D03*
Y-12000D02*
D03*
D99*
X419000Y18000D02*
D03*
Y-150000D02*
D03*
D100*
X425300Y-66000D02*
D03*
Y-50000D02*
D03*
Y-34000D02*
D03*
Y-18000D02*
D03*
Y-82000D02*
D03*
Y-98000D02*
D03*
Y-114000D02*
D03*
D101*
X305500Y44000D02*
D03*
X314500D02*
D03*
X314505Y34496D02*
D03*
X305505D02*
D03*
X-363000Y-222000D02*
D03*
X-372000D02*
D03*
X-368500Y-142500D02*
D03*
X-377500D02*
D03*
X-379000Y-96000D02*
D03*
X-388000D02*
D03*
D102*
X-377000Y-159000D02*
D03*
X-364000D02*
D03*
X-377000Y-173500D02*
D03*
X-364000D02*
D03*
X-377500Y-63000D02*
D03*
X-364500D02*
D03*
X-377500Y-78000D02*
D03*
X-364500D02*
D03*
X-377500Y-12500D02*
D03*
X-364500D02*
D03*
D103*
X-375995Y-210754D02*
D03*
X-369495D02*
D03*
X-362995D02*
D03*
Y-189254D02*
D03*
X-369495D02*
D03*
X-375995D02*
D03*
X-365995Y-110246D02*
D03*
X-372495D02*
D03*
X-378995D02*
D03*
Y-131746D02*
D03*
X-372495D02*
D03*
X-365995D02*
D03*
X-375995Y-48254D02*
D03*
X-369495D02*
D03*
X-362995D02*
D03*
Y-26754D02*
D03*
X-369495D02*
D03*
X-375995D02*
D03*
D104*
X-428500Y-96500D02*
D03*
X-434000Y-182500D02*
D03*
X-431500Y-24750D02*
D03*
D105*
X-413250Y-87000D02*
D03*
Y-96500D02*
D03*
Y-106000D02*
D03*
X-443750D02*
D03*
Y-96500D02*
D03*
Y-87000D02*
D03*
X-418750Y-173000D02*
D03*
Y-182500D02*
D03*
Y-192000D02*
D03*
X-449250D02*
D03*
Y-182500D02*
D03*
Y-173000D02*
D03*
X-416250Y-15250D02*
D03*
Y-24750D02*
D03*
Y-34250D02*
D03*
X-446750D02*
D03*
Y-24750D02*
D03*
Y-15250D02*
D03*
D106*
X-434750Y-125000D02*
D03*
X-422250D02*
D03*
X-440250Y-209500D02*
D03*
X-427750D02*
D03*
X-440250Y-155500D02*
D03*
X-427750D02*
D03*
X-393250Y-51000D02*
D03*
X-405750D02*
D03*
X-437746Y2255D02*
D03*
X-425246D02*
D03*
D107*
X-434750Y-70000D02*
D03*
X-422250D02*
D03*
D108*
X-136500Y-124750D02*
D03*
Y-112250D02*
D03*
D109*
X-109000Y40800D02*
D03*
Y-10000D02*
D03*
X-151000D02*
D03*
Y40800D02*
D03*
D110*
X-201000Y-104000D02*
D03*
X-209000D02*
D03*
X-217000D02*
D03*
X-225000D02*
D03*
X-233000D02*
D03*
X-241000D02*
D03*
X-249000D02*
D03*
X-257000D02*
D03*
X-265000D02*
D03*
X-273000D02*
D03*
X-281000D02*
D03*
X-289000D02*
D03*
X-297000D02*
D03*
X-305000D02*
D03*
X-313000D02*
D03*
X-321000D02*
D03*
X-201000Y-96000D02*
D03*
X-209000D02*
D03*
X-217000D02*
D03*
X-225000D02*
D03*
X-233000D02*
D03*
X-241000D02*
D03*
X-249000D02*
D03*
X-257000D02*
D03*
X-265000D02*
D03*
X-273000D02*
D03*
X-281000D02*
D03*
X-289000D02*
D03*
X-297000D02*
D03*
X-305000D02*
D03*
X-313000D02*
D03*
X-321000D02*
D03*
X-201000Y-88000D02*
D03*
X-209000D02*
D03*
X-217000D02*
D03*
X-225000D02*
D03*
X-233000D02*
D03*
X-241000D02*
D03*
X-249000D02*
D03*
X-257000D02*
D03*
X-265000D02*
D03*
X-273000D02*
D03*
X-281000D02*
D03*
X-289000D02*
D03*
X-297000D02*
D03*
X-305000D02*
D03*
X-313000D02*
D03*
X-321000D02*
D03*
X-201000Y-80000D02*
D03*
X-209000D02*
D03*
X-217000D02*
D03*
X-225000D02*
D03*
X-233000D02*
D03*
X-241000D02*
D03*
X-249000D02*
D03*
X-257000D02*
D03*
X-265000D02*
D03*
X-273000D02*
D03*
X-281000D02*
D03*
X-289000D02*
D03*
X-297000D02*
D03*
X-305000D02*
D03*
X-313000D02*
D03*
X-321000D02*
D03*
X-201000Y-72000D02*
D03*
X-209000D02*
D03*
X-217000D02*
D03*
X-225000D02*
D03*
X-233000D02*
D03*
X-241000D02*
D03*
X-249000D02*
D03*
X-257000D02*
D03*
X-265000D02*
D03*
X-273000D02*
D03*
X-281000D02*
D03*
X-289000D02*
D03*
X-297000D02*
D03*
X-305000D02*
D03*
X-313000D02*
D03*
X-321000D02*
D03*
X-201000Y-64000D02*
D03*
X-209000D02*
D03*
X-217000D02*
D03*
X-225000D02*
D03*
X-233000D02*
D03*
X-241000D02*
D03*
X-249000D02*
D03*
X-257000D02*
D03*
X-265000D02*
D03*
X-273000D02*
D03*
X-281000D02*
D03*
X-289000D02*
D03*
X-297000D02*
D03*
X-305000D02*
D03*
X-313000D02*
D03*
X-321000D02*
D03*
X-201000Y-56000D02*
D03*
X-209000D02*
D03*
X-217000D02*
D03*
X-225000D02*
D03*
X-233000D02*
D03*
X-241000D02*
D03*
X-249000D02*
D03*
X-257000D02*
D03*
X-265000D02*
D03*
X-273000D02*
D03*
X-281000D02*
D03*
X-289000D02*
D03*
X-297000D02*
D03*
X-305000D02*
D03*
X-313000D02*
D03*
X-321000D02*
D03*
X-201000Y-48000D02*
D03*
X-209000D02*
D03*
X-217000D02*
D03*
X-225000D02*
D03*
X-233000D02*
D03*
X-241000D02*
D03*
X-249000D02*
D03*
X-257000D02*
D03*
X-265000D02*
D03*
X-273000D02*
D03*
X-281000D02*
D03*
X-289000D02*
D03*
X-297000D02*
D03*
X-305000D02*
D03*
X-313000D02*
D03*
X-321000D02*
D03*
X-201000Y-40000D02*
D03*
X-209000D02*
D03*
X-217000D02*
D03*
X-225000D02*
D03*
X-233000D02*
D03*
X-241000D02*
D03*
X-249000D02*
D03*
X-257000D02*
D03*
X-265000D02*
D03*
X-273000D02*
D03*
X-281000D02*
D03*
X-289000D02*
D03*
X-297000D02*
D03*
X-305000D02*
D03*
X-313000D02*
D03*
X-321000D02*
D03*
X-201000Y-32000D02*
D03*
X-209000D02*
D03*
X-217000D02*
D03*
X-225000D02*
D03*
X-233000D02*
D03*
X-241000D02*
D03*
X-249000D02*
D03*
X-257000D02*
D03*
X-265000D02*
D03*
X-273000D02*
D03*
X-281000D02*
D03*
X-289000D02*
D03*
X-297000D02*
D03*
X-305000D02*
D03*
X-313000D02*
D03*
X-321000D02*
D03*
X-201000Y-24000D02*
D03*
X-209000D02*
D03*
X-217000D02*
D03*
X-225000D02*
D03*
X-233000D02*
D03*
X-241000D02*
D03*
X-249000D02*
D03*
X-257000D02*
D03*
X-265000D02*
D03*
X-273000D02*
D03*
X-281000D02*
D03*
X-289000D02*
D03*
X-297000D02*
D03*
X-305000D02*
D03*
X-313000D02*
D03*
X-321000D02*
D03*
X-201000Y-16000D02*
D03*
X-209000D02*
D03*
X-217000D02*
D03*
X-225000D02*
D03*
X-233000D02*
D03*
X-241000D02*
D03*
X-249000D02*
D03*
X-257000D02*
D03*
X-265000D02*
D03*
X-273000D02*
D03*
X-281000D02*
D03*
X-289000D02*
D03*
X-297000D02*
D03*
X-305000D02*
D03*
X-313000D02*
D03*
X-321000D02*
D03*
X-201000Y-8000D02*
D03*
X-209000D02*
D03*
X-217000D02*
D03*
X-225000D02*
D03*
X-233000D02*
D03*
X-241000D02*
D03*
X-249000D02*
D03*
X-257000D02*
D03*
X-265000D02*
D03*
X-273000D02*
D03*
X-281000D02*
D03*
X-289000D02*
D03*
X-297000D02*
D03*
X-305000D02*
D03*
X-313000D02*
D03*
X-321000D02*
D03*
X-201000Y0D02*
D03*
X-209000D02*
D03*
X-217000D02*
D03*
X-225000D02*
D03*
X-233000D02*
D03*
X-241000D02*
D03*
X-249000D02*
D03*
X-257000D02*
D03*
X-265000D02*
D03*
X-273000D02*
D03*
X-281000D02*
D03*
X-289000D02*
D03*
X-297000D02*
D03*
X-305000D02*
D03*
X-313000D02*
D03*
X-321000D02*
D03*
X-201000Y8000D02*
D03*
X-209000D02*
D03*
X-217000D02*
D03*
X-225000D02*
D03*
X-233000D02*
D03*
X-241000D02*
D03*
X-249000D02*
D03*
X-257000D02*
D03*
X-265000D02*
D03*
X-273000D02*
D03*
X-281000D02*
D03*
X-289000D02*
D03*
X-297000D02*
D03*
X-305000D02*
D03*
X-313000D02*
D03*
X-321000D02*
D03*
X-201000Y16000D02*
D03*
X-209000D02*
D03*
X-217000D02*
D03*
X-225000D02*
D03*
X-233000D02*
D03*
X-241000D02*
D03*
X-249000D02*
D03*
X-257000D02*
D03*
X-265000D02*
D03*
X-273000D02*
D03*
X-281000D02*
D03*
X-289000D02*
D03*
X-297000D02*
D03*
X-305000D02*
D03*
X-313000D02*
D03*
X-321000D02*
D03*
X96000Y-104000D02*
D03*
X88000D02*
D03*
X80000D02*
D03*
X72000D02*
D03*
X64000D02*
D03*
X56000D02*
D03*
X48000D02*
D03*
X40000D02*
D03*
X32000D02*
D03*
X24000D02*
D03*
X16000D02*
D03*
X8000D02*
D03*
X0D02*
D03*
X-8000D02*
D03*
X-16000D02*
D03*
X-24000D02*
D03*
X96000Y-96000D02*
D03*
X88000D02*
D03*
X80000D02*
D03*
X72000D02*
D03*
X64000D02*
D03*
X56000D02*
D03*
X48000D02*
D03*
X40000D02*
D03*
X32000D02*
D03*
X24000D02*
D03*
X16000D02*
D03*
X8000D02*
D03*
X0D02*
D03*
X-8000D02*
D03*
X-16000D02*
D03*
X-24000D02*
D03*
X96000Y-88000D02*
D03*
X88000D02*
D03*
X80000D02*
D03*
X72000D02*
D03*
X64000D02*
D03*
X56000D02*
D03*
X48000D02*
D03*
X40000D02*
D03*
X32000D02*
D03*
X24000D02*
D03*
X16000D02*
D03*
X8000D02*
D03*
X0D02*
D03*
X-8000D02*
D03*
X-16000D02*
D03*
X-24000D02*
D03*
X96000Y-80000D02*
D03*
X88000D02*
D03*
X80000D02*
D03*
X72000D02*
D03*
X64000D02*
D03*
X56000D02*
D03*
X48000D02*
D03*
X40000D02*
D03*
X32000D02*
D03*
X24000D02*
D03*
X16000D02*
D03*
X8000D02*
D03*
X0D02*
D03*
X-8000D02*
D03*
X-16000D02*
D03*
X-24000D02*
D03*
X96000Y-72000D02*
D03*
X88000D02*
D03*
X80000D02*
D03*
X72000D02*
D03*
X64000D02*
D03*
X56000D02*
D03*
X48000D02*
D03*
X40000D02*
D03*
X32000D02*
D03*
X24000D02*
D03*
X16000D02*
D03*
X8000D02*
D03*
X0D02*
D03*
X-8000D02*
D03*
X-16000D02*
D03*
X-24000D02*
D03*
X96000Y-64000D02*
D03*
X88000D02*
D03*
X80000D02*
D03*
X72000D02*
D03*
X64000D02*
D03*
X56000D02*
D03*
X48000D02*
D03*
X40000D02*
D03*
X32000D02*
D03*
X24000D02*
D03*
X16000D02*
D03*
X8000D02*
D03*
X0D02*
D03*
X-8000D02*
D03*
X-16000D02*
D03*
X-24000D02*
D03*
X96000Y-56000D02*
D03*
X88000D02*
D03*
X80000D02*
D03*
X72000D02*
D03*
X64000D02*
D03*
X56000D02*
D03*
X48000D02*
D03*
X40000D02*
D03*
X32000D02*
D03*
X24000D02*
D03*
X16000D02*
D03*
X8000D02*
D03*
X0D02*
D03*
X-8000D02*
D03*
X-16000D02*
D03*
X-24000D02*
D03*
X96000Y-48000D02*
D03*
X88000D02*
D03*
X80000D02*
D03*
X72000D02*
D03*
X64000D02*
D03*
X56000D02*
D03*
X48000D02*
D03*
X40000D02*
D03*
X32000D02*
D03*
X24000D02*
D03*
X16000D02*
D03*
X8000D02*
D03*
X0D02*
D03*
X-8000D02*
D03*
X-16000D02*
D03*
X-24000D02*
D03*
X96000Y-40000D02*
D03*
X88000D02*
D03*
X80000D02*
D03*
X72000D02*
D03*
X64000D02*
D03*
X56000D02*
D03*
X48000D02*
D03*
X40000D02*
D03*
X32000D02*
D03*
X24000D02*
D03*
X16000D02*
D03*
X8000D02*
D03*
X0D02*
D03*
X-8000D02*
D03*
X-16000D02*
D03*
X-24000D02*
D03*
X96000Y-32000D02*
D03*
X88000D02*
D03*
X80000D02*
D03*
X72000D02*
D03*
X64000D02*
D03*
X56000D02*
D03*
X48000D02*
D03*
X40000D02*
D03*
X32000D02*
D03*
X24000D02*
D03*
X16000D02*
D03*
X8000D02*
D03*
X0D02*
D03*
X-8000D02*
D03*
X-16000D02*
D03*
X-24000D02*
D03*
X96000Y-24000D02*
D03*
X88000D02*
D03*
X80000D02*
D03*
X72000D02*
D03*
X64000D02*
D03*
X56000D02*
D03*
X48000D02*
D03*
X40000D02*
D03*
X32000D02*
D03*
X24000D02*
D03*
X16000D02*
D03*
X8000D02*
D03*
X0D02*
D03*
X-8000D02*
D03*
X-16000D02*
D03*
X-24000D02*
D03*
X96000Y-16000D02*
D03*
X88000D02*
D03*
X80000D02*
D03*
X72000D02*
D03*
X64000D02*
D03*
X56000D02*
D03*
X48000D02*
D03*
X40000D02*
D03*
X32000D02*
D03*
X24000D02*
D03*
X16000D02*
D03*
X8000D02*
D03*
X0D02*
D03*
X-8000D02*
D03*
X-16000D02*
D03*
X-24000D02*
D03*
X96000Y-8000D02*
D03*
X88000D02*
D03*
X80000D02*
D03*
X72000D02*
D03*
X64000D02*
D03*
X56000D02*
D03*
X48000D02*
D03*
X40000D02*
D03*
X32000D02*
D03*
X24000D02*
D03*
X16000D02*
D03*
X8000D02*
D03*
X0D02*
D03*
X-8000D02*
D03*
X-16000D02*
D03*
X-24000D02*
D03*
X96000Y0D02*
D03*
X88000D02*
D03*
X80000D02*
D03*
X72000D02*
D03*
X64000D02*
D03*
X56000D02*
D03*
X48000D02*
D03*
X40000D02*
D03*
X32000D02*
D03*
X24000D02*
D03*
X16000D02*
D03*
X8000D02*
D03*
X0D02*
D03*
X-8000D02*
D03*
X-16000D02*
D03*
X-24000D02*
D03*
X96000Y8000D02*
D03*
X88000D02*
D03*
X80000D02*
D03*
X72000D02*
D03*
X64000D02*
D03*
X56000D02*
D03*
X48000D02*
D03*
X40000D02*
D03*
X32000D02*
D03*
X24000D02*
D03*
X16000D02*
D03*
X8000D02*
D03*
X0D02*
D03*
X-8000D02*
D03*
X-16000D02*
D03*
X-24000D02*
D03*
X96000Y16000D02*
D03*
X88000D02*
D03*
X80000D02*
D03*
X72000D02*
D03*
X64000D02*
D03*
X56000D02*
D03*
X48000D02*
D03*
X40000D02*
D03*
X32000D02*
D03*
X24000D02*
D03*
X16000D02*
D03*
X8000D02*
D03*
X0D02*
D03*
X-8000D02*
D03*
X-16000D02*
D03*
X-24000D02*
D03*
D111*
X-356157Y-368450D02*
D03*
X-343457D02*
D03*
X-330757D02*
D03*
X-318057D02*
D03*
X-305357D02*
D03*
X-292657D02*
D03*
X-279957D02*
D03*
X-267257D02*
D03*
X-254557D02*
D03*
X-241857D02*
D03*
X-229157D02*
D03*
X-216457D02*
D03*
X-203757D02*
D03*
X-191057D02*
D03*
X-178357D02*
D03*
X-165657D02*
D03*
X-152957D02*
D03*
X-140257D02*
D03*
X-127557D02*
D03*
X-114857D02*
D03*
X-102157D02*
D03*
X-89457D02*
D03*
X-76757D02*
D03*
X-64057D02*
D03*
X-51357D02*
D03*
X-38657D02*
D03*
X-25957D02*
D03*
X-13257D02*
D03*
X-557D02*
D03*
X12143D02*
D03*
X24843D02*
D03*
X37543D02*
D03*
X50243D02*
D03*
X62943D02*
D03*
X75643D02*
D03*
X88343D02*
D03*
X101043D02*
D03*
X113743D02*
D03*
X126443D02*
D03*
X139143D02*
D03*
X151843D02*
D03*
X164543D02*
D03*
X177243D02*
D03*
X189943D02*
D03*
X202643D02*
D03*
X215343D02*
D03*
X228043D02*
D03*
X240743D02*
D03*
X253443D02*
D03*
X266143D02*
D03*
X-356157Y-355750D02*
D03*
Y-343050D02*
D03*
Y-330350D02*
D03*
Y-317650D02*
D03*
Y-304950D02*
D03*
Y-292250D02*
D03*
Y-279550D02*
D03*
X-343457D02*
D03*
X-330757D02*
D03*
X-318057D02*
D03*
X-305357D02*
D03*
X-292657D02*
D03*
X-279957D02*
D03*
X-267257D02*
D03*
X-254557D02*
D03*
X-241857D02*
D03*
X-229157D02*
D03*
X-216457D02*
D03*
X-203757D02*
D03*
X-191057D02*
D03*
X-178357D02*
D03*
X-165657D02*
D03*
X-152957D02*
D03*
X-140257D02*
D03*
X-127557D02*
D03*
X-114857D02*
D03*
X-102157D02*
D03*
X-89457D02*
D03*
X-76757D02*
D03*
X-64057D02*
D03*
X-51357D02*
D03*
X-38657D02*
D03*
X-25957D02*
D03*
X-13257D02*
D03*
X-557D02*
D03*
X12143D02*
D03*
X24843D02*
D03*
X37543D02*
D03*
X50243D02*
D03*
X62943D02*
D03*
X75643D02*
D03*
X88343D02*
D03*
X101043D02*
D03*
X113743D02*
D03*
X126443D02*
D03*
X139143D02*
D03*
X151843D02*
D03*
X164543D02*
D03*
X177243D02*
D03*
X189943D02*
D03*
X202643D02*
D03*
X215343D02*
D03*
X228043D02*
D03*
X240743D02*
D03*
X253443D02*
D03*
X266143D02*
D03*
X-343457Y-355750D02*
D03*
X-330757D02*
D03*
X-318057D02*
D03*
X-305357D02*
D03*
X-292657D02*
D03*
X-279957D02*
D03*
X-267257D02*
D03*
X-254557D02*
D03*
X-241857D02*
D03*
X-229157D02*
D03*
X-216457D02*
D03*
X-203757D02*
D03*
X-191057D02*
D03*
X-178357D02*
D03*
X-165657D02*
D03*
X-152957D02*
D03*
X-140257D02*
D03*
X-127557D02*
D03*
X-114857D02*
D03*
X-102157D02*
D03*
X-89457D02*
D03*
X-76757D02*
D03*
X-64057D02*
D03*
X-51357D02*
D03*
X-38657D02*
D03*
X-25957D02*
D03*
X-13257D02*
D03*
X-557D02*
D03*
X12143D02*
D03*
X24843D02*
D03*
X37543D02*
D03*
X50243D02*
D03*
X62943D02*
D03*
X75643D02*
D03*
X88343D02*
D03*
X101043D02*
D03*
X113743D02*
D03*
X126443D02*
D03*
X139143D02*
D03*
X151843D02*
D03*
X164543D02*
D03*
X177243D02*
D03*
X189943D02*
D03*
X202643D02*
D03*
X215343D02*
D03*
X228043D02*
D03*
X240743D02*
D03*
X253443D02*
D03*
X266143D02*
D03*
X-343457Y-343050D02*
D03*
X-330757D02*
D03*
X-318057D02*
D03*
X-305357D02*
D03*
X-292657D02*
D03*
X-279957D02*
D03*
X-267257D02*
D03*
X-254557D02*
D03*
X-241857D02*
D03*
X-229157D02*
D03*
X-216457D02*
D03*
X-203757D02*
D03*
X-191057D02*
D03*
X-178357D02*
D03*
X-165657D02*
D03*
X-152957D02*
D03*
X-140257D02*
D03*
X-127557D02*
D03*
X-114857D02*
D03*
X-102157D02*
D03*
X-89457D02*
D03*
X-76757D02*
D03*
X-64057D02*
D03*
X-51357D02*
D03*
X-38657D02*
D03*
X-25957D02*
D03*
X-13257D02*
D03*
X-557D02*
D03*
X12143D02*
D03*
X24843D02*
D03*
X37543D02*
D03*
X50243D02*
D03*
X62943D02*
D03*
X75643D02*
D03*
X88343D02*
D03*
X101043D02*
D03*
X113743D02*
D03*
X126443D02*
D03*
X139143D02*
D03*
X151843D02*
D03*
X164543D02*
D03*
X177243D02*
D03*
X189943D02*
D03*
X202643D02*
D03*
X215343D02*
D03*
X228043D02*
D03*
X240743D02*
D03*
X253443D02*
D03*
X266143D02*
D03*
X-343457Y-330350D02*
D03*
X-330757D02*
D03*
X-318057D02*
D03*
X-305357D02*
D03*
X-292657D02*
D03*
X-279957D02*
D03*
X-267257D02*
D03*
X-254557D02*
D03*
X-241857D02*
D03*
X-229157D02*
D03*
X-216457D02*
D03*
X-203757D02*
D03*
X-191057D02*
D03*
X-178357D02*
D03*
X-165657D02*
D03*
X-152957D02*
D03*
X-140257D02*
D03*
X-127557D02*
D03*
X-114857D02*
D03*
X-102157D02*
D03*
X-89457D02*
D03*
X-76757D02*
D03*
X-64057D02*
D03*
X-51357D02*
D03*
X-38657D02*
D03*
X-25957D02*
D03*
X-13257D02*
D03*
X-557D02*
D03*
X12143D02*
D03*
X24843D02*
D03*
X37543D02*
D03*
X50243D02*
D03*
X62943D02*
D03*
X75643D02*
D03*
X88343D02*
D03*
X101043D02*
D03*
X113743D02*
D03*
X126443D02*
D03*
X139143D02*
D03*
X151843D02*
D03*
X164543D02*
D03*
X177243D02*
D03*
X189943D02*
D03*
X202643D02*
D03*
X215343D02*
D03*
X228043D02*
D03*
X240743D02*
D03*
X253443D02*
D03*
X266143D02*
D03*
X-343457Y-317650D02*
D03*
X-330757D02*
D03*
X-318057D02*
D03*
X-305357D02*
D03*
X-292657D02*
D03*
X-279957D02*
D03*
X-267257D02*
D03*
X-254557D02*
D03*
X-241857D02*
D03*
X-229157D02*
D03*
X-216457D02*
D03*
X-203757D02*
D03*
X-191057D02*
D03*
X-178357D02*
D03*
X-165657D02*
D03*
X-152957D02*
D03*
X-140257D02*
D03*
X-127557D02*
D03*
X-114857D02*
D03*
X-102157D02*
D03*
X-89457D02*
D03*
X-76757D02*
D03*
X-64057D02*
D03*
X-51357D02*
D03*
X-38657D02*
D03*
X-25957D02*
D03*
X-13257D02*
D03*
X-557D02*
D03*
X12143D02*
D03*
X24843D02*
D03*
X37543D02*
D03*
X50243D02*
D03*
X62943D02*
D03*
X75643D02*
D03*
X88343D02*
D03*
X101043D02*
D03*
X113743D02*
D03*
X126443D02*
D03*
X139143D02*
D03*
X151843D02*
D03*
X164543D02*
D03*
X177243D02*
D03*
X189943D02*
D03*
X202643D02*
D03*
X215343D02*
D03*
X228043D02*
D03*
X240743D02*
D03*
X253443D02*
D03*
X266143D02*
D03*
X-343457Y-304950D02*
D03*
X-330757D02*
D03*
X-318057D02*
D03*
X-305357D02*
D03*
X-292657D02*
D03*
X-279957D02*
D03*
X-267257D02*
D03*
X-254557D02*
D03*
X-241857D02*
D03*
X-229157D02*
D03*
X-216457D02*
D03*
X-203757D02*
D03*
X-191057D02*
D03*
X-178357D02*
D03*
X-165657D02*
D03*
X-152957D02*
D03*
X-140257D02*
D03*
X-127557D02*
D03*
X-114857D02*
D03*
X-102157D02*
D03*
X-89457D02*
D03*
X-76757D02*
D03*
X-64057D02*
D03*
X-51357D02*
D03*
X-38657D02*
D03*
X-25957D02*
D03*
X-13257D02*
D03*
X-557D02*
D03*
X12143D02*
D03*
X24843D02*
D03*
X37543D02*
D03*
X50243D02*
D03*
X62943D02*
D03*
X75643D02*
D03*
X88343D02*
D03*
X101043D02*
D03*
X113743D02*
D03*
X126443D02*
D03*
X139143D02*
D03*
X151843D02*
D03*
X164543D02*
D03*
X177243D02*
D03*
X189943D02*
D03*
X202643D02*
D03*
X215343D02*
D03*
X228043D02*
D03*
X240743D02*
D03*
X253443D02*
D03*
X266143D02*
D03*
X-343457Y-292250D02*
D03*
X-330757D02*
D03*
X-318057D02*
D03*
X-305357D02*
D03*
X-292657D02*
D03*
X-279957D02*
D03*
X-267257D02*
D03*
X-254557D02*
D03*
X-241857D02*
D03*
X-229157D02*
D03*
X-216457D02*
D03*
X-203757D02*
D03*
X-191057D02*
D03*
X-178357D02*
D03*
X-165657D02*
D03*
X-152957D02*
D03*
X-140257D02*
D03*
X-127557D02*
D03*
X-114857D02*
D03*
X-102157D02*
D03*
X-89457D02*
D03*
X-76757D02*
D03*
X-64057D02*
D03*
X-51357D02*
D03*
X-38657D02*
D03*
X-557D02*
D03*
X12143D02*
D03*
X24843D02*
D03*
X37543D02*
D03*
X50243D02*
D03*
X62943D02*
D03*
X75643D02*
D03*
X88343D02*
D03*
X101043D02*
D03*
X113743D02*
D03*
X126443D02*
D03*
X139143D02*
D03*
X151843D02*
D03*
X164543D02*
D03*
X177243D02*
D03*
X189943D02*
D03*
X202643D02*
D03*
X215343D02*
D03*
X228043D02*
D03*
X240743D02*
D03*
X253443D02*
D03*
X266143D02*
D03*
X-13257D02*
D03*
X-25957D02*
D03*
D112*
X269220Y48115D02*
D03*
X264220D02*
D03*
X259220D02*
D03*
X254220D02*
D03*
X249220D02*
D03*
X244220D02*
D03*
X239220D02*
D03*
X234220D02*
D03*
X229220D02*
D03*
X224220D02*
D03*
X219220D02*
D03*
X214220D02*
D03*
D113*
X288220Y80365D02*
D03*
X195220D02*
D03*
D114*
X293720Y65115D02*
D03*
X189720D02*
D03*
D115*
X362250Y-209550D02*
D03*
Y-196850D02*
D03*
Y-184150D02*
D03*
Y-171450D02*
D03*
X305750Y-209550D02*
D03*
Y-196850D02*
D03*
Y-184150D02*
D03*
Y-171450D02*
D03*
X361750Y-263550D02*
D03*
Y-250850D02*
D03*
Y-238150D02*
D03*
Y-225450D02*
D03*
X305250Y-263550D02*
D03*
Y-250850D02*
D03*
Y-238150D02*
D03*
Y-225450D02*
D03*
D116*
X427000Y-253500D02*
D03*
Y-179000D02*
D03*
D117*
X395000Y-197500D02*
D03*
Y-210000D02*
D03*
Y-222500D02*
D03*
Y-235000D02*
D03*
D118*
X-452750Y-53500D02*
D03*
X-425250D02*
D03*
D119*
X417500Y43750D02*
D03*
X417000Y79250D02*
D03*
D120*
X-380414Y-324000D02*
D03*
X290400Y-293520D02*
D03*
D121*
X-440000Y-358000D02*
D03*
X350000D02*
D03*
Y62000D02*
D03*
X-440000D02*
D03*
M02*
