M48
;Layer_Color=9474304
;FILE_FORMAT=4:4
METRIC,LZ
;TYPE=PLATED
T1F00S00C0.2500
T2F00S00C0.3000
T3F00S00C0.6000
T4F00S00C3.5000
;TYPE=NON_PLATED
T5F00S00C1.2700
%
T01
X000635Y-00171
X000825
X000915Y-00171
X001105Y-00171
X001195
X00149Y-001505
X00104Y-00104
X00106Y-00096
X001105Y-00088
X001085Y-00076
X0010793Y-0007023
X001035Y-000665
X0011Y-000615
X00108Y-000515
X001045Y-00046
X00084Y-0006
X00076Y-00076
X00068
X00067153Y-00083347
X00076Y-00084
X00092Y-00084
X00084Y-00092
X00104Y-0008
X0006Y-00068
Y-0002
X00068Y-00012
Y-00004
X00076
X00084Y00004
X00104Y00016
X00056Y00024
X00052Y00004
X00036Y-00004
X00044Y-00012194
X00028Y-0002
X00012
X00004Y-00012
Y-00004
X-00004
Y-00012
X-00012Y00004
X00004
X00012Y00024
X-000235Y000225
X00004Y-00044
X0002Y-00036
Y-00052
X00036
Y-00044
Y-00036
X00052
Y-00052
X00036Y-00076
X00012Y-00068
X00004Y-00076
X-00004
Y-00084
X00004
X-00012Y-00092
X-00032Y-00108
X000075Y-001715
X000265
X000355
X000545Y-00171
X-00177Y-00181695
X-00186Y-001795
X-001925Y-001745
Y-00168
X-0019Y-001545
X-00192Y-00146
X-00196Y-0014
X-001935Y-001315
X-001965Y-001245
X-00201Y-001105
X-00213Y-00092
X-00221Y-00084
X-00229
Y-00076
X-00221
X-00213Y-00068
X-00237Y-00068
Y-00044
X-00245Y-00052
Y-00036
X-00253
X-00261
X-00261Y-000425
X-00261Y-00054
X-00277Y-00052
X-00285Y-00044
X-00277Y-00036
X-00269
X-00285Y-0002
X-00293Y-00012
X-00301
Y-00004
X-00293
X-00309Y00004
X-00329Y00016
X-00309Y-00052
X-00301Y-00076
X-00293Y-00084
X-00309Y-00092
X-00327999Y-00105
X-003296Y-001686
X-003106Y-001684
X-003019Y-001686
X-00283Y-001665
X-002741Y-001681
X-002551Y-001689
X-00246Y-00169
X-00227
X-002177Y-001688
X-00261Y-00076
X-00277Y-00068
X-00285
X-00261Y-00004
X-00245Y00004
X-00229Y-00004
Y-00012
X-00237Y-0002
X-00221Y-00004
X-00213Y00004
X-00193Y00016
T02
X-00459Y-00288
X-00445999Y-00292499
X-00443999Y-00302499
X-00433999Y-00308499
X-00421Y-002904
Y-002794
Y-002684
X-0041
Y-002794
Y-002904
X-00399Y-003105
X-003975Y-003225
X-00382Y-00309
X-00375Y-003485
Y-00355
X-00367
Y-003485
X-00366Y-00258
X-003445Y-00256
X-00332385Y-002555
X-0032478Y-00286273
X-00324707Y-00337
X-00312007
X-00311807Y-00362
X-00324507
X-00330757Y-00378243
X-00318057Y-00378057
X-00261Y-003625
X-002485Y-003235
X-00235507Y-00324
X-002355Y-00298593
X-00223Y-00286
Y-00272
X-00236999Y-00275
X-00249
X-00197507Y-00286
X-00197307Y-002985
X-00185107Y-00299
X-00185Y-00312
X-00172Y-00299499
X-00159Y-00311
X-00147
X-001465Y-002985
X-00146707Y-00286
X-00134Y-00285993
Y-0027098
X-00146Y-002725
X-001655
X-00109107Y-002865
X-00109Y-00299093
X-00121Y-002985
X-001215Y-003115
X-00108207Y-00311
X-00083Y-00311193
X-00082907Y-003365
X-000705Y-00349493
X-00108607Y-003495
X-00121Y-00336493
X-00134Y-00324093
X-00172Y-003495
X-00185
X-00197307
X-00031907Y-00349
X-00032307Y-00324
X-00019607
X000055Y-00336407
X00006Y-00349193
X00018593Y-00362
X00031Y-00336893
Y-00323807
X00031293Y-002985
X00012143Y-00299857
X-000005Y-00286999
X-00013257Y-00270757
X-00032407Y-00286
X-00032407Y-002985
X-00057607
X-00070507Y-00286
X-00051357Y-00269357
X-00089457Y-00269043
X-00045207Y-003115
X-00013257Y-00378243
X00043793Y-003495
X00056593Y-00324
X000565Y-00298693
X00056493Y-00286
X000545Y-002695
X00028Y-002705
X00064Y-002695
X00076Y-002685
X00101043Y-00268957
X001075Y-00298493
X001195Y-0031
X001075Y-00325
X00094693Y-00324
X000815
X000695
X00069Y-00298893
X000825Y-00310793
X001325Y-00324293
Y-003365
X001455Y-00336693
X00158Y-003475
X001575Y-003635
X00171Y-00362499
X00184
X00196193Y-003495
X002085
X00222Y-00349999
X002335Y-0035
X002475Y-003495
X0026Y-00324
X00259Y-003105
X00247Y-00311
X00234Y-003115
Y-00324
X00208993
X002085Y-00299
X00221293
X00208893Y-00286
X00177243Y-00268743
X00139Y-002715
X00145593Y-002985
X00171Y-00312
X00184
X00183Y-003245
X001845Y-003365
X00139Y-00374499
X0012Y-00377
X00095Y-00374493
X000845Y-00379
X00286Y-00316
X00272393Y-00286
X002535Y-002725
X00301Y-00273
X00293Y-002565
X00355Y-00305
X00371Y-003285
X003765Y-00333
X003925Y-003375
X00391Y-003225
X0041382Y-0033401
X0043682Y-0033851
Y-0031776
Y-0030101
Y-0028026
X0041382Y-0028476
X003995Y-00285
X003985Y-00266
X00399Y-003595
X00380499Y-002475
X0038202Y-002225
X00377Y-002105
X00379Y-001925
X00388Y-001755
X003385Y-001765
X003245Y-001565
X00312
X002965Y-001575
X00289499Y-00178
X00275999Y-00191
X002765Y-002
X00282999Y-00229499
X00273Y-002465
X00246Y-00255
X00234Y-00249
X00204Y-002265
X0020902Y-0022004
X00203Y-002115
X00208Y-00201
X00203Y-001915
X00197Y-00196
X00195Y-00224
X001825Y-00229499
X00188Y-002385
X001515Y-00234
X00147Y-002275
X00147Y-002175
X00153Y-002125
X00153Y-002005
X001455Y-00195
Y-00206
X001545Y-002235
X00154Y-002475
X00148Y-00242
X00149Y-002545
X00125Y-002485
X001795Y-001525
X001885Y-00153
X001915Y-00115
X001765Y-000835
X00215Y-0008
X00207149Y-00071649
X002095Y-000515
X002055Y-000315
Y-00022
X002065Y000075
X002045Y000465
X001965Y000385
X002292Y00033496
X0023422Y00058115
X0024422Y00058115
X0025422
X00264219Y00058114
X0026922Y00064115
X00259125Y0006421
X0024922Y00064115
X00239315Y0006371
X00228719Y00063614
X0017072Y00053115
X001485Y00088
X000965Y00079
X000735Y000325
X001025Y-00038
X001605Y-000115
X0024Y-00046605
X00276Y-00052
X00283499Y-00077
X00305999Y-000865
X003195Y-00088
X003315Y-00086
X00339499Y-000865
X003465Y-000905
Y-001005
Y-001105
X00347Y-0012
X00346Y-00128
Y-00136
X003465Y-00144
X0036Y-001055
Y-000955
Y-000855
Y-000755
X00382499Y-000735
X00385Y-00067
X003835Y-00049
X00383Y-000935
X004375Y-00098
Y-00114
Y-00082
Y-00066
Y-0005
Y-000335
X00437Y-00018
X004385Y-000055
Y00002
Y00009
Y00016
X00419Y000265
X00421Y000515
X004125
X004035
X003885Y000245
X003825Y000185
X00377Y00013
X00323Y00018
X00312253Y00023253
X003285Y-000045
X00277999Y-000205
X002715Y000085
X002615Y-00112
X002565Y-001415
X002485Y-0015
X002345Y-00121
X00159Y-001295
X00308999Y-002175
X0033Y-00233
Y-00241
X00339Y-002415
Y-00233
X003495Y-00255
X00416Y-00235
X004325Y-0015
X004345Y00069
X0044Y000635
X004284Y000751
X-000845Y00067
X-00093Y000525
X-00092Y000345
X-001045Y00023
X-00113Y000225
X-00093Y00006
X-00126Y-00003
X-001365Y-00012
X-00148Y-000325
X-001585Y-000315
X-00158763Y-00041603
X-001685Y-000415
X-00171Y-000495
X-001785Y-000515
X-001845Y-000465
X-001895Y00009
X-001515Y000065
X-0018Y00055
X-002105Y000405
X-0027528Y00040114
X-00333501Y-00064001
X-00331001Y-00075001
X-0033Y-00092
X-00334Y-00112
X-0033662Y-00152137
X-00336499Y-001735
X-00328499Y-00176
X-002515Y-001275
X-00229Y-00124
X-00236Y-001165
X-002215Y-00135
X-001605Y-001535
X-001665Y-00165
X-001225Y-001485
X-00135Y-00136
X-000915Y-001365
X-000985Y-001505
X-0008101Y-0017598
X-000745Y-001265
X-000855Y-001205
X-000845Y-00113
X-000915Y-00109
X-001175Y-00103
X-001385Y-00089
X-001515Y-000915
X-0015Y-001055
X-001605Y-000985
X-0013Y-000615
X-00114Y-000535
X-001125Y-00045467
X-00107Y-000365
X-00088Y-000645
X-00096Y-00074
X-000755Y-000785
X-0006168Y-000855
X-00065Y-00096
X-000605Y-00111609
X-00035Y-001315
X-00022Y-001325
X-000425Y-00149
X-000335Y-00087
X-000315Y-000795
X000065Y-0012
X00032Y-001235
X0005Y-00123
X00054095Y-00113985
X-00075Y000945
X-00111Y000635
X-00121Y00064
X-001595Y-002425
X-00367Y-002465
X-00386
X-003955Y-00255
X-004145Y-002465
X-00431Y-00255
X-0043327Y-00218309
X-00434Y-00188
Y-00177
X-00433999Y-001355
X-00413999Y-00125
X-00409499Y-001205
X-00391Y-001245
X-00400499Y-00161
X-00397Y-00165
X-00354499Y-001625
X-00339499Y-001815
X-00339999Y-001895
X-00389999Y-00222
X-00365743Y-00094252
X-003405Y-00096
Y-00088
Y-0008
X-00341Y-00069
X-00343Y-00059
X-003485Y-00053
X-003395Y-000455
X-0034975Y-0001052
X-00344499Y-000035
X-003615Y-000005
X-00383499Y-000035
X-00392Y-000075
X-00399Y-00001
X-004005Y000075
X-00419499Y-000075
X-004315Y-0001925
Y-0003025
X-003905Y-00038
X-00381999Y-000485
X-00412999Y-00067
X-004275Y-00079
X-004285Y-00091
X-004355Y-00091
Y-00102
X-004285Y-00102
X-00452499Y-000755
X-00454Y-00066
X-004625
X-004655Y00022
X-00465Y0003
X-004725Y00026
Y00018
X-00472Y00035
X-00417Y00034
X-004095Y00036
X-00393081Y00066419
T03
X-00469Y-002115
X-00455499Y-00156
X-004505Y-00005
T04
X-0044Y-00358
X0035
Y00062
X-0044
T05
X-00380414Y-00324
X002904Y-0029352
M30
