G04 Layer_Physical_Order=3*
G04 Layer_Color=16440176*
%FSLAX44Y44*%
%MOMM*%
G71*
G01*
G75*
%ADD40C,0.2500*%
%ADD42C,0.5000*%
%ADD45C,0.4000*%
%ADD46C,0.2000*%
%ADD52C,0.6000*%
%ADD53C,0.4500*%
G36*
X40951Y-47426D02*
Y-55444D01*
X40698Y-55698D01*
X40145Y-56525D01*
X39951Y-57500D01*
X40145Y-58475D01*
X40698Y-59302D01*
X41500Y-60105D01*
Y-62000D01*
X52500Y-73000D01*
X62945D01*
X63440Y-73927D01*
X63501Y-74270D01*
X63157Y-76000D01*
X63526Y-77853D01*
X64575Y-79425D01*
X66147Y-80474D01*
X68000Y-80843D01*
X69853Y-80474D01*
X70655Y-79939D01*
X71532Y-80097D01*
X71874Y-80290D01*
X72056Y-80468D01*
X72138Y-81230D01*
X71526Y-82147D01*
X71157Y-84000D01*
X71526Y-85853D01*
X71329Y-86637D01*
X71298Y-86654D01*
X71009Y-86891D01*
X70698Y-87099D01*
X70627Y-87204D01*
X70530Y-87285D01*
X70353Y-87615D01*
X70145Y-87926D01*
X70120Y-88050D01*
X70061Y-88162D01*
X70024Y-88534D01*
X69951Y-88902D01*
Y-89444D01*
X56951Y-102444D01*
X-41507D01*
X-42482Y-102638D01*
X-43309Y-103191D01*
X-46118Y-106000D01*
X-86890D01*
X-87535Y-105035D01*
X-89354Y-103819D01*
X-91500Y-103392D01*
X-93646Y-103819D01*
X-95465Y-105035D01*
X-96681Y-106854D01*
X-97108Y-109000D01*
X-96681Y-111146D01*
X-95465Y-112965D01*
X-95420Y-113420D01*
X-134500Y-152500D01*
X-155091D01*
X-155319Y-151354D01*
X-156535Y-149535D01*
X-158354Y-148319D01*
X-160500Y-147892D01*
X-162646Y-148319D01*
X-164465Y-149535D01*
X-165681Y-151354D01*
X-165909Y-152500D01*
X-185624D01*
X-186576Y-151075D01*
X-187745Y-150294D01*
X-188143Y-149877D01*
X-188116Y-148737D01*
X-187526Y-147853D01*
X-187157Y-146000D01*
X-187526Y-144147D01*
X-188575Y-142576D01*
X-190147Y-141526D01*
X-191410Y-141274D01*
X-191157Y-140000D01*
X-191526Y-138147D01*
X-192057Y-137351D01*
X-191647Y-135974D01*
X-190075Y-134925D01*
X-189026Y-133353D01*
X-188657Y-131500D01*
X-189026Y-129647D01*
X-190075Y-128076D01*
X-191163Y-127349D01*
X-192026Y-126353D01*
X-191657Y-124500D01*
X-192026Y-122647D01*
X-193075Y-121075D01*
X-194647Y-120026D01*
X-196500Y-119657D01*
X-198353Y-120026D01*
X-199925Y-121075D01*
X-200974Y-122647D01*
X-201343Y-124500D01*
X-200974Y-126353D01*
X-199925Y-127925D01*
X-198837Y-128651D01*
X-197974Y-129647D01*
X-198343Y-131500D01*
X-197974Y-133353D01*
X-197443Y-134149D01*
X-197853Y-135526D01*
X-199425Y-136575D01*
X-200474Y-138147D01*
X-200843Y-140000D01*
X-200474Y-141853D01*
X-199425Y-143425D01*
X-197853Y-144474D01*
X-196590Y-144726D01*
X-196843Y-146000D01*
X-196474Y-147853D01*
X-195425Y-149425D01*
X-194255Y-150206D01*
X-194244Y-150218D01*
X-193897Y-151429D01*
X-194579Y-152500D01*
X-330714D01*
X-331012Y-152137D01*
X-331439Y-149991D01*
X-332655Y-148172D01*
X-334474Y-146956D01*
X-336620Y-146530D01*
X-338766Y-146956D01*
X-340585Y-148172D01*
X-341801Y-149991D01*
X-342228Y-152137D01*
X-342525Y-152500D01*
X-391754D01*
X-392000Y-152451D01*
X-403000D01*
X-403975Y-152645D01*
X-404802Y-153198D01*
X-416302Y-164698D01*
X-416855Y-165525D01*
X-417049Y-166500D01*
Y-204944D01*
X-429677Y-217572D01*
X-429816Y-217780D01*
X-429994Y-217958D01*
X-430090Y-218190D01*
X-430229Y-218399D01*
X-430278Y-218645D01*
X-430374Y-218877D01*
X-430490Y-219460D01*
X-431142Y-220436D01*
X-432118Y-221089D01*
X-432702Y-221204D01*
X-432934Y-221301D01*
X-433180Y-221350D01*
X-433332Y-221451D01*
X-433947D01*
X-434084Y-221314D01*
X-435398Y-220436D01*
X-436050Y-219460D01*
X-436279Y-218309D01*
X-436050Y-217157D01*
X-435397Y-216181D01*
X-434084Y-215303D01*
X-433906Y-215126D01*
X-433698Y-214986D01*
X-433558Y-214778D01*
X-433381Y-214600D01*
X-433285Y-214368D01*
X-433145Y-214159D01*
X-433096Y-213913D01*
X-433000Y-213681D01*
Y-213430D01*
X-432951Y-213184D01*
Y-193399D01*
X-431854Y-193181D01*
X-430035Y-191965D01*
X-428819Y-190146D01*
X-428392Y-188000D01*
X-428819Y-185854D01*
X-430035Y-184035D01*
X-431210Y-183249D01*
Y-181751D01*
X-430035Y-180965D01*
X-428819Y-179146D01*
X-428392Y-177000D01*
X-428819Y-174854D01*
X-430035Y-173035D01*
X-431854Y-171819D01*
X-432951Y-171601D01*
Y-148951D01*
X-424000Y-140000D01*
X-330500D01*
X-295500Y-105000D01*
X-295500Y-86000D01*
X-280880Y-71380D01*
X-280425Y-71425D01*
X-278853Y-72474D01*
X-277000Y-72843D01*
X-275147Y-72474D01*
X-273575Y-71425D01*
X-272526Y-69853D01*
X-272157Y-68000D01*
X-272526Y-66147D01*
X-273575Y-64576D01*
X-273620Y-64120D01*
X-263500Y-54000D01*
X-258500Y-54000D01*
X-222500Y-90000D01*
X-218740D01*
X-217698Y-91270D01*
X-217843Y-92000D01*
X-217474Y-93853D01*
X-216425Y-95425D01*
X-214853Y-96474D01*
X-213000Y-96843D01*
X-211147Y-96474D01*
X-209576Y-95425D01*
X-208526Y-93853D01*
X-208157Y-92000D01*
X-208302Y-91270D01*
X-207260Y-90000D01*
X-157810D01*
X-157004Y-90982D01*
X-157107Y-91500D01*
X-156849Y-92797D01*
X-157992Y-93560D01*
X-158354Y-93319D01*
X-160500Y-92892D01*
X-162646Y-93319D01*
X-164465Y-94535D01*
X-165681Y-96354D01*
X-166107Y-98500D01*
X-165681Y-100646D01*
X-164465Y-102465D01*
X-162646Y-103681D01*
X-160500Y-104108D01*
X-158354Y-103681D01*
X-156534Y-102465D01*
X-155319Y-100646D01*
X-154892Y-98500D01*
X-155150Y-97203D01*
X-154007Y-96439D01*
X-153646Y-96681D01*
X-151500Y-97108D01*
X-149354Y-96681D01*
X-147534Y-95465D01*
X-146319Y-93646D01*
X-145892Y-91500D01*
X-145995Y-90982D01*
X-145189Y-90000D01*
X-143909D01*
X-143681Y-91146D01*
X-142465Y-92965D01*
X-140646Y-94181D01*
X-138500Y-94608D01*
X-136354Y-94181D01*
X-134535Y-92965D01*
X-133319Y-91146D01*
X-133091Y-90000D01*
X-68206D01*
X-67821Y-91270D01*
X-68965Y-92035D01*
X-70181Y-93854D01*
X-70608Y-96000D01*
X-70181Y-98146D01*
X-68965Y-99965D01*
X-67146Y-101181D01*
X-65000Y-101608D01*
X-62854Y-101181D01*
X-61035Y-99965D01*
X-59819Y-98146D01*
X-59392Y-96000D01*
X-59819Y-93854D01*
X-60894Y-92246D01*
X-60715Y-91351D01*
X-60490Y-90871D01*
X-59534Y-90681D01*
X-58515Y-90000D01*
X-48500D01*
X-44500Y-94000D01*
X-17500D01*
X-16107Y-94403D01*
X-15425Y-95424D01*
X-13853Y-96474D01*
X-12000Y-96843D01*
X-10147Y-96474D01*
X-8576Y-95424D01*
X-7526Y-93853D01*
X-7157Y-92000D01*
X-7526Y-90147D01*
X-8576Y-88575D01*
X-8918Y-88347D01*
X-9077Y-86923D01*
X-7653Y-87082D01*
X-7425Y-87425D01*
X-5853Y-88474D01*
X-4000Y-88843D01*
X-2147Y-88474D01*
X-575Y-87425D01*
X474Y-85853D01*
X843Y-84000D01*
X474Y-82147D01*
X-402Y-80836D01*
X-431Y-80600D01*
X724Y-79585D01*
X836Y-79598D01*
X2147Y-80474D01*
X4000Y-80843D01*
X5853Y-80474D01*
X7424Y-79425D01*
X8474Y-77853D01*
X8843Y-76000D01*
X8474Y-74147D01*
X7424Y-72575D01*
X7082Y-72347D01*
X6923Y-70923D01*
X8347Y-71082D01*
X8575Y-71425D01*
X10147Y-72474D01*
X12000Y-72843D01*
X13853Y-72474D01*
X15424Y-71425D01*
X16474Y-69853D01*
X16843Y-68000D01*
X16474Y-66147D01*
X15424Y-64576D01*
X14852Y-64193D01*
X14635Y-62743D01*
X15270Y-62000D01*
X25000D01*
X30000Y-57000D01*
Y-49500D01*
X32120Y-47380D01*
X32575Y-47425D01*
X34147Y-48474D01*
X36000Y-48843D01*
X37853Y-48474D01*
X39425Y-47425D01*
X39681Y-47041D01*
X40951Y-47426D01*
D02*
G37*
G36*
X-57500Y49000D02*
X124500D01*
X146000Y70500D01*
X216000D01*
X223167Y63333D01*
X223538Y61468D01*
X224753Y59649D01*
X226573Y58433D01*
X228438Y58062D01*
X228669Y57831D01*
X229039Y55969D01*
X230255Y54150D01*
X232074Y52934D01*
X233936Y52564D01*
X254500Y32000D01*
X318500D01*
X330000Y20500D01*
Y1810D01*
X329018Y1005D01*
X328500Y1108D01*
X326354Y681D01*
X324535Y-535D01*
X323319Y-2354D01*
X322892Y-4500D01*
X323319Y-6646D01*
X324334Y-8166D01*
X290000Y-42500D01*
Y-132000D01*
X232000Y-190000D01*
Y-243790D01*
X231854Y-243819D01*
X230035Y-245035D01*
X228819Y-246854D01*
X228392Y-249000D01*
X228819Y-251146D01*
X230035Y-252965D01*
X231854Y-254181D01*
X232000Y-254210D01*
Y-282500D01*
X221062Y-293438D01*
X219147Y-293819D01*
X217328Y-295035D01*
X216112Y-296854D01*
X215853Y-298154D01*
X215270Y-298498D01*
X213883Y-297868D01*
X213681Y-296854D01*
X212465Y-295035D01*
X210646Y-293819D01*
X208500Y-293392D01*
X206354Y-293819D01*
X204535Y-295035D01*
X203319Y-296854D01*
X202892Y-299000D01*
X203319Y-301146D01*
X204535Y-302965D01*
X206354Y-304181D01*
X208163Y-304541D01*
X208745Y-305755D01*
X189755Y-324745D01*
X188541Y-324163D01*
X188181Y-322354D01*
X186965Y-320535D01*
X185146Y-319319D01*
X183000Y-318892D01*
X180854Y-319319D01*
X179035Y-320535D01*
X177819Y-322354D01*
X177392Y-324500D01*
X177819Y-326646D01*
X179035Y-328465D01*
X180854Y-329681D01*
X182467Y-330002D01*
Y-331297D01*
X182354Y-331319D01*
X180535Y-332535D01*
X179319Y-334354D01*
X179114Y-335386D01*
X172500Y-342000D01*
X158542D01*
X158000Y-341892D01*
X157458Y-342000D01*
X149743D01*
X149358Y-340730D01*
X149465Y-340658D01*
X150681Y-338839D01*
X151108Y-336693D01*
X150681Y-334547D01*
X149465Y-332728D01*
X147646Y-331512D01*
X145500Y-331085D01*
X143354Y-331512D01*
X141535Y-332728D01*
X140319Y-334547D01*
X139892Y-336693D01*
X140319Y-338839D01*
X141535Y-340658D01*
X141642Y-340730D01*
X141257Y-342000D01*
X136454D01*
X136069Y-340730D01*
X136465Y-340465D01*
X137681Y-338646D01*
X138108Y-336500D01*
X137681Y-334354D01*
X136465Y-332535D01*
X134646Y-331319D01*
X133262Y-331044D01*
Y-329749D01*
X134646Y-329474D01*
X136465Y-328258D01*
X137681Y-326439D01*
X138108Y-324293D01*
X137681Y-322147D01*
X136465Y-320328D01*
X134646Y-319112D01*
X132500Y-318685D01*
X130354Y-319112D01*
X128535Y-320328D01*
X127319Y-322147D01*
X126892Y-324293D01*
X127319Y-326439D01*
X128535Y-328258D01*
X130354Y-329474D01*
X131738Y-329749D01*
Y-331044D01*
X130354Y-331319D01*
X128535Y-332535D01*
X127319Y-334354D01*
X126892Y-336500D01*
X127319Y-338646D01*
X128535Y-340465D01*
X128931Y-340730D01*
X128546Y-342000D01*
X35368D01*
X35051Y-340730D01*
X36181Y-339039D01*
X36608Y-336893D01*
X36181Y-334747D01*
X34965Y-332928D01*
X33146Y-331712D01*
X31000Y-331285D01*
X28854Y-331712D01*
X27035Y-332928D01*
X25819Y-334747D01*
X25392Y-336893D01*
X25443Y-337147D01*
X24272Y-337772D01*
X15000Y-328500D01*
X-14472D01*
X-15151Y-327230D01*
X-14426Y-326146D01*
X-13999Y-324000D01*
X-14426Y-321854D01*
X-15642Y-320035D01*
X-17461Y-318819D01*
X-19607Y-318392D01*
X-21753Y-318819D01*
X-23572Y-320035D01*
X-24788Y-321854D01*
X-25215Y-324000D01*
X-24788Y-326146D01*
X-24064Y-327230D01*
X-24743Y-328500D01*
X-27172D01*
X-27850Y-327230D01*
X-27126Y-326146D01*
X-26699Y-324000D01*
X-27126Y-321854D01*
X-28342Y-320035D01*
X-30161Y-318819D01*
X-32307Y-318392D01*
X-34453Y-318819D01*
X-36272Y-320035D01*
X-37488Y-321854D01*
X-37915Y-324000D01*
X-37488Y-326146D01*
X-36764Y-327230D01*
X-37443Y-328500D01*
X-128802D01*
X-129481Y-327230D01*
X-128819Y-326239D01*
X-128392Y-324093D01*
X-128819Y-321947D01*
X-130035Y-320128D01*
X-131854Y-318912D01*
X-134000Y-318485D01*
X-136146Y-318912D01*
X-137965Y-320128D01*
X-139181Y-321947D01*
X-139608Y-324093D01*
X-139181Y-326239D01*
X-138519Y-327230D01*
X-139198Y-328500D01*
X-230372D01*
X-231050Y-327230D01*
X-230326Y-326146D01*
X-229899Y-324000D01*
X-230326Y-321854D01*
X-231542Y-320035D01*
X-233361Y-318819D01*
X-235507Y-318392D01*
X-237653Y-318819D01*
X-239472Y-320035D01*
X-240688Y-321854D01*
X-241115Y-324000D01*
X-240688Y-326146D01*
X-239964Y-327230D01*
X-240643Y-328500D01*
X-243971D01*
X-244377Y-327230D01*
X-243319Y-325646D01*
X-242892Y-323500D01*
X-243319Y-321354D01*
X-244535Y-319535D01*
X-246354Y-318319D01*
X-248500Y-317892D01*
X-250646Y-318319D01*
X-252465Y-319535D01*
X-253681Y-321354D01*
X-254108Y-323500D01*
X-253681Y-325646D01*
X-252623Y-327230D01*
X-253029Y-328500D01*
X-351500D01*
X-383000Y-297000D01*
Y-258000D01*
X-387994Y-253006D01*
X-387368Y-251835D01*
X-386000Y-252108D01*
X-383854Y-251681D01*
X-382035Y-250465D01*
X-380819Y-248646D01*
X-380392Y-246500D01*
X-380819Y-244354D01*
X-382035Y-242535D01*
X-383854Y-241319D01*
X-386000Y-240892D01*
X-388146Y-241319D01*
X-389965Y-242535D01*
X-391181Y-244354D01*
X-391608Y-246500D01*
X-391181Y-248646D01*
X-390969Y-248963D01*
X-391546Y-250385D01*
X-392270Y-250544D01*
X-393354Y-249819D01*
X-395500Y-249392D01*
X-397646Y-249819D01*
X-399465Y-251035D01*
X-400681Y-252854D01*
X-400886Y-253886D01*
X-402500Y-255500D01*
Y-255638D01*
X-403239Y-256744D01*
X-403588Y-258500D01*
Y-264202D01*
X-404375Y-264922D01*
X-405821Y-264755D01*
X-406035Y-264435D01*
X-407854Y-263219D01*
X-410000Y-262792D01*
X-412146Y-263219D01*
X-413965Y-264435D01*
X-414751Y-265610D01*
X-416249D01*
X-417035Y-264435D01*
X-418854Y-263219D01*
X-421000Y-262792D01*
X-423146Y-263219D01*
X-424965Y-264435D01*
X-426181Y-266254D01*
X-426608Y-268400D01*
X-427100Y-269000D01*
X-431500D01*
X-435000Y-265500D01*
Y-249989D01*
X-433100Y-248088D01*
X-424000D01*
X-422244Y-247739D01*
X-421284Y-247097D01*
X-419990Y-247536D01*
X-419879Y-247651D01*
X-419681Y-248646D01*
X-418465Y-250465D01*
X-416646Y-251681D01*
X-414500Y-252108D01*
X-412354Y-251681D01*
X-410535Y-250465D01*
X-409319Y-248646D01*
X-408892Y-246500D01*
X-409319Y-244354D01*
X-410535Y-242535D01*
X-412354Y-241319D01*
X-413329Y-241125D01*
X-413747Y-239747D01*
X-396752Y-222752D01*
X-395374Y-223170D01*
X-395180Y-224146D01*
X-393965Y-225965D01*
X-392145Y-227180D01*
X-389999Y-227607D01*
X-387853Y-227180D01*
X-386034Y-225965D01*
X-384818Y-224146D01*
X-384392Y-222000D01*
X-384818Y-219854D01*
X-386034Y-218034D01*
X-387853Y-216819D01*
X-388829Y-216625D01*
X-389247Y-215247D01*
X-369500Y-195500D01*
X-132014D01*
X-96242Y-159728D01*
X-95069Y-160214D01*
Y-173022D01*
X-159032Y-236985D01*
X-159500Y-236892D01*
X-161646Y-237319D01*
X-163465Y-238534D01*
X-164681Y-240354D01*
X-165107Y-242500D01*
X-164681Y-244646D01*
X-163465Y-246465D01*
X-161646Y-247680D01*
X-159500Y-248107D01*
X-157354Y-247680D01*
X-155534Y-246465D01*
X-154319Y-244646D01*
X-153892Y-242500D01*
X-153985Y-242032D01*
X-88977Y-177023D01*
X-88203Y-175865D01*
X-87931Y-174500D01*
Y-151418D01*
X-79513Y-142999D01*
X49692Y-272204D01*
X50535Y-273465D01*
X52354Y-274681D01*
X54500Y-275108D01*
X56646Y-274681D01*
X58465Y-273465D01*
X58615Y-273241D01*
X59885D01*
X60035Y-273465D01*
X61854Y-274681D01*
X64000Y-275108D01*
X66146Y-274681D01*
X67965Y-273465D01*
X69181Y-271646D01*
X69452Y-270283D01*
X70747D01*
X70819Y-270646D01*
X72035Y-272465D01*
X73854Y-273681D01*
X76000Y-274108D01*
X78146Y-273681D01*
X79965Y-272465D01*
X81181Y-270646D01*
X81608Y-268500D01*
X81181Y-266354D01*
X79965Y-264535D01*
X78146Y-263319D01*
X76000Y-262892D01*
X75532Y-262985D01*
X68128Y-255581D01*
X66970Y-254808D01*
X65605Y-254536D01*
X55083D01*
X53843Y-253296D01*
X53862Y-253144D01*
X54411Y-252069D01*
X120770D01*
X121035Y-252465D01*
X122854Y-253681D01*
X125000Y-254108D01*
X127146Y-253681D01*
X128965Y-252465D01*
X130181Y-250646D01*
X130608Y-248500D01*
X130181Y-246354D01*
X128965Y-244535D01*
X127146Y-243319D01*
X125000Y-242892D01*
X122854Y-243319D01*
X121035Y-244535D01*
X120770Y-244931D01*
X55478D01*
X-37715Y-151738D01*
X-37319Y-151146D01*
X-36892Y-149000D01*
X-37319Y-146854D01*
X-38535Y-145035D01*
X-40354Y-143819D01*
X-42500Y-143392D01*
X-44646Y-143819D01*
X-46465Y-145035D01*
X-47681Y-146854D01*
X-48108Y-149000D01*
X-47971Y-149686D01*
X-49142Y-150311D01*
X-67983Y-131470D01*
X-41507Y-104993D01*
X58007D01*
X72500Y-90500D01*
Y-88902D01*
X73770Y-88223D01*
X74147Y-88474D01*
X76000Y-88843D01*
X77853Y-88474D01*
X79425Y-87425D01*
X80474Y-85853D01*
X80843Y-84000D01*
X80474Y-82147D01*
X79598Y-80836D01*
X79496Y-80000D01*
X79598Y-79164D01*
X80474Y-77853D01*
X80843Y-76000D01*
X80474Y-74147D01*
X79425Y-72575D01*
X77853Y-71526D01*
X76000Y-71157D01*
X74147Y-71526D01*
X72836Y-72401D01*
X72000Y-72505D01*
X71164Y-72401D01*
X69853Y-71526D01*
X68196Y-71196D01*
X64804Y-67804D01*
X64474Y-66147D01*
X63425Y-64576D01*
X61853Y-63526D01*
X60000Y-63157D01*
X58147Y-63526D01*
X56575Y-64576D01*
X55624Y-66000D01*
X51000D01*
X42500Y-57500D01*
X43500Y-56500D01*
Y-35500D01*
X55665Y-23335D01*
X56575Y-23425D01*
X58147Y-24474D01*
X60000Y-24843D01*
X61853Y-24474D01*
X63425Y-23425D01*
X64474Y-21853D01*
X64843Y-20000D01*
X64474Y-18147D01*
X63425Y-16575D01*
X63421Y-16535D01*
X64535Y-15421D01*
X64575Y-15425D01*
X66147Y-16474D01*
X68000Y-16843D01*
X69853Y-16474D01*
X71424Y-15425D01*
X72474Y-13853D01*
X72843Y-12000D01*
X72474Y-10147D01*
X71424Y-8576D01*
X71420Y-8535D01*
X72535Y-7421D01*
X72575Y-7425D01*
X74147Y-8474D01*
X76000Y-8843D01*
X77853Y-8474D01*
X79425Y-7425D01*
X80474Y-5853D01*
X80843Y-4000D01*
X80474Y-2147D01*
X79425Y-575D01*
X77853Y474D01*
X76000Y843D01*
X74270Y499D01*
X73927Y560D01*
X73000Y1055D01*
Y10000D01*
X71500Y11500D01*
X5000D01*
X1628Y8127D01*
X575Y7424D01*
X-474Y5853D01*
X-843Y4000D01*
X-474Y2147D01*
X402Y836D01*
X449Y449D01*
X-449Y-449D01*
X-836Y-402D01*
X-2147Y474D01*
X-4000Y843D01*
X-5853Y474D01*
X-7425Y-575D01*
X-8474Y-2147D01*
X-8843Y-4000D01*
X-8474Y-5853D01*
X-7425Y-7425D01*
X-5853Y-8474D01*
X-4000Y-8843D01*
X-2147Y-8474D01*
X-836Y-7599D01*
X-449Y-7551D01*
X449Y-8449D01*
X402Y-8836D01*
X-474Y-10147D01*
X-843Y-12000D01*
X-474Y-13853D01*
X575Y-15425D01*
X2147Y-16474D01*
X2500Y-16545D01*
Y-18500D01*
X-39000D01*
X-60000Y2500D01*
X-87377D01*
X-87975Y3620D01*
X-87819Y3854D01*
X-87392Y6000D01*
X-87819Y8146D01*
X-89035Y9965D01*
X-90854Y11181D01*
X-93000Y11608D01*
X-95146Y11181D01*
X-96965Y9965D01*
X-98181Y8146D01*
X-98608Y6000D01*
X-98181Y3854D01*
X-98024Y3620D01*
X-98623Y2500D01*
X-125458D01*
X-126000Y2608D01*
X-126542Y2500D01*
X-146031D01*
X-146709Y3770D01*
X-146319Y4354D01*
X-145892Y6500D01*
X-146319Y8646D01*
X-147535Y10465D01*
X-149354Y11681D01*
X-151500Y12108D01*
X-153646Y11681D01*
X-155465Y10465D01*
X-156681Y8646D01*
X-157108Y6500D01*
X-156681Y4354D01*
X-156291Y3770D01*
X-156969Y2500D01*
X-207454D01*
X-208260Y3482D01*
X-208157Y4000D01*
X-208526Y5853D01*
X-209576Y7424D01*
X-211147Y8474D01*
X-213000Y8843D01*
X-214853Y8474D01*
X-216425Y7424D01*
X-217474Y5853D01*
X-217843Y4000D01*
X-217740Y3482D01*
X-218546Y2500D01*
X-239454D01*
X-240260Y3482D01*
X-240157Y4000D01*
X-240526Y5853D01*
X-241576Y7424D01*
X-243147Y8474D01*
X-245000Y8843D01*
X-246853Y8474D01*
X-248425Y7424D01*
X-249474Y5853D01*
X-249843Y4000D01*
X-249740Y3482D01*
X-250546Y2500D01*
X-292000D01*
X-293820Y680D01*
X-294853Y474D01*
X-296164Y-402D01*
X-297000Y-505D01*
X-297836Y-402D01*
X-299147Y474D01*
X-301000Y843D01*
X-302853Y474D01*
X-304425Y-575D01*
X-305474Y-2147D01*
X-305843Y-4000D01*
X-305474Y-5853D01*
X-304425Y-7425D01*
X-302853Y-8474D01*
X-301000Y-8843D01*
X-299147Y-8474D01*
X-297836Y-7599D01*
X-297449Y-7551D01*
X-296551Y-8449D01*
X-296598Y-8836D01*
X-297474Y-10147D01*
X-297843Y-12000D01*
X-297474Y-13853D01*
X-297025Y-14525D01*
X-304500Y-22000D01*
X-356000D01*
X-362000Y-28000D01*
X-394000D01*
X-398000Y-32000D01*
Y-73000D01*
X-401000Y-76000D01*
X-402000Y-75000D01*
X-415000D01*
X-424000Y-66000D01*
Y-29500D01*
X-402000Y-7500D01*
X-397608D01*
X-397181Y-9646D01*
X-395965Y-11465D01*
X-394146Y-12681D01*
X-392000Y-13108D01*
X-389854Y-12681D01*
X-388035Y-11465D01*
X-386819Y-9646D01*
X-386715Y-9124D01*
X-385645Y-8681D01*
X-383499Y-9108D01*
X-381353Y-8681D01*
X-379586Y-7500D01*
X-355874D01*
X-355618Y-7737D01*
X-355010Y-8770D01*
X-355358Y-10520D01*
X-354931Y-12666D01*
X-353715Y-14485D01*
X-351896Y-15701D01*
X-349750Y-16128D01*
X-347604Y-15701D01*
X-345785Y-14485D01*
X-344569Y-12666D01*
X-344142Y-10520D01*
X-344426Y-9093D01*
X-342353Y-8681D01*
X-340534Y-7465D01*
X-339318Y-5646D01*
X-338892Y-3500D01*
X-339318Y-1354D01*
X-340534Y465D01*
X-342353Y1681D01*
X-343746Y1958D01*
X-344164Y3336D01*
X-342000Y5500D01*
Y32000D01*
X-325500Y48500D01*
X-103000D01*
X-99753Y51747D01*
X-98375Y51329D01*
X-98181Y50354D01*
X-96965Y48535D01*
X-95146Y47319D01*
X-93000Y46892D01*
X-90854Y47319D01*
X-89035Y48535D01*
X-87819Y50354D01*
X-87392Y52500D01*
X-87819Y54646D01*
X-89035Y56465D01*
X-90854Y57681D01*
X-91829Y57875D01*
X-92247Y59253D01*
X-89500Y62000D01*
Y70500D01*
X-87000Y73000D01*
X-81500D01*
X-57500Y49000D01*
D02*
G37*
G36*
X-336500Y89549D02*
X-350500D01*
X-351475Y89355D01*
X-352302Y88802D01*
X-442664Y-1559D01*
X-443687Y-1356D01*
X-444022Y-1122D01*
X-445151Y349D01*
X-446718Y1551D01*
X-448542Y2307D01*
X-450500Y2565D01*
X-452458Y2307D01*
X-454282Y1551D01*
X-455849Y349D01*
X-457051Y-1218D01*
X-457807Y-3042D01*
X-458065Y-5000D01*
X-457807Y-6958D01*
X-457051Y-8782D01*
X-455849Y-10349D01*
X-454282Y-11551D01*
X-452458Y-12307D01*
X-450500Y-12565D01*
X-450049Y-12960D01*
Y-52951D01*
X-475702D01*
Y98027D01*
X-336500D01*
Y89549D01*
D02*
G37*
G36*
X-257062Y-46302D02*
X-257015Y-46333D01*
X-256566Y-46662D01*
X-256461Y-46748D01*
X-256340Y-46785D01*
X-256235Y-46855D01*
X-255868Y-46928D01*
X-255509Y-47037D01*
X-255383Y-47024D01*
X-255259Y-47049D01*
X-248426D01*
X-248041Y-48319D01*
X-248425Y-48575D01*
X-249474Y-50147D01*
X-249843Y-52000D01*
X-249474Y-53853D01*
X-248425Y-55425D01*
X-246853Y-56474D01*
X-245000Y-56843D01*
X-243147Y-56474D01*
X-241576Y-55425D01*
X-240526Y-53853D01*
X-240157Y-52000D01*
X-240526Y-50147D01*
X-241317Y-48963D01*
X-241074Y-47756D01*
X-240912Y-47491D01*
X-240519Y-47362D01*
X-240425Y-47425D01*
X-238853Y-48474D01*
X-237000Y-48843D01*
X-235147Y-48474D01*
X-233575Y-47425D01*
X-232722Y-46855D01*
X-232355Y-46928D01*
X-231996Y-47037D01*
X-231871Y-47024D01*
X-231747Y-47049D01*
X-231556D01*
X-225802Y-52802D01*
X-224975Y-53355D01*
X-224000Y-53549D01*
X-222608D01*
X-220157Y-56000D01*
X-181665D01*
X-180646Y-56681D01*
X-178500Y-57108D01*
X-176354Y-56681D01*
X-175335Y-56000D01*
X-133954D01*
X-133569Y-57270D01*
X-133965Y-57535D01*
X-135181Y-59354D01*
X-135608Y-61500D01*
X-135181Y-63646D01*
X-133965Y-65465D01*
X-132146Y-66681D01*
X-130000Y-67108D01*
X-127854Y-66681D01*
X-126035Y-65465D01*
X-124819Y-63646D01*
X-124392Y-61500D01*
X-124819Y-59354D01*
X-126035Y-57535D01*
X-126431Y-57270D01*
X-126046Y-56000D01*
X-118944D01*
X-117965Y-57465D01*
X-116146Y-58681D01*
X-114000Y-59108D01*
X-111854Y-58681D01*
X-110035Y-57465D01*
X-109056Y-56000D01*
X-64511D01*
X-42549Y-77962D01*
Y-81000D01*
X-42355Y-81975D01*
X-41802Y-82802D01*
X-40975Y-83355D01*
X-40000Y-83549D01*
X-35340D01*
X-33646Y-84681D01*
X-31500Y-85108D01*
X-29354Y-84681D01*
X-27660Y-83549D01*
X-25000D01*
Y-91451D01*
X-43444D01*
X-46698Y-88198D01*
X-47524Y-87645D01*
X-48500Y-87451D01*
X-55460D01*
X-56265Y-86469D01*
X-56073Y-85500D01*
X-56499Y-83354D01*
X-57715Y-81535D01*
X-59534Y-80319D01*
X-61680Y-79892D01*
X-63826Y-80319D01*
X-65645Y-81535D01*
X-66861Y-83354D01*
X-67288Y-85500D01*
X-67114Y-86373D01*
X-67201Y-86588D01*
X-67686Y-87150D01*
X-68194Y-87453D01*
X-68206Y-87451D01*
X-133091D01*
X-133196Y-87472D01*
X-133319Y-86854D01*
X-134535Y-85035D01*
X-136354Y-83819D01*
X-138500Y-83392D01*
X-140646Y-83819D01*
X-142465Y-85035D01*
X-143681Y-86854D01*
X-143804Y-87472D01*
X-143909Y-87451D01*
X-145189D01*
X-145313Y-87476D01*
X-145439Y-87463D01*
X-145798Y-87572D01*
X-146165Y-87645D01*
X-147110Y-87615D01*
X-147535Y-87535D01*
X-149354Y-86319D01*
X-151500Y-85892D01*
X-153646Y-86319D01*
X-155465Y-87535D01*
X-155889Y-87615D01*
X-156835Y-87645D01*
X-157202Y-87572D01*
X-157560Y-87463D01*
X-157686Y-87476D01*
X-157810Y-87451D01*
X-207260D01*
X-207384Y-87476D01*
X-207510Y-87463D01*
X-207868Y-87572D01*
X-208235Y-87645D01*
X-208340Y-87715D01*
X-208461Y-87752D01*
X-208567Y-87838D01*
X-209017Y-88167D01*
X-209062Y-88198D01*
X-209576Y-88575D01*
X-211147Y-87526D01*
X-213000Y-87157D01*
X-214853Y-87526D01*
X-216425Y-88575D01*
X-216921Y-88210D01*
X-217457Y-87567D01*
X-217049Y-86636D01*
X-216526Y-85853D01*
X-216157Y-84000D01*
X-216526Y-82147D01*
X-217575Y-80576D01*
X-219147Y-79526D01*
X-221000Y-79157D01*
X-222853Y-79526D01*
X-224164Y-80401D01*
X-224551Y-80449D01*
X-225449Y-79551D01*
X-225401Y-79164D01*
X-224526Y-77853D01*
X-224157Y-76000D01*
X-224526Y-74147D01*
X-225576Y-72575D01*
X-227147Y-71526D01*
X-229000Y-71157D01*
X-230853Y-71526D01*
X-232425Y-72575D01*
X-232984Y-73413D01*
X-234417Y-73611D01*
X-234611Y-73417D01*
X-234413Y-71984D01*
X-233575Y-71425D01*
X-232526Y-69853D01*
X-232157Y-68000D01*
X-232526Y-66147D01*
X-233575Y-64576D01*
X-235147Y-63526D01*
X-237000Y-63157D01*
X-238853Y-63526D01*
X-240425Y-64576D01*
X-241265Y-65834D01*
X-242684Y-66212D01*
X-256470Y-52425D01*
X-256526Y-52147D01*
X-257575Y-50575D01*
X-259147Y-49526D01*
X-261000Y-49157D01*
X-262853Y-49526D01*
X-264425Y-50575D01*
X-265474Y-52147D01*
X-265530Y-52425D01*
X-275423Y-62318D01*
X-275493Y-62423D01*
X-275591Y-62503D01*
X-275767Y-62833D01*
X-275975Y-63145D01*
X-277000Y-63157D01*
X-278853Y-63526D01*
X-280164Y-64401D01*
X-281000Y-64504D01*
X-281836Y-64401D01*
X-283147Y-63526D01*
X-285000Y-63157D01*
X-286853Y-63526D01*
X-288425Y-64576D01*
X-289474Y-66147D01*
X-289843Y-68000D01*
X-289474Y-69853D01*
X-288425Y-71425D01*
X-288058Y-71670D01*
X-287933Y-72934D01*
X-294444Y-79444D01*
X-294853Y-79526D01*
X-296425Y-80576D01*
X-297474Y-82147D01*
X-297556Y-82556D01*
X-298500Y-83500D01*
Y-104395D01*
X-331556Y-137451D01*
X-424000D01*
X-424976Y-137645D01*
X-425802Y-138198D01*
X-428285Y-140681D01*
X-432977D01*
X-433000Y-140563D01*
Y-140312D01*
X-433096Y-140080D01*
X-433145Y-139833D01*
X-433284Y-139625D01*
X-433381Y-139393D01*
X-433558Y-139215D01*
X-433698Y-139007D01*
X-433906Y-138867D01*
X-434084Y-138689D01*
X-434316Y-138593D01*
X-434525Y-138454D01*
X-434771Y-138405D01*
X-435003Y-138309D01*
X-435151Y-138279D01*
X-436127Y-137627D01*
X-436145Y-137600D01*
Y-133400D01*
X-436127Y-133372D01*
X-435151Y-132720D01*
X-433999Y-132491D01*
X-432848Y-132720D01*
X-432250Y-133119D01*
X-432018Y-133215D01*
X-431809Y-133355D01*
X-431563Y-133404D01*
X-431331Y-133500D01*
X-431080D01*
X-430834Y-133549D01*
X-430500D01*
X-429524Y-133355D01*
X-428698Y-132802D01*
X-426214Y-130319D01*
X-415452D01*
X-413999Y-130608D01*
X-412547Y-130319D01*
X-404819D01*
X-401049Y-126549D01*
X-398500D01*
X-397525Y-126355D01*
X-396655Y-126543D01*
X-396025Y-126880D01*
X-394965Y-128465D01*
X-393146Y-129681D01*
X-391000Y-130108D01*
X-388854Y-129681D01*
X-387035Y-128465D01*
X-385819Y-126646D01*
X-385392Y-124500D01*
X-385819Y-122354D01*
X-387035Y-120535D01*
X-388593Y-119494D01*
X-388643Y-119319D01*
X-387870Y-118049D01*
X-331000D01*
X-330024Y-117855D01*
X-329198Y-117302D01*
X-326698Y-114802D01*
X-326145Y-113975D01*
X-325951Y-113000D01*
Y-110451D01*
X-325000Y-109500D01*
X-325000Y-108708D01*
X-324575Y-108424D01*
X-323525Y-106853D01*
X-323156Y-105000D01*
X-323525Y-103146D01*
X-324575Y-101575D01*
X-325000Y-101291D01*
X-325000Y-94417D01*
X-324819Y-94146D01*
X-324392Y-92000D01*
X-324819Y-89854D01*
X-325000Y-89583D01*
X-325001Y-67606D01*
X-312784Y-55389D01*
X-312425Y-55425D01*
X-310853Y-56474D01*
X-309000Y-56843D01*
X-307147Y-56474D01*
X-305576Y-55425D01*
X-304526Y-53853D01*
X-304157Y-52000D01*
X-304526Y-50147D01*
X-305575Y-48576D01*
X-305611Y-48216D01*
X-304444Y-47049D01*
X-290253D01*
X-290129Y-47024D01*
X-290004Y-47037D01*
X-289645Y-46928D01*
X-289278Y-46855D01*
X-288425Y-47425D01*
X-286853Y-48474D01*
X-285000Y-48843D01*
X-283147Y-48474D01*
X-281576Y-47425D01*
X-281481Y-47362D01*
X-281088Y-47491D01*
X-280926Y-47756D01*
X-280683Y-48963D01*
X-281474Y-50147D01*
X-281843Y-52000D01*
X-281474Y-53853D01*
X-280425Y-55425D01*
X-278853Y-56474D01*
X-277000Y-56843D01*
X-275147Y-56474D01*
X-273575Y-55425D01*
X-272526Y-53853D01*
X-272157Y-52000D01*
X-272526Y-50147D01*
X-273575Y-48575D01*
X-273959Y-48319D01*
X-273574Y-47049D01*
X-266740D01*
X-266616Y-47024D01*
X-266490Y-47037D01*
X-266131Y-46928D01*
X-265764Y-46855D01*
X-265659Y-46785D01*
X-265538Y-46748D01*
X-265433Y-46662D01*
X-264984Y-46333D01*
X-264937Y-46302D01*
X-264424Y-45925D01*
X-262853Y-46974D01*
X-261000Y-47343D01*
X-259146Y-46974D01*
X-257575Y-45925D01*
X-257062Y-46302D01*
D02*
G37*
G36*
X444500Y-361000D02*
X413500Y-392000D01*
X-475702D01*
Y-217172D01*
X-474432Y-216741D01*
X-474349Y-216849D01*
X-472782Y-218051D01*
X-470958Y-218807D01*
X-469000Y-219065D01*
X-467042Y-218807D01*
X-465218Y-218051D01*
X-463651Y-216849D01*
X-462449Y-215282D01*
X-461693Y-213458D01*
X-461435Y-211500D01*
X-461693Y-209542D01*
X-462449Y-207718D01*
X-463651Y-206151D01*
X-465218Y-204949D01*
X-467042Y-204193D01*
X-469000Y-203935D01*
X-470958Y-204193D01*
X-472782Y-204949D01*
X-474349Y-206151D01*
X-474432Y-206259D01*
X-475702Y-205828D01*
Y-55500D01*
X-448500D01*
Y-70030D01*
X-449770Y-70709D01*
X-450353Y-70319D01*
X-452499Y-69892D01*
X-454645Y-70319D01*
X-456464Y-71535D01*
X-457680Y-73354D01*
X-458107Y-75500D01*
X-457680Y-77646D01*
X-456464Y-79465D01*
X-454645Y-80681D01*
X-452499Y-81108D01*
X-450353Y-80681D01*
X-449770Y-80291D01*
X-448500Y-80970D01*
Y-150715D01*
X-449770Y-151146D01*
X-450150Y-150651D01*
X-451717Y-149448D01*
X-453541Y-148693D01*
X-455499Y-148435D01*
X-457457Y-148693D01*
X-459281Y-149448D01*
X-460848Y-150651D01*
X-462050Y-152217D01*
X-462806Y-154042D01*
X-463064Y-156000D01*
X-462806Y-157958D01*
X-462050Y-159782D01*
X-460848Y-161349D01*
X-459281Y-162551D01*
X-457457Y-163307D01*
X-455499Y-163564D01*
X-453541Y-163307D01*
X-451717Y-162551D01*
X-450150Y-161349D01*
X-449770Y-160854D01*
X-448500Y-161285D01*
Y-287556D01*
X-449964Y-288534D01*
X-451180Y-290353D01*
X-451607Y-292499D01*
X-451180Y-294645D01*
X-449964Y-296465D01*
X-448500Y-297443D01*
Y-299336D01*
X-449180Y-300353D01*
X-449607Y-302499D01*
X-449180Y-304645D01*
X-447964Y-306465D01*
X-446145Y-307680D01*
X-445115Y-307885D01*
X-438500Y-314500D01*
X-419474D01*
X-419116Y-314739D01*
X-417361Y-315088D01*
X-403912D01*
X-401376Y-317624D01*
X-401465Y-318535D01*
X-402681Y-320354D01*
X-403108Y-322500D01*
X-402681Y-324646D01*
X-401465Y-326465D01*
X-399646Y-327681D01*
X-397500Y-328108D01*
X-395354Y-327681D01*
X-393535Y-326465D01*
X-392624Y-326376D01*
X-382500Y-336500D01*
X-330725D01*
X-330315Y-337000D01*
X-329888Y-339146D01*
X-328672Y-340965D01*
X-326853Y-342181D01*
X-324707Y-342608D01*
X-322561Y-342181D01*
X-320742Y-340965D01*
X-319526Y-339146D01*
X-319100Y-337001D01*
X-319098Y-337000D01*
X-317616D01*
X-317615Y-337001D01*
X-317188Y-339146D01*
X-315972Y-340965D01*
X-314153Y-342181D01*
X-312007Y-342608D01*
X-309861Y-342181D01*
X-308042Y-340965D01*
X-306826Y-339146D01*
X-306399Y-337000D01*
X-305989Y-336500D01*
X-126606D01*
X-126181Y-338639D01*
X-124965Y-340458D01*
X-123146Y-341674D01*
X-121000Y-342101D01*
X-118854Y-341674D01*
X-117035Y-340458D01*
X-115819Y-338639D01*
X-115394Y-336500D01*
X-88515D01*
X-88088Y-338646D01*
X-86872Y-340465D01*
X-85053Y-341681D01*
X-82907Y-342108D01*
X-80761Y-341681D01*
X-78942Y-340465D01*
X-77726Y-338646D01*
X-77299Y-336500D01*
X-89D01*
X319Y-338553D01*
X1535Y-340372D01*
X3354Y-341588D01*
X5500Y-342015D01*
X7646Y-341588D01*
X9465Y-340372D01*
X10681Y-338553D01*
X11089Y-336500D01*
X13000D01*
X23000Y-346500D01*
X37772D01*
X38529Y-347770D01*
X38185Y-349500D01*
X38612Y-351646D01*
X39828Y-353465D01*
X41647Y-354681D01*
X43793Y-355108D01*
X45939Y-354681D01*
X47758Y-353465D01*
X48974Y-351646D01*
X49401Y-349500D01*
X49057Y-347770D01*
X49814Y-346500D01*
X151590D01*
X152396Y-347482D01*
X152392Y-347500D01*
X152819Y-349646D01*
X154035Y-351465D01*
X155854Y-352681D01*
X158000Y-353108D01*
X160146Y-352681D01*
X161965Y-351465D01*
X163181Y-349646D01*
X163608Y-347500D01*
X163604Y-347482D01*
X164410Y-346500D01*
X190172D01*
X190929Y-347770D01*
X190585Y-349500D01*
X191012Y-351646D01*
X192228Y-353465D01*
X194047Y-354681D01*
X196193Y-355108D01*
X198339Y-354681D01*
X200158Y-353465D01*
X201374Y-351646D01*
X201699Y-350011D01*
X202994D01*
X203319Y-351646D01*
X204535Y-353465D01*
X206354Y-354681D01*
X208500Y-355108D01*
X210646Y-354681D01*
X212465Y-353465D01*
X213681Y-351646D01*
X214108Y-349500D01*
X213764Y-347770D01*
X214521Y-346500D01*
X216376D01*
X216975Y-347620D01*
X216819Y-347853D01*
X216392Y-349999D01*
X216819Y-352145D01*
X218034Y-353965D01*
X219854Y-355180D01*
X222000Y-355607D01*
X224146Y-355180D01*
X225965Y-353965D01*
X227060Y-352326D01*
X227750Y-352227D01*
X228439Y-352326D01*
X229535Y-353965D01*
X231354Y-355181D01*
X233500Y-355608D01*
X235646Y-355181D01*
X237465Y-353965D01*
X238681Y-352146D01*
X239108Y-350000D01*
X238681Y-347854D01*
X238524Y-347620D01*
X239123Y-346500D01*
X241479D01*
X242236Y-347770D01*
X241892Y-349500D01*
X242319Y-351646D01*
X243535Y-353465D01*
X245354Y-354681D01*
X247500Y-355108D01*
X249646Y-354681D01*
X251465Y-353465D01*
X252681Y-351646D01*
X253108Y-349500D01*
X252764Y-347770D01*
X253521Y-346500D01*
X274500D01*
X307500Y-313500D01*
X361000D01*
X367000Y-307500D01*
Y-278000D01*
X350542Y-261542D01*
X350911Y-260327D01*
X351646Y-260181D01*
X353465Y-258965D01*
X354681Y-257146D01*
X355108Y-255000D01*
X354681Y-252854D01*
X353465Y-251035D01*
X351646Y-249819D01*
X349500Y-249392D01*
X347354Y-249819D01*
X345535Y-251035D01*
X344319Y-252854D01*
X344173Y-253589D01*
X342958Y-253958D01*
X337006Y-248006D01*
X337632Y-246835D01*
X339000Y-247108D01*
X341146Y-246681D01*
X342965Y-245465D01*
X344181Y-243646D01*
X344608Y-241500D01*
X344181Y-239354D01*
X342965Y-237535D01*
Y-236965D01*
X344181Y-235146D01*
X344608Y-233000D01*
X344181Y-230854D01*
X342965Y-229035D01*
X341146Y-227819D01*
X339000Y-227392D01*
X336854Y-227819D01*
X335351Y-228823D01*
X334500Y-228953D01*
X333649Y-228823D01*
X332146Y-227819D01*
X331500Y-227691D01*
Y-175500D01*
X341500Y-165500D01*
X363500D01*
X371000Y-158000D01*
Y-156883D01*
X371239Y-156526D01*
X371588Y-154770D01*
Y8914D01*
X372858Y9299D01*
X373035Y9035D01*
X374854Y7819D01*
X377000Y7392D01*
X379146Y7819D01*
X380965Y9035D01*
X382181Y10854D01*
X382590Y12910D01*
X384646Y13319D01*
X386465Y14535D01*
X387681Y16354D01*
X387950Y17707D01*
X388500Y18892D01*
X390646Y19319D01*
X392413Y20500D01*
X444500D01*
Y-361000D01*
D02*
G37*
G36*
X327834Y85808D02*
X326948Y85052D01*
X323626Y81162D01*
X320953Y76800D01*
X318995Y72074D01*
X317801Y67100D01*
X317399Y62000D01*
X317801Y56900D01*
X318995Y51926D01*
X320953Y47200D01*
X323626Y42838D01*
X326948Y38948D01*
X330838Y35626D01*
X335200Y32953D01*
X339926Y30995D01*
X341500Y30617D01*
Y-80289D01*
X340518Y-81095D01*
X339499Y-80892D01*
X337353Y-81319D01*
X335717Y-82412D01*
X335465Y-82035D01*
X333646Y-80819D01*
X331500Y-80392D01*
X329354Y-80819D01*
X327535Y-82035D01*
X326319Y-83854D01*
X325948Y-85717D01*
X324805Y-85841D01*
X324661Y-85824D01*
X323465Y-84035D01*
X321646Y-82819D01*
X319500Y-82392D01*
X317354Y-82819D01*
X315535Y-84035D01*
X314319Y-85854D01*
X313892Y-88000D01*
X314319Y-90146D01*
X315535Y-91965D01*
X317354Y-93181D01*
X319500Y-93608D01*
X321646Y-93181D01*
X323465Y-91965D01*
X324681Y-90146D01*
X325051Y-88283D01*
X326195Y-88159D01*
X326339Y-88176D01*
X327535Y-89965D01*
X329354Y-91181D01*
X331500Y-91608D01*
X333646Y-91181D01*
X335282Y-90088D01*
X335534Y-90465D01*
X337353Y-91681D01*
X339499Y-92108D01*
X341147Y-91780D01*
X341319Y-92646D01*
X341500Y-92917D01*
Y-98083D01*
X341319Y-98354D01*
X340892Y-100500D01*
X341319Y-102646D01*
X341500Y-102917D01*
Y-108083D01*
X341319Y-108354D01*
X340892Y-110500D01*
X341319Y-112646D01*
X341500Y-112917D01*
Y-119458D01*
X341392Y-120000D01*
X341500Y-120542D01*
Y-124835D01*
X340819Y-125854D01*
X340392Y-128000D01*
X340819Y-130146D01*
X341500Y-131165D01*
Y-132835D01*
X340819Y-133854D01*
X340392Y-136000D01*
X340819Y-138146D01*
X341500Y-139165D01*
Y-141583D01*
X341319Y-141854D01*
X340892Y-144000D01*
X341319Y-146146D01*
X341500Y-146417D01*
Y-151500D01*
X337362Y-155638D01*
X336744Y-155761D01*
X335256Y-156756D01*
X325011Y-167000D01*
X296500D01*
X290841Y-172659D01*
X289499Y-172392D01*
X287353Y-172819D01*
X285534Y-174034D01*
X284319Y-175854D01*
X283892Y-178000D01*
X284159Y-179341D01*
X277758Y-185742D01*
X275999Y-185392D01*
X273853Y-185819D01*
X272034Y-187034D01*
X270819Y-188854D01*
X270392Y-191000D01*
X270742Y-192758D01*
X270000Y-193500D01*
Y-241890D01*
X269035Y-242535D01*
X267819Y-244354D01*
X267392Y-246500D01*
X267819Y-248646D01*
X269035Y-250465D01*
X270000Y-251110D01*
Y-252000D01*
X279500Y-261500D01*
X290583D01*
X290854Y-261681D01*
X293000Y-262108D01*
X295146Y-261681D01*
X295417Y-261500D01*
X346500D01*
X362000Y-277000D01*
Y-308500D01*
X359549Y-310951D01*
X312951D01*
X303500Y-301500D01*
X298845D01*
X298500Y-301431D01*
X296863D01*
X296465Y-300401D01*
X296450Y-300161D01*
X297097Y-299514D01*
X297097Y-299514D01*
X298053Y-298084D01*
X298130Y-297983D01*
X298147Y-297944D01*
X298501Y-297414D01*
X298881Y-296495D01*
X299006Y-295870D01*
X299022Y-295830D01*
X299039Y-295705D01*
X299374Y-294017D01*
Y-293023D01*
X299039Y-291335D01*
X299022Y-291210D01*
X299006Y-291171D01*
X298881Y-290545D01*
X298501Y-289626D01*
X298147Y-289096D01*
X298130Y-289057D01*
X298053Y-288956D01*
X297097Y-287526D01*
X296394Y-286822D01*
X296394Y-286822D01*
X294964Y-285867D01*
X294863Y-285790D01*
X294824Y-285773D01*
X294294Y-285419D01*
X293375Y-285038D01*
X292750Y-284914D01*
X292710Y-284898D01*
X292585Y-284881D01*
X290897Y-284546D01*
X290646D01*
X290400Y-284497D01*
X290154Y-284546D01*
X289903D01*
X288215Y-284881D01*
X288090Y-284898D01*
X288050Y-284914D01*
X287425Y-285038D01*
X286506Y-285419D01*
X285976Y-285773D01*
X285937Y-285790D01*
X285836Y-285867D01*
X284406Y-286822D01*
X283703Y-287526D01*
X283703Y-287526D01*
X282747Y-288956D01*
X282670Y-289057D01*
X282653Y-289096D01*
X282299Y-289626D01*
X281918Y-290545D01*
X281794Y-291171D01*
X281778Y-291210D01*
X281761Y-291335D01*
X281425Y-293023D01*
Y-294017D01*
X281761Y-295705D01*
X281778Y-295830D01*
X281794Y-295870D01*
X281918Y-296495D01*
X282299Y-297414D01*
X282653Y-297944D01*
X282670Y-297983D01*
X282747Y-298084D01*
X283703Y-299514D01*
X284350Y-300161D01*
X284335Y-300401D01*
X283937Y-301431D01*
X278931D01*
X269785Y-292285D01*
X269798Y-292255D01*
X270534Y-291238D01*
X272393Y-291608D01*
X274539Y-291181D01*
X276358Y-289965D01*
X277574Y-288146D01*
X278001Y-286000D01*
X277574Y-283854D01*
X276358Y-282035D01*
X274539Y-280819D01*
X272393Y-280392D01*
X270247Y-280819D01*
X268428Y-282035D01*
X267212Y-283854D01*
X266785Y-286000D01*
X267155Y-287859D01*
X266137Y-288595D01*
X266108Y-288608D01*
X256256Y-278756D01*
X256444Y-277148D01*
X257465Y-276465D01*
X258681Y-274646D01*
X259108Y-272500D01*
X258681Y-270354D01*
X257465Y-268535D01*
X255646Y-267319D01*
X253500Y-266892D01*
X252270Y-267137D01*
X251000Y-266145D01*
Y-257417D01*
X251181Y-257146D01*
X251608Y-255000D01*
X251181Y-252854D01*
X251000Y-252583D01*
Y-174605D01*
X291802Y-133802D01*
X292355Y-132976D01*
X292437Y-132563D01*
X292500Y-132500D01*
Y-132246D01*
X292549Y-132000D01*
Y-46451D01*
X328990Y-10010D01*
X330646Y-9681D01*
X332465Y-8465D01*
X333681Y-6646D01*
X334108Y-4500D01*
X334000Y-3958D01*
Y21500D01*
X305000Y50500D01*
X248000D01*
X246696Y51803D01*
X246963Y53333D01*
X248185Y54150D01*
X248585Y54748D01*
X249855D01*
X250255Y54150D01*
X252074Y52934D01*
X254220Y52507D01*
X256366Y52934D01*
X258185Y54150D01*
X258584Y54746D01*
X259854D01*
X260253Y54149D01*
X262073Y52933D01*
X264219Y52506D01*
X266364Y52933D01*
X268184Y54149D01*
X269399Y55968D01*
X269826Y58114D01*
X269728Y58608D01*
X271366Y58934D01*
X273185Y60150D01*
X274401Y61969D01*
X274828Y64115D01*
X274401Y66261D01*
X273185Y68080D01*
X271366Y69296D01*
X269220Y69723D01*
X267074Y69296D01*
X265255Y68080D01*
X264839Y67458D01*
X263569D01*
X263090Y68175D01*
X261271Y69391D01*
X259125Y69818D01*
X256979Y69391D01*
X255160Y68175D01*
X254776Y67601D01*
X253506D01*
X253185Y68080D01*
X251366Y69296D01*
X249220Y69723D01*
X247074Y69296D01*
X245255Y68080D01*
X244767Y67351D01*
X243497D01*
X243280Y67675D01*
X241461Y68891D01*
X239315Y69318D01*
X237169Y68891D01*
X235350Y67675D01*
X234748Y66775D01*
X233221D01*
X232684Y67579D01*
X230865Y68795D01*
X228719Y69222D01*
X226573Y68795D01*
X224753Y67579D01*
X224417Y67076D01*
X223153Y66952D01*
X217802Y72302D01*
X216975Y72855D01*
X216000Y73049D01*
X146000D01*
X145025Y72855D01*
X144198Y72302D01*
X136895Y65000D01*
X-69895D01*
X-79698Y74802D01*
X-80525Y75355D01*
X-81500Y75549D01*
X-87000D01*
X-87976Y75355D01*
X-88802Y74802D01*
X-91302Y72302D01*
X-91855Y71476D01*
X-92049Y70500D01*
Y65000D01*
X-105691D01*
X-105819Y65646D01*
X-107035Y67465D01*
X-108854Y68681D01*
X-111000Y69108D01*
X-113146Y68681D01*
X-114965Y67465D01*
X-115198Y67117D01*
X-116468D01*
X-117035Y67965D01*
X-118854Y69181D01*
X-121000Y69608D01*
X-123146Y69181D01*
X-124965Y67965D01*
X-126181Y66146D01*
X-126409Y65000D01*
X-322500D01*
X-351000Y36500D01*
Y0D01*
X-355951Y-4951D01*
X-377179D01*
X-377985Y-3969D01*
X-377892Y-3500D01*
X-378318Y-1354D01*
X-379534Y465D01*
X-381353Y1681D01*
X-383499Y2108D01*
X-385645Y1681D01*
X-387464Y465D01*
X-388680Y-1354D01*
X-388784Y-1876D01*
X-389854Y-2319D01*
X-392000Y-1892D01*
X-392513Y-1994D01*
X-393239Y-1268D01*
X-393416Y-879D01*
X-393819Y1146D01*
X-395035Y2965D01*
X-396335Y3834D01*
X-395319Y5354D01*
X-394892Y7500D01*
X-395319Y9646D01*
X-396535Y11465D01*
X-398354Y12681D01*
X-400500Y13108D01*
X-402646Y12681D01*
X-404465Y11465D01*
X-405681Y9646D01*
X-406108Y7500D01*
X-405681Y5354D01*
X-404465Y3535D01*
X-403165Y2666D01*
X-404181Y1146D01*
X-404608Y-1000D01*
X-404181Y-3146D01*
X-403537Y-4109D01*
X-403493Y-4192D01*
X-403802Y-5698D01*
X-404105Y-6000D01*
X-405000D01*
X-425926Y-26926D01*
X-427190Y-26801D01*
X-427535Y-26285D01*
X-428710Y-25499D01*
Y-24001D01*
X-427535Y-23215D01*
X-426319Y-21396D01*
X-425892Y-19250D01*
X-426319Y-17104D01*
X-427535Y-15285D01*
X-429354Y-14069D01*
X-431500Y-13642D01*
X-433646Y-14069D01*
X-435465Y-15285D01*
X-436681Y-17104D01*
X-437108Y-19250D01*
X-436681Y-21396D01*
X-435465Y-23215D01*
X-434290Y-24001D01*
Y-25499D01*
X-435465Y-26285D01*
X-436681Y-28104D01*
X-437108Y-30250D01*
X-436681Y-32396D01*
X-435465Y-34215D01*
X-433646Y-35431D01*
X-431500Y-35858D01*
X-429354Y-35431D01*
X-428270Y-34707D01*
X-427000Y-35385D01*
Y-65500D01*
X-426549Y-65951D01*
Y-66000D01*
X-426355Y-66975D01*
X-425802Y-67802D01*
X-416802Y-76802D01*
X-415975Y-77355D01*
X-415000Y-77549D01*
X-414951D01*
X-409000Y-83500D01*
Y-109500D01*
X-430500Y-131000D01*
X-430834D01*
X-431853Y-130319D01*
X-433999Y-129892D01*
X-436145Y-130319D01*
X-437964Y-131535D01*
X-439180Y-133354D01*
X-439607Y-135500D01*
X-439180Y-137646D01*
X-437964Y-139465D01*
X-436145Y-140681D01*
X-435500Y-140809D01*
Y-171691D01*
X-436146Y-171819D01*
X-437965Y-173035D01*
X-439181Y-174854D01*
X-439608Y-177000D01*
X-439181Y-179146D01*
X-437965Y-180965D01*
X-436790Y-181751D01*
Y-183249D01*
X-437965Y-184035D01*
X-439181Y-185854D01*
X-439608Y-188000D01*
X-439181Y-190146D01*
X-437965Y-191965D01*
X-436146Y-193181D01*
X-435500Y-193309D01*
Y-213184D01*
X-437235Y-214343D01*
X-438451Y-216163D01*
X-438878Y-218309D01*
X-438451Y-220455D01*
X-437235Y-222274D01*
X-435500Y-223433D01*
Y-224000D01*
X-432500D01*
X-432205Y-223704D01*
X-431124Y-223490D01*
X-429305Y-222274D01*
X-428089Y-220455D01*
X-427874Y-219374D01*
X-414500Y-206000D01*
Y-166500D01*
X-403000Y-155000D01*
X-392000D01*
X-388000Y-159000D01*
Y-199000D01*
X-427500Y-238500D01*
X-445951D01*
Y-161285D01*
X-445967Y-161202D01*
X-445956Y-161118D01*
X-446064Y-160717D01*
X-446145Y-160309D01*
X-446192Y-160239D01*
X-446214Y-160157D01*
X-446467Y-159828D01*
X-446698Y-159482D01*
X-446768Y-159435D01*
X-446819Y-159368D01*
X-447179Y-159160D01*
X-447500Y-158946D01*
Y-153053D01*
X-447179Y-152839D01*
X-446819Y-152631D01*
X-446768Y-152564D01*
X-446698Y-152517D01*
X-446467Y-152172D01*
X-446214Y-151842D01*
X-446192Y-151761D01*
X-446145Y-151690D01*
X-446064Y-151283D01*
X-445956Y-150882D01*
X-445967Y-150798D01*
X-445951Y-150715D01*
Y-80970D01*
X-446024Y-80603D01*
X-446061Y-80230D01*
X-446120Y-80119D01*
X-446145Y-79995D01*
X-446353Y-79683D01*
X-446530Y-79353D01*
X-446627Y-79273D01*
X-446698Y-79168D01*
X-447009Y-78960D01*
X-447298Y-78722D01*
X-447318Y-77646D01*
X-446891Y-75500D01*
X-447318Y-73354D01*
X-447298Y-72278D01*
X-447009Y-72040D01*
X-446698Y-71832D01*
X-446627Y-71727D01*
X-446530Y-71647D01*
X-446353Y-71316D01*
X-446145Y-71005D01*
X-446120Y-70881D01*
X-446061Y-70770D01*
X-446024Y-70397D01*
X-445951Y-70030D01*
Y-55500D01*
X-446145Y-54525D01*
X-446698Y-53698D01*
X-447500Y-53162D01*
Y-11875D01*
X-446718Y-11551D01*
X-445151Y-10349D01*
X-443949Y-8782D01*
X-443193Y-6958D01*
X-443001Y-5501D01*
X-350500Y87000D01*
X143091D01*
X143319Y85854D01*
X144535Y84035D01*
X146354Y82819D01*
X148500Y82392D01*
X150646Y82819D01*
X152465Y84035D01*
X153681Y85854D01*
X153909Y87000D01*
X327394D01*
X327834Y85808D01*
D02*
G37*
G36*
X70451Y8944D02*
Y1055D01*
X70524Y688D01*
X70561Y315D01*
X70620Y204D01*
X70645Y80D01*
X70853Y-231D01*
X71030Y-562D01*
X71127Y-642D01*
X71198Y-747D01*
X71509Y-955D01*
X71798Y-1193D01*
X71898Y-1590D01*
X71526Y-2147D01*
X71157Y-4000D01*
X71391Y-5178D01*
X71268Y-5260D01*
X71159Y-5305D01*
X71126Y-5339D01*
X70918Y-5450D01*
X70838Y-5548D01*
X70732Y-5618D01*
X69618Y-6732D01*
X69548Y-6838D01*
X69450Y-6918D01*
X69339Y-7126D01*
X69305Y-7159D01*
X69260Y-7268D01*
X69178Y-7391D01*
X68000Y-7157D01*
X66147Y-7526D01*
X64575Y-8575D01*
X63526Y-10147D01*
X63157Y-12000D01*
X63391Y-13178D01*
X63268Y-13260D01*
X63159Y-13305D01*
X63126Y-13339D01*
X62918Y-13450D01*
X62838Y-13548D01*
X62732Y-13618D01*
X61618Y-14732D01*
X61548Y-14838D01*
X61450Y-14918D01*
X61339Y-15126D01*
X61305Y-15159D01*
X61260Y-15268D01*
X61178Y-15391D01*
X60000Y-15157D01*
X58147Y-15526D01*
X56575Y-16575D01*
X55526Y-18147D01*
X55157Y-20000D01*
X54690Y-20980D01*
X54378Y-21188D01*
X54048Y-21365D01*
X53968Y-21462D01*
X53863Y-21532D01*
X41698Y-33698D01*
X41145Y-34525D01*
X40951Y-35500D01*
Y-38049D01*
X39000Y-40000D01*
X38563D01*
X37853Y-39526D01*
X36000Y-39157D01*
X34147Y-39526D01*
X33437Y-40000D01*
X24181D01*
X23889Y-38730D01*
X24474Y-37853D01*
X24843Y-36000D01*
X24474Y-34147D01*
X23424Y-32575D01*
X21853Y-31526D01*
X20000Y-31157D01*
X18147Y-31526D01*
X16575Y-32575D01*
X15526Y-34147D01*
X15157Y-36000D01*
X15526Y-37853D01*
X16111Y-38730D01*
X15819Y-40000D01*
X6563D01*
X5853Y-39526D01*
X4000Y-39157D01*
X2147Y-39526D01*
X1437Y-40000D01*
X-16500D01*
X-22500Y-46000D01*
Y-81000D01*
X-40000D01*
Y-70500D01*
X-59500Y-51000D01*
X-108595D01*
X-108980Y-49730D01*
X-108535Y-49432D01*
X-107319Y-47613D01*
X-106892Y-45467D01*
X-107319Y-43321D01*
X-107381Y-43229D01*
X-106649Y-42038D01*
X-104854Y-41681D01*
X-103034Y-40465D01*
X-101819Y-38646D01*
X-101392Y-36500D01*
X-101819Y-34354D01*
X-103034Y-32535D01*
X-104854Y-31319D01*
X-107000Y-30893D01*
X-109146Y-31319D01*
X-110965Y-32535D01*
X-112181Y-34354D01*
X-112607Y-36500D01*
X-112181Y-38646D01*
X-112119Y-38739D01*
X-112851Y-39929D01*
X-114646Y-40286D01*
X-116465Y-41502D01*
X-117681Y-43321D01*
X-118108Y-45467D01*
X-117681Y-47613D01*
X-116881Y-48810D01*
X-117965Y-49535D01*
X-118944Y-51000D01*
X-164690D01*
X-165495Y-50018D01*
X-165392Y-49500D01*
X-165819Y-47354D01*
X-166295Y-46642D01*
X-164535Y-45465D01*
X-164301Y-45115D01*
X-163031D01*
X-162728Y-45568D01*
X-160909Y-46783D01*
X-158763Y-47210D01*
X-156617Y-46783D01*
X-154797Y-45568D01*
X-153582Y-43749D01*
X-153155Y-41603D01*
X-153582Y-39457D01*
X-154797Y-37637D01*
X-155341Y-37274D01*
Y-36004D01*
X-154535Y-35465D01*
X-154288Y-35096D01*
X-152820Y-35185D01*
X-151965Y-36465D01*
X-150146Y-37681D01*
X-148000Y-38108D01*
X-145854Y-37681D01*
X-144035Y-36465D01*
X-142819Y-34646D01*
X-142392Y-32500D01*
X-142819Y-30354D01*
X-144035Y-28535D01*
X-145854Y-27319D01*
X-148000Y-26892D01*
X-150146Y-27319D01*
X-151965Y-28535D01*
X-152212Y-28904D01*
X-153680Y-28814D01*
X-154535Y-27535D01*
X-156354Y-26319D01*
X-158500Y-25892D01*
X-160646Y-26319D01*
X-162465Y-27535D01*
X-163681Y-29354D01*
X-164108Y-31500D01*
X-163681Y-33646D01*
X-162465Y-35465D01*
X-161922Y-35829D01*
Y-37099D01*
X-162728Y-37637D01*
X-162962Y-37988D01*
X-164232D01*
X-164535Y-37535D01*
X-166354Y-36319D01*
X-168500Y-35892D01*
X-170646Y-36319D01*
X-172465Y-37535D01*
X-173681Y-39354D01*
X-174108Y-41500D01*
X-173681Y-43646D01*
X-173205Y-44359D01*
X-174965Y-45535D01*
X-175756Y-46718D01*
X-176354Y-46319D01*
X-178500Y-45892D01*
X-178993Y-45990D01*
X-179319Y-44354D01*
X-180534Y-42535D01*
X-182354Y-41319D01*
X-184500Y-40892D01*
X-186646Y-41319D01*
X-188465Y-42535D01*
X-189681Y-44354D01*
X-190107Y-46500D01*
X-189681Y-48646D01*
X-188956Y-49730D01*
X-189635Y-51000D01*
X-224000D01*
X-230500Y-44500D01*
X-231747D01*
X-232157Y-44000D01*
X-232526Y-42147D01*
X-233575Y-40575D01*
X-235147Y-39526D01*
X-237000Y-39157D01*
X-238853Y-39526D01*
X-240425Y-40575D01*
X-241474Y-42147D01*
X-241843Y-44000D01*
X-242253Y-44500D01*
X-255259D01*
X-256302Y-43230D01*
X-256156Y-42500D01*
X-256470Y-40921D01*
X-255778Y-40257D01*
X-255441Y-40082D01*
X-254853Y-40474D01*
X-253000Y-40843D01*
X-251147Y-40474D01*
X-249576Y-39425D01*
X-248424D01*
X-246853Y-40474D01*
X-245000Y-40843D01*
X-243147Y-40474D01*
X-241576Y-39425D01*
X-240526Y-37853D01*
X-240157Y-36000D01*
X-240526Y-34147D01*
X-241576Y-32575D01*
X-243147Y-31526D01*
X-245000Y-31157D01*
X-246853Y-31526D01*
X-248164Y-32401D01*
X-249000Y-32504D01*
X-249836Y-32401D01*
X-251147Y-31526D01*
X-253000Y-31157D01*
X-254853Y-31526D01*
X-256425Y-32575D01*
X-257474Y-34147D01*
X-257843Y-36000D01*
X-257529Y-37579D01*
X-258221Y-38242D01*
X-258558Y-38418D01*
X-259146Y-38026D01*
X-261000Y-37657D01*
X-262853Y-38026D01*
X-263442Y-38419D01*
X-263782Y-38242D01*
X-264471Y-37579D01*
X-264157Y-36000D01*
X-264526Y-34147D01*
X-265576Y-32575D01*
X-267147Y-31526D01*
X-269000Y-31157D01*
X-270853Y-31526D01*
X-272164Y-32401D01*
X-273000Y-32504D01*
X-273836Y-32401D01*
X-275147Y-31526D01*
X-277000Y-31157D01*
X-278853Y-31526D01*
X-280425Y-32575D01*
X-281474Y-34147D01*
X-281843Y-36000D01*
X-281474Y-37853D01*
X-280425Y-39425D01*
X-278853Y-40474D01*
X-277000Y-40843D01*
X-275147Y-40474D01*
X-273836Y-39599D01*
X-273000Y-39495D01*
X-272164Y-39599D01*
X-270853Y-40474D01*
X-269000Y-40843D01*
X-267147Y-40474D01*
X-266558Y-40081D01*
X-266218Y-40258D01*
X-265528Y-40921D01*
X-265842Y-42500D01*
X-265697Y-43230D01*
X-266740Y-44500D01*
X-279747D01*
X-280157Y-44000D01*
X-280526Y-42147D01*
X-281576Y-40575D01*
X-283147Y-39526D01*
X-285000Y-39157D01*
X-286853Y-39526D01*
X-288425Y-40575D01*
X-289474Y-42147D01*
X-289843Y-44000D01*
X-290253Y-44500D01*
X-305500D01*
X-308297Y-47297D01*
X-309000Y-47157D01*
X-310853Y-47526D01*
X-312425Y-48575D01*
X-313474Y-50147D01*
X-313843Y-52000D01*
X-313703Y-52703D01*
X-326995Y-65995D01*
X-328165Y-65369D01*
X-327893Y-64001D01*
X-328320Y-61855D01*
X-329536Y-60036D01*
X-331355Y-58820D01*
X-333501Y-58393D01*
X-335647Y-58820D01*
X-336163Y-59165D01*
X-336384Y-59136D01*
X-337487Y-58523D01*
X-337819Y-56854D01*
X-339035Y-55035D01*
X-340854Y-53819D01*
X-342971Y-53398D01*
X-342892Y-53000D01*
X-343265Y-51126D01*
X-342580Y-50467D01*
X-342236Y-50287D01*
X-341646Y-50681D01*
X-339500Y-51108D01*
X-337354Y-50681D01*
X-335535Y-49465D01*
X-334319Y-47646D01*
X-333892Y-45500D01*
X-334319Y-43354D01*
X-335535Y-41535D01*
X-337354Y-40319D01*
X-339500Y-39892D01*
X-341646Y-40319D01*
X-343465Y-41535D01*
X-344681Y-43354D01*
X-345108Y-45500D01*
X-344735Y-47373D01*
X-345420Y-48033D01*
X-345764Y-48213D01*
X-346354Y-47819D01*
X-348500Y-47392D01*
X-350646Y-47819D01*
X-352465Y-49035D01*
X-353681Y-50854D01*
X-354108Y-53000D01*
X-353681Y-55146D01*
X-352465Y-56965D01*
X-350646Y-58181D01*
X-348529Y-58602D01*
X-348608Y-59000D01*
X-348181Y-61146D01*
X-346965Y-62965D01*
X-345560Y-63904D01*
X-345181Y-64625D01*
X-345247Y-65456D01*
X-346181Y-66854D01*
X-346608Y-69000D01*
X-346181Y-71146D01*
X-344965Y-72965D01*
X-343561Y-73903D01*
X-343421Y-75178D01*
X-343474Y-75373D01*
X-344465Y-76035D01*
X-345681Y-77854D01*
X-346108Y-80000D01*
X-345681Y-82146D01*
X-344465Y-83965D01*
Y-84035D01*
X-345681Y-85854D01*
X-346108Y-88000D01*
X-345681Y-90146D01*
X-345139Y-90957D01*
X-344487Y-92000D01*
X-345139Y-93043D01*
X-345681Y-93854D01*
X-346108Y-96000D01*
X-345681Y-98146D01*
X-344465Y-99965D01*
X-342646Y-101181D01*
X-340500Y-101608D01*
X-338354Y-101181D01*
X-336535Y-99965D01*
X-335319Y-98146D01*
X-335025Y-96666D01*
X-334698Y-96450D01*
X-333663Y-96167D01*
X-332146Y-97181D01*
X-330000Y-97608D01*
X-329482Y-97505D01*
X-328500Y-98310D01*
Y-100256D01*
X-329853Y-100525D01*
X-331424Y-101575D01*
X-332474Y-103146D01*
X-332842Y-105000D01*
X-332474Y-106853D01*
X-331424Y-108424D01*
X-329853Y-109474D01*
X-328500Y-109743D01*
Y-113000D01*
X-331000Y-115500D01*
X-390000D01*
X-398500Y-124000D01*
X-413000D01*
Y-117105D01*
X-407198Y-111302D01*
X-406645Y-110475D01*
X-406451Y-109500D01*
Y-108951D01*
X-399000Y-101500D01*
Y-77605D01*
X-396198Y-74802D01*
X-395645Y-73975D01*
X-395451Y-73000D01*
Y-33056D01*
X-392944Y-30549D01*
X-362000D01*
X-361025Y-30355D01*
X-360198Y-29802D01*
X-359395Y-29000D01*
X-358000D01*
X-353549Y-24549D01*
X-304500D01*
X-303525Y-24355D01*
X-302698Y-23802D01*
X-295223Y-16328D01*
X-295177Y-16258D01*
X-294853Y-16474D01*
X-293000Y-16843D01*
X-291147Y-16474D01*
X-289576Y-15425D01*
X-288526Y-13853D01*
X-288157Y-12000D01*
X-288526Y-10147D01*
X-289576Y-8575D01*
X-291147Y-7526D01*
X-293000Y-7157D01*
X-294242Y-7404D01*
X-294387Y-7188D01*
X-294541Y-6880D01*
X-294661Y-6777D01*
X-294748Y-6647D01*
X-295646Y-5749D01*
X-295777Y-5661D01*
X-295881Y-5541D01*
X-296187Y-5387D01*
X-296404Y-5242D01*
X-296157Y-4000D01*
X-295667Y-2901D01*
X-295293Y-2747D01*
X-294908Y-2619D01*
X-294836Y-2557D01*
X-294748Y-2521D01*
X-293859Y-1927D01*
X-293323Y-1820D01*
X-293091Y-1724D01*
X-292845Y-1675D01*
X-292636Y-1535D01*
X-292404Y-1440D01*
X-292227Y-1262D01*
X-292018Y-1123D01*
X-290944Y-49D01*
X-265600D01*
X-264921Y-1319D01*
X-265474Y-2147D01*
X-265843Y-4000D01*
X-265474Y-5853D01*
X-264425Y-7425D01*
X-262853Y-8474D01*
X-261000Y-8843D01*
X-259147Y-8474D01*
X-257575Y-7425D01*
X-256526Y-5853D01*
X-256157Y-4000D01*
X-256526Y-2147D01*
X-257079Y-1319D01*
X-256400Y-49D01*
X-250546D01*
X-250422Y-24D01*
X-250296Y-37D01*
X-249938Y72D01*
X-249570Y145D01*
X-248425Y575D01*
X-246853Y-474D01*
X-245000Y-843D01*
X-243147Y-474D01*
X-241576Y575D01*
X-240430Y145D01*
X-240063Y72D01*
X-239704Y-37D01*
X-239578Y-24D01*
X-239454Y-49D01*
X-225600D01*
X-224921Y-1319D01*
X-225474Y-2147D01*
X-225843Y-4000D01*
X-225474Y-5853D01*
X-224425Y-7425D01*
X-222853Y-8474D01*
X-221000Y-8843D01*
X-219147Y-8474D01*
X-217575Y-7425D01*
X-216526Y-5853D01*
X-216157Y-4000D01*
X-216526Y-2147D01*
X-217074Y-1326D01*
X-217076Y-880D01*
X-217003Y-625D01*
X-216569Y118D01*
X-215971Y273D01*
X-214853Y-474D01*
X-213000Y-843D01*
X-211147Y-474D01*
X-209576Y575D01*
X-208430Y145D01*
X-208063Y72D01*
X-207704Y-37D01*
X-207578Y-24D01*
X-207454Y-49D01*
X-156969D01*
X-156602Y24D01*
X-156230Y61D01*
X-156118Y120D01*
X-155994Y145D01*
X-155683Y353D01*
X-155352Y530D01*
X-155272Y627D01*
X-155167Y698D01*
X-154959Y1009D01*
X-154721Y1298D01*
X-153917Y1500D01*
X-153646Y1319D01*
X-151500Y892D01*
X-149354Y1319D01*
X-149083Y1500D01*
X-148279Y1298D01*
X-148041Y1009D01*
X-147833Y698D01*
X-147728Y627D01*
X-147648Y530D01*
X-147317Y353D01*
X-147006Y145D01*
X-146882Y120D01*
X-146770Y61D01*
X-146398Y24D01*
X-146031Y-49D01*
X-132054D01*
X-131273Y-1319D01*
X-131608Y-3000D01*
X-131181Y-5146D01*
X-129965Y-6965D01*
X-128146Y-8181D01*
X-126000Y-8608D01*
X-123854Y-8181D01*
X-122035Y-6965D01*
X-120819Y-5146D01*
X-120392Y-3000D01*
X-120727Y-1319D01*
X-119946Y-49D01*
X-98623D01*
X-98256Y24D01*
X-97883Y61D01*
X-97772Y120D01*
X-97648Y145D01*
X-97336Y353D01*
X-97006Y530D01*
X-96926Y627D01*
X-96821Y698D01*
X-96613Y1009D01*
X-96375Y1298D01*
X-96003Y1392D01*
X-95146Y819D01*
X-93000Y392D01*
X-90854Y819D01*
X-89997Y1392D01*
X-89625Y1298D01*
X-89387Y1009D01*
X-89179Y698D01*
X-89074Y627D01*
X-88994Y530D01*
X-88663Y353D01*
X-88352Y145D01*
X-88228Y120D01*
X-88117Y61D01*
X-87744Y24D01*
X-87377Y-49D01*
X-61056D01*
X-40802Y-20302D01*
X-39976Y-20855D01*
X-39000Y-21049D01*
X2500D01*
X3475Y-20855D01*
X4302Y-20302D01*
X4855Y-19475D01*
X5049Y-18500D01*
Y-16634D01*
X5853Y-16474D01*
X7424Y-15425D01*
X8474Y-13853D01*
X8843Y-12000D01*
X8474Y-10147D01*
X7424Y-8575D01*
X5853Y-7526D01*
X4000Y-7157D01*
X3662Y-7224D01*
X2500Y-6165D01*
Y-1835D01*
X3662Y-776D01*
X4000Y-843D01*
X5853Y-474D01*
X7424Y575D01*
X8474Y2147D01*
X8843Y4000D01*
X8474Y5853D01*
X7424Y7424D01*
X7041Y7681D01*
X7426Y8951D01*
X48574D01*
X48959Y7681D01*
X48575Y7424D01*
X47526Y5853D01*
X47157Y4000D01*
X47526Y2147D01*
X48575Y575D01*
X50147Y-474D01*
X52000Y-843D01*
X53853Y-474D01*
X55425Y575D01*
X56474Y2147D01*
X56843Y4000D01*
X56474Y5853D01*
X55425Y7424D01*
X55041Y7681D01*
X55426Y8951D01*
X70444D01*
X70451Y8944D01*
D02*
G37*
%LPC*%
G36*
X-261000Y-71157D02*
X-262853Y-71526D01*
X-264425Y-72575D01*
X-265474Y-74147D01*
X-265843Y-76000D01*
X-265474Y-77853D01*
X-264425Y-79425D01*
X-262853Y-80474D01*
X-261000Y-80843D01*
X-259147Y-80474D01*
X-257575Y-79425D01*
X-256526Y-77853D01*
X-256157Y-76000D01*
X-256526Y-74147D01*
X-257575Y-72575D01*
X-259147Y-71526D01*
X-261000Y-71157D01*
D02*
G37*
G36*
X36000D02*
X34147Y-71526D01*
X32575Y-72575D01*
X31526Y-74147D01*
X31157Y-76000D01*
X31526Y-77853D01*
X32575Y-79425D01*
X34147Y-80474D01*
X36000Y-80843D01*
X37853Y-80474D01*
X39425Y-79425D01*
X40474Y-77853D01*
X40843Y-76000D01*
X40474Y-74147D01*
X39425Y-72575D01*
X37853Y-71526D01*
X36000Y-71157D01*
D02*
G37*
G36*
X-236000Y-109944D02*
X-237697Y-110167D01*
X-239278Y-110822D01*
X-240636Y-111864D01*
X-241678Y-113222D01*
X-242333Y-114803D01*
X-242556Y-116500D01*
X-242333Y-118197D01*
X-241678Y-119778D01*
X-240636Y-121136D01*
X-239278Y-122178D01*
X-237697Y-122833D01*
X-236000Y-123056D01*
X-235520Y-124274D01*
X-235333Y-125697D01*
X-234678Y-127278D01*
X-233636Y-128636D01*
X-232278Y-129678D01*
X-230697Y-130333D01*
X-229000Y-130556D01*
X-227758Y-130393D01*
X-227031Y-131530D01*
X-227178Y-131722D01*
X-227833Y-133303D01*
X-228056Y-135000D01*
X-227833Y-136697D01*
X-227178Y-138278D01*
X-226136Y-139636D01*
X-224778Y-140678D01*
X-223197Y-141333D01*
X-221500Y-141556D01*
X-219803Y-141333D01*
X-218222Y-140678D01*
X-216864Y-139636D01*
X-215822Y-138278D01*
X-215167Y-136697D01*
X-214944Y-135000D01*
X-215167Y-133303D01*
X-215822Y-131722D01*
X-216864Y-130364D01*
X-218222Y-129322D01*
X-219803Y-128667D01*
X-221500Y-128444D01*
X-222742Y-128607D01*
X-223470Y-127470D01*
X-223322Y-127278D01*
X-222667Y-125697D01*
X-222444Y-124000D01*
X-222667Y-122303D01*
X-223322Y-120722D01*
X-224364Y-119364D01*
X-225722Y-118322D01*
X-227303Y-117667D01*
X-229000Y-117444D01*
X-229480Y-116226D01*
X-229667Y-114803D01*
X-230322Y-113222D01*
X-231364Y-111864D01*
X-232722Y-110822D01*
X-234303Y-110167D01*
X-236000Y-109944D01*
D02*
G37*
G36*
X-135000Y-130392D02*
X-137146Y-130819D01*
X-138965Y-132035D01*
X-140181Y-133854D01*
X-140608Y-136000D01*
X-140181Y-138146D01*
X-138965Y-139965D01*
X-137146Y-141181D01*
X-135000Y-141608D01*
X-132854Y-141181D01*
X-131035Y-139965D01*
X-129819Y-138146D01*
X-129392Y-136000D01*
X-129819Y-133854D01*
X-131035Y-132035D01*
X-132854Y-130819D01*
X-135000Y-130392D01*
D02*
G37*
G36*
X-251500Y-120944D02*
X-253197Y-121167D01*
X-254778Y-121822D01*
X-256136Y-122864D01*
X-257178Y-124222D01*
X-257833Y-125803D01*
X-258056Y-127500D01*
X-257833Y-129197D01*
X-257178Y-130778D01*
X-256136Y-132136D01*
X-254778Y-133178D01*
X-253197Y-133833D01*
X-251500Y-134056D01*
X-249803Y-133833D01*
X-248222Y-133178D01*
X-246864Y-132136D01*
X-245822Y-130778D01*
X-245167Y-129197D01*
X-244944Y-127500D01*
X-245167Y-125803D01*
X-245822Y-124222D01*
X-246864Y-122864D01*
X-248222Y-121822D01*
X-249803Y-121167D01*
X-251500Y-120944D01*
D02*
G37*
G36*
X-117500Y-97392D02*
X-119646Y-97819D01*
X-121465Y-99035D01*
X-122681Y-100854D01*
X-123108Y-103000D01*
X-122681Y-105146D01*
X-121465Y-106965D01*
X-119646Y-108181D01*
X-117500Y-108608D01*
X-115354Y-108181D01*
X-113535Y-106965D01*
X-112319Y-105146D01*
X-111892Y-103000D01*
X-112319Y-100854D01*
X-113535Y-99035D01*
X-115354Y-97819D01*
X-117500Y-97392D01*
D02*
G37*
G36*
X-150000Y-99892D02*
X-152146Y-100319D01*
X-153965Y-101535D01*
X-155181Y-103354D01*
X-155608Y-105500D01*
X-155181Y-107646D01*
X-153965Y-109465D01*
X-152146Y-110681D01*
X-150000Y-111108D01*
X-147854Y-110681D01*
X-146035Y-109465D01*
X-144819Y-107646D01*
X-144392Y-105500D01*
X-144819Y-103354D01*
X-146035Y-101535D01*
X-147854Y-100319D01*
X-150000Y-99892D01*
D02*
G37*
G36*
X-201000Y-105657D02*
X-202853Y-106026D01*
X-204425Y-107076D01*
X-205474Y-108647D01*
X-205843Y-110500D01*
X-205474Y-112353D01*
X-204425Y-113925D01*
X-202853Y-114974D01*
X-201000Y-115343D01*
X-199147Y-114974D01*
X-197575Y-113925D01*
X-196526Y-112353D01*
X-196157Y-110500D01*
X-196526Y-108647D01*
X-197575Y-107076D01*
X-199147Y-106026D01*
X-201000Y-105657D01*
D02*
G37*
G36*
X107500Y-292885D02*
X105354Y-293312D01*
X103535Y-294528D01*
X102319Y-296347D01*
X101892Y-298493D01*
X102319Y-300639D01*
X103535Y-302458D01*
X105354Y-303674D01*
X107500Y-304101D01*
X109646Y-303674D01*
X111465Y-302458D01*
X112681Y-300639D01*
X113108Y-298493D01*
X112681Y-296347D01*
X111465Y-294528D01*
X109646Y-293312D01*
X107500Y-292885D01*
D02*
G37*
G36*
X-223000Y-280392D02*
X-225146Y-280819D01*
X-226965Y-282035D01*
X-228181Y-283854D01*
X-228608Y-286000D01*
X-228181Y-288146D01*
X-226965Y-289965D01*
X-225146Y-291181D01*
X-223000Y-291608D01*
X-220854Y-291181D01*
X-219035Y-289965D01*
X-217819Y-288146D01*
X-217392Y-286000D01*
X-217819Y-283854D01*
X-219035Y-282035D01*
X-220854Y-280819D01*
X-223000Y-280392D01*
D02*
G37*
G36*
X-197507D02*
X-199653Y-280819D01*
X-201472Y-282035D01*
X-202688Y-283854D01*
X-203115Y-286000D01*
X-202688Y-288146D01*
X-201472Y-289965D01*
X-199653Y-291181D01*
X-197507Y-291608D01*
X-195361Y-291181D01*
X-193542Y-289965D01*
X-192326Y-288146D01*
X-191899Y-286000D01*
X-192326Y-283854D01*
X-193542Y-282035D01*
X-195361Y-280819D01*
X-197507Y-280392D01*
D02*
G37*
G36*
X-324780Y-280665D02*
X-326926Y-281092D01*
X-328745Y-282308D01*
X-329961Y-284127D01*
X-330388Y-286273D01*
X-329961Y-288419D01*
X-328745Y-290238D01*
X-326926Y-291454D01*
X-324780Y-291881D01*
X-322634Y-291454D01*
X-320815Y-290238D01*
X-319599Y-288419D01*
X-319172Y-286273D01*
X-319599Y-284127D01*
X-320815Y-282308D01*
X-322634Y-281092D01*
X-324780Y-280665D01*
D02*
G37*
G36*
X-500Y-281392D02*
X-2646Y-281819D01*
X-4465Y-283034D01*
X-5681Y-284853D01*
X-6108Y-286999D01*
X-5681Y-289145D01*
X-4465Y-290965D01*
X-2646Y-292180D01*
X-500Y-292607D01*
X1646Y-292180D01*
X3465Y-290965D01*
X4681Y-289145D01*
X5108Y-286999D01*
X4681Y-284853D01*
X3465Y-283034D01*
X1646Y-281819D01*
X-500Y-281392D01*
D02*
G37*
G36*
X-109107Y-280892D02*
X-111253Y-281319D01*
X-113072Y-282535D01*
X-114288Y-284354D01*
X-114715Y-286500D01*
X-114288Y-288646D01*
X-113072Y-290465D01*
X-111253Y-291681D01*
X-109107Y-292108D01*
X-106961Y-291681D01*
X-105142Y-290465D01*
X-103926Y-288646D01*
X-103499Y-286500D01*
X-103926Y-284354D01*
X-105142Y-282535D01*
X-106961Y-281319D01*
X-109107Y-280892D01*
D02*
G37*
G36*
X-197307Y-292892D02*
X-199453Y-293319D01*
X-201272Y-294535D01*
X-202488Y-296354D01*
X-202915Y-298500D01*
X-202488Y-300646D01*
X-201272Y-302465D01*
X-199453Y-303681D01*
X-197307Y-304108D01*
X-195161Y-303681D01*
X-193342Y-302465D01*
X-192126Y-300646D01*
X-191904Y-299530D01*
X-190609D01*
X-190288Y-301146D01*
X-189072Y-302965D01*
X-187253Y-304181D01*
X-185107Y-304608D01*
X-182961Y-304181D01*
X-181142Y-302965D01*
X-179926Y-301146D01*
X-179499Y-299000D01*
X-179926Y-296854D01*
X-181142Y-295035D01*
X-182961Y-293819D01*
X-185107Y-293392D01*
X-187253Y-293819D01*
X-189072Y-295035D01*
X-190288Y-296854D01*
X-190510Y-297970D01*
X-191805D01*
X-192126Y-296354D01*
X-193342Y-294535D01*
X-195161Y-293319D01*
X-197307Y-292892D01*
D02*
G37*
G36*
X69000Y-293285D02*
X66854Y-293712D01*
X65035Y-294928D01*
X63819Y-296747D01*
X63392Y-298893D01*
X63819Y-301039D01*
X65035Y-302858D01*
X66854Y-304074D01*
X69000Y-304501D01*
X71146Y-304074D01*
X72965Y-302858D01*
X74181Y-301039D01*
X74608Y-298893D01*
X74181Y-296747D01*
X72965Y-294928D01*
X71146Y-293712D01*
X69000Y-293285D01*
D02*
G37*
G36*
X56500Y-293085D02*
X54354Y-293512D01*
X52535Y-294728D01*
X51319Y-296547D01*
X50892Y-298693D01*
X51319Y-300839D01*
X52535Y-302658D01*
X54354Y-303874D01*
X56500Y-304301D01*
X58646Y-303874D01*
X60465Y-302658D01*
X61681Y-300839D01*
X62108Y-298693D01*
X61681Y-296547D01*
X60465Y-294728D01*
X58646Y-293512D01*
X56500Y-293085D01*
D02*
G37*
G36*
X12143Y-294249D02*
X9997Y-294676D01*
X8178Y-295892D01*
X6962Y-297711D01*
X6535Y-299857D01*
X6962Y-302003D01*
X8178Y-303822D01*
X9997Y-305038D01*
X12143Y-305465D01*
X14289Y-305038D01*
X16108Y-303822D01*
X17324Y-302003D01*
X17751Y-299857D01*
X17324Y-297711D01*
X16108Y-295892D01*
X14289Y-294676D01*
X12143Y-294249D01*
D02*
G37*
G36*
X-172000Y-293892D02*
X-174146Y-294319D01*
X-175965Y-295534D01*
X-177181Y-297353D01*
X-177607Y-299499D01*
X-177181Y-301645D01*
X-175965Y-303465D01*
X-174146Y-304680D01*
X-172000Y-305107D01*
X-169854Y-304680D01*
X-168034Y-303465D01*
X-166819Y-301645D01*
X-166392Y-299499D01*
X-166819Y-297353D01*
X-168034Y-295534D01*
X-169854Y-294319D01*
X-172000Y-293892D01*
D02*
G37*
G36*
X-32407Y-292892D02*
X-34553Y-293319D01*
X-36372Y-294535D01*
X-37588Y-296354D01*
X-38015Y-298500D01*
X-37588Y-300646D01*
X-36372Y-302465D01*
X-34553Y-303681D01*
X-32407Y-304108D01*
X-30261Y-303681D01*
X-28442Y-302465D01*
X-27226Y-300646D01*
X-26799Y-298500D01*
X-27226Y-296354D01*
X-28442Y-294535D01*
X-30261Y-293319D01*
X-32407Y-292892D01*
D02*
G37*
G36*
X31293D02*
X29147Y-293319D01*
X27328Y-294535D01*
X26112Y-296354D01*
X25685Y-298500D01*
X26112Y-300646D01*
X27328Y-302465D01*
X29147Y-303681D01*
X31293Y-304108D01*
X33439Y-303681D01*
X35258Y-302465D01*
X36474Y-300646D01*
X36901Y-298500D01*
X36474Y-296354D01*
X35258Y-294535D01*
X33439Y-293319D01*
X31293Y-292892D01*
D02*
G37*
G36*
X145593D02*
X143447Y-293319D01*
X141628Y-294535D01*
X140412Y-296354D01*
X139985Y-298500D01*
X140412Y-300646D01*
X141628Y-302465D01*
X143447Y-303681D01*
X145593Y-304108D01*
X147739Y-303681D01*
X149558Y-302465D01*
X150774Y-300646D01*
X151201Y-298500D01*
X150774Y-296354D01*
X149558Y-294535D01*
X147739Y-293319D01*
X145593Y-292892D01*
D02*
G37*
G36*
X-235500Y-292985D02*
X-237646Y-293412D01*
X-239465Y-294628D01*
X-240681Y-296447D01*
X-241108Y-298593D01*
X-240681Y-300739D01*
X-239465Y-302558D01*
X-237646Y-303774D01*
X-235500Y-304201D01*
X-233354Y-303774D01*
X-231535Y-302558D01*
X-230319Y-300739D01*
X-229892Y-298593D01*
X-230319Y-296447D01*
X-231535Y-294628D01*
X-233354Y-293412D01*
X-235500Y-292985D01*
D02*
G37*
G36*
X-146500Y-292892D02*
X-148646Y-293319D01*
X-150465Y-294535D01*
X-151681Y-296354D01*
X-152108Y-298500D01*
X-151681Y-300646D01*
X-150465Y-302465D01*
X-148646Y-303681D01*
X-146500Y-304108D01*
X-144354Y-303681D01*
X-142535Y-302465D01*
X-141319Y-300646D01*
X-140892Y-298500D01*
X-141319Y-296354D01*
X-142535Y-294535D01*
X-144354Y-293319D01*
X-146500Y-292892D01*
D02*
G37*
G36*
X-57607D02*
X-59753Y-293319D01*
X-61572Y-294535D01*
X-62788Y-296354D01*
X-63215Y-298500D01*
X-62788Y-300646D01*
X-61572Y-302465D01*
X-59753Y-303681D01*
X-57607Y-304108D01*
X-55461Y-303681D01*
X-53642Y-302465D01*
X-52426Y-300646D01*
X-51999Y-298500D01*
X-52426Y-296354D01*
X-53642Y-294535D01*
X-55461Y-293319D01*
X-57607Y-292892D01*
D02*
G37*
G36*
X-146707Y-280392D02*
X-148853Y-280819D01*
X-150672Y-282035D01*
X-151888Y-283854D01*
X-152315Y-286000D01*
X-151888Y-288146D01*
X-150672Y-289965D01*
X-148853Y-291181D01*
X-146707Y-291608D01*
X-144561Y-291181D01*
X-142742Y-289965D01*
X-141526Y-288146D01*
X-141099Y-286000D01*
X-141526Y-283854D01*
X-142742Y-282035D01*
X-144561Y-280819D01*
X-146707Y-280392D01*
D02*
G37*
G36*
X-89457Y-263435D02*
X-91603Y-263862D01*
X-93422Y-265078D01*
X-94638Y-266897D01*
X-95065Y-269043D01*
X-94638Y-271189D01*
X-93422Y-273008D01*
X-91603Y-274224D01*
X-89457Y-274651D01*
X-87311Y-274224D01*
X-85492Y-273008D01*
X-84276Y-271189D01*
X-83849Y-269043D01*
X-84276Y-266897D01*
X-85492Y-265078D01*
X-87311Y-263862D01*
X-89457Y-263435D01*
D02*
G37*
G36*
X101043Y-263349D02*
X98897Y-263776D01*
X97078Y-264992D01*
X95862Y-266811D01*
X95435Y-268957D01*
X95862Y-271103D01*
X97078Y-272922D01*
X98897Y-274138D01*
X101043Y-274565D01*
X103189Y-274138D01*
X105008Y-272922D01*
X106224Y-271103D01*
X106651Y-268957D01*
X106224Y-266811D01*
X105008Y-264992D01*
X103189Y-263776D01*
X101043Y-263349D01*
D02*
G37*
G36*
X-51357Y-263749D02*
X-53503Y-264176D01*
X-55322Y-265392D01*
X-56538Y-267211D01*
X-56965Y-269357D01*
X-56538Y-271503D01*
X-55322Y-273322D01*
X-53503Y-274538D01*
X-51357Y-274965D01*
X-49211Y-274538D01*
X-47392Y-273322D01*
X-46176Y-271503D01*
X-45749Y-269357D01*
X-46176Y-267211D01*
X-47392Y-265392D01*
X-49211Y-264176D01*
X-51357Y-263749D01*
D02*
G37*
G36*
X-13257Y-265149D02*
X-15403Y-265576D01*
X-17222Y-266792D01*
X-18438Y-268611D01*
X-18865Y-270757D01*
X-18438Y-272903D01*
X-17222Y-274722D01*
X-15403Y-275938D01*
X-13257Y-276365D01*
X-11111Y-275938D01*
X-9292Y-274722D01*
X-8076Y-272903D01*
X-7649Y-270757D01*
X-8076Y-268611D01*
X-9292Y-266792D01*
X-11111Y-265576D01*
X-13257Y-265149D01*
D02*
G37*
G36*
X28000Y-264892D02*
X25854Y-265319D01*
X24035Y-266535D01*
X22819Y-268354D01*
X22392Y-270500D01*
X22819Y-272646D01*
X24035Y-274465D01*
X25854Y-275681D01*
X28000Y-276108D01*
X30146Y-275681D01*
X31965Y-274465D01*
X33181Y-272646D01*
X33608Y-270500D01*
X33181Y-268354D01*
X31965Y-266535D01*
X30146Y-265319D01*
X28000Y-264892D01*
D02*
G37*
G36*
X-134000Y-265372D02*
X-136146Y-265799D01*
X-137965Y-267015D01*
X-139181Y-268834D01*
X-139504Y-270457D01*
X-140799D01*
X-140819Y-270354D01*
X-142035Y-268535D01*
X-143854Y-267319D01*
X-146000Y-266892D01*
X-148146Y-267319D01*
X-149965Y-268535D01*
X-151181Y-270354D01*
X-151608Y-272500D01*
X-151181Y-274646D01*
X-149965Y-276465D01*
X-148146Y-277681D01*
X-146000Y-278108D01*
X-143854Y-277681D01*
X-142035Y-276465D01*
X-140819Y-274646D01*
X-140496Y-273023D01*
X-139201D01*
X-139181Y-273126D01*
X-137965Y-274945D01*
X-136146Y-276161D01*
X-134000Y-276588D01*
X-131854Y-276161D01*
X-130035Y-274945D01*
X-128819Y-273126D01*
X-128392Y-270980D01*
X-128819Y-268834D01*
X-130035Y-267015D01*
X-131854Y-265799D01*
X-134000Y-265372D01*
D02*
G37*
G36*
X-367000Y-240892D02*
X-369146Y-241319D01*
X-370965Y-242535D01*
X-372181Y-244354D01*
X-372608Y-246500D01*
X-372181Y-248646D01*
X-370965Y-250465D01*
X-369146Y-251681D01*
X-368792Y-251751D01*
X-368556Y-253093D01*
X-369965Y-254035D01*
X-371181Y-255854D01*
X-371608Y-258000D01*
X-371181Y-260146D01*
X-369965Y-261965D01*
X-368146Y-263181D01*
X-366000Y-263608D01*
X-363854Y-263181D01*
X-362035Y-261965D01*
X-360819Y-260146D01*
X-360392Y-258000D01*
X-360819Y-255854D01*
X-362035Y-254035D01*
X-363854Y-252819D01*
X-364208Y-252749D01*
X-364444Y-251407D01*
X-363035Y-250465D01*
X-361819Y-248646D01*
X-361392Y-246500D01*
X-361819Y-244354D01*
X-363035Y-242535D01*
X-364854Y-241319D01*
X-367000Y-240892D01*
D02*
G37*
G36*
X177243Y-263135D02*
X175097Y-263562D01*
X173278Y-264778D01*
X172062Y-266597D01*
X171635Y-268743D01*
X172062Y-270889D01*
X173278Y-272708D01*
X175097Y-273924D01*
X177243Y-274351D01*
X179389Y-273924D01*
X181208Y-272708D01*
X182424Y-270889D01*
X182851Y-268743D01*
X182424Y-266597D01*
X181208Y-264778D01*
X179389Y-263562D01*
X177243Y-263135D01*
D02*
G37*
G36*
X-236999Y-269392D02*
X-239146Y-269819D01*
X-240965Y-271034D01*
X-242180Y-272854D01*
X-242352Y-273717D01*
X-243647D01*
X-243819Y-272854D01*
X-245034Y-271034D01*
X-246854Y-269819D01*
X-249000Y-269392D01*
X-251145Y-269819D01*
X-252965Y-271034D01*
X-254180Y-272854D01*
X-254607Y-275000D01*
X-254180Y-277145D01*
X-252965Y-278965D01*
X-251145Y-280180D01*
X-249000Y-280607D01*
X-246854Y-280180D01*
X-245034Y-278965D01*
X-243819Y-277145D01*
X-243647Y-276282D01*
X-242352D01*
X-242180Y-277145D01*
X-240965Y-278965D01*
X-239146Y-280180D01*
X-236999Y-280607D01*
X-234853Y-280180D01*
X-233034Y-278965D01*
X-231819Y-277145D01*
X-231392Y-275000D01*
X-231819Y-272854D01*
X-233034Y-271034D01*
X-234853Y-269819D01*
X-236999Y-269392D01*
D02*
G37*
G36*
X139000Y-265892D02*
X136854Y-266319D01*
X135035Y-267535D01*
X133819Y-269354D01*
X133392Y-271500D01*
X133819Y-273646D01*
X135035Y-275465D01*
X136854Y-276681D01*
X139000Y-277108D01*
X141146Y-276681D01*
X142965Y-275465D01*
X144181Y-273646D01*
X144608Y-271500D01*
X144181Y-269354D01*
X142965Y-267535D01*
X141146Y-266319D01*
X139000Y-265892D01*
D02*
G37*
G36*
X208893Y-280392D02*
X206747Y-280819D01*
X204928Y-282035D01*
X203712Y-283854D01*
X203285Y-286000D01*
X203712Y-288146D01*
X204928Y-289965D01*
X206747Y-291181D01*
X208893Y-291608D01*
X211039Y-291181D01*
X212858Y-289965D01*
X214074Y-288146D01*
X214501Y-286000D01*
X214074Y-283854D01*
X212858Y-282035D01*
X211039Y-280819D01*
X208893Y-280392D01*
D02*
G37*
G36*
X-134000Y-280385D02*
X-136146Y-280812D01*
X-137965Y-282028D01*
X-139181Y-283847D01*
X-139608Y-285993D01*
X-139181Y-288139D01*
X-137965Y-289958D01*
X-136146Y-291174D01*
X-134000Y-291601D01*
X-131854Y-291174D01*
X-130035Y-289958D01*
X-128819Y-288139D01*
X-128392Y-285993D01*
X-128819Y-283847D01*
X-130035Y-282028D01*
X-131854Y-280812D01*
X-134000Y-280385D01*
D02*
G37*
G36*
X56493Y-280392D02*
X54347Y-280819D01*
X52528Y-282035D01*
X51312Y-283854D01*
X50885Y-286000D01*
X51312Y-288146D01*
X52528Y-289965D01*
X54347Y-291181D01*
X56493Y-291608D01*
X58639Y-291181D01*
X60458Y-289965D01*
X61674Y-288146D01*
X62101Y-286000D01*
X61674Y-283854D01*
X60458Y-282035D01*
X58639Y-280819D01*
X56493Y-280392D01*
D02*
G37*
G36*
X-70507D02*
X-72653Y-280819D01*
X-74472Y-282035D01*
X-75688Y-283854D01*
X-76115Y-286000D01*
X-75688Y-288146D01*
X-74472Y-289965D01*
X-72653Y-291181D01*
X-70507Y-291608D01*
X-68361Y-291181D01*
X-66542Y-289965D01*
X-65326Y-288146D01*
X-64899Y-286000D01*
X-65326Y-283854D01*
X-66542Y-282035D01*
X-68361Y-280819D01*
X-70507Y-280392D01*
D02*
G37*
G36*
X-32407D02*
X-34553Y-280819D01*
X-36372Y-282035D01*
X-37588Y-283854D01*
X-38015Y-286000D01*
X-37588Y-288146D01*
X-36372Y-289965D01*
X-34553Y-291181D01*
X-32407Y-291608D01*
X-30261Y-291181D01*
X-28442Y-289965D01*
X-27226Y-288146D01*
X-26799Y-286000D01*
X-27226Y-283854D01*
X-28442Y-282035D01*
X-30261Y-280819D01*
X-32407Y-280392D01*
D02*
G37*
G36*
X-165500Y-266892D02*
X-167646Y-267319D01*
X-169465Y-268535D01*
X-170681Y-270354D01*
X-171108Y-272500D01*
X-170681Y-274646D01*
X-169465Y-276465D01*
X-167646Y-277681D01*
X-165500Y-278108D01*
X-163354Y-277681D01*
X-161535Y-276465D01*
X-160319Y-274646D01*
X-159892Y-272500D01*
X-160319Y-270354D01*
X-161535Y-268535D01*
X-163354Y-267319D01*
X-165500Y-266892D01*
D02*
G37*
G36*
X-223000Y-266392D02*
X-225146Y-266819D01*
X-226965Y-268035D01*
X-228181Y-269854D01*
X-228608Y-272000D01*
X-228181Y-274146D01*
X-226965Y-275965D01*
X-225146Y-277181D01*
X-223000Y-277608D01*
X-220854Y-277181D01*
X-219035Y-275965D01*
X-217819Y-274146D01*
X-217392Y-272000D01*
X-217819Y-269854D01*
X-219035Y-268035D01*
X-220854Y-266819D01*
X-223000Y-266392D01*
D02*
G37*
G36*
X-147000Y-305392D02*
X-149146Y-305819D01*
X-150965Y-307035D01*
X-152181Y-308854D01*
X-152353Y-309717D01*
X-153647D01*
X-153819Y-308854D01*
X-155035Y-307035D01*
X-156854Y-305819D01*
X-159000Y-305392D01*
X-161146Y-305819D01*
X-162965Y-307035D01*
X-164181Y-308854D01*
X-164608Y-311000D01*
X-164181Y-313146D01*
X-162965Y-314965D01*
X-161146Y-316181D01*
X-159000Y-316608D01*
X-156854Y-316181D01*
X-155035Y-314965D01*
X-153819Y-313146D01*
X-153647Y-312283D01*
X-152353D01*
X-152181Y-313146D01*
X-150965Y-314965D01*
X-149146Y-316181D01*
X-147000Y-316608D01*
X-144854Y-316181D01*
X-143035Y-314965D01*
X-141819Y-313146D01*
X-141392Y-311000D01*
X-141819Y-308854D01*
X-143035Y-307035D01*
X-144854Y-305819D01*
X-147000Y-305392D01*
D02*
G37*
G36*
X184000Y-306392D02*
X181854Y-306819D01*
X180035Y-308035D01*
X178819Y-309854D01*
X178392Y-312000D01*
X178819Y-314146D01*
X180035Y-315965D01*
X181854Y-317181D01*
X184000Y-317608D01*
X186146Y-317181D01*
X187965Y-315965D01*
X189181Y-314146D01*
X189608Y-312000D01*
X189181Y-309854D01*
X187965Y-308035D01*
X186146Y-306819D01*
X184000Y-306392D01*
D02*
G37*
G36*
X-45207Y-305892D02*
X-47353Y-306319D01*
X-49172Y-307535D01*
X-50388Y-309354D01*
X-50815Y-311500D01*
X-50388Y-313646D01*
X-49172Y-315465D01*
X-47353Y-316681D01*
X-45207Y-317108D01*
X-43061Y-316681D01*
X-41242Y-315465D01*
X-40026Y-313646D01*
X-39599Y-311500D01*
X-40026Y-309354D01*
X-41242Y-307535D01*
X-43061Y-306319D01*
X-45207Y-305892D01*
D02*
G37*
G36*
X171000Y-306392D02*
X168854Y-306819D01*
X167035Y-308035D01*
X165819Y-309854D01*
X165392Y-312000D01*
X165819Y-314146D01*
X167035Y-315965D01*
X168854Y-317181D01*
X171000Y-317608D01*
X173146Y-317181D01*
X174965Y-315965D01*
X176181Y-314146D01*
X176608Y-312000D01*
X176181Y-309854D01*
X174965Y-308035D01*
X173146Y-306819D01*
X171000Y-306392D01*
D02*
G37*
G36*
X81500Y-318392D02*
X79354Y-318819D01*
X77535Y-320035D01*
X76319Y-321854D01*
X76147Y-322717D01*
X74853D01*
X74681Y-321854D01*
X73465Y-320035D01*
X71646Y-318819D01*
X69500Y-318392D01*
X67354Y-318819D01*
X65535Y-320035D01*
X64319Y-321854D01*
X63892Y-324000D01*
X64319Y-326146D01*
X65535Y-327965D01*
X67354Y-329181D01*
X69500Y-329608D01*
X71646Y-329181D01*
X73465Y-327965D01*
X74681Y-326146D01*
X74853Y-325283D01*
X76147D01*
X76319Y-326146D01*
X77535Y-327965D01*
X79354Y-329181D01*
X81500Y-329608D01*
X83646Y-329181D01*
X85465Y-327965D01*
X86681Y-326146D01*
X87108Y-324000D01*
X86681Y-321854D01*
X85465Y-320035D01*
X83646Y-318819D01*
X81500Y-318392D01*
D02*
G37*
G36*
X-185000Y-306392D02*
X-187146Y-306819D01*
X-188965Y-308035D01*
X-190181Y-309854D01*
X-190608Y-312000D01*
X-190181Y-314146D01*
X-188965Y-315965D01*
X-187146Y-317181D01*
X-185000Y-317608D01*
X-182854Y-317181D01*
X-181035Y-315965D01*
X-179819Y-314146D01*
X-179392Y-312000D01*
X-179819Y-309854D01*
X-181035Y-308035D01*
X-182854Y-306819D01*
X-185000Y-306392D01*
D02*
G37*
G36*
X82500Y-305185D02*
X80354Y-305612D01*
X78535Y-306828D01*
X77319Y-308647D01*
X76892Y-310793D01*
X77319Y-312939D01*
X78535Y-314758D01*
X80354Y-315974D01*
X82500Y-316401D01*
X84646Y-315974D01*
X86465Y-314758D01*
X87681Y-312939D01*
X88108Y-310793D01*
X87681Y-308647D01*
X86465Y-306828D01*
X84646Y-305612D01*
X82500Y-305185D01*
D02*
G37*
G36*
X119500Y-304392D02*
X117354Y-304819D01*
X115535Y-306035D01*
X114319Y-307854D01*
X113892Y-310000D01*
X114319Y-312146D01*
X115535Y-313965D01*
X117354Y-315181D01*
X119500Y-315608D01*
X121646Y-315181D01*
X123465Y-313965D01*
X124681Y-312146D01*
X125108Y-310000D01*
X124681Y-307854D01*
X123465Y-306035D01*
X121646Y-304819D01*
X119500Y-304392D01*
D02*
G37*
G36*
X-121000Y-292892D02*
X-123146Y-293319D01*
X-124965Y-294535D01*
X-126181Y-296354D01*
X-126608Y-298500D01*
X-126181Y-300646D01*
X-124965Y-302465D01*
X-123146Y-303681D01*
X-121000Y-304108D01*
X-118854Y-303681D01*
X-117035Y-302465D01*
X-115819Y-300646D01*
X-115706Y-300079D01*
X-114411D01*
X-114181Y-301239D01*
X-112965Y-303058D01*
X-111146Y-304274D01*
X-110120Y-304478D01*
Y-305773D01*
X-110353Y-305819D01*
X-112172Y-307035D01*
X-113388Y-308854D01*
X-113815Y-311000D01*
X-113388Y-313146D01*
X-112172Y-314965D01*
X-110353Y-316181D01*
X-108207Y-316608D01*
X-106061Y-316181D01*
X-104242Y-314965D01*
X-103026Y-313146D01*
X-102599Y-311000D01*
X-103026Y-308854D01*
X-104242Y-307035D01*
X-106061Y-305819D01*
X-107087Y-305615D01*
Y-304320D01*
X-106854Y-304274D01*
X-105035Y-303058D01*
X-103819Y-301239D01*
X-103392Y-299093D01*
X-103819Y-296947D01*
X-105035Y-295128D01*
X-106854Y-293912D01*
X-109000Y-293485D01*
X-111146Y-293912D01*
X-112965Y-295128D01*
X-114181Y-296947D01*
X-114294Y-297514D01*
X-115589D01*
X-115819Y-296354D01*
X-117035Y-294535D01*
X-118854Y-293319D01*
X-121000Y-292892D01*
D02*
G37*
G36*
X-121500Y-305892D02*
X-123646Y-306319D01*
X-125465Y-307535D01*
X-126681Y-309354D01*
X-127108Y-311500D01*
X-126681Y-313646D01*
X-125465Y-315465D01*
X-123646Y-316681D01*
X-121500Y-317108D01*
X-119354Y-316681D01*
X-117535Y-315465D01*
X-116319Y-313646D01*
X-115892Y-311500D01*
X-116319Y-309354D01*
X-117535Y-307535D01*
X-119354Y-306319D01*
X-121500Y-305892D01*
D02*
G37*
G36*
X-83000Y-305585D02*
X-85146Y-306012D01*
X-86965Y-307228D01*
X-88181Y-309047D01*
X-88608Y-311193D01*
X-88181Y-313339D01*
X-86965Y-315158D01*
X-85146Y-316374D01*
X-83000Y-316801D01*
X-80854Y-316374D01*
X-79035Y-315158D01*
X-77819Y-313339D01*
X-77392Y-311193D01*
X-77819Y-309047D01*
X-79035Y-307228D01*
X-80854Y-306012D01*
X-83000Y-305585D01*
D02*
G37*
G36*
X107500Y-319392D02*
X105354Y-319819D01*
X103535Y-321035D01*
X102319Y-322854D01*
X101892Y-325000D01*
X102319Y-327146D01*
X103535Y-328965D01*
X105354Y-330181D01*
X107500Y-330608D01*
X109646Y-330181D01*
X111465Y-328965D01*
X112681Y-327146D01*
X113108Y-325000D01*
X112681Y-322854D01*
X111465Y-321035D01*
X109646Y-319819D01*
X107500Y-319392D01*
D02*
G37*
G36*
X56593Y-318392D02*
X54447Y-318819D01*
X52628Y-320035D01*
X51412Y-321854D01*
X50985Y-324000D01*
X51412Y-326146D01*
X52628Y-327965D01*
X54447Y-329181D01*
X56593Y-329608D01*
X58739Y-329181D01*
X60558Y-327965D01*
X61774Y-326146D01*
X62201Y-324000D01*
X61774Y-321854D01*
X60558Y-320035D01*
X58739Y-318819D01*
X56593Y-318392D01*
D02*
G37*
G36*
X94693D02*
X92547Y-318819D01*
X90728Y-320035D01*
X89512Y-321854D01*
X89085Y-324000D01*
X89512Y-326146D01*
X90728Y-327965D01*
X92547Y-329181D01*
X94693Y-329608D01*
X96839Y-329181D01*
X98658Y-327965D01*
X99874Y-326146D01*
X100301Y-324000D01*
X99874Y-321854D01*
X98658Y-320035D01*
X96839Y-318819D01*
X94693Y-318392D01*
D02*
G37*
G36*
X31000Y-318199D02*
X28854Y-318626D01*
X27035Y-319842D01*
X25819Y-321661D01*
X25392Y-323807D01*
X25819Y-325953D01*
X27035Y-327772D01*
X28854Y-328988D01*
X31000Y-329415D01*
X33146Y-328988D01*
X34965Y-327772D01*
X36181Y-325953D01*
X36608Y-323807D01*
X36181Y-321661D01*
X34965Y-319842D01*
X33146Y-318626D01*
X31000Y-318199D01*
D02*
G37*
G36*
X240000Y-40997D02*
X237854Y-41424D01*
X236035Y-42640D01*
X234819Y-44459D01*
X234392Y-46605D01*
X234819Y-48751D01*
X236035Y-50570D01*
X237854Y-51786D01*
X240000Y-52213D01*
X242146Y-51786D01*
X243965Y-50570D01*
X245181Y-48751D01*
X245608Y-46605D01*
X245181Y-44459D01*
X243965Y-42640D01*
X242146Y-41424D01*
X240000Y-40997D01*
D02*
G37*
G36*
X277999Y-14892D02*
X275853Y-15319D01*
X274034Y-16535D01*
X272819Y-18354D01*
X272392Y-20500D01*
X272819Y-22646D01*
X274034Y-24465D01*
X275853Y-25681D01*
X277999Y-26108D01*
X280145Y-25681D01*
X281965Y-24465D01*
X283180Y-22646D01*
X283607Y-20500D01*
X283180Y-18354D01*
X281965Y-16535D01*
X280145Y-15319D01*
X277999Y-14892D01*
D02*
G37*
G36*
X276000Y-46392D02*
X273854Y-46819D01*
X272035Y-48035D01*
X270819Y-49854D01*
X270392Y-52000D01*
X270819Y-54146D01*
X272035Y-55965D01*
X273854Y-57181D01*
X276000Y-57608D01*
X278146Y-57181D01*
X279965Y-55965D01*
X281181Y-54146D01*
X281608Y-52000D01*
X281181Y-49854D01*
X279965Y-48035D01*
X278146Y-46819D01*
X276000Y-46392D01*
D02*
G37*
G36*
X209500Y-45892D02*
X207354Y-46319D01*
X205535Y-47535D01*
X204319Y-49354D01*
X203892Y-51500D01*
X204319Y-53646D01*
X205535Y-55465D01*
X207354Y-56681D01*
X209500Y-57108D01*
X211646Y-56681D01*
X213465Y-55465D01*
X214681Y-53646D01*
X215108Y-51500D01*
X214681Y-49354D01*
X213465Y-47535D01*
X211646Y-46319D01*
X209500Y-45892D01*
D02*
G37*
G36*
X102500Y-32392D02*
X100354Y-32819D01*
X98535Y-34035D01*
X97319Y-35854D01*
X96892Y-38000D01*
X97319Y-40146D01*
X98535Y-41965D01*
X99517Y-42622D01*
X100026Y-44147D01*
X99657Y-46000D01*
X100026Y-47853D01*
X101075Y-49425D01*
X102647Y-50474D01*
X103334Y-50611D01*
X103157Y-51500D01*
X103526Y-53353D01*
X104576Y-54925D01*
X106147Y-55974D01*
X107139Y-56172D01*
X107407Y-57520D01*
X106575Y-58075D01*
X105526Y-59647D01*
X105157Y-61500D01*
X104751Y-61906D01*
X103500Y-61657D01*
X101647Y-62026D01*
X100075Y-63075D01*
X99026Y-64647D01*
X98657Y-66500D01*
X99026Y-68353D01*
X100075Y-69925D01*
X101647Y-70974D01*
X103301Y-71303D01*
X103456Y-72083D01*
X104430Y-73541D01*
X104025Y-74146D01*
X103817Y-75193D01*
X102147Y-75526D01*
X100575Y-76575D01*
X99526Y-78147D01*
X99157Y-80000D01*
X99526Y-81853D01*
X100575Y-83425D01*
X102147Y-84474D01*
X104000Y-84843D01*
X105579Y-84529D01*
X106242Y-85219D01*
X106419Y-85558D01*
X106026Y-86147D01*
X105657Y-88000D01*
X106026Y-89853D01*
X106112Y-89983D01*
X105443Y-91268D01*
X104147Y-91526D01*
X102575Y-92576D01*
X101526Y-94147D01*
X101157Y-96000D01*
X101526Y-97853D01*
X102575Y-99425D01*
X104147Y-100474D01*
X106000Y-100843D01*
X107853Y-100474D01*
X109424Y-99425D01*
X110474Y-97853D01*
X110843Y-96000D01*
X110474Y-94147D01*
X110388Y-94017D01*
X111057Y-92732D01*
X112353Y-92474D01*
X113925Y-91425D01*
X114974Y-89853D01*
X115343Y-88000D01*
X114974Y-86147D01*
X113925Y-84575D01*
X112353Y-83526D01*
X110500Y-83157D01*
X108921Y-83471D01*
X108258Y-82781D01*
X108081Y-82442D01*
X108474Y-81853D01*
X108683Y-80807D01*
X110353Y-80474D01*
X111924Y-79424D01*
X112974Y-77853D01*
X113343Y-76000D01*
X112974Y-74146D01*
X112000Y-72689D01*
X112404Y-72083D01*
X112773Y-70230D01*
X112404Y-68376D01*
X111687Y-67302D01*
X111829Y-66172D01*
X112100Y-65809D01*
X113425Y-64925D01*
X114474Y-63353D01*
X114843Y-61500D01*
X114474Y-59647D01*
X113425Y-58075D01*
X111853Y-57026D01*
X110861Y-56828D01*
X110593Y-55480D01*
X111425Y-54925D01*
X112474Y-53353D01*
X112843Y-51500D01*
X112474Y-49647D01*
X111425Y-48075D01*
X109853Y-47026D01*
X109166Y-46889D01*
X109343Y-46000D01*
X108974Y-44147D01*
X107924Y-42575D01*
X106634Y-41713D01*
X107681Y-40146D01*
X108108Y-38000D01*
X107681Y-35854D01*
X106465Y-34035D01*
X104646Y-32819D01*
X102500Y-32392D01*
D02*
G37*
G36*
X84000Y-55157D02*
X82147Y-55526D01*
X80576Y-56575D01*
X79526Y-58147D01*
X79157Y-60000D01*
X79526Y-61853D01*
X80576Y-63425D01*
X82147Y-64474D01*
X84000Y-64843D01*
X85853Y-64474D01*
X87425Y-63425D01*
X88474Y-61853D01*
X88843Y-60000D01*
X88474Y-58147D01*
X87425Y-56575D01*
X85853Y-55526D01*
X84000Y-55157D01*
D02*
G37*
G36*
X-275280Y45722D02*
X-277426Y45295D01*
X-279246Y44079D01*
X-280461Y42260D01*
X-280888Y40114D01*
X-280461Y37968D01*
X-279246Y36149D01*
X-277426Y34933D01*
X-275280Y34506D01*
X-273134Y34933D01*
X-271315Y36149D01*
X-270100Y37968D01*
X-269673Y40114D01*
X-270100Y42260D01*
X-271315Y44079D01*
X-273134Y45295D01*
X-275280Y45722D01*
D02*
G37*
G36*
X-92000Y40108D02*
X-94146Y39681D01*
X-95965Y38465D01*
X-97181Y36646D01*
X-97608Y34500D01*
X-97181Y32354D01*
X-95965Y30535D01*
X-94146Y29319D01*
X-92000Y28892D01*
X-89854Y29319D01*
X-88035Y30535D01*
X-86819Y32354D01*
X-86392Y34500D01*
X-86819Y36646D01*
X-88035Y38465D01*
X-89854Y39681D01*
X-92000Y40108D01*
D02*
G37*
G36*
X56000Y28843D02*
X54147Y28474D01*
X52575Y27425D01*
X51526Y25853D01*
X51157Y24000D01*
X51526Y22147D01*
X52575Y20575D01*
X54147Y19526D01*
X56000Y19157D01*
X57853Y19526D01*
X59425Y20575D01*
X60474Y22147D01*
X60843Y24000D01*
X60474Y25853D01*
X59425Y27425D01*
X57853Y28474D01*
X56000Y28843D01*
D02*
G37*
G36*
X-104500Y28608D02*
X-106646Y28181D01*
X-108465Y26965D01*
X-108799Y26465D01*
X-109035D01*
X-110854Y27681D01*
X-113000Y28108D01*
X-115146Y27681D01*
X-116965Y26465D01*
X-118181Y24646D01*
X-118608Y22500D01*
X-118181Y20354D01*
X-116965Y18535D01*
X-115146Y17319D01*
X-113000Y16892D01*
X-110854Y17319D01*
X-109035Y18535D01*
X-108701Y19035D01*
X-108465D01*
X-106646Y17819D01*
X-104500Y17392D01*
X-102354Y17819D01*
X-100535Y19035D01*
X-99319Y20854D01*
X-98892Y23000D01*
X-99319Y25146D01*
X-100535Y26965D01*
X-102354Y28181D01*
X-104500Y28608D01*
D02*
G37*
G36*
X170720Y58723D02*
X168574Y58296D01*
X166755Y57080D01*
X165539Y55261D01*
X165112Y53115D01*
X165539Y50969D01*
X166755Y49150D01*
X168574Y47934D01*
X170720Y47507D01*
X172866Y47934D01*
X174685Y49150D01*
X175901Y50969D01*
X176328Y53115D01*
X175901Y55261D01*
X174685Y57080D01*
X172866Y58296D01*
X170720Y58723D01*
D02*
G37*
G36*
X-210500Y46108D02*
X-212646Y45681D01*
X-214465Y44465D01*
X-215681Y42646D01*
X-216108Y40500D01*
X-215681Y38354D01*
X-214465Y36535D01*
X-212646Y35319D01*
X-210500Y34892D01*
X-208354Y35319D01*
X-206535Y36535D01*
X-205319Y38354D01*
X-204892Y40500D01*
X-205319Y42646D01*
X-206535Y44465D01*
X-208354Y45681D01*
X-210500Y46108D01*
D02*
G37*
G36*
X204500Y52108D02*
X202354Y51681D01*
X200535Y50465D01*
X199319Y48646D01*
X198892Y46500D01*
X199238Y44759D01*
X199132Y44564D01*
X198435Y43868D01*
X198241Y43761D01*
X196500Y44108D01*
X194354Y43681D01*
X192534Y42465D01*
X191319Y40646D01*
X190892Y38500D01*
X191319Y36354D01*
X192534Y34535D01*
X193951Y33588D01*
Y-108612D01*
X192681Y-109627D01*
X191500Y-109392D01*
X189354Y-109819D01*
X187534Y-111034D01*
X186319Y-112854D01*
X185892Y-115000D01*
X186319Y-117146D01*
X187534Y-118965D01*
X188588Y-119669D01*
X188788Y-121264D01*
X184121Y-125931D01*
X163230D01*
X162965Y-125535D01*
X161146Y-124319D01*
X159000Y-123892D01*
X156854Y-124319D01*
X155035Y-125535D01*
X153819Y-127354D01*
X153392Y-129500D01*
X153819Y-131646D01*
X155035Y-133465D01*
X156854Y-134681D01*
X159000Y-135108D01*
X161146Y-134681D01*
X162965Y-133465D01*
X163230Y-133069D01*
X185599D01*
X186965Y-132797D01*
X188123Y-132023D01*
X200043Y-120103D01*
X200817Y-118945D01*
X201089Y-117579D01*
Y-74764D01*
X202359Y-74379D01*
X203184Y-75615D01*
X205003Y-76830D01*
X207149Y-77257D01*
X209295Y-76830D01*
X211115Y-75615D01*
X212330Y-73795D01*
X212757Y-71649D01*
X212330Y-69503D01*
X211115Y-67684D01*
X209295Y-66468D01*
X207149Y-66042D01*
X205003Y-66468D01*
X203184Y-67684D01*
X202359Y-68919D01*
X201089Y-68534D01*
Y-36695D01*
X202359Y-36016D01*
X203354Y-36681D01*
X205500Y-37108D01*
X207646Y-36681D01*
X209465Y-35465D01*
X210681Y-33646D01*
X211108Y-31500D01*
X210681Y-29354D01*
X209465Y-27535D01*
X207646Y-26319D01*
X205500Y-25892D01*
X203354Y-26319D01*
X202359Y-26984D01*
X201089Y-26305D01*
Y3413D01*
X202359Y3798D01*
X202534Y3535D01*
X204354Y2319D01*
X206500Y1892D01*
X208646Y2319D01*
X210465Y3535D01*
X211681Y5354D01*
X212107Y7500D01*
X211681Y9646D01*
X210465Y11465D01*
X208646Y12681D01*
X206500Y13108D01*
X204354Y12681D01*
X202534Y11465D01*
X202359Y11202D01*
X201089Y11588D01*
Y35468D01*
X201681Y36354D01*
X202107Y38500D01*
X201761Y40241D01*
X201868Y40436D01*
X202565Y41132D01*
X202759Y41239D01*
X204500Y40892D01*
X206646Y41319D01*
X208465Y42535D01*
X209681Y44354D01*
X210108Y46500D01*
X209681Y48646D01*
X208465Y50465D01*
X206646Y51681D01*
X204500Y52108D01*
D02*
G37*
G36*
X160500Y-5892D02*
X158354Y-6319D01*
X156535Y-7535D01*
X155319Y-9354D01*
X154892Y-11500D01*
X155319Y-13646D01*
X156535Y-15465D01*
X158354Y-16681D01*
X160500Y-17108D01*
X162646Y-16681D01*
X164465Y-15465D01*
X165681Y-13646D01*
X166108Y-11500D01*
X165681Y-9354D01*
X164465Y-7535D01*
X162646Y-6319D01*
X160500Y-5892D01*
D02*
G37*
G36*
X312253Y28860D02*
X310107Y28433D01*
X308287Y27218D01*
X307072Y25399D01*
X306645Y23253D01*
X307072Y21107D01*
X308287Y19287D01*
X310107Y18072D01*
X312253Y17645D01*
X314399Y18072D01*
X316218Y19287D01*
X317433Y21107D01*
X317860Y23253D01*
X317433Y25399D01*
X316218Y27218D01*
X314399Y28433D01*
X312253Y28860D01*
D02*
G37*
G36*
X12000Y28843D02*
X10147Y28474D01*
X8575Y27425D01*
X7526Y25853D01*
X7157Y24000D01*
X7526Y22147D01*
X8575Y20575D01*
X10147Y19526D01*
X12000Y19157D01*
X13853Y19526D01*
X15425Y20575D01*
X16474Y22147D01*
X16843Y24000D01*
X16474Y25853D01*
X15425Y27425D01*
X13853Y28474D01*
X12000Y28843D01*
D02*
G37*
G36*
X84000Y8843D02*
X82147Y8474D01*
X80575Y7424D01*
X79526Y5853D01*
X79157Y4000D01*
X79526Y2147D01*
X80575Y575D01*
X82147Y-474D01*
X84000Y-843D01*
X85853Y-474D01*
X87424Y575D01*
X88474Y2147D01*
X88843Y4000D01*
X88474Y5853D01*
X87424Y7424D01*
X85853Y8474D01*
X84000Y8843D01*
D02*
G37*
G36*
X-309000D02*
X-310853Y8474D01*
X-312425Y7424D01*
X-313474Y5853D01*
X-313843Y4000D01*
X-313474Y2147D01*
X-312425Y575D01*
X-310853Y-474D01*
X-309000Y-843D01*
X-307147Y-474D01*
X-305576Y575D01*
X-304526Y2147D01*
X-304157Y4000D01*
X-304526Y5853D01*
X-305576Y7424D01*
X-307147Y8474D01*
X-309000Y8843D01*
D02*
G37*
G36*
X-12000D02*
X-13853Y8474D01*
X-15425Y7424D01*
X-16474Y5853D01*
X-16843Y4000D01*
X-16474Y2147D01*
X-15425Y575D01*
X-13853Y-474D01*
X-12000Y-843D01*
X-10147Y-474D01*
X-8576Y575D01*
X-7526Y2147D01*
X-7157Y4000D01*
X-7526Y5853D01*
X-8576Y7424D01*
X-10147Y8474D01*
X-12000Y8843D01*
D02*
G37*
G36*
X179500Y-146892D02*
X177354Y-147319D01*
X175535Y-148535D01*
X174319Y-150354D01*
X173892Y-152500D01*
X174319Y-154646D01*
X175535Y-156465D01*
X177354Y-157681D01*
X179500Y-158108D01*
X181646Y-157681D01*
X183465Y-156465D01*
X184201D01*
X184535Y-156965D01*
X186354Y-158181D01*
X188500Y-158608D01*
X190646Y-158181D01*
X192465Y-156965D01*
X193681Y-155146D01*
X194108Y-153000D01*
X193681Y-150854D01*
X192465Y-149035D01*
X190646Y-147819D01*
X188500Y-147392D01*
X186354Y-147819D01*
X184535Y-149035D01*
X183799D01*
X183465Y-148535D01*
X181646Y-147319D01*
X179500Y-146892D01*
D02*
G37*
G36*
X63500Y-166157D02*
X61646Y-166525D01*
X60075Y-167575D01*
X59763Y-168042D01*
X58236D01*
X57924Y-167576D01*
X56353Y-166526D01*
X54500Y-166157D01*
X52646Y-166526D01*
X51075Y-167576D01*
X50026Y-169147D01*
X49657Y-171000D01*
X50026Y-172854D01*
X51075Y-174425D01*
X52646Y-175474D01*
X54500Y-175843D01*
X56353Y-175474D01*
X57924Y-174425D01*
X58236Y-173958D01*
X59764D01*
X60075Y-174424D01*
X61646Y-175474D01*
X63500Y-175843D01*
X65353Y-175474D01*
X66924Y-174424D01*
X67974Y-172853D01*
X68343Y-171000D01*
X67974Y-169146D01*
X66924Y-167575D01*
X65353Y-166525D01*
X63500Y-166157D01*
D02*
G37*
G36*
X119500D02*
X117647Y-166525D01*
X116075Y-167575D01*
X115764Y-168042D01*
X114236D01*
X113924Y-167575D01*
X112353Y-166525D01*
X110500Y-166157D01*
X108646Y-166525D01*
X107075Y-167575D01*
X106025Y-169146D01*
X105657Y-171000D01*
X106025Y-172853D01*
X107075Y-174424D01*
X108646Y-175474D01*
X110500Y-175843D01*
X112353Y-175474D01*
X113924Y-174424D01*
X114236Y-173958D01*
X115764D01*
X116075Y-174424D01*
X117647Y-175474D01*
X119500Y-175843D01*
X121353Y-175474D01*
X122924Y-174424D01*
X123974Y-172853D01*
X124343Y-171000D01*
X123974Y-169146D01*
X122924Y-167575D01*
X121353Y-166525D01*
X119500Y-166157D01*
D02*
G37*
G36*
X-35000Y-125892D02*
X-37146Y-126319D01*
X-38965Y-127535D01*
X-40181Y-129354D01*
X-40608Y-131500D01*
X-40181Y-133646D01*
X-38965Y-135465D01*
X-37146Y-136681D01*
X-35000Y-137108D01*
X-32854Y-136681D01*
X-31035Y-135465D01*
X-29819Y-133646D01*
X-29392Y-131500D01*
X-29819Y-129354D01*
X-31035Y-127535D01*
X-32854Y-126319D01*
X-35000Y-125892D01*
D02*
G37*
G36*
X149000Y-145657D02*
X147147Y-146026D01*
X145576Y-147076D01*
X144526Y-148647D01*
X144157Y-150500D01*
X144526Y-152354D01*
X145576Y-153925D01*
X147147Y-154975D01*
X149000Y-155343D01*
X150853Y-154975D01*
X152425Y-153925D01*
X153474Y-152354D01*
X153843Y-150500D01*
X153474Y-148647D01*
X152425Y-147076D01*
X150853Y-146026D01*
X149000Y-145657D01*
D02*
G37*
G36*
X256500Y-135892D02*
X254354Y-136319D01*
X252535Y-137535D01*
X251319Y-139354D01*
X250892Y-141500D01*
X251319Y-143646D01*
X251434Y-143819D01*
X250801Y-144621D01*
X250565Y-144803D01*
X248500Y-144392D01*
X246353Y-144819D01*
X244534Y-146034D01*
X243319Y-147854D01*
X242892Y-150000D01*
X243319Y-152146D01*
X244534Y-153965D01*
X246353Y-155181D01*
X248500Y-155607D01*
X250646Y-155181D01*
X252465Y-153965D01*
X253680Y-152146D01*
X254107Y-150000D01*
X253680Y-147854D01*
X253565Y-147681D01*
X254198Y-146878D01*
X254435Y-146697D01*
X256500Y-147108D01*
X258646Y-146681D01*
X260465Y-145465D01*
X261681Y-143646D01*
X262108Y-141500D01*
X261681Y-139354D01*
X260465Y-137535D01*
X258646Y-136319D01*
X256500Y-135892D01*
D02*
G37*
G36*
X-332385Y-249892D02*
X-334531Y-250319D01*
X-336350Y-251535D01*
X-337565Y-253354D01*
X-337845Y-254757D01*
X-339140D01*
X-339319Y-253854D01*
X-340535Y-252035D01*
X-342354Y-250819D01*
X-344500Y-250392D01*
X-346646Y-250819D01*
X-348465Y-252035D01*
X-349681Y-253854D01*
X-350108Y-256000D01*
X-349681Y-258146D01*
X-348465Y-259965D01*
X-346646Y-261181D01*
X-344500Y-261608D01*
X-342354Y-261181D01*
X-340535Y-259965D01*
X-339319Y-258146D01*
X-339040Y-256743D01*
X-337745D01*
X-337565Y-257646D01*
X-336350Y-259465D01*
X-334531Y-260681D01*
X-332385Y-261108D01*
X-330239Y-260681D01*
X-328419Y-259465D01*
X-327204Y-257646D01*
X-326777Y-255500D01*
X-327204Y-253354D01*
X-328419Y-251535D01*
X-330239Y-250319D01*
X-332385Y-249892D01*
D02*
G37*
G36*
X-22000Y-126892D02*
X-24146Y-127319D01*
X-25965Y-128535D01*
X-27181Y-130354D01*
X-27608Y-132500D01*
X-27181Y-134646D01*
X-25965Y-136465D01*
X-24146Y-137681D01*
X-22000Y-138108D01*
X-21532Y-138015D01*
X6222Y-165769D01*
X5854Y-166984D01*
X5646Y-167026D01*
X4075Y-168075D01*
X3025Y-169646D01*
X2657Y-171500D01*
X3025Y-173353D01*
X4075Y-174925D01*
X5646Y-175974D01*
X7500Y-176343D01*
X9353Y-175974D01*
X10924Y-174925D01*
X11974Y-173353D01*
X12016Y-173146D01*
X13231Y-172778D01*
X39977Y-199523D01*
X41134Y-200297D01*
X42500Y-200569D01*
X116500D01*
X117866Y-200297D01*
X119023Y-199523D01*
X129978Y-188569D01*
X143131D01*
X143354Y-189819D01*
X141535Y-191035D01*
X140319Y-192854D01*
X139892Y-195000D01*
X140319Y-197146D01*
X141535Y-198965D01*
X142710Y-199751D01*
Y-201249D01*
X141535Y-202035D01*
X140319Y-203854D01*
X139892Y-206000D01*
X140319Y-208146D01*
X141535Y-209965D01*
X143354Y-211181D01*
X144060Y-211321D01*
X144328Y-212670D01*
X143034Y-213534D01*
X141819Y-215354D01*
X141392Y-217500D01*
X141819Y-219646D01*
X143034Y-221465D01*
X143633Y-221865D01*
Y-223135D01*
X143035Y-223535D01*
X141819Y-225354D01*
X141392Y-227500D01*
X141819Y-229646D01*
X143035Y-231465D01*
X144854Y-232681D01*
X146105Y-232930D01*
X145892Y-234000D01*
X146182Y-235459D01*
X145910Y-236585D01*
X145430Y-237102D01*
X144035Y-238035D01*
X142819Y-239854D01*
X142392Y-242000D01*
X142819Y-244146D01*
X144035Y-245965D01*
X145854Y-247181D01*
X148000Y-247608D01*
X148398Y-247529D01*
X148682Y-248956D01*
X146854Y-249319D01*
X145035Y-250535D01*
X143819Y-252354D01*
X143392Y-254500D01*
X143819Y-256646D01*
X145035Y-258465D01*
X146854Y-259681D01*
X149000Y-260108D01*
X151146Y-259681D01*
X152965Y-258465D01*
X154181Y-256646D01*
X154608Y-254500D01*
X154318Y-253044D01*
X156146Y-252681D01*
X157965Y-251465D01*
X159181Y-249646D01*
X159608Y-247500D01*
X159181Y-245354D01*
X157965Y-243535D01*
X156146Y-242319D01*
X154000Y-241892D01*
X153602Y-241971D01*
X153317Y-240541D01*
X153589Y-239414D01*
X154069Y-238897D01*
X155465Y-237965D01*
X156681Y-236145D01*
X157107Y-234000D01*
X156681Y-231854D01*
X155569Y-230189D01*
X155702Y-229425D01*
X155936Y-228822D01*
X156646Y-228680D01*
X158465Y-227465D01*
X159681Y-225646D01*
X160107Y-223500D01*
X159681Y-221354D01*
X158465Y-219534D01*
X156646Y-218319D01*
X156516Y-218293D01*
X156248Y-216945D01*
X156965Y-216465D01*
X158181Y-214646D01*
X158608Y-212500D01*
X158181Y-210354D01*
X156965Y-208535D01*
X155146Y-207319D01*
X154282Y-207147D01*
Y-205852D01*
X155146Y-205681D01*
X156965Y-204465D01*
X158181Y-202646D01*
X158607Y-200500D01*
X158181Y-198354D01*
X156965Y-196534D01*
X155146Y-195319D01*
X153000Y-194892D01*
X151331Y-195224D01*
X151108Y-195000D01*
X150681Y-192854D01*
X149465Y-191035D01*
X147646Y-189819D01*
X147869Y-188569D01*
X151522D01*
X185230Y-222277D01*
X185139Y-223464D01*
X184084Y-224207D01*
X182500Y-223892D01*
X180354Y-224319D01*
X178534Y-225534D01*
X177319Y-227353D01*
X176892Y-229499D01*
X177319Y-231646D01*
X178534Y-233465D01*
X180354Y-234680D01*
X182169Y-235042D01*
X182907Y-236223D01*
X182819Y-236354D01*
X182392Y-238500D01*
X182819Y-240646D01*
X184035Y-242465D01*
X185854Y-243681D01*
X188000Y-244108D01*
X190146Y-243681D01*
X191965Y-242465D01*
X193181Y-240646D01*
X193608Y-238500D01*
X193181Y-236354D01*
X193069Y-236186D01*
Y-230224D01*
X194050Y-229419D01*
X195000Y-229608D01*
X197146Y-229181D01*
X197661Y-228837D01*
X199255Y-229299D01*
X200035Y-230465D01*
X201854Y-231681D01*
X204000Y-232108D01*
X206146Y-231681D01*
X207965Y-230465D01*
X209181Y-228646D01*
X209608Y-226500D01*
X209422Y-225567D01*
X211166Y-225220D01*
X212985Y-224005D01*
X214201Y-222185D01*
X214628Y-220040D01*
X214201Y-217894D01*
X212985Y-216074D01*
X211166Y-214859D01*
X209163Y-214460D01*
X208882Y-214227D01*
X208251Y-213290D01*
X208607Y-211500D01*
X208181Y-209354D01*
X207090Y-207721D01*
X207366Y-207011D01*
X207719Y-206552D01*
X208000Y-206607D01*
X210146Y-206180D01*
X211965Y-204965D01*
X213180Y-203146D01*
X213607Y-201000D01*
X213180Y-198854D01*
X211965Y-197034D01*
X210146Y-195819D01*
X208478Y-195487D01*
X207864Y-194382D01*
X207835Y-194163D01*
X208181Y-193646D01*
X208607Y-191500D01*
X208181Y-189354D01*
X206965Y-187534D01*
X205146Y-186319D01*
X203000Y-185892D01*
X200854Y-186319D01*
X199034Y-187534D01*
X197819Y-189354D01*
X197589Y-190509D01*
X197000Y-190392D01*
X194854Y-190819D01*
X193035Y-192035D01*
X191819Y-193854D01*
X191392Y-196000D01*
X191819Y-198146D01*
X193035Y-199965D01*
X194854Y-201181D01*
X197000Y-201608D01*
X199146Y-201181D01*
X200965Y-199965D01*
X201446Y-199246D01*
X202642Y-199742D01*
X202392Y-201000D01*
X202819Y-203146D01*
X203909Y-204778D01*
X203633Y-205488D01*
X203280Y-205948D01*
X203000Y-205892D01*
X200854Y-206319D01*
X199034Y-207534D01*
X197819Y-209354D01*
X197392Y-211500D01*
X197819Y-213646D01*
X199034Y-215465D01*
X200854Y-216680D01*
X202856Y-217079D01*
X203137Y-217312D01*
X203768Y-218249D01*
X203412Y-220040D01*
X203598Y-220972D01*
X201854Y-221319D01*
X201339Y-221663D01*
X199745Y-221201D01*
X198965Y-220035D01*
X197146Y-218819D01*
X195000Y-218392D01*
X192854Y-218819D01*
X192839Y-218829D01*
X191593Y-218581D01*
X191523Y-218477D01*
X155523Y-182477D01*
X154366Y-181703D01*
X153000Y-181431D01*
X128500D01*
X127134Y-181703D01*
X125977Y-182477D01*
X115022Y-193431D01*
X43978D01*
X27778Y-177231D01*
X28146Y-176015D01*
X28353Y-175974D01*
X29924Y-174925D01*
X30236Y-174458D01*
X31764D01*
X32075Y-174925D01*
X33647Y-175974D01*
X35500Y-176343D01*
X37353Y-175974D01*
X38924Y-174925D01*
X39974Y-173353D01*
X40343Y-171500D01*
X39974Y-169646D01*
X38924Y-168075D01*
X37353Y-167026D01*
X35500Y-166657D01*
X33647Y-167026D01*
X32075Y-168075D01*
X31764Y-168542D01*
X30236D01*
X29924Y-168075D01*
X28353Y-167026D01*
X26500Y-166657D01*
X24646Y-167026D01*
X23075Y-168075D01*
X22025Y-169646D01*
X21984Y-169854D01*
X20769Y-170222D01*
X-16485Y-132968D01*
X-16392Y-132500D01*
X-16819Y-130354D01*
X-18035Y-128535D01*
X-19854Y-127319D01*
X-22000Y-126892D01*
D02*
G37*
G36*
X82500Y-166157D02*
X80646Y-166525D01*
X79075Y-167575D01*
X78025Y-169146D01*
X77657Y-171000D01*
X78025Y-172853D01*
X79075Y-174424D01*
X80646Y-175474D01*
X82500Y-175843D01*
X84353Y-175474D01*
X85924Y-174424D01*
X86236Y-173958D01*
X87764D01*
X88075Y-174424D01*
X89647Y-175474D01*
X91500Y-175843D01*
X93353Y-175474D01*
X94924Y-174424D01*
X95974Y-172853D01*
X96343Y-171000D01*
X95974Y-169147D01*
X94924Y-167575D01*
X93353Y-166525D01*
X91500Y-166157D01*
X89647Y-166525D01*
X88075Y-167575D01*
X87764Y-168042D01*
X86236D01*
X85924Y-167575D01*
X84353Y-166525D01*
X82500Y-166157D01*
D02*
G37*
G36*
X-81010Y-170372D02*
X-83156Y-170799D01*
X-84975Y-172015D01*
X-86191Y-173834D01*
X-86618Y-175980D01*
X-86191Y-178126D01*
X-84975Y-179945D01*
X-83156Y-181161D01*
X-81010Y-181588D01*
X-78864Y-181161D01*
X-77045Y-179945D01*
X-75829Y-178126D01*
X-75402Y-175980D01*
X-75829Y-173834D01*
X-77045Y-172015D01*
X-78864Y-170799D01*
X-81010Y-170372D01*
D02*
G37*
G36*
X84000Y-87157D02*
X82147Y-87526D01*
X80575Y-88575D01*
X79526Y-90147D01*
X79157Y-92000D01*
X79526Y-93853D01*
X80575Y-95425D01*
X82147Y-96474D01*
X84000Y-96843D01*
X85853Y-96474D01*
X87424Y-95425D01*
X88474Y-93853D01*
X88843Y-92000D01*
X88474Y-90147D01*
X87424Y-88575D01*
X85853Y-87526D01*
X84000Y-87157D01*
D02*
G37*
G36*
X92000Y-79157D02*
X90146Y-79525D01*
X88575Y-80575D01*
X87525Y-82146D01*
X87157Y-84000D01*
X87525Y-85853D01*
X88575Y-87424D01*
X90146Y-88474D01*
X92000Y-88843D01*
X93853Y-88474D01*
X95424Y-87424D01*
X96474Y-85853D01*
X96843Y-84000D01*
X96474Y-82146D01*
X95424Y-80575D01*
X93853Y-79525D01*
X92000Y-79157D01*
D02*
G37*
G36*
X176500Y-77892D02*
X174354Y-78319D01*
X172535Y-79535D01*
X171319Y-81354D01*
X170892Y-83500D01*
X171319Y-85646D01*
X172535Y-87465D01*
X174354Y-88681D01*
X176500Y-89108D01*
X178646Y-88681D01*
X180465Y-87465D01*
X181681Y-85646D01*
X182108Y-83500D01*
X181681Y-81354D01*
X180465Y-79535D01*
X178646Y-78319D01*
X176500Y-77892D01*
D02*
G37*
G36*
X6500Y-113444D02*
X4803Y-113667D01*
X3222Y-114322D01*
X1864Y-115364D01*
X822Y-116722D01*
X167Y-118303D01*
X-56Y-120000D01*
X167Y-121697D01*
X822Y-123278D01*
X1864Y-124636D01*
X3222Y-125678D01*
X4803Y-126333D01*
X6500Y-126556D01*
X8197Y-126333D01*
X9778Y-125678D01*
X11136Y-124636D01*
X12178Y-123278D01*
X12833Y-121697D01*
X13056Y-120000D01*
X12833Y-118303D01*
X12178Y-116722D01*
X11136Y-115364D01*
X9778Y-114322D01*
X8197Y-113667D01*
X6500Y-113444D01*
D02*
G37*
G36*
X234500Y-115392D02*
X232354Y-115819D01*
X230535Y-117035D01*
X229319Y-118854D01*
X228892Y-121000D01*
X229319Y-123146D01*
X230535Y-124965D01*
X232354Y-126181D01*
X234500Y-126608D01*
X236646Y-126181D01*
X238465Y-124965D01*
X239681Y-123146D01*
X240108Y-121000D01*
X239681Y-118854D01*
X238465Y-117035D01*
X236646Y-115819D01*
X234500Y-115392D01*
D02*
G37*
G36*
X32000Y-116944D02*
X30303Y-117167D01*
X28722Y-117822D01*
X27364Y-118864D01*
X26322Y-120222D01*
X25667Y-121803D01*
X25444Y-123500D01*
X25667Y-125197D01*
X26322Y-126778D01*
X27364Y-128136D01*
X28722Y-129178D01*
X30303Y-129833D01*
X32000Y-130056D01*
X33697Y-129833D01*
X35278Y-129178D01*
X36636Y-128136D01*
X37678Y-126778D01*
X38333Y-125197D01*
X38556Y-123500D01*
X38333Y-121803D01*
X37678Y-120222D01*
X36636Y-118864D01*
X35278Y-117822D01*
X33697Y-117167D01*
X32000Y-116944D01*
D02*
G37*
G36*
X54095Y-107429D02*
X52398Y-107653D01*
X50817Y-108308D01*
X49459Y-109349D01*
X48417Y-110707D01*
X47762Y-112288D01*
X47539Y-113985D01*
X47762Y-115682D01*
X48190Y-116714D01*
X46722Y-117322D01*
X45364Y-118364D01*
X44322Y-119722D01*
X43667Y-121303D01*
X43444Y-123000D01*
X43667Y-124697D01*
X44322Y-126278D01*
X45364Y-127636D01*
X46722Y-128678D01*
X48303Y-129333D01*
X50000Y-129556D01*
X51697Y-129333D01*
X53278Y-128678D01*
X54636Y-127636D01*
X55678Y-126278D01*
X56333Y-124697D01*
X56556Y-123000D01*
X56333Y-121303D01*
X55905Y-120271D01*
X57373Y-119663D01*
X58731Y-118621D01*
X59773Y-117263D01*
X60428Y-115682D01*
X60651Y-113985D01*
X60428Y-112288D01*
X59773Y-110707D01*
X58731Y-109349D01*
X57373Y-108308D01*
X55792Y-107653D01*
X54095Y-107429D01*
D02*
G37*
G36*
X261500Y-106392D02*
X259354Y-106819D01*
X257534Y-108034D01*
X256319Y-109854D01*
X255892Y-112000D01*
X256319Y-114146D01*
X257534Y-115965D01*
X259354Y-117181D01*
X261500Y-117607D01*
X263645Y-117181D01*
X265465Y-115965D01*
X266680Y-114146D01*
X267107Y-112000D01*
X266680Y-109854D01*
X265465Y-108034D01*
X263645Y-106819D01*
X261500Y-106392D01*
D02*
G37*
G36*
X-440000Y94600D02*
X-445100Y94199D01*
X-450074Y93005D01*
X-454800Y91047D01*
X-459162Y88374D01*
X-463052Y85052D01*
X-466374Y81162D01*
X-469047Y76800D01*
X-471005Y72074D01*
X-472199Y67100D01*
X-472601Y62000D01*
X-472199Y56900D01*
X-471005Y51926D01*
X-469047Y47200D01*
X-466374Y42838D01*
X-463052Y38948D01*
X-459162Y35626D01*
X-454800Y32953D01*
X-450074Y30995D01*
X-445100Y29801D01*
X-440000Y29399D01*
X-434900Y29801D01*
X-429926Y30995D01*
X-425200Y32953D01*
X-420838Y35626D01*
X-416948Y38948D01*
X-413626Y42838D01*
X-410953Y47200D01*
X-408995Y51926D01*
X-407801Y56900D01*
X-407400Y62000D01*
X-407801Y67100D01*
X-408995Y72074D01*
X-410953Y76800D01*
X-413626Y81162D01*
X-416948Y85052D01*
X-420838Y88374D01*
X-425200Y91047D01*
X-429926Y93005D01*
X-434900Y94199D01*
X-440000Y94600D01*
D02*
G37*
G36*
X-393081Y72027D02*
X-395227Y71600D01*
X-397046Y70385D01*
X-398261Y68565D01*
X-398688Y66419D01*
X-398261Y64273D01*
X-397046Y62454D01*
X-395227Y61239D01*
X-393081Y60812D01*
X-390935Y61239D01*
X-389115Y62454D01*
X-387900Y64273D01*
X-387473Y66419D01*
X-387900Y68565D01*
X-389115Y70385D01*
X-390935Y71600D01*
X-393081Y72027D01*
D02*
G37*
G36*
X-213000Y-63157D02*
X-214853Y-63526D01*
X-216425Y-64575D01*
X-217474Y-66147D01*
X-217843Y-68000D01*
X-217474Y-69853D01*
X-216425Y-71424D01*
X-214853Y-72474D01*
X-213000Y-72843D01*
X-211147Y-72474D01*
X-209576Y-71424D01*
X-208526Y-69853D01*
X-208157Y-68000D01*
X-208526Y-66147D01*
X-209576Y-64575D01*
X-211147Y-63526D01*
X-213000Y-63157D01*
D02*
G37*
G36*
X-96000Y-68392D02*
X-98146Y-68819D01*
X-99965Y-70035D01*
X-101181Y-71854D01*
X-101608Y-74000D01*
X-101181Y-76146D01*
X-99965Y-77965D01*
X-98146Y-79181D01*
X-96000Y-79608D01*
X-93854Y-79181D01*
X-92035Y-77965D01*
X-90819Y-76146D01*
X-90392Y-74000D01*
X-90819Y-71854D01*
X-92035Y-70035D01*
X-93854Y-68819D01*
X-96000Y-68392D01*
D02*
G37*
G36*
X-88000Y-58892D02*
X-90146Y-59319D01*
X-91965Y-60535D01*
X-93181Y-62354D01*
X-93608Y-64500D01*
X-93181Y-66646D01*
X-91965Y-68465D01*
X-90146Y-69681D01*
X-88000Y-70108D01*
X-85854Y-69681D01*
X-84035Y-68465D01*
X-82819Y-66646D01*
X-82392Y-64500D01*
X-82819Y-62354D01*
X-84035Y-60535D01*
X-85854Y-59319D01*
X-88000Y-58892D01*
D02*
G37*
G36*
X-301000Y-71157D02*
X-302853Y-71526D01*
X-304425Y-72575D01*
X-305474Y-74147D01*
X-305843Y-76000D01*
X-305474Y-77853D01*
X-304425Y-79425D01*
X-302853Y-80474D01*
X-301000Y-80843D01*
X-299147Y-80474D01*
X-297575Y-79425D01*
X-296526Y-77853D01*
X-296157Y-76000D01*
X-296526Y-74147D01*
X-297575Y-72575D01*
X-299147Y-71526D01*
X-301000Y-71157D01*
D02*
G37*
G36*
X-309000Y-87157D02*
X-310853Y-87526D01*
X-312425Y-88575D01*
X-313474Y-90147D01*
X-313843Y-92000D01*
X-313474Y-93853D01*
X-312425Y-95424D01*
X-310853Y-96474D01*
X-309000Y-96843D01*
X-307147Y-96474D01*
X-305576Y-95424D01*
X-304526Y-93853D01*
X-304157Y-92000D01*
X-304526Y-90147D01*
X-305576Y-88575D01*
X-307147Y-87526D01*
X-309000Y-87157D01*
D02*
G37*
G36*
X-75500Y-72892D02*
X-77646Y-73319D01*
X-79465Y-74535D01*
X-80681Y-76354D01*
X-81108Y-78500D01*
X-80681Y-80646D01*
X-79465Y-82465D01*
X-77646Y-83681D01*
X-75500Y-84108D01*
X-73354Y-83681D01*
X-71535Y-82465D01*
X-70319Y-80646D01*
X-69892Y-78500D01*
X-70319Y-76354D01*
X-71535Y-74535D01*
X-73354Y-73319D01*
X-75500Y-72892D01*
D02*
G37*
G36*
X-459000Y-282392D02*
X-461146Y-282819D01*
X-462965Y-284035D01*
X-464181Y-285854D01*
X-464608Y-288000D01*
X-464181Y-290146D01*
X-462965Y-291965D01*
X-461146Y-293181D01*
X-459000Y-293608D01*
X-456854Y-293181D01*
X-455035Y-291965D01*
X-453819Y-290146D01*
X-453392Y-288000D01*
X-453819Y-285854D01*
X-455035Y-284035D01*
X-456854Y-282819D01*
X-459000Y-282392D01*
D02*
G37*
G36*
X436820Y-295402D02*
X434674Y-295829D01*
X432855Y-297045D01*
X431639Y-298864D01*
X431212Y-301010D01*
X431639Y-303156D01*
X432855Y-304975D01*
X434674Y-306191D01*
X436820Y-306618D01*
X438966Y-306191D01*
X440785Y-304975D01*
X442001Y-303156D01*
X442428Y-301010D01*
X442001Y-298864D01*
X440785Y-297045D01*
X438966Y-295829D01*
X436820Y-295402D01*
D02*
G37*
G36*
X398500Y-260392D02*
X396354Y-260819D01*
X394535Y-262035D01*
X393319Y-263854D01*
X392892Y-266000D01*
X393319Y-268146D01*
X394535Y-269965D01*
X396354Y-271181D01*
X398500Y-271608D01*
X400646Y-271181D01*
X402465Y-269965D01*
X403681Y-268146D01*
X404108Y-266000D01*
X403681Y-263854D01*
X402465Y-262035D01*
X400646Y-260819D01*
X398500Y-260392D01*
D02*
G37*
G36*
X436820Y-274652D02*
X434674Y-275079D01*
X432855Y-276295D01*
X431639Y-278114D01*
X431212Y-280260D01*
X431639Y-282406D01*
X432855Y-284225D01*
X434674Y-285441D01*
X436820Y-285868D01*
X438966Y-285441D01*
X440785Y-284225D01*
X442001Y-282406D01*
X442428Y-280260D01*
X442001Y-278114D01*
X440785Y-276295D01*
X438966Y-275079D01*
X436820Y-274652D01*
D02*
G37*
G36*
X399500Y-279392D02*
X397354Y-279819D01*
X395535Y-281035D01*
X394319Y-282854D01*
X393892Y-285000D01*
X394319Y-287146D01*
X395535Y-288965D01*
X397354Y-290181D01*
X399500Y-290608D01*
X401646Y-290181D01*
X403465Y-288965D01*
X404681Y-287146D01*
X405108Y-285000D01*
X404681Y-282854D01*
X403465Y-281035D01*
X401646Y-279819D01*
X399500Y-279392D01*
D02*
G37*
G36*
X413820Y-279152D02*
X411674Y-279579D01*
X409855Y-280795D01*
X408639Y-282614D01*
X408212Y-284760D01*
X408639Y-286906D01*
X409855Y-288725D01*
X411674Y-289941D01*
X413820Y-290368D01*
X415966Y-289941D01*
X417785Y-288725D01*
X419001Y-286906D01*
X419428Y-284760D01*
X419001Y-282614D01*
X417785Y-280795D01*
X415966Y-279579D01*
X413820Y-279152D01*
D02*
G37*
G36*
X18593Y-356392D02*
X16447Y-356819D01*
X14628Y-358035D01*
X13412Y-359854D01*
X12985Y-362000D01*
X13412Y-364146D01*
X14628Y-365965D01*
X16447Y-367181D01*
X18593Y-367608D01*
X20739Y-367181D01*
X22558Y-365965D01*
X23774Y-364146D01*
X24201Y-362000D01*
X23774Y-359854D01*
X22558Y-358035D01*
X20739Y-356819D01*
X18593Y-356392D01*
D02*
G37*
G36*
X399000Y-353892D02*
X396854Y-354319D01*
X395035Y-355535D01*
X393819Y-357354D01*
X393392Y-359500D01*
X393819Y-361646D01*
X395035Y-363465D01*
X396854Y-364681D01*
X399000Y-365108D01*
X401146Y-364681D01*
X402965Y-363465D01*
X404181Y-361646D01*
X404608Y-359500D01*
X404181Y-357354D01*
X402965Y-355535D01*
X401146Y-354319D01*
X399000Y-353892D01*
D02*
G37*
G36*
X-311807Y-356392D02*
X-313953Y-356819D01*
X-315772Y-358035D01*
X-316988Y-359854D01*
X-317415Y-362000D01*
X-316988Y-364146D01*
X-315772Y-365965D01*
X-313953Y-367181D01*
X-311807Y-367608D01*
X-309661Y-367181D01*
X-307842Y-365965D01*
X-306626Y-364146D01*
X-306199Y-362000D01*
X-306626Y-359854D01*
X-307842Y-358035D01*
X-309661Y-356819D01*
X-311807Y-356392D01*
D02*
G37*
G36*
X184000Y-356892D02*
X181854Y-357318D01*
X180034Y-358534D01*
X178819Y-360353D01*
X178392Y-362499D01*
X178819Y-364645D01*
X180034Y-366465D01*
X181854Y-367680D01*
X184000Y-368107D01*
X186146Y-367680D01*
X187965Y-366465D01*
X189181Y-364645D01*
X189607Y-362499D01*
X189181Y-360353D01*
X187965Y-358534D01*
X186146Y-357318D01*
X184000Y-356892D01*
D02*
G37*
G36*
X-324507Y-356392D02*
X-326653Y-356819D01*
X-328472Y-358035D01*
X-329688Y-359854D01*
X-330115Y-362000D01*
X-329688Y-364146D01*
X-328472Y-365965D01*
X-326653Y-367181D01*
X-324507Y-367608D01*
X-322361Y-367181D01*
X-320542Y-365965D01*
X-319326Y-364146D01*
X-318899Y-362000D01*
X-319326Y-359854D01*
X-320542Y-358035D01*
X-322361Y-356819D01*
X-324507Y-356392D01*
D02*
G37*
G36*
X6000Y-343585D02*
X3854Y-344012D01*
X2035Y-345228D01*
X819Y-347047D01*
X392Y-349193D01*
X819Y-351339D01*
X2035Y-353158D01*
X3854Y-354374D01*
X6000Y-354801D01*
X8146Y-354374D01*
X9965Y-353158D01*
X11181Y-351339D01*
X11608Y-349193D01*
X11181Y-347047D01*
X9965Y-345228D01*
X8146Y-344012D01*
X6000Y-343585D01*
D02*
G37*
G36*
X-31907Y-343392D02*
X-34053Y-343819D01*
X-35872Y-345035D01*
X-37088Y-346854D01*
X-37515Y-349000D01*
X-37088Y-351146D01*
X-35872Y-352965D01*
X-34053Y-354181D01*
X-31907Y-354608D01*
X-29761Y-354181D01*
X-27942Y-352965D01*
X-26726Y-351146D01*
X-26299Y-349000D01*
X-26726Y-346854D01*
X-27942Y-345035D01*
X-29761Y-343819D01*
X-31907Y-343392D01*
D02*
G37*
G36*
X-70500Y-343885D02*
X-72646Y-344312D01*
X-74465Y-345528D01*
X-75681Y-347347D01*
X-76108Y-349493D01*
X-75681Y-351639D01*
X-74465Y-353458D01*
X-72646Y-354674D01*
X-70500Y-355101D01*
X-68354Y-354674D01*
X-66535Y-353458D01*
X-65319Y-351639D01*
X-64892Y-349493D01*
X-65319Y-347347D01*
X-66535Y-345528D01*
X-68354Y-344312D01*
X-70500Y-343885D01*
D02*
G37*
G36*
X-172000Y-343892D02*
X-174146Y-344319D01*
X-175965Y-345535D01*
X-177181Y-347354D01*
X-177608Y-349500D01*
X-177181Y-351646D01*
X-175965Y-353465D01*
X-174146Y-354681D01*
X-172000Y-355108D01*
X-169854Y-354681D01*
X-168035Y-353465D01*
X-166819Y-351646D01*
X-166392Y-349500D01*
X-166819Y-347354D01*
X-168035Y-345535D01*
X-169854Y-344319D01*
X-172000Y-343892D01*
D02*
G37*
G36*
X-108607D02*
X-110753Y-344319D01*
X-112572Y-345535D01*
X-113788Y-347354D01*
X-114215Y-349500D01*
X-113788Y-351646D01*
X-112572Y-353465D01*
X-110753Y-354681D01*
X-108607Y-355108D01*
X-106461Y-354681D01*
X-104642Y-353465D01*
X-103426Y-351646D01*
X-102999Y-349500D01*
X-103426Y-347354D01*
X-104642Y-345535D01*
X-106461Y-344319D01*
X-108607Y-343892D01*
D02*
G37*
G36*
X-318057Y-372449D02*
X-320203Y-372876D01*
X-322022Y-374092D01*
X-323238Y-375911D01*
X-323665Y-378057D01*
X-323238Y-380203D01*
X-322022Y-382022D01*
X-320203Y-383238D01*
X-318057Y-383665D01*
X-315911Y-383238D01*
X-314092Y-382022D01*
X-312876Y-380203D01*
X-312449Y-378057D01*
X-312876Y-375911D01*
X-314092Y-374092D01*
X-315911Y-372876D01*
X-318057Y-372449D01*
D02*
G37*
G36*
X120000Y-371392D02*
X117854Y-371819D01*
X116035Y-373035D01*
X114819Y-374854D01*
X114392Y-377000D01*
X114819Y-379146D01*
X116035Y-380965D01*
X117854Y-382181D01*
X120000Y-382608D01*
X122146Y-382181D01*
X123965Y-380965D01*
X125181Y-379146D01*
X125608Y-377000D01*
X125181Y-374854D01*
X123965Y-373035D01*
X122146Y-371819D01*
X120000Y-371392D01*
D02*
G37*
G36*
X-13257Y-372635D02*
X-15403Y-373062D01*
X-17222Y-374278D01*
X-18438Y-376097D01*
X-18865Y-378243D01*
X-18438Y-380389D01*
X-17222Y-382208D01*
X-15403Y-383424D01*
X-13257Y-383851D01*
X-11111Y-383424D01*
X-9292Y-382208D01*
X-8076Y-380389D01*
X-7649Y-378243D01*
X-8076Y-376097D01*
X-9292Y-374278D01*
X-11111Y-373062D01*
X-13257Y-372635D01*
D02*
G37*
G36*
X-440000Y-325400D02*
X-445100Y-325801D01*
X-450074Y-326995D01*
X-454800Y-328953D01*
X-459162Y-331626D01*
X-463052Y-334948D01*
X-466374Y-338838D01*
X-469047Y-343200D01*
X-471005Y-347926D01*
X-472199Y-352900D01*
X-472601Y-358000D01*
X-472199Y-363100D01*
X-471005Y-368074D01*
X-469047Y-372800D01*
X-466374Y-377162D01*
X-463052Y-381052D01*
X-459162Y-384374D01*
X-454800Y-387047D01*
X-450074Y-389005D01*
X-445100Y-390199D01*
X-440000Y-390601D01*
X-434900Y-390199D01*
X-429926Y-389005D01*
X-425200Y-387047D01*
X-420838Y-384374D01*
X-416948Y-381052D01*
X-413626Y-377162D01*
X-410953Y-372800D01*
X-408995Y-368074D01*
X-407801Y-363100D01*
X-407400Y-358000D01*
X-407801Y-352900D01*
X-408995Y-347926D01*
X-410953Y-343200D01*
X-413626Y-338838D01*
X-416948Y-334948D01*
X-420838Y-331626D01*
X-425200Y-328953D01*
X-429926Y-326995D01*
X-434900Y-325801D01*
X-440000Y-325400D01*
D02*
G37*
G36*
X-330757Y-372635D02*
X-332903Y-373062D01*
X-334722Y-374278D01*
X-335938Y-376097D01*
X-336365Y-378243D01*
X-335938Y-380389D01*
X-334722Y-382208D01*
X-332903Y-383424D01*
X-330757Y-383851D01*
X-328611Y-383424D01*
X-326792Y-382208D01*
X-325576Y-380389D01*
X-325149Y-378243D01*
X-325576Y-376097D01*
X-326792Y-374278D01*
X-328611Y-373062D01*
X-330757Y-372635D01*
D02*
G37*
G36*
X-261000Y-356892D02*
X-263146Y-357319D01*
X-264965Y-358535D01*
X-266181Y-360354D01*
X-266608Y-362500D01*
X-266181Y-364646D01*
X-264965Y-366465D01*
X-263146Y-367681D01*
X-261000Y-368108D01*
X-258854Y-367681D01*
X-257035Y-366465D01*
X-255819Y-364646D01*
X-255392Y-362500D01*
X-255819Y-360354D01*
X-257035Y-358535D01*
X-258854Y-357319D01*
X-261000Y-356892D01*
D02*
G37*
G36*
X171000Y-356892D02*
X168854Y-357318D01*
X167034Y-358534D01*
X165819Y-360353D01*
X165392Y-362499D01*
X165819Y-364645D01*
X167034Y-366465D01*
X168854Y-367680D01*
X171000Y-368107D01*
X173146Y-367680D01*
X174965Y-366465D01*
X176180Y-364645D01*
X176607Y-362499D01*
X176180Y-360353D01*
X174965Y-358534D01*
X173146Y-357318D01*
X171000Y-356892D01*
D02*
G37*
G36*
X157500Y-357892D02*
X155354Y-358319D01*
X153535Y-359535D01*
X152319Y-361354D01*
X151892Y-363500D01*
X152319Y-365646D01*
X153535Y-367465D01*
X155354Y-368681D01*
X157500Y-369108D01*
X159646Y-368681D01*
X161465Y-367465D01*
X162681Y-365646D01*
X163108Y-363500D01*
X162681Y-361354D01*
X161465Y-359535D01*
X159646Y-358319D01*
X157500Y-357892D01*
D02*
G37*
G36*
X139000Y-368891D02*
X136854Y-369318D01*
X135035Y-370534D01*
X133819Y-372353D01*
X133392Y-374499D01*
X133819Y-376645D01*
X135035Y-378465D01*
X136854Y-379680D01*
X139000Y-380107D01*
X141146Y-379680D01*
X142965Y-378465D01*
X144181Y-376645D01*
X144607Y-374499D01*
X144181Y-372353D01*
X142965Y-370534D01*
X141146Y-369318D01*
X139000Y-368891D01*
D02*
G37*
G36*
X95000Y-368885D02*
X92854Y-369312D01*
X91035Y-370528D01*
X89819Y-372347D01*
X89436Y-374272D01*
X89193Y-374463D01*
X88789Y-374661D01*
X88165Y-374834D01*
X86646Y-373819D01*
X84500Y-373392D01*
X82354Y-373819D01*
X80535Y-375035D01*
X79319Y-376854D01*
X78892Y-379000D01*
X79319Y-381146D01*
X80535Y-382965D01*
X82354Y-384181D01*
X84500Y-384608D01*
X86646Y-384181D01*
X88465Y-382965D01*
X89681Y-381146D01*
X90064Y-379221D01*
X90307Y-379030D01*
X90711Y-378832D01*
X91335Y-378659D01*
X92854Y-379674D01*
X95000Y-380101D01*
X97146Y-379674D01*
X98965Y-378458D01*
X100181Y-376639D01*
X100608Y-374493D01*
X100181Y-372347D01*
X98965Y-370528D01*
X97146Y-369312D01*
X95000Y-368885D01*
D02*
G37*
G36*
X-185000Y-343892D02*
X-187146Y-344319D01*
X-188965Y-345535D01*
X-190181Y-347354D01*
X-190461Y-348760D01*
X-190506Y-348989D01*
X-191801D01*
X-191847Y-348760D01*
X-192126Y-347354D01*
X-193342Y-345535D01*
X-195161Y-344319D01*
X-197307Y-343892D01*
X-199453Y-344319D01*
X-201272Y-345535D01*
X-202488Y-347354D01*
X-202915Y-349500D01*
X-202488Y-351646D01*
X-201272Y-353465D01*
X-199453Y-354681D01*
X-197307Y-355108D01*
X-195161Y-354681D01*
X-193342Y-353465D01*
X-192126Y-351646D01*
X-191847Y-350240D01*
X-191801Y-350011D01*
X-190506D01*
X-190461Y-350240D01*
X-190181Y-351646D01*
X-188965Y-353465D01*
X-187146Y-354681D01*
X-185000Y-355108D01*
X-182854Y-354681D01*
X-181035Y-353465D01*
X-179819Y-351646D01*
X-179392Y-349500D01*
X-179819Y-347354D01*
X-181035Y-345535D01*
X-182854Y-344319D01*
X-185000Y-343892D01*
D02*
G37*
G36*
X413820Y-328402D02*
X411674Y-328829D01*
X409855Y-330045D01*
X408639Y-331864D01*
X408212Y-334010D01*
X408639Y-336156D01*
X409855Y-337975D01*
X411674Y-339191D01*
X413820Y-339618D01*
X415966Y-339191D01*
X417785Y-337975D01*
X419001Y-336156D01*
X419428Y-334010D01*
X419001Y-331864D01*
X417785Y-330045D01*
X415966Y-328829D01*
X413820Y-328402D01*
D02*
G37*
G36*
X436820Y-332902D02*
X434674Y-333329D01*
X432855Y-334545D01*
X431639Y-336364D01*
X431212Y-338510D01*
X431639Y-340656D01*
X432855Y-342475D01*
X434674Y-343691D01*
X436820Y-344118D01*
X438966Y-343691D01*
X440785Y-342475D01*
X442001Y-340656D01*
X442428Y-338510D01*
X442001Y-336364D01*
X440785Y-334545D01*
X438966Y-333329D01*
X436820Y-332902D01*
D02*
G37*
G36*
X392500Y-331892D02*
X390354Y-332319D01*
X388535Y-333535D01*
X387319Y-335354D01*
X386892Y-337500D01*
X387319Y-339646D01*
X388535Y-341465D01*
X390354Y-342681D01*
X392500Y-343108D01*
X394646Y-342681D01*
X396465Y-341465D01*
X397681Y-339646D01*
X398108Y-337500D01*
X397681Y-335354D01*
X396465Y-333535D01*
X394646Y-332319D01*
X392500Y-331892D01*
D02*
G37*
G36*
X391000Y-316892D02*
X388854Y-317319D01*
X387035Y-318535D01*
X385819Y-320354D01*
X385392Y-322500D01*
X385819Y-324646D01*
X387035Y-326465D01*
X388854Y-327681D01*
X391000Y-328108D01*
X393146Y-327681D01*
X394965Y-326465D01*
X396181Y-324646D01*
X396608Y-322500D01*
X396181Y-320354D01*
X394965Y-318535D01*
X393146Y-317319D01*
X391000Y-316892D01*
D02*
G37*
G36*
X436820Y-312152D02*
X434674Y-312579D01*
X432855Y-313795D01*
X431639Y-315614D01*
X431212Y-317760D01*
X431639Y-319906D01*
X432855Y-321725D01*
X434674Y-322941D01*
X436820Y-323368D01*
X438966Y-322941D01*
X440785Y-321725D01*
X442001Y-319906D01*
X442428Y-317760D01*
X442001Y-315614D01*
X440785Y-313795D01*
X438966Y-312579D01*
X436820Y-312152D01*
D02*
G37*
G36*
X371000Y-322892D02*
X368854Y-323319D01*
X367035Y-324535D01*
X365819Y-326354D01*
X365512Y-327899D01*
X365425Y-328028D01*
X364346Y-328659D01*
X364159Y-328687D01*
X360074Y-326995D01*
X355100Y-325801D01*
X350000Y-325400D01*
X344900Y-325801D01*
X339926Y-326995D01*
X335200Y-328953D01*
X330838Y-331626D01*
X326948Y-334948D01*
X323626Y-338838D01*
X320953Y-343200D01*
X318995Y-347926D01*
X317801Y-352900D01*
X317399Y-358000D01*
X317801Y-363100D01*
X318995Y-368074D01*
X320953Y-372800D01*
X323626Y-377162D01*
X326948Y-381052D01*
X330838Y-384374D01*
X335200Y-387047D01*
X339926Y-389005D01*
X344900Y-390199D01*
X350000Y-390601D01*
X355100Y-390199D01*
X360074Y-389005D01*
X364800Y-387047D01*
X369162Y-384374D01*
X373052Y-381052D01*
X376374Y-377162D01*
X379047Y-372800D01*
X381005Y-368074D01*
X382199Y-363100D01*
X382600Y-358000D01*
X382199Y-352900D01*
X381005Y-347926D01*
X379047Y-343200D01*
X376969Y-339809D01*
X377590Y-338391D01*
X378646Y-338181D01*
X380465Y-336965D01*
X381681Y-335146D01*
X382108Y-333000D01*
X381681Y-330854D01*
X380465Y-329035D01*
X378646Y-327819D01*
X376500Y-327392D01*
X376392Y-327414D01*
X376181Y-326354D01*
X374965Y-324535D01*
X373146Y-323319D01*
X371000Y-322892D01*
D02*
G37*
G36*
X437500Y-27892D02*
X435354Y-28319D01*
X433535Y-29535D01*
X432319Y-31354D01*
X431892Y-33500D01*
X432319Y-35646D01*
X433535Y-37465D01*
X435354Y-38681D01*
X437500Y-39108D01*
X439646Y-38681D01*
X441465Y-37465D01*
X442681Y-35646D01*
X443108Y-33500D01*
X442681Y-31354D01*
X441465Y-29535D01*
X439646Y-28319D01*
X437500Y-27892D01*
D02*
G37*
G36*
Y-44392D02*
X435354Y-44819D01*
X433535Y-46035D01*
X432319Y-47854D01*
X431892Y-50000D01*
X432319Y-52146D01*
X433535Y-53965D01*
X435354Y-55181D01*
X437500Y-55608D01*
X439646Y-55181D01*
X441465Y-53965D01*
X442681Y-52146D01*
X443108Y-50000D01*
X442681Y-47854D01*
X441465Y-46035D01*
X439646Y-44819D01*
X437500Y-44392D01*
D02*
G37*
G36*
X383500Y-43392D02*
X381354Y-43819D01*
X379535Y-45035D01*
X378319Y-46854D01*
X377892Y-49000D01*
X378319Y-51146D01*
X379535Y-52965D01*
X381354Y-54181D01*
X383500Y-54608D01*
X385646Y-54181D01*
X387465Y-52965D01*
X388681Y-51146D01*
X389108Y-49000D01*
X388681Y-46854D01*
X387465Y-45035D01*
X385646Y-43819D01*
X383500Y-43392D01*
D02*
G37*
G36*
X437500Y-60392D02*
X435354Y-60819D01*
X433535Y-62035D01*
X432319Y-63854D01*
X431892Y-66000D01*
X432319Y-68146D01*
X433535Y-69965D01*
X435354Y-71181D01*
X437500Y-71608D01*
X439646Y-71181D01*
X441465Y-69965D01*
X442681Y-68146D01*
X443108Y-66000D01*
X442681Y-63854D01*
X441465Y-62035D01*
X439646Y-60819D01*
X437500Y-60392D01*
D02*
G37*
G36*
X437000Y-12392D02*
X434854Y-12819D01*
X433035Y-14035D01*
X431819Y-15854D01*
X431392Y-18000D01*
X431819Y-20146D01*
X433035Y-21965D01*
X434854Y-23181D01*
X437000Y-23608D01*
X439146Y-23181D01*
X440965Y-21965D01*
X442181Y-20146D01*
X442608Y-18000D01*
X442181Y-15854D01*
X440965Y-14035D01*
X439146Y-12819D01*
X437000Y-12392D01*
D02*
G37*
G36*
X432500Y-144392D02*
X430354Y-144819D01*
X428535Y-146035D01*
X427319Y-147854D01*
X426892Y-150000D01*
X427319Y-152146D01*
X428535Y-153965D01*
X430354Y-155181D01*
X432500Y-155608D01*
X434646Y-155181D01*
X436465Y-153965D01*
X437681Y-152146D01*
X438108Y-150000D01*
X437681Y-147854D01*
X436465Y-146035D01*
X434646Y-144819D01*
X432500Y-144392D01*
D02*
G37*
G36*
X382020Y-216892D02*
X379874Y-217319D01*
X378055Y-218535D01*
X376839Y-220354D01*
X376412Y-222500D01*
X376839Y-224646D01*
X378055Y-226465D01*
X379874Y-227681D01*
X382020Y-228108D01*
X384166Y-227681D01*
X385985Y-226465D01*
X387201Y-224646D01*
X387628Y-222500D01*
X387201Y-220354D01*
X385985Y-218535D01*
X384166Y-217319D01*
X382020Y-216892D01*
D02*
G37*
G36*
X377000Y-204892D02*
X374854Y-205319D01*
X373035Y-206535D01*
X371819Y-208354D01*
X371392Y-210500D01*
X371819Y-212646D01*
X373035Y-214465D01*
X374854Y-215681D01*
X377000Y-216108D01*
X379146Y-215681D01*
X380965Y-214465D01*
X382181Y-212646D01*
X382608Y-210500D01*
X382181Y-208354D01*
X380965Y-206535D01*
X379146Y-205319D01*
X377000Y-204892D01*
D02*
G37*
G36*
X416000Y-229392D02*
X413854Y-229819D01*
X412035Y-231035D01*
X410819Y-232854D01*
X410392Y-235000D01*
X410819Y-237146D01*
X412035Y-238965D01*
X413854Y-240181D01*
X416000Y-240608D01*
X418146Y-240181D01*
X419965Y-238965D01*
X421181Y-237146D01*
X421608Y-235000D01*
X421181Y-232854D01*
X419965Y-231035D01*
X418146Y-229819D01*
X416000Y-229392D01*
D02*
G37*
G36*
X380499Y-241892D02*
X378353Y-242319D01*
X376534Y-243534D01*
X375318Y-245354D01*
X374892Y-247500D01*
X375318Y-249646D01*
X376534Y-251465D01*
X378353Y-252680D01*
X380499Y-253107D01*
X382645Y-252680D01*
X384464Y-251465D01*
X385680Y-249646D01*
X386107Y-247500D01*
X385680Y-245354D01*
X384464Y-243534D01*
X382645Y-242319D01*
X380499Y-241892D01*
D02*
G37*
G36*
X388000Y-169892D02*
X385854Y-170319D01*
X384035Y-171535D01*
X382819Y-173354D01*
X382392Y-175500D01*
X382819Y-177646D01*
X384035Y-179465D01*
X385854Y-180681D01*
X388000Y-181108D01*
X390146Y-180681D01*
X391965Y-179465D01*
X393181Y-177646D01*
X393608Y-175500D01*
X393181Y-173354D01*
X391965Y-171535D01*
X390146Y-170319D01*
X388000Y-169892D01*
D02*
G37*
G36*
X379000Y-186892D02*
X376854Y-187319D01*
X375035Y-188535D01*
X373819Y-190354D01*
X373392Y-192500D01*
X373819Y-194646D01*
X375035Y-196465D01*
X376854Y-197681D01*
X379000Y-198108D01*
X381146Y-197681D01*
X382965Y-196465D01*
X384181Y-194646D01*
X384608Y-192500D01*
X384181Y-190354D01*
X382965Y-188535D01*
X381146Y-187319D01*
X379000Y-186892D01*
D02*
G37*
G36*
X383000Y-87892D02*
X380854Y-88319D01*
X379035Y-89535D01*
X377819Y-91354D01*
X377392Y-93500D01*
X377819Y-95646D01*
X379035Y-97465D01*
X380854Y-98681D01*
X383000Y-99108D01*
X385146Y-98681D01*
X386965Y-97465D01*
X388181Y-95646D01*
X388608Y-93500D01*
X388181Y-91354D01*
X386965Y-89535D01*
X385146Y-88319D01*
X383000Y-87892D01*
D02*
G37*
G36*
X437500Y-92392D02*
X435354Y-92819D01*
X433535Y-94035D01*
X432319Y-95854D01*
X431892Y-98000D01*
X432319Y-100146D01*
X433535Y-101965D01*
X435354Y-103181D01*
X437500Y-103608D01*
X439646Y-103181D01*
X441465Y-101965D01*
X442681Y-100146D01*
X443108Y-98000D01*
X442681Y-95854D01*
X441465Y-94035D01*
X439646Y-92819D01*
X437500Y-92392D01*
D02*
G37*
G36*
Y-76392D02*
X435354Y-76819D01*
X433535Y-78035D01*
X432319Y-79854D01*
X431892Y-82000D01*
X432319Y-84146D01*
X433535Y-85965D01*
X435354Y-87181D01*
X437500Y-87608D01*
X439646Y-87181D01*
X441465Y-85965D01*
X442681Y-84146D01*
X443108Y-82000D01*
X442681Y-79854D01*
X441465Y-78035D01*
X439646Y-76819D01*
X437500Y-76392D01*
D02*
G37*
G36*
Y-108392D02*
X435354Y-108819D01*
X433535Y-110035D01*
X432319Y-111854D01*
X431892Y-114000D01*
X432319Y-116146D01*
X433535Y-117965D01*
X435354Y-119181D01*
X437500Y-119608D01*
X439646Y-119181D01*
X441465Y-117965D01*
X442681Y-116146D01*
X443108Y-114000D01*
X442681Y-111854D01*
X441465Y-110035D01*
X439646Y-108819D01*
X437500Y-108392D01*
D02*
G37*
G36*
X96500Y84608D02*
X94354Y84181D01*
X92535Y82965D01*
X91319Y81146D01*
X90892Y79000D01*
X91319Y76854D01*
X92535Y75035D01*
X94354Y73819D01*
X96500Y73392D01*
X98646Y73819D01*
X100465Y75035D01*
X101681Y76854D01*
X102108Y79000D01*
X101681Y81146D01*
X100465Y82965D01*
X98646Y84181D01*
X96500Y84608D01*
D02*
G37*
G36*
X324500Y-150892D02*
X322354Y-151319D01*
X320535Y-152535D01*
X319319Y-154354D01*
X318892Y-156500D01*
X319319Y-158646D01*
X320535Y-160465D01*
X322354Y-161681D01*
X324500Y-162108D01*
X326646Y-161681D01*
X328465Y-160465D01*
X329681Y-158646D01*
X330108Y-156500D01*
X329681Y-154354D01*
X328465Y-152535D01*
X326646Y-151319D01*
X324500Y-150892D01*
D02*
G37*
G36*
X305999Y-80892D02*
X303853Y-81319D01*
X302034Y-82535D01*
X300819Y-84354D01*
X300392Y-86500D01*
X300819Y-88646D01*
X302034Y-90465D01*
X303853Y-91681D01*
X305999Y-92108D01*
X308145Y-91681D01*
X309965Y-90465D01*
X311180Y-88646D01*
X311607Y-86500D01*
X311180Y-84354D01*
X309965Y-82535D01*
X308145Y-81319D01*
X305999Y-80892D01*
D02*
G37*
G36*
X-435500Y-85392D02*
X-437646Y-85819D01*
X-439465Y-87035D01*
X-440681Y-88854D01*
X-441108Y-91000D01*
X-440681Y-93146D01*
X-439465Y-94965D01*
X-438290Y-95751D01*
Y-97249D01*
X-439465Y-98035D01*
X-440681Y-99854D01*
X-441108Y-102000D01*
X-440681Y-104146D01*
X-439465Y-105965D01*
X-437646Y-107181D01*
X-435500Y-107608D01*
X-433354Y-107181D01*
X-432000Y-106276D01*
X-430646Y-107181D01*
X-428500Y-107608D01*
X-426354Y-107181D01*
X-424535Y-105965D01*
X-423319Y-104146D01*
X-422892Y-102000D01*
X-423319Y-99854D01*
X-424535Y-98035D01*
X-425710Y-97249D01*
Y-95751D01*
X-424535Y-94965D01*
X-423319Y-93146D01*
X-422892Y-91000D01*
X-423319Y-88854D01*
X-424535Y-87035D01*
X-426354Y-85819D01*
X-428500Y-85392D01*
X-430646Y-85819D01*
X-432000Y-86724D01*
X-433354Y-85819D01*
X-435500Y-85392D01*
D02*
G37*
G36*
X-381999Y-42892D02*
X-384145Y-43319D01*
X-385965Y-44535D01*
X-387180Y-46354D01*
X-387607Y-48500D01*
X-387180Y-50646D01*
X-385965Y-52465D01*
X-384145Y-53681D01*
X-381999Y-54108D01*
X-379853Y-53681D01*
X-378034Y-52465D01*
X-376818Y-50646D01*
X-376391Y-48500D01*
X-376818Y-46354D01*
X-378034Y-44535D01*
X-379853Y-43319D01*
X-381999Y-42892D01*
D02*
G37*
G36*
X12000Y-15157D02*
X10147Y-15526D01*
X8575Y-16575D01*
X7526Y-18147D01*
X7157Y-20000D01*
X7526Y-21853D01*
X8575Y-23425D01*
X10147Y-24474D01*
X12000Y-24843D01*
X13853Y-24474D01*
X15424Y-23425D01*
X16474Y-21853D01*
X16843Y-20000D01*
X16474Y-18147D01*
X15424Y-16575D01*
X13853Y-15526D01*
X12000Y-15157D01*
D02*
G37*
G36*
X28000D02*
X26147Y-15526D01*
X24575Y-16575D01*
X23526Y-18147D01*
X23157Y-20000D01*
X23526Y-21853D01*
X24575Y-23425D01*
X26147Y-24474D01*
X28000Y-24843D01*
X29853Y-24474D01*
X31425Y-23425D01*
X32474Y-21853D01*
X32843Y-20000D01*
X32474Y-18147D01*
X31425Y-16575D01*
X29853Y-15526D01*
X28000Y-15157D01*
D02*
G37*
G36*
X-237000D02*
X-238853Y-15526D01*
X-240425Y-16575D01*
X-241474Y-18147D01*
X-241843Y-20000D01*
X-241474Y-21853D01*
X-240425Y-23425D01*
X-238853Y-24474D01*
X-237000Y-24843D01*
X-235147Y-24474D01*
X-233575Y-23425D01*
X-232526Y-21853D01*
X-232157Y-20000D01*
X-232526Y-18147D01*
X-233575Y-16575D01*
X-235147Y-15526D01*
X-237000Y-15157D01*
D02*
G37*
G36*
X-285000D02*
X-286853Y-15526D01*
X-288425Y-16575D01*
X-289474Y-18147D01*
X-289843Y-20000D01*
X-289474Y-21853D01*
X-288425Y-23425D01*
X-286853Y-24474D01*
X-285000Y-24843D01*
X-283147Y-24474D01*
X-281576Y-23425D01*
X-280526Y-21853D01*
X-280157Y-20000D01*
X-280526Y-18147D01*
X-281576Y-16575D01*
X-283147Y-15526D01*
X-285000Y-15157D01*
D02*
G37*
G36*
X-229000Y-7157D02*
X-230853Y-7526D01*
X-232425Y-8575D01*
X-233474Y-10147D01*
X-233843Y-12000D01*
X-233474Y-13853D01*
X-232425Y-15425D01*
X-230853Y-16474D01*
X-229000Y-16843D01*
X-227147Y-16474D01*
X-225576Y-15425D01*
X-224526Y-13853D01*
X-224157Y-12000D01*
X-224526Y-10147D01*
X-225576Y-8575D01*
X-227147Y-7526D01*
X-229000Y-7157D01*
D02*
G37*
G36*
X36000Y843D02*
X34147Y474D01*
X32575Y-575D01*
X31526Y-2147D01*
X31157Y-4000D01*
X31526Y-5853D01*
X32575Y-7425D01*
X34147Y-8474D01*
X36000Y-8843D01*
X37853Y-8474D01*
X39425Y-7425D01*
X40474Y-5853D01*
X40843Y-4000D01*
X40474Y-2147D01*
X39425Y-575D01*
X37853Y474D01*
X36000Y843D01*
D02*
G37*
G36*
X44000Y-7351D02*
X42147Y-7719D01*
X40575Y-8769D01*
X39526Y-10340D01*
X39157Y-12194D01*
X39526Y-14047D01*
X40575Y-15618D01*
X42147Y-16668D01*
X44000Y-17037D01*
X45853Y-16668D01*
X47425Y-15618D01*
X48474Y-14047D01*
X48843Y-12194D01*
X48474Y-10340D01*
X47425Y-8769D01*
X45853Y-7719D01*
X44000Y-7351D01*
D02*
G37*
G36*
X-136500Y-6392D02*
X-138646Y-6819D01*
X-140465Y-8035D01*
X-141681Y-9854D01*
X-142107Y-12000D01*
X-141681Y-14146D01*
X-140465Y-15965D01*
X-138646Y-17181D01*
X-136500Y-17608D01*
X-134354Y-17181D01*
X-132535Y-15965D01*
X-131319Y-14146D01*
X-130892Y-12000D01*
X-131319Y-9854D01*
X-132535Y-8035D01*
X-134354Y-6819D01*
X-136500Y-6392D01*
D02*
G37*
G36*
X-365743Y-88645D02*
X-367889Y-89072D01*
X-369708Y-90287D01*
X-370924Y-92106D01*
X-371350Y-94252D01*
X-370924Y-96398D01*
X-369708Y-98218D01*
X-367889Y-99433D01*
X-365743Y-99860D01*
X-363597Y-99433D01*
X-361777Y-98218D01*
X-360562Y-96398D01*
X-360135Y-94252D01*
X-360562Y-92106D01*
X-361777Y-90287D01*
X-363597Y-89072D01*
X-365743Y-88645D01*
D02*
G37*
%LPD*%
D40*
X-4000Y-76000D02*
Y-66000D01*
X10000Y-52000D01*
X20000D01*
Y-36000D01*
D42*
X-413999Y-125000D02*
X-409499Y-120500D01*
D45*
X-350230Y95270D02*
X-66000D01*
X396000Y51000D02*
Y80000D01*
X367000Y-154770D02*
Y22000D01*
X396000Y51000D01*
X-75000Y94500D02*
X-66770D01*
X361770Y-160000D02*
X367000Y-154770D01*
X338500Y-160000D02*
X361770D01*
X322500Y-176000D02*
X338500Y-160000D01*
X-435000Y-243500D02*
X-424000D01*
X-441500Y-250000D02*
X-435000Y-243500D01*
X-441500Y-286360D02*
Y-250000D01*
X-399000Y-258500D02*
X-395500Y-255000D01*
X-399000Y-310500D02*
Y-258500D01*
X-66770Y94500D02*
X-66000Y95270D01*
X380000Y96000D02*
X396000Y80000D01*
X335917Y96000D02*
X380000D01*
X335187Y95270D02*
X335917Y96000D01*
X-66000Y95270D02*
X335187D01*
X-441500Y-286360D02*
X-417361Y-310500D01*
X-399000D01*
X273000Y-246500D02*
X275999Y-243500D01*
Y-200501D02*
X276500Y-200000D01*
X275999Y-243500D02*
Y-200501D01*
X276500Y-200000D02*
X277398D01*
X301399Y-176000D01*
X322500D01*
X-424000Y-243500D02*
X-336620Y-156120D01*
Y-152137D01*
D46*
X128500Y-185000D02*
X153000D01*
X116500Y-197000D02*
X128500Y-185000D01*
X42500Y-197000D02*
X116500D01*
X-22000Y-132500D02*
X42500Y-197000D01*
X-159500Y-242500D02*
X-91500Y-174500D01*
Y-136500D01*
X54500Y-269500D02*
Y-269000D01*
X-42500Y-152000D02*
Y-149000D01*
Y-152000D02*
X54000Y-248500D01*
X125000D01*
X-85500Y-120500D02*
X-85500Y-120500D01*
X246000Y-281000D02*
Y-255000D01*
Y-281000D02*
X270000Y-305000D01*
X298500D01*
X310500Y-317000D01*
X-91500Y-125965D02*
Y-109000D01*
Y-125965D02*
X53017Y-270483D01*
X-85500Y-126000D02*
Y-120500D01*
X58000Y-263500D02*
X64000Y-269500D01*
X-85500Y-126000D02*
X52000Y-263500D01*
X58000D01*
X53605Y-258105D02*
X65605D01*
X76000Y-268500D01*
X196500Y38500D02*
X197520Y37480D01*
Y-117579D02*
Y37480D01*
X159000Y-129500D02*
X185599D01*
X197520Y-117579D01*
X188000Y-238500D02*
X189500Y-237000D01*
Y-226985D01*
X189000Y-226485D02*
X189500Y-226985D01*
X153000Y-185000D02*
X189000Y-221000D01*
Y-226485D02*
Y-221000D01*
X-74500Y-130000D02*
X53605Y-258105D01*
X-74500Y-130000D02*
Y-126500D01*
X53017Y-270483D02*
X54500Y-269000D01*
D52*
X385000Y-67000D02*
D03*
X-189500Y9000D02*
D03*
X438500Y-5500D02*
D03*
Y2000D02*
D03*
Y9000D02*
D03*
Y16000D02*
D03*
X-31500Y-79500D02*
D03*
X338500Y-176500D02*
D03*
X-367000Y-355000D02*
D03*
X-75000Y94500D02*
D03*
X276500Y-200000D02*
D03*
X273000Y-246500D02*
D03*
X246000Y-255000D02*
D03*
X188000Y-238500D02*
D03*
X-22000Y-132500D02*
D03*
X-334000Y-112000D02*
D03*
X-399000Y-310500D02*
D03*
X323000Y18000D02*
D03*
X271500Y8500D02*
D03*
X229200Y33496D02*
D03*
X-84500Y67000D02*
D03*
X73500Y32500D02*
D03*
X-395500Y-255000D02*
D03*
X159000Y-129500D02*
D03*
X215000Y-80000D02*
D03*
X283499Y-77000D02*
D03*
X-42500Y-149000D02*
D03*
X125000Y-248500D02*
D03*
X-91500Y-109000D02*
D03*
Y-136500D02*
D03*
X296500Y-157500D02*
D03*
X312000Y-156500D02*
D03*
X-74500Y-126500D02*
D03*
X196500Y38500D02*
D03*
X-159500Y-242500D02*
D03*
X301000Y-273000D02*
D03*
X-454000Y-66000D02*
D03*
X-412999Y-67000D02*
D03*
X-427500Y-79000D02*
D03*
X-419499Y-7500D02*
D03*
X-409500Y36000D02*
D03*
X-431000Y-255000D02*
D03*
X-462500Y-66000D02*
D03*
X-390500Y-38000D02*
D03*
X-361500Y-500D02*
D03*
X382499Y-73500D02*
D03*
X54500Y-269500D02*
D03*
X76000Y-268500D02*
D03*
X64000Y-269500D02*
D03*
X-85500Y-120500D02*
D03*
X-367000Y-348500D02*
D03*
X-375000D02*
D03*
Y-355000D02*
D03*
X-433999Y-135500D02*
D03*
X205500Y-22000D02*
D03*
X-400499Y-161000D02*
D03*
X-433270Y-218309D02*
D03*
X-33500Y-87000D02*
D03*
X-409499Y-120500D02*
D03*
X-472000Y35000D02*
D03*
X-472500Y26000D02*
D03*
Y18000D02*
D03*
X-465000Y30000D02*
D03*
X-465500Y22000D02*
D03*
X-417000Y34000D02*
D03*
X-413999Y-125000D02*
D03*
X-397000Y-165000D02*
D03*
X-336620Y-152137D02*
D03*
X355000Y-305000D02*
D03*
D53*
X-23500Y22500D02*
D03*
X67153Y-83347D02*
D03*
X-329000Y16000D02*
D03*
X-301000Y-12000D02*
D03*
X-193000Y16000D02*
D03*
X-293000Y-84000D02*
D03*
X-229000D02*
D03*
X-261000Y-36000D02*
D03*
X-293000Y-4000D02*
D03*
X-229000D02*
D03*
X-221000Y-76000D02*
D03*
X68000Y-4000D02*
D03*
X4000D02*
D03*
X36000Y-36000D02*
D03*
X4000Y-84000D02*
D03*
X36000Y-52000D02*
D03*
X104000Y16000D02*
D03*
Y-104000D02*
D03*
X-4000Y-76000D02*
D03*
X52000Y-52000D02*
D03*
X20000D02*
D03*
Y-36000D02*
D03*
X-4000Y-12000D02*
D03*
X52000Y-36000D02*
D03*
X-261000Y-54000D02*
D03*
X-32000Y-108000D02*
D03*
M02*
