G04 Layer_Color=16711935*
%FSLAX44Y44*%
%MOMM*%
G71*
G01*
G75*
%ADD89R,0.7100X0.7100*%
%ADD90R,0.8000X0.8000*%
%ADD91R,0.8000X0.8000*%
%ADD101R,0.7100X0.7100*%
%ADD104R,1.7300X2.4800*%
%ADD105O,0.9800X0.4800*%
%ADD106R,1.1100X1.1600*%
%ADD108R,1.1600X1.1100*%
%ADD116R,2.8600X1.1600*%
%ADD117R,1.8600X0.7600*%
%ADD120C,0.1600*%
%ADD121C,6.1600*%
%ADD122R,1.1100X0.9600*%
%ADD123R,2.9030X2.3190*%
%ADD124R,0.7600X1.8600*%
%ADD125R,1.1600X2.8600*%
%ADD126R,0.9220X1.8745*%
%ADD127R,0.7400X1.6900*%
%ADD128R,1.3400X1.9400*%
%ADD129R,0.8100X1.3600*%
%ADD130R,0.8800X0.3800*%
%ADD131R,2.2800X2.4800*%
%ADD132R,0.9300X1.3800*%
%ADD133R,0.7400X0.7400*%
%ADD134R,0.7200X0.7200*%
%ADD135R,0.7400X0.7400*%
%ADD136R,0.7200X0.7200*%
%ADD137R,1.3800X1.9800*%
%ADD138R,1.0800X2.8800*%
%ADD139R,1.0800X0.8800*%
%ADD140R,1.0800X1.2800*%
%ADD141R,0.7800X1.2800*%
%ADD142R,2.2100X3.2100*%
%ADD143C,0.2400*%
%ADD144O,0.2900X0.9400*%
%ADD145O,0.9400X0.2900*%
%ADD146R,1.7400X1.7400*%
%ADD147R,1.5600X1.9600*%
%ADD148R,2.6100X3.5100*%
G04:AMPARAMS|DCode=149|XSize=0.38mm|YSize=1.68mm|CornerRadius=0mm|HoleSize=0mm|Usage=FLASHONLY|Rotation=135.000|XOffset=0mm|YOffset=0mm|HoleType=Round|Shape=Round|*
%AMOVALD149*
21,1,1.3000,0.3800,0.0000,0.0000,225.0*
1,1,0.3800,0.4596,0.4596*
1,1,0.3800,-0.4596,-0.4596*
%
%ADD149OVALD149*%

G04:AMPARAMS|DCode=150|XSize=0.38mm|YSize=1.68mm|CornerRadius=0mm|HoleSize=0mm|Usage=FLASHONLY|Rotation=225.000|XOffset=0mm|YOffset=0mm|HoleType=Round|Shape=Round|*
%AMOVALD150*
21,1,1.3000,0.3800,0.0000,0.0000,315.0*
1,1,0.3800,-0.4596,0.4596*
1,1,0.3800,0.4596,-0.4596*
%
%ADD150OVALD150*%

G04:AMPARAMS|DCode=151|XSize=1.16mm|YSize=1.11mm|CornerRadius=0mm|HoleSize=0mm|Usage=FLASHONLY|Rotation=135.000|XOffset=0mm|YOffset=0mm|HoleType=Round|Shape=Rectangle|*
%AMROTATEDRECTD151*
4,1,4,0.8026,-0.0177,0.0177,-0.8026,-0.8026,0.0177,-0.0177,0.8026,0.8026,-0.0177,0.0*
%
%ADD151ROTATEDRECTD151*%

%ADD152R,1.1600X2.5100*%
%ADD153R,3.4600X2.5100*%
%ADD154P,1.1314X4X360.0*%
G04:AMPARAMS|DCode=155|XSize=1.56mm|YSize=1.31mm|CornerRadius=0mm|HoleSize=0mm|Usage=FLASHONLY|Rotation=135.000|XOffset=0mm|YOffset=0mm|HoleType=Round|Shape=Rectangle|*
%AMROTATEDRECTD155*
4,1,4,1.0147,-0.0884,0.0884,-1.0147,-1.0147,0.0884,-0.0884,1.0147,1.0147,-0.0884,0.0*
%
%ADD155ROTATEDRECTD155*%

%ADD156R,1.1600X0.7600*%
%ADD157C,0.6800*%
%ADD158C,0.9600*%
%ADD159C,0.8800*%
G36*
X-429270Y-284999D02*
X-429221Y-285004D01*
X-429148Y-285026D01*
X-429126Y-285033D01*
X-429040Y-285079D01*
X-428964Y-285141D01*
X-428141Y-285963D01*
X-428079Y-286040D01*
X-428032Y-286126D01*
X-428026Y-286148D01*
X-428004Y-286221D01*
X-427999Y-286270D01*
X-427994Y-286319D01*
X-427994Y-286319D01*
Y-287481D01*
Y-287481D01*
D01*
X-427995Y-287490D01*
X-428004Y-287579D01*
X-428032Y-287673D01*
X-428054Y-287714D01*
X-428079Y-287760D01*
X-428107Y-287795D01*
X-428141Y-287837D01*
X-428142Y-287837D01*
X-428963Y-288659D01*
X-428964Y-288659D01*
X-428998Y-288687D01*
X-429040Y-288721D01*
X-429127Y-288768D01*
X-429221Y-288796D01*
X-429230Y-288797D01*
X-429319Y-288806D01*
X-429319Y-288806D01*
X-429900D01*
X-429934Y-288802D01*
X-437000D01*
X-437098Y-288793D01*
X-437192Y-288764D01*
X-437279Y-288718D01*
X-437355Y-288655D01*
X-437418Y-288579D01*
X-437464Y-288492D01*
X-437493Y-288398D01*
X-437502Y-288300D01*
Y-285500D01*
X-437493Y-285402D01*
X-437464Y-285308D01*
X-437418Y-285221D01*
X-437355Y-285145D01*
X-437279Y-285082D01*
X-437192Y-285036D01*
X-437098Y-285007D01*
X-437000Y-284998D01*
X-429934D01*
X-429900Y-284994D01*
X-429319D01*
X-429319Y-284994D01*
X-429270Y-284999D01*
D02*
G37*
G36*
X-401681Y-289994D02*
X-401100D01*
X-401066Y-289998D01*
X-394000D01*
X-393902Y-290007D01*
X-393808Y-290036D01*
X-393721Y-290082D01*
X-393645Y-290145D01*
X-393582Y-290221D01*
X-393536Y-290308D01*
X-393507Y-290402D01*
X-393498Y-290500D01*
Y-293300D01*
X-393507Y-293398D01*
X-393536Y-293492D01*
X-393582Y-293579D01*
X-393645Y-293655D01*
X-393721Y-293718D01*
X-393808Y-293764D01*
X-393902Y-293793D01*
X-394000Y-293802D01*
X-401066D01*
X-401100Y-293806D01*
X-401681D01*
X-401681Y-293806D01*
X-401771Y-293797D01*
X-401779Y-293796D01*
X-401874Y-293768D01*
X-401960Y-293721D01*
X-402002Y-293687D01*
X-402037Y-293659D01*
X-402037Y-293658D01*
X-402859Y-292836D01*
X-402921Y-292760D01*
X-402967Y-292674D01*
X-402974Y-292652D01*
X-402996Y-292579D01*
X-403001Y-292530D01*
X-403006Y-292481D01*
X-403006Y-292481D01*
Y-291319D01*
X-402996Y-291221D01*
X-402974Y-291148D01*
X-402967Y-291126D01*
X-402921Y-291040D01*
X-402859Y-290963D01*
X-402037Y-290142D01*
X-402037Y-290141D01*
X-401960Y-290079D01*
X-401874Y-290033D01*
X-401852Y-290026D01*
X-401779Y-290004D01*
X-401730Y-289999D01*
X-401681Y-289994D01*
X-401681Y-289994D01*
D02*
G37*
G36*
Y-284994D02*
X-401100D01*
X-401066Y-284998D01*
X-394000D01*
X-393902Y-285007D01*
X-393808Y-285036D01*
X-393721Y-285082D01*
X-393645Y-285145D01*
X-393582Y-285221D01*
X-393536Y-285308D01*
X-393507Y-285402D01*
X-393498Y-285500D01*
Y-288300D01*
X-393507Y-288398D01*
X-393536Y-288492D01*
X-393582Y-288579D01*
X-393645Y-288655D01*
X-393721Y-288718D01*
X-393808Y-288764D01*
X-393902Y-288793D01*
X-394000Y-288802D01*
X-401066D01*
X-401100Y-288806D01*
X-401681D01*
X-401681Y-288806D01*
X-401771Y-288797D01*
X-401779Y-288796D01*
X-401874Y-288768D01*
X-401960Y-288721D01*
X-402002Y-288687D01*
X-402037Y-288659D01*
X-402037Y-288659D01*
X-402859Y-287837D01*
X-402921Y-287760D01*
X-402967Y-287674D01*
X-402974Y-287652D01*
X-402996Y-287579D01*
X-403001Y-287530D01*
X-403006Y-287481D01*
X-403006Y-287481D01*
Y-286319D01*
X-402996Y-286221D01*
X-402974Y-286148D01*
X-402967Y-286126D01*
X-402921Y-286040D01*
X-402859Y-285963D01*
X-402037Y-285142D01*
X-402037Y-285141D01*
X-401960Y-285079D01*
X-401874Y-285033D01*
X-401852Y-285026D01*
X-401779Y-285004D01*
X-401730Y-284999D01*
X-401681Y-284994D01*
X-401681Y-284994D01*
D02*
G37*
G36*
Y-279994D02*
X-401100D01*
X-401066Y-279998D01*
X-394000D01*
X-393902Y-280007D01*
X-393808Y-280036D01*
X-393721Y-280082D01*
X-393645Y-280145D01*
X-393582Y-280221D01*
X-393536Y-280308D01*
X-393507Y-280402D01*
X-393498Y-280500D01*
Y-283300D01*
X-393507Y-283398D01*
X-393536Y-283492D01*
X-393582Y-283579D01*
X-393645Y-283655D01*
X-393721Y-283718D01*
X-393808Y-283764D01*
X-393902Y-283793D01*
X-394000Y-283802D01*
X-401066D01*
X-401100Y-283806D01*
X-401681D01*
X-401681Y-283806D01*
X-401771Y-283797D01*
X-401779Y-283796D01*
X-401874Y-283768D01*
X-401960Y-283721D01*
X-402002Y-283687D01*
X-402037Y-283659D01*
X-402037Y-283658D01*
X-402859Y-282836D01*
X-402921Y-282760D01*
X-402967Y-282674D01*
X-402974Y-282652D01*
X-402996Y-282579D01*
X-403001Y-282530D01*
X-403006Y-282481D01*
X-403006Y-282481D01*
Y-281319D01*
X-402996Y-281221D01*
X-402974Y-281148D01*
X-402967Y-281126D01*
X-402921Y-281040D01*
X-402859Y-280963D01*
X-402037Y-280142D01*
X-402037Y-280141D01*
X-401960Y-280079D01*
X-401874Y-280033D01*
X-401852Y-280026D01*
X-401779Y-280004D01*
X-401730Y-279999D01*
X-401681Y-279994D01*
X-401681Y-279994D01*
D02*
G37*
G36*
X-429270Y-279999D02*
X-429221Y-280004D01*
X-429148Y-280026D01*
X-429126Y-280033D01*
X-429040Y-280079D01*
X-428964Y-280141D01*
X-428141Y-280963D01*
X-428079Y-281040D01*
X-428032Y-281126D01*
X-428026Y-281148D01*
X-428004Y-281221D01*
X-427999Y-281270D01*
X-427994Y-281319D01*
X-427994Y-281319D01*
Y-282481D01*
Y-282481D01*
D01*
X-427995Y-282490D01*
X-428004Y-282579D01*
X-428032Y-282673D01*
X-428054Y-282714D01*
X-428079Y-282760D01*
X-428107Y-282795D01*
X-428141Y-282836D01*
X-428142Y-282837D01*
X-428963Y-283658D01*
X-428964Y-283659D01*
X-428998Y-283687D01*
X-429040Y-283721D01*
X-429127Y-283768D01*
X-429221Y-283796D01*
X-429230Y-283797D01*
X-429319Y-283806D01*
X-429319Y-283806D01*
X-429900D01*
X-429934Y-283802D01*
X-437000D01*
X-437098Y-283793D01*
X-437192Y-283764D01*
X-437279Y-283718D01*
X-437355Y-283655D01*
X-437418Y-283579D01*
X-437464Y-283492D01*
X-437493Y-283398D01*
X-437502Y-283300D01*
Y-280500D01*
X-437493Y-280402D01*
X-437464Y-280308D01*
X-437418Y-280221D01*
X-437355Y-280145D01*
X-437279Y-280082D01*
X-437192Y-280036D01*
X-437098Y-280007D01*
X-437000Y-279998D01*
X-429934D01*
X-429900Y-279994D01*
X-429319D01*
X-429319Y-279994D01*
X-429270Y-279999D01*
D02*
G37*
G36*
X-401681Y-294994D02*
X-401100D01*
X-401066Y-294998D01*
X-394000D01*
X-393902Y-295007D01*
X-393808Y-295036D01*
X-393721Y-295082D01*
X-393645Y-295145D01*
X-393582Y-295221D01*
X-393536Y-295308D01*
X-393507Y-295402D01*
X-393498Y-295500D01*
Y-298300D01*
X-393507Y-298398D01*
X-393536Y-298492D01*
X-393582Y-298579D01*
X-393645Y-298655D01*
X-393721Y-298718D01*
X-393808Y-298764D01*
X-393902Y-298793D01*
X-394000Y-298802D01*
X-401066D01*
X-401100Y-298806D01*
X-401681D01*
X-401681Y-298806D01*
X-401771Y-298797D01*
X-401779Y-298796D01*
X-401874Y-298768D01*
X-401960Y-298721D01*
X-402002Y-298687D01*
X-402037Y-298659D01*
X-402037Y-298658D01*
X-402859Y-297836D01*
X-402921Y-297760D01*
X-402967Y-297673D01*
X-402974Y-297652D01*
X-402996Y-297579D01*
X-403001Y-297530D01*
X-403006Y-297481D01*
X-403006Y-297481D01*
Y-296319D01*
X-402996Y-296221D01*
X-402974Y-296148D01*
X-402967Y-296126D01*
X-402921Y-296040D01*
X-402859Y-295963D01*
X-402037Y-295142D01*
X-402037Y-295141D01*
X-401960Y-295079D01*
X-401874Y-295033D01*
X-401852Y-295026D01*
X-401779Y-295004D01*
X-401730Y-294999D01*
X-401681Y-294994D01*
X-401681Y-294994D01*
D02*
G37*
G36*
X-429270Y-294999D02*
X-429221Y-295004D01*
X-429148Y-295026D01*
X-429126Y-295033D01*
X-429040Y-295079D01*
X-428964Y-295141D01*
X-428141Y-295963D01*
X-428079Y-296040D01*
X-428032Y-296126D01*
X-428026Y-296148D01*
X-428004Y-296221D01*
X-427999Y-296270D01*
X-427994Y-296319D01*
X-427994Y-296319D01*
Y-297481D01*
Y-297481D01*
D01*
X-427995Y-297490D01*
X-428004Y-297579D01*
X-428032Y-297673D01*
X-428054Y-297714D01*
X-428079Y-297760D01*
X-428107Y-297795D01*
X-428141Y-297836D01*
X-428142Y-297837D01*
X-428963Y-298658D01*
X-428964Y-298659D01*
X-428998Y-298687D01*
X-429040Y-298721D01*
X-429127Y-298768D01*
X-429221Y-298796D01*
X-429230Y-298797D01*
X-429319Y-298806D01*
X-429319Y-298806D01*
X-429900D01*
X-429934Y-298802D01*
X-437000D01*
X-437098Y-298793D01*
X-437192Y-298764D01*
X-437279Y-298718D01*
X-437355Y-298655D01*
X-437418Y-298579D01*
X-437464Y-298492D01*
X-437493Y-298398D01*
X-437502Y-298300D01*
Y-295500D01*
X-437493Y-295402D01*
X-437464Y-295308D01*
X-437418Y-295221D01*
X-437355Y-295145D01*
X-437279Y-295082D01*
X-437192Y-295036D01*
X-437098Y-295007D01*
X-437000Y-294998D01*
X-429934D01*
X-429900Y-294994D01*
X-429319D01*
X-429319Y-294994D01*
X-429270Y-294999D01*
D02*
G37*
G36*
X-422370Y-296899D02*
X-422321Y-296904D01*
X-422248Y-296926D01*
X-422226Y-296933D01*
X-422140Y-296979D01*
X-422063Y-297041D01*
X-421241Y-297864D01*
X-421179Y-297940D01*
X-421133Y-298027D01*
X-421126Y-298048D01*
X-421104Y-298121D01*
X-421099Y-298170D01*
X-421094Y-298219D01*
X-421094Y-298219D01*
Y-298800D01*
X-421098Y-298834D01*
Y-305900D01*
X-421107Y-305998D01*
X-421136Y-306092D01*
X-421182Y-306179D01*
X-421245Y-306255D01*
X-421321Y-306318D01*
X-421408Y-306364D01*
X-421502Y-306393D01*
X-421600Y-306402D01*
X-424400D01*
X-424498Y-306393D01*
X-424592Y-306364D01*
X-424679Y-306318D01*
X-424755Y-306255D01*
X-424818Y-306179D01*
X-424864Y-306092D01*
X-424893Y-305998D01*
X-424902Y-305900D01*
Y-298834D01*
X-424906Y-298800D01*
Y-298219D01*
X-424896Y-298121D01*
X-424874Y-298048D01*
X-424868Y-298027D01*
X-424821Y-297940D01*
X-424759Y-297864D01*
X-423937Y-297041D01*
X-423937Y-297041D01*
X-423860Y-296979D01*
X-423773Y-296933D01*
X-423752Y-296926D01*
X-423679Y-296904D01*
X-423630Y-296899D01*
X-423581Y-296894D01*
X-423581Y-296894D01*
X-422419D01*
X-422419Y-296894D01*
X-422370Y-296899D01*
D02*
G37*
G36*
X-429270Y-289999D02*
X-429221Y-290004D01*
X-429148Y-290026D01*
X-429126Y-290033D01*
X-429040Y-290079D01*
X-428964Y-290141D01*
X-428141Y-290963D01*
X-428079Y-291040D01*
X-428032Y-291126D01*
X-428026Y-291148D01*
X-428004Y-291221D01*
X-427999Y-291270D01*
X-427994Y-291319D01*
X-427994Y-291319D01*
Y-292481D01*
Y-292481D01*
D01*
X-427995Y-292490D01*
X-428004Y-292579D01*
X-428032Y-292673D01*
X-428054Y-292714D01*
X-428079Y-292760D01*
X-428107Y-292795D01*
X-428141Y-292836D01*
X-428142Y-292837D01*
X-428963Y-293658D01*
X-428964Y-293659D01*
X-428998Y-293687D01*
X-429040Y-293721D01*
X-429127Y-293768D01*
X-429221Y-293796D01*
X-429230Y-293797D01*
X-429319Y-293806D01*
X-429319Y-293806D01*
X-429900D01*
X-429934Y-293802D01*
X-437000D01*
X-437098Y-293793D01*
X-437192Y-293764D01*
X-437279Y-293718D01*
X-437355Y-293655D01*
X-437418Y-293579D01*
X-437464Y-293492D01*
X-437493Y-293398D01*
X-437502Y-293300D01*
Y-290500D01*
X-437493Y-290402D01*
X-437464Y-290308D01*
X-437418Y-290221D01*
X-437355Y-290145D01*
X-437279Y-290082D01*
X-437192Y-290036D01*
X-437098Y-290007D01*
X-437000Y-289998D01*
X-429934D01*
X-429900Y-289994D01*
X-429319D01*
X-429319Y-289994D01*
X-429270Y-289999D01*
D02*
G37*
G36*
X-407370Y-296899D02*
X-407321Y-296904D01*
X-407248Y-296926D01*
X-407226Y-296933D01*
X-407140Y-296979D01*
X-407063Y-297041D01*
X-406241Y-297864D01*
X-406179Y-297940D01*
X-406133Y-298027D01*
X-406126Y-298048D01*
X-406104Y-298121D01*
X-406099Y-298170D01*
X-406094Y-298219D01*
X-406094Y-298219D01*
Y-298800D01*
X-406098Y-298834D01*
Y-305900D01*
X-406107Y-305998D01*
X-406136Y-306092D01*
X-406182Y-306179D01*
X-406245Y-306255D01*
X-406321Y-306318D01*
X-406408Y-306364D01*
X-406502Y-306393D01*
X-406600Y-306402D01*
X-409400D01*
X-409498Y-306393D01*
X-409592Y-306364D01*
X-409679Y-306318D01*
X-409755Y-306255D01*
X-409818Y-306179D01*
X-409864Y-306092D01*
X-409893Y-305998D01*
X-409902Y-305900D01*
Y-298834D01*
X-409906Y-298800D01*
Y-298219D01*
X-409896Y-298121D01*
X-409874Y-298048D01*
X-409868Y-298027D01*
X-409821Y-297940D01*
X-409759Y-297864D01*
X-408937Y-297041D01*
X-408937Y-297041D01*
X-408860Y-296979D01*
X-408773Y-296933D01*
X-408752Y-296926D01*
X-408679Y-296904D01*
X-408630Y-296899D01*
X-408581Y-296894D01*
X-408581Y-296894D01*
X-407419D01*
X-407419Y-296894D01*
X-407370Y-296899D01*
D02*
G37*
G36*
X-429270Y-259999D02*
X-429221Y-260004D01*
X-429148Y-260026D01*
X-429126Y-260033D01*
X-429040Y-260079D01*
X-428964Y-260141D01*
X-428141Y-260963D01*
X-428079Y-261040D01*
X-428032Y-261126D01*
X-428026Y-261148D01*
X-428004Y-261221D01*
X-427999Y-261270D01*
X-427994Y-261319D01*
X-427994Y-261319D01*
Y-262481D01*
Y-262481D01*
D01*
X-427995Y-262490D01*
X-428004Y-262579D01*
X-428032Y-262673D01*
X-428054Y-262714D01*
X-428079Y-262760D01*
X-428107Y-262795D01*
X-428141Y-262837D01*
X-428142Y-262837D01*
X-428963Y-263659D01*
X-428964Y-263659D01*
X-428998Y-263687D01*
X-429040Y-263721D01*
X-429127Y-263768D01*
X-429221Y-263796D01*
X-429230Y-263797D01*
X-429319Y-263806D01*
X-429319Y-263806D01*
X-429900D01*
X-429934Y-263802D01*
X-437000D01*
X-437098Y-263793D01*
X-437192Y-263764D01*
X-437279Y-263718D01*
X-437355Y-263655D01*
X-437418Y-263579D01*
X-437464Y-263492D01*
X-437493Y-263398D01*
X-437502Y-263300D01*
Y-260500D01*
X-437493Y-260402D01*
X-437464Y-260308D01*
X-437418Y-260221D01*
X-437355Y-260145D01*
X-437279Y-260082D01*
X-437192Y-260036D01*
X-437098Y-260007D01*
X-437000Y-259998D01*
X-429934D01*
X-429900Y-259994D01*
X-429319D01*
X-429319Y-259994D01*
X-429270Y-259999D01*
D02*
G37*
G36*
X-401681Y-264994D02*
X-401100D01*
X-401066Y-264998D01*
X-394000D01*
X-393902Y-265007D01*
X-393808Y-265036D01*
X-393721Y-265082D01*
X-393645Y-265145D01*
X-393582Y-265221D01*
X-393536Y-265308D01*
X-393507Y-265402D01*
X-393498Y-265500D01*
Y-268300D01*
X-393507Y-268398D01*
X-393536Y-268492D01*
X-393582Y-268579D01*
X-393645Y-268655D01*
X-393721Y-268718D01*
X-393808Y-268764D01*
X-393902Y-268793D01*
X-394000Y-268802D01*
X-401066D01*
X-401100Y-268806D01*
X-401681D01*
X-401681Y-268806D01*
X-401771Y-268797D01*
X-401779Y-268796D01*
X-401874Y-268768D01*
X-401960Y-268721D01*
X-402002Y-268687D01*
X-402037Y-268659D01*
X-402037Y-268658D01*
X-402859Y-267836D01*
X-402921Y-267760D01*
X-402967Y-267674D01*
X-402974Y-267652D01*
X-402996Y-267579D01*
X-403001Y-267530D01*
X-403006Y-267481D01*
X-403006Y-267481D01*
Y-266319D01*
X-402996Y-266221D01*
X-402974Y-266148D01*
X-402967Y-266126D01*
X-402921Y-266040D01*
X-402859Y-265963D01*
X-402037Y-265142D01*
X-402037Y-265141D01*
X-401960Y-265079D01*
X-401874Y-265033D01*
X-401852Y-265026D01*
X-401779Y-265004D01*
X-401730Y-264999D01*
X-401681Y-264994D01*
X-401681Y-264994D01*
D02*
G37*
G36*
Y-259994D02*
X-401100D01*
X-401066Y-259998D01*
X-394000D01*
X-393902Y-260007D01*
X-393808Y-260036D01*
X-393721Y-260082D01*
X-393645Y-260145D01*
X-393582Y-260221D01*
X-393536Y-260308D01*
X-393507Y-260402D01*
X-393498Y-260500D01*
Y-263300D01*
X-393507Y-263398D01*
X-393536Y-263492D01*
X-393582Y-263579D01*
X-393645Y-263655D01*
X-393721Y-263718D01*
X-393808Y-263764D01*
X-393902Y-263793D01*
X-394000Y-263802D01*
X-401066D01*
X-401100Y-263806D01*
X-401681D01*
X-401681Y-263806D01*
X-401771Y-263797D01*
X-401779Y-263796D01*
X-401874Y-263768D01*
X-401960Y-263721D01*
X-402002Y-263687D01*
X-402037Y-263659D01*
X-402037Y-263659D01*
X-402859Y-262837D01*
X-402921Y-262760D01*
X-402967Y-262674D01*
X-402974Y-262652D01*
X-402996Y-262579D01*
X-403001Y-262530D01*
X-403006Y-262481D01*
X-403006Y-262481D01*
Y-261319D01*
X-402996Y-261221D01*
X-402974Y-261148D01*
X-402967Y-261126D01*
X-402921Y-261040D01*
X-402859Y-260963D01*
X-402037Y-260142D01*
X-402037Y-260141D01*
X-401960Y-260079D01*
X-401874Y-260033D01*
X-401852Y-260026D01*
X-401779Y-260004D01*
X-401730Y-259999D01*
X-401681Y-259994D01*
X-401681Y-259994D01*
D02*
G37*
G36*
X-406502Y-252407D02*
X-406408Y-252436D01*
X-406321Y-252482D01*
X-406245Y-252545D01*
X-406182Y-252621D01*
X-406136Y-252708D01*
X-406107Y-252802D01*
X-406098Y-252900D01*
Y-259966D01*
X-406094Y-260000D01*
Y-260581D01*
Y-260581D01*
D01*
X-406095Y-260590D01*
X-406104Y-260679D01*
X-406133Y-260774D01*
X-406154Y-260814D01*
X-406179Y-260860D01*
X-406207Y-260895D01*
X-406241Y-260937D01*
X-406241Y-260937D01*
X-407063Y-261758D01*
X-407063Y-261759D01*
X-407098Y-261787D01*
X-407140Y-261821D01*
X-407226Y-261868D01*
X-407321Y-261896D01*
X-407329Y-261897D01*
X-407419Y-261906D01*
X-407419Y-261906D01*
X-408581D01*
X-408581Y-261906D01*
X-408671Y-261897D01*
X-408679Y-261896D01*
X-408773Y-261868D01*
X-408860Y-261821D01*
X-408902Y-261787D01*
X-408937Y-261759D01*
X-408937Y-261758D01*
X-409759Y-260937D01*
X-409821Y-260860D01*
X-409868Y-260774D01*
X-409874Y-260752D01*
X-409896Y-260679D01*
X-409901Y-260630D01*
X-409906Y-260581D01*
X-409906Y-260581D01*
Y-260000D01*
X-409902Y-259966D01*
Y-252900D01*
X-409893Y-252802D01*
X-409864Y-252708D01*
X-409818Y-252621D01*
X-409755Y-252545D01*
X-409679Y-252482D01*
X-409592Y-252436D01*
X-409498Y-252407D01*
X-409400Y-252398D01*
X-406600D01*
X-406502Y-252407D01*
D02*
G37*
G36*
X-421502D02*
X-421408Y-252436D01*
X-421321Y-252482D01*
X-421245Y-252545D01*
X-421182Y-252621D01*
X-421136Y-252708D01*
X-421107Y-252802D01*
X-421098Y-252900D01*
Y-259966D01*
X-421094Y-260000D01*
Y-260581D01*
Y-260581D01*
D01*
X-421095Y-260590D01*
X-421104Y-260679D01*
X-421133Y-260774D01*
X-421154Y-260814D01*
X-421179Y-260860D01*
X-421207Y-260895D01*
X-421241Y-260937D01*
X-421242Y-260937D01*
X-422063Y-261758D01*
X-422063Y-261759D01*
X-422098Y-261787D01*
X-422140Y-261821D01*
X-422226Y-261868D01*
X-422321Y-261896D01*
X-422329Y-261897D01*
X-422419Y-261906D01*
X-422419Y-261906D01*
X-423581D01*
X-423581Y-261906D01*
X-423671Y-261897D01*
X-423679Y-261896D01*
X-423773Y-261868D01*
X-423860Y-261821D01*
X-423902Y-261787D01*
X-423937Y-261759D01*
X-423937Y-261758D01*
X-424759Y-260937D01*
X-424821Y-260860D01*
X-424868Y-260774D01*
X-424874Y-260752D01*
X-424896Y-260679D01*
X-424901Y-260630D01*
X-424906Y-260581D01*
X-424906Y-260581D01*
Y-260000D01*
X-424902Y-259966D01*
Y-252900D01*
X-424893Y-252802D01*
X-424864Y-252708D01*
X-424818Y-252621D01*
X-424755Y-252545D01*
X-424679Y-252482D01*
X-424592Y-252436D01*
X-424498Y-252407D01*
X-424400Y-252398D01*
X-421600D01*
X-421502Y-252407D01*
D02*
G37*
G36*
X-401681Y-274994D02*
X-401100D01*
X-401066Y-274998D01*
X-394000D01*
X-393902Y-275007D01*
X-393808Y-275036D01*
X-393721Y-275082D01*
X-393645Y-275145D01*
X-393582Y-275221D01*
X-393536Y-275308D01*
X-393507Y-275402D01*
X-393498Y-275500D01*
Y-278300D01*
X-393507Y-278398D01*
X-393536Y-278492D01*
X-393582Y-278579D01*
X-393645Y-278655D01*
X-393721Y-278718D01*
X-393808Y-278764D01*
X-393902Y-278793D01*
X-394000Y-278802D01*
X-401066D01*
X-401100Y-278806D01*
X-401681D01*
X-401681Y-278806D01*
X-401771Y-278797D01*
X-401779Y-278796D01*
X-401874Y-278768D01*
X-401960Y-278721D01*
X-402002Y-278687D01*
X-402037Y-278659D01*
X-402037Y-278658D01*
X-402859Y-277837D01*
X-402921Y-277760D01*
X-402967Y-277674D01*
X-402974Y-277652D01*
X-402996Y-277579D01*
X-403001Y-277530D01*
X-403006Y-277481D01*
X-403006Y-277481D01*
Y-276319D01*
X-402996Y-276221D01*
X-402974Y-276148D01*
X-402967Y-276126D01*
X-402921Y-276040D01*
X-402859Y-275963D01*
X-402037Y-275142D01*
X-402037Y-275141D01*
X-401960Y-275079D01*
X-401874Y-275033D01*
X-401852Y-275026D01*
X-401779Y-275004D01*
X-401730Y-274999D01*
X-401681Y-274994D01*
X-401681Y-274994D01*
D02*
G37*
G36*
X-429270Y-274999D02*
X-429221Y-275004D01*
X-429148Y-275026D01*
X-429126Y-275033D01*
X-429040Y-275079D01*
X-428964Y-275141D01*
X-428141Y-275963D01*
X-428079Y-276040D01*
X-428032Y-276126D01*
X-428026Y-276148D01*
X-428004Y-276221D01*
X-427999Y-276270D01*
X-427994Y-276319D01*
X-427994Y-276319D01*
Y-277481D01*
Y-277481D01*
D01*
X-427995Y-277490D01*
X-428004Y-277579D01*
X-428032Y-277673D01*
X-428054Y-277714D01*
X-428079Y-277760D01*
X-428107Y-277795D01*
X-428141Y-277837D01*
X-428142Y-277837D01*
X-428963Y-278658D01*
X-428964Y-278659D01*
X-428998Y-278687D01*
X-429040Y-278721D01*
X-429127Y-278768D01*
X-429221Y-278796D01*
X-429230Y-278797D01*
X-429319Y-278806D01*
X-429319Y-278806D01*
X-429900D01*
X-429934Y-278802D01*
X-437000D01*
X-437098Y-278793D01*
X-437192Y-278764D01*
X-437279Y-278718D01*
X-437355Y-278655D01*
X-437418Y-278579D01*
X-437464Y-278492D01*
X-437493Y-278398D01*
X-437502Y-278300D01*
Y-275500D01*
X-437493Y-275402D01*
X-437464Y-275308D01*
X-437418Y-275221D01*
X-437355Y-275145D01*
X-437279Y-275082D01*
X-437192Y-275036D01*
X-437098Y-275007D01*
X-437000Y-274998D01*
X-429934D01*
X-429900Y-274994D01*
X-429319D01*
X-429319Y-274994D01*
X-429270Y-274999D01*
D02*
G37*
G36*
Y-269999D02*
X-429221Y-270004D01*
X-429148Y-270026D01*
X-429126Y-270033D01*
X-429040Y-270079D01*
X-428964Y-270141D01*
X-428141Y-270963D01*
X-428079Y-271040D01*
X-428032Y-271126D01*
X-428026Y-271148D01*
X-428004Y-271221D01*
X-427999Y-271270D01*
X-427994Y-271319D01*
X-427994Y-271319D01*
Y-272481D01*
Y-272481D01*
D01*
X-427995Y-272490D01*
X-428004Y-272579D01*
X-428032Y-272673D01*
X-428054Y-272714D01*
X-428079Y-272760D01*
X-428107Y-272795D01*
X-428141Y-272836D01*
X-428142Y-272837D01*
X-428963Y-273658D01*
X-428964Y-273659D01*
X-428998Y-273687D01*
X-429040Y-273721D01*
X-429127Y-273768D01*
X-429221Y-273796D01*
X-429230Y-273797D01*
X-429319Y-273806D01*
X-429319Y-273806D01*
X-429900D01*
X-429934Y-273802D01*
X-437000D01*
X-437098Y-273793D01*
X-437192Y-273764D01*
X-437279Y-273718D01*
X-437355Y-273655D01*
X-437418Y-273579D01*
X-437464Y-273492D01*
X-437493Y-273398D01*
X-437502Y-273300D01*
Y-270500D01*
X-437493Y-270402D01*
X-437464Y-270308D01*
X-437418Y-270221D01*
X-437355Y-270145D01*
X-437279Y-270082D01*
X-437192Y-270036D01*
X-437098Y-270007D01*
X-437000Y-269998D01*
X-429934D01*
X-429900Y-269994D01*
X-429319D01*
X-429319Y-269994D01*
X-429270Y-269999D01*
D02*
G37*
G36*
Y-264999D02*
X-429221Y-265004D01*
X-429148Y-265026D01*
X-429126Y-265033D01*
X-429040Y-265079D01*
X-428964Y-265141D01*
X-428141Y-265963D01*
X-428079Y-266040D01*
X-428032Y-266126D01*
X-428026Y-266148D01*
X-428004Y-266221D01*
X-427999Y-266270D01*
X-427994Y-266319D01*
X-427994Y-266319D01*
Y-267481D01*
Y-267481D01*
D01*
X-427995Y-267490D01*
X-428004Y-267579D01*
X-428032Y-267673D01*
X-428054Y-267714D01*
X-428079Y-267760D01*
X-428107Y-267795D01*
X-428141Y-267836D01*
X-428142Y-267837D01*
X-428963Y-268658D01*
X-428964Y-268659D01*
X-428998Y-268687D01*
X-429040Y-268721D01*
X-429127Y-268768D01*
X-429221Y-268796D01*
X-429230Y-268797D01*
X-429319Y-268806D01*
X-429319Y-268806D01*
X-429900D01*
X-429934Y-268802D01*
X-437000D01*
X-437098Y-268793D01*
X-437192Y-268764D01*
X-437279Y-268718D01*
X-437355Y-268655D01*
X-437418Y-268579D01*
X-437464Y-268492D01*
X-437493Y-268398D01*
X-437502Y-268300D01*
Y-265500D01*
X-437493Y-265402D01*
X-437464Y-265308D01*
X-437418Y-265221D01*
X-437355Y-265145D01*
X-437279Y-265082D01*
X-437192Y-265036D01*
X-437098Y-265007D01*
X-437000Y-264998D01*
X-429934D01*
X-429900Y-264994D01*
X-429319D01*
X-429319Y-264994D01*
X-429270Y-264999D01*
D02*
G37*
G36*
X-401681Y-269994D02*
X-401100D01*
X-401066Y-269998D01*
X-394000D01*
X-393902Y-270007D01*
X-393808Y-270036D01*
X-393721Y-270082D01*
X-393645Y-270145D01*
X-393582Y-270221D01*
X-393536Y-270308D01*
X-393507Y-270402D01*
X-393498Y-270500D01*
Y-273300D01*
X-393507Y-273398D01*
X-393536Y-273492D01*
X-393582Y-273579D01*
X-393645Y-273655D01*
X-393721Y-273718D01*
X-393808Y-273764D01*
X-393902Y-273793D01*
X-394000Y-273802D01*
X-401066D01*
X-401100Y-273806D01*
X-401681D01*
X-401681Y-273806D01*
X-401771Y-273797D01*
X-401779Y-273796D01*
X-401874Y-273768D01*
X-401960Y-273721D01*
X-402002Y-273687D01*
X-402037Y-273659D01*
X-402037Y-273658D01*
X-402859Y-272836D01*
X-402921Y-272760D01*
X-402967Y-272673D01*
X-402974Y-272652D01*
X-402996Y-272579D01*
X-403001Y-272530D01*
X-403006Y-272481D01*
X-403006Y-272481D01*
Y-271319D01*
X-402996Y-271221D01*
X-402974Y-271148D01*
X-402967Y-271126D01*
X-402921Y-271040D01*
X-402859Y-270963D01*
X-402037Y-270142D01*
X-402037Y-270141D01*
X-401960Y-270079D01*
X-401874Y-270033D01*
X-401852Y-270026D01*
X-401779Y-270004D01*
X-401730Y-269999D01*
X-401681Y-269994D01*
X-401681Y-269994D01*
D02*
G37*
D89*
X-455000Y-269000D02*
D03*
Y-260000D02*
D03*
X-464000Y-269000D02*
D03*
Y-260000D02*
D03*
X-468500Y-298000D02*
D03*
Y-307000D02*
D03*
X-459500Y-298000D02*
D03*
Y-307000D02*
D03*
X368000Y-239000D02*
D03*
Y-230000D02*
D03*
X295000Y-231500D02*
D03*
Y-240500D02*
D03*
X304000Y-231500D02*
D03*
Y-240500D02*
D03*
X309000Y-252500D02*
D03*
Y-261500D02*
D03*
X255000Y-89000D02*
D03*
Y-80000D02*
D03*
X244500Y-89000D02*
D03*
Y-80000D02*
D03*
X222500Y-89000D02*
D03*
Y-80000D02*
D03*
X266500Y-89000D02*
D03*
Y-80000D02*
D03*
X189000Y-89000D02*
D03*
Y-80000D02*
D03*
X200500Y-89000D02*
D03*
Y-80000D02*
D03*
X-406500Y-101500D02*
D03*
Y-110500D02*
D03*
Y-92000D02*
D03*
Y-83000D02*
D03*
X-464500Y-100500D02*
D03*
Y-109500D02*
D03*
Y-82500D02*
D03*
Y-91500D02*
D03*
X285000Y-156500D02*
D03*
Y-147500D02*
D03*
X422500Y-284500D02*
D03*
Y-275500D02*
D03*
D90*
X-383500Y-258000D02*
D03*
X-374500D02*
D03*
X15000Y-44000D02*
D03*
X24000D02*
D03*
X-322500Y-104000D02*
D03*
X-313500D02*
D03*
X-244500Y-59000D02*
D03*
X-235500D02*
D03*
X-224000Y-58000D02*
D03*
X-215000D02*
D03*
X-277500Y-59000D02*
D03*
X-286500D02*
D03*
X-277500Y-28000D02*
D03*
X-245000D02*
D03*
X-301400Y-68000D02*
D03*
X-277500Y-44000D02*
D03*
X-268500D02*
D03*
X-253500D02*
D03*
X-244500D02*
D03*
X10500Y-60000D02*
D03*
X19500D02*
D03*
X61500D02*
D03*
X52500D02*
D03*
X43500Y-28000D02*
D03*
X52500D02*
D03*
X18500D02*
D03*
X62500Y-51000D02*
D03*
X71500D02*
D03*
X419500Y-295000D02*
D03*
X410500D02*
D03*
X421500Y-370500D02*
D03*
X412500D02*
D03*
D91*
X230000Y-267000D02*
D03*
Y-258000D02*
D03*
X278500Y-77000D02*
D03*
Y-86000D02*
D03*
X-203000Y-101500D02*
D03*
Y-92500D02*
D03*
X-309000Y-12500D02*
D03*
Y-3500D02*
D03*
X-319000Y14500D02*
D03*
Y5500D02*
D03*
X-203000Y14500D02*
D03*
Y5500D02*
D03*
X-284000Y-12500D02*
D03*
Y-3500D02*
D03*
X-261000Y-10500D02*
D03*
X-238000Y-12500D02*
D03*
Y-3500D02*
D03*
X-274000Y-84500D02*
D03*
Y-75500D02*
D03*
X-256000Y-60500D02*
D03*
Y-69500D02*
D03*
X-284000Y-84500D02*
D03*
X-238000D02*
D03*
Y-75500D02*
D03*
X-266000Y-69500D02*
D03*
Y-60500D02*
D03*
X-203000Y-75500D02*
D03*
Y-84500D02*
D03*
X-212000Y-75500D02*
D03*
Y-84500D02*
D03*
X-12000Y-12500D02*
D03*
Y-3500D02*
D03*
Y-84500D02*
D03*
Y-75500D02*
D03*
X-22000Y-101500D02*
D03*
Y-92500D02*
D03*
X94000D02*
D03*
Y-101500D02*
D03*
Y6500D02*
D03*
Y15500D02*
D03*
X-22000D02*
D03*
Y6500D02*
D03*
X21000Y-3500D02*
D03*
Y-12500D02*
D03*
X60000Y-3500D02*
D03*
Y-12500D02*
D03*
X12000Y-3500D02*
D03*
Y-12500D02*
D03*
X36000Y-11500D02*
D03*
X22000Y-86500D02*
D03*
Y-77500D02*
D03*
X59000Y-84500D02*
D03*
Y-75500D02*
D03*
X29000Y-60500D02*
D03*
Y-69500D02*
D03*
X43000Y-60500D02*
D03*
Y-69500D02*
D03*
X13000Y-77500D02*
D03*
Y-86500D02*
D03*
X85000Y-75500D02*
D03*
Y-84500D02*
D03*
X96000Y-75500D02*
D03*
Y-66500D02*
D03*
X150000Y62000D02*
D03*
Y71000D02*
D03*
D101*
X-120000Y25000D02*
D03*
X-129000D02*
D03*
X-120000Y34500D02*
D03*
X-129000D02*
D03*
X-418000Y-315500D02*
D03*
X-409000D02*
D03*
X350000Y-21000D02*
D03*
X341000D02*
D03*
X350000Y-12000D02*
D03*
X341000D02*
D03*
X1500Y40000D02*
D03*
X-7500D02*
D03*
X341000Y-30000D02*
D03*
X350000D02*
D03*
X341000Y-38500D02*
D03*
X350000D02*
D03*
X128000Y87000D02*
D03*
X119000D02*
D03*
X-409000Y-324500D02*
D03*
X-418000D02*
D03*
D104*
X-435500Y-96500D02*
D03*
D105*
X-450750Y-87000D02*
D03*
Y-96500D02*
D03*
Y-106000D02*
D03*
X-420250D02*
D03*
Y-96500D02*
D03*
Y-87000D02*
D03*
D106*
X-222000Y-45500D02*
D03*
X-209500D02*
D03*
X65750Y-36000D02*
D03*
X78250D02*
D03*
X-429250Y-123000D02*
D03*
X-441750D02*
D03*
X-429250Y-69500D02*
D03*
X-441750D02*
D03*
X410500Y-359500D02*
D03*
X423000D02*
D03*
D108*
X375000Y-278250D02*
D03*
Y-290750D02*
D03*
X390000Y-278250D02*
D03*
Y-290750D02*
D03*
X234000Y-91750D02*
D03*
Y-79250D02*
D03*
X94500Y67750D02*
D03*
Y55250D02*
D03*
X382000Y-305750D02*
D03*
Y-318250D02*
D03*
D116*
X427000Y-179000D02*
D03*
Y-253500D02*
D03*
X-452500Y-139500D02*
D03*
Y-239000D02*
D03*
D117*
X395000Y-235000D02*
D03*
Y-222500D02*
D03*
Y-210000D02*
D03*
Y-197500D02*
D03*
X-420500Y-158000D02*
D03*
Y-170500D02*
D03*
Y-220500D02*
D03*
Y-208000D02*
D03*
Y-195500D02*
D03*
Y-183000D02*
D03*
D120*
X-380414Y-324000D02*
D03*
X290400Y-293520D02*
D03*
D121*
X-440000Y-358000D02*
D03*
X350000D02*
D03*
Y62000D02*
D03*
X-440000D02*
D03*
D122*
X438500Y38500D02*
D03*
Y25500D02*
D03*
D123*
X408000Y75100D02*
D03*
Y30900D02*
D03*
D124*
X66000Y-341500D02*
D03*
X116000D02*
D03*
X103500D02*
D03*
X91000D02*
D03*
X78500D02*
D03*
D125*
X134500Y-373500D02*
D03*
X47500D02*
D03*
D126*
X171050Y-291273D02*
D03*
X183750D02*
D03*
X196450D02*
D03*
X234550D02*
D03*
X247250D02*
D03*
X259950D02*
D03*
X234550Y-375728D02*
D03*
X247250D02*
D03*
X259950D02*
D03*
X196450D02*
D03*
X183750D02*
D03*
X171050D02*
D03*
D127*
X-151000Y50000D02*
D03*
X-101000D02*
D03*
X-141000D02*
D03*
X-131000D02*
D03*
X-121000D02*
D03*
X-111000D02*
D03*
D128*
X-164000Y88750D02*
D03*
X-88000D02*
D03*
D129*
X313000Y-105500D02*
D03*
X294000D02*
D03*
Y-134500D02*
D03*
X303500D02*
D03*
X313000D02*
D03*
X421493Y-312004D02*
D03*
X402493D02*
D03*
Y-341004D02*
D03*
X411993D02*
D03*
X421493D02*
D03*
D130*
X374000Y-60500D02*
D03*
Y-70500D02*
D03*
Y-80500D02*
D03*
Y-90500D02*
D03*
Y-130500D02*
D03*
Y-125500D02*
D03*
Y-120500D02*
D03*
Y-115500D02*
D03*
Y-110500D02*
D03*
Y-100500D02*
D03*
Y-50500D02*
D03*
Y-105500D02*
D03*
Y-95500D02*
D03*
Y-85500D02*
D03*
Y-75500D02*
D03*
Y-65500D02*
D03*
Y-55500D02*
D03*
Y-45500D02*
D03*
Y-40500D02*
D03*
Y-35500D02*
D03*
D131*
X391000Y-11000D02*
D03*
Y-155000D02*
D03*
D132*
X406250Y-16500D02*
D03*
Y-149500D02*
D03*
D133*
X-268500Y-28000D02*
D03*
X-254000D02*
D03*
D134*
X-292400Y-68000D02*
D03*
X27500Y-28000D02*
D03*
D135*
X-261000Y-19500D02*
D03*
D136*
X-284000Y-75500D02*
D03*
X36000Y-20500D02*
D03*
D137*
X305220Y88115D02*
D03*
D138*
X170220Y83615D02*
D03*
D139*
Y42115D02*
D03*
D140*
Y-19885D02*
D03*
X281720Y-62885D02*
D03*
D141*
X179720D02*
D03*
X189220D02*
D03*
X200220D02*
D03*
X211220D02*
D03*
X222220D02*
D03*
X233220D02*
D03*
X244220D02*
D03*
X255220D02*
D03*
X266220D02*
D03*
D142*
X-415500Y-279400D02*
D03*
D143*
X-395400Y-261900D02*
D03*
Y-266900D02*
D03*
Y-271900D02*
D03*
Y-276900D02*
D03*
Y-281900D02*
D03*
Y-286900D02*
D03*
Y-291900D02*
D03*
Y-296900D02*
D03*
X-408000Y-304500D02*
D03*
X-423000D02*
D03*
X-435600Y-296900D02*
D03*
Y-291900D02*
D03*
Y-286900D02*
D03*
Y-281900D02*
D03*
Y-276900D02*
D03*
Y-271900D02*
D03*
Y-266900D02*
D03*
Y-261900D02*
D03*
X-423000Y-254300D02*
D03*
X-408000D02*
D03*
D144*
X342000Y-252000D02*
D03*
X337000D02*
D03*
X332000D02*
D03*
X327000D02*
D03*
Y-222000D02*
D03*
X332000D02*
D03*
X337000D02*
D03*
X342000D02*
D03*
D145*
X319500Y-244500D02*
D03*
Y-239500D02*
D03*
Y-234500D02*
D03*
Y-229500D02*
D03*
X349500D02*
D03*
Y-234500D02*
D03*
Y-239500D02*
D03*
Y-244500D02*
D03*
D146*
X334500Y-237000D02*
D03*
D147*
X332750Y-198500D02*
D03*
X360250D02*
D03*
D148*
X351250Y-284500D02*
D03*
X320750D02*
D03*
D149*
X-95004Y-33971D02*
D03*
X-91469Y-37507D02*
D03*
X-87933Y-41042D02*
D03*
X-84398Y-44578D02*
D03*
X-80862Y-48113D02*
D03*
X-77327Y-51649D02*
D03*
X-73791Y-55184D02*
D03*
X-70256Y-58720D02*
D03*
X-66720Y-62256D02*
D03*
X-63184Y-65791D02*
D03*
X-59649Y-69327D02*
D03*
X-56114Y-72862D02*
D03*
X-52578Y-76398D02*
D03*
X-49042Y-79933D02*
D03*
X-45507Y-83469D02*
D03*
X-41971Y-87004D02*
D03*
X-123996Y-169029D02*
D03*
X-127531Y-165493D02*
D03*
X-131067Y-161958D02*
D03*
X-134602Y-158422D02*
D03*
X-138138Y-154887D02*
D03*
X-141673Y-151351D02*
D03*
X-145209Y-147816D02*
D03*
X-148744Y-144280D02*
D03*
X-152280Y-140744D02*
D03*
X-155815Y-137209D02*
D03*
X-159351Y-133673D02*
D03*
X-162887Y-130138D02*
D03*
X-166422Y-126602D02*
D03*
X-169958Y-123067D02*
D03*
X-173493Y-119531D02*
D03*
X-177029Y-115996D02*
D03*
D150*
X-41971D02*
D03*
X-45507Y-119531D02*
D03*
X-49042Y-123067D02*
D03*
X-52578Y-126602D02*
D03*
X-56113Y-130138D02*
D03*
X-59649Y-133673D02*
D03*
X-63184Y-137209D02*
D03*
X-66720Y-140744D02*
D03*
X-70256Y-144280D02*
D03*
X-73791Y-147816D02*
D03*
X-77327Y-151351D02*
D03*
X-80862Y-154887D02*
D03*
X-84398Y-158422D02*
D03*
X-87933Y-161958D02*
D03*
X-91469Y-165493D02*
D03*
X-95004Y-169029D02*
D03*
X-177029Y-87004D02*
D03*
X-173493Y-83469D02*
D03*
X-169958Y-79933D02*
D03*
X-166422Y-76398D02*
D03*
X-162887Y-72862D02*
D03*
X-159351Y-69327D02*
D03*
X-155815Y-65791D02*
D03*
X-152280Y-62256D02*
D03*
X-148744Y-58720D02*
D03*
X-145209Y-55184D02*
D03*
X-141673Y-51649D02*
D03*
X-138138Y-48113D02*
D03*
X-134602Y-44578D02*
D03*
X-131067Y-41042D02*
D03*
X-127531Y-37507D02*
D03*
X-123996Y-33971D02*
D03*
D151*
X-393081Y50419D02*
D03*
X-401919Y41581D02*
D03*
D152*
X-417000Y-46750D02*
D03*
X-440000D02*
D03*
X-463000D02*
D03*
D153*
X-440000Y13750D02*
D03*
D154*
X-35636Y-38636D02*
D03*
X-42000Y-45000D02*
D03*
X-79182Y-9182D02*
D03*
X-72818Y-2818D02*
D03*
D155*
X-44065Y-26621D02*
D03*
X-59621Y-11065D02*
D03*
X-70935Y-22379D02*
D03*
X-55379Y-37935D02*
D03*
D156*
X136995Y56506D02*
D03*
Y75506D02*
D03*
X109995D02*
D03*
Y66006D02*
D03*
Y56506D02*
D03*
D157*
X145500Y-206000D02*
D03*
X154500Y-223500D02*
D03*
X153000Y-200500D02*
D03*
X145500Y-195000D02*
D03*
X154000Y-247500D02*
D03*
X149000Y-254500D02*
D03*
X153000Y-212500D02*
D03*
X151500Y-234000D02*
D03*
X147000Y-227500D02*
D03*
X147000Y-217500D02*
D03*
X148000Y-242000D02*
D03*
D158*
X6500Y-120000D02*
D03*
X32000Y-123500D02*
D03*
X-221500Y-135000D02*
D03*
X-251500Y-127500D02*
D03*
D159*
X54095Y-113985D02*
D03*
X50000Y-123000D02*
D03*
X-229000Y-124000D02*
D03*
X-236000Y-116500D02*
D03*
M02*
