G04 Layer_Color=65535*
%FSLAX44Y44*%
%MOMM*%
G71*
G01*
G75*
%ADD40C,0.2500*%
%ADD43C,0.1500*%
%ADD44C,0.6000*%
%ADD46C,0.2000*%
%ADD87C,0.1000*%
G36*
X-191000Y-114000D02*
X-201000D01*
X-191000Y-104000D01*
Y-114000D01*
D02*
G37*
G36*
X106000D02*
X96000D01*
X106000Y-104000D01*
Y-114000D01*
D02*
G37*
D40*
X399070Y-322385D02*
G03*
X399070Y-322385I-1250J0D01*
G01*
X290000Y21000D02*
G03*
X290000Y21000I-1250J0D01*
G01*
X-382495Y-210754D02*
G03*
X-382495Y-210754I-1250J0D01*
G01*
X-356995Y-110246D02*
G03*
X-356995Y-110246I-1250J0D01*
G01*
X-382495Y-48254D02*
G03*
X-382495Y-48254I-1250J0D01*
G01*
X-183250Y-112500D02*
G03*
X-183250Y-112500I-1250J0D01*
G01*
X113750D02*
G03*
X113750Y-112500I-1250J0D01*
G01*
X307000Y-162700D02*
G03*
X307000Y-162700I-1250J0D01*
G01*
X294250Y-221500D02*
G03*
X294250Y-221500I-1250J0D01*
G01*
D43*
X-387399Y-263294D02*
X286794D01*
X297385Y-273885D01*
Y-287170D02*
Y-273885D01*
X-387399Y-354353D02*
Y-331620D01*
Y-316380D02*
Y-293647D01*
Y-384706D02*
Y-354353D01*
Y-293647D02*
Y-263294D01*
X-395527Y-316380D02*
X-387399D01*
X-395527Y-331620D02*
X-387399D01*
X-395527D02*
Y-316380D01*
X297385Y-384706D02*
Y-299870D01*
X-387399Y-384706D02*
X297385D01*
D44*
X283000Y-1000D02*
G03*
X283000Y-1000I-3000J0D01*
G01*
X331000Y-175500D02*
G03*
X331000Y-175500I-3000J0D01*
G01*
X330500Y-229500D02*
G03*
X330500Y-229500I-3000J0D01*
G01*
D46*
X411320Y-346885D02*
Y-345385D01*
Y-346885D02*
X423170D01*
X411320Y-273385D02*
Y-271885D01*
X423170D01*
X198000Y-83000D02*
Y9000D01*
X290000Y-83000D02*
Y9000D01*
X198000Y-83000D02*
X290000D01*
X198000Y9000D02*
X290000D01*
X-380495Y-203004D02*
Y-197004D01*
X-358495Y-203004D02*
Y-197004D01*
X-380495Y-203004D02*
X-358495D01*
X-380495Y-197004D02*
X-358495D01*
X-361495Y-123996D02*
Y-117996D01*
X-383495Y-123996D02*
Y-117996D01*
X-361495D01*
X-383495Y-123996D02*
X-361495D01*
X-380495Y-40504D02*
Y-34504D01*
X-358495Y-40504D02*
Y-34504D01*
X-380495Y-40504D02*
X-358495D01*
X-380495Y-34504D02*
X-358495D01*
X-416750Y-79500D02*
X-411500D01*
X-416750Y-113500D02*
X-411500D01*
X-445500D02*
X-440250D01*
X-445500Y-81000D02*
Y-79500D01*
X-440250D01*
X-445500Y-113500D02*
Y-112000D01*
X-411500Y-113500D02*
Y-112000D01*
Y-81000D02*
Y-79500D01*
X-422250Y-165500D02*
X-417000D01*
X-422250Y-199500D02*
X-417000D01*
X-451000D02*
X-445750D01*
X-451000Y-167000D02*
Y-165500D01*
X-445750D01*
X-451000Y-199500D02*
Y-198000D01*
X-417000Y-199500D02*
Y-198000D01*
Y-167000D02*
Y-165500D01*
X-201000Y-114000D02*
X-191000Y-104000D01*
Y-114000D02*
Y26000D01*
X-331000Y-114000D02*
Y26000D01*
Y-114000D02*
X-191000D01*
X-331000Y26000D02*
X-191000D01*
X96000Y-114000D02*
X106000Y-104000D01*
Y-114000D02*
Y26000D01*
X-34000Y-114000D02*
Y26000D01*
Y-114000D02*
X106000D01*
X-34000Y26000D02*
X106000D01*
X318000Y-215500D02*
X350000D01*
X318000Y-165500D02*
X350000D01*
Y-215500D02*
Y-165500D01*
X318000Y-215500D02*
Y-165500D01*
X317500Y-269500D02*
X349500D01*
X317500Y-219500D02*
X349500D01*
Y-269500D02*
Y-219500D01*
X317500Y-269500D02*
Y-219500D01*
X438000Y-243500D02*
Y-189000D01*
X397500Y-257500D02*
X408500D01*
X397500D02*
Y-243000D01*
Y-190000D02*
Y-175500D01*
X408500D01*
X-419750Y-7750D02*
X-414500D01*
X-448500Y-9250D02*
Y-7750D01*
X-443250D01*
X-414500Y-9250D02*
Y-7750D01*
X-442000Y-45500D02*
X-436000D01*
X-442000Y-61500D02*
X-436000D01*
X379498Y29000D02*
Y38330D01*
X375000Y90502D02*
X384330D01*
X379665Y85837D02*
Y95167D01*
D87*
X-449000Y-79500D02*
G03*
X-449000Y-79500I-500J0D01*
G01*
X-454500Y-165500D02*
G03*
X-454500Y-165500I-500J0D01*
G01*
X-452000Y-7750D02*
G03*
X-452000Y-7750I-500J0D01*
G01*
M02*
