G04 Layer_Physical_Order=2*
G04 Layer_Color=36540*
%FSLAX44Y44*%
%MOMM*%
G71*
G01*
G75*
%ADD40C,0.2500*%
%ADD41C,0.3000*%
%ADD45C,0.4000*%
%ADD46C,0.2000*%
%ADD51C,6.0000*%
%ADD52C,0.6000*%
%ADD53C,0.4500*%
%ADD54C,1.0000*%
G36*
X447142Y-393807D02*
X-475702D01*
Y12113D01*
X-474432Y12776D01*
X-472500Y12392D01*
X-470354Y12819D01*
X-468535Y14035D01*
X-467319Y15854D01*
X-467147Y16720D01*
X-465500Y16392D01*
X-463354Y16819D01*
X-461535Y18035D01*
X-460319Y19854D01*
X-459892Y22000D01*
X-460319Y24146D01*
X-461413Y25782D01*
X-461035Y26035D01*
X-459819Y27854D01*
X-459392Y30000D01*
X-459819Y32146D01*
X-461035Y33965D01*
X-462854Y35181D01*
X-465000Y35608D01*
X-466456Y35318D01*
X-466819Y37146D01*
X-468035Y38965D01*
X-469854Y40181D01*
X-472000Y40608D01*
X-474146Y40181D01*
X-474582Y39890D01*
X-475702Y40488D01*
Y98027D01*
X-80605D01*
X-80007Y96907D01*
X-80181Y96646D01*
X-80608Y94500D01*
X-80181Y92354D01*
X-78965Y90535D01*
X-77146Y89319D01*
X-75000Y88892D01*
X-72854Y89319D01*
X-71035Y90535D01*
X-69819Y92354D01*
X-69392Y94500D01*
X-69819Y96646D01*
X-69993Y96907D01*
X-69395Y98027D01*
X447142D01*
Y-393807D01*
D02*
G37*
%LPC*%
G36*
X7500Y-166657D02*
X5646Y-167026D01*
X4075Y-168075D01*
X3025Y-169646D01*
X2657Y-171500D01*
X3025Y-173353D01*
X4075Y-174925D01*
X5646Y-175974D01*
X7500Y-176343D01*
X9353Y-175974D01*
X10924Y-174925D01*
X11974Y-173353D01*
X12343Y-171500D01*
X11974Y-169646D01*
X10924Y-168075D01*
X9353Y-167026D01*
X7500Y-166657D01*
D02*
G37*
G36*
X82500Y-166157D02*
X80646Y-166525D01*
X79075Y-167575D01*
X78025Y-169146D01*
X77657Y-171000D01*
X78025Y-172853D01*
X79075Y-174424D01*
X80646Y-175474D01*
X82500Y-175843D01*
X84353Y-175474D01*
X85924Y-174424D01*
X86236Y-173958D01*
X87764D01*
X88075Y-174424D01*
X89647Y-175474D01*
X91500Y-175843D01*
X93353Y-175474D01*
X94924Y-174424D01*
X95974Y-172853D01*
X96343Y-171000D01*
X95974Y-169147D01*
X94924Y-167575D01*
X93353Y-166525D01*
X91500Y-166157D01*
X89647Y-166525D01*
X88075Y-167575D01*
X87764Y-168042D01*
X86236D01*
X85924Y-167575D01*
X84353Y-166525D01*
X82500Y-166157D01*
D02*
G37*
G36*
X-255100Y-164057D02*
X-256953Y-164426D01*
X-258525Y-165476D01*
X-259574Y-167047D01*
X-259943Y-168900D01*
X-259574Y-170753D01*
X-258525Y-172325D01*
X-256953Y-173374D01*
X-255100Y-173743D01*
X-253247Y-173374D01*
X-251675Y-172325D01*
X-251347Y-171833D01*
X-249820D01*
X-249425Y-172425D01*
X-247853Y-173474D01*
X-246000Y-173843D01*
X-244147Y-173474D01*
X-242575Y-172425D01*
X-241526Y-170853D01*
X-241157Y-169000D01*
X-241526Y-167147D01*
X-242575Y-165576D01*
X-244147Y-164526D01*
X-246000Y-164157D01*
X-247853Y-164526D01*
X-249425Y-165576D01*
X-249753Y-166067D01*
X-251280D01*
X-251675Y-165476D01*
X-253247Y-164426D01*
X-255100Y-164057D01*
D02*
G37*
G36*
X203000Y-185892D02*
X200854Y-186319D01*
X199034Y-187534D01*
X197819Y-189354D01*
X197589Y-190509D01*
X197000Y-190392D01*
X194854Y-190819D01*
X193035Y-192035D01*
X191819Y-193854D01*
X191392Y-196000D01*
X191819Y-198146D01*
X193035Y-199965D01*
X194854Y-201181D01*
X197000Y-201608D01*
X199146Y-201181D01*
X200965Y-199965D01*
X201446Y-199246D01*
X202642Y-199742D01*
X202392Y-201000D01*
X202819Y-203146D01*
X203909Y-204778D01*
X203633Y-205488D01*
X203280Y-205948D01*
X203000Y-205892D01*
X200854Y-206319D01*
X199034Y-207534D01*
X197819Y-209354D01*
X197392Y-211500D01*
X197819Y-213646D01*
X199034Y-215465D01*
X200854Y-216680D01*
X202856Y-217079D01*
X203137Y-217312D01*
X203768Y-218249D01*
X203412Y-220040D01*
X203598Y-220972D01*
X201854Y-221319D01*
X201339Y-221663D01*
X199745Y-221201D01*
X198965Y-220035D01*
X197146Y-218819D01*
X195000Y-218392D01*
X192854Y-218819D01*
X191035Y-220035D01*
X189819Y-221854D01*
X189392Y-224000D01*
X189819Y-226146D01*
X191035Y-227965D01*
X192854Y-229181D01*
X195000Y-229608D01*
X197146Y-229181D01*
X197661Y-228837D01*
X199255Y-229299D01*
X200035Y-230465D01*
X201854Y-231681D01*
X204000Y-232108D01*
X206146Y-231681D01*
X207965Y-230465D01*
X209181Y-228646D01*
X209608Y-226500D01*
X209422Y-225567D01*
X211166Y-225220D01*
X212985Y-224005D01*
X214201Y-222185D01*
X214628Y-220040D01*
X214201Y-217894D01*
X212985Y-216074D01*
X211166Y-214859D01*
X209163Y-214460D01*
X208882Y-214227D01*
X208251Y-213290D01*
X208607Y-211500D01*
X208181Y-209354D01*
X207090Y-207721D01*
X207366Y-207011D01*
X207719Y-206552D01*
X208000Y-206607D01*
X210146Y-206180D01*
X211965Y-204965D01*
X213180Y-203146D01*
X213607Y-201000D01*
X213180Y-198854D01*
X211965Y-197034D01*
X210146Y-195819D01*
X208478Y-195487D01*
X207864Y-194382D01*
X207835Y-194163D01*
X208181Y-193646D01*
X208607Y-191500D01*
X208181Y-189354D01*
X206965Y-187534D01*
X205146Y-186319D01*
X203000Y-185892D01*
D02*
G37*
G36*
X-192500Y-163157D02*
X-194353Y-163526D01*
X-195925Y-164575D01*
X-196974Y-166147D01*
X-197343Y-168000D01*
X-196974Y-169853D01*
X-196041Y-171250D01*
X-196974Y-172647D01*
X-197343Y-174500D01*
X-196974Y-176353D01*
X-195925Y-177925D01*
X-194353Y-178974D01*
X-192500Y-179343D01*
X-191988Y-179241D01*
X-190714Y-180148D01*
X-190474Y-181353D01*
X-189425Y-182925D01*
X-187853Y-183974D01*
X-186000Y-184343D01*
X-184147Y-183974D01*
X-182856Y-183112D01*
X-181499Y-183425D01*
X-181474Y-183548D01*
X-180425Y-185120D01*
X-178853Y-186169D01*
X-177000Y-186538D01*
X-175147Y-186169D01*
X-173575Y-185120D01*
X-172526Y-183548D01*
X-172157Y-181695D01*
X-172526Y-179842D01*
X-173575Y-178270D01*
X-175147Y-177221D01*
X-177000Y-176852D01*
X-178853Y-177221D01*
X-180144Y-178083D01*
X-181501Y-177770D01*
X-181526Y-177647D01*
X-182575Y-176075D01*
X-184147Y-175026D01*
X-186000Y-174657D01*
X-186512Y-174759D01*
X-187786Y-173852D01*
X-188026Y-172647D01*
X-188959Y-171250D01*
X-188026Y-169853D01*
X-187657Y-168000D01*
X-188026Y-166147D01*
X-189076Y-164575D01*
X-190647Y-163526D01*
X-192500Y-163157D01*
D02*
G37*
G36*
X338500Y-170892D02*
X336354Y-171319D01*
X334535Y-172535D01*
X333319Y-174354D01*
X332892Y-176500D01*
X333319Y-178646D01*
X334535Y-180465D01*
X336354Y-181681D01*
X338500Y-182108D01*
X340646Y-181681D01*
X342465Y-180465D01*
X343681Y-178646D01*
X344108Y-176500D01*
X343681Y-174354D01*
X342465Y-172535D01*
X340646Y-171319D01*
X338500Y-170892D01*
D02*
G37*
G36*
X-166500Y-159392D02*
X-168646Y-159819D01*
X-170465Y-161035D01*
X-171681Y-162854D01*
X-172108Y-165000D01*
X-171681Y-167146D01*
X-170465Y-168965D01*
X-168646Y-170181D01*
X-166500Y-170608D01*
X-164354Y-170181D01*
X-162535Y-168965D01*
X-161319Y-167146D01*
X-160892Y-165000D01*
X-161319Y-162854D01*
X-162535Y-161035D01*
X-164354Y-159819D01*
X-166500Y-159392D01*
D02*
G37*
G36*
X35500Y-166657D02*
X33647Y-167026D01*
X32075Y-168075D01*
X31764Y-168542D01*
X30236D01*
X29924Y-168075D01*
X28353Y-167026D01*
X26500Y-166657D01*
X24646Y-167026D01*
X23075Y-168075D01*
X22025Y-169646D01*
X21657Y-171500D01*
X22025Y-173353D01*
X23075Y-174925D01*
X24646Y-175974D01*
X26500Y-176343D01*
X28353Y-175974D01*
X29924Y-174925D01*
X30236Y-174458D01*
X31764D01*
X32075Y-174925D01*
X33647Y-175974D01*
X35500Y-176343D01*
X37353Y-175974D01*
X38924Y-174925D01*
X39974Y-173353D01*
X40343Y-171500D01*
X39974Y-169646D01*
X38924Y-168075D01*
X37353Y-167026D01*
X35500Y-166657D01*
D02*
G37*
G36*
X-329600Y-163757D02*
X-331453Y-164126D01*
X-333025Y-165175D01*
X-334074Y-166747D01*
X-334386Y-168312D01*
X-336499Y-167892D01*
X-338645Y-168319D01*
X-340465Y-169534D01*
X-341680Y-171354D01*
X-342107Y-173500D01*
X-341680Y-175646D01*
X-342415Y-176833D01*
X-343465Y-177534D01*
X-344680Y-179354D01*
X-345107Y-181500D01*
X-344680Y-183646D01*
X-343587Y-185282D01*
X-343965Y-185534D01*
X-345180Y-187354D01*
X-345607Y-189500D01*
X-345180Y-191646D01*
X-343965Y-193465D01*
X-342145Y-194681D01*
X-339999Y-195107D01*
X-337853Y-194681D01*
X-336034Y-193465D01*
X-334818Y-191646D01*
X-334392Y-189500D01*
X-334818Y-187354D01*
X-335912Y-185717D01*
X-335534Y-185465D01*
X-334319Y-183646D01*
X-333892Y-181500D01*
X-334319Y-179354D01*
X-333228Y-178823D01*
X-332465Y-179965D01*
X-330645Y-181180D01*
X-328499Y-181607D01*
X-326353Y-181180D01*
X-324534Y-179965D01*
X-323318Y-178146D01*
X-322892Y-176000D01*
X-323318Y-173854D01*
X-324534Y-172034D01*
X-325673Y-171273D01*
X-325126Y-170453D01*
X-324757Y-168600D01*
X-325126Y-166747D01*
X-326175Y-165175D01*
X-327747Y-164126D01*
X-329600Y-163757D01*
D02*
G37*
G36*
X-310600Y-163557D02*
X-312453Y-163926D01*
X-314025Y-164975D01*
X-315074Y-166547D01*
X-315443Y-168400D01*
X-315074Y-170253D01*
X-314025Y-171825D01*
X-312453Y-172874D01*
X-310600Y-173243D01*
X-308747Y-172874D01*
X-307175Y-171825D01*
X-306952Y-171490D01*
X-305682D01*
X-305325Y-172024D01*
X-303753Y-173074D01*
X-301900Y-173443D01*
X-300047Y-173074D01*
X-298475Y-172024D01*
X-297426Y-170453D01*
X-297057Y-168600D01*
X-297426Y-166747D01*
X-298475Y-165175D01*
X-300047Y-164126D01*
X-301900Y-163757D01*
X-303753Y-164126D01*
X-305325Y-165175D01*
X-305548Y-165510D01*
X-306818D01*
X-307175Y-164975D01*
X-308747Y-163926D01*
X-310600Y-163557D01*
D02*
G37*
G36*
X-283000Y-161657D02*
X-284853Y-162025D01*
X-286425Y-163075D01*
X-287474Y-164646D01*
X-287843Y-166500D01*
X-287474Y-168353D01*
X-286425Y-169924D01*
X-284853Y-170974D01*
X-283000Y-171343D01*
X-281147Y-170974D01*
X-279840Y-170101D01*
X-279246Y-170032D01*
X-278321Y-170333D01*
X-277525Y-171525D01*
X-275953Y-172574D01*
X-274100Y-172943D01*
X-272247Y-172574D01*
X-270675Y-171525D01*
X-269626Y-169953D01*
X-269257Y-168100D01*
X-269626Y-166247D01*
X-270675Y-164675D01*
X-272247Y-163626D01*
X-274100Y-163257D01*
X-275953Y-163626D01*
X-277260Y-164499D01*
X-277854Y-164568D01*
X-278779Y-164267D01*
X-279576Y-163075D01*
X-281147Y-162025D01*
X-283000Y-161657D01*
D02*
G37*
G36*
X-400499Y-155392D02*
X-402645Y-155819D01*
X-404464Y-157034D01*
X-405680Y-158854D01*
X-406107Y-161000D01*
X-405680Y-163146D01*
X-404464Y-164965D01*
X-402645Y-166180D01*
X-402362Y-166237D01*
X-402181Y-167146D01*
X-400965Y-168965D01*
X-399146Y-170181D01*
X-397000Y-170608D01*
X-394854Y-170181D01*
X-393035Y-168965D01*
X-391819Y-167146D01*
X-391392Y-165000D01*
X-391819Y-162854D01*
X-393035Y-161035D01*
X-394854Y-159819D01*
X-395137Y-159763D01*
X-395318Y-158854D01*
X-396534Y-157034D01*
X-398353Y-155819D01*
X-400499Y-155392D01*
D02*
G37*
G36*
X-386000Y-240892D02*
X-388146Y-241319D01*
X-389965Y-242535D01*
X-391181Y-244354D01*
X-391608Y-246500D01*
X-391181Y-248646D01*
X-389965Y-250465D01*
X-388146Y-251681D01*
X-386000Y-252108D01*
X-383854Y-251681D01*
X-382035Y-250465D01*
X-380819Y-248646D01*
X-380392Y-246500D01*
X-380819Y-244354D01*
X-382035Y-242535D01*
X-383854Y-241319D01*
X-386000Y-240892D01*
D02*
G37*
G36*
X-367000D02*
X-369146Y-241319D01*
X-370965Y-242535D01*
X-372181Y-244354D01*
X-372608Y-246500D01*
X-372181Y-248646D01*
X-370965Y-250465D01*
X-369146Y-251681D01*
X-367000Y-252108D01*
X-364854Y-251681D01*
X-363035Y-250465D01*
X-361819Y-248646D01*
X-361392Y-246500D01*
X-361819Y-244354D01*
X-363035Y-242535D01*
X-364854Y-241319D01*
X-367000Y-240892D01*
D02*
G37*
G36*
X273000D02*
X270854Y-241319D01*
X269035Y-242535D01*
X267819Y-244354D01*
X267392Y-246500D01*
X267819Y-248646D01*
X269035Y-250465D01*
X270854Y-251681D01*
X273000Y-252108D01*
X275146Y-251681D01*
X276965Y-250465D01*
X278181Y-248646D01*
X278608Y-246500D01*
X278181Y-244354D01*
X276965Y-242535D01*
X275146Y-241319D01*
X273000Y-240892D01*
D02*
G37*
G36*
X-332385Y-249892D02*
X-334531Y-250319D01*
X-336350Y-251535D01*
X-337565Y-253354D01*
X-337845Y-254757D01*
X-339140D01*
X-339319Y-253854D01*
X-340535Y-252035D01*
X-342354Y-250819D01*
X-344500Y-250392D01*
X-346646Y-250819D01*
X-348465Y-252035D01*
X-349681Y-253854D01*
X-350108Y-256000D01*
X-349681Y-258146D01*
X-348465Y-259965D01*
X-346646Y-261181D01*
X-344500Y-261608D01*
X-342354Y-261181D01*
X-340535Y-259965D01*
X-339319Y-258146D01*
X-339040Y-256743D01*
X-337745D01*
X-337565Y-257646D01*
X-336350Y-259465D01*
X-334531Y-260681D01*
X-332385Y-261108D01*
X-330239Y-260681D01*
X-328419Y-259465D01*
X-327204Y-257646D01*
X-326777Y-255500D01*
X-327204Y-253354D01*
X-328419Y-251535D01*
X-330239Y-250319D01*
X-332385Y-249892D01*
D02*
G37*
G36*
X125000Y-242892D02*
X122854Y-243319D01*
X121035Y-244535D01*
X119819Y-246354D01*
X119392Y-248500D01*
X119819Y-250646D01*
X121035Y-252465D01*
X122854Y-253681D01*
X125000Y-254108D01*
X127146Y-253681D01*
X128965Y-252465D01*
X130181Y-250646D01*
X130608Y-248500D01*
X130181Y-246354D01*
X128965Y-244535D01*
X127146Y-243319D01*
X125000Y-242892D01*
D02*
G37*
G36*
X-414500Y-240892D02*
X-416646Y-241319D01*
X-418465Y-242535D01*
X-419681Y-244354D01*
X-420108Y-246500D01*
X-419681Y-248646D01*
X-418465Y-250465D01*
X-416646Y-251681D01*
X-414500Y-252108D01*
X-412354Y-251681D01*
X-410535Y-250465D01*
X-409319Y-248646D01*
X-408892Y-246500D01*
X-409319Y-244354D01*
X-410535Y-242535D01*
X-412354Y-241319D01*
X-414500Y-240892D01*
D02*
G37*
G36*
X-433270Y-212701D02*
X-435416Y-213128D01*
X-437235Y-214343D01*
X-438451Y-216163D01*
X-438878Y-218309D01*
X-438451Y-220455D01*
X-437235Y-222274D01*
X-435416Y-223490D01*
X-433270Y-223916D01*
X-431124Y-223490D01*
X-429305Y-222274D01*
X-428089Y-220455D01*
X-427662Y-218309D01*
X-428089Y-216163D01*
X-429305Y-214343D01*
X-431124Y-213128D01*
X-433270Y-212701D01*
D02*
G37*
G36*
X377000Y-204892D02*
X374854Y-205319D01*
X373035Y-206535D01*
X371819Y-208354D01*
X371392Y-210500D01*
X371819Y-212646D01*
X373035Y-214465D01*
X374854Y-215681D01*
X377000Y-216108D01*
X379146Y-215681D01*
X380965Y-214465D01*
X382181Y-212646D01*
X382608Y-210500D01*
X382181Y-208354D01*
X380965Y-206535D01*
X379146Y-205319D01*
X377000Y-204892D01*
D02*
G37*
G36*
X275999Y-185392D02*
X273853Y-185819D01*
X272034Y-187034D01*
X270819Y-188854D01*
X270392Y-191000D01*
X270819Y-193146D01*
X272034Y-194965D01*
X272535Y-195299D01*
Y-196035D01*
X271319Y-197854D01*
X270892Y-200000D01*
X271319Y-202146D01*
X272535Y-203965D01*
X274354Y-205181D01*
X276500Y-205608D01*
X278646Y-205181D01*
X280465Y-203965D01*
X281681Y-202146D01*
X282108Y-200000D01*
X281681Y-197854D01*
X280465Y-196035D01*
X279965Y-195700D01*
Y-194965D01*
X281180Y-193146D01*
X281607Y-191000D01*
X281180Y-188854D01*
X279965Y-187034D01*
X278145Y-185819D01*
X275999Y-185392D01*
D02*
G37*
G36*
X-159500Y-236892D02*
X-161646Y-237319D01*
X-163465Y-238534D01*
X-164681Y-240354D01*
X-165107Y-242500D01*
X-164681Y-244646D01*
X-163465Y-246465D01*
X-161646Y-247680D01*
X-159500Y-248107D01*
X-157354Y-247680D01*
X-155534Y-246465D01*
X-154319Y-244646D01*
X-153892Y-242500D01*
X-154319Y-240354D01*
X-155534Y-238534D01*
X-157354Y-237319D01*
X-159500Y-236892D01*
D02*
G37*
G36*
X182500Y-223892D02*
X180354Y-224319D01*
X178534Y-225534D01*
X177319Y-227353D01*
X176892Y-229499D01*
X177319Y-231646D01*
X178534Y-233465D01*
X180354Y-234680D01*
X182169Y-235042D01*
X182907Y-236223D01*
X182819Y-236354D01*
X182392Y-238500D01*
X182819Y-240646D01*
X184035Y-242465D01*
X185854Y-243681D01*
X188000Y-244108D01*
X190146Y-243681D01*
X191965Y-242465D01*
X193181Y-240646D01*
X193608Y-238500D01*
X193181Y-236354D01*
X191965Y-234535D01*
X190146Y-233319D01*
X188331Y-232958D01*
X187593Y-231777D01*
X187680Y-231646D01*
X188107Y-229499D01*
X187680Y-227353D01*
X186465Y-225534D01*
X184646Y-224319D01*
X182500Y-223892D01*
D02*
G37*
G36*
X382020Y-216892D02*
X379874Y-217319D01*
X378055Y-218535D01*
X376839Y-220354D01*
X376412Y-222500D01*
X376839Y-224646D01*
X378055Y-226465D01*
X379874Y-227681D01*
X382020Y-228108D01*
X384166Y-227681D01*
X385985Y-226465D01*
X387201Y-224646D01*
X387628Y-222500D01*
X387201Y-220354D01*
X385985Y-218535D01*
X384166Y-217319D01*
X382020Y-216892D01*
D02*
G37*
G36*
X63500Y-166157D02*
X61646Y-166525D01*
X60075Y-167575D01*
X59763Y-168042D01*
X58236D01*
X57924Y-167576D01*
X56353Y-166526D01*
X54500Y-166157D01*
X52646Y-166526D01*
X51075Y-167576D01*
X50026Y-169147D01*
X49657Y-171000D01*
X50026Y-172854D01*
X51075Y-174425D01*
X52646Y-175474D01*
X54500Y-175843D01*
X56353Y-175474D01*
X57924Y-174425D01*
X58236Y-173958D01*
X59764D01*
X60075Y-174424D01*
X61646Y-175474D01*
X63500Y-175843D01*
X65353Y-175474D01*
X66924Y-174424D01*
X67974Y-172853D01*
X68343Y-171000D01*
X67974Y-169146D01*
X66924Y-167575D01*
X65353Y-166525D01*
X63500Y-166157D01*
D02*
G37*
G36*
X-433999Y-129892D02*
X-436145Y-130319D01*
X-437964Y-131535D01*
X-439180Y-133354D01*
X-439607Y-135500D01*
X-439180Y-137646D01*
X-437964Y-139465D01*
X-436145Y-140681D01*
X-433999Y-141108D01*
X-431853Y-140681D01*
X-430034Y-139465D01*
X-428818Y-137646D01*
X-428391Y-135500D01*
X-428818Y-133354D01*
X-430034Y-131535D01*
X-431853Y-130319D01*
X-433999Y-129892D01*
D02*
G37*
G36*
X-22000Y-126892D02*
X-24146Y-127319D01*
X-25965Y-128535D01*
X-27181Y-130354D01*
X-27608Y-132500D01*
X-27181Y-134646D01*
X-25965Y-136465D01*
X-24146Y-137681D01*
X-22000Y-138108D01*
X-19854Y-137681D01*
X-18035Y-136465D01*
X-16819Y-134646D01*
X-16392Y-132500D01*
X-16819Y-130354D01*
X-18035Y-128535D01*
X-19854Y-127319D01*
X-22000Y-126892D01*
D02*
G37*
G36*
X159000Y-123892D02*
X156854Y-124319D01*
X155035Y-125535D01*
X153819Y-127354D01*
X153392Y-129500D01*
X153819Y-131646D01*
X155035Y-133465D01*
X156854Y-134681D01*
X159000Y-135108D01*
X161146Y-134681D01*
X162965Y-133465D01*
X164181Y-131646D01*
X164608Y-129500D01*
X164181Y-127354D01*
X162965Y-125535D01*
X161146Y-124319D01*
X159000Y-123892D01*
D02*
G37*
G36*
X256500Y-135892D02*
X254354Y-136319D01*
X252535Y-137535D01*
X251319Y-139354D01*
X250892Y-141500D01*
X251319Y-143646D01*
X251434Y-143819D01*
X250801Y-144621D01*
X250565Y-144803D01*
X248500Y-144392D01*
X246353Y-144819D01*
X244534Y-146034D01*
X243319Y-147854D01*
X242892Y-150000D01*
X243319Y-152146D01*
X244534Y-153965D01*
X246353Y-155181D01*
X248500Y-155607D01*
X250646Y-155181D01*
X252465Y-153965D01*
X253680Y-152146D01*
X254107Y-150000D01*
X253680Y-147854D01*
X253565Y-147681D01*
X254198Y-146878D01*
X254435Y-146697D01*
X256500Y-147108D01*
X258646Y-146681D01*
X260465Y-145465D01*
X261681Y-143646D01*
X262108Y-141500D01*
X261681Y-139354D01*
X260465Y-137535D01*
X258646Y-136319D01*
X256500Y-135892D01*
D02*
G37*
G36*
X-91500Y-130892D02*
X-93646Y-131319D01*
X-95465Y-132535D01*
X-96681Y-134354D01*
X-97108Y-136500D01*
X-96681Y-138646D01*
X-95465Y-140465D01*
X-93646Y-141681D01*
X-91500Y-142108D01*
X-89354Y-141681D01*
X-87535Y-140465D01*
X-86319Y-138646D01*
X-85892Y-136500D01*
X-86319Y-134354D01*
X-87535Y-132535D01*
X-89354Y-131319D01*
X-91500Y-130892D01*
D02*
G37*
G36*
X-236000Y-109944D02*
X-237697Y-110167D01*
X-239278Y-110822D01*
X-240636Y-111864D01*
X-241678Y-113222D01*
X-242333Y-114803D01*
X-242556Y-116500D01*
X-242333Y-118197D01*
X-241678Y-119778D01*
X-240636Y-121136D01*
X-239278Y-122178D01*
X-237697Y-122833D01*
X-236000Y-123056D01*
X-235520Y-124274D01*
X-235333Y-125697D01*
X-234678Y-127278D01*
X-233636Y-128636D01*
X-232278Y-129678D01*
X-230697Y-130333D01*
X-229000Y-130556D01*
X-227758Y-130393D01*
X-227031Y-131530D01*
X-227178Y-131722D01*
X-227833Y-133303D01*
X-228056Y-135000D01*
X-227833Y-136697D01*
X-227178Y-138278D01*
X-226136Y-139636D01*
X-224778Y-140678D01*
X-223197Y-141333D01*
X-221500Y-141556D01*
X-219803Y-141333D01*
X-218222Y-140678D01*
X-216864Y-139636D01*
X-215822Y-138278D01*
X-215167Y-136697D01*
X-214944Y-135000D01*
X-215167Y-133303D01*
X-215822Y-131722D01*
X-216864Y-130364D01*
X-218222Y-129322D01*
X-219803Y-128667D01*
X-221500Y-128444D01*
X-222742Y-128607D01*
X-223470Y-127470D01*
X-223322Y-127278D01*
X-222667Y-125697D01*
X-222444Y-124000D01*
X-222667Y-122303D01*
X-223322Y-120722D01*
X-224364Y-119364D01*
X-225722Y-118322D01*
X-227303Y-117667D01*
X-229000Y-117444D01*
X-229480Y-116226D01*
X-229667Y-114803D01*
X-230322Y-113222D01*
X-231364Y-111864D01*
X-232722Y-110822D01*
X-234303Y-110167D01*
X-236000Y-109944D01*
D02*
G37*
G36*
X32000Y-116944D02*
X30303Y-117167D01*
X28722Y-117822D01*
X27364Y-118864D01*
X26322Y-120222D01*
X25667Y-121803D01*
X25444Y-123500D01*
X25667Y-125197D01*
X26322Y-126778D01*
X27364Y-128136D01*
X28722Y-129178D01*
X30303Y-129833D01*
X32000Y-130056D01*
X33697Y-129833D01*
X35278Y-129178D01*
X36636Y-128136D01*
X37678Y-126778D01*
X38333Y-125197D01*
X38556Y-123500D01*
X38333Y-121803D01*
X37678Y-120222D01*
X36636Y-118864D01*
X35278Y-117822D01*
X33697Y-117167D01*
X32000Y-116944D01*
D02*
G37*
G36*
X54095Y-107429D02*
X52398Y-107653D01*
X50817Y-108308D01*
X49459Y-109349D01*
X48417Y-110707D01*
X47762Y-112288D01*
X47539Y-113985D01*
X47762Y-115682D01*
X48190Y-116714D01*
X46722Y-117322D01*
X45364Y-118364D01*
X44322Y-119722D01*
X43667Y-121303D01*
X43444Y-123000D01*
X43667Y-124697D01*
X44322Y-126278D01*
X45364Y-127636D01*
X46722Y-128678D01*
X48303Y-129333D01*
X50000Y-129556D01*
X51697Y-129333D01*
X53278Y-128678D01*
X54636Y-127636D01*
X55678Y-126278D01*
X56333Y-124697D01*
X56556Y-123000D01*
X56333Y-121303D01*
X55905Y-120271D01*
X57373Y-119663D01*
X58731Y-118621D01*
X59773Y-117263D01*
X60428Y-115682D01*
X60651Y-113985D01*
X60428Y-112288D01*
X59773Y-110707D01*
X58731Y-109349D01*
X57373Y-108308D01*
X55792Y-107653D01*
X54095Y-107429D01*
D02*
G37*
G36*
X6500Y-113444D02*
X4803Y-113667D01*
X3222Y-114322D01*
X1864Y-115364D01*
X822Y-116722D01*
X167Y-118303D01*
X-56Y-120000D01*
X167Y-121697D01*
X822Y-123278D01*
X1864Y-124636D01*
X3222Y-125678D01*
X4803Y-126333D01*
X6500Y-126556D01*
X8197Y-126333D01*
X9778Y-125678D01*
X11136Y-124636D01*
X12178Y-123278D01*
X12833Y-121697D01*
X13056Y-120000D01*
X12833Y-118303D01*
X12178Y-116722D01*
X11136Y-115364D01*
X9778Y-114322D01*
X8197Y-113667D01*
X6500Y-113444D01*
D02*
G37*
G36*
X-251500Y-120944D02*
X-253197Y-121167D01*
X-254778Y-121822D01*
X-256136Y-122864D01*
X-257178Y-124222D01*
X-257833Y-125803D01*
X-258056Y-127500D01*
X-257833Y-129197D01*
X-257178Y-130778D01*
X-256136Y-132136D01*
X-254778Y-133178D01*
X-253197Y-133833D01*
X-251500Y-134056D01*
X-249803Y-133833D01*
X-248222Y-133178D01*
X-246864Y-132136D01*
X-245822Y-130778D01*
X-245167Y-129197D01*
X-244944Y-127500D01*
X-245167Y-125803D01*
X-245822Y-124222D01*
X-246864Y-122864D01*
X-248222Y-121822D01*
X-249803Y-121167D01*
X-251500Y-120944D01*
D02*
G37*
G36*
X-74500Y-120892D02*
X-76646Y-121319D01*
X-78465Y-122535D01*
X-79681Y-124354D01*
X-80108Y-126500D01*
X-79681Y-128646D01*
X-78465Y-130465D01*
X-76646Y-131681D01*
X-74500Y-132107D01*
X-72354Y-131681D01*
X-70535Y-130465D01*
X-69319Y-128646D01*
X-68892Y-126500D01*
X-69319Y-124354D01*
X-70535Y-122535D01*
X-72354Y-121319D01*
X-74500Y-120892D01*
D02*
G37*
G36*
X-409499Y-114892D02*
X-411645Y-115319D01*
X-413465Y-116535D01*
X-414680Y-118354D01*
X-414923Y-119576D01*
X-416145Y-119819D01*
X-417965Y-121035D01*
X-419180Y-122854D01*
X-419607Y-125000D01*
X-419180Y-127146D01*
X-417965Y-128965D01*
X-416145Y-130181D01*
X-413999Y-130608D01*
X-411853Y-130181D01*
X-410034Y-128965D01*
X-408819Y-127146D01*
X-408575Y-125924D01*
X-407353Y-125681D01*
X-405534Y-124465D01*
X-404318Y-122646D01*
X-403891Y-120500D01*
X-404318Y-118354D01*
X-405534Y-116535D01*
X-407353Y-115319D01*
X-409499Y-114892D01*
D02*
G37*
G36*
X312000Y-150892D02*
X309854Y-151319D01*
X308035Y-152535D01*
X306819Y-154354D01*
X306392Y-156500D01*
X306819Y-158646D01*
X308035Y-160465D01*
X309854Y-161681D01*
X312000Y-162108D01*
X314146Y-161681D01*
X315965Y-160465D01*
X317181Y-158646D01*
X317608Y-156500D01*
X317181Y-154354D01*
X315965Y-152535D01*
X314146Y-151319D01*
X312000Y-150892D01*
D02*
G37*
G36*
X-196500Y-119657D02*
X-198353Y-120026D01*
X-199925Y-121075D01*
X-200974Y-122647D01*
X-201343Y-124500D01*
X-200974Y-126353D01*
X-199925Y-127925D01*
X-198837Y-128651D01*
X-197974Y-129647D01*
X-198343Y-131500D01*
X-197974Y-133353D01*
X-197443Y-134149D01*
X-197853Y-135526D01*
X-199425Y-136575D01*
X-200474Y-138147D01*
X-200843Y-140000D01*
X-200474Y-141853D01*
X-199425Y-143425D01*
X-197853Y-144474D01*
X-196590Y-144726D01*
X-196843Y-146000D01*
X-196474Y-147853D01*
X-195425Y-149425D01*
X-194255Y-150206D01*
X-193857Y-150623D01*
X-193885Y-151763D01*
X-194475Y-152646D01*
X-194843Y-154500D01*
X-194475Y-156353D01*
X-193425Y-157924D01*
X-191854Y-158974D01*
X-190000Y-159343D01*
X-188147Y-158974D01*
X-186576Y-157924D01*
X-185526Y-156353D01*
X-185157Y-154500D01*
X-185526Y-152646D01*
X-186576Y-151075D01*
X-187745Y-150294D01*
X-188143Y-149877D01*
X-188116Y-148737D01*
X-187526Y-147853D01*
X-187157Y-146000D01*
X-187526Y-144147D01*
X-188575Y-142576D01*
X-190147Y-141526D01*
X-191410Y-141274D01*
X-191157Y-140000D01*
X-191526Y-138147D01*
X-192057Y-137351D01*
X-191647Y-135974D01*
X-190075Y-134925D01*
X-189026Y-133353D01*
X-188657Y-131500D01*
X-189026Y-129647D01*
X-190075Y-128076D01*
X-191163Y-127349D01*
X-192026Y-126353D01*
X-191657Y-124500D01*
X-192026Y-122647D01*
X-193075Y-121075D01*
X-194647Y-120026D01*
X-196500Y-119657D01*
D02*
G37*
G36*
X-160500Y-147892D02*
X-162646Y-148319D01*
X-164465Y-149535D01*
X-165681Y-151354D01*
X-166108Y-153500D01*
X-165681Y-155646D01*
X-164465Y-157465D01*
X-162646Y-158681D01*
X-160500Y-159108D01*
X-158354Y-158681D01*
X-156535Y-157465D01*
X-155319Y-155646D01*
X-154892Y-153500D01*
X-155319Y-151354D01*
X-156535Y-149535D01*
X-158354Y-148319D01*
X-160500Y-147892D01*
D02*
G37*
G36*
X119500Y-166157D02*
X117647Y-166525D01*
X116075Y-167575D01*
X115764Y-168042D01*
X114236D01*
X113924Y-167575D01*
X112353Y-166525D01*
X110500Y-166157D01*
X108646Y-166525D01*
X107075Y-167575D01*
X106025Y-169146D01*
X105657Y-171000D01*
X106025Y-172853D01*
X107075Y-174424D01*
X108646Y-175474D01*
X110500Y-175843D01*
X112353Y-175474D01*
X113924Y-174424D01*
X114236Y-173958D01*
X115764D01*
X116075Y-174424D01*
X117647Y-175474D01*
X119500Y-175843D01*
X121353Y-175474D01*
X122924Y-174424D01*
X123974Y-172853D01*
X124343Y-171000D01*
X123974Y-169146D01*
X122924Y-167575D01*
X121353Y-166525D01*
X119500Y-166157D01*
D02*
G37*
G36*
X-217700Y-163957D02*
X-219553Y-164326D01*
X-221125Y-165375D01*
X-221653Y-166166D01*
X-223181D01*
X-223575Y-165576D01*
X-225147Y-164526D01*
X-227000Y-164157D01*
X-228853Y-164526D01*
X-230425Y-165576D01*
X-231474Y-167147D01*
X-231843Y-169000D01*
X-231474Y-170853D01*
X-230425Y-172425D01*
X-228853Y-173474D01*
X-227000Y-173843D01*
X-225147Y-173474D01*
X-223575Y-172425D01*
X-223047Y-171633D01*
X-221520D01*
X-221125Y-172225D01*
X-219553Y-173274D01*
X-217700Y-173643D01*
X-215847Y-173274D01*
X-214275Y-172225D01*
X-213226Y-170653D01*
X-212857Y-168800D01*
X-213226Y-166947D01*
X-214275Y-165375D01*
X-215847Y-164326D01*
X-217700Y-163957D01*
D02*
G37*
G36*
X296500Y-151892D02*
X294354Y-152319D01*
X292535Y-153535D01*
X291319Y-155354D01*
X290892Y-157500D01*
X291319Y-159646D01*
X292535Y-161465D01*
X294354Y-162681D01*
X296500Y-163108D01*
X298646Y-162681D01*
X300465Y-161465D01*
X301681Y-159646D01*
X302108Y-157500D01*
X301681Y-155354D01*
X300465Y-153535D01*
X298646Y-152319D01*
X296500Y-151892D01*
D02*
G37*
G36*
X149000Y-145657D02*
X147147Y-146026D01*
X145576Y-147076D01*
X144526Y-148647D01*
X144157Y-150500D01*
X144526Y-152354D01*
X145576Y-153925D01*
X147147Y-154975D01*
X149000Y-155343D01*
X150853Y-154975D01*
X152425Y-153925D01*
X153474Y-152354D01*
X153843Y-150500D01*
X153474Y-148647D01*
X152425Y-147076D01*
X150853Y-146026D01*
X149000Y-145657D01*
D02*
G37*
G36*
X-42500Y-143392D02*
X-44646Y-143819D01*
X-46465Y-145035D01*
X-47681Y-146854D01*
X-48108Y-149000D01*
X-47681Y-151146D01*
X-46465Y-152965D01*
X-44646Y-154181D01*
X-42500Y-154608D01*
X-40354Y-154181D01*
X-38535Y-152965D01*
X-37319Y-151146D01*
X-36892Y-149000D01*
X-37319Y-146854D01*
X-38535Y-145035D01*
X-40354Y-143819D01*
X-42500Y-143392D01*
D02*
G37*
G36*
X-122500Y-142892D02*
X-124646Y-143319D01*
X-126465Y-144535D01*
X-127681Y-146354D01*
X-128108Y-148500D01*
X-127681Y-150646D01*
X-126465Y-152465D01*
X-124646Y-153681D01*
X-122500Y-154108D01*
X-120354Y-153681D01*
X-118535Y-152465D01*
X-117319Y-150646D01*
X-116892Y-148500D01*
X-117319Y-146354D01*
X-118535Y-144535D01*
X-120354Y-143319D01*
X-122500Y-142892D01*
D02*
G37*
G36*
X179500Y-146892D02*
X177354Y-147319D01*
X175535Y-148535D01*
X174319Y-150354D01*
X173892Y-152500D01*
X174319Y-154646D01*
X175535Y-156465D01*
X177354Y-157681D01*
X179500Y-158108D01*
X181646Y-157681D01*
X183465Y-156465D01*
X184201D01*
X184535Y-156965D01*
X186354Y-158181D01*
X188500Y-158608D01*
X190646Y-158181D01*
X192465Y-156965D01*
X193681Y-155146D01*
X194108Y-153000D01*
X193681Y-150854D01*
X192465Y-149035D01*
X190646Y-147819D01*
X188500Y-147392D01*
X186354Y-147819D01*
X184535Y-149035D01*
X183799D01*
X183465Y-148535D01*
X181646Y-147319D01*
X179500Y-146892D01*
D02*
G37*
G36*
X-336620Y-146530D02*
X-338766Y-146956D01*
X-340585Y-148172D01*
X-341801Y-149991D01*
X-342228Y-152137D01*
X-341801Y-154283D01*
X-340585Y-156103D01*
X-338766Y-157318D01*
X-336620Y-157745D01*
X-334474Y-157318D01*
X-332655Y-156103D01*
X-331439Y-154283D01*
X-331012Y-152137D01*
X-331439Y-149991D01*
X-332655Y-148172D01*
X-334474Y-146956D01*
X-336620Y-146530D01*
D02*
G37*
G36*
X-98500Y-144892D02*
X-100646Y-145319D01*
X-102465Y-146534D01*
X-103681Y-148354D01*
X-104108Y-150500D01*
X-103681Y-152646D01*
X-102465Y-154465D01*
X-100646Y-155681D01*
X-98500Y-156107D01*
X-96354Y-155681D01*
X-94535Y-154465D01*
X-93319Y-152646D01*
X-92892Y-150500D01*
X-93319Y-148354D01*
X-94535Y-146534D01*
X-96354Y-145319D01*
X-98500Y-144892D01*
D02*
G37*
G36*
X145500Y-189392D02*
X143354Y-189819D01*
X141535Y-191035D01*
X140319Y-192854D01*
X139892Y-195000D01*
X140319Y-197146D01*
X141535Y-198965D01*
X142710Y-199751D01*
Y-201249D01*
X141535Y-202035D01*
X140319Y-203854D01*
X139892Y-206000D01*
X140319Y-208146D01*
X141535Y-209965D01*
X143354Y-211181D01*
X144060Y-211321D01*
X144328Y-212670D01*
X143034Y-213534D01*
X141819Y-215354D01*
X141392Y-217500D01*
X141819Y-219646D01*
X143034Y-221465D01*
X143633Y-221865D01*
Y-223135D01*
X143035Y-223535D01*
X141819Y-225354D01*
X141392Y-227500D01*
X141819Y-229646D01*
X143035Y-231465D01*
X144854Y-232681D01*
X146105Y-232930D01*
X145892Y-234000D01*
X146182Y-235459D01*
X145910Y-236585D01*
X145430Y-237102D01*
X144035Y-238035D01*
X142819Y-239854D01*
X142392Y-242000D01*
X142819Y-244146D01*
X144035Y-245965D01*
X145854Y-247181D01*
X148000Y-247608D01*
X148398Y-247529D01*
X148682Y-248956D01*
X146854Y-249319D01*
X145035Y-250535D01*
X143819Y-252354D01*
X143392Y-254500D01*
X143819Y-256646D01*
X145035Y-258465D01*
X146854Y-259681D01*
X149000Y-260108D01*
X151146Y-259681D01*
X152965Y-258465D01*
X154181Y-256646D01*
X154608Y-254500D01*
X154318Y-253044D01*
X156146Y-252681D01*
X157965Y-251465D01*
X159181Y-249646D01*
X159608Y-247500D01*
X159181Y-245354D01*
X157965Y-243535D01*
X156146Y-242319D01*
X154000Y-241892D01*
X153602Y-241971D01*
X153317Y-240541D01*
X153589Y-239414D01*
X154069Y-238897D01*
X155465Y-237965D01*
X156681Y-236145D01*
X157107Y-234000D01*
X156681Y-231854D01*
X155569Y-230189D01*
X155702Y-229425D01*
X155936Y-228822D01*
X156646Y-228680D01*
X158465Y-227465D01*
X159681Y-225646D01*
X160107Y-223500D01*
X159681Y-221354D01*
X158465Y-219534D01*
X156646Y-218319D01*
X156516Y-218293D01*
X156248Y-216945D01*
X156965Y-216465D01*
X158181Y-214646D01*
X158608Y-212500D01*
X158181Y-210354D01*
X156965Y-208535D01*
X155146Y-207319D01*
X154282Y-207147D01*
Y-205852D01*
X155146Y-205681D01*
X156965Y-204465D01*
X158181Y-202646D01*
X158607Y-200500D01*
X158181Y-198354D01*
X156965Y-196534D01*
X155146Y-195319D01*
X153000Y-194892D01*
X151331Y-195224D01*
X151108Y-195000D01*
X150681Y-192854D01*
X149465Y-191035D01*
X147646Y-189819D01*
X145500Y-189392D01*
D02*
G37*
G36*
X392500Y-331892D02*
X390354Y-332319D01*
X388535Y-333535D01*
X387319Y-335354D01*
X386892Y-337500D01*
X387319Y-339646D01*
X388535Y-341465D01*
X390354Y-342681D01*
X392500Y-343108D01*
X394646Y-342681D01*
X396465Y-341465D01*
X397681Y-339646D01*
X398108Y-337500D01*
X397681Y-335354D01*
X396465Y-333535D01*
X394646Y-332319D01*
X392500Y-331892D01*
D02*
G37*
G36*
X-382000Y-303392D02*
X-384146Y-303819D01*
X-385965Y-305035D01*
X-387181Y-306854D01*
X-387608Y-309000D01*
X-387181Y-311146D01*
X-385965Y-312965D01*
X-384146Y-314181D01*
X-383647Y-314280D01*
X-383472Y-315119D01*
X-383565Y-315591D01*
X-384308Y-315899D01*
X-384838Y-316253D01*
X-384877Y-316269D01*
X-384978Y-316347D01*
X-386408Y-317302D01*
X-387112Y-318006D01*
X-387112Y-318006D01*
X-388067Y-319436D01*
X-388144Y-319537D01*
X-388161Y-319576D01*
X-388515Y-320106D01*
X-388896Y-321025D01*
X-389020Y-321651D01*
X-389036Y-321690D01*
X-389053Y-321815D01*
X-389389Y-323503D01*
Y-324497D01*
X-389053Y-326185D01*
X-389036Y-326310D01*
X-389020Y-326349D01*
X-388896Y-326975D01*
X-388515Y-327894D01*
X-388161Y-328424D01*
X-388144Y-328463D01*
X-388067Y-328564D01*
X-387112Y-329994D01*
X-386408Y-330698D01*
X-386408Y-330698D01*
X-384978Y-331653D01*
X-384877Y-331730D01*
X-384838Y-331747D01*
X-384308Y-332101D01*
X-383389Y-332482D01*
X-382763Y-332606D01*
X-382724Y-332622D01*
X-382599Y-332639D01*
X-380911Y-332974D01*
X-380660D01*
X-380414Y-333023D01*
X-380168Y-332974D01*
X-379917D01*
X-378229Y-332639D01*
X-378104Y-332622D01*
X-378064Y-332606D01*
X-377439Y-332482D01*
X-376520Y-332101D01*
X-375990Y-331747D01*
X-375951Y-331730D01*
X-375850Y-331653D01*
X-374420Y-330698D01*
X-373717Y-329994D01*
X-373717Y-329994D01*
X-372761Y-328564D01*
X-372684Y-328463D01*
X-372667Y-328424D01*
X-372313Y-327894D01*
X-371932Y-326975D01*
X-371808Y-326349D01*
X-371792Y-326310D01*
X-371775Y-326185D01*
X-371440Y-324497D01*
Y-323503D01*
X-371775Y-321815D01*
X-371792Y-321690D01*
X-371808Y-321651D01*
X-371932Y-321025D01*
X-372313Y-320106D01*
X-372667Y-319576D01*
X-372684Y-319537D01*
X-372761Y-319436D01*
X-373717Y-318006D01*
X-374420Y-317302D01*
X-374420Y-317302D01*
X-375850Y-316347D01*
X-375951Y-316269D01*
X-375990Y-316253D01*
X-376520Y-315899D01*
X-377439Y-315518D01*
X-378064Y-315394D01*
X-378104Y-315378D01*
X-378229Y-315361D01*
X-379081Y-315192D01*
X-379349Y-313844D01*
X-378035Y-312965D01*
X-376819Y-311146D01*
X-376392Y-309000D01*
X-376819Y-306854D01*
X-378035Y-305035D01*
X-379854Y-303819D01*
X-382000Y-303392D01*
D02*
G37*
G36*
X-235507Y-318392D02*
X-237653Y-318819D01*
X-239472Y-320035D01*
X-240688Y-321854D01*
X-241115Y-324000D01*
X-240688Y-326146D01*
X-239472Y-327965D01*
X-237653Y-329181D01*
X-235507Y-329608D01*
X-233361Y-329181D01*
X-231542Y-327965D01*
X-230326Y-326146D01*
X-229899Y-324000D01*
X-230326Y-321854D01*
X-231542Y-320035D01*
X-233361Y-318819D01*
X-235507Y-318392D01*
D02*
G37*
G36*
X208500Y-343892D02*
X206354Y-344319D01*
X204535Y-345535D01*
X203319Y-347354D01*
X202892Y-349500D01*
X203319Y-351646D01*
X204535Y-353465D01*
X206354Y-354681D01*
X208500Y-355108D01*
X210646Y-354681D01*
X212465Y-353465D01*
X213681Y-351646D01*
X214108Y-349500D01*
X213681Y-347354D01*
X212465Y-345535D01*
X210646Y-344319D01*
X208500Y-343892D01*
D02*
G37*
G36*
X247500D02*
X245354Y-344319D01*
X243535Y-345535D01*
X242319Y-347354D01*
X241892Y-349500D01*
X242319Y-351646D01*
X243535Y-353465D01*
X245354Y-354681D01*
X247500Y-355108D01*
X249646Y-354681D01*
X251465Y-353465D01*
X252681Y-351646D01*
X253108Y-349500D01*
X252681Y-347354D01*
X251465Y-345535D01*
X249646Y-344319D01*
X247500Y-343892D01*
D02*
G37*
G36*
X-367000Y-342892D02*
X-369146Y-343319D01*
X-370965Y-344535D01*
X-371035D01*
X-372854Y-343319D01*
X-375000Y-342892D01*
X-377146Y-343319D01*
X-378965Y-344535D01*
X-380181Y-346354D01*
X-380608Y-348500D01*
X-380181Y-350646D01*
X-379443Y-351750D01*
X-380181Y-352854D01*
X-380608Y-355000D01*
X-380181Y-357146D01*
X-378965Y-358965D01*
X-377146Y-360181D01*
X-375000Y-360608D01*
X-372854Y-360181D01*
X-371035Y-358965D01*
X-370965D01*
X-369146Y-360181D01*
X-367000Y-360608D01*
X-364854Y-360181D01*
X-363035Y-358965D01*
X-361819Y-357146D01*
X-361392Y-355000D01*
X-361819Y-352854D01*
X-362557Y-351750D01*
X-361819Y-350646D01*
X-361392Y-348500D01*
X-361819Y-346354D01*
X-363035Y-344535D01*
X-364854Y-343319D01*
X-367000Y-342892D01*
D02*
G37*
G36*
X371000Y-322892D02*
X368854Y-323319D01*
X367035Y-324535D01*
X365819Y-326354D01*
X365512Y-327899D01*
X365425Y-328028D01*
X364346Y-328659D01*
X364159Y-328687D01*
X360074Y-326995D01*
X355100Y-325801D01*
X352500Y-325596D01*
Y-355500D01*
X382404D01*
X382199Y-352900D01*
X381005Y-347926D01*
X379047Y-343200D01*
X376969Y-339809D01*
X377590Y-338391D01*
X378646Y-338181D01*
X380465Y-336965D01*
X381681Y-335146D01*
X382108Y-333000D01*
X381681Y-330854D01*
X380465Y-329035D01*
X378646Y-327819D01*
X376500Y-327392D01*
X376392Y-327414D01*
X376181Y-326354D01*
X374965Y-324535D01*
X373146Y-323319D01*
X371000Y-322892D01*
D02*
G37*
G36*
X-399000Y-304892D02*
X-401146Y-305319D01*
X-402965Y-306535D01*
X-404181Y-308354D01*
X-404608Y-310500D01*
X-404181Y-312646D01*
X-402965Y-314465D01*
X-401146Y-315681D01*
X-399533Y-316002D01*
Y-317297D01*
X-399646Y-317319D01*
X-401465Y-318535D01*
X-402681Y-320354D01*
X-403108Y-322500D01*
X-402681Y-324646D01*
X-401465Y-326465D01*
X-399646Y-327681D01*
X-397500Y-328108D01*
X-395354Y-327681D01*
X-393535Y-326465D01*
X-392319Y-324646D01*
X-391892Y-322500D01*
X-392319Y-320354D01*
X-393535Y-318535D01*
X-395354Y-317319D01*
X-396967Y-316998D01*
Y-315703D01*
X-396854Y-315681D01*
X-395035Y-314465D01*
X-393819Y-312646D01*
X-393392Y-310500D01*
X-393819Y-308354D01*
X-395035Y-306535D01*
X-396854Y-305319D01*
X-399000Y-304892D01*
D02*
G37*
G36*
X391000Y-316892D02*
X388854Y-317319D01*
X387035Y-318535D01*
X385819Y-320354D01*
X385392Y-322500D01*
X385819Y-324646D01*
X387035Y-326465D01*
X388854Y-327681D01*
X391000Y-328108D01*
X393146Y-327681D01*
X394965Y-326465D01*
X396181Y-324646D01*
X396608Y-322500D01*
X396181Y-320354D01*
X394965Y-318535D01*
X393146Y-317319D01*
X391000Y-316892D01*
D02*
G37*
G36*
X234000Y-318392D02*
X231854Y-318819D01*
X230035Y-320035D01*
X228819Y-321854D01*
X228392Y-324000D01*
X228819Y-326146D01*
X230035Y-327965D01*
X231854Y-329181D01*
X234000Y-329608D01*
X236146Y-329181D01*
X237965Y-327965D01*
X239181Y-326146D01*
X239608Y-324000D01*
X239181Y-321854D01*
X237965Y-320035D01*
X236146Y-318819D01*
X234000Y-318392D01*
D02*
G37*
G36*
X260000D02*
X257854Y-318819D01*
X256035Y-320035D01*
X254819Y-321854D01*
X254392Y-324000D01*
X254819Y-326146D01*
X256035Y-327965D01*
X257854Y-329181D01*
X260000Y-329608D01*
X262146Y-329181D01*
X263965Y-327965D01*
X265181Y-326146D01*
X265608Y-324000D01*
X265181Y-321854D01*
X263965Y-320035D01*
X262146Y-318819D01*
X260000Y-318392D01*
D02*
G37*
G36*
X-248500Y-317892D02*
X-250646Y-318319D01*
X-252465Y-319535D01*
X-253681Y-321354D01*
X-254108Y-323500D01*
X-253681Y-325646D01*
X-252465Y-327465D01*
X-250646Y-328681D01*
X-248500Y-329108D01*
X-246354Y-328681D01*
X-244535Y-327465D01*
X-243319Y-325646D01*
X-242892Y-323500D01*
X-243319Y-321354D01*
X-244535Y-319535D01*
X-246354Y-318319D01*
X-248500Y-317892D01*
D02*
G37*
G36*
X382404Y-360500D02*
X352500D01*
Y-390404D01*
X355100Y-390199D01*
X360074Y-389005D01*
X364800Y-387047D01*
X369162Y-384374D01*
X373052Y-381052D01*
X376374Y-377162D01*
X379047Y-372800D01*
X381005Y-368074D01*
X382199Y-363100D01*
X382404Y-360500D01*
D02*
G37*
G36*
X84500Y-373392D02*
X82354Y-373819D01*
X80535Y-375035D01*
X79319Y-376854D01*
X78892Y-379000D01*
X79319Y-381146D01*
X80535Y-382965D01*
X82354Y-384181D01*
X84500Y-384608D01*
X86646Y-384181D01*
X88465Y-382965D01*
X89681Y-381146D01*
X90108Y-379000D01*
X89681Y-376854D01*
X88465Y-375035D01*
X86646Y-373819D01*
X84500Y-373392D01*
D02*
G37*
G36*
X-261000Y-356892D02*
X-263146Y-357319D01*
X-264965Y-358535D01*
X-266181Y-360354D01*
X-266608Y-362500D01*
X-266181Y-364646D01*
X-264965Y-366465D01*
X-263146Y-367681D01*
X-261000Y-368108D01*
X-258854Y-367681D01*
X-257035Y-366465D01*
X-255819Y-364646D01*
X-255392Y-362500D01*
X-255819Y-360354D01*
X-257035Y-358535D01*
X-258854Y-357319D01*
X-261000Y-356892D01*
D02*
G37*
G36*
X-442500Y-360500D02*
X-472404D01*
X-472199Y-363100D01*
X-471005Y-368074D01*
X-469047Y-372800D01*
X-466374Y-377162D01*
X-463052Y-381052D01*
X-459162Y-384374D01*
X-454800Y-387047D01*
X-450074Y-389005D01*
X-445100Y-390199D01*
X-442500Y-390404D01*
Y-360500D01*
D02*
G37*
G36*
X-407596D02*
X-437500D01*
Y-390404D01*
X-434900Y-390199D01*
X-429926Y-389005D01*
X-425200Y-387047D01*
X-420838Y-384374D01*
X-416948Y-381052D01*
X-413626Y-377162D01*
X-410953Y-372800D01*
X-408995Y-368074D01*
X-407801Y-363100D01*
X-407596Y-360500D01*
D02*
G37*
G36*
X347500D02*
X317596D01*
X317801Y-363100D01*
X318995Y-368074D01*
X320953Y-372800D01*
X323626Y-377162D01*
X326948Y-381052D01*
X330838Y-384374D01*
X335200Y-387047D01*
X339926Y-389005D01*
X344900Y-390199D01*
X347500Y-390404D01*
Y-360500D01*
D02*
G37*
G36*
Y-325596D02*
X344900Y-325801D01*
X339926Y-326995D01*
X335200Y-328953D01*
X330838Y-331626D01*
X326948Y-334948D01*
X323626Y-338838D01*
X320953Y-343200D01*
X318995Y-347926D01*
X317801Y-352900D01*
X317596Y-355500D01*
X347500D01*
Y-325596D01*
D02*
G37*
G36*
X-185000Y-343892D02*
X-187146Y-344319D01*
X-188965Y-345535D01*
X-190181Y-347354D01*
X-190608Y-349500D01*
X-190181Y-351646D01*
X-188965Y-353465D01*
X-187146Y-354681D01*
X-185000Y-355108D01*
X-182854Y-354681D01*
X-181035Y-353465D01*
X-179819Y-351646D01*
X-179392Y-349500D01*
X-179819Y-347354D01*
X-181035Y-345535D01*
X-182854Y-344319D01*
X-185000Y-343892D01*
D02*
G37*
G36*
X-172000D02*
X-174146Y-344319D01*
X-175965Y-345535D01*
X-177181Y-347354D01*
X-177608Y-349500D01*
X-177181Y-351646D01*
X-175965Y-353465D01*
X-174146Y-354681D01*
X-172000Y-355108D01*
X-169854Y-354681D01*
X-168035Y-353465D01*
X-166819Y-351646D01*
X-166392Y-349500D01*
X-166819Y-347354D01*
X-168035Y-345535D01*
X-169854Y-344319D01*
X-172000Y-343892D01*
D02*
G37*
G36*
X222000Y-344392D02*
X219854Y-344818D01*
X218034Y-346034D01*
X216819Y-347853D01*
X216392Y-349999D01*
X216819Y-352145D01*
X218034Y-353965D01*
X219854Y-355180D01*
X222000Y-355607D01*
X224146Y-355180D01*
X225965Y-353965D01*
X227180Y-352145D01*
X227607Y-349999D01*
X227180Y-347853D01*
X225965Y-346034D01*
X224146Y-344818D01*
X222000Y-344392D01*
D02*
G37*
G36*
X-442500Y-325596D02*
X-445100Y-325801D01*
X-450074Y-326995D01*
X-454800Y-328953D01*
X-459162Y-331626D01*
X-463052Y-334948D01*
X-466374Y-338838D01*
X-469047Y-343200D01*
X-471005Y-347926D01*
X-472199Y-352900D01*
X-472404Y-355500D01*
X-442500D01*
Y-325596D01*
D02*
G37*
G36*
X-437500D02*
Y-355500D01*
X-407596D01*
X-407801Y-352900D01*
X-408995Y-347926D01*
X-410953Y-343200D01*
X-413626Y-338838D01*
X-416948Y-334948D01*
X-420838Y-331626D01*
X-425200Y-328953D01*
X-429926Y-326995D01*
X-434900Y-325801D01*
X-437500Y-325596D01*
D02*
G37*
G36*
X286000Y-310392D02*
X283854Y-310819D01*
X282035Y-312035D01*
X280819Y-313854D01*
X280392Y-316000D01*
X280819Y-318146D01*
X282035Y-319965D01*
X283854Y-321181D01*
X286000Y-321608D01*
X288146Y-321181D01*
X289965Y-319965D01*
X291181Y-318146D01*
X291608Y-316000D01*
X291181Y-313854D01*
X289965Y-312035D01*
X288146Y-310819D01*
X286000Y-310392D01*
D02*
G37*
G36*
X-165500Y-266892D02*
X-167646Y-267319D01*
X-169465Y-268535D01*
X-170681Y-270354D01*
X-171108Y-272500D01*
X-170681Y-274646D01*
X-169465Y-276465D01*
X-167646Y-277681D01*
X-165500Y-278108D01*
X-163354Y-277681D01*
X-161535Y-276465D01*
X-160319Y-274646D01*
X-159892Y-272500D01*
X-160319Y-270354D01*
X-161535Y-268535D01*
X-163354Y-267319D01*
X-165500Y-266892D01*
D02*
G37*
G36*
X-223000Y-266392D02*
X-225146Y-266819D01*
X-226965Y-268035D01*
X-228181Y-269854D01*
X-228608Y-272000D01*
X-228181Y-274146D01*
X-226965Y-275965D01*
X-225146Y-277181D01*
X-223000Y-277608D01*
X-220854Y-277181D01*
X-219035Y-275965D01*
X-217819Y-274146D01*
X-217392Y-272000D01*
X-217819Y-269854D01*
X-219035Y-268035D01*
X-220854Y-266819D01*
X-223000Y-266392D01*
D02*
G37*
G36*
X-236999Y-269392D02*
X-239146Y-269819D01*
X-240965Y-271034D01*
X-242180Y-272854D01*
X-242352Y-273717D01*
X-243647D01*
X-243819Y-272854D01*
X-245034Y-271034D01*
X-246854Y-269819D01*
X-249000Y-269392D01*
X-251145Y-269819D01*
X-252965Y-271034D01*
X-254180Y-272854D01*
X-254607Y-275000D01*
X-254180Y-277145D01*
X-252965Y-278965D01*
X-251145Y-280180D01*
X-249000Y-280607D01*
X-246854Y-280180D01*
X-245034Y-278965D01*
X-243819Y-277145D01*
X-243647Y-276282D01*
X-242352D01*
X-242180Y-277145D01*
X-240965Y-278965D01*
X-239146Y-280180D01*
X-236999Y-280607D01*
X-234853Y-280180D01*
X-233034Y-278965D01*
X-231819Y-277145D01*
X-231392Y-275000D01*
X-231819Y-272854D01*
X-233034Y-271034D01*
X-234853Y-269819D01*
X-236999Y-269392D01*
D02*
G37*
G36*
X-223000Y-280392D02*
X-225146Y-280819D01*
X-226965Y-282035D01*
X-228181Y-283854D01*
X-228608Y-286000D01*
X-228181Y-288146D01*
X-226965Y-289965D01*
X-225146Y-291181D01*
X-223000Y-291608D01*
X-220854Y-291181D01*
X-219035Y-289965D01*
X-217819Y-288146D01*
X-217392Y-286000D01*
X-217819Y-283854D01*
X-219035Y-282035D01*
X-220854Y-280819D01*
X-223000Y-280392D01*
D02*
G37*
G36*
X-197507D02*
X-199653Y-280819D01*
X-201472Y-282035D01*
X-202688Y-283854D01*
X-203115Y-286000D01*
X-202688Y-288146D01*
X-201472Y-289965D01*
X-199653Y-291181D01*
X-197507Y-291608D01*
X-195361Y-291181D01*
X-193542Y-289965D01*
X-192326Y-288146D01*
X-191899Y-286000D01*
X-192326Y-283854D01*
X-193542Y-282035D01*
X-195361Y-280819D01*
X-197507Y-280392D01*
D02*
G37*
G36*
X301000Y-267392D02*
X298854Y-267819D01*
X297035Y-269035D01*
X295819Y-270854D01*
X295392Y-273000D01*
X295819Y-275146D01*
X297035Y-276965D01*
X298854Y-278181D01*
X301000Y-278608D01*
X303146Y-278181D01*
X304965Y-276965D01*
X306181Y-275146D01*
X306608Y-273000D01*
X306181Y-270854D01*
X304965Y-269035D01*
X303146Y-267819D01*
X301000Y-267392D01*
D02*
G37*
G36*
X-431000Y-249392D02*
X-433146Y-249819D01*
X-434965Y-251035D01*
X-436181Y-252854D01*
X-436608Y-255000D01*
X-436181Y-257146D01*
X-434965Y-258965D01*
X-433146Y-260181D01*
X-431000Y-260608D01*
X-428854Y-260181D01*
X-427035Y-258965D01*
X-425819Y-257146D01*
X-425392Y-255000D01*
X-425819Y-252854D01*
X-427035Y-251035D01*
X-428854Y-249819D01*
X-431000Y-249392D01*
D02*
G37*
G36*
X-395500D02*
X-397646Y-249819D01*
X-399465Y-251035D01*
X-400681Y-252854D01*
X-401108Y-255000D01*
X-400681Y-257146D01*
X-399465Y-258965D01*
X-397646Y-260181D01*
X-395500Y-260608D01*
X-393354Y-260181D01*
X-391535Y-258965D01*
X-390319Y-257146D01*
X-389892Y-255000D01*
X-390319Y-252854D01*
X-391535Y-251035D01*
X-393354Y-249819D01*
X-395500Y-249392D01*
D02*
G37*
G36*
X246000D02*
X243854Y-249819D01*
X242035Y-251035D01*
X240819Y-252854D01*
X240392Y-255000D01*
X240819Y-257146D01*
X242035Y-258965D01*
X243854Y-260181D01*
X246000Y-260608D01*
X248146Y-260181D01*
X249965Y-258965D01*
X251181Y-257146D01*
X251608Y-255000D01*
X251181Y-252854D01*
X249965Y-251035D01*
X248146Y-249819D01*
X246000Y-249392D01*
D02*
G37*
G36*
X-134000Y-265372D02*
X-136146Y-265799D01*
X-137965Y-267015D01*
X-139181Y-268834D01*
X-139504Y-270457D01*
X-140799D01*
X-140819Y-270354D01*
X-142035Y-268535D01*
X-143854Y-267319D01*
X-146000Y-266892D01*
X-148146Y-267319D01*
X-149965Y-268535D01*
X-151181Y-270354D01*
X-151608Y-272500D01*
X-151181Y-274646D01*
X-149965Y-276465D01*
X-148146Y-277681D01*
X-146000Y-278108D01*
X-143854Y-277681D01*
X-142035Y-276465D01*
X-140819Y-274646D01*
X-140496Y-273023D01*
X-139201D01*
X-139181Y-273126D01*
X-137965Y-274945D01*
X-136146Y-276161D01*
X-134000Y-276588D01*
X-131854Y-276161D01*
X-130035Y-274945D01*
X-128819Y-273126D01*
X-128392Y-270980D01*
X-128819Y-268834D01*
X-130035Y-267015D01*
X-131854Y-265799D01*
X-134000Y-265372D01*
D02*
G37*
G36*
X76000Y-262892D02*
X73854Y-263319D01*
X72035Y-264535D01*
X70819Y-266354D01*
X70548Y-267717D01*
X69253D01*
X69181Y-267354D01*
X67965Y-265535D01*
X66146Y-264319D01*
X64000Y-263892D01*
X61854Y-264319D01*
X60035Y-265535D01*
X59885Y-265759D01*
X58615D01*
X58465Y-265535D01*
X56646Y-264319D01*
X54500Y-263892D01*
X52354Y-264319D01*
X50535Y-265535D01*
X49319Y-267354D01*
X48892Y-269500D01*
X49319Y-271646D01*
X50535Y-273465D01*
X52354Y-274681D01*
X54500Y-275108D01*
X56646Y-274681D01*
X58465Y-273465D01*
X58615Y-273241D01*
X59885D01*
X60035Y-273465D01*
X61854Y-274681D01*
X64000Y-275108D01*
X66146Y-274681D01*
X67965Y-273465D01*
X69181Y-271646D01*
X69452Y-270283D01*
X70747D01*
X70819Y-270646D01*
X72035Y-272465D01*
X73854Y-273681D01*
X76000Y-274108D01*
X78146Y-273681D01*
X79965Y-272465D01*
X81181Y-270646D01*
X81608Y-268500D01*
X81181Y-266354D01*
X79965Y-264535D01*
X78146Y-263319D01*
X76000Y-262892D01*
D02*
G37*
G36*
X293000Y-250892D02*
X290854Y-251319D01*
X289035Y-252535D01*
X287819Y-254354D01*
X287392Y-256500D01*
X287819Y-258646D01*
X289035Y-260465D01*
X290854Y-261681D01*
X293000Y-262108D01*
X295146Y-261681D01*
X296965Y-260465D01*
X298181Y-258646D01*
X298608Y-256500D01*
X298181Y-254354D01*
X296965Y-252535D01*
X295146Y-251319D01*
X293000Y-250892D01*
D02*
G37*
G36*
X247000Y-305392D02*
X244854Y-305819D01*
X243035Y-307035D01*
X241819Y-308854D01*
X241392Y-311000D01*
X241819Y-313146D01*
X243035Y-314965D01*
X244854Y-316181D01*
X247000Y-316608D01*
X249146Y-316181D01*
X250965Y-314965D01*
X252181Y-313146D01*
X252608Y-311000D01*
X252181Y-308854D01*
X250965Y-307035D01*
X249146Y-305819D01*
X247000Y-305392D01*
D02*
G37*
G36*
X355000Y-299392D02*
X352854Y-299819D01*
X351035Y-301035D01*
X349819Y-302854D01*
X349392Y-305000D01*
X349819Y-307146D01*
X351035Y-308965D01*
X352854Y-310181D01*
X355000Y-310608D01*
X357146Y-310181D01*
X358965Y-308965D01*
X360181Y-307146D01*
X360608Y-305000D01*
X360181Y-302854D01*
X358965Y-301035D01*
X357146Y-299819D01*
X355000Y-299392D01*
D02*
G37*
G36*
X-147000Y-305392D02*
X-149146Y-305819D01*
X-150965Y-307035D01*
X-152181Y-308854D01*
X-152353Y-309717D01*
X-153647D01*
X-153819Y-308854D01*
X-155035Y-307035D01*
X-156854Y-305819D01*
X-159000Y-305392D01*
X-161146Y-305819D01*
X-162965Y-307035D01*
X-164181Y-308854D01*
X-164608Y-311000D01*
X-164181Y-313146D01*
X-162965Y-314965D01*
X-161146Y-316181D01*
X-159000Y-316608D01*
X-156854Y-316181D01*
X-155035Y-314965D01*
X-153819Y-313146D01*
X-153647Y-312283D01*
X-152353D01*
X-152181Y-313146D01*
X-150965Y-314965D01*
X-149146Y-316181D01*
X-147000Y-316608D01*
X-144854Y-316181D01*
X-143035Y-314965D01*
X-141819Y-313146D01*
X-141392Y-311000D01*
X-141819Y-308854D01*
X-143035Y-307035D01*
X-144854Y-305819D01*
X-147000Y-305392D01*
D02*
G37*
G36*
X-185000Y-306392D02*
X-187146Y-306819D01*
X-188965Y-308035D01*
X-190181Y-309854D01*
X-190608Y-312000D01*
X-190181Y-314146D01*
X-188965Y-315965D01*
X-187146Y-317181D01*
X-185000Y-317608D01*
X-182854Y-317181D01*
X-181035Y-315965D01*
X-179819Y-314146D01*
X-179392Y-312000D01*
X-179819Y-309854D01*
X-181035Y-308035D01*
X-182854Y-306819D01*
X-185000Y-306392D01*
D02*
G37*
G36*
X234000Y-305892D02*
X231854Y-306319D01*
X230035Y-307535D01*
X228819Y-309354D01*
X228392Y-311500D01*
X228819Y-313646D01*
X230035Y-315465D01*
X231854Y-316681D01*
X234000Y-317108D01*
X236146Y-316681D01*
X237965Y-315465D01*
X239181Y-313646D01*
X239608Y-311500D01*
X239181Y-309354D01*
X237965Y-307535D01*
X236146Y-306319D01*
X234000Y-305892D01*
D02*
G37*
G36*
X-121500Y-305892D02*
X-123646Y-306319D01*
X-125465Y-307535D01*
X-126681Y-309354D01*
X-127108Y-311500D01*
X-126681Y-313646D01*
X-125465Y-315465D01*
X-123646Y-316681D01*
X-121500Y-317108D01*
X-119354Y-316681D01*
X-117535Y-315465D01*
X-116319Y-313646D01*
X-115892Y-311500D01*
X-116319Y-309354D01*
X-117535Y-307535D01*
X-119354Y-306319D01*
X-121500Y-305892D01*
D02*
G37*
G36*
X-146500Y-292892D02*
X-148646Y-293319D01*
X-150465Y-294535D01*
X-151681Y-296354D01*
X-152108Y-298500D01*
X-151681Y-300646D01*
X-150465Y-302465D01*
X-148646Y-303681D01*
X-146500Y-304108D01*
X-144354Y-303681D01*
X-142535Y-302465D01*
X-141319Y-300646D01*
X-140892Y-298500D01*
X-141319Y-296354D01*
X-142535Y-294535D01*
X-144354Y-293319D01*
X-146500Y-292892D01*
D02*
G37*
G36*
X290400Y-284497D02*
X290154Y-284546D01*
X289903D01*
X288215Y-284881D01*
X288090Y-284898D01*
X288050Y-284914D01*
X287425Y-285038D01*
X286506Y-285419D01*
X285976Y-285773D01*
X285937Y-285790D01*
X285836Y-285867D01*
X284406Y-286822D01*
X283703Y-287526D01*
X283703Y-287526D01*
X282747Y-288956D01*
X282670Y-289057D01*
X282653Y-289096D01*
X282299Y-289626D01*
X281918Y-290545D01*
X281794Y-291171D01*
X281778Y-291210D01*
X281761Y-291335D01*
X281425Y-293023D01*
Y-294017D01*
X281761Y-295705D01*
X281778Y-295830D01*
X281794Y-295870D01*
X281918Y-296495D01*
X282299Y-297414D01*
X282653Y-297944D01*
X282670Y-297983D01*
X282747Y-298084D01*
X283703Y-299514D01*
X284406Y-300217D01*
X284406Y-300217D01*
X285836Y-301173D01*
X285937Y-301250D01*
X285976Y-301267D01*
X286506Y-301621D01*
X287425Y-302002D01*
X288050Y-302126D01*
X288090Y-302142D01*
X288215Y-302159D01*
X289903Y-302494D01*
X290154D01*
X290400Y-302543D01*
X290646Y-302494D01*
X290897D01*
X292585Y-302159D01*
X292710Y-302142D01*
X292750Y-302126D01*
X293375Y-302002D01*
X294294Y-301621D01*
X294824Y-301267D01*
X294863Y-301250D01*
X294964Y-301173D01*
X296394Y-300217D01*
X297097Y-299514D01*
X297097Y-299514D01*
X298053Y-298084D01*
X298130Y-297983D01*
X298147Y-297944D01*
X298501Y-297414D01*
X298881Y-296495D01*
X299006Y-295870D01*
X299022Y-295830D01*
X299039Y-295705D01*
X299374Y-294017D01*
Y-293023D01*
X299039Y-291335D01*
X299022Y-291210D01*
X299006Y-291171D01*
X298881Y-290545D01*
X298501Y-289626D01*
X298147Y-289096D01*
X298130Y-289057D01*
X298053Y-288956D01*
X297097Y-287526D01*
X296394Y-286822D01*
X296394Y-286822D01*
X294964Y-285867D01*
X294863Y-285790D01*
X294824Y-285773D01*
X294294Y-285419D01*
X293375Y-285038D01*
X292750Y-284914D01*
X292710Y-284898D01*
X292585Y-284881D01*
X290897Y-284546D01*
X290646D01*
X290400Y-284497D01*
D02*
G37*
G36*
X-459000Y-282392D02*
X-461146Y-282819D01*
X-462965Y-284035D01*
X-464181Y-285854D01*
X-464608Y-288000D01*
X-464181Y-290146D01*
X-462965Y-291965D01*
X-461146Y-293181D01*
X-459000Y-293608D01*
X-456854Y-293181D01*
X-455035Y-291965D01*
X-453819Y-290146D01*
X-453392Y-288000D01*
X-453819Y-285854D01*
X-455035Y-284035D01*
X-456854Y-282819D01*
X-459000Y-282392D01*
D02*
G37*
G36*
X-445999Y-286892D02*
X-448145Y-287319D01*
X-449964Y-288534D01*
X-451180Y-290353D01*
X-451607Y-292499D01*
X-451180Y-294645D01*
X-449964Y-296465D01*
X-448559Y-297404D01*
X-448180Y-298124D01*
X-448246Y-298955D01*
X-449180Y-300353D01*
X-449607Y-302499D01*
X-449180Y-304645D01*
X-447964Y-306465D01*
X-446145Y-307680D01*
X-443999Y-308107D01*
X-441853Y-307680D01*
X-440034Y-306465D01*
X-438818Y-304645D01*
X-438391Y-302499D01*
X-438818Y-300353D01*
X-440034Y-298534D01*
X-441439Y-297595D01*
X-441818Y-296875D01*
X-441753Y-296044D01*
X-440818Y-294645D01*
X-440391Y-292499D01*
X-440818Y-290353D01*
X-442034Y-288534D01*
X-443853Y-287319D01*
X-445999Y-286892D01*
D02*
G37*
G36*
X-121000Y-292892D02*
X-123146Y-293319D01*
X-124965Y-294535D01*
X-126181Y-296354D01*
X-126608Y-298500D01*
X-126181Y-300646D01*
X-124965Y-302465D01*
X-123146Y-303681D01*
X-121000Y-304108D01*
X-118854Y-303681D01*
X-117035Y-302465D01*
X-115819Y-300646D01*
X-115706Y-300079D01*
X-114411D01*
X-114181Y-301239D01*
X-112965Y-303058D01*
X-111146Y-304274D01*
X-109000Y-304701D01*
X-106854Y-304274D01*
X-105035Y-303058D01*
X-103819Y-301239D01*
X-103392Y-299093D01*
X-103819Y-296947D01*
X-105035Y-295128D01*
X-106854Y-293912D01*
X-109000Y-293485D01*
X-111146Y-293912D01*
X-112965Y-295128D01*
X-114181Y-296947D01*
X-114294Y-297514D01*
X-115589D01*
X-115819Y-296354D01*
X-117035Y-294535D01*
X-118854Y-293319D01*
X-121000Y-292892D01*
D02*
G37*
G36*
X-197307D02*
X-199453Y-293319D01*
X-201272Y-294535D01*
X-202488Y-296354D01*
X-202915Y-298500D01*
X-202488Y-300646D01*
X-201272Y-302465D01*
X-199453Y-303681D01*
X-197307Y-304108D01*
X-195161Y-303681D01*
X-193342Y-302465D01*
X-192126Y-300646D01*
X-191904Y-299530D01*
X-190609D01*
X-190288Y-301146D01*
X-189072Y-302965D01*
X-187253Y-304181D01*
X-185107Y-304608D01*
X-182961Y-304181D01*
X-181142Y-302965D01*
X-179926Y-301146D01*
X-179499Y-299000D01*
X-179926Y-296854D01*
X-181142Y-295035D01*
X-182961Y-293819D01*
X-185107Y-293392D01*
X-187253Y-293819D01*
X-189072Y-295035D01*
X-190288Y-296854D01*
X-190510Y-297970D01*
X-191805D01*
X-192126Y-296354D01*
X-193342Y-294535D01*
X-195161Y-293319D01*
X-197307Y-292892D01*
D02*
G37*
G36*
X-126000Y2608D02*
X-128146Y2181D01*
X-129965Y965D01*
X-131181Y-854D01*
X-131608Y-3000D01*
X-131181Y-5146D01*
X-129965Y-6965D01*
X-128146Y-8181D01*
X-126000Y-8608D01*
X-123854Y-8181D01*
X-122035Y-6965D01*
X-120819Y-5146D01*
X-120392Y-3000D01*
X-120819Y-854D01*
X-122035Y965D01*
X-123854Y2181D01*
X-126000Y2608D01*
D02*
G37*
G36*
X-361500Y5108D02*
X-363646Y4681D01*
X-365465Y3465D01*
X-366681Y1646D01*
X-367108Y-500D01*
X-366681Y-2646D01*
X-365465Y-4465D01*
X-363646Y-5681D01*
X-361500Y-6108D01*
X-359354Y-5681D01*
X-357535Y-4465D01*
X-356319Y-2646D01*
X-355892Y-500D01*
X-356319Y1646D01*
X-357535Y3465D01*
X-359354Y4681D01*
X-361500Y5108D01*
D02*
G37*
G36*
X-245000Y8843D02*
X-246853Y8474D01*
X-248425Y7424D01*
X-249474Y5853D01*
X-249843Y4000D01*
X-249474Y2147D01*
X-248425Y575D01*
X-246853Y-474D01*
X-245000Y-843D01*
X-243147Y-474D01*
X-241576Y575D01*
X-240526Y2147D01*
X-240157Y4000D01*
X-240526Y5853D01*
X-241576Y7424D01*
X-243147Y8474D01*
X-245000Y8843D01*
D02*
G37*
G36*
X-229000Y843D02*
X-230853Y474D01*
X-232425Y-575D01*
X-233474Y-2147D01*
X-233843Y-4000D01*
X-233474Y-5853D01*
X-232425Y-7425D01*
X-230853Y-8474D01*
X-229000Y-8843D01*
X-227147Y-8474D01*
X-225576Y-7425D01*
X-224526Y-5853D01*
X-224157Y-4000D01*
X-224526Y-2147D01*
X-225576Y-575D01*
X-227147Y474D01*
X-229000Y843D01*
D02*
G37*
G36*
X4000Y8843D02*
X2147Y8474D01*
X575Y7424D01*
X-474Y5853D01*
X-843Y4000D01*
X-474Y2147D01*
X402Y836D01*
X575Y-575D01*
X-474Y-2147D01*
X-843Y-4000D01*
X-474Y-5853D01*
X575Y-7425D01*
X2147Y-8474D01*
X4000Y-8843D01*
X5853Y-8474D01*
X7424Y-7425D01*
X8474Y-5853D01*
X8843Y-4000D01*
X8474Y-2147D01*
X7599Y-836D01*
X7424Y575D01*
X8474Y2147D01*
X8843Y4000D01*
X8474Y5853D01*
X7424Y7424D01*
X5853Y8474D01*
X4000Y8843D01*
D02*
G37*
G36*
X68000Y843D02*
X66147Y474D01*
X64575Y-575D01*
X63526Y-2147D01*
X63157Y-4000D01*
X63526Y-5853D01*
X64575Y-7425D01*
X66147Y-8474D01*
X68000Y-8843D01*
X69853Y-8474D01*
X71424Y-7425D01*
X72474Y-5853D01*
X72843Y-4000D01*
X72474Y-2147D01*
X71424Y-575D01*
X69853Y474D01*
X68000Y843D01*
D02*
G37*
G36*
X-193000Y20843D02*
X-194853Y20474D01*
X-196425Y19425D01*
X-197474Y17853D01*
X-197843Y16000D01*
X-197474Y14147D01*
X-196425Y12575D01*
X-194853Y11526D01*
X-194863Y10232D01*
X-195108Y9000D01*
X-194681Y6854D01*
X-193465Y5035D01*
X-191646Y3819D01*
X-189500Y3392D01*
X-187354Y3819D01*
X-185535Y5035D01*
X-184319Y6854D01*
X-183892Y9000D01*
X-184319Y11146D01*
X-185535Y12965D01*
X-187354Y14181D01*
X-188475Y14404D01*
X-188157Y16000D01*
X-188526Y17853D01*
X-189576Y19425D01*
X-191147Y20474D01*
X-193000Y20843D01*
D02*
G37*
G36*
X-329000D02*
X-330853Y20474D01*
X-332425Y19425D01*
X-333474Y17853D01*
X-333843Y16000D01*
X-333474Y14147D01*
X-332425Y12575D01*
X-330853Y11526D01*
X-329000Y11157D01*
X-327147Y11526D01*
X-325575Y12575D01*
X-324526Y14147D01*
X-324157Y16000D01*
X-324526Y17853D01*
X-325575Y19425D01*
X-327147Y20474D01*
X-329000Y20843D01*
D02*
G37*
G36*
X104000D02*
X102147Y20474D01*
X100575Y19425D01*
X99526Y17853D01*
X99157Y16000D01*
X99526Y14147D01*
X100575Y12575D01*
X102147Y11526D01*
X104000Y11157D01*
X105853Y11526D01*
X107424Y12575D01*
X108474Y14147D01*
X108843Y16000D01*
X108474Y17853D01*
X107424Y19425D01*
X105853Y20474D01*
X104000Y20843D01*
D02*
G37*
G36*
X52000Y8843D02*
X50147Y8474D01*
X48575Y7424D01*
X47526Y5853D01*
X47157Y4000D01*
X47526Y2147D01*
X48575Y575D01*
X50147Y-474D01*
X52000Y-843D01*
X53853Y-474D01*
X55425Y575D01*
X56474Y2147D01*
X56843Y4000D01*
X56474Y5853D01*
X55425Y7424D01*
X53853Y8474D01*
X52000Y8843D01*
D02*
G37*
G36*
X-151500Y12108D02*
X-153646Y11681D01*
X-155465Y10465D01*
X-156681Y8646D01*
X-157108Y6500D01*
X-156681Y4354D01*
X-155465Y2535D01*
X-153646Y1319D01*
X-151500Y892D01*
X-149354Y1319D01*
X-147535Y2535D01*
X-146319Y4354D01*
X-145892Y6500D01*
X-146319Y8646D01*
X-147535Y10465D01*
X-149354Y11681D01*
X-151500Y12108D01*
D02*
G37*
G36*
X271500Y14108D02*
X269354Y13681D01*
X267535Y12465D01*
X266319Y10646D01*
X265892Y8500D01*
X266319Y6354D01*
X267535Y4535D01*
X269354Y3319D01*
X271500Y2892D01*
X273646Y3319D01*
X275465Y4535D01*
X276681Y6354D01*
X277108Y8500D01*
X276681Y10646D01*
X275465Y12465D01*
X273646Y13681D01*
X271500Y14108D01*
D02*
G37*
G36*
X-158500Y-25892D02*
X-160646Y-26319D01*
X-162465Y-27535D01*
X-163681Y-29354D01*
X-164108Y-31500D01*
X-163681Y-33646D01*
X-162465Y-35465D01*
X-161922Y-35829D01*
Y-37099D01*
X-162728Y-37637D01*
X-162962Y-37988D01*
X-164232D01*
X-164535Y-37535D01*
X-166354Y-36319D01*
X-168500Y-35892D01*
X-170646Y-36319D01*
X-172465Y-37535D01*
X-173681Y-39354D01*
X-174108Y-41500D01*
X-173681Y-43646D01*
X-173205Y-44359D01*
X-174965Y-45535D01*
X-175756Y-46718D01*
X-176354Y-46319D01*
X-178500Y-45892D01*
X-178993Y-45990D01*
X-179319Y-44354D01*
X-180534Y-42535D01*
X-182354Y-41319D01*
X-184500Y-40892D01*
X-186646Y-41319D01*
X-188465Y-42535D01*
X-189681Y-44354D01*
X-190107Y-46500D01*
X-189681Y-48646D01*
X-188465Y-50465D01*
X-186646Y-51681D01*
X-184500Y-52108D01*
X-184006Y-52009D01*
X-183680Y-53646D01*
X-182465Y-55465D01*
X-180646Y-56681D01*
X-178500Y-57108D01*
X-176354Y-56681D01*
X-174534Y-55465D01*
X-173743Y-54282D01*
X-173146Y-54681D01*
X-171000Y-55108D01*
X-168854Y-54681D01*
X-167035Y-53465D01*
X-165819Y-51646D01*
X-165392Y-49500D01*
X-165819Y-47354D01*
X-166295Y-46642D01*
X-164535Y-45465D01*
X-164301Y-45115D01*
X-163031D01*
X-162728Y-45568D01*
X-160909Y-46783D01*
X-158763Y-47210D01*
X-156617Y-46783D01*
X-154797Y-45568D01*
X-153582Y-43749D01*
X-153155Y-41603D01*
X-153582Y-39457D01*
X-154797Y-37637D01*
X-155341Y-37274D01*
Y-36004D01*
X-154535Y-35465D01*
X-154288Y-35096D01*
X-152820Y-35185D01*
X-151965Y-36465D01*
X-150146Y-37681D01*
X-148000Y-38108D01*
X-145854Y-37681D01*
X-144035Y-36465D01*
X-142819Y-34646D01*
X-142392Y-32500D01*
X-142819Y-30354D01*
X-144035Y-28535D01*
X-145854Y-27319D01*
X-148000Y-26892D01*
X-150146Y-27319D01*
X-151965Y-28535D01*
X-152212Y-28904D01*
X-153680Y-28814D01*
X-154535Y-27535D01*
X-156354Y-26319D01*
X-158500Y-25892D01*
D02*
G37*
G36*
X205500Y-16392D02*
X203354Y-16819D01*
X201535Y-18035D01*
X200319Y-19854D01*
X199892Y-22000D01*
X200319Y-24146D01*
X201535Y-25965D01*
X203354Y-27181D01*
X205500Y-27608D01*
X207646Y-27181D01*
X209465Y-25965D01*
X210681Y-24146D01*
X211108Y-22000D01*
X210681Y-19854D01*
X209465Y-18035D01*
X207646Y-16819D01*
X205500Y-16392D01*
D02*
G37*
G36*
X-301000Y-7157D02*
X-302853Y-7526D01*
X-304425Y-8575D01*
X-305474Y-10147D01*
X-305843Y-12000D01*
X-305474Y-13853D01*
X-304425Y-15425D01*
X-302853Y-16474D01*
X-301000Y-16843D01*
X-299147Y-16474D01*
X-297575Y-15425D01*
X-296526Y-13853D01*
X-296157Y-12000D01*
X-296526Y-10147D01*
X-297575Y-8575D01*
X-299147Y-7526D01*
X-301000Y-7157D01*
D02*
G37*
G36*
X20000Y-31157D02*
X18147Y-31526D01*
X16575Y-32575D01*
X15526Y-34147D01*
X15157Y-36000D01*
X15526Y-37853D01*
X16575Y-39425D01*
X18147Y-40474D01*
X20000Y-40843D01*
X21853Y-40474D01*
X23424Y-39425D01*
X24474Y-37853D01*
X24843Y-36000D01*
X24474Y-34147D01*
X23424Y-32575D01*
X21853Y-31526D01*
X20000Y-31157D01*
D02*
G37*
G36*
X36000D02*
X34147Y-31526D01*
X32575Y-32575D01*
X31526Y-34147D01*
X31157Y-36000D01*
X31526Y-37853D01*
X32575Y-39425D01*
X34147Y-40474D01*
X36000Y-40843D01*
X37853Y-40474D01*
X39425Y-39425D01*
X40474Y-37853D01*
X40843Y-36000D01*
X40474Y-34147D01*
X39425Y-32575D01*
X37853Y-31526D01*
X36000Y-31157D01*
D02*
G37*
G36*
X52000D02*
X50147Y-31526D01*
X48575Y-32575D01*
X47526Y-34147D01*
X47157Y-36000D01*
X47526Y-37853D01*
X48575Y-39425D01*
X50147Y-40474D01*
X52000Y-40843D01*
X53853Y-40474D01*
X55424Y-39425D01*
X56474Y-37853D01*
X56843Y-36000D01*
X56474Y-34147D01*
X55424Y-32575D01*
X53853Y-31526D01*
X52000Y-31157D01*
D02*
G37*
G36*
X438500Y21608D02*
X436354Y21181D01*
X434535Y19965D01*
X433319Y18146D01*
X432892Y16000D01*
X433319Y13854D01*
X434224Y12500D01*
X433319Y11146D01*
X432892Y9000D01*
X433319Y6854D01*
X434224Y5500D01*
X433319Y4146D01*
X432892Y2000D01*
X433319Y-146D01*
X434391Y-1750D01*
X433319Y-3354D01*
X432892Y-5500D01*
X433319Y-7646D01*
X434535Y-9465D01*
X436354Y-10681D01*
X438500Y-11108D01*
X440646Y-10681D01*
X442465Y-9465D01*
X443681Y-7646D01*
X444108Y-5500D01*
X443681Y-3354D01*
X442609Y-1750D01*
X443681Y-146D01*
X444108Y2000D01*
X443681Y4146D01*
X442776Y5500D01*
X443681Y6854D01*
X444108Y9000D01*
X443681Y11146D01*
X442776Y12500D01*
X443681Y13854D01*
X444108Y16000D01*
X443681Y18146D01*
X442465Y19965D01*
X440646Y21181D01*
X438500Y21608D01*
D02*
G37*
G36*
X-400500Y13108D02*
X-402646Y12681D01*
X-404465Y11465D01*
X-405681Y9646D01*
X-406108Y7500D01*
X-405681Y5354D01*
X-404465Y3535D01*
X-403165Y2666D01*
X-404181Y1146D01*
X-404608Y-1000D01*
X-404181Y-3146D01*
X-402965Y-4965D01*
X-401146Y-6181D01*
X-399000Y-6608D01*
X-398487Y-6506D01*
X-397761Y-7232D01*
X-397584Y-7621D01*
X-397181Y-9646D01*
X-395965Y-11465D01*
X-394146Y-12681D01*
X-392000Y-13108D01*
X-389854Y-12681D01*
X-388035Y-11465D01*
X-386819Y-9646D01*
X-386715Y-9124D01*
X-385645Y-8681D01*
X-383499Y-9108D01*
X-381353Y-8681D01*
X-379534Y-7465D01*
X-378318Y-5646D01*
X-377892Y-3500D01*
X-378318Y-1354D01*
X-379534Y465D01*
X-381353Y1681D01*
X-383499Y2108D01*
X-385645Y1681D01*
X-387464Y465D01*
X-388680Y-1354D01*
X-388784Y-1876D01*
X-389854Y-2319D01*
X-392000Y-1892D01*
X-392513Y-1994D01*
X-393239Y-1268D01*
X-393416Y-879D01*
X-393819Y1146D01*
X-395035Y2965D01*
X-396335Y3834D01*
X-395319Y5354D01*
X-394892Y7500D01*
X-395319Y9646D01*
X-396535Y11465D01*
X-398354Y12681D01*
X-400500Y13108D01*
D02*
G37*
G36*
X-293000Y843D02*
X-294853Y474D01*
X-296425Y-575D01*
X-297474Y-2147D01*
X-297843Y-4000D01*
X-297474Y-5853D01*
X-296425Y-7425D01*
X-294853Y-8474D01*
X-293000Y-8843D01*
X-291147Y-8474D01*
X-289576Y-7425D01*
X-288526Y-5853D01*
X-288157Y-4000D01*
X-288526Y-2147D01*
X-289576Y-575D01*
X-291147Y474D01*
X-293000Y843D01*
D02*
G37*
G36*
X-4000Y-7157D02*
X-5853Y-7526D01*
X-7425Y-8575D01*
X-8474Y-10147D01*
X-8843Y-12000D01*
X-8474Y-13853D01*
X-7425Y-15425D01*
X-5853Y-16474D01*
X-4000Y-16843D01*
X-2147Y-16474D01*
X-575Y-15425D01*
X474Y-13853D01*
X843Y-12000D01*
X474Y-10147D01*
X-575Y-8575D01*
X-2147Y-7526D01*
X-4000Y-7157D01*
D02*
G37*
G36*
X-349750Y-4912D02*
X-351896Y-5339D01*
X-353715Y-6555D01*
X-354931Y-8374D01*
X-355358Y-10520D01*
X-354931Y-12666D01*
X-353715Y-14485D01*
X-351896Y-15701D01*
X-349750Y-16128D01*
X-347604Y-15701D01*
X-345785Y-14485D01*
X-344569Y-12666D01*
X-344142Y-10520D01*
X-344569Y-8374D01*
X-345785Y-6555D01*
X-347604Y-5339D01*
X-349750Y-4912D01*
D02*
G37*
G36*
X-419499Y-1892D02*
X-421645Y-2319D01*
X-423464Y-3535D01*
X-424680Y-5354D01*
X-425107Y-7500D01*
X-424680Y-9646D01*
X-423464Y-11465D01*
X-421645Y-12681D01*
X-419499Y-13108D01*
X-417353Y-12681D01*
X-415534Y-11465D01*
X-414318Y-9646D01*
X-413891Y-7500D01*
X-414318Y-5354D01*
X-415534Y-3535D01*
X-417353Y-2319D01*
X-419499Y-1892D01*
D02*
G37*
G36*
X323000Y23608D02*
X320854Y23181D01*
X319035Y21965D01*
X317819Y20146D01*
X317392Y18000D01*
X317819Y15854D01*
X319035Y14035D01*
X320854Y12819D01*
X323000Y12392D01*
X325146Y12819D01*
X326965Y14035D01*
X328181Y15854D01*
X328608Y18000D01*
X328181Y20146D01*
X326965Y21965D01*
X325146Y23181D01*
X323000Y23608D01*
D02*
G37*
G36*
X-180000Y60608D02*
X-182146Y60181D01*
X-183965Y58965D01*
X-185181Y57146D01*
X-185608Y55000D01*
X-185181Y52854D01*
X-183965Y51035D01*
X-182146Y49819D01*
X-180000Y49392D01*
X-177854Y49819D01*
X-176035Y51035D01*
X-174819Y52854D01*
X-174392Y55000D01*
X-174819Y57146D01*
X-176035Y58965D01*
X-177854Y60181D01*
X-180000Y60608D01*
D02*
G37*
G36*
X-121000Y69608D02*
X-123146Y69181D01*
X-124965Y67965D01*
X-126181Y66146D01*
X-126608Y64000D01*
X-126181Y61854D01*
X-124965Y60035D01*
X-123146Y58819D01*
X-121000Y58392D01*
X-118854Y58819D01*
X-117035Y60035D01*
X-116802Y60383D01*
X-115532D01*
X-114965Y59535D01*
X-113146Y58319D01*
X-111000Y57892D01*
X-108854Y58319D01*
X-107035Y59535D01*
X-105819Y61354D01*
X-105392Y63500D01*
X-105819Y65646D01*
X-107035Y67465D01*
X-108854Y68681D01*
X-111000Y69108D01*
X-113146Y68681D01*
X-114965Y67465D01*
X-115198Y67117D01*
X-116468D01*
X-117035Y67965D01*
X-118854Y69181D01*
X-121000Y69608D01*
D02*
G37*
G36*
X428400Y80708D02*
X426254Y80281D01*
X424435Y79065D01*
X423219Y77246D01*
X422792Y75100D01*
X423219Y72954D01*
X424435Y71135D01*
X426254Y69919D01*
X427722Y69627D01*
X428572Y69172D01*
X429027Y68322D01*
X429319Y66854D01*
X430535Y65035D01*
X432354Y63819D01*
X434410Y63410D01*
X434819Y61354D01*
X436035Y59535D01*
X437854Y58319D01*
X440000Y57892D01*
X442146Y58319D01*
X443965Y59535D01*
X445181Y61354D01*
X445608Y63500D01*
X445181Y65646D01*
X443965Y67465D01*
X442146Y68681D01*
X440090Y69090D01*
X439681Y71146D01*
X438465Y72965D01*
X436646Y74181D01*
X435178Y74473D01*
X434328Y74928D01*
X433873Y75778D01*
X433581Y77246D01*
X432365Y79065D01*
X430546Y80281D01*
X428400Y80708D01*
D02*
G37*
G36*
X-275280Y45722D02*
X-277426Y45295D01*
X-279246Y44079D01*
X-280461Y42260D01*
X-280888Y40114D01*
X-280461Y37968D01*
X-279246Y36149D01*
X-277426Y34933D01*
X-275280Y34506D01*
X-273134Y34933D01*
X-271315Y36149D01*
X-270100Y37968D01*
X-269673Y40114D01*
X-270100Y42260D01*
X-271315Y44079D01*
X-273134Y45295D01*
X-275280Y45722D01*
D02*
G37*
G36*
X-210500Y46108D02*
X-212646Y45681D01*
X-214465Y44465D01*
X-215681Y42646D01*
X-216108Y40500D01*
X-215681Y38354D01*
X-214465Y36535D01*
X-212646Y35319D01*
X-210500Y34892D01*
X-208354Y35319D01*
X-206535Y36535D01*
X-205319Y38354D01*
X-204892Y40500D01*
X-205319Y42646D01*
X-206535Y44465D01*
X-208354Y45681D01*
X-210500Y46108D01*
D02*
G37*
G36*
X170720Y58723D02*
X168574Y58296D01*
X166755Y57080D01*
X165539Y55261D01*
X165112Y53115D01*
X165539Y50969D01*
X166755Y49150D01*
X168574Y47934D01*
X170720Y47507D01*
X172866Y47934D01*
X174685Y49150D01*
X175901Y50969D01*
X176328Y53115D01*
X175901Y55261D01*
X174685Y57080D01*
X172866Y58296D01*
X170720Y58723D01*
D02*
G37*
G36*
X347500Y94404D02*
X344900Y94199D01*
X339926Y93005D01*
X335200Y91047D01*
X330838Y88374D01*
X326948Y85052D01*
X323626Y81162D01*
X320953Y76800D01*
X318995Y72074D01*
X317801Y67100D01*
X317596Y64500D01*
X347500D01*
Y94404D01*
D02*
G37*
G36*
X352500D02*
Y64500D01*
X382404D01*
X382199Y67100D01*
X381005Y72074D01*
X379047Y76800D01*
X376374Y81162D01*
X373052Y85052D01*
X369162Y88374D01*
X364800Y91047D01*
X360074Y93005D01*
X355100Y94199D01*
X352500Y94404D01*
D02*
G37*
G36*
X259125Y69818D02*
X256979Y69391D01*
X255160Y68175D01*
X254776Y67601D01*
X253506D01*
X253185Y68080D01*
X251366Y69296D01*
X249220Y69723D01*
X247074Y69296D01*
X245255Y68080D01*
X244767Y67351D01*
X243497D01*
X243280Y67675D01*
X241461Y68891D01*
X239315Y69318D01*
X237169Y68891D01*
X235350Y67675D01*
X234134Y65856D01*
X233707Y63710D01*
X233724Y63624D01*
X232074Y63296D01*
X230255Y62080D01*
X229039Y60261D01*
X228612Y58115D01*
X229039Y55969D01*
X230255Y54150D01*
X232074Y52934D01*
X234220Y52507D01*
X236366Y52934D01*
X238185Y54150D01*
X239401Y55969D01*
X239828Y58115D01*
X239811Y58201D01*
X241461Y58529D01*
X243280Y59745D01*
X243768Y60474D01*
X245038D01*
X245255Y60150D01*
X247074Y58934D01*
X248710Y58609D01*
X248612Y58115D01*
X249039Y55969D01*
X250255Y54150D01*
X252074Y52934D01*
X254220Y52507D01*
X256366Y52934D01*
X258185Y54150D01*
X258584Y54746D01*
X259854D01*
X260253Y54149D01*
X262073Y52933D01*
X264219Y52506D01*
X266364Y52933D01*
X268184Y54149D01*
X269399Y55968D01*
X269826Y58114D01*
X269728Y58608D01*
X271366Y58934D01*
X273185Y60150D01*
X274401Y61969D01*
X274828Y64115D01*
X274401Y66261D01*
X273185Y68080D01*
X271366Y69296D01*
X269220Y69723D01*
X267074Y69296D01*
X265255Y68080D01*
X264839Y67458D01*
X263569D01*
X263090Y68175D01*
X261271Y69391D01*
X259125Y69818D01*
D02*
G37*
G36*
X-84500Y72608D02*
X-86646Y72181D01*
X-88465Y70965D01*
X-89681Y69146D01*
X-90108Y67000D01*
X-89681Y64854D01*
X-88465Y63035D01*
X-86646Y61819D01*
X-84500Y61392D01*
X-82354Y61819D01*
X-80535Y63035D01*
X-79319Y64854D01*
X-78892Y67000D01*
X-79319Y69146D01*
X-80535Y70965D01*
X-82354Y72181D01*
X-84500Y72608D01*
D02*
G37*
G36*
X-442500Y94404D02*
X-445100Y94199D01*
X-450074Y93005D01*
X-454800Y91047D01*
X-459162Y88374D01*
X-463052Y85052D01*
X-466374Y81162D01*
X-469047Y76800D01*
X-471005Y72074D01*
X-472199Y67100D01*
X-472404Y64500D01*
X-442500D01*
Y94404D01*
D02*
G37*
G36*
X-437500D02*
Y64500D01*
X-407596D01*
X-407801Y67100D01*
X-408995Y72074D01*
X-410953Y76800D01*
X-413626Y81162D01*
X-416948Y85052D01*
X-420838Y88374D01*
X-425200Y91047D01*
X-429926Y93005D01*
X-434900Y94199D01*
X-437500Y94404D01*
D02*
G37*
G36*
X-104500Y28608D02*
X-106646Y28181D01*
X-108465Y26965D01*
X-108799Y26465D01*
X-109035D01*
X-110854Y27681D01*
X-113000Y28108D01*
X-115146Y27681D01*
X-116965Y26465D01*
X-118181Y24646D01*
X-118608Y22500D01*
X-118181Y20354D01*
X-116965Y18535D01*
X-115146Y17319D01*
X-113000Y16892D01*
X-110854Y17319D01*
X-109035Y18535D01*
X-108701Y19035D01*
X-108465D01*
X-106646Y17819D01*
X-104500Y17392D01*
X-102354Y17819D01*
X-100535Y19035D01*
X-99319Y20854D01*
X-98892Y23000D01*
X-99319Y25146D01*
X-100535Y26965D01*
X-102354Y28181D01*
X-104500Y28608D01*
D02*
G37*
G36*
X73500Y38108D02*
X71354Y37681D01*
X69535Y36465D01*
X68319Y34646D01*
X67892Y32500D01*
X68319Y30354D01*
X69535Y28535D01*
X71354Y27319D01*
X73500Y26892D01*
X75646Y27319D01*
X77465Y28535D01*
X78681Y30354D01*
X79108Y32500D01*
X78681Y34646D01*
X77465Y36465D01*
X75646Y37681D01*
X73500Y38108D01*
D02*
G37*
G36*
X229200Y39104D02*
X227054Y38677D01*
X225235Y37461D01*
X224019Y35642D01*
X223592Y33496D01*
X224019Y31350D01*
X225235Y29530D01*
X227054Y28315D01*
X229200Y27888D01*
X231346Y28315D01*
X233165Y29530D01*
X234381Y31350D01*
X234808Y33496D01*
X234381Y35642D01*
X233165Y37461D01*
X231346Y38677D01*
X229200Y39104D01*
D02*
G37*
G36*
X-23500Y27343D02*
X-25353Y26974D01*
X-26925Y25925D01*
X-27974Y24353D01*
X-28343Y22500D01*
X-27974Y20647D01*
X-26925Y19075D01*
X-25353Y18026D01*
X-23500Y17657D01*
X-21647Y18026D01*
X-20075Y19075D01*
X-19026Y20647D01*
X-18657Y22500D01*
X-19026Y24353D01*
X-20075Y25925D01*
X-21647Y26974D01*
X-23500Y27343D01*
D02*
G37*
G36*
X12000Y28843D02*
X10147Y28474D01*
X8575Y27425D01*
X7526Y25853D01*
X7157Y24000D01*
X7526Y22147D01*
X8575Y20575D01*
X10147Y19526D01*
X12000Y19157D01*
X13853Y19526D01*
X15425Y20575D01*
X16474Y22147D01*
X16843Y24000D01*
X16474Y25853D01*
X15425Y27425D01*
X13853Y28474D01*
X12000Y28843D01*
D02*
G37*
G36*
X56000D02*
X54147Y28474D01*
X52575Y27425D01*
X51526Y25853D01*
X51157Y24000D01*
X51526Y22147D01*
X52575Y20575D01*
X54147Y19526D01*
X56000Y19157D01*
X57853Y19526D01*
X59425Y20575D01*
X60474Y22147D01*
X60843Y24000D01*
X60474Y25853D01*
X59425Y27425D01*
X57853Y28474D01*
X56000Y28843D01*
D02*
G37*
G36*
X382404Y59500D02*
X352500D01*
Y29596D01*
X355100Y29801D01*
X360074Y30995D01*
X364800Y32953D01*
X369162Y35626D01*
X373052Y38948D01*
X376374Y42838D01*
X379047Y47200D01*
X381005Y51926D01*
X382199Y56900D01*
X382404Y59500D01*
D02*
G37*
G36*
X-407596D02*
X-437500D01*
Y29596D01*
X-434900Y29801D01*
X-429926Y30995D01*
X-425200Y32953D01*
X-423848Y33781D01*
X-422440Y33155D01*
X-422181Y31854D01*
X-420965Y30035D01*
X-419146Y28819D01*
X-417000Y28392D01*
X-414854Y28819D01*
X-413035Y30035D01*
X-412244Y31219D01*
X-411646Y30819D01*
X-409500Y30392D01*
X-407354Y30819D01*
X-405535Y32035D01*
X-404319Y33854D01*
X-403892Y36000D01*
X-404319Y38146D01*
X-405535Y39965D01*
X-407354Y41181D01*
X-409500Y41608D01*
X-411646Y41181D01*
X-413465Y39965D01*
X-414079Y39046D01*
X-415135Y39408D01*
X-415509Y40633D01*
X-413626Y42838D01*
X-410953Y47200D01*
X-408995Y51926D01*
X-407801Y56900D01*
X-407596Y59500D01*
D02*
G37*
G36*
X196500Y44108D02*
X194354Y43681D01*
X192534Y42465D01*
X191319Y40646D01*
X190892Y38500D01*
X191319Y36354D01*
X192534Y34535D01*
X194354Y33319D01*
X196500Y32892D01*
X198646Y33319D01*
X200465Y34535D01*
X201681Y36354D01*
X202107Y38500D01*
X201681Y40646D01*
X200465Y42465D01*
X198646Y43681D01*
X196500Y44108D01*
D02*
G37*
G36*
X-92000Y40108D02*
X-94146Y39681D01*
X-95965Y38465D01*
X-97181Y36646D01*
X-97608Y34500D01*
X-97181Y32354D01*
X-95965Y30535D01*
X-94146Y29319D01*
X-92000Y28892D01*
X-89854Y29319D01*
X-88035Y30535D01*
X-86819Y32354D01*
X-86392Y34500D01*
X-86819Y36646D01*
X-88035Y38465D01*
X-89854Y39681D01*
X-92000Y40108D01*
D02*
G37*
G36*
X-442500Y59500D02*
X-472404D01*
X-472199Y56900D01*
X-471005Y51926D01*
X-469047Y47200D01*
X-466374Y42838D01*
X-463052Y38948D01*
X-459162Y35626D01*
X-454800Y32953D01*
X-450074Y30995D01*
X-445100Y29801D01*
X-442500Y29596D01*
Y59500D01*
D02*
G37*
G36*
X347500D02*
X317596D01*
X317801Y56900D01*
X318995Y51926D01*
X320953Y47200D01*
X323626Y42838D01*
X326948Y38948D01*
X330838Y35626D01*
X335200Y32953D01*
X339926Y30995D01*
X344900Y29801D01*
X347500Y29596D01*
Y59500D01*
D02*
G37*
G36*
X-245000Y-31157D02*
X-246853Y-31526D01*
X-248425Y-32575D01*
X-249474Y-34147D01*
X-249843Y-36000D01*
X-249474Y-37853D01*
X-248425Y-39425D01*
X-246853Y-40474D01*
X-245000Y-40843D01*
X-243147Y-40474D01*
X-241576Y-39425D01*
X-240526Y-37853D01*
X-240157Y-36000D01*
X-240526Y-34147D01*
X-241576Y-32575D01*
X-243147Y-31526D01*
X-245000Y-31157D01*
D02*
G37*
G36*
X-229000Y-79157D02*
X-230853Y-79526D01*
X-232425Y-80576D01*
X-233474Y-82147D01*
X-233843Y-84000D01*
X-233474Y-85853D01*
X-232425Y-87425D01*
X-230853Y-88474D01*
X-229000Y-88843D01*
X-227147Y-88474D01*
X-225576Y-87425D01*
X-224526Y-85853D01*
X-224157Y-84000D01*
X-224526Y-82147D01*
X-225576Y-80576D01*
X-227147Y-79526D01*
X-229000Y-79157D01*
D02*
G37*
G36*
X4000D02*
X2147Y-79526D01*
X575Y-80576D01*
X-474Y-82147D01*
X-843Y-84000D01*
X-474Y-85853D01*
X575Y-87425D01*
X2147Y-88474D01*
X4000Y-88843D01*
X5853Y-88474D01*
X7424Y-87425D01*
X8474Y-85853D01*
X8843Y-84000D01*
X8474Y-82147D01*
X7424Y-80576D01*
X5853Y-79526D01*
X4000Y-79157D01*
D02*
G37*
G36*
X92000Y-79157D02*
X90146Y-79525D01*
X88575Y-80575D01*
X87525Y-82146D01*
X87157Y-84000D01*
X87525Y-85853D01*
X88575Y-87424D01*
X90146Y-88474D01*
X92000Y-88843D01*
X93853Y-88474D01*
X95424Y-87424D01*
X96474Y-85853D01*
X96843Y-84000D01*
X96474Y-82146D01*
X95424Y-80575D01*
X93853Y-79525D01*
X92000Y-79157D01*
D02*
G37*
G36*
X-61680Y-79892D02*
X-63826Y-80319D01*
X-65645Y-81535D01*
X-66861Y-83354D01*
X-67288Y-85500D01*
X-66861Y-87646D01*
X-65645Y-89465D01*
X-63826Y-90681D01*
X-61680Y-91108D01*
X-59534Y-90681D01*
X-57715Y-89465D01*
X-56499Y-87646D01*
X-56073Y-85500D01*
X-56499Y-83354D01*
X-57715Y-81535D01*
X-59534Y-80319D01*
X-61680Y-79892D01*
D02*
G37*
G36*
X176500Y-77892D02*
X174354Y-78319D01*
X172535Y-79535D01*
X171319Y-81354D01*
X170892Y-83500D01*
X171319Y-85646D01*
X172535Y-87465D01*
X174354Y-88681D01*
X176500Y-89108D01*
X178646Y-88681D01*
X180465Y-87465D01*
X181681Y-85646D01*
X182108Y-83500D01*
X181681Y-81354D01*
X180465Y-79535D01*
X178646Y-78319D01*
X176500Y-77892D01*
D02*
G37*
G36*
X-293000Y-79157D02*
X-294853Y-79526D01*
X-296425Y-80576D01*
X-297474Y-82147D01*
X-297843Y-84000D01*
X-297474Y-85853D01*
X-296425Y-87425D01*
X-294853Y-88474D01*
X-293000Y-88843D01*
X-291147Y-88474D01*
X-289576Y-87425D01*
X-288526Y-85853D01*
X-288157Y-84000D01*
X-288526Y-82147D01*
X-289576Y-80576D01*
X-291147Y-79526D01*
X-293000Y-79157D01*
D02*
G37*
G36*
X-427500Y-73392D02*
X-429646Y-73819D01*
X-431465Y-75035D01*
X-432681Y-76854D01*
X-433108Y-79000D01*
X-432681Y-81146D01*
X-431465Y-82965D01*
X-429646Y-84181D01*
X-427500Y-84608D01*
X-425354Y-84181D01*
X-423535Y-82965D01*
X-422319Y-81146D01*
X-421892Y-79000D01*
X-422319Y-76854D01*
X-423535Y-75035D01*
X-425354Y-73819D01*
X-427500Y-73392D01*
D02*
G37*
G36*
X-75500Y-72892D02*
X-77646Y-73319D01*
X-79465Y-74535D01*
X-80681Y-76354D01*
X-81108Y-78500D01*
X-80681Y-80646D01*
X-79465Y-82465D01*
X-77646Y-83681D01*
X-75500Y-84108D01*
X-73354Y-83681D01*
X-71535Y-82465D01*
X-70319Y-80646D01*
X-69892Y-78500D01*
X-70319Y-76354D01*
X-71535Y-74535D01*
X-73354Y-73319D01*
X-75500Y-72892D01*
D02*
G37*
G36*
X283499Y-71392D02*
X281353Y-71819D01*
X279534Y-73035D01*
X278319Y-74854D01*
X277892Y-77000D01*
X278319Y-79146D01*
X279534Y-80965D01*
X281353Y-82181D01*
X283499Y-82608D01*
X285645Y-82181D01*
X287465Y-80965D01*
X288680Y-79146D01*
X289107Y-77000D01*
X288680Y-74854D01*
X287465Y-73035D01*
X285645Y-71819D01*
X283499Y-71392D01*
D02*
G37*
G36*
X67153Y-78504D02*
X65300Y-78872D01*
X63729Y-79922D01*
X62679Y-81493D01*
X62310Y-83347D01*
X62679Y-85200D01*
X63729Y-86771D01*
X65300Y-87821D01*
X67153Y-88190D01*
X69007Y-87821D01*
X70578Y-86771D01*
X71628Y-85200D01*
X71996Y-83347D01*
X71628Y-81493D01*
X70578Y-79922D01*
X69007Y-78872D01*
X67153Y-78504D01*
D02*
G37*
G36*
X331500Y-80392D02*
X329354Y-80819D01*
X327535Y-82035D01*
X326319Y-83854D01*
X325948Y-85717D01*
X324805Y-85841D01*
X324661Y-85824D01*
X323465Y-84035D01*
X321646Y-82819D01*
X319500Y-82392D01*
X317354Y-82819D01*
X315535Y-84035D01*
X314319Y-85854D01*
X313892Y-88000D01*
X314319Y-90146D01*
X315535Y-91965D01*
X317354Y-93181D01*
X319500Y-93608D01*
X321646Y-93181D01*
X323465Y-91965D01*
X324681Y-90146D01*
X325051Y-88283D01*
X326195Y-88159D01*
X326339Y-88176D01*
X327535Y-89965D01*
X329354Y-91181D01*
X331500Y-91608D01*
X333646Y-91181D01*
X335282Y-90088D01*
X335534Y-90465D01*
X337353Y-91681D01*
X339499Y-92108D01*
X341147Y-91780D01*
X341319Y-92646D01*
X342535Y-94465D01*
X343133Y-94865D01*
Y-96135D01*
X342535Y-96535D01*
X341319Y-98354D01*
X340892Y-100500D01*
X341319Y-102646D01*
X342535Y-104465D01*
X343133Y-104865D01*
Y-106135D01*
X342535Y-106535D01*
X341319Y-108354D01*
X340892Y-110500D01*
X341319Y-112646D01*
X342535Y-114465D01*
X343035Y-114799D01*
Y-116035D01*
X341819Y-117854D01*
X341392Y-120000D01*
X341819Y-122146D01*
X342758Y-123551D01*
X342035Y-124035D01*
X340819Y-125854D01*
X340392Y-128000D01*
X340819Y-130146D01*
X341361Y-130957D01*
X342013Y-132000D01*
X341361Y-133043D01*
X340819Y-133854D01*
X340392Y-136000D01*
X340819Y-138146D01*
X342035Y-139965D01*
X342412Y-140218D01*
X341319Y-141854D01*
X340892Y-144000D01*
X341319Y-146146D01*
X342535Y-147965D01*
X344354Y-149181D01*
X346500Y-149608D01*
X348646Y-149181D01*
X350465Y-147965D01*
X351681Y-146146D01*
X352108Y-144000D01*
X351681Y-141854D01*
X350465Y-140035D01*
X350088Y-139782D01*
X351181Y-138146D01*
X351608Y-136000D01*
X351181Y-133854D01*
X350639Y-133043D01*
X349987Y-132000D01*
X350639Y-130957D01*
X351181Y-130146D01*
X351608Y-128000D01*
X351181Y-125854D01*
X350242Y-124449D01*
X350965Y-123965D01*
X352181Y-122146D01*
X352608Y-120000D01*
X352181Y-117854D01*
X350965Y-116035D01*
X350465Y-115701D01*
Y-115118D01*
X350600Y-114263D01*
X351681Y-112646D01*
X352108Y-110500D01*
X351681Y-108354D01*
X350465Y-106535D01*
X349867Y-106135D01*
Y-104865D01*
X350465Y-104465D01*
X351681Y-102646D01*
X352108Y-100500D01*
X351681Y-98354D01*
X350465Y-96535D01*
X349867Y-96135D01*
Y-94865D01*
X350465Y-94465D01*
X351681Y-92646D01*
X352108Y-90500D01*
X351681Y-88354D01*
X350465Y-86535D01*
X348646Y-85319D01*
X346500Y-84892D01*
X344852Y-85220D01*
X344680Y-84354D01*
X343465Y-82535D01*
X341645Y-81319D01*
X339499Y-80892D01*
X337353Y-81319D01*
X335717Y-82412D01*
X335465Y-82035D01*
X333646Y-80819D01*
X331500Y-80392D01*
D02*
G37*
G36*
X215000Y-74392D02*
X212854Y-74819D01*
X211035Y-76035D01*
X209819Y-77854D01*
X209392Y-80000D01*
X209819Y-82146D01*
X211035Y-83965D01*
X212854Y-85181D01*
X215000Y-85608D01*
X217146Y-85181D01*
X218965Y-83965D01*
X220181Y-82146D01*
X220608Y-80000D01*
X220181Y-77854D01*
X218965Y-76035D01*
X217146Y-74819D01*
X215000Y-74392D01*
D02*
G37*
G36*
X-91500Y-103392D02*
X-93646Y-103819D01*
X-95465Y-105035D01*
X-96681Y-106854D01*
X-97108Y-109000D01*
X-96681Y-111146D01*
X-95465Y-112965D01*
X-93646Y-114181D01*
X-91500Y-114608D01*
X-89354Y-114181D01*
X-87535Y-112965D01*
X-86319Y-111146D01*
X-85892Y-109000D01*
X-86319Y-106854D01*
X-87535Y-105035D01*
X-89354Y-103819D01*
X-91500Y-103392D01*
D02*
G37*
G36*
X-32000Y-103157D02*
X-33853Y-103526D01*
X-35425Y-104576D01*
X-36474Y-106147D01*
X-36843Y-108000D01*
X-36474Y-109853D01*
X-35425Y-111425D01*
X-33853Y-112474D01*
X-32000Y-112843D01*
X-30147Y-112474D01*
X-28575Y-111425D01*
X-27526Y-109853D01*
X-27157Y-108000D01*
X-27526Y-106147D01*
X-28575Y-104576D01*
X-30147Y-103526D01*
X-32000Y-103157D01*
D02*
G37*
G36*
X-150000Y-99892D02*
X-152146Y-100319D01*
X-153965Y-101535D01*
X-155181Y-103354D01*
X-155608Y-105500D01*
X-155181Y-107646D01*
X-153965Y-109465D01*
X-152146Y-110681D01*
X-150000Y-111108D01*
X-147854Y-110681D01*
X-146035Y-109465D01*
X-144819Y-107646D01*
X-144392Y-105500D01*
X-144819Y-103354D01*
X-146035Y-101535D01*
X-147854Y-100319D01*
X-150000Y-99892D01*
D02*
G37*
G36*
X-85500Y-114892D02*
X-87646Y-115319D01*
X-89465Y-116535D01*
X-90681Y-118354D01*
X-91108Y-120500D01*
X-90681Y-122646D01*
X-89465Y-124465D01*
X-87646Y-125681D01*
X-85500Y-126108D01*
X-83354Y-125681D01*
X-81535Y-124465D01*
X-80319Y-122646D01*
X-79892Y-120500D01*
X-80319Y-118354D01*
X-81535Y-116535D01*
X-83354Y-115319D01*
X-85500Y-114892D01*
D02*
G37*
G36*
X-60500Y-106001D02*
X-62646Y-106428D01*
X-64465Y-107644D01*
X-65681Y-109463D01*
X-66108Y-111609D01*
X-65681Y-113755D01*
X-64465Y-115574D01*
X-62646Y-116790D01*
X-60500Y-117217D01*
X-58354Y-116790D01*
X-56535Y-115574D01*
X-55319Y-113755D01*
X-54892Y-111609D01*
X-55319Y-109463D01*
X-56535Y-107644D01*
X-58354Y-106428D01*
X-60500Y-106001D01*
D02*
G37*
G36*
X-201000Y-105657D02*
X-202853Y-106026D01*
X-204425Y-107076D01*
X-205474Y-108647D01*
X-205843Y-110500D01*
X-205474Y-112353D01*
X-204425Y-113925D01*
X-202853Y-114974D01*
X-201000Y-115343D01*
X-199147Y-114974D01*
X-197575Y-113925D01*
X-196526Y-112353D01*
X-196157Y-110500D01*
X-196526Y-108647D01*
X-197575Y-107076D01*
X-199147Y-106026D01*
X-201000Y-105657D01*
D02*
G37*
G36*
X-138500Y-83392D02*
X-140646Y-83819D01*
X-142465Y-85035D01*
X-143681Y-86854D01*
X-144108Y-89000D01*
X-143681Y-91146D01*
X-142465Y-92965D01*
X-140646Y-94181D01*
X-138500Y-94608D01*
X-136354Y-94181D01*
X-134535Y-92965D01*
X-133319Y-91146D01*
X-132892Y-89000D01*
X-133319Y-86854D01*
X-134535Y-85035D01*
X-136354Y-83819D01*
X-138500Y-83392D01*
D02*
G37*
G36*
X-31500Y-73892D02*
X-33646Y-74319D01*
X-35465Y-75535D01*
X-36681Y-77354D01*
X-37108Y-79500D01*
X-36681Y-81646D01*
X-36281Y-82244D01*
X-37465Y-83035D01*
X-38681Y-84854D01*
X-39108Y-87000D01*
X-38681Y-89146D01*
X-37465Y-90965D01*
X-35646Y-92181D01*
X-33500Y-92608D01*
X-31354Y-92181D01*
X-29535Y-90965D01*
X-28319Y-89146D01*
X-27892Y-87000D01*
X-28319Y-84854D01*
X-28718Y-84256D01*
X-27535Y-83465D01*
X-26319Y-81646D01*
X-25892Y-79500D01*
X-26319Y-77354D01*
X-27535Y-75535D01*
X-29354Y-74319D01*
X-31500Y-73892D01*
D02*
G37*
G36*
X305999Y-80892D02*
X303853Y-81319D01*
X302034Y-82535D01*
X300819Y-84354D01*
X300392Y-86500D01*
X300819Y-88646D01*
X302034Y-90465D01*
X303853Y-91681D01*
X305999Y-92108D01*
X308145Y-91681D01*
X309965Y-90465D01*
X311180Y-88646D01*
X311607Y-86500D01*
X311180Y-84354D01*
X309965Y-82535D01*
X308145Y-81319D01*
X305999Y-80892D01*
D02*
G37*
G36*
X103500Y-61657D02*
X101647Y-62026D01*
X100075Y-63075D01*
X99026Y-64647D01*
X98657Y-66500D01*
X99026Y-68353D01*
X100075Y-69925D01*
X101647Y-70974D01*
X103301Y-71303D01*
X103456Y-72083D01*
X104430Y-73541D01*
X104025Y-74146D01*
X103817Y-75193D01*
X102147Y-75526D01*
X100575Y-76575D01*
X99526Y-78147D01*
X99157Y-80000D01*
X99526Y-81853D01*
X100575Y-83425D01*
X102147Y-84474D01*
X104000Y-84843D01*
X105579Y-84529D01*
X106242Y-85219D01*
X106419Y-85558D01*
X106026Y-86147D01*
X105657Y-88000D01*
X106026Y-89853D01*
X106112Y-89983D01*
X105443Y-91268D01*
X104147Y-91526D01*
X102575Y-92576D01*
X101526Y-94147D01*
X101157Y-96000D01*
X101526Y-97853D01*
X101838Y-98321D01*
X102147Y-99526D01*
X101514Y-99948D01*
X100575Y-100575D01*
X99526Y-102147D01*
X99157Y-104000D01*
X99526Y-105853D01*
X100575Y-107425D01*
X102147Y-108474D01*
X104000Y-108843D01*
X105853Y-108474D01*
X107424Y-107425D01*
X108474Y-105853D01*
X108843Y-104000D01*
X108474Y-102147D01*
X108162Y-101679D01*
X107853Y-100474D01*
X108486Y-100052D01*
X109424Y-99425D01*
X110474Y-97853D01*
X110843Y-96000D01*
X110474Y-94147D01*
X110388Y-94017D01*
X111057Y-92732D01*
X112353Y-92474D01*
X113925Y-91425D01*
X114974Y-89853D01*
X115343Y-88000D01*
X114974Y-86147D01*
X113925Y-84575D01*
X112353Y-83526D01*
X110500Y-83157D01*
X108921Y-83471D01*
X108258Y-82781D01*
X108081Y-82442D01*
X108474Y-81853D01*
X108683Y-80807D01*
X110353Y-80474D01*
X111924Y-79424D01*
X112974Y-77853D01*
X113343Y-76000D01*
X112974Y-74146D01*
X112000Y-72689D01*
X112404Y-72083D01*
X112773Y-70230D01*
X112404Y-68376D01*
X111355Y-66805D01*
X109783Y-65755D01*
X108130Y-65426D01*
X107974Y-64647D01*
X106924Y-63075D01*
X105353Y-62026D01*
X103500Y-61657D01*
D02*
G37*
G36*
X-327999Y-100157D02*
X-329853Y-100525D01*
X-331424Y-101575D01*
X-332474Y-103146D01*
X-332842Y-105000D01*
X-332729Y-105568D01*
X-333627Y-106466D01*
X-334000Y-106392D01*
X-336146Y-106819D01*
X-337965Y-108035D01*
X-339181Y-109854D01*
X-339608Y-112000D01*
X-339181Y-114146D01*
X-337965Y-115965D01*
X-336146Y-117181D01*
X-334000Y-117608D01*
X-331854Y-117181D01*
X-330035Y-115965D01*
X-328819Y-114146D01*
X-328392Y-112000D01*
X-328587Y-111021D01*
X-328449Y-110745D01*
X-327545Y-109752D01*
X-326146Y-109474D01*
X-324575Y-108424D01*
X-323525Y-106853D01*
X-323156Y-105000D01*
X-323525Y-103146D01*
X-324575Y-101575D01*
X-326146Y-100525D01*
X-327999Y-100157D01*
D02*
G37*
G36*
X-160500Y-92892D02*
X-162646Y-93319D01*
X-164465Y-94535D01*
X-165681Y-96354D01*
X-166107Y-98500D01*
X-165681Y-100646D01*
X-164465Y-102465D01*
X-162646Y-103681D01*
X-160500Y-104108D01*
X-158354Y-103681D01*
X-156534Y-102465D01*
X-155319Y-100646D01*
X-154892Y-98500D01*
X-155319Y-96354D01*
X-156534Y-94535D01*
X-158354Y-93319D01*
X-160500Y-92892D01*
D02*
G37*
G36*
X-301000Y-71157D02*
X-302853Y-71526D01*
X-304425Y-72575D01*
X-305474Y-74147D01*
X-305843Y-76000D01*
X-305474Y-77853D01*
X-304425Y-79425D01*
X-302853Y-80474D01*
X-301000Y-80843D01*
X-299147Y-80474D01*
X-297575Y-79425D01*
X-296526Y-77853D01*
X-296157Y-76000D01*
X-296526Y-74147D01*
X-297575Y-72575D01*
X-299147Y-71526D01*
X-301000Y-71157D01*
D02*
G37*
G36*
X36000Y-47157D02*
X34147Y-47526D01*
X32575Y-48575D01*
X31526Y-50147D01*
X31157Y-52000D01*
X31526Y-53853D01*
X32575Y-55425D01*
X34147Y-56474D01*
X36000Y-56843D01*
X37853Y-56474D01*
X39425Y-55425D01*
X40474Y-53853D01*
X40843Y-52000D01*
X40474Y-50147D01*
X39425Y-48575D01*
X37853Y-47526D01*
X36000Y-47157D01*
D02*
G37*
G36*
X52000D02*
X50147Y-47526D01*
X48575Y-48575D01*
X47526Y-50147D01*
X47157Y-52000D01*
X47526Y-53853D01*
X48575Y-55425D01*
X50147Y-56474D01*
X52000Y-56843D01*
X53853Y-56474D01*
X55424Y-55425D01*
X56474Y-53853D01*
X56843Y-52000D01*
X56474Y-50147D01*
X55424Y-48575D01*
X53853Y-47526D01*
X52000Y-47157D01*
D02*
G37*
G36*
X102500Y-32392D02*
X100354Y-32819D01*
X98535Y-34035D01*
X97319Y-35854D01*
X96892Y-38000D01*
X97319Y-40146D01*
X98535Y-41965D01*
X99517Y-42622D01*
X100026Y-44147D01*
X99657Y-46000D01*
X100026Y-47853D01*
X101075Y-49425D01*
X102647Y-50474D01*
X103334Y-50611D01*
X103157Y-51500D01*
X103526Y-53353D01*
X104576Y-54925D01*
X106147Y-55974D01*
X108000Y-56343D01*
X109853Y-55974D01*
X111425Y-54925D01*
X112474Y-53353D01*
X112843Y-51500D01*
X112474Y-49647D01*
X111425Y-48075D01*
X109853Y-47026D01*
X109166Y-46889D01*
X109343Y-46000D01*
X108974Y-44147D01*
X107924Y-42575D01*
X106634Y-41713D01*
X107681Y-40146D01*
X108108Y-38000D01*
X107681Y-35854D01*
X106465Y-34035D01*
X104646Y-32819D01*
X102500Y-32392D01*
D02*
G37*
G36*
X-277000Y-47157D02*
X-278853Y-47526D01*
X-280425Y-48575D01*
X-281474Y-50147D01*
X-281843Y-52000D01*
X-281474Y-53853D01*
X-280425Y-55425D01*
X-278853Y-56474D01*
X-277000Y-56843D01*
X-275147Y-56474D01*
X-273575Y-55425D01*
X-272526Y-53853D01*
X-272157Y-52000D01*
X-272526Y-50147D01*
X-273575Y-48575D01*
X-275147Y-47526D01*
X-277000Y-47157D01*
D02*
G37*
G36*
X-245000D02*
X-246853Y-47526D01*
X-248425Y-48575D01*
X-249474Y-50147D01*
X-249843Y-52000D01*
X-249474Y-53853D01*
X-248425Y-55425D01*
X-246853Y-56474D01*
X-245000Y-56843D01*
X-243147Y-56474D01*
X-241576Y-55425D01*
X-240526Y-53853D01*
X-240157Y-52000D01*
X-240526Y-50147D01*
X-241576Y-48575D01*
X-243147Y-47526D01*
X-245000Y-47157D01*
D02*
G37*
G36*
X20000D02*
X18147Y-47526D01*
X16575Y-48575D01*
X15526Y-50147D01*
X15157Y-52000D01*
X15526Y-53853D01*
X16575Y-55425D01*
X18147Y-56474D01*
X20000Y-56843D01*
X21853Y-56474D01*
X23424Y-55425D01*
X24474Y-53853D01*
X24843Y-52000D01*
X24474Y-50147D01*
X23424Y-48575D01*
X21853Y-47526D01*
X20000Y-47157D01*
D02*
G37*
G36*
X-390500Y-32392D02*
X-392646Y-32819D01*
X-394465Y-34035D01*
X-395681Y-35854D01*
X-396108Y-38000D01*
X-395681Y-40146D01*
X-394465Y-41965D01*
X-392646Y-43181D01*
X-390500Y-43608D01*
X-388354Y-43181D01*
X-386535Y-41965D01*
X-385319Y-40146D01*
X-384892Y-38000D01*
X-385319Y-35854D01*
X-386535Y-34035D01*
X-388354Y-32819D01*
X-390500Y-32392D01*
D02*
G37*
G36*
X-277000Y-31157D02*
X-278853Y-31526D01*
X-280425Y-32575D01*
X-281474Y-34147D01*
X-281843Y-36000D01*
X-281474Y-37853D01*
X-280425Y-39425D01*
X-278853Y-40474D01*
X-277000Y-40843D01*
X-275147Y-40474D01*
X-273575Y-39425D01*
X-272526Y-37853D01*
X-272157Y-36000D01*
X-272526Y-34147D01*
X-273575Y-32575D01*
X-275147Y-31526D01*
X-277000Y-31157D01*
D02*
G37*
G36*
X-261000D02*
X-262853Y-31526D01*
X-264425Y-32575D01*
X-265474Y-34147D01*
X-265843Y-36000D01*
X-265474Y-37853D01*
X-264425Y-39425D01*
X-262853Y-40474D01*
X-261000Y-40843D01*
X-259147Y-40474D01*
X-257575Y-39425D01*
X-256526Y-37853D01*
X-256157Y-36000D01*
X-256526Y-34147D01*
X-257575Y-32575D01*
X-259147Y-31526D01*
X-261000Y-31157D01*
D02*
G37*
G36*
X240000Y-40997D02*
X237854Y-41424D01*
X236035Y-42640D01*
X234819Y-44459D01*
X234392Y-46605D01*
X234819Y-48751D01*
X236035Y-50570D01*
X237854Y-51786D01*
X240000Y-52213D01*
X242146Y-51786D01*
X243965Y-50570D01*
X245181Y-48751D01*
X245608Y-46605D01*
X245181Y-44459D01*
X243965Y-42640D01*
X242146Y-41424D01*
X240000Y-40997D01*
D02*
G37*
G36*
X-107000Y-30893D02*
X-109146Y-31319D01*
X-110965Y-32535D01*
X-112181Y-34354D01*
X-112607Y-36500D01*
X-112181Y-38646D01*
X-112119Y-38739D01*
X-112851Y-39929D01*
X-114646Y-40286D01*
X-116465Y-41502D01*
X-117681Y-43321D01*
X-118108Y-45467D01*
X-117681Y-47613D01*
X-116465Y-49432D01*
X-114646Y-50648D01*
X-112500Y-51075D01*
X-110354Y-50648D01*
X-108535Y-49432D01*
X-107319Y-47613D01*
X-106892Y-45467D01*
X-107319Y-43321D01*
X-107381Y-43229D01*
X-106649Y-42038D01*
X-104854Y-41681D01*
X-103034Y-40465D01*
X-101819Y-38646D01*
X-101392Y-36500D01*
X-101819Y-34354D01*
X-103034Y-32535D01*
X-104854Y-31319D01*
X-107000Y-30893D01*
D02*
G37*
G36*
X-339500Y-39892D02*
X-341646Y-40319D01*
X-343465Y-41535D01*
X-344681Y-43354D01*
X-345108Y-45500D01*
X-344735Y-47373D01*
X-345420Y-48033D01*
X-345764Y-48213D01*
X-346354Y-47819D01*
X-348500Y-47392D01*
X-350646Y-47819D01*
X-352465Y-49035D01*
X-353681Y-50854D01*
X-354108Y-53000D01*
X-353681Y-55146D01*
X-352465Y-56965D01*
X-350646Y-58181D01*
X-348529Y-58602D01*
X-348608Y-59000D01*
X-348181Y-61146D01*
X-346965Y-62965D01*
X-345560Y-63904D01*
X-345181Y-64625D01*
X-345247Y-65456D01*
X-346181Y-66854D01*
X-346608Y-69000D01*
X-346181Y-71146D01*
X-344965Y-72965D01*
X-343561Y-73903D01*
X-343421Y-75178D01*
X-343474Y-75373D01*
X-344465Y-76035D01*
X-345681Y-77854D01*
X-346108Y-80000D01*
X-345681Y-82146D01*
X-344465Y-83965D01*
Y-84035D01*
X-345681Y-85854D01*
X-346108Y-88000D01*
X-345681Y-90146D01*
X-345139Y-90957D01*
X-344487Y-92000D01*
X-345139Y-93043D01*
X-345681Y-93854D01*
X-346108Y-96000D01*
X-345681Y-98146D01*
X-344465Y-99965D01*
X-342646Y-101181D01*
X-340500Y-101608D01*
X-338354Y-101181D01*
X-336535Y-99965D01*
X-335319Y-98146D01*
X-335025Y-96666D01*
X-334698Y-96450D01*
X-333663Y-96167D01*
X-332146Y-97181D01*
X-330000Y-97608D01*
X-327854Y-97181D01*
X-326035Y-95965D01*
X-324819Y-94146D01*
X-324392Y-92000D01*
X-324819Y-89854D01*
X-326035Y-88035D01*
X-327854Y-86819D01*
X-330000Y-86392D01*
X-332146Y-86819D01*
X-333663Y-87832D01*
X-334698Y-87550D01*
X-335025Y-87334D01*
X-335319Y-85854D01*
X-336535Y-84035D01*
Y-83965D01*
X-335319Y-82146D01*
X-334988Y-80479D01*
X-333881Y-79866D01*
X-333663Y-79837D01*
X-333147Y-80182D01*
X-331001Y-80609D01*
X-328855Y-80182D01*
X-327036Y-78966D01*
X-325820Y-77147D01*
X-325393Y-75001D01*
X-325820Y-72855D01*
X-327036Y-71036D01*
X-328855Y-69820D01*
X-329756Y-69641D01*
X-330024Y-68293D01*
X-329536Y-67966D01*
X-328320Y-66147D01*
X-327893Y-64001D01*
X-328320Y-61855D01*
X-329536Y-60036D01*
X-331355Y-58820D01*
X-333501Y-58393D01*
X-335647Y-58820D01*
X-336163Y-59165D01*
X-336384Y-59136D01*
X-337487Y-58523D01*
X-337819Y-56854D01*
X-339035Y-55035D01*
X-340854Y-53819D01*
X-342971Y-53398D01*
X-342892Y-53000D01*
X-343265Y-51126D01*
X-342580Y-50467D01*
X-342236Y-50287D01*
X-341646Y-50681D01*
X-339500Y-51108D01*
X-337354Y-50681D01*
X-335535Y-49465D01*
X-334319Y-47646D01*
X-333892Y-45500D01*
X-334319Y-43354D01*
X-335535Y-41535D01*
X-337354Y-40319D01*
X-339500Y-39892D01*
D02*
G37*
G36*
X-96000Y-68392D02*
X-98146Y-68819D01*
X-99965Y-70035D01*
X-101181Y-71854D01*
X-101608Y-74000D01*
X-101181Y-76146D01*
X-99965Y-77965D01*
X-98146Y-79181D01*
X-96000Y-79608D01*
X-93854Y-79181D01*
X-92035Y-77965D01*
X-90819Y-76146D01*
X-90392Y-74000D01*
X-90819Y-71854D01*
X-92035Y-70035D01*
X-93854Y-68819D01*
X-96000Y-68392D01*
D02*
G37*
G36*
X385000Y-61392D02*
X382854Y-61819D01*
X381035Y-63035D01*
X379819Y-64854D01*
X379392Y-67000D01*
X379737Y-68731D01*
X378534Y-69535D01*
X377318Y-71354D01*
X376892Y-73500D01*
X377318Y-75646D01*
X378534Y-77465D01*
X380353Y-78681D01*
X382499Y-79108D01*
X384645Y-78681D01*
X386465Y-77465D01*
X387680Y-75646D01*
X388107Y-73500D01*
X387763Y-71769D01*
X388965Y-70965D01*
X390181Y-69146D01*
X390608Y-67000D01*
X390181Y-64854D01*
X388965Y-63035D01*
X387146Y-61819D01*
X385000Y-61392D01*
D02*
G37*
G36*
X-412999Y-61392D02*
X-415145Y-61819D01*
X-416964Y-63035D01*
X-418180Y-64854D01*
X-418607Y-67000D01*
X-418180Y-69146D01*
X-416964Y-70965D01*
X-415145Y-72181D01*
X-412999Y-72608D01*
X-410853Y-72181D01*
X-409034Y-70965D01*
X-407818Y-69146D01*
X-407391Y-67000D01*
X-407818Y-64854D01*
X-409034Y-63035D01*
X-410853Y-61819D01*
X-412999Y-61392D01*
D02*
G37*
G36*
X-221000Y-71157D02*
X-222853Y-71526D01*
X-224425Y-72575D01*
X-225474Y-74147D01*
X-225843Y-76000D01*
X-225474Y-77853D01*
X-224425Y-79425D01*
X-222853Y-80474D01*
X-221000Y-80843D01*
X-219147Y-80474D01*
X-217575Y-79425D01*
X-216526Y-77853D01*
X-216157Y-76000D01*
X-216526Y-74147D01*
X-217575Y-72575D01*
X-219147Y-71526D01*
X-221000Y-71157D01*
D02*
G37*
G36*
X-4000D02*
X-5853Y-71526D01*
X-7425Y-72575D01*
X-8474Y-74147D01*
X-8843Y-76000D01*
X-8474Y-77853D01*
X-7425Y-79425D01*
X-5853Y-80474D01*
X-4000Y-80843D01*
X-2147Y-80474D01*
X-575Y-79425D01*
X474Y-77853D01*
X843Y-76000D01*
X474Y-74147D01*
X-575Y-72575D01*
X-2147Y-71526D01*
X-4000Y-71157D01*
D02*
G37*
G36*
X76000D02*
X74147Y-71526D01*
X72575Y-72575D01*
X71526Y-74147D01*
X71157Y-76000D01*
X71526Y-77853D01*
X72575Y-79425D01*
X74147Y-80474D01*
X76000Y-80843D01*
X77853Y-80474D01*
X79425Y-79425D01*
X80474Y-77853D01*
X80843Y-76000D01*
X80474Y-74147D01*
X79425Y-72575D01*
X77853Y-71526D01*
X76000Y-71157D01*
D02*
G37*
G36*
X-454000Y-60392D02*
X-456146Y-60819D01*
X-457965Y-62035D01*
X-458535D01*
X-460354Y-60819D01*
X-462500Y-60392D01*
X-464646Y-60819D01*
X-466465Y-62035D01*
X-467681Y-63854D01*
X-468108Y-66000D01*
X-467681Y-68146D01*
X-466465Y-69965D01*
X-464646Y-71181D01*
X-462500Y-71608D01*
X-460354Y-71181D01*
X-458535Y-69965D01*
X-457965D01*
X-456146Y-71181D01*
X-454000Y-71608D01*
X-451854Y-71181D01*
X-450035Y-69965D01*
X-448819Y-68146D01*
X-448392Y-66000D01*
X-448819Y-63854D01*
X-450035Y-62035D01*
X-451854Y-60819D01*
X-454000Y-60392D01*
D02*
G37*
G36*
X-261000Y-49157D02*
X-262853Y-49526D01*
X-264425Y-50575D01*
X-265474Y-52147D01*
X-265843Y-54000D01*
X-265474Y-55853D01*
X-264425Y-57425D01*
X-262853Y-58474D01*
X-261000Y-58843D01*
X-259147Y-58474D01*
X-257575Y-57425D01*
X-256526Y-55853D01*
X-256157Y-54000D01*
X-256526Y-52147D01*
X-257575Y-50575D01*
X-259147Y-49526D01*
X-261000Y-49157D01*
D02*
G37*
G36*
X-309000Y-47157D02*
X-310853Y-47526D01*
X-312425Y-48575D01*
X-313474Y-50147D01*
X-313843Y-52000D01*
X-313474Y-53853D01*
X-312425Y-55425D01*
X-310853Y-56474D01*
X-309000Y-56843D01*
X-307147Y-56474D01*
X-305576Y-55425D01*
X-304526Y-53853D01*
X-304157Y-52000D01*
X-304526Y-50147D01*
X-305576Y-48575D01*
X-307147Y-47526D01*
X-309000Y-47157D01*
D02*
G37*
G36*
X-88000Y-58892D02*
X-90146Y-59319D01*
X-91965Y-60535D01*
X-93181Y-62354D01*
X-93608Y-64500D01*
X-93181Y-66646D01*
X-91965Y-68465D01*
X-90146Y-69681D01*
X-88000Y-70108D01*
X-85854Y-69681D01*
X-84035Y-68465D01*
X-82819Y-66646D01*
X-82392Y-64500D01*
X-82819Y-62354D01*
X-84035Y-60535D01*
X-85854Y-59319D01*
X-88000Y-58892D01*
D02*
G37*
G36*
X-130000Y-55892D02*
X-132146Y-56319D01*
X-133965Y-57535D01*
X-135181Y-59354D01*
X-135608Y-61500D01*
X-135181Y-63646D01*
X-133965Y-65465D01*
X-132146Y-66681D01*
X-130000Y-67108D01*
X-127854Y-66681D01*
X-126035Y-65465D01*
X-124819Y-63646D01*
X-124392Y-61500D01*
X-124819Y-59354D01*
X-126035Y-57535D01*
X-127854Y-56319D01*
X-130000Y-55892D01*
D02*
G37*
G36*
X84000Y-55157D02*
X82147Y-55526D01*
X80576Y-56575D01*
X79526Y-58147D01*
X79157Y-60000D01*
X79526Y-61853D01*
X80576Y-63425D01*
X82147Y-64474D01*
X84000Y-64843D01*
X85853Y-64474D01*
X87425Y-63425D01*
X88474Y-61853D01*
X88843Y-60000D01*
X88474Y-58147D01*
X87425Y-56575D01*
X85853Y-55526D01*
X84000Y-55157D01*
D02*
G37*
%LPD*%
D40*
X-413500Y-67000D02*
X-412999D01*
D41*
X139000Y-374499D02*
X139499D01*
D45*
X-390000Y-222000D02*
X-389999D01*
D46*
X228719Y63614D02*
X228719D01*
X-500Y-286999D02*
Y-286000D01*
X-136500Y-12000D02*
X-136500Y-12000D01*
X206500Y6500D02*
Y7500D01*
X282999Y-229499D02*
X282999D01*
D51*
X-440000Y-358000D02*
D03*
X350000D02*
D03*
Y62000D02*
D03*
X-440000D02*
D03*
D52*
X383000Y-93500D02*
D03*
X412500Y51500D02*
D03*
X421000D02*
D03*
X382500Y18500D02*
D03*
X377000Y13000D02*
D03*
X403500Y51500D02*
D03*
X388500Y24500D02*
D03*
X-93000Y6000D02*
D03*
X416000Y-235000D02*
D03*
X-151500Y-91500D02*
D03*
X-389999Y-222000D02*
D03*
X-318057Y-378057D02*
D03*
X-330757Y-378243D02*
D03*
X-311807Y-362000D02*
D03*
X-324507D02*
D03*
X-312007Y-337000D02*
D03*
X-324707D02*
D03*
X184000Y-312000D02*
D03*
X171000Y-362499D02*
D03*
X184000D02*
D03*
X81500Y-324000D02*
D03*
X119500Y-310000D02*
D03*
X132500Y-336500D02*
D03*
X107500Y-325000D02*
D03*
X69500Y-324000D02*
D03*
X95000Y-374493D02*
D03*
X183000Y-324500D02*
D03*
X171000Y-312000D02*
D03*
X259000Y-310500D02*
D03*
X272393Y-286000D02*
D03*
X158000Y-347500D02*
D03*
X157500Y-363500D02*
D03*
X-366000Y-258000D02*
D03*
X160500Y-11500D02*
D03*
X139000Y-271500D02*
D03*
X253500Y-272500D02*
D03*
X324500Y-156500D02*
D03*
X204500Y46500D02*
D03*
X360000Y-105500D02*
D03*
Y-85500D02*
D03*
Y-75500D02*
D03*
X-428500Y-102000D02*
D03*
Y-91000D02*
D03*
X-434000Y-188000D02*
D03*
Y-177000D02*
D03*
X244220Y58115D02*
D03*
X228719Y63614D02*
D03*
X-324780Y-286273D02*
D03*
X-235500Y-298593D02*
D03*
X-197307Y-349500D02*
D03*
X-172000Y-299499D02*
D03*
X-146707Y-286000D02*
D03*
X-134000Y-285993D02*
D03*
X-108207Y-311000D02*
D03*
X-134000Y-324093D02*
D03*
X-121000Y-336493D02*
D03*
X-108607Y-349500D02*
D03*
X-82907Y-336500D02*
D03*
X-70500Y-349493D02*
D03*
X-83000Y-311193D02*
D03*
X-89457Y-269043D02*
D03*
X-70507Y-286000D02*
D03*
X-51357Y-269357D02*
D03*
X-32407Y-286000D02*
D03*
X-32407Y-298500D02*
D03*
X-57607D02*
D03*
X-45207Y-311500D02*
D03*
X-32307Y-324000D02*
D03*
X-31907Y-349000D02*
D03*
X-19607Y-324000D02*
D03*
X-13257Y-378243D02*
D03*
X5500Y-336407D02*
D03*
X6000Y-349193D02*
D03*
X18593Y-362000D02*
D03*
X31000Y-323807D02*
D03*
X-13257Y-270757D02*
D03*
X-500Y-286999D02*
D03*
X12143Y-299857D02*
D03*
X28000Y-270500D02*
D03*
X31293Y-298500D02*
D03*
X56593Y-324000D02*
D03*
X43793Y-349500D02*
D03*
X56493Y-286000D02*
D03*
X69000Y-298893D02*
D03*
X82500Y-310793D02*
D03*
X94693Y-324000D02*
D03*
X107500Y-298493D02*
D03*
X101043Y-268957D02*
D03*
X132500Y-324293D02*
D03*
X145500Y-336693D02*
D03*
X196193Y-349500D02*
D03*
X145593Y-298500D02*
D03*
X177243Y-268743D02*
D03*
X208893Y-286000D02*
D03*
X208993Y-324000D02*
D03*
X221293Y-299000D02*
D03*
X56500Y-298693D02*
D03*
X31000Y-336893D02*
D03*
X120000Y-377000D02*
D03*
X-410000Y-268400D02*
D03*
X-421000D02*
D03*
X-410000Y-279400D02*
D03*
X-421000D02*
D03*
X-410000Y-290400D02*
D03*
X-421000D02*
D03*
X-109107Y-286500D02*
D03*
X-435500Y-102000D02*
D03*
Y-91000D02*
D03*
X-431500Y-30250D02*
D03*
Y-19250D02*
D03*
X-114000Y-53500D02*
D03*
X-65000Y-96000D02*
D03*
X360000Y-95500D02*
D03*
X208500Y-299000D02*
D03*
X-412999Y-67000D02*
D03*
X-452499Y-75500D02*
D03*
X-365743Y-94252D02*
D03*
X-433999Y-308499D02*
D03*
X-35000Y-131500D02*
D03*
X-81010Y-175980D02*
D03*
X-135000Y-136000D02*
D03*
X-117500Y-103000D02*
D03*
X-84500Y-113000D02*
D03*
X-136500Y-12000D02*
D03*
X-93000Y52500D02*
D03*
X-393081Y66419D02*
D03*
X-381999Y-48500D02*
D03*
X-344499Y-3500D02*
D03*
X-391000Y-124500D02*
D03*
X96500Y79000D02*
D03*
X206500Y7500D02*
D03*
X312253Y23253D02*
D03*
X328500Y-4500D02*
D03*
X277999Y-20500D02*
D03*
X261500Y-112000D02*
D03*
X209500Y-51500D02*
D03*
X207149Y-71649D02*
D03*
X234500Y-121000D02*
D03*
X276000Y-52000D02*
D03*
X205500Y-31500D02*
D03*
X139000Y-374499D02*
D03*
X234000Y-249000D02*
D03*
X330000Y-233000D02*
D03*
X339000D02*
D03*
X330000Y-241000D02*
D03*
X339000Y-241500D02*
D03*
X282999Y-229499D02*
D03*
X289499Y-178000D02*
D03*
X436820Y-280260D02*
D03*
Y-301010D02*
D03*
Y-317760D02*
D03*
Y-338510D02*
D03*
X413820Y-284760D02*
D03*
Y-334010D02*
D03*
X399000Y-359500D02*
D03*
X398500Y-266000D02*
D03*
X399500Y-285000D02*
D03*
X388000Y-175500D02*
D03*
X379000Y-192500D02*
D03*
X308999Y-217500D02*
D03*
X349500Y-255000D02*
D03*
X380499Y-247500D02*
D03*
X419000Y26500D02*
D03*
X437000Y-18000D02*
D03*
X437500Y-50000D02*
D03*
Y-33500D02*
D03*
Y-66000D02*
D03*
Y-82000D02*
D03*
Y-98000D02*
D03*
Y-114000D02*
D03*
X432500Y-150000D02*
D03*
X383500Y-49000D02*
D03*
X233500Y-350000D02*
D03*
X184500Y-336500D02*
D03*
X148500Y88000D02*
D03*
X191500Y-115000D02*
D03*
X-400499Y-161000D02*
D03*
X-354499Y-162500D02*
D03*
X-397000Y-165000D02*
D03*
D53*
X68000Y-76000D02*
D03*
X110000Y-61500D02*
D03*
X-309000Y4000D02*
D03*
X-301000Y-4000D02*
D03*
X-293000Y-12000D02*
D03*
X-285000Y-20000D02*
D03*
Y-68000D02*
D03*
X-309000Y-92000D02*
D03*
X-213000Y-92000D02*
D03*
X-221000Y-84000D02*
D03*
X-237000Y-20000D02*
D03*
X-229000Y-12000D02*
D03*
X-221000Y-4000D02*
D03*
X-213000Y4000D02*
D03*
X-253000Y-36000D02*
D03*
X84000Y4000D02*
D03*
X76000Y-4000D02*
D03*
X68000Y-12000D02*
D03*
X60000Y-20000D02*
D03*
Y-68000D02*
D03*
X76000Y-84000D02*
D03*
X84000Y-92000D02*
D03*
X-12000Y-92000D02*
D03*
X-4000Y-84000D02*
D03*
X4000Y-76000D02*
D03*
X12000Y-68000D02*
D03*
X36000Y-44000D02*
D03*
X12000Y-20000D02*
D03*
X4000Y-12000D02*
D03*
X-4000Y-4000D02*
D03*
X-12000Y4000D02*
D03*
X-261000Y-76000D02*
D03*
X-277000Y-68000D02*
D03*
X-261000Y-4000D02*
D03*
X36000D02*
D03*
X28000Y-20000D02*
D03*
X36000Y-76000D02*
D03*
X-285000Y-44000D02*
D03*
X44000Y-12194D02*
D03*
X4000Y-44000D02*
D03*
X-213000Y-68000D02*
D03*
X-269000Y-36000D02*
D03*
X-229000Y-76000D02*
D03*
X-237000Y-68000D02*
D03*
Y-44000D02*
D03*
X-261000Y-42500D02*
D03*
D54*
X-450500Y-5000D02*
D03*
X-455499Y-156000D02*
D03*
X-469000Y-211500D02*
D03*
M02*
