G04 Layer_Physical_Order=4*
G04 Layer_Color=16711680*
%FSLAX44Y44*%
%MOMM*%
G71*
G01*
G75*
%ADD10C,0.1270*%
%ADD11R,0.5500X0.5500*%
%ADD12R,0.6400X0.6400*%
%ADD13R,0.6400X0.6400*%
%ADD23R,0.5500X0.5500*%
%ADD26R,1.6500X2.4000*%
%ADD27O,0.9000X0.4000*%
%ADD28R,0.9500X1.0000*%
%ADD29R,1.0000X0.9500*%
%ADD37R,2.7000X1.0000*%
%ADD38R,1.7000X0.6000*%
%ADD39R,1.4000X1.8000*%
%ADD40C,0.2500*%
%ADD41C,0.5000*%
%ADD42C,0.3000*%
%ADD43C,0.1500*%
%ADD44C,0.6000*%
%ADD45C,0.4000*%
%ADD46C,0.2000*%
%ADD51C,6.0000*%
%ADD52C,0.6000*%
%ADD53C,0.4500*%
%ADD54C,1.0000*%
%ADD55C,0.8000*%
%ADD56R,0.9500X0.8000*%
%ADD57R,2.7430X2.1590*%
%ADD58R,0.6000X1.7000*%
%ADD59R,1.0000X2.7000*%
%ADD60R,0.7620X1.7145*%
%ADD61R,0.6000X1.5500*%
%ADD62R,1.2000X1.8000*%
%ADD63R,0.6500X1.2000*%
%ADD64R,0.8000X0.3000*%
%ADD65R,2.2000X2.4000*%
%ADD66R,0.8500X1.3000*%
%ADD67R,1.3000X1.9000*%
%ADD68R,1.0000X2.8000*%
%ADD69R,1.0000X0.8000*%
%ADD70R,1.0000X1.2000*%
%ADD71R,0.7000X1.2000*%
%ADD72R,2.0500X3.0500*%
%ADD73C,0.1000*%
%ADD74O,0.2500X0.9000*%
%ADD75O,0.9000X0.2500*%
%ADD76R,1.7000X1.7000*%
%ADD77R,2.4500X3.3500*%
G04:AMPARAMS|DCode=78|XSize=0.3mm|YSize=1.6mm|CornerRadius=0mm|HoleSize=0mm|Usage=FLASHONLY|Rotation=135.000|XOffset=0mm|YOffset=0mm|HoleType=Round|Shape=Round|*
%AMOVALD78*
21,1,1.3000,0.3000,0.0000,0.0000,225.0*
1,1,0.3000,0.4596,0.4596*
1,1,0.3000,-0.4596,-0.4596*
%
%ADD78OVALD78*%

G04:AMPARAMS|DCode=79|XSize=0.3mm|YSize=1.6mm|CornerRadius=0mm|HoleSize=0mm|Usage=FLASHONLY|Rotation=225.000|XOffset=0mm|YOffset=0mm|HoleType=Round|Shape=Round|*
%AMOVALD79*
21,1,1.3000,0.3000,0.0000,0.0000,315.0*
1,1,0.3000,-0.4596,0.4596*
1,1,0.3000,0.4596,-0.4596*
%
%ADD79OVALD79*%

G04:AMPARAMS|DCode=80|XSize=1mm|YSize=0.95mm|CornerRadius=0mm|HoleSize=0mm|Usage=FLASHONLY|Rotation=135.000|XOffset=0mm|YOffset=0mm|HoleType=Round|Shape=Rectangle|*
%AMROTATEDRECTD80*
4,1,4,0.6894,-0.0177,0.0177,-0.6894,-0.6894,0.0177,-0.0177,0.6894,0.6894,-0.0177,0.0*
%
%ADD80ROTATEDRECTD80*%

%ADD81R,1.0000X2.3500*%
%ADD82R,3.3000X2.3500*%
%ADD83P,0.9051X4X360.0*%
G04:AMPARAMS|DCode=84|XSize=1.4mm|YSize=1.15mm|CornerRadius=0mm|HoleSize=0mm|Usage=FLASHONLY|Rotation=135.000|XOffset=0mm|YOffset=0mm|HoleType=Round|Shape=Rectangle|*
%AMROTATEDRECTD84*
4,1,4,0.9016,-0.0884,0.0884,-0.9016,-0.9016,0.0884,-0.0884,0.9016,0.9016,-0.0884,0.0*
%
%ADD84ROTATEDRECTD84*%

%ADD85R,1.0000X0.6000*%
%ADD86C,1.0000*%
G36*
X267406Y1194713D02*
X270728Y1190823D01*
X274618Y1187501D01*
X278980Y1184828D01*
X283706Y1182870D01*
X288680Y1181676D01*
X293780Y1181274D01*
X298880Y1181676D01*
X303854Y1182870D01*
X308580Y1184828D01*
X312942Y1187501D01*
X316832Y1190823D01*
X318297Y1192539D01*
X319566Y1192589D01*
X328280Y1183875D01*
Y1176479D01*
X317167Y1165366D01*
X316449Y1164290D01*
X316196Y1163022D01*
Y1151875D01*
X313478D01*
X313147Y1152277D01*
X312684Y1153145D01*
X312829Y1153875D01*
Y1163125D01*
X274731D01*
Y1153875D01*
X274876Y1153145D01*
X274413Y1152277D01*
X274082Y1151875D01*
X258078D01*
Y1196375D01*
X266387D01*
X267406Y1194713D01*
D02*
G37*
G36*
X327180Y891875D02*
X327183D01*
Y891294D01*
X326361Y890472D01*
X325199D01*
X324377Y891294D01*
Y891875D01*
X324380D01*
Y898975D01*
X327180D01*
Y891875D01*
D02*
G37*
G36*
X312180D02*
X312183D01*
Y891294D01*
X311361Y890472D01*
X310199D01*
X309377Y891294D01*
Y891875D01*
X309380D01*
Y898975D01*
X312180D01*
Y891875D01*
D02*
G37*
G36*
X332680Y891375D02*
X339780D01*
Y888575D01*
X332680D01*
Y888572D01*
X332099D01*
X331277Y889394D01*
Y890556D01*
X332099Y891378D01*
X332680D01*
Y891375D01*
D02*
G37*
G36*
X305283Y890556D02*
Y889394D01*
X304461Y888572D01*
X303880D01*
Y888575D01*
X296780D01*
Y891375D01*
X303880D01*
Y891378D01*
X304461D01*
X305283Y890556D01*
D02*
G37*
G36*
X332680Y886375D02*
X339780D01*
Y883575D01*
X332680D01*
Y883572D01*
X332099D01*
X331277Y884394D01*
Y885556D01*
X332099Y886378D01*
X332680D01*
Y886375D01*
D02*
G37*
G36*
X305283Y885556D02*
Y884394D01*
X304461Y883572D01*
X303880D01*
Y883575D01*
X296780D01*
Y886375D01*
X303880D01*
Y886378D01*
X304461D01*
X305283Y885556D01*
D02*
G37*
G36*
X332680Y881375D02*
X339780D01*
Y878575D01*
X332680D01*
Y878572D01*
X332099D01*
X331277Y879394D01*
Y880556D01*
X332099Y881378D01*
X332680D01*
Y881375D01*
D02*
G37*
G36*
X305283Y880556D02*
Y879394D01*
X304461Y878572D01*
X303880D01*
Y878575D01*
X296780D01*
Y881375D01*
X303880D01*
Y881378D01*
X304461D01*
X305283Y880556D01*
D02*
G37*
G36*
X332680Y876375D02*
X339780D01*
Y873575D01*
X332680D01*
Y873572D01*
X332099D01*
X331277Y874394D01*
Y875556D01*
X332099Y876378D01*
X332680D01*
Y876375D01*
D02*
G37*
G36*
X305283Y875556D02*
Y874394D01*
X304461Y873572D01*
X303880D01*
Y873575D01*
X296780D01*
Y876375D01*
X303880D01*
Y876378D01*
X304461D01*
X305283Y875556D01*
D02*
G37*
G36*
X332680Y871375D02*
X339780D01*
Y868575D01*
X332680D01*
Y868572D01*
X332099D01*
X331277Y869394D01*
Y870556D01*
X332099Y871378D01*
X332680D01*
Y871375D01*
D02*
G37*
G36*
X305283Y870556D02*
Y869394D01*
X304461Y868572D01*
X303880D01*
Y868575D01*
X296780D01*
Y871375D01*
X303880D01*
Y871378D01*
X304461D01*
X305283Y870556D01*
D02*
G37*
G36*
X332680Y866375D02*
X339780D01*
Y863575D01*
X332680D01*
Y863572D01*
X332099D01*
X331277Y864394D01*
Y865556D01*
X332099Y866378D01*
X332680D01*
Y866375D01*
D02*
G37*
G36*
X305283Y865556D02*
Y864394D01*
X304461Y863572D01*
X303880D01*
Y863575D01*
X296780D01*
Y866375D01*
X303880D01*
Y866378D01*
X304461D01*
X305283Y865556D01*
D02*
G37*
G36*
X332680Y861375D02*
X339780D01*
Y858575D01*
X332680D01*
Y858572D01*
X332099D01*
X331277Y859394D01*
Y860556D01*
X332099Y861378D01*
X332680D01*
Y861375D01*
D02*
G37*
G36*
X305283Y860556D02*
Y859394D01*
X304461Y858572D01*
X303880D01*
Y858575D01*
X296780D01*
Y861375D01*
X303880D01*
Y861378D01*
X304461D01*
X305283Y860556D01*
D02*
G37*
G36*
X332680Y856375D02*
X339780D01*
Y853575D01*
X332680D01*
Y853572D01*
X332099D01*
X331277Y854394D01*
Y855556D01*
X332099Y856378D01*
X332680D01*
Y856375D01*
D02*
G37*
G36*
X305283Y855556D02*
Y854394D01*
X304461Y853572D01*
X303880D01*
Y853575D01*
X296780D01*
Y856375D01*
X303880D01*
Y856378D01*
X304461D01*
X305283Y855556D01*
D02*
G37*
G36*
X327183Y853656D02*
Y853075D01*
X327180D01*
Y845975D01*
X324380D01*
Y853075D01*
X324377D01*
Y853656D01*
X325199Y854478D01*
X326361D01*
X327183Y853656D01*
D02*
G37*
G36*
X312183D02*
Y853075D01*
X312180D01*
Y845975D01*
X309380D01*
Y853075D01*
X309377D01*
Y853656D01*
X310199Y854478D01*
X311361D01*
X312183Y853656D01*
D02*
G37*
G36*
X267406Y694723D02*
X270728Y690833D01*
X274618Y687511D01*
X278980Y684838D01*
X283706Y682880D01*
X288680Y681686D01*
X293780Y681284D01*
X298880Y681686D01*
X303854Y682880D01*
X308580Y684838D01*
X312942Y687511D01*
X316832Y690833D01*
X318297Y692549D01*
X319566Y692599D01*
X328280Y683885D01*
Y676489D01*
X317167Y665376D01*
X316449Y664301D01*
X316196Y663032D01*
Y651885D01*
X313478D01*
X313147Y652287D01*
X312684Y653155D01*
X312829Y653885D01*
Y663135D01*
X274731D01*
Y653885D01*
X274876Y653155D01*
X274413Y652287D01*
X274082Y651885D01*
X258078D01*
Y696385D01*
X266387D01*
X267406Y694723D01*
D02*
G37*
G36*
X327180Y391885D02*
X327183D01*
Y391304D01*
X326361Y390482D01*
X325199D01*
X324377Y391304D01*
Y391885D01*
X324380D01*
Y398985D01*
X327180D01*
Y391885D01*
D02*
G37*
G36*
X312180D02*
X312183D01*
Y391304D01*
X311361Y390482D01*
X310199D01*
X309377Y391304D01*
Y391885D01*
X309380D01*
Y398985D01*
X312180D01*
Y391885D01*
D02*
G37*
G36*
X332680Y391385D02*
X339780D01*
Y388585D01*
X332680D01*
Y388582D01*
X332099D01*
X331277Y389404D01*
Y390566D01*
X332099Y391388D01*
X332680D01*
Y391385D01*
D02*
G37*
G36*
X305283Y390566D02*
Y389404D01*
X304461Y388582D01*
X303880D01*
Y388585D01*
X296780D01*
Y391385D01*
X303880D01*
Y391388D01*
X304461D01*
X305283Y390566D01*
D02*
G37*
G36*
X332680Y386385D02*
X339780D01*
Y383585D01*
X332680D01*
Y383582D01*
X332099D01*
X331277Y384404D01*
Y385566D01*
X332099Y386388D01*
X332680D01*
Y386385D01*
D02*
G37*
G36*
X305283Y385566D02*
Y384404D01*
X304461Y383582D01*
X303880D01*
Y383585D01*
X296780D01*
Y386385D01*
X303880D01*
Y386388D01*
X304461D01*
X305283Y385566D01*
D02*
G37*
G36*
X332680Y381385D02*
X339780D01*
Y378585D01*
X332680D01*
Y378582D01*
X332099D01*
X331277Y379404D01*
Y380566D01*
X332099Y381388D01*
X332680D01*
Y381385D01*
D02*
G37*
G36*
X305283Y380566D02*
Y379404D01*
X304461Y378582D01*
X303880D01*
Y378585D01*
X296780D01*
Y381385D01*
X303880D01*
Y381388D01*
X304461D01*
X305283Y380566D01*
D02*
G37*
G36*
X332680Y376385D02*
X339780D01*
Y373585D01*
X332680D01*
Y373582D01*
X332099D01*
X331277Y374404D01*
Y375566D01*
X332099Y376388D01*
X332680D01*
Y376385D01*
D02*
G37*
G36*
X305283Y375566D02*
Y374404D01*
X304461Y373582D01*
X303880D01*
Y373585D01*
X296780D01*
Y376385D01*
X303880D01*
Y376388D01*
X304461D01*
X305283Y375566D01*
D02*
G37*
G36*
X332680Y371385D02*
X339780D01*
Y368585D01*
X332680D01*
Y368582D01*
X332099D01*
X331277Y369404D01*
Y370566D01*
X332099Y371388D01*
X332680D01*
Y371385D01*
D02*
G37*
G36*
X305283Y370566D02*
Y369404D01*
X304461Y368582D01*
X303880D01*
Y368585D01*
X296780D01*
Y371385D01*
X303880D01*
Y371388D01*
X304461D01*
X305283Y370566D01*
D02*
G37*
G36*
X332680Y366385D02*
X339780D01*
Y363585D01*
X332680D01*
Y363582D01*
X332099D01*
X331277Y364404D01*
Y365566D01*
X332099Y366388D01*
X332680D01*
Y366385D01*
D02*
G37*
G36*
X305283Y365566D02*
Y364404D01*
X304461Y363582D01*
X303880D01*
Y363585D01*
X296780D01*
Y366385D01*
X303880D01*
Y366388D01*
X304461D01*
X305283Y365566D01*
D02*
G37*
G36*
X332680Y361385D02*
X339780D01*
Y358585D01*
X332680D01*
Y358582D01*
X332099D01*
X331277Y359404D01*
Y360566D01*
X332099Y361388D01*
X332680D01*
Y361385D01*
D02*
G37*
G36*
X305283Y360566D02*
Y359404D01*
X304461Y358582D01*
X303880D01*
Y358585D01*
X296780D01*
Y361385D01*
X303880D01*
Y361388D01*
X304461D01*
X305283Y360566D01*
D02*
G37*
G36*
X332680Y356385D02*
X339780D01*
Y353585D01*
X332680D01*
Y353582D01*
X332099D01*
X331277Y354404D01*
Y355566D01*
X332099Y356388D01*
X332680D01*
Y356385D01*
D02*
G37*
G36*
X305283Y355566D02*
Y354404D01*
X304461Y353582D01*
X303880D01*
Y353585D01*
X296780D01*
Y356385D01*
X303880D01*
Y356388D01*
X304461D01*
X305283Y355566D01*
D02*
G37*
G36*
X327183Y353666D02*
Y353085D01*
X327180D01*
Y345985D01*
X324380D01*
Y353085D01*
X324377D01*
Y353666D01*
X325199Y354488D01*
X326361D01*
X327183Y353666D01*
D02*
G37*
G36*
X312183D02*
Y353085D01*
X312180D01*
Y345985D01*
X309380D01*
Y353085D01*
X309377D01*
Y353666D01*
X310199Y354488D01*
X311361D01*
X312183Y353666D01*
D02*
G37*
%LPC*%
G36*
X310280Y1179924D02*
X296280D01*
Y1168125D01*
X312829D01*
Y1177375D01*
X312635Y1178350D01*
X312082Y1179177D01*
X311255Y1179730D01*
X310280Y1179924D01*
D02*
G37*
G36*
X291280D02*
X277280D01*
X276305Y1179730D01*
X275478Y1179177D01*
X274925Y1178350D01*
X274731Y1177375D01*
Y1168125D01*
X291280D01*
Y1179924D01*
D02*
G37*
G36*
X310280Y679934D02*
X296280D01*
Y668135D01*
X312829D01*
Y677385D01*
X312635Y678360D01*
X312082Y679187D01*
X311255Y679740D01*
X310280Y679934D01*
D02*
G37*
G36*
X291280D02*
X277280D01*
X276305Y679740D01*
X275478Y679187D01*
X274925Y678360D01*
X274731Y677385D01*
Y668135D01*
X291280D01*
Y679934D01*
D02*
G37*
%LPD*%
D10*
X873280Y445885D02*
X879280D01*
X874780Y429290D02*
X887375D01*
X888280Y428386D01*
X875188Y451385D02*
X886780D01*
X861280Y441385D02*
X876780Y456885D01*
X879280D01*
X862232Y418525D02*
X876372Y404385D01*
X887780D01*
X861180Y415985D02*
X879780Y397385D01*
X882780D01*
X362886Y548663D02*
Y548663D01*
Y548663D02*
X364075Y547474D01*
X360346Y547611D02*
Y547611D01*
X363175Y551966D02*
X366615Y548526D01*
X376775Y548657D02*
X380562Y552445D01*
X374235Y549709D02*
X378022Y553497D01*
X371695Y550761D02*
X375482Y554549D01*
X369155Y551814D02*
X372942Y555601D01*
X379315Y547605D02*
X383102Y551393D01*
X843656Y596385D02*
X849780D01*
X843501Y596230D02*
X843656Y596385D01*
X840059Y596230D02*
X843501D01*
X839904Y596385D02*
X840059Y596230D01*
X822280Y596385D02*
X839904D01*
X841780Y600385D02*
X849280D01*
X850280Y601385D01*
X825280Y482885D02*
X868280Y525885D01*
Y573385D01*
X855855Y585810D02*
X868280Y573385D01*
X837705Y585810D02*
X855855D01*
X837280Y585385D02*
X837705Y585810D01*
X849780Y596385D02*
X872780Y573385D01*
X817780Y591885D02*
X822280Y596385D01*
X850280Y601385D02*
X877780Y573885D01*
Y522885D02*
Y573885D01*
X853280Y498385D02*
X877780Y522885D01*
X851280Y605885D02*
X882780Y574385D01*
Y501385D02*
Y574385D01*
X872780Y523885D02*
Y573385D01*
X844280Y495385D02*
X872780Y523885D01*
X825280Y480885D02*
Y482885D01*
X838280Y605885D02*
X851280D01*
X841710Y581655D02*
X841980Y581385D01*
X842280Y575885D02*
X842780Y575385D01*
X837780Y571885D02*
X838780Y570885D01*
X855780Y581385D02*
X864280Y572885D01*
Y528885D02*
Y572885D01*
X843780Y508385D02*
X864280Y528885D01*
X853780Y575385D02*
X860780Y568385D01*
Y532385D02*
Y568385D01*
X841280Y512885D02*
X860780Y532385D01*
X844280Y480885D02*
Y495385D01*
X853280Y480885D02*
Y498385D01*
X870056Y417886D02*
X885280D01*
X864336Y423605D02*
X870056Y417886D01*
X874464Y409885D02*
X881780D01*
X863284Y421065D02*
X874464Y409885D01*
X741280Y480385D02*
X743780D01*
X862648Y438845D02*
X875188Y451385D01*
X863700Y436305D02*
X873280Y445885D01*
X866160Y433765D02*
X871780Y439385D01*
X886780D01*
X874280Y434385D02*
X880780D01*
X871120Y431225D02*
X874280Y434385D01*
X874175Y428685D02*
X874780Y429290D01*
X867020Y426145D02*
X868780Y424385D01*
X880780D01*
X269875Y365980D02*
X276535Y372640D01*
X269875Y358290D02*
X274280Y353885D01*
X269875Y358290D02*
Y365980D01*
X276535Y372640D02*
X292035D01*
X265280Y353885D02*
Y369885D01*
X270780Y375385D01*
X289280D01*
X293880Y379985D01*
X298180D01*
X292380Y384985D02*
X298180D01*
X285625Y378230D02*
X292380Y384985D01*
X272435Y378230D02*
X285625D01*
X269780Y380885D02*
X272435Y378230D01*
X269780Y380885D02*
Y382885D01*
X294380Y374985D02*
X298180D01*
X292035Y372640D02*
X294380Y374985D01*
X1107780Y611385D02*
X1113780D01*
X1115780Y613385D01*
Y618385D01*
X1111780Y622385D02*
X1115780Y618385D01*
X1103280Y622385D02*
X1111780D01*
X1085780Y639885D02*
X1103280Y622385D01*
X1083780Y639885D02*
X1085780D01*
X1083780Y621885D02*
Y630885D01*
X1080280Y551385D02*
X1107780D01*
X1080280Y541385D02*
X1107780D01*
X745280Y647885D02*
X745780Y648385D01*
X743780Y480385D02*
X794280Y530885D01*
X834280D01*
X844780Y541385D01*
Y550885D01*
X760280Y480385D02*
X805280Y525385D01*
X835280D01*
X849280Y539385D01*
Y552385D01*
X769280Y480385D02*
X810280Y521385D01*
X836280D01*
X853280Y538385D01*
Y555885D01*
X788280Y480885D02*
Y492385D01*
X813280Y517385D01*
X838280D01*
X857280Y536385D01*
Y561885D01*
X848280Y570885D02*
X857280Y561885D01*
X797280Y480885D02*
Y493885D01*
X816280Y512885D01*
X841280D01*
X816280Y480885D02*
Y499885D01*
X824780Y508385D01*
X843780D01*
X839780Y555885D02*
X844780Y550885D01*
X839780Y555885D02*
X839780D01*
X833780Y567885D02*
X849280Y552385D01*
X825780Y567885D02*
X833780D01*
X845280Y563885D02*
X853280Y555885D01*
X844280Y563885D02*
X845280D01*
X838780Y570885D02*
X848280D01*
X842780Y575385D02*
X853780D01*
X841980Y581385D02*
X855780D01*
X973095Y705095D02*
Y715595D01*
X983000Y706000D02*
Y716000D01*
X992905Y704595D02*
Y716095D01*
X402278Y577385D02*
X402779Y576884D01*
X383280Y587885D02*
X400278D01*
X400279Y587884D01*
X1080780Y531885D02*
X1082780D01*
X1087280Y536385D01*
X1107780D01*
X382780Y592885D02*
X390780D01*
X1079780Y523885D02*
X1089780D01*
X1097280Y531385D01*
X1107780D01*
X382280Y598885D02*
X385280D01*
X1079780Y515885D02*
X1090780D01*
X1101280Y526385D01*
X1107780D01*
X382280Y606385D02*
X394280D01*
X1080280Y507885D02*
X1092780D01*
X1106280Y521385D01*
X1107780D01*
X1076280Y571385D02*
X1107780D01*
X403059Y552040D02*
X403435D01*
X424780Y573385D01*
Y599885D01*
X389780Y577385D02*
X402278D01*
X1080280Y561385D02*
X1107780D01*
X1073279Y568384D02*
X1076280Y571385D01*
X1073279Y565385D02*
Y568384D01*
X1065280Y565885D02*
Y574885D01*
X1071780Y581385D01*
X1107780D01*
X1053280Y577885D02*
X1066780Y591385D01*
X1053280Y563885D02*
Y577885D01*
X1066780Y591385D02*
X1107780D01*
X1039779Y565385D02*
Y578384D01*
X1062780Y601385D01*
X1107780D01*
X386040Y582885D02*
X392780D01*
X392620Y571885D02*
X393280D01*
X392160Y563885D02*
X393280D01*
X398185Y554290D02*
X403780Y559885D01*
X398185Y550980D02*
Y554290D01*
X917530Y352635D02*
Y360612D01*
X960780Y334885D02*
X986780D01*
X993780Y327885D01*
X950280Y345385D02*
X960780Y334885D01*
X917530Y352635D02*
X924780Y345385D01*
X950280D01*
X904830Y356335D02*
Y360612D01*
Y356335D02*
X915280Y345885D01*
X920280D01*
X923320Y342845D01*
X949228D01*
X964188Y327885D01*
X967780D01*
X360346Y584451D02*
X382280Y606385D01*
X362886Y579491D02*
X382280Y598885D01*
X365426Y575531D02*
X382780Y592885D01*
X367966Y572571D02*
X383280Y587885D01*
X372780Y569625D02*
X386040Y582885D01*
X372942Y555601D02*
Y559664D01*
X375482Y554549D02*
Y560716D01*
X372780Y563419D02*
X375482Y560716D01*
X376093Y563698D02*
X389780Y577385D01*
X376093Y563698D02*
Y563698D01*
Y563698D02*
X378022Y561768D01*
Y553497D02*
Y561768D01*
X380562Y552445D02*
Y559827D01*
X392620Y571885D01*
X383102Y554827D02*
X392160Y563885D01*
X383102Y551393D02*
Y554827D01*
X372780Y563419D02*
Y569625D01*
X360346Y567654D02*
Y584451D01*
X362886Y566602D02*
Y579491D01*
X367966Y564641D02*
Y572571D01*
Y564641D02*
X372942Y559664D01*
X365426Y565550D02*
Y575531D01*
X358095Y565403D02*
X360346Y567654D01*
X360635Y564351D02*
X362886Y566602D01*
X363175Y563299D02*
X365426Y565550D01*
X363175Y551966D02*
Y555558D01*
X363132Y555601D02*
X363175Y555558D01*
X363132Y555601D02*
Y559664D01*
X363175Y559707D01*
Y563299D01*
X360635Y560759D02*
Y564351D01*
X360592Y560716D02*
X360635Y560759D01*
X360592Y554549D02*
Y560716D01*
Y554549D02*
X360635Y554506D01*
Y550914D02*
Y554506D01*
X358095Y549862D02*
Y553454D01*
X358052Y553497D02*
X358095Y553454D01*
X358052Y553497D02*
Y561768D01*
X358095Y561811D01*
Y565403D01*
X360635Y550914D02*
X362886Y548663D01*
X358095Y549862D02*
X360346Y547611D01*
X408844Y441385D02*
X861280D01*
X407792Y438845D02*
X862648D01*
X406740Y436305D02*
X863700D01*
X405688Y433765D02*
X866160D01*
X404636Y431225D02*
X871120D01*
X403584Y428685D02*
X874175D01*
X402532Y426145D02*
X867020D01*
X401480Y423605D02*
X864336D01*
X400428Y421065D02*
X863284D01*
X399376Y418525D02*
X862232D01*
X398324Y415985D02*
X861180D01*
X361535Y536186D02*
Y546422D01*
X360346Y547611D02*
X361535Y546422D01*
X364075Y537238D02*
Y547474D01*
X371695Y540394D02*
Y550761D01*
X374235Y541446D02*
Y549709D01*
X376775Y542499D02*
X377505Y541768D01*
X376775Y542499D02*
Y548657D01*
X379315Y543551D02*
X380045Y542821D01*
X379315Y543551D02*
Y547605D01*
X385125Y537920D02*
X398185Y550980D01*
X387665Y536646D02*
X403059Y552040D01*
X366615Y538290D02*
Y548526D01*
X369155Y539342D02*
Y551814D01*
X382585Y545190D02*
X393280Y555885D01*
X382958Y431350D02*
X398324Y415985D01*
X380926Y431350D02*
X382958D01*
X384010Y433890D02*
X399376Y418525D01*
X381978Y433890D02*
X384010D01*
X385062Y436430D02*
X400428Y421065D01*
X383030Y436430D02*
X385062D01*
X386114Y438970D02*
X401480Y423605D01*
X384082Y438970D02*
X386114D01*
X387166Y441510D02*
X402532Y426145D01*
X385134Y441510D02*
X387166D01*
X388218Y444050D02*
X403584Y428685D01*
X386186Y444050D02*
X388218D01*
X389271Y446590D02*
X404636Y431225D01*
X387238Y446590D02*
X389271D01*
X390323Y449130D02*
X405688Y433765D01*
X388290Y449130D02*
X390323D01*
X391375Y451670D02*
X406740Y436305D01*
X389342Y451670D02*
X391375D01*
X392427Y454210D02*
X407792Y438845D01*
X368697Y443579D02*
X380926Y431350D01*
X368697Y443579D02*
X368697D01*
X369749Y446119D02*
X369749D01*
X381978Y433890D01*
X393479Y456750D02*
X408844Y441385D01*
X391447Y456750D02*
X393479D01*
X388146Y460051D02*
X391447Y456750D01*
X385606Y458999D02*
X390395Y454210D01*
X392427D01*
X383066Y457947D02*
X389342Y451670D01*
X380526Y456895D02*
X388290Y449130D01*
X377986Y455843D02*
X387238Y446590D01*
X377986Y455843D02*
Y481154D01*
X371854Y451199D02*
X384082Y438970D01*
X371854Y451199D02*
X371854D01*
X370802Y448659D02*
X383030Y436430D01*
X370802Y448659D02*
X370802D01*
X364075Y537238D02*
X364805Y536508D01*
X366615Y538290D02*
X367345Y537560D01*
X369155Y539342D02*
X369885Y538612D01*
X371695Y540394D02*
X372425Y539664D01*
X374235Y541446D02*
X374965Y540716D01*
X388146Y460051D02*
Y476945D01*
X394346Y483145D01*
Y495625D01*
X385606Y458999D02*
Y477997D01*
X391806Y484197D01*
Y494573D01*
X389266Y485249D02*
Y493521D01*
X383066Y479049D02*
X389266Y485249D01*
X383066Y457947D02*
Y479049D01*
X380526Y456895D02*
Y480102D01*
X386726Y486301D01*
Y492469D01*
X384186Y487354D02*
Y491417D01*
X377986Y481154D02*
X384186Y487354D01*
X387665Y502306D02*
X394346Y495625D01*
X387665Y502306D02*
Y536646D01*
X385125Y501254D02*
X391806Y494573D01*
X385125Y501254D02*
Y537920D01*
X382585Y500202D02*
Y545190D01*
Y500202D02*
X389266Y493521D01*
X380045Y499150D02*
X386726Y492469D01*
X380045Y499150D02*
Y542821D01*
X377505Y498098D02*
Y541768D01*
Y498098D02*
X384186Y491417D01*
X374965Y508431D02*
Y540716D01*
X374376Y455861D02*
Y494385D01*
Y455861D02*
X386186Y444050D01*
X372425Y509483D02*
Y539664D01*
X369885Y510535D02*
Y538612D01*
X367345Y511587D02*
Y537560D01*
X364805Y512639D02*
Y536508D01*
X362265Y513691D02*
Y535456D01*
X361535Y536186D02*
X362265Y535456D01*
X374235Y507701D02*
X374965Y508431D01*
X374235Y494526D02*
Y507701D01*
Y494526D02*
X374376Y494385D01*
X371445Y455200D02*
X385134Y441510D01*
X371445Y455200D02*
Y508503D01*
X372425Y509483D01*
X368905Y454147D02*
X371854Y451199D01*
X368905Y454147D02*
Y509555D01*
X369885Y510535D01*
X366365Y453095D02*
X370802Y448659D01*
X366365Y453095D02*
Y510607D01*
X367345Y511587D01*
X363825Y511659D02*
X364805Y512639D01*
X363825Y452043D02*
Y511659D01*
Y452043D02*
X369749Y446119D01*
X361285Y450991D02*
X368697Y443579D01*
X361285Y450991D02*
Y512711D01*
X362265Y513691D01*
X873280Y945875D02*
X879280D01*
X874780Y929280D02*
X887375D01*
X888280Y928375D01*
X875188Y951375D02*
X886780D01*
X861280Y941375D02*
X876780Y956875D01*
X879280D01*
X862232Y918515D02*
X876372Y904375D01*
X887780D01*
X861180Y915975D02*
X879780Y897375D01*
X882780D01*
X362886Y1048653D02*
Y1048653D01*
Y1048653D02*
X364075Y1047464D01*
X360346Y1047601D02*
Y1047601D01*
X363175Y1051956D02*
X366615Y1048516D01*
X376775Y1048647D02*
X380562Y1052435D01*
X374235Y1049699D02*
X378022Y1053487D01*
X371695Y1050751D02*
X375482Y1054539D01*
X369155Y1051804D02*
X372942Y1055591D01*
X379315Y1047595D02*
X383102Y1051383D01*
X843656Y1096375D02*
X849780D01*
X843501Y1096220D02*
X843656Y1096375D01*
X840059Y1096220D02*
X843501D01*
X839904Y1096375D02*
X840059Y1096220D01*
X822280Y1096375D02*
X839904D01*
X841780Y1100375D02*
X849280D01*
X850280Y1101375D01*
X825280Y982875D02*
X868280Y1025875D01*
Y1073375D01*
X855855Y1085800D02*
X868280Y1073375D01*
X837705Y1085800D02*
X855855D01*
X837280Y1085375D02*
X837705Y1085800D01*
X849780Y1096375D02*
X872780Y1073375D01*
X817780Y1091875D02*
X822280Y1096375D01*
X850280Y1101375D02*
X877780Y1073875D01*
Y1022875D02*
Y1073875D01*
X853280Y998375D02*
X877780Y1022875D01*
X851280Y1105875D02*
X882780Y1074375D01*
Y1001375D02*
Y1074375D01*
X872780Y1023875D02*
Y1073375D01*
X844280Y995375D02*
X872780Y1023875D01*
X825280Y980875D02*
Y982875D01*
X838280Y1105875D02*
X851280D01*
X841710Y1081645D02*
X841980Y1081375D01*
X842280Y1075875D02*
X842780Y1075375D01*
X837780Y1071875D02*
X838780Y1070875D01*
X855780Y1081375D02*
X864280Y1072875D01*
Y1028875D02*
Y1072875D01*
X843780Y1008375D02*
X864280Y1028875D01*
X853780Y1075375D02*
X860780Y1068375D01*
Y1032375D02*
Y1068375D01*
X841280Y1012875D02*
X860780Y1032375D01*
X844280Y980875D02*
Y995375D01*
X853280Y980875D02*
Y998375D01*
X870056Y917876D02*
X885280D01*
X864336Y923595D02*
X870056Y917876D01*
X874464Y909875D02*
X881780D01*
X863284Y921055D02*
X874464Y909875D01*
X741280Y980375D02*
X743780D01*
X862648Y938835D02*
X875188Y951375D01*
X863700Y936295D02*
X873280Y945875D01*
X866160Y933755D02*
X871780Y939375D01*
X886780D01*
X874280Y934375D02*
X880780D01*
X871120Y931215D02*
X874280Y934375D01*
X874175Y928675D02*
X874780Y929280D01*
X867020Y926135D02*
X868780Y924375D01*
X880780D01*
X269875Y865970D02*
X276535Y872630D01*
X269875Y858280D02*
X274280Y853875D01*
X269875Y858280D02*
Y865970D01*
X276535Y872630D02*
X292035D01*
X265280Y853875D02*
Y869875D01*
X270780Y875375D01*
X289280D01*
X293880Y879975D01*
X298180D01*
X292380Y884975D02*
X298180D01*
X285625Y878220D02*
X292380Y884975D01*
X272435Y878220D02*
X285625D01*
X269780Y880875D02*
X272435Y878220D01*
X269780Y880875D02*
Y882875D01*
X294380Y874975D02*
X298180D01*
X292035Y872630D02*
X294380Y874975D01*
X1107780Y1111375D02*
X1113780D01*
X1115780Y1113375D01*
Y1118375D01*
X1111780Y1122375D02*
X1115780Y1118375D01*
X1103280Y1122375D02*
X1111780D01*
X1085780Y1139875D02*
X1103280Y1122375D01*
X1083780Y1139875D02*
X1085780D01*
X1083780Y1121875D02*
Y1130875D01*
X1080280Y1051375D02*
X1107780D01*
X1080280Y1041375D02*
X1107780D01*
X745280Y1147875D02*
X745780Y1148375D01*
X743780Y980375D02*
X794280Y1030875D01*
X834280D01*
X844780Y1041375D01*
Y1050875D01*
X760280Y980375D02*
X805280Y1025375D01*
X835280D01*
X849280Y1039375D01*
Y1052375D01*
X769280Y980375D02*
X810280Y1021375D01*
X836280D01*
X853280Y1038375D01*
Y1055875D01*
X788280Y980875D02*
Y992375D01*
X813280Y1017375D01*
X838280D01*
X857280Y1036375D01*
Y1061875D01*
X848280Y1070875D02*
X857280Y1061875D01*
X797280Y980875D02*
Y993875D01*
X816280Y1012875D01*
X841280D01*
X816280Y980875D02*
Y999875D01*
X824780Y1008375D01*
X843780D01*
X839780Y1055875D02*
X844780Y1050875D01*
X839780Y1055875D02*
X839780D01*
X833780Y1067875D02*
X849280Y1052375D01*
X825780Y1067875D02*
X833780D01*
X845280Y1063875D02*
X853280Y1055875D01*
X844280Y1063875D02*
X845280D01*
X838780Y1070875D02*
X848280D01*
X842780Y1075375D02*
X853780D01*
X841980Y1081375D02*
X855780D01*
X973095Y1205085D02*
Y1215585D01*
X983000Y1205990D02*
Y1215990D01*
X992905Y1204585D02*
Y1216085D01*
X402278Y1077375D02*
X402779Y1076874D01*
X383280Y1087875D02*
X400278D01*
X400279Y1087874D01*
X1080780Y1031875D02*
X1082780D01*
X1087280Y1036375D01*
X1107780D01*
X382780Y1092875D02*
X390780D01*
X1079780Y1023875D02*
X1089780D01*
X1097280Y1031375D01*
X1107780D01*
X382280Y1098875D02*
X385280D01*
X1079780Y1015875D02*
X1090780D01*
X1101280Y1026375D01*
X1107780D01*
X382280Y1106375D02*
X394280D01*
X1080280Y1007875D02*
X1092780D01*
X1106280Y1021375D01*
X1107780D01*
X1076280Y1071375D02*
X1107780D01*
X403059Y1052030D02*
X403435D01*
X424780Y1073375D01*
Y1099875D01*
X389780Y1077375D02*
X402278D01*
X1080280Y1061375D02*
X1107780D01*
X1073279Y1068374D02*
X1076280Y1071375D01*
X1073279Y1065375D02*
Y1068374D01*
X1065280Y1065875D02*
Y1074875D01*
X1071780Y1081375D01*
X1107780D01*
X1053280Y1077875D02*
X1066780Y1091375D01*
X1053280Y1063875D02*
Y1077875D01*
X1066780Y1091375D02*
X1107780D01*
X1039779Y1065375D02*
Y1078374D01*
X1062780Y1101375D01*
X1107780D01*
X386040Y1082875D02*
X392780D01*
X392620Y1071875D02*
X393280D01*
X392160Y1063875D02*
X393280D01*
X398185Y1054280D02*
X403780Y1059875D01*
X398185Y1050970D02*
Y1054280D01*
X917530Y852625D02*
Y860602D01*
X960780Y834875D02*
X986780D01*
X993780Y827875D01*
X950280Y845375D02*
X960780Y834875D01*
X917530Y852625D02*
X924780Y845375D01*
X950280D01*
X904830Y856325D02*
Y860602D01*
Y856325D02*
X915280Y845875D01*
X920280D01*
X923320Y842835D01*
X949228D01*
X964188Y827875D01*
X967780D01*
X360346Y1084441D02*
X382280Y1106375D01*
X362886Y1079481D02*
X382280Y1098875D01*
X365426Y1075521D02*
X382780Y1092875D01*
X367966Y1072561D02*
X383280Y1087875D01*
X372780Y1069615D02*
X386040Y1082875D01*
X372942Y1055591D02*
Y1059654D01*
X375482Y1054539D02*
Y1060706D01*
X372780Y1063409D02*
X375482Y1060706D01*
X376093Y1063688D02*
X389780Y1077375D01*
X376093Y1063688D02*
Y1063688D01*
Y1063688D02*
X378022Y1061758D01*
Y1053487D02*
Y1061758D01*
X380562Y1052435D02*
Y1059817D01*
X392620Y1071875D01*
X383102Y1054817D02*
X392160Y1063875D01*
X383102Y1051383D02*
Y1054817D01*
X372780Y1063409D02*
Y1069615D01*
X360346Y1067644D02*
Y1084441D01*
X362886Y1066592D02*
Y1079481D01*
X367966Y1064631D02*
Y1072561D01*
Y1064631D02*
X372942Y1059654D01*
X365426Y1065540D02*
Y1075521D01*
X358095Y1065393D02*
X360346Y1067644D01*
X360635Y1064341D02*
X362886Y1066592D01*
X363175Y1063289D02*
X365426Y1065540D01*
X363175Y1051956D02*
Y1055548D01*
X363132Y1055591D02*
X363175Y1055548D01*
X363132Y1055591D02*
Y1059654D01*
X363175Y1059697D01*
Y1063289D01*
X360635Y1060749D02*
Y1064341D01*
X360592Y1060706D02*
X360635Y1060749D01*
X360592Y1054539D02*
Y1060706D01*
Y1054539D02*
X360635Y1054496D01*
Y1050904D02*
Y1054496D01*
X358095Y1049852D02*
Y1053444D01*
X358052Y1053487D02*
X358095Y1053444D01*
X358052Y1053487D02*
Y1061758D01*
X358095Y1061801D01*
Y1065393D01*
X360635Y1050904D02*
X362886Y1048653D01*
X358095Y1049852D02*
X360346Y1047601D01*
X408844Y941375D02*
X861280D01*
X407792Y938835D02*
X862648D01*
X406740Y936295D02*
X863700D01*
X405688Y933755D02*
X866160D01*
X404636Y931215D02*
X871120D01*
X403584Y928675D02*
X874175D01*
X402532Y926135D02*
X867020D01*
X401480Y923595D02*
X864336D01*
X400428Y921055D02*
X863284D01*
X399376Y918515D02*
X862232D01*
X398324Y915975D02*
X861180D01*
X361535Y1036176D02*
Y1046412D01*
X360346Y1047601D02*
X361535Y1046412D01*
X364075Y1037228D02*
Y1047464D01*
X371695Y1040384D02*
Y1050751D01*
X374235Y1041436D02*
Y1049699D01*
X376775Y1042488D02*
X377505Y1041758D01*
X376775Y1042488D02*
Y1048647D01*
X379315Y1043540D02*
X380045Y1042811D01*
X379315Y1043540D02*
Y1047595D01*
X385125Y1037910D02*
X398185Y1050970D01*
X387665Y1036636D02*
X403059Y1052030D01*
X366615Y1038280D02*
Y1048516D01*
X369155Y1039332D02*
Y1051804D01*
X382585Y1045180D02*
X393280Y1055875D01*
X382958Y931340D02*
X398324Y915975D01*
X380926Y931340D02*
X382958D01*
X384010Y933880D02*
X399376Y918515D01*
X381978Y933880D02*
X384010D01*
X385062Y936420D02*
X400428Y921055D01*
X383030Y936420D02*
X385062D01*
X386114Y938960D02*
X401480Y923595D01*
X384082Y938960D02*
X386114D01*
X387166Y941500D02*
X402532Y926135D01*
X385134Y941500D02*
X387166D01*
X388218Y944040D02*
X403584Y928675D01*
X386186Y944040D02*
X388218D01*
X389271Y946580D02*
X404636Y931215D01*
X387238Y946580D02*
X389271D01*
X390323Y949120D02*
X405688Y933755D01*
X388290Y949120D02*
X390323D01*
X391375Y951660D02*
X406740Y936295D01*
X389342Y951660D02*
X391375D01*
X392427Y954200D02*
X407792Y938835D01*
X368697Y943569D02*
X380926Y931340D01*
X368697Y943569D02*
X368697D01*
X369749Y946109D02*
X369749D01*
X381978Y933880D01*
X393479Y956740D02*
X408844Y941375D01*
X391447Y956740D02*
X393479D01*
X388146Y960041D02*
X391447Y956740D01*
X385606Y958989D02*
X390395Y954200D01*
X392427D01*
X383066Y957937D02*
X389342Y951660D01*
X380526Y956885D02*
X388290Y949120D01*
X377986Y955833D02*
X387238Y946580D01*
X377986Y955833D02*
Y981144D01*
X371854Y951189D02*
X384082Y938960D01*
X371854Y951189D02*
X371854D01*
X370802Y948649D02*
X383030Y936420D01*
X370802Y948649D02*
X370802D01*
X364075Y1037228D02*
X364805Y1036498D01*
X366615Y1038280D02*
X367345Y1037550D01*
X369155Y1039332D02*
X369885Y1038602D01*
X371695Y1040384D02*
X372425Y1039654D01*
X374235Y1041436D02*
X374965Y1040706D01*
X388146Y960041D02*
Y976935D01*
X394346Y983135D01*
Y995615D01*
X385606Y958989D02*
Y977987D01*
X391806Y984187D01*
Y994563D01*
X389266Y985239D02*
Y993511D01*
X383066Y979039D02*
X389266Y985239D01*
X383066Y957937D02*
Y979039D01*
X380526Y956885D02*
Y980091D01*
X386726Y986292D01*
Y992459D01*
X384186Y987344D02*
Y991407D01*
X377986Y981144D02*
X384186Y987344D01*
X387665Y1002296D02*
X394346Y995615D01*
X387665Y1002296D02*
Y1036636D01*
X385125Y1001244D02*
X391806Y994563D01*
X385125Y1001244D02*
Y1037910D01*
X382585Y1000192D02*
Y1045180D01*
Y1000192D02*
X389266Y993511D01*
X380045Y999140D02*
X386726Y992459D01*
X380045Y999140D02*
Y1042811D01*
X377505Y998088D02*
Y1041758D01*
Y998088D02*
X384186Y991407D01*
X374965Y1008421D02*
Y1040706D01*
X374376Y955851D02*
Y994375D01*
Y955851D02*
X386186Y944040D01*
X372425Y1009473D02*
Y1039654D01*
X369885Y1010525D02*
Y1038602D01*
X367345Y1011577D02*
Y1037550D01*
X364805Y1012629D02*
Y1036498D01*
X362265Y1013681D02*
Y1035446D01*
X361535Y1036176D02*
X362265Y1035446D01*
X374235Y1007691D02*
X374965Y1008421D01*
X374235Y994516D02*
Y1007691D01*
Y994516D02*
X374376Y994375D01*
X371445Y955190D02*
X385134Y941500D01*
X371445Y955190D02*
Y1008493D01*
X372425Y1009473D01*
X368905Y954137D02*
X371854Y951189D01*
X368905Y954137D02*
Y1009545D01*
X369885Y1010525D01*
X366365Y953085D02*
X370802Y948649D01*
X366365Y953085D02*
Y1010597D01*
X367345Y1011577D01*
X363825Y1011649D02*
X364805Y1012629D01*
X363825Y952033D02*
Y1011649D01*
Y952033D02*
X369749Y946109D01*
X361285Y950981D02*
X368697Y943569D01*
X361285Y950981D02*
Y1012701D01*
X362265Y1013681D01*
D11*
X278780Y382885D02*
D03*
Y391885D02*
D03*
X269780Y382885D02*
D03*
Y391885D02*
D03*
X265280Y353885D02*
D03*
Y344885D02*
D03*
X274280Y353885D02*
D03*
Y344885D02*
D03*
X1101780Y412885D02*
D03*
Y421885D02*
D03*
X1028780Y420385D02*
D03*
Y411385D02*
D03*
X1037780Y420385D02*
D03*
Y411385D02*
D03*
X1042780Y399385D02*
D03*
Y390385D02*
D03*
X988780Y562885D02*
D03*
Y571885D02*
D03*
X978280Y562885D02*
D03*
Y571885D02*
D03*
X956280Y562885D02*
D03*
Y571885D02*
D03*
X1000280Y562885D02*
D03*
Y571885D02*
D03*
X922780Y562885D02*
D03*
Y571885D02*
D03*
X934280Y562885D02*
D03*
Y571885D02*
D03*
X327280Y550385D02*
D03*
Y541385D02*
D03*
Y559885D02*
D03*
Y568885D02*
D03*
X269280Y551385D02*
D03*
Y542385D02*
D03*
Y569385D02*
D03*
Y560385D02*
D03*
X1018780Y495385D02*
D03*
Y504385D02*
D03*
X1156280Y367385D02*
D03*
Y376385D02*
D03*
X278780Y882875D02*
D03*
Y891875D02*
D03*
X269780Y882875D02*
D03*
Y891875D02*
D03*
X265280Y853875D02*
D03*
Y844875D02*
D03*
X274280Y853875D02*
D03*
Y844875D02*
D03*
X1101780Y912875D02*
D03*
Y921875D02*
D03*
X1028780Y920375D02*
D03*
Y911375D02*
D03*
X1037780Y920375D02*
D03*
Y911375D02*
D03*
X1042780Y899375D02*
D03*
Y890375D02*
D03*
X988780Y1062875D02*
D03*
Y1071875D02*
D03*
X978280Y1062875D02*
D03*
Y1071875D02*
D03*
X956280Y1062875D02*
D03*
Y1071875D02*
D03*
X1000280Y1062875D02*
D03*
Y1071875D02*
D03*
X922780Y1062875D02*
D03*
Y1071875D02*
D03*
X934280Y1062875D02*
D03*
Y1071875D02*
D03*
X327280Y1050375D02*
D03*
Y1041375D02*
D03*
Y1059875D02*
D03*
Y1068875D02*
D03*
X269280Y1051375D02*
D03*
Y1042375D02*
D03*
Y1069375D02*
D03*
Y1060375D02*
D03*
X1018780Y995375D02*
D03*
Y1004375D02*
D03*
X1156280Y867375D02*
D03*
Y876375D02*
D03*
D12*
X350280Y393885D02*
D03*
X359280D02*
D03*
X748780Y607885D02*
D03*
X757780D02*
D03*
X411280Y547885D02*
D03*
X420280D02*
D03*
X489280Y592885D02*
D03*
X498280D02*
D03*
X509780Y593885D02*
D03*
X518780D02*
D03*
X456280Y592885D02*
D03*
X447280D02*
D03*
X456280Y623885D02*
D03*
X465280D02*
D03*
X479780D02*
D03*
X488780D02*
D03*
X432380Y583885D02*
D03*
X441380D02*
D03*
X456280Y607885D02*
D03*
X465280D02*
D03*
X480280D02*
D03*
X489280D02*
D03*
X744280Y591885D02*
D03*
X753280D02*
D03*
X795280D02*
D03*
X786280D02*
D03*
X777280Y623885D02*
D03*
X786280D02*
D03*
X752280D02*
D03*
X761280D02*
D03*
X796280Y600885D02*
D03*
X805280D02*
D03*
X1153280Y356885D02*
D03*
X1144280D02*
D03*
X1155280Y281385D02*
D03*
X1146280D02*
D03*
X350280Y893875D02*
D03*
X359280D02*
D03*
X748780Y1107875D02*
D03*
X757780D02*
D03*
X411280Y1047875D02*
D03*
X420280D02*
D03*
X489280Y1092875D02*
D03*
X498280D02*
D03*
X509780Y1093875D02*
D03*
X518780D02*
D03*
X456280Y1092875D02*
D03*
X447280D02*
D03*
X456280Y1123875D02*
D03*
X465280D02*
D03*
X479780D02*
D03*
X488780D02*
D03*
X432380Y1083875D02*
D03*
X441380D02*
D03*
X456280Y1107875D02*
D03*
X465280D02*
D03*
X480280D02*
D03*
X489280D02*
D03*
X744280Y1091875D02*
D03*
X753280D02*
D03*
X795280D02*
D03*
X786280D02*
D03*
X777280Y1123875D02*
D03*
X786280D02*
D03*
X752280D02*
D03*
X761280D02*
D03*
X796280Y1100875D02*
D03*
X805280D02*
D03*
X1153280Y856875D02*
D03*
X1144280D02*
D03*
X1155280Y781375D02*
D03*
X1146280D02*
D03*
D13*
X963780Y384885D02*
D03*
Y393885D02*
D03*
X1012280Y574885D02*
D03*
Y565885D02*
D03*
X530780Y550385D02*
D03*
Y559385D02*
D03*
X424780Y639385D02*
D03*
Y648385D02*
D03*
X414780Y666385D02*
D03*
Y657385D02*
D03*
X530780Y666385D02*
D03*
Y657385D02*
D03*
X449780Y639385D02*
D03*
Y648385D02*
D03*
X472780Y632385D02*
D03*
Y641385D02*
D03*
X495780Y639385D02*
D03*
Y648385D02*
D03*
X459780Y567385D02*
D03*
Y576385D02*
D03*
X477780Y591385D02*
D03*
Y582385D02*
D03*
X449780Y567385D02*
D03*
Y576385D02*
D03*
X495780Y567385D02*
D03*
Y576385D02*
D03*
X467780Y582385D02*
D03*
Y591385D02*
D03*
X530780Y576385D02*
D03*
Y567385D02*
D03*
X521780Y576385D02*
D03*
Y567385D02*
D03*
X721780Y639385D02*
D03*
Y648385D02*
D03*
Y567385D02*
D03*
Y576385D02*
D03*
X711780Y550385D02*
D03*
Y559385D02*
D03*
X827780D02*
D03*
Y550385D02*
D03*
Y658385D02*
D03*
Y667385D02*
D03*
X711780D02*
D03*
Y658385D02*
D03*
X754780Y648385D02*
D03*
Y639385D02*
D03*
X793780Y648385D02*
D03*
Y639385D02*
D03*
X745780Y648385D02*
D03*
Y639385D02*
D03*
X769780Y631385D02*
D03*
Y640385D02*
D03*
X755780Y565385D02*
D03*
Y574385D02*
D03*
X792780Y567385D02*
D03*
Y576385D02*
D03*
X762780Y591385D02*
D03*
Y582385D02*
D03*
X776780Y591385D02*
D03*
Y582385D02*
D03*
X746780Y574385D02*
D03*
Y565385D02*
D03*
X818780Y576385D02*
D03*
Y567385D02*
D03*
X829780Y576385D02*
D03*
Y585385D02*
D03*
X883780Y713885D02*
D03*
Y722885D02*
D03*
X963780Y884875D02*
D03*
Y893875D02*
D03*
X1012280Y1074875D02*
D03*
Y1065875D02*
D03*
X530780Y1050375D02*
D03*
Y1059375D02*
D03*
X424780Y1139375D02*
D03*
Y1148375D02*
D03*
X414780Y1166375D02*
D03*
Y1157375D02*
D03*
X530780Y1166375D02*
D03*
Y1157375D02*
D03*
X449780Y1139375D02*
D03*
Y1148375D02*
D03*
X472780Y1132375D02*
D03*
Y1141375D02*
D03*
X495780Y1139375D02*
D03*
Y1148375D02*
D03*
X459780Y1067375D02*
D03*
Y1076375D02*
D03*
X477780Y1091375D02*
D03*
Y1082375D02*
D03*
X449780Y1067375D02*
D03*
Y1076375D02*
D03*
X495780Y1067375D02*
D03*
Y1076375D02*
D03*
X467780Y1082375D02*
D03*
Y1091375D02*
D03*
X530780Y1076375D02*
D03*
Y1067375D02*
D03*
X521780Y1076375D02*
D03*
Y1067375D02*
D03*
X721780Y1139375D02*
D03*
Y1148375D02*
D03*
Y1067375D02*
D03*
Y1076375D02*
D03*
X711780Y1050375D02*
D03*
Y1059375D02*
D03*
X827780D02*
D03*
Y1050375D02*
D03*
Y1158375D02*
D03*
Y1167375D02*
D03*
X711780D02*
D03*
Y1158375D02*
D03*
X754780Y1148375D02*
D03*
Y1139375D02*
D03*
X793780Y1148375D02*
D03*
Y1139375D02*
D03*
X745780Y1148375D02*
D03*
Y1139375D02*
D03*
X769780Y1131375D02*
D03*
Y1140375D02*
D03*
X755780Y1065375D02*
D03*
Y1074375D02*
D03*
X792780Y1067375D02*
D03*
Y1076375D02*
D03*
X762780Y1091375D02*
D03*
Y1082375D02*
D03*
X776780Y1091375D02*
D03*
Y1082375D02*
D03*
X746780Y1074375D02*
D03*
Y1065375D02*
D03*
X818780Y1076375D02*
D03*
Y1067375D02*
D03*
X829780Y1076375D02*
D03*
Y1085375D02*
D03*
X883780Y1213875D02*
D03*
Y1222875D02*
D03*
D23*
X613780Y676885D02*
D03*
X604780D02*
D03*
X613780Y686385D02*
D03*
X604780D02*
D03*
X315780Y336385D02*
D03*
X324780D02*
D03*
X1083780Y630885D02*
D03*
X1074780D02*
D03*
X1083780Y639885D02*
D03*
X1074780D02*
D03*
X735280Y691885D02*
D03*
X726280D02*
D03*
X1074780Y621885D02*
D03*
X1083780D02*
D03*
X1074780Y613385D02*
D03*
X1083780D02*
D03*
X861780Y738885D02*
D03*
X852780D02*
D03*
X324780Y327385D02*
D03*
X315780D02*
D03*
X613780Y1176875D02*
D03*
X604780D02*
D03*
X613780Y1186375D02*
D03*
X604780D02*
D03*
X315780Y836375D02*
D03*
X324780D02*
D03*
X1083780Y1130875D02*
D03*
X1074780D02*
D03*
X1083780Y1139875D02*
D03*
X1074780D02*
D03*
X735280Y1191875D02*
D03*
X726280D02*
D03*
X1074780Y1121875D02*
D03*
X1083780D02*
D03*
X1074780Y1113375D02*
D03*
X1083780D02*
D03*
X861780Y1238875D02*
D03*
X852780D02*
D03*
X324780Y827375D02*
D03*
X315780D02*
D03*
D26*
X298280Y555385D02*
D03*
Y1055375D02*
D03*
D27*
X283030Y564885D02*
D03*
Y555385D02*
D03*
Y545885D02*
D03*
X313530D02*
D03*
Y555385D02*
D03*
Y564885D02*
D03*
X283030Y1064875D02*
D03*
Y1055375D02*
D03*
Y1045875D02*
D03*
X313530D02*
D03*
Y1055375D02*
D03*
Y1064875D02*
D03*
D28*
X511780Y606385D02*
D03*
X524280D02*
D03*
X799530Y615885D02*
D03*
X812030D02*
D03*
X304530Y528885D02*
D03*
X292030D02*
D03*
X304530Y582385D02*
D03*
X292030D02*
D03*
X1144280Y292385D02*
D03*
X1156780D02*
D03*
X511780Y1106375D02*
D03*
X524280D02*
D03*
X799530Y1115875D02*
D03*
X812030D02*
D03*
X304530Y1028875D02*
D03*
X292030D02*
D03*
X304530Y1082375D02*
D03*
X292030D02*
D03*
X1144280Y792375D02*
D03*
X1156780D02*
D03*
D29*
X1108780Y373635D02*
D03*
Y361135D02*
D03*
X1123780Y373635D02*
D03*
Y361135D02*
D03*
X967780Y560135D02*
D03*
Y572635D02*
D03*
X828280Y719635D02*
D03*
Y707135D02*
D03*
X1115780Y346135D02*
D03*
Y333635D02*
D03*
X1108780Y873625D02*
D03*
Y861125D02*
D03*
X1123780Y873625D02*
D03*
Y861125D02*
D03*
X967780Y1060125D02*
D03*
Y1072625D02*
D03*
X828280Y1219625D02*
D03*
Y1207125D02*
D03*
X1115780Y846125D02*
D03*
Y833625D02*
D03*
D37*
X1160780Y472885D02*
D03*
Y398385D02*
D03*
X281280Y512385D02*
D03*
Y412885D02*
D03*
X1160780Y972875D02*
D03*
Y898375D02*
D03*
X281280Y1012375D02*
D03*
Y912875D02*
D03*
D38*
X1128780Y416885D02*
D03*
Y429385D02*
D03*
Y441885D02*
D03*
Y454385D02*
D03*
X313280Y493885D02*
D03*
Y481385D02*
D03*
Y431385D02*
D03*
Y443885D02*
D03*
Y456385D02*
D03*
Y468885D02*
D03*
X1128780Y916875D02*
D03*
Y929375D02*
D03*
Y941875D02*
D03*
Y954375D02*
D03*
X313280Y993875D02*
D03*
Y981375D02*
D03*
Y931375D02*
D03*
Y943875D02*
D03*
Y956375D02*
D03*
Y968875D02*
D03*
D39*
X1066530Y453385D02*
D03*
X1094030D02*
D03*
X1066530Y953375D02*
D03*
X1094030D02*
D03*
D40*
X471534Y615385D02*
X472780D01*
X474026D01*
X793280Y567885D02*
X793780Y567385D01*
X474780Y597885D02*
X477780Y594885D01*
X467780Y594885D02*
X470780Y597885D01*
X459780Y576385D02*
Y580885D01*
X456780Y583885D02*
X459780Y580885D01*
X709280Y674385D02*
X710280D01*
X702280Y667385D02*
X709280Y674385D01*
X530780Y550385D02*
X538280D01*
X794934Y568538D02*
X800933D01*
X793780Y567385D02*
X794934Y568538D01*
X792780Y567385D02*
X793280Y567885D01*
X801280Y576385D02*
X801780Y575885D01*
X792780Y576385D02*
X801280D01*
X835780Y590385D02*
X843780D01*
X835280Y590885D02*
X835780Y590385D01*
X1017279Y574885D02*
X1017279Y574885D01*
X1012280Y574885D02*
X1017279D01*
X1034259Y558906D02*
Y567672D01*
Y558906D02*
X1046780Y546385D01*
X1036624Y570037D02*
Y580729D01*
X1034259Y567672D02*
X1036624Y570037D01*
X1046780Y496385D02*
Y517385D01*
X1045780Y495385D02*
X1046780Y496385D01*
X1058280Y495385D02*
Y523885D01*
X321780Y559885D02*
X327280D01*
X317280Y555385D02*
X321780Y559885D01*
X313530Y555385D02*
X317280D01*
X283030Y537885D02*
Y545885D01*
Y537885D02*
X292030Y528885D01*
X1093780Y546385D02*
X1107779D01*
X1107780Y546385D01*
X1107780Y546385D01*
X1093780Y566385D02*
X1107780D01*
X1093780Y576385D02*
X1107780D01*
X1041780Y528385D02*
X1053780D01*
X1037280Y523885D02*
X1041780Y528385D01*
X1037280Y517385D02*
Y523885D01*
X456280Y623885D02*
X456780Y623385D01*
X488780Y615885D02*
Y623885D01*
X465280Y616385D02*
Y623885D01*
X479780Y616885D02*
Y623885D01*
Y616885D02*
X480780Y615885D01*
X424780Y639385D02*
X432280D01*
X432780Y639885D01*
X424780Y648385D02*
X432280D01*
X432780Y647885D01*
X414780Y657385D02*
X423280D01*
X424780Y655885D01*
X406280Y666385D02*
X414780D01*
X404780Y667885D02*
X406280Y666385D01*
X530780D02*
X539280D01*
X522280Y657385D02*
X530780D01*
X520780Y655885D02*
X522280Y657385D01*
X521280Y559385D02*
X530780D01*
X520780Y559885D02*
X521280Y559385D01*
X420280Y548885D02*
X424780Y553385D01*
Y559885D01*
X432780Y575885D02*
Y583485D01*
X432380Y583885D02*
X432780Y583485D01*
X441380Y576485D02*
Y583885D01*
X440780Y575885D02*
X441380Y576485D01*
X489280Y592885D02*
Y599385D01*
X498280Y585385D02*
Y592885D01*
X447280Y585385D02*
Y592885D01*
Y585385D02*
X448780Y583885D01*
X456280Y592885D02*
Y599385D01*
X456780Y599885D01*
X440780Y567885D02*
X449280D01*
X449780Y567385D01*
X459780D01*
X495780D02*
X504280D01*
X504780Y567885D01*
X495780Y576385D02*
X504280D01*
X440780Y575885D02*
X449280D01*
X449780Y576385D01*
X459780D01*
X467780Y591385D02*
Y594885D01*
X477780Y591385D02*
Y594885D01*
X467780Y580885D02*
Y582385D01*
Y580885D02*
X472780Y575885D01*
X477780Y580885D02*
Y582385D01*
X472780Y575885D02*
X477780Y580885D01*
X472780Y615885D02*
Y632385D01*
Y641385D02*
Y647885D01*
X513280Y576385D02*
X521780D01*
X512780Y575885D02*
X513280Y576385D01*
X512780Y567885D02*
X521280D01*
X521780Y567385D01*
Y576385D02*
X530780D01*
X521780Y567385D02*
X530780D01*
X769780Y615885D02*
Y631385D01*
Y640385D02*
Y647885D01*
X702280Y667385D02*
X711780D01*
Y658385D02*
X719280D01*
X721780Y655885D01*
Y648385D02*
X729280D01*
X729780Y647885D01*
X721780Y639385D02*
X729280D01*
X729780Y639885D01*
X737780D02*
X745280D01*
X745780Y639385D01*
X737780Y647885D02*
X745280D01*
X745780Y648385D02*
X754780D01*
X745780Y639385D02*
X754780D01*
X752280Y617385D02*
Y623885D01*
Y617385D02*
X753780Y615885D01*
X761280Y623885D02*
Y631385D01*
X761780Y631885D01*
X762780Y591385D02*
Y592885D01*
X769780Y599885D01*
X776780Y591385D02*
Y592885D01*
X769780Y599885D02*
X776780Y592885D01*
X762780Y582385D02*
X769280Y575885D01*
X769780D01*
X770280D02*
X776780Y582385D01*
X769780Y575885D02*
X770280D01*
X753280Y591885D02*
Y599385D01*
X753780Y599885D01*
X744280Y585385D02*
Y591885D01*
Y585385D02*
X745780Y583885D01*
X737780Y567885D02*
X740280Y565385D01*
X746780D01*
X755780D01*
X746780Y574385D02*
X755780D01*
X739280D02*
X746780D01*
X737780Y575885D02*
X739280Y574385D01*
X721780Y567385D02*
X729280D01*
X729780Y567885D01*
X721780Y576385D02*
X729280D01*
X729780Y575885D01*
X711780Y559385D02*
X721280D01*
X721780Y559885D01*
X795280Y585385D02*
Y591885D01*
X793780Y583885D02*
X795280Y585385D01*
X786280Y591885D02*
Y599385D01*
X785780Y599885D02*
X786280Y599385D01*
X809780Y575885D02*
X818280D01*
X818780Y576385D01*
X829780D01*
X829780Y576385D01*
X809780Y567885D02*
X818280D01*
X818780Y567385D01*
X817780Y559885D02*
X827280D01*
X827780Y559385D01*
X834780Y547885D02*
X837780D01*
X832280Y550385D02*
X834780Y547885D01*
X827780Y550385D02*
X832280D01*
X786280Y616385D02*
Y623885D01*
X793780Y639385D02*
X801280D01*
X801780Y639885D01*
X793780Y648385D02*
X801280D01*
X801780Y647885D01*
X817780Y655885D02*
X825280D01*
X827780Y658385D01*
Y667385D02*
X837280D01*
X837780Y667885D01*
X472780Y615385D02*
Y615885D01*
X448780Y607885D02*
X456280D01*
X829780Y585385D02*
X835280Y590885D01*
X992150Y680850D02*
X1012944D01*
X1029350Y664444D01*
Y628556D02*
Y664444D01*
X1015944Y615150D02*
X1029350Y628556D01*
X983650Y615150D02*
X1015944D01*
X988000Y685000D02*
X992150Y680850D01*
X988000Y685000D02*
Y710000D01*
X1070780Y399885D02*
X1075780D01*
X1065780D02*
X1070780D01*
X1053780Y528385D02*
X1058280Y523885D01*
X1093780Y556385D02*
X1107780D01*
X1046780Y546385D02*
X1059760Y559365D01*
Y576365D01*
X1069780Y586385D01*
X1107780D01*
X1046780Y546385D02*
Y579385D01*
X1063780Y596385D01*
X1107780D01*
X1062280Y606385D02*
X1107780D01*
X1036624Y580729D02*
X1062280Y606385D01*
X967000Y573415D02*
X967780Y572635D01*
X967000Y573415D02*
Y589000D01*
Y598500D01*
X973780Y605280D01*
X983650Y615150D01*
X878286Y708391D02*
X883780Y713885D01*
X870775Y708391D02*
X878286D01*
X828280Y707135D02*
X842518D01*
X843775Y708391D01*
X828280Y719635D02*
X830024Y717891D01*
X843775D01*
X1153280Y350385D02*
Y356885D01*
Y350385D02*
X1155273Y348392D01*
Y339881D02*
Y348392D01*
X785780Y599885D02*
X795280D01*
X796280Y600885D01*
X799530Y609635D02*
Y615885D01*
X796280Y606385D02*
X799530Y609635D01*
X796280Y600885D02*
Y606385D01*
X511780Y600885D02*
Y606385D01*
X509780Y598885D02*
X511780Y600885D01*
X509780Y593885D02*
Y594885D01*
X504780Y599885D02*
X509780Y594885D01*
Y598885D01*
X292030Y576635D02*
X295780Y572885D01*
X306280D01*
X292030Y524136D02*
Y528885D01*
X480280Y607885D02*
Y609131D01*
X474026Y615385D02*
X480280Y609131D01*
X465280Y607885D02*
Y609131D01*
X471534Y615385D01*
X432380Y583885D02*
Y594485D01*
X437780Y599885D01*
X456780D01*
X437780D02*
Y611885D01*
X441780Y615885D01*
X507780D02*
X511780Y611885D01*
Y606385D02*
Y611885D01*
X539280Y666385D02*
X540780Y667885D01*
X298180Y389985D02*
Y392785D01*
X302280Y396885D01*
X302780D01*
X298280Y555385D02*
X313530D01*
X785780Y615885D02*
X786280Y616385D01*
X292030Y576635D02*
Y582385D01*
X283030Y564885D02*
Y567635D01*
X292030Y576635D01*
X828280Y719635D02*
Y728885D01*
X830280Y730885D01*
X844280Y744885D01*
X859280D01*
X861780Y742385D01*
Y738885D02*
Y742385D01*
X1145905Y329385D02*
X1155273Y338753D01*
Y339881D01*
X1124780Y329385D02*
X1145905D01*
X1115780Y333635D02*
X1120530D01*
X1124780Y329385D01*
X1153280Y356885D02*
X1156280Y359885D01*
Y367385D01*
X292030Y524136D02*
X299781Y516385D01*
X408780Y546885D02*
X409780Y547885D01*
X405781Y546885D02*
X408780D01*
X441780Y615885D02*
X456780D01*
Y623385D01*
X464780Y615885D02*
X465280Y616385D01*
X488780Y615885D02*
X507780D01*
X882280Y739885D02*
X883780Y738385D01*
Y722885D02*
Y738385D01*
X504280Y576385D02*
X504780Y575885D01*
X496780Y583885D02*
X498280Y585385D01*
X489280Y607885D02*
X496780D01*
X488780Y599885D02*
X489280Y599385D01*
X488780Y599885D02*
X504780D01*
X470780Y597885D02*
X472780D01*
X474780D01*
X701780Y543885D02*
X705280D01*
X711780Y550385D01*
X409780Y547885D02*
X410530Y547135D01*
X471534Y1115375D02*
X472780D01*
X474026D01*
X793280Y1067875D02*
X793780Y1067375D01*
X474780Y1097875D02*
X477780Y1094875D01*
X467780Y1094875D02*
X470780Y1097875D01*
X459780Y1076375D02*
Y1080875D01*
X456780Y1083875D02*
X459780Y1080875D01*
X709280Y1174375D02*
X710280D01*
X702280Y1167375D02*
X709280Y1174375D01*
X530780Y1050375D02*
X538280D01*
X794934Y1068528D02*
X800933D01*
X793780Y1067375D02*
X794934Y1068528D01*
X792780Y1067375D02*
X793280Y1067875D01*
X801280Y1076375D02*
X801780Y1075875D01*
X792780Y1076375D02*
X801280D01*
X835780Y1090375D02*
X843780D01*
X835280Y1090875D02*
X835780Y1090375D01*
X1017279Y1074875D02*
X1017279Y1074875D01*
X1012280Y1074875D02*
X1017279D01*
X1034259Y1058896D02*
Y1067662D01*
Y1058896D02*
X1046780Y1046375D01*
X1036624Y1070027D02*
Y1080719D01*
X1034259Y1067662D02*
X1036624Y1070027D01*
X1046780Y996375D02*
Y1017375D01*
X1045780Y995375D02*
X1046780Y996375D01*
X1058280Y995375D02*
Y1023875D01*
X321780Y1059875D02*
X327280D01*
X317280Y1055375D02*
X321780Y1059875D01*
X313530Y1055375D02*
X317280D01*
X283030Y1037875D02*
Y1045875D01*
Y1037875D02*
X292030Y1028875D01*
X1093780Y1046375D02*
X1107779D01*
X1107780Y1046375D01*
X1107780Y1046375D01*
X1093780Y1066375D02*
X1107780D01*
X1093780Y1076375D02*
X1107780D01*
X1041780Y1028375D02*
X1053780D01*
X1037280Y1023875D02*
X1041780Y1028375D01*
X1037280Y1017375D02*
Y1023875D01*
X456280Y1123875D02*
X456780Y1123375D01*
X488780Y1115875D02*
Y1123875D01*
X465280Y1116375D02*
Y1123875D01*
X479780Y1116875D02*
Y1123875D01*
Y1116875D02*
X480780Y1115875D01*
X424780Y1139375D02*
X432280D01*
X432780Y1139875D01*
X424780Y1148375D02*
X432280D01*
X432780Y1147875D01*
X414780Y1157375D02*
X423280D01*
X424780Y1155875D01*
X406280Y1166375D02*
X414780D01*
X404780Y1167875D02*
X406280Y1166375D01*
X530780D02*
X539280D01*
X522280Y1157375D02*
X530780D01*
X520780Y1155875D02*
X522280Y1157375D01*
X521280Y1059375D02*
X530780D01*
X520780Y1059875D02*
X521280Y1059375D01*
X420280Y1048875D02*
X424780Y1053375D01*
Y1059875D01*
X432780Y1075875D02*
Y1083475D01*
X432380Y1083875D02*
X432780Y1083475D01*
X441380Y1076475D02*
Y1083875D01*
X440780Y1075875D02*
X441380Y1076475D01*
X489280Y1092875D02*
Y1099375D01*
X498280Y1085375D02*
Y1092875D01*
X447280Y1085375D02*
Y1092875D01*
Y1085375D02*
X448780Y1083875D01*
X456280Y1092875D02*
Y1099375D01*
X456780Y1099875D01*
X440780Y1067875D02*
X449280D01*
X449780Y1067375D01*
X459780D01*
X495780D02*
X504280D01*
X504780Y1067875D01*
X495780Y1076375D02*
X504280D01*
X440780Y1075875D02*
X449280D01*
X449780Y1076375D01*
X459780D01*
X467780Y1091375D02*
Y1094875D01*
X477780Y1091375D02*
Y1094875D01*
X467780Y1080875D02*
Y1082375D01*
Y1080875D02*
X472780Y1075875D01*
X477780Y1080875D02*
Y1082375D01*
X472780Y1075875D02*
X477780Y1080875D01*
X472780Y1115875D02*
Y1132375D01*
Y1141375D02*
Y1147875D01*
X513280Y1076375D02*
X521780D01*
X512780Y1075875D02*
X513280Y1076375D01*
X512780Y1067875D02*
X521280D01*
X521780Y1067375D01*
Y1076375D02*
X530780D01*
X521780Y1067375D02*
X530780D01*
X769780Y1115875D02*
Y1131375D01*
Y1140375D02*
Y1147875D01*
X702280Y1167375D02*
X711780D01*
Y1158375D02*
X719280D01*
X721780Y1155875D01*
Y1148375D02*
X729280D01*
X729780Y1147875D01*
X721780Y1139375D02*
X729280D01*
X729780Y1139875D01*
X737780D02*
X745280D01*
X745780Y1139375D01*
X737780Y1147875D02*
X745280D01*
X745780Y1148375D02*
X754780D01*
X745780Y1139375D02*
X754780D01*
X752280Y1117375D02*
Y1123875D01*
Y1117375D02*
X753780Y1115875D01*
X761280Y1123875D02*
Y1131375D01*
X761780Y1131875D01*
X762780Y1091375D02*
Y1092875D01*
X769780Y1099875D01*
X776780Y1091375D02*
Y1092875D01*
X769780Y1099875D02*
X776780Y1092875D01*
X762780Y1082375D02*
X769280Y1075875D01*
X769780D01*
X770280D02*
X776780Y1082375D01*
X769780Y1075875D02*
X770280D01*
X753280Y1091875D02*
Y1099375D01*
X753780Y1099875D01*
X744280Y1085375D02*
Y1091875D01*
Y1085375D02*
X745780Y1083875D01*
X737780Y1067875D02*
X740280Y1065375D01*
X746780D01*
X755780D01*
X746780Y1074375D02*
X755780D01*
X739280D02*
X746780D01*
X737780Y1075875D02*
X739280Y1074375D01*
X721780Y1067375D02*
X729280D01*
X729780Y1067875D01*
X721780Y1076375D02*
X729280D01*
X729780Y1075875D01*
X711780Y1059375D02*
X721280D01*
X721780Y1059875D01*
X795280Y1085375D02*
Y1091875D01*
X793780Y1083875D02*
X795280Y1085375D01*
X786280Y1091875D02*
Y1099375D01*
X785780Y1099875D02*
X786280Y1099375D01*
X809780Y1075875D02*
X818280D01*
X818780Y1076375D01*
X829780D01*
X829780Y1076375D01*
X809780Y1067875D02*
X818280D01*
X818780Y1067375D01*
X817780Y1059875D02*
X827280D01*
X827780Y1059375D01*
X834780Y1047875D02*
X837780D01*
X832280Y1050375D02*
X834780Y1047875D01*
X827780Y1050375D02*
X832280D01*
X786280Y1116375D02*
Y1123875D01*
X793780Y1139375D02*
X801280D01*
X801780Y1139875D01*
X793780Y1148375D02*
X801280D01*
X801780Y1147875D01*
X817780Y1155875D02*
X825280D01*
X827780Y1158375D01*
Y1167375D02*
X837280D01*
X837780Y1167875D01*
X472780Y1115375D02*
Y1115875D01*
X448780Y1107875D02*
X456280D01*
X829780Y1085375D02*
X835280Y1090875D01*
X992150Y1180840D02*
X1012944D01*
X1029350Y1164434D01*
Y1128546D02*
Y1164434D01*
X1015944Y1115140D02*
X1029350Y1128546D01*
X983650Y1115140D02*
X1015944D01*
X988000Y1184990D02*
X992150Y1180840D01*
X988000Y1184990D02*
Y1209990D01*
X1070780Y899875D02*
X1075780D01*
X1065780D02*
X1070780D01*
X1053780Y1028375D02*
X1058280Y1023875D01*
X1093780Y1056375D02*
X1107780D01*
X1046780Y1046375D02*
X1059760Y1059355D01*
Y1076355D01*
X1069780Y1086375D01*
X1107780D01*
X1046780Y1046375D02*
Y1079375D01*
X1063780Y1096375D01*
X1107780D01*
X1062280Y1106375D02*
X1107780D01*
X1036624Y1080719D02*
X1062280Y1106375D01*
X967000Y1073405D02*
X967780Y1072625D01*
X967000Y1073405D02*
Y1088990D01*
Y1098490D01*
X973780Y1105270D01*
X983650Y1115140D01*
X878286Y1208381D02*
X883780Y1213875D01*
X870775Y1208381D02*
X878286D01*
X828280Y1207125D02*
X842518D01*
X843775Y1208381D01*
X828280Y1219625D02*
X830024Y1217881D01*
X843775D01*
X1153280Y850375D02*
Y856875D01*
Y850375D02*
X1155273Y848382D01*
Y839871D02*
Y848382D01*
X785780Y1099875D02*
X795280D01*
X796280Y1100875D01*
X799530Y1109625D02*
Y1115875D01*
X796280Y1106375D02*
X799530Y1109625D01*
X796280Y1100875D02*
Y1106375D01*
X511780Y1100875D02*
Y1106375D01*
X509780Y1098875D02*
X511780Y1100875D01*
X509780Y1093875D02*
Y1094875D01*
X504780Y1099875D02*
X509780Y1094875D01*
Y1098875D01*
X292030Y1076625D02*
X295780Y1072875D01*
X306280D01*
X292030Y1024126D02*
Y1028875D01*
X480280Y1107875D02*
Y1109121D01*
X474026Y1115375D02*
X480280Y1109121D01*
X465280Y1107875D02*
Y1109121D01*
X471534Y1115375D01*
X432380Y1083875D02*
Y1094475D01*
X437780Y1099875D01*
X456780D01*
X437780D02*
Y1111875D01*
X441780Y1115875D01*
X507780D02*
X511780Y1111875D01*
Y1106375D02*
Y1111875D01*
X539280Y1166375D02*
X540780Y1167875D01*
X298180Y889975D02*
Y892775D01*
X302280Y896875D01*
X302780D01*
X298280Y1055375D02*
X313530D01*
X785780Y1115875D02*
X786280Y1116375D01*
X292030Y1076625D02*
Y1082375D01*
X283030Y1064875D02*
Y1067625D01*
X292030Y1076625D01*
X828280Y1219625D02*
Y1228875D01*
X830280Y1230875D01*
X844280Y1244875D01*
X859280D01*
X861780Y1242375D01*
Y1238875D02*
Y1242375D01*
X1145905Y829375D02*
X1155273Y838743D01*
Y839871D01*
X1124780Y829375D02*
X1145905D01*
X1115780Y833625D02*
X1120530D01*
X1124780Y829375D01*
X1153280Y856875D02*
X1156280Y859875D01*
Y867375D01*
X292030Y1024126D02*
X299781Y1016375D01*
X408780Y1046875D02*
X409780Y1047875D01*
X405781Y1046875D02*
X408780D01*
X441780Y1115875D02*
X456780D01*
Y1123375D01*
X464780Y1115875D02*
X465280Y1116375D01*
X488780Y1115875D02*
X507780D01*
X882280Y1239875D02*
X883780Y1238375D01*
Y1222875D02*
Y1238375D01*
X504280Y1076375D02*
X504780Y1075875D01*
X496780Y1083875D02*
X498280Y1085375D01*
X489280Y1107875D02*
X496780D01*
X488780Y1099875D02*
X489280Y1099375D01*
X488780Y1099875D02*
X504780D01*
X470780Y1097875D02*
X472780D01*
X474780D01*
X701780Y1043875D02*
X705280D01*
X711780Y1050375D01*
X409780Y1047875D02*
X410530Y1047125D01*
D41*
X1155280Y280885D02*
X1156780Y282385D01*
X1106010Y323385D02*
X1119510Y309885D01*
X1105780Y323385D02*
X1106010D01*
X1104780D02*
X1105780D01*
X1110280Y318885D01*
X1100010Y329385D02*
X1104780Y324615D01*
X1088780Y340615D02*
X1100010Y329385D01*
Y328155D02*
X1104780Y323385D01*
X1100010Y328155D02*
Y329385D01*
X1172280Y646385D02*
Y653385D01*
X1171780Y653885D02*
X1172280D01*
X1171780Y653885D02*
X1171780Y653885D01*
X1171780Y660385D02*
X1172280Y660885D01*
Y667885D01*
X1168280Y720885D02*
X1173780Y715385D01*
X1162180Y726985D02*
X1168280Y720885D01*
X1173780Y691885D02*
Y715385D01*
X1172280Y690385D02*
X1173780Y691885D01*
X1141780Y726985D02*
X1162180D01*
X1172280Y667885D02*
Y677385D01*
X1119510Y302655D02*
Y309885D01*
X1121280Y278885D02*
Y300885D01*
X1119510Y302655D02*
X1121280Y300885D01*
X532780Y541385D02*
Y544885D01*
Y541385D02*
X537780D01*
X807280Y684385D02*
Y686885D01*
X807780Y687385D01*
X807280Y687885D02*
X826530Y707135D01*
X807280Y687885D02*
X807780Y687385D01*
X826530Y707135D02*
X828280D01*
X1156780Y282385D02*
Y292385D01*
X1150780Y269385D02*
X1155280Y273885D01*
X1130780Y269385D02*
X1150780D01*
X1121280Y278885D02*
X1130780Y269385D01*
X1155280Y273885D02*
Y280885D01*
Y281385D01*
X538280Y550385D02*
X541780Y553885D01*
X1094030Y453385D02*
Y464135D01*
X1106280Y476385D01*
X1121780D01*
X1088780Y340615D02*
Y346885D01*
X1104780Y323385D02*
Y324615D01*
X1171780Y653885D02*
X1172280Y653385D01*
X1171780Y653885D02*
Y660385D01*
X533280Y536885D02*
X537780Y541385D01*
X532780Y544885D02*
X538280Y550385D01*
X540780Y667885D02*
X546280Y662385D01*
Y643885D02*
Y662385D01*
X1155280Y780875D02*
X1156780Y782375D01*
X1106010Y823375D02*
X1119510Y809875D01*
X1105780Y823375D02*
X1106010D01*
X1104780D02*
X1105780D01*
X1110280Y818875D01*
X1100010Y829375D02*
X1104780Y824605D01*
X1088780Y840605D02*
X1100010Y829375D01*
Y828145D02*
X1104780Y823375D01*
X1100010Y828145D02*
Y829375D01*
X1172280Y1146375D02*
Y1153375D01*
X1171780Y1153875D02*
X1172280D01*
X1171780Y1153875D02*
X1171780Y1153875D01*
X1171780Y1160375D02*
X1172280Y1160875D01*
Y1167875D01*
X1168280Y1220875D02*
X1173780Y1215375D01*
X1162180Y1226975D02*
X1168280Y1220875D01*
X1173780Y1191875D02*
Y1215375D01*
X1172280Y1190375D02*
X1173780Y1191875D01*
X1141780Y1226975D02*
X1162180D01*
X1172280Y1167875D02*
Y1177375D01*
X1119510Y802645D02*
Y809875D01*
X1121280Y778875D02*
Y800875D01*
X1119510Y802645D02*
X1121280Y800875D01*
X532780Y1041375D02*
Y1044875D01*
Y1041375D02*
X537780D01*
X807280Y1184375D02*
Y1186875D01*
X807780Y1187375D01*
X807280Y1187875D02*
X826530Y1207125D01*
X807280Y1187875D02*
X807780Y1187375D01*
X826530Y1207125D02*
X828280D01*
X1156780Y782375D02*
Y792375D01*
X1150780Y769375D02*
X1155280Y773875D01*
X1130780Y769375D02*
X1150780D01*
X1121280Y778875D02*
X1130780Y769375D01*
X1155280Y773875D02*
Y780875D01*
Y781375D01*
X538280Y1050375D02*
X541780Y1053875D01*
X1094030Y953375D02*
Y964125D01*
X1106280Y976375D01*
X1121780D01*
X1088780Y840605D02*
Y846875D01*
X1104780Y823375D02*
Y824605D01*
X1171780Y1153875D02*
X1172280Y1153375D01*
X1171780Y1153875D02*
Y1160375D01*
X533280Y1036875D02*
X537780Y1041375D01*
X532780Y1044875D02*
X538280Y1050375D01*
X540780Y1167875D02*
X546280Y1162375D01*
Y1143875D02*
Y1162375D01*
D42*
X902780Y568385D02*
X910280D01*
X870775Y600390D02*
X902780Y568385D01*
X870775Y600390D02*
Y708391D01*
X411280Y536885D02*
Y547885D01*
X432780Y574984D02*
Y575885D01*
X427760Y569964D02*
X432780Y574984D01*
X427760Y564905D02*
Y569964D01*
Y564905D02*
X444780Y547885D01*
Y536885D02*
Y547885D01*
X507780Y618385D02*
X515280Y625885D01*
X507780Y615885D02*
Y618385D01*
X271280Y585385D02*
Y585885D01*
X340699Y702304D02*
Y718304D01*
X269280Y569385D02*
Y571885D01*
X273780Y576385D01*
X281281D01*
X270780Y586385D02*
X271280Y585885D01*
X270780Y586385D02*
Y605135D01*
X945000Y580605D02*
Y589000D01*
X944631Y580236D02*
X945000Y580605D01*
X940929Y580236D02*
X944631D01*
X967780Y531385D02*
Y560135D01*
Y531385D02*
X968280Y530885D01*
X1010963Y565885D02*
X1012280D01*
X1006280Y570568D02*
X1010963Y565885D01*
X1006280Y570568D02*
Y596385D01*
X1009780Y599885D01*
X913500Y600885D02*
X933000Y620385D01*
X939280D01*
X913500Y589000D02*
Y600885D01*
X963780Y393885D02*
Y398885D01*
X967780Y402885D01*
X1115780Y346135D02*
X1125530D01*
X1136280Y356885D01*
X1144280D01*
Y363805D01*
X1147600Y367125D01*
X1145773Y316048D02*
X1147600Y317875D01*
X1145773Y310881D02*
Y316048D01*
X1144280Y292385D02*
X1146280Y290385D01*
Y281385D02*
Y290385D01*
X1132780Y292385D02*
X1144280D01*
X1053280Y412385D02*
Y417385D01*
Y422385D01*
Y428885D01*
X1046780Y435385D02*
X1053280Y428885D01*
X1043779Y435385D02*
X1046780D01*
X1042779Y434385D02*
X1043779Y435385D01*
X1037780Y420385D02*
Y429386D01*
X1042779Y434385D01*
X1083280Y396885D02*
Y407385D01*
Y412385D01*
X1101780Y412885D02*
X1105280D01*
X1113780Y404385D01*
X1114279D01*
X1147600Y367125D02*
Y372705D01*
X1151280Y376385D01*
X1156280D01*
X902780Y1068375D02*
X910280D01*
X870775Y1100380D02*
X902780Y1068375D01*
X870775Y1100380D02*
Y1208381D01*
X411280Y1036875D02*
Y1047875D01*
X432780Y1074974D02*
Y1075875D01*
X427760Y1069954D02*
X432780Y1074974D01*
X427760Y1064895D02*
Y1069954D01*
Y1064895D02*
X444780Y1047875D01*
Y1036875D02*
Y1047875D01*
X507780Y1118375D02*
X515280Y1125875D01*
X507780Y1115875D02*
Y1118375D01*
X271280Y1085375D02*
Y1085875D01*
X340699Y1202294D02*
Y1218294D01*
X269280Y1069375D02*
Y1071875D01*
X273780Y1076375D01*
X281281D01*
X270780Y1086375D02*
X271280Y1085875D01*
X270780Y1086375D02*
Y1105125D01*
X945000Y1080595D02*
Y1088990D01*
X944631Y1080226D02*
X945000Y1080595D01*
X940929Y1080226D02*
X944631D01*
X967780Y1031375D02*
Y1060125D01*
Y1031375D02*
X968280Y1030875D01*
X1010963Y1065875D02*
X1012280D01*
X1006280Y1070558D02*
X1010963Y1065875D01*
X1006280Y1070558D02*
Y1096375D01*
X1009780Y1099875D01*
X913500Y1100875D02*
X933000Y1120375D01*
X939280D01*
X913500Y1088990D02*
Y1100875D01*
X963780Y893875D02*
Y898875D01*
X967780Y902875D01*
X1115780Y846125D02*
X1125530D01*
X1136280Y856875D01*
X1144280D01*
Y863795D01*
X1147600Y867115D01*
X1145773Y816038D02*
X1147600Y817865D01*
X1145773Y810871D02*
Y816038D01*
X1144280Y792375D02*
X1146280Y790375D01*
Y781375D02*
Y790375D01*
X1132780Y792375D02*
X1144280D01*
X1053280Y912375D02*
Y917375D01*
Y922375D01*
Y928875D01*
X1046780Y935375D02*
X1053280Y928875D01*
X1043779Y935375D02*
X1046780D01*
X1042779Y934375D02*
X1043779Y935375D01*
X1037780Y920375D02*
Y929376D01*
X1042779Y934375D01*
X1083280Y896875D02*
Y907375D01*
Y912375D01*
X1101780Y912875D02*
X1105280D01*
X1113780Y904376D01*
X1114279D01*
X1147600Y867115D02*
Y872695D01*
X1151280Y876375D01*
X1156280D01*
D43*
X634304Y615385D02*
X637804Y618885D01*
X350320Y446449D02*
X376384Y420385D01*
X347550Y445302D02*
X375237Y417615D01*
X347550Y445302D02*
Y518401D01*
X344780Y444155D02*
X374089Y414845D01*
X341780Y443237D02*
Y484786D01*
Y443237D02*
X366780Y418237D01*
X333010Y448155D02*
X335780Y445385D01*
Y427958D02*
X338301Y425438D01*
X335780Y427958D02*
Y445385D01*
X553990Y345095D02*
Y356519D01*
X548780Y339885D02*
X553990Y345095D01*
X404281Y475885D02*
X417781Y462385D01*
X570673Y498385D02*
Y507385D01*
X574177Y610282D02*
X587759Y596701D01*
X649757Y668445D02*
X668967Y687655D01*
X635857Y668445D02*
X649757D01*
X653280Y675885D02*
X667820Y690425D01*
X632859Y669365D02*
X639379Y675885D01*
X653280D01*
X594800Y669365D02*
X632859D01*
X634007Y666595D02*
X635857Y668445D01*
X644007Y665675D02*
X645527Y664155D01*
X637004Y665675D02*
X644007D01*
X635154Y663825D02*
X637004Y665675D01*
X592257Y663825D02*
X635154D01*
X618280Y676885D02*
X620780Y674385D01*
X613780Y676885D02*
X618280D01*
X636301Y661055D02*
X638152Y662905D01*
X574590Y677575D02*
X591110Y661055D01*
X575737Y680345D02*
X592257Y663825D01*
X576885Y683115D02*
X593405Y666595D01*
X578280Y685885D02*
X594800Y669365D01*
X593405Y666595D02*
X634007D01*
X591110Y661055D02*
X636301D01*
X629280Y674885D02*
Y676385D01*
X641780Y686385D02*
X664780Y709385D01*
X777280D01*
X799280Y687385D01*
Y665385D02*
Y687385D01*
Y665385D02*
X836280Y628385D01*
Y613885D02*
Y628385D01*
X568280Y379385D02*
Y391885D01*
X582280Y380984D02*
X585701Y384405D01*
X582280Y376385D02*
Y380984D01*
X578050Y344155D02*
Y387655D01*
X568280Y391885D02*
X589280Y412885D01*
X562760Y393865D02*
X574280Y405385D01*
X562760Y360405D02*
X566800Y356365D01*
X562760Y360405D02*
Y393865D01*
X578050Y387655D02*
X586780Y396385D01*
X575280Y348484D02*
Y389385D01*
X618280Y686385D02*
X628780Y675885D01*
X841820Y403845D02*
X858820Y386845D01*
X843550Y406615D02*
X860550Y389615D01*
X858820Y386845D02*
X873568D01*
X876358Y384055D01*
X874715Y389615D02*
X877505Y386825D01*
X860550Y389615D02*
X874715D01*
X875863Y392385D02*
X878653Y389595D01*
X861697Y392385D02*
X875863D01*
X844697Y409385D02*
X861697Y392385D01*
X888363Y384055D02*
X898193Y393885D01*
X859280Y412885D02*
X879800Y392365D01*
X884859D01*
X878653Y389595D02*
X886007D01*
X877505Y386825D02*
X887154D01*
X876358Y384055D02*
X888363D01*
X893340Y393175D02*
X896820Y396655D01*
X893340Y393011D02*
Y393175D01*
X887154Y386825D02*
X893340Y393011D01*
X890570Y394658D02*
X895337Y399425D01*
X890570Y394158D02*
Y394658D01*
X886007Y389595D02*
X890570Y394158D01*
X887800Y395806D02*
X894189Y402195D01*
X887800Y395306D02*
Y395806D01*
X884859Y392365D02*
X887800Y395306D01*
X899341Y391115D02*
X927341D01*
X883591Y375365D02*
X899341Y391115D01*
X900488Y388345D02*
X928488D01*
X884738Y372595D02*
X900488Y388345D01*
X894215Y378155D02*
X908911D01*
X885885Y369825D02*
X894215Y378155D01*
X895363Y375385D02*
X907763D01*
X887033Y367055D02*
X895363Y375385D01*
X896477Y372582D02*
X924477D01*
X887923Y364028D02*
X896477Y372582D01*
X865800Y375365D02*
X883591D01*
X863570Y372595D02*
X884738D01*
X861840Y369825D02*
X885885D01*
X859610Y367055D02*
X887033D01*
X857637Y364028D02*
X887923D01*
X628780Y675885D02*
X629280Y676385D01*
X642859Y662905D02*
X644379Y661385D01*
X638152Y662905D02*
X642859D01*
X355440Y548762D02*
X358880Y545322D01*
X349900Y546468D02*
X353340Y543027D01*
X344360Y544173D02*
X347800Y540733D01*
X1043530Y345135D02*
X1087030D01*
X633280Y499885D02*
X634780Y501385D01*
X635280D01*
X635780D01*
X515280Y503885D02*
X538780Y527385D01*
X567280Y486885D02*
Y511063D01*
Y468385D02*
Y486885D01*
X562673Y459385D02*
X580280Y476992D01*
Y491385D01*
X573280Y498385D02*
X580280Y491385D01*
X578054Y568175D02*
X585507D01*
X579201Y565405D02*
X584360D01*
X556751Y535889D02*
X573280Y552418D01*
Y553385D01*
X595280Y562885D02*
X614780D01*
X589247Y556335D02*
X629780Y515802D01*
X589247Y556335D02*
X589247D01*
X589247D02*
X590070Y557159D01*
Y563612D01*
X585507Y568175D02*
X590070Y563612D01*
X584360Y565405D02*
X587300Y562464D01*
Y558306D02*
Y562464D01*
X586300Y557306D02*
X587300Y558306D01*
X586300Y555365D02*
Y557306D01*
X537780Y520385D02*
X540280D01*
X537280Y527385D02*
X538780D01*
X538280Y502385D02*
X541780Y505885D01*
X607780Y627286D02*
Y648885D01*
Y627286D02*
X624701Y610365D01*
X626800D02*
X628780Y608385D01*
X624701Y610365D02*
X626800D01*
X644379Y661385D02*
X660780D01*
X645527Y664155D02*
X659550D01*
X613780Y686385D02*
X618280D01*
X586300Y555365D02*
X627010Y514655D01*
X614780Y562885D02*
X614780Y562885D01*
X576553Y566675D02*
X578054Y568175D01*
X576170Y566675D02*
X576553D01*
X577701Y563905D02*
X579201Y565405D01*
X571869Y563905D02*
X577701D01*
X563822Y571952D02*
X571869Y563905D01*
X567358Y575487D02*
X576170Y566675D01*
X627010Y481738D02*
Y514655D01*
X629780Y482885D02*
Y515802D01*
X602780Y688385D02*
Y701885D01*
Y688385D02*
X604780Y686385D01*
X597280Y676885D02*
X604780D01*
X592780Y681385D02*
X597280Y676885D01*
X592780Y681385D02*
Y701885D01*
X502780Y685885D02*
X578280D01*
X713363Y702385D02*
X763280D01*
X667820Y690425D02*
X701403D01*
X713363Y702385D01*
X702550Y687655D02*
X713071Y698176D01*
X751489D01*
X668967Y687655D02*
X702550D01*
X501633Y683115D02*
X576885D01*
X680280Y684885D02*
X719280D01*
X500485Y680345D02*
X575737D01*
X659550Y664155D02*
X680280Y684885D01*
X681280Y681885D02*
X724280D01*
X660780Y661385D02*
X681280Y681885D01*
X499338Y677575D02*
X574590D01*
X805280Y562885D02*
Y571385D01*
X809780Y575885D01*
X685780Y551885D02*
X694780D01*
X681780Y555885D02*
X685780Y551885D01*
X681780Y555885D02*
Y561923D01*
X688273Y568416D01*
X323280Y550385D02*
X327280D01*
X318780Y545885D02*
X323280Y550385D01*
X313530Y545885D02*
X318780D01*
X354363Y280385D02*
X733927D01*
X333510Y301238D02*
X354363Y280385D01*
X333510Y301238D02*
Y310655D01*
X330780Y313385D02*
X333510Y310655D01*
X355510Y283155D02*
X732780D01*
X336280Y302385D02*
X355510Y283155D01*
X336280Y302385D02*
Y329385D01*
X319563Y313385D02*
X330780D01*
X633280Y488352D02*
Y499885D01*
Y488352D02*
X638776Y482856D01*
X326082Y405385D02*
X326082D01*
X319280D02*
X326082D01*
X332780Y412083D01*
X544260Y594805D02*
X552171Y586895D01*
X549280Y597786D02*
X558701Y588365D01*
X544260Y594805D02*
Y607464D01*
X550260Y613464D01*
Y618365D01*
X549280Y597786D02*
Y605385D01*
X565280Y610385D02*
X567816D01*
X555280Y599385D02*
X560780Y593885D01*
X555280Y599385D02*
Y600385D01*
X561280Y594385D02*
X569673D01*
X560780Y593885D02*
X561280Y594385D01*
X550260Y618365D02*
X582280Y650385D01*
X562780Y602385D02*
X566780Y598385D01*
X561551Y588365D02*
X570893Y579023D01*
X552171Y571554D02*
Y586895D01*
X558701Y588365D02*
X561551D01*
X552171Y571554D02*
X556751Y566974D01*
X614780Y562885D02*
X628780Y576885D01*
Y608385D01*
X637804Y618885D02*
X638776Y617914D01*
X583780Y629885D02*
Y647968D01*
X498190Y674805D02*
X572959D01*
X587300Y660464D01*
X583780Y647968D02*
X587300Y651488D01*
Y660464D01*
X582280Y650385D02*
Y658385D01*
X980780Y340885D02*
X993730Y353835D01*
Y360612D01*
X967780Y340385D02*
X981030Y353635D01*
Y360612D01*
X838379Y259885D02*
X979997D01*
X818359Y279905D02*
X838379Y259885D01*
X816260Y279905D02*
X818359D01*
X788780Y295385D02*
X811280Y272885D01*
X818280D01*
X799780Y296385D02*
Y310385D01*
Y296385D02*
X816260Y279905D01*
X874117Y262865D02*
X874137Y262885D01*
X862443Y262865D02*
X874117D01*
X862423Y262885D02*
X862443Y262865D01*
X849280Y262885D02*
X862423D01*
X838280Y273885D02*
X849280Y262885D01*
X843379Y321885D02*
X866879D01*
X843359Y321865D02*
X843379Y321885D01*
X839201Y321865D02*
X843359D01*
X839181Y321885D02*
X839201Y321865D01*
X794280Y321885D02*
X839181D01*
X866879D02*
X871300Y317464D01*
X788780Y316385D02*
X794280Y321885D01*
X849780Y308385D02*
X865780D01*
X979997Y259885D02*
X993730Y273618D01*
Y276157D01*
X977190Y262795D02*
X980530Y266135D01*
X913960Y265565D02*
X917030Y268635D01*
X900183Y265565D02*
X913960D01*
X874137Y262885D02*
X898946D01*
X899036Y262795D02*
X977190D01*
X898946Y262885D02*
X899036Y262795D01*
X900093Y265655D02*
X900183Y265565D01*
X896813Y265655D02*
X900093D01*
X883490Y278978D02*
X896813Y265655D01*
X892259Y294406D02*
X922759D01*
X871300Y315365D02*
X892259Y294406D01*
X875133Y333115D02*
X911072Y297176D01*
X924165D01*
X912219Y299946D02*
X925313D01*
X876280Y335885D02*
X912219Y299946D01*
X898193Y393885D02*
X925132D01*
X898908Y273657D02*
X904330D01*
X812280Y296885D02*
Y308385D01*
Y296885D02*
X818280Y290885D01*
X825280D01*
X838280Y277885D01*
Y273885D02*
Y277885D01*
X980530Y266135D02*
Y274657D01*
X917030Y268635D02*
Y274657D01*
X883490Y278978D02*
Y285175D01*
X871780Y296885D02*
X883490Y285175D01*
X843780Y296885D02*
X871780D01*
X837280Y303385D02*
X843780Y296885D01*
X837280Y303385D02*
Y308385D01*
X886260Y286306D02*
X898908Y273657D01*
X886260Y286306D02*
Y287905D01*
X865780Y308385D02*
X886260Y287905D01*
X871300Y315365D02*
Y317464D01*
X788780Y295385D02*
Y316385D01*
X762780Y322885D02*
X769280D01*
X779510Y333115D01*
X875133D01*
X763780Y335885D02*
X876280D01*
X744780Y316885D02*
X763780Y335885D01*
X748280Y308385D02*
X762780Y322885D01*
X733927Y280385D02*
X748280Y294738D01*
Y308385D01*
X744800Y295175D02*
Y304771D01*
X732780Y283155D02*
X744800Y295175D01*
X744780Y304791D02*
Y316885D01*
Y304791D02*
X744800Y304771D01*
X1004115Y304385D02*
X1019780D01*
Y335885D01*
X924477Y372582D02*
X972780Y420885D01*
X923330Y375352D02*
X969780Y421802D01*
X922182Y378122D02*
X966360Y422300D01*
X908944Y378122D02*
X922182D01*
X907796Y375352D02*
X923330D01*
X907763Y375385D02*
X907796Y375352D01*
X908911Y378155D02*
X908944Y378122D01*
X928488Y388345D02*
X963590Y423447D01*
X927341Y391115D02*
X960820Y424594D01*
X894189Y402195D02*
X921689D01*
X895337Y399425D02*
X922837D01*
X923984Y396655D02*
X955280Y427951D01*
X896820Y396655D02*
X923984D01*
X925132Y393885D02*
X958050Y426804D01*
X344300Y400365D02*
X370800D01*
X342760Y401906D02*
X344300Y400365D01*
X329701Y401906D02*
X342760D01*
X325780Y397984D02*
X329701Y401906D01*
X325780Y397585D02*
Y397984D01*
X380280Y390885D02*
X387181D01*
X370800Y400365D02*
X380280Y390885D01*
X344780Y405385D02*
X347780D01*
X651780Y517885D02*
X659280Y525385D01*
X891201Y516865D02*
X900859D01*
X887760Y520306D02*
X891201Y516865D01*
X887760Y520306D02*
Y524464D01*
X888780Y525484D01*
Y576385D01*
X892780Y522385D02*
X932280D01*
X900859Y516865D02*
X900879Y516885D01*
X884280Y674280D02*
X904000Y694000D01*
X884280Y598385D02*
Y674280D01*
Y598385D02*
X906280Y576385D01*
X1027050Y572921D02*
Y602155D01*
X1030280Y572234D02*
Y592385D01*
X1033354Y571391D02*
Y582959D01*
X1028219Y570173D02*
X1030280Y572234D01*
X1030989Y569026D02*
X1033354Y571391D01*
X1022679Y565784D02*
Y601784D01*
X1010050Y549238D02*
X1025449Y564637D01*
X1013780Y549050D02*
X1028219Y563490D01*
X1019780Y551133D02*
X1030989Y562342D01*
X1007280Y550385D02*
X1022679Y565784D01*
X1025449Y571321D02*
X1027050Y572921D01*
X1025449Y564637D02*
Y571321D01*
X1028219Y563490D02*
Y570173D01*
X1030989Y562342D02*
Y569026D01*
X1019780Y520385D02*
Y551133D01*
X1013780Y518302D02*
Y549050D01*
X1010050Y534337D02*
Y549238D01*
X1007280Y535484D02*
Y550385D01*
X622780Y701885D02*
Y715385D01*
X556751Y564881D02*
Y566974D01*
X612780Y701885D02*
Y715885D01*
X496111Y676885D02*
X498190Y674805D01*
X490280Y676885D02*
X496111D01*
X495028Y681885D02*
X499338Y677575D01*
X494052Y681885D02*
X495028D01*
X495945Y684885D02*
X500485Y680345D01*
X495295Y684885D02*
X495945D01*
X496633Y688115D02*
X501633Y683115D01*
X495982Y688115D02*
X496633D01*
X479625Y709040D02*
X502780Y685885D01*
X477942Y706155D02*
X495982Y688115D01*
X476795Y703385D02*
X495295Y684885D01*
X476052Y699885D02*
X494052Y681885D01*
X470146Y697019D02*
X490280Y676885D01*
X843775Y727391D02*
X852274D01*
X858780Y720885D01*
Y606385D02*
Y720885D01*
Y606385D02*
X888780Y576385D01*
X900879Y516885D02*
X933863D01*
X981780Y509984D02*
X1007280Y535484D01*
X980550Y481155D02*
X1019780Y520385D01*
X977780Y482302D02*
X1013780Y518302D01*
X589280Y412885D02*
X859280D01*
X833900Y392765D02*
X859610Y367055D01*
X836130Y395535D02*
X861840Y369825D01*
X837860Y398305D02*
X863570Y372595D01*
X840090Y401075D02*
X865800Y375365D01*
X605780Y396385D02*
X616010Y406615D01*
X817170Y389995D02*
X831280Y375885D01*
X642390Y389995D02*
X817170D01*
X637280Y384885D02*
X642390Y389995D01*
X640660Y392765D02*
X833900D01*
X633280Y385385D02*
X640660Y392765D01*
X634010Y395535D02*
X836130D01*
X627780Y389305D02*
X634010Y395535D01*
X632510Y398305D02*
X837860D01*
X624280Y390075D02*
X632510Y398305D01*
X629720Y401075D02*
X840090D01*
X620280Y391635D02*
X629720Y401075D01*
X627740Y403845D02*
X841820D01*
X617280Y393385D02*
X627740Y403845D01*
X616010Y406615D02*
X843550D01*
X614863Y409385D02*
X844697D01*
X605363Y399885D02*
X614863Y409385D01*
X566800Y350306D02*
Y356365D01*
X574780Y340885D02*
X578050Y344155D01*
X575280Y389385D02*
X585780Y399885D01*
X569760Y342964D02*
X575280Y348484D01*
X656453Y500534D02*
X668280Y488707D01*
Y484385D02*
Y488707D01*
Y484385D02*
X678010Y474655D01*
X617280Y471885D02*
X636670Y452495D01*
X657302Y458885D02*
X660922Y455265D01*
X658220Y461885D02*
X662070Y458035D01*
X659137Y464885D02*
X663217Y460805D01*
X660054Y467885D02*
X664364Y463575D01*
X660972Y470885D02*
X665512Y466345D01*
X645847Y489927D02*
X666659Y469115D01*
X649382Y493463D02*
X670960Y471885D01*
X898780Y498885D02*
Y504385D01*
X906780Y512385D01*
X931780D01*
X941800Y458306D02*
Y493865D01*
X928010Y507655D02*
X941800Y493865D01*
X930780Y455885D02*
X931300Y455365D01*
X937780Y425385D02*
Y432385D01*
X1026780Y395385D02*
X1030780Y399385D01*
X1042780D01*
X1038280Y350385D02*
Y362385D01*
X1032280Y368385D02*
X1038280Y362385D01*
X1028780Y368385D02*
X1032280D01*
X1019280Y377885D02*
X1028780Y368385D01*
X1019280Y377885D02*
Y401885D01*
X1028780Y411385D01*
X651780Y512278D02*
Y517885D01*
Y512278D02*
X659989Y504070D01*
X675316Y502885D02*
X691280D01*
X667060Y511141D02*
X675316Y502885D01*
X411780Y446385D02*
X558780D01*
X416780Y449385D02*
X557280D01*
X674159Y625013D02*
Y640820D01*
X652918Y603772D02*
X674159Y625013D01*
X650674Y587385D02*
X659989Y596701D01*
X645780Y587385D02*
X650674D01*
X595642Y603772D02*
X603780Y595634D01*
Y590385D02*
Y595634D01*
X677120Y564334D02*
X684738Y571952D01*
X677120Y554725D02*
Y564334D01*
X672280Y549885D02*
X677120Y554725D01*
X665280Y549885D02*
X672280D01*
X592280Y621276D02*
X602713Y610843D01*
X592280Y621276D02*
Y621385D01*
X583280Y609063D02*
X592107Y600236D01*
X583280Y609063D02*
Y612385D01*
X575280Y620385D02*
X583280Y612385D01*
X587100Y619385D02*
X599178Y607307D01*
X585780Y619385D02*
X587100D01*
X587759Y596701D02*
X588571D01*
X574177Y610282D02*
X575017D01*
X567816Y610385D02*
X585036Y593165D01*
X572744Y598385D02*
X581500Y589630D01*
X566780Y598385D02*
X572744D01*
X569673Y594385D02*
X577965Y586094D01*
X583780Y629885D02*
X592280Y621385D01*
X399914Y697019D02*
X470146D01*
X381780Y678885D02*
X399914Y697019D01*
X907550Y507655D02*
X928010D01*
X902010Y502115D02*
X907550Y507655D01*
X902010Y497115D02*
Y502115D01*
X634780Y458885D02*
X657302D01*
X637863Y461885D02*
X658220D01*
X638780Y464885D02*
X659137D01*
X640863Y467885D02*
X660054D01*
X641780Y470885D02*
X660972D01*
X620780Y478968D02*
X637863Y461885D01*
X610809Y482856D02*
X634780Y458885D01*
X629780Y482885D02*
X641780Y470885D01*
X627010Y481738D02*
X640863Y467885D01*
X623780Y479885D02*
X638780Y464885D01*
X936780Y460385D02*
Y493885D01*
X925780Y504885D02*
X936780Y493885D01*
X909280Y504885D02*
X925780D01*
X904780Y500385D02*
X909280Y504885D01*
X904780Y495385D02*
Y500385D01*
X891550Y482155D02*
X904780Y495385D01*
X893280Y479385D02*
X913280Y499385D01*
X1126280Y314385D02*
X1132769D01*
X1136273Y310881D01*
X810780Y360385D02*
X843280D01*
X851780Y351885D01*
X865280D01*
X600780Y471885D02*
X617280D01*
X599280Y473385D02*
X600780Y471885D01*
X599280Y473385D02*
Y479423D01*
X606249Y486392D01*
X609784Y482856D02*
X610809D01*
X620780Y478968D02*
Y503385D01*
X590780Y533385D02*
X620780Y503385D01*
X582531Y533385D02*
X590780D01*
X570893Y521747D02*
X582531Y533385D01*
X623780Y479885D02*
Y504885D01*
X592280Y536385D02*
X623780Y504885D01*
X578460Y536385D02*
X592280D01*
X567358Y525283D02*
X578460Y536385D01*
X569760Y336786D02*
X574161Y332385D01*
X589280D01*
X602300Y345405D01*
X617393D01*
X624780Y352792D01*
X615760Y348365D02*
X618780Y351385D01*
X594260Y348365D02*
X615760D01*
X586780Y340885D02*
X594260Y348365D01*
X612280Y340385D02*
X617280Y335385D01*
X633280Y364385D02*
Y385385D01*
X628280Y359385D02*
X633280Y364385D01*
X622280Y359385D02*
X628280D01*
X618780Y355885D02*
X622280Y359385D01*
X618780Y351385D02*
Y355885D01*
X569760Y336786D02*
Y342964D01*
X557280Y289385D02*
X566800Y298905D01*
Y304464D01*
X566780Y350286D02*
X566800Y350306D01*
X566780Y304484D02*
Y350286D01*
Y304484D02*
X566800Y304464D01*
X585780Y399885D02*
X605363D01*
X617280Y384385D02*
Y393385D01*
X620280Y382885D02*
Y391635D01*
X624280Y378385D02*
Y390075D01*
X627780Y376885D02*
Y389305D01*
X637280Y342885D02*
Y384885D01*
X586780Y396385D02*
X605780D01*
X913280Y576385D02*
X916280Y573385D01*
X906280Y576385D02*
X913280D01*
X472780Y289385D02*
X557280D01*
X413142Y459385D02*
X562673D01*
X561280Y462385D02*
X567280Y468385D01*
X417781Y462385D02*
X561280D01*
X567280Y511063D02*
X574429Y518212D01*
X570673Y507385D02*
X577965Y514676D01*
X288380Y359985D02*
X298180D01*
X287781Y359386D02*
X288380Y359985D01*
X280780Y360385D02*
X285380Y364985D01*
X280780Y335385D02*
Y360385D01*
X274780Y363885D02*
X280880Y369985D01*
X292380Y354985D02*
X298180D01*
X289781Y352386D02*
X292380Y354985D01*
X289781Y349386D02*
Y352386D01*
X269280Y555885D02*
Y560385D01*
Y551385D02*
Y555885D01*
X282530D02*
X283030Y555385D01*
X269280Y555885D02*
X282530D01*
X754780Y648385D02*
X756780Y650385D01*
Y674885D01*
X739780Y691885D02*
X756780Y674885D01*
X735280Y691885D02*
X739780D01*
X719280Y684885D02*
X736780D01*
X719280D02*
X726280Y691885D01*
X504280Y639385D02*
X504780Y639885D01*
X495780Y639385D02*
X504280D01*
X504280Y648385D02*
X504780Y647885D01*
X495780Y648385D02*
X504280D01*
X449280Y639885D02*
X449780Y639385D01*
X440780Y639885D02*
X449280D01*
X449280Y647885D02*
X449780Y648385D01*
X440780Y647885D02*
X449280D01*
X1098780Y616385D02*
X1107780D01*
X1093280Y621885D02*
X1098780Y616385D01*
X1083780Y621885D02*
X1093280D01*
X1097780Y611385D02*
X1107780D01*
X1095780Y613385D02*
X1097780Y611385D01*
X1083780Y613385D02*
X1095780D01*
X516080Y483085D02*
X540480D01*
X541280Y483885D01*
X506780Y482885D02*
X512280Y477385D01*
X541280D01*
X487780Y482885D02*
X498280Y472385D01*
X459680Y483785D02*
X469680D01*
X474780Y488885D01*
X537280D01*
X543780Y495385D01*
Y497385D01*
X450780Y485385D02*
X451280D01*
X457550Y491655D01*
X532550D01*
X538280Y497385D01*
Y502385D01*
X498280Y472385D02*
X547780D01*
X431880Y483285D02*
X437680D01*
X449780Y495385D01*
X523780D01*
X537780Y509385D01*
Y511885D01*
X439080Y499385D02*
X516780D01*
X537780Y520385D01*
X432780Y503885D02*
X515280D01*
X478680Y482985D02*
X493550Y468115D01*
X554705D01*
X556780Y470190D01*
X1011590Y677580D02*
X1026080Y663089D01*
Y629911D02*
Y663089D01*
X1014589Y618420D02*
X1026080Y629911D01*
X975920Y618420D02*
X1014589D01*
X985837Y677580D02*
X1011590D01*
X995500Y684120D02*
X1014298D01*
X1032620Y665798D01*
Y627202D02*
Y665798D01*
X1017298Y611880D02*
X1032620Y627202D01*
X987880Y611880D02*
X1017298D01*
X1015446Y686890D02*
X1035390Y666946D01*
Y626054D02*
Y666946D01*
X1018446Y609110D02*
X1035390Y626054D01*
X997610Y609110D02*
X1018446D01*
X999610Y686890D02*
X1015446D01*
X1006500Y690000D02*
X1006840Y689660D01*
X1016593D01*
X1038500Y667753D01*
Y625247D02*
Y667753D01*
X1019253Y606000D02*
X1038500Y625247D01*
X1004500Y690000D02*
X1006500D01*
X984690Y674810D02*
X1010442D01*
X1023310Y661942D01*
Y631058D02*
Y661942D01*
X1013442Y621190D02*
X1023310Y631058D01*
X956690Y621190D02*
X1013442D01*
X983377Y672040D02*
X1009295D01*
X1020540Y660795D01*
Y632205D02*
Y660795D01*
X1012295Y623960D02*
X1020540Y632205D01*
X968000Y687417D02*
Y710000D01*
Y687417D02*
X983377Y672040D01*
X973095Y686405D02*
X984690Y674810D01*
X973095Y686405D02*
Y705095D01*
X983000Y680417D02*
X985837Y677580D01*
X983000Y680417D02*
Y706000D01*
X992905Y686715D02*
X995500Y684120D01*
X992905Y686715D02*
Y704595D01*
X997999Y688502D02*
X999610Y686890D01*
X997999Y688502D02*
Y709999D01*
X1003018Y691481D02*
Y715982D01*
X1003000Y716000D02*
X1003018Y715982D01*
Y691481D02*
X1004500Y690000D01*
X1000000Y589000D02*
Y598000D01*
X1008000Y606000D01*
X1019253D01*
X989000Y600500D02*
X997610Y609110D01*
X989000Y589000D02*
Y600500D01*
X978000Y589000D02*
Y602000D01*
X987880Y611880D01*
X956000Y598500D02*
X975920Y618420D01*
X956000Y589000D02*
Y598500D01*
X934000Y598500D02*
X956690Y621190D01*
X934000Y589000D02*
Y598500D01*
X904000Y694000D02*
Y704500D01*
X904500Y705000D01*
X458500Y683500D02*
Y691999D01*
X486115Y655885D02*
X488780D01*
X458500Y683500D02*
X486115Y655885D01*
X737780D02*
Y668385D01*
X724280Y681885D02*
X737780Y668385D01*
X736780Y684885D02*
X745780Y675885D01*
X763280Y702385D02*
X789780Y675885D01*
X529780Y362385D02*
X532280Y359885D01*
X544780D01*
X548673Y355992D01*
Y352885D02*
Y355992D01*
X555280Y334385D02*
X559780Y338885D01*
X542780Y334385D02*
X555280D01*
X536473Y340692D02*
X542780Y334385D01*
X536473Y340692D02*
Y353385D01*
X559780Y357485D02*
Y390385D01*
Y338885D02*
Y347287D01*
X553990Y356519D02*
X556280Y358809D01*
X556760Y350306D02*
Y354465D01*
Y350306D02*
X559780Y347287D01*
X556760Y354465D02*
X559780Y357485D01*
X1110780Y441385D02*
X1111280Y441885D01*
X1128780D01*
X1115800Y429385D02*
X1128780D01*
X471280Y323385D02*
X480780Y313885D01*
X548280D01*
X559780Y302385D01*
X561780D01*
X478780Y309885D02*
X541280D01*
X548780Y302385D01*
X467197Y377885D02*
X483781D01*
X484781Y376886D01*
X496781D02*
X497280Y377385D01*
X510780Y365885D02*
X517280Y372385D01*
Y381885D01*
X485280Y328385D02*
Y348385D01*
X498273Y327885D02*
Y340892D01*
X471280Y323385D02*
Y357385D01*
X467780Y320885D02*
Y355385D01*
Y320885D02*
X478780Y309885D01*
X338380Y354985D02*
X353880D01*
X338380Y359985D02*
X353880D01*
X338380Y364985D02*
X353880D01*
X338380Y369985D02*
X352880D01*
X338380Y374985D02*
X351880D01*
X338380Y379985D02*
X350380D01*
X338380Y384985D02*
X348380D01*
X1083280Y422385D02*
X1101280D01*
X1101780Y421885D01*
X1042780Y399385D02*
X1060280D01*
X1060780Y399885D01*
X1039780Y390385D02*
X1042780D01*
X1034780Y385385D02*
X1039780Y390385D01*
X1034780Y378885D02*
Y385385D01*
X1028780Y420385D02*
X1028780D01*
X1037780Y411385D01*
X1041780Y407385D01*
X1053280D01*
X1038280Y350385D02*
X1043530Y345135D01*
X922780Y571885D02*
Y588780D01*
X923000Y589000D01*
X934280Y571885D02*
Y588720D01*
X934000Y589000D02*
X934280Y588720D01*
X956280Y571885D02*
Y588720D01*
X956000Y589000D02*
X956280Y588720D01*
X978280Y571885D02*
Y588720D01*
X978000Y589000D02*
X978280Y588720D01*
X988780Y571885D02*
Y588780D01*
X989000Y589000D01*
X1000280Y571885D02*
Y588720D01*
X1000000Y589000D02*
X1000280Y588720D01*
X587780Y379385D02*
X591280Y375885D01*
X596280Y384405D02*
X599780Y380905D01*
X585701Y384405D02*
X596280D01*
X582280Y376385D02*
X586280Y372385D01*
X587280Y353385D02*
X599280D01*
X608780Y375885D02*
X617280Y384385D01*
X591280Y375885D02*
X608780D01*
X609780Y372385D02*
X620280Y382885D01*
X586280Y372385D02*
X609780D01*
X599280Y353385D02*
X624280Y378385D01*
X612780Y361885D02*
X627780Y376885D01*
X612780Y353385D02*
Y361885D01*
X617280Y335385D02*
X629780D01*
X637280Y342885D01*
X831280Y375885D02*
X845780D01*
X857637Y364028D01*
X365280Y673885D02*
X391280Y699885D01*
X476052D01*
X389780Y703385D02*
X476795D01*
X334780Y601385D02*
Y650885D01*
X328780Y644385D02*
Y654885D01*
X333280Y659385D01*
X660962Y649067D02*
X665912D01*
X674159Y640820D01*
X670167Y613950D02*
X678401D01*
X656453Y600236D02*
X670167Y613950D01*
X685466Y606885D02*
X691780D01*
X678401Y613950D02*
X685466Y606885D01*
X609784Y617914D02*
X621280Y606418D01*
X672100Y566385D02*
X681202Y575487D01*
X673280Y540276D02*
X684738Y528818D01*
X606249Y614378D02*
X616260Y604367D01*
Y601905D02*
Y604367D01*
Y601905D02*
X619780Y598385D01*
X671029Y572385D02*
X677667Y579023D01*
X667780Y572385D02*
X671029D01*
X665780Y570385D02*
X667780Y572385D01*
X665780Y558885D02*
Y570385D01*
Y558885D02*
X668780Y555885D01*
X1052280Y639885D02*
X1074780D01*
X990280Y510385D02*
Y514567D01*
X1022679Y601784D02*
X1046780Y625885D01*
Y634385D01*
X1052280Y639885D01*
X1055780Y630885D02*
X1074780D01*
X1027050Y602155D02*
X1055780Y630885D01*
X1063780Y613385D02*
X1074780D01*
X285380Y364985D02*
X298180D01*
X1033354Y582959D02*
X1063780Y613385D01*
X1059780Y621885D02*
X1074780D01*
X1030280Y592385D02*
X1059780Y621885D01*
X990280Y514567D02*
X1010050Y534337D01*
X280880Y369985D02*
X298180D01*
X843775Y727391D02*
Y734880D01*
X847780Y738885D01*
X852780D01*
X278780Y382885D02*
X283780D01*
X291280Y390385D01*
Y393885D01*
X278780Y391885D02*
X284280D01*
X313280Y456385D02*
X326280D01*
X269780Y391885D02*
Y394885D01*
X313280Y443885D02*
X325280D01*
X518010Y398155D02*
X529780Y386385D01*
Y362385D02*
Y386385D01*
X785780Y655885D02*
Y663885D01*
X751489Y698176D02*
X785780Y663885D01*
X388633Y706155D02*
X477942D01*
X526240Y400925D02*
X536273Y390892D01*
Y365885D02*
Y390892D01*
X532970Y403695D02*
X556280Y380385D01*
Y358809D02*
Y380385D01*
X543700Y406465D02*
X559780Y390385D01*
X416452Y406465D02*
X543700D01*
X415305Y403695D02*
X532970D01*
X414157Y400925D02*
X526240D01*
X413010Y398155D02*
X518010D01*
X353880Y354985D02*
X369780Y370885D01*
X452280D01*
X467780Y355385D01*
X508280Y390885D02*
X517280Y381885D01*
X348380Y384985D02*
X351510Y388115D01*
X502550D02*
X510780Y379885D01*
X350380Y379985D02*
X355740Y385345D01*
X488321D02*
X496781Y376886D01*
X351880Y374985D02*
X359470Y382575D01*
X462507D02*
X467197Y377885D01*
X352880Y369985D02*
X362700Y379805D01*
X459360D02*
X498273Y340892D01*
X353880Y364985D02*
X365930Y377035D01*
X456630D02*
X485280Y348385D01*
X353880Y359985D02*
X368160Y374265D01*
X454400D02*
X471280Y357385D01*
X389280Y395885D02*
Y400802D01*
X387181Y390885D02*
X387201Y390865D01*
X391359D01*
X391379Y390885D01*
X508280D01*
X351510Y388115D02*
X386033D01*
X386053Y388095D01*
X392507D01*
X392527Y388115D01*
X502550D01*
X355740Y385345D02*
X384886D01*
X384906Y385325D01*
X393654D01*
X393674Y385345D01*
X488321D01*
X359470Y382575D02*
X383739D01*
X383759Y382555D01*
X394801D01*
X394822Y382575D01*
X462507D01*
X362700Y379805D02*
X382591D01*
X382611Y379785D01*
X395949D01*
X395969Y379805D01*
X459360D01*
X365930Y377035D02*
X381444D01*
X381464Y377015D01*
X397096D01*
X397116Y377035D01*
X456630D01*
X368160Y374265D02*
X380297D01*
X380317Y374245D01*
X398244D01*
X398264Y374265D01*
X454400D01*
X397615Y396385D02*
X401395D01*
X395032Y402885D02*
X408280D01*
X413010Y398155D01*
X396180Y405655D02*
X409427D01*
X414157Y400925D01*
X397327Y408425D02*
X410575D01*
X415305Y403695D01*
X398474Y411195D02*
X411722D01*
X416452Y406465D01*
X356240Y677680D02*
X387600Y709040D01*
X479625D01*
X313530Y564885D02*
X316780D01*
X320780Y568885D01*
X327280D01*
X319510Y663032D02*
X372633Y716155D01*
X544510D02*
X553780Y706885D01*
X372633Y716155D02*
X544510D01*
X269280Y542385D02*
X273780Y537885D01*
X283030D01*
X1013780Y317968D02*
Y406655D01*
X980550Y439885D02*
X1013780Y406655D01*
X980550Y439885D02*
Y481155D01*
X1000780Y309385D02*
Y414385D01*
X977780Y437385D02*
X1000780Y414385D01*
X977780Y437385D02*
Y482302D01*
X930230Y360612D02*
Y368835D01*
X937780Y376385D01*
X964280D01*
X968330Y372335D01*
Y360612D02*
Y372335D01*
X964280Y376385D02*
Y384385D01*
X963780Y384885D02*
X964280Y384385D01*
X280780Y335385D02*
X290260Y325905D01*
X307043D01*
X319563Y313385D01*
X315780Y327385D02*
X324780Y336385D01*
X325780Y337385D01*
Y347385D01*
X337780D01*
X342280Y342885D01*
X351780D01*
X325280Y443885D02*
X326510Y442655D01*
X325280Y642344D02*
Y662385D01*
X375780Y712885D01*
X481280D01*
X505280Y688885D01*
X519780D01*
X523280Y692385D01*
X269780Y394885D02*
X280760Y405865D01*
X284280Y391885D02*
X295490Y403095D01*
X291280Y393885D02*
X297720Y400325D01*
X299985Y410425D02*
X309320D01*
X301133Y407655D02*
X311050D01*
X299570Y406092D02*
X301133Y407655D01*
X296800Y407240D02*
X299985Y410425D01*
X308280Y404885D02*
X310780Y402385D01*
Y397585D02*
Y402385D01*
X296800Y407048D02*
Y407240D01*
X295617Y405865D02*
X296800Y407048D01*
X280760Y405865D02*
X295617D01*
X299570Y405901D02*
Y406092D01*
X296764Y403095D02*
X299570Y405901D01*
X295490Y403095D02*
X296764D01*
X302472Y404885D02*
X308280D01*
X297720Y400325D02*
X297911D01*
X302472Y404885D01*
X338301Y411864D02*
X344780Y405385D01*
X357691Y568754D02*
Y585550D01*
X354921Y569901D02*
Y586698D01*
X349381Y572196D02*
Y588993D01*
X346611Y573343D02*
Y590140D01*
X344317Y571050D02*
X346611Y573343D01*
X347087Y569902D02*
X349381Y572196D01*
X347087Y568021D02*
Y569902D01*
X355440Y562911D02*
Y566503D01*
X355397Y562868D02*
X355440Y562911D01*
X352627Y564016D02*
X352670Y564058D01*
Y567650D01*
X349857Y565163D02*
X349900Y565205D01*
Y568798D01*
X347087Y566310D02*
X347130Y566353D01*
Y567979D01*
X347087Y568021D02*
X347130Y567979D01*
X355440Y566503D02*
X357691Y568754D01*
X352670Y567650D02*
X354921Y569901D01*
X349900Y568798D02*
X352151Y571048D01*
X319510Y643155D02*
Y663032D01*
X334780Y601385D02*
X338777Y597388D01*
X328780Y644385D02*
X332010Y641155D01*
X329240Y586195D02*
Y638384D01*
X325280Y642344D02*
X329240Y638384D01*
X326470Y569695D02*
Y636195D01*
X319510Y643155D02*
X326470Y636195D01*
Y569695D02*
X327280Y568885D01*
X329240Y586195D02*
X332780Y582655D01*
X332010Y587342D02*
X335780Y583572D01*
X332010Y587342D02*
Y641155D01*
X337550Y602532D02*
X341547Y598535D01*
X337550Y602532D02*
Y640155D01*
X341780Y644385D01*
X581389Y546385D02*
X583780D01*
X563822Y528818D02*
X581389Y546385D01*
X346611Y590140D02*
X346611Y590140D01*
X352840Y613445D02*
Y645826D01*
X357691Y585550D02*
X365280Y593140D01*
X354921Y586698D02*
X362341Y594118D01*
Y675946D02*
X389780Y703385D01*
X352151Y571048D02*
Y587845D01*
X359571Y595265D01*
Y677093D02*
X388633Y706155D01*
X349381Y588993D02*
X356801Y596413D01*
X356240Y606799D02*
X356801Y606239D01*
Y596413D02*
Y606239D01*
X346611Y590140D02*
Y607216D01*
X352840Y613445D01*
X350281Y648385D02*
X352840Y645826D01*
X356240Y606799D02*
Y677680D01*
X359571Y595265D02*
Y677093D01*
X362341Y594118D02*
Y675946D01*
X365280Y593140D02*
Y673885D01*
X381780Y678885D02*
X384030Y676635D01*
Y641365D02*
Y676635D01*
X326280Y456385D02*
X327470Y455195D01*
X332780Y539155D02*
Y582655D01*
X355397Y552397D02*
Y562868D01*
Y552397D02*
X355440Y552354D01*
Y548762D02*
Y552354D01*
X352670Y547615D02*
X356110Y544175D01*
X352670Y547615D02*
Y551207D01*
X352627Y551250D02*
X352670Y551207D01*
X352627Y551250D02*
Y564016D01*
X349900Y546468D02*
Y550060D01*
X349857Y550102D02*
X349900Y550060D01*
X349857Y550102D02*
Y565163D01*
X347130Y545320D02*
X350570Y541880D01*
X347130Y545320D02*
Y548912D01*
X347087Y548955D02*
X347130Y548912D01*
X347087Y548955D02*
Y566310D01*
X344317Y547808D02*
Y571050D01*
Y547808D02*
X344360Y547765D01*
Y544173D02*
Y547765D01*
X341547Y544543D02*
X341590Y544586D01*
Y546618D01*
X341547Y546660D02*
X341590Y546618D01*
X341547Y546660D02*
Y598535D01*
X332050Y538425D02*
X332780Y539155D01*
X309320Y410425D02*
X326510Y427615D01*
Y442655D01*
X311050Y407655D02*
X329280Y425885D01*
X330240Y447008D02*
X332780Y444468D01*
Y412083D02*
Y444468D01*
X327470Y445860D02*
X329280Y444050D01*
Y425885D02*
Y444050D01*
X327470Y445860D02*
Y455195D01*
X922780Y550885D02*
Y562885D01*
X928343Y541405D02*
X928359D01*
X922780Y550885D02*
X929490Y544175D01*
X929507D01*
X958050Y515632D01*
X916280Y553468D02*
X928343Y541405D01*
X928359D02*
X955280Y514484D01*
Y427951D02*
Y514484D01*
X916280Y553468D02*
Y573385D01*
X958050Y426804D02*
Y515632D01*
X956280Y525385D02*
Y562885D01*
Y525385D02*
X963590Y518075D01*
Y423447D02*
Y518075D01*
X960820Y424594D02*
Y516928D01*
X934280Y543468D02*
X960820Y516928D01*
X934280Y543468D02*
Y562885D01*
X1000280D02*
X1000300Y562865D01*
X966360Y422300D02*
Y508465D01*
X978280Y520385D01*
Y562885D01*
X969780Y421802D02*
Y507968D01*
X972780Y420885D02*
Y507050D01*
X1000300Y534570D01*
X969780Y507968D02*
X988780Y526968D01*
Y562885D01*
X1000300Y534570D02*
Y562865D01*
X981780Y509984D02*
X982280Y509485D01*
Y501885D02*
Y509485D01*
X923000Y589000D02*
Y596605D01*
X950355Y623960D01*
X1012295D01*
X1083280Y422385D02*
Y439385D01*
X1081280Y441385D02*
X1083280Y439385D01*
X1081280Y441385D02*
Y478885D01*
X1076280Y483885D02*
X1081280Y478885D01*
X1055280Y483885D02*
X1076280D01*
X1031780Y460385D02*
X1055280Y483885D01*
X1010280Y460385D02*
X1031780D01*
X1009780Y460885D02*
X1010280Y460385D01*
X936800Y433365D02*
X937780Y432385D01*
X933697Y440385D02*
X936780D01*
X931260Y438806D02*
Y438905D01*
Y438806D02*
X936701Y433365D01*
X936800D01*
X931300Y455365D02*
X938859D01*
X941800Y458306D01*
X952340Y428928D02*
Y502325D01*
X949570Y430075D02*
Y501178D01*
X946800Y435845D02*
Y497365D01*
X942800Y431846D02*
X946800Y435845D01*
X931780Y512385D02*
X946800Y497365D01*
X921689Y402195D02*
X949570Y430075D01*
X933863Y516885D02*
X949570Y501178D01*
X922837Y399425D02*
X952340Y428928D01*
X932280Y522385D02*
X952340Y502325D01*
X941759Y450865D02*
X941780Y450885D01*
X927135Y450865D02*
X941759D01*
X887590Y487695D02*
X898780Y498885D01*
X889820Y484925D02*
X902010Y497115D01*
X902510Y467655D02*
X931260Y438905D01*
X903657Y470425D02*
X933697Y440385D01*
X904805Y473195D02*
X927135Y450865D01*
X899360Y475965D02*
X922280Y498885D01*
X636670Y452495D02*
X862390D01*
X874780Y464885D01*
X660922Y455265D02*
X861243D01*
X873633Y467655D01*
X662070Y458035D02*
X860095D01*
X872485Y470425D01*
X663217Y460805D02*
X858948D01*
X871338Y473195D01*
X664364Y463575D02*
X857801D01*
X870191Y475965D01*
X665512Y466345D02*
X856653D01*
X666659Y469115D02*
X855506D01*
X670960Y471885D02*
X854359D01*
X678010Y474655D02*
X853211D01*
X866251Y487695D01*
X854359Y471885D02*
X867399Y484925D01*
X855506Y469115D02*
X868546Y482155D01*
X856653Y466345D02*
X869693Y479385D01*
X873633Y467655D02*
X902510D01*
X872485Y470425D02*
X903657D01*
X871338Y473195D02*
X904805D01*
X870191Y475965D02*
X899360D01*
X869693Y479385D02*
X893280D01*
X868546Y482155D02*
X891550D01*
X867399Y484925D02*
X889820D01*
X866251Y487695D02*
X887590D01*
X874780Y464885D02*
X891780D01*
X928780Y427885D01*
X889760Y461905D02*
X916280Y435385D01*
X876800Y461905D02*
X889760D01*
X864620Y449725D02*
X876800Y461905D01*
X614940Y449725D02*
X864620D01*
X594280Y470385D02*
X614940Y449725D01*
X916280Y422385D02*
Y435385D01*
X557280Y449385D02*
X583050Y475155D01*
Y484406D01*
X595642Y496998D01*
X585820Y480105D02*
X599178Y493463D01*
X609100Y503385D01*
X611280D01*
X594280Y470385D02*
Y481494D01*
X602713Y489927D01*
X558780Y446385D02*
X585820Y473425D01*
Y480105D01*
X636247Y615385D02*
X638776Y617914D01*
X626780Y615385D02*
X634304D01*
X636247D01*
X637780Y577885D02*
X648244D01*
X663524Y593165D01*
X922759Y294406D02*
X925840Y291325D01*
X924165Y297176D02*
X927246Y294095D01*
X925313Y299946D02*
X928394Y296865D01*
X974880Y302385D02*
X981280D01*
X991115Y291385D02*
X1004115Y304385D01*
X989967Y294155D02*
X1013780Y317968D01*
X928394Y296865D02*
X988260D01*
X1000780Y309385D01*
X927246Y294095D02*
X989407D01*
X989467Y294155D01*
X989967D01*
X925840Y291325D02*
X990555D01*
X990615Y291385D01*
X991115D01*
X874353Y351306D02*
Y351312D01*
X954880Y322385D02*
X974880Y302385D01*
X918859Y322365D02*
X918879Y322385D01*
X954880D01*
X903294Y322365D02*
X918859D01*
X874353Y351306D02*
X903294Y322365D01*
X865280Y351885D02*
X909780Y307385D01*
X927874D01*
X927894Y307405D01*
X937260D01*
X942280Y302385D01*
X949879Y301886D02*
X955780D01*
X941589Y310175D02*
X949879Y301886D01*
X910990Y310175D02*
X941589D01*
X871280Y349885D02*
X910990Y310175D01*
X815780Y366385D02*
X847280D01*
X854280Y359385D01*
X866280D01*
X874353Y351312D01*
X871197Y349885D02*
X871280D01*
X866427Y354655D02*
X871197Y349885D01*
X852927Y354655D02*
X866427D01*
X844427Y363155D02*
X852927Y354655D01*
X811927Y363155D02*
X844427D01*
X800280Y374802D02*
X811927Y363155D01*
X800280Y374802D02*
Y379885D01*
X788280Y382385D02*
X788780D01*
X810780Y360385D01*
X809780Y372385D02*
X815780Y366385D01*
X809780Y372385D02*
Y383385D01*
X797780Y382385D02*
X800280Y379885D01*
X658280Y556885D02*
X665280Y549885D01*
X658280Y556885D02*
Y573385D01*
X348530Y519381D02*
Y529767D01*
X347800Y530497D02*
X348530Y529767D01*
X347800Y530497D02*
Y540733D01*
X350570Y531644D02*
X351300Y530914D01*
X350570Y531644D02*
Y541880D01*
X353340Y532791D02*
X354070Y532061D01*
X353340Y532791D02*
Y543027D01*
X356110Y533939D02*
X356840Y533209D01*
X356110Y533939D02*
Y544175D01*
X358880Y535086D02*
X359610Y534356D01*
X358880Y535086D02*
Y545322D01*
X400189Y472338D02*
Y472846D01*
X395780Y470385D02*
X416780Y449385D01*
X412180Y483285D02*
X432780Y503885D01*
X423180Y483485D02*
X439080Y499385D01*
X404281Y475885D02*
X405281D01*
X400189Y472338D02*
X413142Y459385D01*
X394281Y470385D02*
X395780D01*
X393781Y462387D02*
X394780Y463385D01*
X283030Y537885D02*
X283530Y538385D01*
X332050Y537798D02*
Y538425D01*
X335780Y537611D02*
Y583572D01*
X338777Y536691D02*
Y597388D01*
X341547Y535544D02*
Y544543D01*
X283530Y538385D02*
X324280D01*
X327280Y541385D01*
X329450Y499104D02*
Y535198D01*
X332050Y537798D01*
X332220Y534051D02*
X335780Y537611D01*
X334990Y532904D02*
X338777Y536691D01*
X337760Y531756D02*
X341547Y535544D01*
X337760Y524273D02*
Y531756D01*
X334990Y523126D02*
Y532904D01*
X327531Y493267D02*
X332220Y497956D01*
Y534051D01*
X324761Y494414D02*
X329450Y499104D01*
X397281Y475754D02*
X400189Y472846D01*
X338301Y411864D02*
Y425438D01*
X366780Y405385D02*
Y418237D01*
X374089Y414845D02*
X375237D01*
X389280Y400802D01*
X376384Y417615D02*
X397615Y396385D01*
X375237Y417615D02*
X376384D01*
X377532Y420385D02*
X395032Y402885D01*
X376384Y420385D02*
X377532D01*
X378679Y423155D02*
X396180Y405655D01*
X377531Y423155D02*
X378679D01*
X379827Y425925D02*
X397327Y408425D01*
X378679Y425925D02*
X379827D01*
X380974Y428695D02*
X398474Y411195D01*
X379826Y428695D02*
X380974D01*
X404180Y483285D02*
X412180D01*
X393781Y462385D02*
Y462387D01*
X347550Y518401D02*
X348530Y519381D01*
X397281Y475754D02*
Y478385D01*
X359610Y514791D02*
Y534356D01*
X356840Y515939D02*
Y533209D01*
X354070Y517086D02*
Y532061D01*
X351300Y518233D02*
Y530914D01*
X337760Y524273D02*
X344780Y517253D01*
X358630Y449891D02*
X379826Y428695D01*
X358630Y449891D02*
Y513811D01*
X359610Y514791D01*
X355860Y514959D02*
X356840Y515939D01*
X355860Y448744D02*
Y514959D01*
Y448744D02*
X378679Y425925D01*
X353090Y447597D02*
X377531Y423155D01*
X353090Y447597D02*
Y516106D01*
X354070Y517086D01*
X350320Y517253D02*
X351300Y518233D01*
X350320Y446449D02*
Y517253D01*
X344780Y444155D02*
Y517253D01*
X341780Y484786D02*
X341800Y484806D01*
Y516316D01*
X334990Y523126D02*
X341800Y516316D01*
X324761Y479404D02*
Y494414D01*
Y479404D02*
X330240Y473925D01*
Y447008D02*
Y473925D01*
X327531Y480552D02*
Y493267D01*
Y480552D02*
X333010Y475072D01*
Y448155D02*
Y475072D01*
X1087030Y345135D02*
X1088780Y346885D01*
X394780Y463385D02*
X411780Y446385D01*
X634304Y1115375D02*
X637804Y1118875D01*
X350320Y946439D02*
X376384Y920375D01*
X347550Y945292D02*
X375237Y917605D01*
X347550Y945292D02*
Y1018391D01*
X344780Y944145D02*
X374089Y914835D01*
X341780Y943227D02*
Y984776D01*
Y943227D02*
X366780Y918227D01*
X333010Y948145D02*
X335780Y945375D01*
Y927948D02*
X338301Y925428D01*
X335780Y927948D02*
Y945375D01*
X553990Y845085D02*
Y856509D01*
X548780Y839875D02*
X553990Y845085D01*
X404281Y975875D02*
X417781Y962375D01*
X570673Y998375D02*
Y1007375D01*
X574177Y1110272D02*
X587759Y1096691D01*
X649757Y1168435D02*
X668967Y1187645D01*
X635857Y1168435D02*
X649757D01*
X653280Y1175875D02*
X667820Y1190415D01*
X632859Y1169355D02*
X639379Y1175875D01*
X653280D01*
X594800Y1169355D02*
X632859D01*
X634007Y1166585D02*
X635857Y1168435D01*
X644007Y1165665D02*
X645527Y1164145D01*
X637004Y1165665D02*
X644007D01*
X635154Y1163815D02*
X637004Y1165665D01*
X592257Y1163815D02*
X635154D01*
X618280Y1176875D02*
X620780Y1174375D01*
X613780Y1176875D02*
X618280D01*
X636301Y1161045D02*
X638152Y1162895D01*
X574590Y1177565D02*
X591110Y1161045D01*
X575737Y1180335D02*
X592257Y1163815D01*
X576885Y1183105D02*
X593405Y1166585D01*
X578280Y1185875D02*
X594800Y1169355D01*
X593405Y1166585D02*
X634007D01*
X591110Y1161045D02*
X636301D01*
X629280Y1174875D02*
Y1176375D01*
X641780Y1186375D02*
X664780Y1209375D01*
X777280D01*
X799280Y1187375D01*
Y1165375D02*
Y1187375D01*
Y1165375D02*
X836280Y1128375D01*
Y1113875D02*
Y1128375D01*
X568280Y879375D02*
Y891875D01*
X582280Y880974D02*
X585701Y884395D01*
X582280Y876375D02*
Y880974D01*
X578050Y844145D02*
Y887645D01*
X568280Y891875D02*
X589280Y912875D01*
X562760Y893855D02*
X574280Y905375D01*
X562760Y860395D02*
X566800Y856355D01*
X562760Y860395D02*
Y893855D01*
X578050Y887645D02*
X586780Y896375D01*
X575280Y848474D02*
Y889375D01*
X618280Y1186375D02*
X628780Y1175875D01*
X841820Y903835D02*
X858820Y886835D01*
X843550Y906605D02*
X860550Y889605D01*
X858820Y886835D02*
X873568D01*
X876358Y884045D01*
X874715Y889605D02*
X877505Y886815D01*
X860550Y889605D02*
X874715D01*
X875863Y892375D02*
X878653Y889585D01*
X861697Y892375D02*
X875863D01*
X844697Y909375D02*
X861697Y892375D01*
X888363Y884045D02*
X898193Y893875D01*
X859280Y912875D02*
X879800Y892355D01*
X884859D01*
X878653Y889585D02*
X886007D01*
X877505Y886815D02*
X887154D01*
X876358Y884045D02*
X888363D01*
X893340Y893165D02*
X896820Y896645D01*
X893340Y893001D02*
Y893165D01*
X887154Y886815D02*
X893340Y893001D01*
X890570Y894648D02*
X895337Y899415D01*
X890570Y894148D02*
Y894648D01*
X886007Y889585D02*
X890570Y894148D01*
X887800Y895796D02*
X894189Y902185D01*
X887800Y895296D02*
Y895796D01*
X884859Y892355D02*
X887800Y895296D01*
X899341Y891105D02*
X927341D01*
X883591Y875355D02*
X899341Y891105D01*
X900488Y888335D02*
X928488D01*
X884738Y872585D02*
X900488Y888335D01*
X894215Y878145D02*
X908911D01*
X885885Y869815D02*
X894215Y878145D01*
X895363Y875375D02*
X907763D01*
X887033Y867045D02*
X895363Y875375D01*
X896477Y872572D02*
X924477D01*
X887923Y864018D02*
X896477Y872572D01*
X865800Y875355D02*
X883591D01*
X863570Y872585D02*
X884738D01*
X861840Y869815D02*
X885885D01*
X859610Y867045D02*
X887033D01*
X857637Y864018D02*
X887923D01*
X628780Y1175875D02*
X629280Y1176375D01*
X642859Y1162895D02*
X644379Y1161375D01*
X638152Y1162895D02*
X642859D01*
X355440Y1048752D02*
X358880Y1045312D01*
X349900Y1046458D02*
X353340Y1043018D01*
X344360Y1044163D02*
X347800Y1040723D01*
X1043530Y845125D02*
X1087030D01*
X633280Y999875D02*
X634780Y1001375D01*
X635280D01*
X635780D01*
X515280Y1003875D02*
X538780Y1027375D01*
X567280Y986875D02*
Y1011053D01*
Y968375D02*
Y986875D01*
X562673Y959375D02*
X580280Y976982D01*
Y991375D01*
X573280Y998375D02*
X580280Y991375D01*
X578054Y1068165D02*
X585507D01*
X579201Y1065395D02*
X584360D01*
X556751Y1035879D02*
X573280Y1052408D01*
Y1053375D01*
X595280Y1062875D02*
X614780D01*
X589247Y1056325D02*
X629780Y1015792D01*
X589247Y1056325D02*
X589247D01*
X589247D02*
X590070Y1057149D01*
Y1063602D01*
X585507Y1068165D02*
X590070Y1063602D01*
X584360Y1065395D02*
X587300Y1062455D01*
Y1058296D02*
Y1062455D01*
X586300Y1057296D02*
X587300Y1058296D01*
X586300Y1055355D02*
Y1057296D01*
X537780Y1020375D02*
X540280D01*
X537280Y1027375D02*
X538780D01*
X538280Y1002375D02*
X541780Y1005875D01*
X607780Y1127276D02*
Y1148875D01*
Y1127276D02*
X624701Y1110355D01*
X626800D02*
X628780Y1108375D01*
X624701Y1110355D02*
X626800D01*
X644379Y1161375D02*
X660780D01*
X645527Y1164145D02*
X659550D01*
X613780Y1186375D02*
X618280D01*
X586300Y1055355D02*
X627010Y1014645D01*
X614780Y1062875D02*
X614780Y1062875D01*
X576553Y1066665D02*
X578054Y1068165D01*
X576170Y1066665D02*
X576553D01*
X577701Y1063895D02*
X579201Y1065395D01*
X571869Y1063895D02*
X577701D01*
X563822Y1071942D02*
X571869Y1063895D01*
X567358Y1075477D02*
X576170Y1066665D01*
X627010Y981728D02*
Y1014645D01*
X629780Y982875D02*
Y1015792D01*
X602780Y1188375D02*
Y1201875D01*
Y1188375D02*
X604780Y1186375D01*
X597280Y1176875D02*
X604780D01*
X592780Y1181375D02*
X597280Y1176875D01*
X592780Y1181375D02*
Y1201875D01*
X502780Y1185875D02*
X578280D01*
X713363Y1202375D02*
X763280D01*
X667820Y1190415D02*
X701403D01*
X713363Y1202375D01*
X702550Y1187645D02*
X713071Y1198166D01*
X751489D01*
X668967Y1187645D02*
X702550D01*
X501633Y1183105D02*
X576885D01*
X680280Y1184875D02*
X719280D01*
X500485Y1180335D02*
X575737D01*
X659550Y1164145D02*
X680280Y1184875D01*
X681280Y1181875D02*
X724280D01*
X660780Y1161375D02*
X681280Y1181875D01*
X499338Y1177565D02*
X574590D01*
X805280Y1062875D02*
Y1071375D01*
X809780Y1075875D01*
X685780Y1051875D02*
X694780D01*
X681780Y1055875D02*
X685780Y1051875D01*
X681780Y1055875D02*
Y1061913D01*
X688273Y1068406D01*
X323280Y1050375D02*
X327280D01*
X318780Y1045875D02*
X323280Y1050375D01*
X313530Y1045875D02*
X318780D01*
X354363Y780375D02*
X733927D01*
X333510Y801228D02*
X354363Y780375D01*
X333510Y801228D02*
Y810645D01*
X330780Y813375D02*
X333510Y810645D01*
X355510Y783145D02*
X732780D01*
X336280Y802375D02*
X355510Y783145D01*
X336280Y802375D02*
Y829375D01*
X319563Y813375D02*
X330780D01*
X633280Y988342D02*
Y999875D01*
Y988342D02*
X638776Y982846D01*
X326082Y905375D02*
X326082D01*
X319280D02*
X326082D01*
X332780Y912073D01*
X544260Y1094795D02*
X552171Y1086885D01*
X549280Y1097776D02*
X558701Y1088355D01*
X544260Y1094795D02*
Y1107454D01*
X550260Y1113454D01*
Y1118355D01*
X549280Y1097776D02*
Y1105375D01*
X565280Y1110375D02*
X567816D01*
X555280Y1099375D02*
X560780Y1093875D01*
X555280Y1099375D02*
Y1100375D01*
X561280Y1094375D02*
X569673D01*
X560780Y1093875D02*
X561280Y1094375D01*
X550260Y1118355D02*
X582280Y1150375D01*
X562780Y1102375D02*
X566780Y1098375D01*
X561551Y1088355D02*
X570893Y1079013D01*
X552171Y1071544D02*
Y1086885D01*
X558701Y1088355D02*
X561551D01*
X552171Y1071544D02*
X556751Y1066964D01*
X614780Y1062875D02*
X628780Y1076875D01*
Y1108375D01*
X637804Y1118875D02*
X638776Y1117904D01*
X583780Y1129875D02*
Y1147958D01*
X498190Y1174795D02*
X572959D01*
X587300Y1160454D01*
X583780Y1147958D02*
X587300Y1151478D01*
Y1160454D01*
X582280Y1150375D02*
Y1158375D01*
X980780Y840875D02*
X993730Y853825D01*
Y860602D01*
X967780Y840375D02*
X981030Y853625D01*
Y860602D01*
X838379Y759875D02*
X979997D01*
X818359Y779895D02*
X838379Y759875D01*
X816260Y779895D02*
X818359D01*
X788780Y795375D02*
X811280Y772875D01*
X818280D01*
X799780Y796375D02*
Y810375D01*
Y796375D02*
X816260Y779895D01*
X874117Y762855D02*
X874137Y762875D01*
X862443Y762855D02*
X874117D01*
X862423Y762875D02*
X862443Y762855D01*
X849280Y762875D02*
X862423D01*
X838280Y773875D02*
X849280Y762875D01*
X843379Y821875D02*
X866879D01*
X843359Y821855D02*
X843379Y821875D01*
X839201Y821855D02*
X843359D01*
X839181Y821875D02*
X839201Y821855D01*
X794280Y821875D02*
X839181D01*
X866879D02*
X871300Y817454D01*
X788780Y816375D02*
X794280Y821875D01*
X849780Y808375D02*
X865780D01*
X979997Y759875D02*
X993730Y773608D01*
Y776148D01*
X977190Y762785D02*
X980530Y766125D01*
X913960Y765555D02*
X917030Y768625D01*
X900183Y765555D02*
X913960D01*
X874137Y762875D02*
X898946D01*
X899036Y762785D02*
X977190D01*
X898946Y762875D02*
X899036Y762785D01*
X900093Y765645D02*
X900183Y765555D01*
X896813Y765645D02*
X900093D01*
X883490Y778968D02*
X896813Y765645D01*
X892259Y794396D02*
X922759D01*
X871300Y815355D02*
X892259Y794396D01*
X875133Y833105D02*
X911072Y797166D01*
X924165D01*
X912219Y799936D02*
X925313D01*
X876280Y835875D02*
X912219Y799936D01*
X898193Y893875D02*
X925132D01*
X898908Y773648D02*
X904330D01*
X812280Y796875D02*
Y808375D01*
Y796875D02*
X818280Y790875D01*
X825280D01*
X838280Y777875D01*
Y773875D02*
Y777875D01*
X980530Y766125D02*
Y774648D01*
X917030Y768625D02*
Y774648D01*
X883490Y778968D02*
Y785165D01*
X871780Y796875D02*
X883490Y785165D01*
X843780Y796875D02*
X871780D01*
X837280Y803375D02*
X843780Y796875D01*
X837280Y803375D02*
Y808375D01*
X886260Y786296D02*
X898908Y773648D01*
X886260Y786296D02*
Y787895D01*
X865780Y808375D02*
X886260Y787895D01*
X871300Y815355D02*
Y817454D01*
X788780Y795375D02*
Y816375D01*
X762780Y822875D02*
X769280D01*
X779510Y833105D01*
X875133D01*
X763780Y835875D02*
X876280D01*
X744780Y816875D02*
X763780Y835875D01*
X748280Y808375D02*
X762780Y822875D01*
X733927Y780375D02*
X748280Y794728D01*
Y808375D01*
X744800Y795165D02*
Y804761D01*
X732780Y783145D02*
X744800Y795165D01*
X744780Y804781D02*
Y816875D01*
Y804781D02*
X744800Y804761D01*
X1004115Y804375D02*
X1019780D01*
Y835875D01*
X924477Y872572D02*
X972780Y920875D01*
X923330Y875342D02*
X969780Y921792D01*
X922182Y878112D02*
X966360Y922290D01*
X908944Y878112D02*
X922182D01*
X907796Y875342D02*
X923330D01*
X907763Y875375D02*
X907796Y875342D01*
X908911Y878145D02*
X908944Y878112D01*
X928488Y888335D02*
X963590Y923437D01*
X927341Y891105D02*
X960820Y924584D01*
X894189Y902185D02*
X921689D01*
X895337Y899415D02*
X922837D01*
X923984Y896645D02*
X955280Y927941D01*
X896820Y896645D02*
X923984D01*
X925132Y893875D02*
X958050Y926794D01*
X344300Y900355D02*
X370800D01*
X342760Y901896D02*
X344300Y900355D01*
X329701Y901896D02*
X342760D01*
X325780Y897974D02*
X329701Y901896D01*
X325780Y897575D02*
Y897974D01*
X380280Y890875D02*
X387181D01*
X370800Y900355D02*
X380280Y890875D01*
X344780Y905375D02*
X347780D01*
X651780Y1017875D02*
X659280Y1025375D01*
X891201Y1016855D02*
X900859D01*
X887760Y1020296D02*
X891201Y1016855D01*
X887760Y1020296D02*
Y1024454D01*
X888780Y1025474D01*
Y1076375D01*
X892780Y1022375D02*
X932280D01*
X900859Y1016855D02*
X900879Y1016875D01*
X884280Y1174270D02*
X904000Y1193990D01*
X884280Y1098375D02*
Y1174270D01*
Y1098375D02*
X906280Y1076375D01*
X1027050Y1072911D02*
Y1102145D01*
X1030280Y1072224D02*
Y1092375D01*
X1033354Y1071381D02*
Y1082949D01*
X1028219Y1070163D02*
X1030280Y1072224D01*
X1030989Y1069016D02*
X1033354Y1071381D01*
X1022679Y1065774D02*
Y1101774D01*
X1010050Y1049228D02*
X1025449Y1064627D01*
X1013780Y1049040D02*
X1028219Y1063480D01*
X1019780Y1051123D02*
X1030989Y1062332D01*
X1007280Y1050375D02*
X1022679Y1065774D01*
X1025449Y1071311D02*
X1027050Y1072911D01*
X1025449Y1064627D02*
Y1071311D01*
X1028219Y1063480D02*
Y1070163D01*
X1030989Y1062332D02*
Y1069016D01*
X1019780Y1020375D02*
Y1051123D01*
X1013780Y1018292D02*
Y1049040D01*
X1010050Y1034327D02*
Y1049228D01*
X1007280Y1035474D02*
Y1050375D01*
X622780Y1201875D02*
Y1215375D01*
X556751Y1064871D02*
Y1066964D01*
X612780Y1201875D02*
Y1215875D01*
X496111Y1176875D02*
X498190Y1174795D01*
X490280Y1176875D02*
X496111D01*
X495028Y1181875D02*
X499338Y1177565D01*
X494052Y1181875D02*
X495028D01*
X495945Y1184875D02*
X500485Y1180335D01*
X495295Y1184875D02*
X495945D01*
X496633Y1188105D02*
X501633Y1183105D01*
X495982Y1188105D02*
X496633D01*
X479625Y1209030D02*
X502780Y1185875D01*
X477942Y1206145D02*
X495982Y1188105D01*
X476795Y1203375D02*
X495295Y1184875D01*
X476052Y1199875D02*
X494052Y1181875D01*
X470146Y1197009D02*
X490280Y1176875D01*
X843775Y1227381D02*
X852274D01*
X858780Y1220875D01*
Y1106375D02*
Y1220875D01*
Y1106375D02*
X888780Y1076375D01*
X900879Y1016875D02*
X933863D01*
X981780Y1009974D02*
X1007280Y1035474D01*
X980550Y981145D02*
X1019780Y1020375D01*
X977780Y982292D02*
X1013780Y1018292D01*
X589280Y912875D02*
X859280D01*
X833900Y892755D02*
X859610Y867045D01*
X836130Y895525D02*
X861840Y869815D01*
X837860Y898295D02*
X863570Y872585D01*
X840090Y901065D02*
X865800Y875355D01*
X605780Y896375D02*
X616010Y906605D01*
X817170Y889985D02*
X831280Y875875D01*
X642390Y889985D02*
X817170D01*
X637280Y884875D02*
X642390Y889985D01*
X640660Y892755D02*
X833900D01*
X633280Y885375D02*
X640660Y892755D01*
X634010Y895525D02*
X836130D01*
X627780Y889295D02*
X634010Y895525D01*
X632510Y898295D02*
X837860D01*
X624280Y890065D02*
X632510Y898295D01*
X629720Y901065D02*
X840090D01*
X620280Y891625D02*
X629720Y901065D01*
X627740Y903835D02*
X841820D01*
X617280Y893375D02*
X627740Y903835D01*
X616010Y906605D02*
X843550D01*
X614863Y909375D02*
X844697D01*
X605363Y899875D02*
X614863Y909375D01*
X566800Y850296D02*
Y856355D01*
X574780Y840875D02*
X578050Y844145D01*
X575280Y889375D02*
X585780Y899875D01*
X569760Y842954D02*
X575280Y848474D01*
X656453Y1000524D02*
X668280Y988697D01*
Y984375D02*
Y988697D01*
Y984375D02*
X678010Y974645D01*
X617280Y971875D02*
X636670Y952485D01*
X657302Y958875D02*
X660922Y955255D01*
X658220Y961875D02*
X662070Y958025D01*
X659137Y964875D02*
X663217Y960795D01*
X660054Y967875D02*
X664364Y963565D01*
X660972Y970875D02*
X665512Y966335D01*
X645847Y989917D02*
X666659Y969105D01*
X649382Y993453D02*
X670960Y971875D01*
X898780Y998875D02*
Y1004375D01*
X906780Y1012375D01*
X931780D01*
X941800Y958296D02*
Y993855D01*
X928010Y1007645D02*
X941800Y993855D01*
X930780Y955875D02*
X931300Y955355D01*
X937780Y925375D02*
Y932375D01*
X1026780Y895375D02*
X1030780Y899375D01*
X1042780D01*
X1038280Y850375D02*
Y862375D01*
X1032280Y868375D02*
X1038280Y862375D01*
X1028780Y868375D02*
X1032280D01*
X1019280Y877875D02*
X1028780Y868375D01*
X1019280Y877875D02*
Y901875D01*
X1028780Y911375D01*
X651780Y1012268D02*
Y1017875D01*
Y1012268D02*
X659989Y1004060D01*
X675316Y1002875D02*
X691280D01*
X667060Y1011131D02*
X675316Y1002875D01*
X411780Y946375D02*
X558780D01*
X416780Y949375D02*
X557280D01*
X674159Y1125002D02*
Y1140810D01*
X652918Y1103762D02*
X674159Y1125002D01*
X650674Y1087375D02*
X659989Y1096691D01*
X645780Y1087375D02*
X650674D01*
X595642Y1103762D02*
X603780Y1095624D01*
Y1090375D02*
Y1095624D01*
X677120Y1064324D02*
X684738Y1071942D01*
X677120Y1054715D02*
Y1064324D01*
X672280Y1049875D02*
X677120Y1054715D01*
X665280Y1049875D02*
X672280D01*
X592280Y1121266D02*
X602713Y1110833D01*
X592280Y1121266D02*
Y1121375D01*
X583280Y1109053D02*
X592107Y1100226D01*
X583280Y1109053D02*
Y1112375D01*
X575280Y1120375D02*
X583280Y1112375D01*
X587100Y1119375D02*
X599178Y1107297D01*
X585780Y1119375D02*
X587100D01*
X587759Y1096691D02*
X588571D01*
X574177Y1110272D02*
X575017D01*
X567816Y1110375D02*
X585036Y1093155D01*
X572744Y1098375D02*
X581500Y1089619D01*
X566780Y1098375D02*
X572744D01*
X569673Y1094375D02*
X577965Y1086084D01*
X583780Y1129875D02*
X592280Y1121375D01*
X399914Y1197009D02*
X470146D01*
X381780Y1178875D02*
X399914Y1197009D01*
X907550Y1007645D02*
X928010D01*
X902010Y1002105D02*
X907550Y1007645D01*
X902010Y997105D02*
Y1002105D01*
X634780Y958875D02*
X657302D01*
X637863Y961875D02*
X658220D01*
X638780Y964875D02*
X659137D01*
X640863Y967875D02*
X660054D01*
X641780Y970875D02*
X660972D01*
X620780Y978958D02*
X637863Y961875D01*
X610809Y982846D02*
X634780Y958875D01*
X629780Y982875D02*
X641780Y970875D01*
X627010Y981728D02*
X640863Y967875D01*
X623780Y979875D02*
X638780Y964875D01*
X936780Y960375D02*
Y993875D01*
X925780Y1004875D02*
X936780Y993875D01*
X909280Y1004875D02*
X925780D01*
X904780Y1000375D02*
X909280Y1004875D01*
X904780Y995375D02*
Y1000375D01*
X891550Y982145D02*
X904780Y995375D01*
X893280Y979375D02*
X913280Y999375D01*
X1126280Y814375D02*
X1132769D01*
X1136273Y810871D01*
X810780Y860375D02*
X843280D01*
X851780Y851875D01*
X865280D01*
X600780Y971875D02*
X617280D01*
X599280Y973375D02*
X600780Y971875D01*
X599280Y973375D02*
Y979413D01*
X606249Y986382D01*
X609784Y982846D02*
X610809D01*
X620780Y978958D02*
Y1003375D01*
X590780Y1033375D02*
X620780Y1003375D01*
X582531Y1033375D02*
X590780D01*
X570893Y1021737D02*
X582531Y1033375D01*
X623780Y979875D02*
Y1004875D01*
X592280Y1036375D02*
X623780Y1004875D01*
X578460Y1036375D02*
X592280D01*
X567358Y1025273D02*
X578460Y1036375D01*
X569760Y836776D02*
X574161Y832375D01*
X589280D01*
X602300Y845395D01*
X617393D01*
X624780Y852782D01*
X615760Y848355D02*
X618780Y851375D01*
X594260Y848355D02*
X615760D01*
X586780Y840875D02*
X594260Y848355D01*
X612280Y840375D02*
X617280Y835375D01*
X633280Y864375D02*
Y885375D01*
X628280Y859375D02*
X633280Y864375D01*
X622280Y859375D02*
X628280D01*
X618780Y855875D02*
X622280Y859375D01*
X618780Y851375D02*
Y855875D01*
X569760Y836776D02*
Y842954D01*
X557280Y789375D02*
X566800Y798895D01*
Y804454D01*
X566780Y850276D02*
X566800Y850296D01*
X566780Y804474D02*
Y850276D01*
Y804474D02*
X566800Y804454D01*
X585780Y899875D02*
X605363D01*
X617280Y884375D02*
Y893375D01*
X620280Y882875D02*
Y891625D01*
X624280Y878375D02*
Y890065D01*
X627780Y876875D02*
Y889295D01*
X637280Y842875D02*
Y884875D01*
X586780Y896375D02*
X605780D01*
X913280Y1076375D02*
X916280Y1073375D01*
X906280Y1076375D02*
X913280D01*
X472780Y789375D02*
X557280D01*
X413142Y959375D02*
X562673D01*
X561280Y962375D02*
X567280Y968375D01*
X417781Y962375D02*
X561280D01*
X567280Y1011053D02*
X574429Y1018202D01*
X570673Y1007375D02*
X577965Y1014666D01*
X288380Y859975D02*
X298180D01*
X287781Y859376D02*
X288380Y859975D01*
X280780Y860375D02*
X285380Y864975D01*
X280780Y835375D02*
Y860375D01*
X274780Y863875D02*
X280880Y869975D01*
X292380Y854975D02*
X298180D01*
X289781Y852376D02*
X292380Y854975D01*
X289781Y849376D02*
Y852376D01*
X269280Y1055875D02*
Y1060375D01*
Y1051375D02*
Y1055875D01*
X282530D02*
X283030Y1055375D01*
X269280Y1055875D02*
X282530D01*
X754780Y1148375D02*
X756780Y1150375D01*
Y1174875D01*
X739780Y1191875D02*
X756780Y1174875D01*
X735280Y1191875D02*
X739780D01*
X719280Y1184875D02*
X736780D01*
X719280D02*
X726280Y1191875D01*
X504280Y1139375D02*
X504780Y1139875D01*
X495780Y1139375D02*
X504280D01*
X504280Y1148375D02*
X504780Y1147875D01*
X495780Y1148375D02*
X504280D01*
X449280Y1139875D02*
X449780Y1139375D01*
X440780Y1139875D02*
X449280D01*
X449280Y1147875D02*
X449780Y1148375D01*
X440780Y1147875D02*
X449280D01*
X1098780Y1116375D02*
X1107780D01*
X1093280Y1121875D02*
X1098780Y1116375D01*
X1083780Y1121875D02*
X1093280D01*
X1097780Y1111375D02*
X1107780D01*
X1095780Y1113375D02*
X1097780Y1111375D01*
X1083780Y1113375D02*
X1095780D01*
X516080Y983075D02*
X540480D01*
X541280Y983875D01*
X506780Y982875D02*
X512280Y977375D01*
X541280D01*
X487780Y982875D02*
X498280Y972375D01*
X459680Y983775D02*
X469680D01*
X474780Y988875D01*
X537280D01*
X543780Y995375D01*
Y997375D01*
X450780Y985375D02*
X451280D01*
X457550Y991645D01*
X532550D01*
X538280Y997375D01*
Y1002375D01*
X498280Y972375D02*
X547780D01*
X431880Y983275D02*
X437680D01*
X449780Y995375D01*
X523780D01*
X537780Y1009375D01*
Y1011875D01*
X439080Y999375D02*
X516780D01*
X537780Y1020375D01*
X432780Y1003875D02*
X515280D01*
X478680Y982975D02*
X493550Y968105D01*
X554705D01*
X556780Y970180D01*
X1011590Y1177570D02*
X1026080Y1163079D01*
Y1129901D02*
Y1163079D01*
X1014589Y1118410D02*
X1026080Y1129901D01*
X975920Y1118410D02*
X1014589D01*
X985837Y1177570D02*
X1011590D01*
X995500Y1184110D02*
X1014298D01*
X1032620Y1165788D01*
Y1127192D02*
Y1165788D01*
X1017298Y1111870D02*
X1032620Y1127192D01*
X987880Y1111870D02*
X1017298D01*
X1015446Y1186880D02*
X1035390Y1166936D01*
Y1126044D02*
Y1166936D01*
X1018446Y1109100D02*
X1035390Y1126044D01*
X997610Y1109100D02*
X1018446D01*
X999610Y1186880D02*
X1015446D01*
X1006500Y1189990D02*
X1006840Y1189650D01*
X1016593D01*
X1038500Y1167743D01*
Y1125237D02*
Y1167743D01*
X1019253Y1105990D02*
X1038500Y1125237D01*
X1004500Y1189990D02*
X1006500D01*
X984690Y1174800D02*
X1010442D01*
X1023310Y1161932D01*
Y1131048D02*
Y1161932D01*
X1013442Y1121180D02*
X1023310Y1131048D01*
X956690Y1121180D02*
X1013442D01*
X983377Y1172030D02*
X1009295D01*
X1020540Y1160785D01*
Y1132195D02*
Y1160785D01*
X1012295Y1123950D02*
X1020540Y1132195D01*
X968000Y1187407D02*
Y1209990D01*
Y1187407D02*
X983377Y1172030D01*
X973095Y1186395D02*
X984690Y1174800D01*
X973095Y1186395D02*
Y1205085D01*
X983000Y1180407D02*
X985837Y1177570D01*
X983000Y1180407D02*
Y1205990D01*
X992905Y1186705D02*
X995500Y1184110D01*
X992905Y1186705D02*
Y1204585D01*
X997999Y1188492D02*
X999610Y1186880D01*
X997999Y1188492D02*
Y1209989D01*
X1003018Y1191471D02*
Y1215972D01*
X1003000Y1215990D02*
X1003018Y1215972D01*
Y1191471D02*
X1004500Y1189990D01*
X1000000Y1088990D02*
Y1097990D01*
X1008000Y1105990D01*
X1019253D01*
X989000Y1100490D02*
X997610Y1109100D01*
X989000Y1088990D02*
Y1100490D01*
X978000Y1088990D02*
Y1101990D01*
X987880Y1111870D01*
X956000Y1098490D02*
X975920Y1118410D01*
X956000Y1088990D02*
Y1098490D01*
X934000Y1098490D02*
X956690Y1121180D01*
X934000Y1088990D02*
Y1098490D01*
X904000Y1193990D02*
Y1204490D01*
X904500Y1204990D01*
X458500Y1183490D02*
Y1191989D01*
X486115Y1155875D02*
X488780D01*
X458500Y1183490D02*
X486115Y1155875D01*
X737780D02*
Y1168375D01*
X724280Y1181875D02*
X737780Y1168375D01*
X736780Y1184875D02*
X745780Y1175875D01*
X763280Y1202375D02*
X789780Y1175875D01*
X529780Y862375D02*
X532280Y859875D01*
X544780D01*
X548673Y855982D01*
Y852875D02*
Y855982D01*
X555280Y834375D02*
X559780Y838875D01*
X542780Y834375D02*
X555280D01*
X536473Y840682D02*
X542780Y834375D01*
X536473Y840682D02*
Y853375D01*
X559780Y857475D02*
Y890375D01*
Y838875D02*
Y847277D01*
X553990Y856509D02*
X556280Y858799D01*
X556760Y850296D02*
Y854455D01*
Y850296D02*
X559780Y847277D01*
X556760Y854455D02*
X559780Y857475D01*
X1110780Y941375D02*
X1111280Y941875D01*
X1128780D01*
X1115800Y929375D02*
X1128780D01*
X471280Y823375D02*
X480780Y813875D01*
X548280D01*
X559780Y802375D01*
X561780D01*
X478780Y809875D02*
X541280D01*
X548780Y802375D01*
X467197Y877875D02*
X483781D01*
X484781Y876876D01*
X496781D02*
X497280Y877375D01*
X510780Y865875D02*
X517280Y872375D01*
Y881875D01*
X485280Y828375D02*
Y848375D01*
X498273Y827875D02*
Y840882D01*
X471280Y823375D02*
Y857375D01*
X467780Y820875D02*
Y855375D01*
Y820875D02*
X478780Y809875D01*
X338380Y854975D02*
X353880D01*
X338380Y859975D02*
X353880D01*
X338380Y864975D02*
X353880D01*
X338380Y869975D02*
X352880D01*
X338380Y874975D02*
X351880D01*
X338380Y879975D02*
X350380D01*
X338380Y884975D02*
X348380D01*
X1083280Y922375D02*
X1101280D01*
X1101780Y921875D01*
X1042780Y899375D02*
X1060280D01*
X1060780Y899875D01*
X1039780Y890375D02*
X1042780D01*
X1034780Y885375D02*
X1039780Y890375D01*
X1034780Y878875D02*
Y885375D01*
X1028780Y920375D02*
X1028780D01*
X1037780Y911375D01*
X1041780Y907375D01*
X1053280D01*
X1038280Y850375D02*
X1043530Y845125D01*
X922780Y1071875D02*
Y1088770D01*
X923000Y1088990D01*
X934280Y1071875D02*
Y1088710D01*
X934000Y1088990D02*
X934280Y1088710D01*
X956280Y1071875D02*
Y1088710D01*
X956000Y1088990D02*
X956280Y1088710D01*
X978280Y1071875D02*
Y1088710D01*
X978000Y1088990D02*
X978280Y1088710D01*
X988780Y1071875D02*
Y1088770D01*
X989000Y1088990D01*
X1000280Y1071875D02*
Y1088710D01*
X1000000Y1088990D02*
X1000280Y1088710D01*
X587780Y879375D02*
X591280Y875875D01*
X596280Y884395D02*
X599780Y880895D01*
X585701Y884395D02*
X596280D01*
X582280Y876375D02*
X586280Y872375D01*
X587280Y853375D02*
X599280D01*
X608780Y875875D02*
X617280Y884375D01*
X591280Y875875D02*
X608780D01*
X609780Y872375D02*
X620280Y882875D01*
X586280Y872375D02*
X609780D01*
X599280Y853375D02*
X624280Y878375D01*
X612780Y861875D02*
X627780Y876875D01*
X612780Y853375D02*
Y861875D01*
X617280Y835375D02*
X629780D01*
X637280Y842875D01*
X831280Y875875D02*
X845780D01*
X857637Y864018D01*
X365280Y1173875D02*
X391280Y1199875D01*
X476052D01*
X389780Y1203375D02*
X476795D01*
X334780Y1101375D02*
Y1150875D01*
X328780Y1144375D02*
Y1154875D01*
X333280Y1159375D01*
X660962Y1149057D02*
X665912D01*
X674159Y1140810D01*
X670167Y1113940D02*
X678401D01*
X656453Y1100226D02*
X670167Y1113940D01*
X685466Y1106875D02*
X691780D01*
X678401Y1113940D02*
X685466Y1106875D01*
X609784Y1117904D02*
X621280Y1106408D01*
X672100Y1066375D02*
X681202Y1075477D01*
X673280Y1040266D02*
X684738Y1028808D01*
X606249Y1114368D02*
X616260Y1104357D01*
Y1101895D02*
Y1104357D01*
Y1101895D02*
X619780Y1098375D01*
X671029Y1072375D02*
X677667Y1079013D01*
X667780Y1072375D02*
X671029D01*
X665780Y1070375D02*
X667780Y1072375D01*
X665780Y1058875D02*
Y1070375D01*
Y1058875D02*
X668780Y1055875D01*
X1052280Y1139875D02*
X1074780D01*
X990280Y1010375D02*
Y1014557D01*
X1022679Y1101774D02*
X1046780Y1125875D01*
Y1134375D01*
X1052280Y1139875D01*
X1055780Y1130875D02*
X1074780D01*
X1027050Y1102145D02*
X1055780Y1130875D01*
X1063780Y1113375D02*
X1074780D01*
X285380Y864975D02*
X298180D01*
X1033354Y1082949D02*
X1063780Y1113375D01*
X1059780Y1121875D02*
X1074780D01*
X1030280Y1092375D02*
X1059780Y1121875D01*
X990280Y1014557D02*
X1010050Y1034327D01*
X280880Y869975D02*
X298180D01*
X843775Y1227381D02*
Y1234870D01*
X847780Y1238875D01*
X852780D01*
X278780Y882875D02*
X283780D01*
X291280Y890375D01*
Y893875D01*
X278780Y891875D02*
X284280D01*
X313280Y956375D02*
X326280D01*
X269780Y891875D02*
Y894875D01*
X313280Y943875D02*
X325280D01*
X518010Y898145D02*
X529780Y886375D01*
Y862375D02*
Y886375D01*
X785780Y1155875D02*
Y1163875D01*
X751489Y1198166D02*
X785780Y1163875D01*
X388633Y1206145D02*
X477942D01*
X526240Y900915D02*
X536273Y890882D01*
Y865875D02*
Y890882D01*
X532970Y903685D02*
X556280Y880375D01*
Y858799D02*
Y880375D01*
X543700Y906455D02*
X559780Y890375D01*
X416452Y906455D02*
X543700D01*
X415305Y903685D02*
X532970D01*
X414157Y900915D02*
X526240D01*
X413010Y898145D02*
X518010D01*
X353880Y854975D02*
X369780Y870875D01*
X452280D01*
X467780Y855375D01*
X508280Y890875D02*
X517280Y881875D01*
X348380Y884975D02*
X351510Y888105D01*
X502550D02*
X510780Y879875D01*
X350380Y879975D02*
X355740Y885335D01*
X488321D02*
X496781Y876876D01*
X351880Y874975D02*
X359470Y882565D01*
X462507D02*
X467197Y877875D01*
X352880Y869975D02*
X362700Y879795D01*
X459360D02*
X498273Y840882D01*
X353880Y864975D02*
X365930Y877025D01*
X456630D02*
X485280Y848375D01*
X353880Y859975D02*
X368160Y874255D01*
X454400D02*
X471280Y857375D01*
X389280Y895875D02*
Y900792D01*
X387181Y890875D02*
X387201Y890855D01*
X391359D01*
X391379Y890875D01*
X508280D01*
X351510Y888105D02*
X386033D01*
X386053Y888085D01*
X392507D01*
X392527Y888105D01*
X502550D01*
X355740Y885335D02*
X384886D01*
X384906Y885315D01*
X393654D01*
X393674Y885335D01*
X488321D01*
X359470Y882565D02*
X383739D01*
X383759Y882545D01*
X394801D01*
X394822Y882565D01*
X462507D01*
X362700Y879795D02*
X382591D01*
X382611Y879775D01*
X395949D01*
X395969Y879795D01*
X459360D01*
X365930Y877025D02*
X381444D01*
X381464Y877005D01*
X397096D01*
X397116Y877025D01*
X456630D01*
X368160Y874255D02*
X380297D01*
X380317Y874235D01*
X398244D01*
X398264Y874255D01*
X454400D01*
X397615Y896375D02*
X401395D01*
X395032Y902875D02*
X408280D01*
X413010Y898145D01*
X396180Y905645D02*
X409427D01*
X414157Y900915D01*
X397327Y908415D02*
X410575D01*
X415305Y903685D01*
X398474Y911185D02*
X411722D01*
X416452Y906455D01*
X356240Y1177670D02*
X387600Y1209030D01*
X479625D01*
X313530Y1064875D02*
X316780D01*
X320780Y1068875D01*
X327280D01*
X319510Y1163022D02*
X372633Y1216145D01*
X544510D02*
X553780Y1206875D01*
X372633Y1216145D02*
X544510D01*
X269280Y1042375D02*
X273780Y1037875D01*
X283030D01*
X1013780Y817958D02*
Y906645D01*
X980550Y939875D02*
X1013780Y906645D01*
X980550Y939875D02*
Y981145D01*
X1000780Y809375D02*
Y914375D01*
X977780Y937375D02*
X1000780Y914375D01*
X977780Y937375D02*
Y982292D01*
X930230Y860602D02*
Y868825D01*
X937780Y876375D01*
X964280D01*
X968330Y872325D01*
Y860602D02*
Y872325D01*
X964280Y876375D02*
Y884375D01*
X963780Y884875D02*
X964280Y884375D01*
X280780Y835375D02*
X290260Y825895D01*
X307043D01*
X319563Y813375D01*
X315780Y827375D02*
X324780Y836375D01*
X325780Y837375D01*
Y847375D01*
X337780D01*
X342280Y842875D01*
X351780D01*
X325280Y943875D02*
X326510Y942645D01*
X325280Y1142334D02*
Y1162375D01*
X375780Y1212875D01*
X481280D01*
X505280Y1188875D01*
X519780D01*
X523280Y1192375D01*
X269780Y894875D02*
X280760Y905855D01*
X284280Y891875D02*
X295490Y903085D01*
X291280Y893875D02*
X297720Y900315D01*
X299985Y910415D02*
X309320D01*
X301133Y907645D02*
X311050D01*
X299570Y906082D02*
X301133Y907645D01*
X296800Y907230D02*
X299985Y910415D01*
X308280Y904875D02*
X310780Y902375D01*
Y897575D02*
Y902375D01*
X296800Y907038D02*
Y907230D01*
X295617Y905855D02*
X296800Y907038D01*
X280760Y905855D02*
X295617D01*
X299570Y905891D02*
Y906082D01*
X296764Y903085D02*
X299570Y905891D01*
X295490Y903085D02*
X296764D01*
X302472Y904875D02*
X308280D01*
X297720Y900315D02*
X297911D01*
X302472Y904875D01*
X338301Y911854D02*
X344780Y905375D01*
X357691Y1068744D02*
Y1085540D01*
X354921Y1069891D02*
Y1086688D01*
X349381Y1072186D02*
Y1088983D01*
X346611Y1073333D02*
Y1090130D01*
X344317Y1071040D02*
X346611Y1073333D01*
X347087Y1069892D02*
X349381Y1072186D01*
X347087Y1068011D02*
Y1069892D01*
X355440Y1062901D02*
Y1066493D01*
X355397Y1062858D02*
X355440Y1062901D01*
X352627Y1064006D02*
X352670Y1064048D01*
Y1067640D01*
X349857Y1065153D02*
X349900Y1065195D01*
Y1068788D01*
X347087Y1066300D02*
X347130Y1066343D01*
Y1067969D01*
X347087Y1068011D02*
X347130Y1067969D01*
X355440Y1066493D02*
X357691Y1068744D01*
X352670Y1067640D02*
X354921Y1069891D01*
X349900Y1068788D02*
X352151Y1071038D01*
X319510Y1143145D02*
Y1163022D01*
X334780Y1101375D02*
X338777Y1097378D01*
X328780Y1144375D02*
X332010Y1141145D01*
X329240Y1086185D02*
Y1138374D01*
X325280Y1142334D02*
X329240Y1138374D01*
X326470Y1069685D02*
Y1136185D01*
X319510Y1143145D02*
X326470Y1136185D01*
Y1069685D02*
X327280Y1068875D01*
X329240Y1086185D02*
X332780Y1082645D01*
X332010Y1087332D02*
X335780Y1083562D01*
X332010Y1087332D02*
Y1141145D01*
X337550Y1102522D02*
X341547Y1098525D01*
X337550Y1102522D02*
Y1140145D01*
X341780Y1144375D01*
X581389Y1046375D02*
X583780D01*
X563822Y1028808D02*
X581389Y1046375D01*
X346611Y1090130D02*
X346611Y1090130D01*
X352840Y1113435D02*
Y1145816D01*
X357691Y1085540D02*
X365280Y1093130D01*
X354921Y1086688D02*
X362341Y1094108D01*
Y1175936D02*
X389780Y1203375D01*
X352151Y1071038D02*
Y1087835D01*
X359571Y1095255D01*
Y1177083D02*
X388633Y1206145D01*
X349381Y1088983D02*
X356801Y1096403D01*
X356240Y1106789D02*
X356801Y1106229D01*
Y1096403D02*
Y1106229D01*
X346611Y1090130D02*
Y1107206D01*
X352840Y1113435D01*
X350281Y1148375D02*
X352840Y1145816D01*
X356240Y1106789D02*
Y1177670D01*
X359571Y1095255D02*
Y1177083D01*
X362341Y1094108D02*
Y1175936D01*
X365280Y1093130D02*
Y1173875D01*
X381780Y1178875D02*
X384030Y1176625D01*
Y1141355D02*
Y1176625D01*
X326280Y956375D02*
X327470Y955185D01*
X332780Y1039145D02*
Y1082645D01*
X355397Y1052387D02*
Y1062858D01*
Y1052387D02*
X355440Y1052344D01*
Y1048752D02*
Y1052344D01*
X352670Y1047605D02*
X356110Y1044165D01*
X352670Y1047605D02*
Y1051197D01*
X352627Y1051240D02*
X352670Y1051197D01*
X352627Y1051240D02*
Y1064006D01*
X349900Y1046458D02*
Y1050050D01*
X349857Y1050092D02*
X349900Y1050050D01*
X349857Y1050092D02*
Y1065153D01*
X347130Y1045310D02*
X350570Y1041870D01*
X347130Y1045310D02*
Y1048902D01*
X347087Y1048945D02*
X347130Y1048902D01*
X347087Y1048945D02*
Y1066300D01*
X344317Y1047797D02*
Y1071040D01*
Y1047797D02*
X344360Y1047755D01*
Y1044163D02*
Y1047755D01*
X341547Y1044533D02*
X341590Y1044576D01*
Y1046608D01*
X341547Y1046650D02*
X341590Y1046608D01*
X341547Y1046650D02*
Y1098525D01*
X332050Y1038415D02*
X332780Y1039145D01*
X309320Y910415D02*
X326510Y927605D01*
Y942645D01*
X311050Y907645D02*
X329280Y925875D01*
X330240Y946998D02*
X332780Y944458D01*
Y912073D02*
Y944458D01*
X327470Y945850D02*
X329280Y944040D01*
Y925875D02*
Y944040D01*
X327470Y945850D02*
Y955185D01*
X922780Y1050875D02*
Y1062875D01*
X928343Y1041395D02*
X928359D01*
X922780Y1050875D02*
X929490Y1044165D01*
X929507D01*
X958050Y1015622D01*
X916280Y1053458D02*
X928343Y1041395D01*
X928359D02*
X955280Y1014474D01*
Y927941D02*
Y1014474D01*
X916280Y1053458D02*
Y1073375D01*
X958050Y926794D02*
Y1015622D01*
X956280Y1025375D02*
Y1062875D01*
Y1025375D02*
X963590Y1018065D01*
Y923437D02*
Y1018065D01*
X960820Y924584D02*
Y1016918D01*
X934280Y1043458D02*
X960820Y1016918D01*
X934280Y1043458D02*
Y1062875D01*
X1000280D02*
X1000300Y1062856D01*
X966360Y922290D02*
Y1008455D01*
X978280Y1020375D01*
Y1062875D01*
X969780Y921792D02*
Y1007958D01*
X972780Y920875D02*
Y1007040D01*
X1000300Y1034560D01*
X969780Y1007958D02*
X988780Y1026958D01*
Y1062875D01*
X1000300Y1034560D02*
Y1062856D01*
X981780Y1009974D02*
X982280Y1009475D01*
Y1001875D02*
Y1009475D01*
X923000Y1088990D02*
Y1096595D01*
X950355Y1123950D01*
X1012295D01*
X1083280Y922375D02*
Y939375D01*
X1081280Y941375D02*
X1083280Y939375D01*
X1081280Y941375D02*
Y978875D01*
X1076280Y983875D02*
X1081280Y978875D01*
X1055280Y983875D02*
X1076280D01*
X1031780Y960375D02*
X1055280Y983875D01*
X1010280Y960375D02*
X1031780D01*
X1009780Y960875D02*
X1010280Y960375D01*
X936800Y933355D02*
X937780Y932375D01*
X933697Y940375D02*
X936780D01*
X931260Y938796D02*
Y938895D01*
Y938796D02*
X936701Y933355D01*
X936800D01*
X931300Y955355D02*
X938859D01*
X941800Y958296D01*
X952340Y928918D02*
Y1002315D01*
X949570Y930065D02*
Y1001168D01*
X946800Y935835D02*
Y997355D01*
X942800Y931835D02*
X946800Y935835D01*
X931780Y1012375D02*
X946800Y997355D01*
X921689Y902185D02*
X949570Y930065D01*
X933863Y1016875D02*
X949570Y1001168D01*
X922837Y899415D02*
X952340Y928918D01*
X932280Y1022375D02*
X952340Y1002315D01*
X941759Y950855D02*
X941780Y950875D01*
X927135Y950855D02*
X941759D01*
X887590Y987685D02*
X898780Y998875D01*
X889820Y984915D02*
X902010Y997105D01*
X902510Y967645D02*
X931260Y938895D01*
X903657Y970415D02*
X933697Y940375D01*
X904805Y973185D02*
X927135Y950855D01*
X899360Y975955D02*
X922280Y998875D01*
X636670Y952485D02*
X862390D01*
X874780Y964875D01*
X660922Y955255D02*
X861243D01*
X873633Y967645D01*
X662070Y958025D02*
X860095D01*
X872485Y970415D01*
X663217Y960795D02*
X858948D01*
X871338Y973185D01*
X664364Y963565D02*
X857801D01*
X870191Y975955D01*
X665512Y966335D02*
X856653D01*
X666659Y969105D02*
X855506D01*
X670960Y971875D02*
X854359D01*
X678010Y974645D02*
X853211D01*
X866251Y987685D01*
X854359Y971875D02*
X867399Y984915D01*
X855506Y969105D02*
X868546Y982145D01*
X856653Y966335D02*
X869693Y979375D01*
X873633Y967645D02*
X902510D01*
X872485Y970415D02*
X903657D01*
X871338Y973185D02*
X904805D01*
X870191Y975955D02*
X899360D01*
X869693Y979375D02*
X893280D01*
X868546Y982145D02*
X891550D01*
X867399Y984915D02*
X889820D01*
X866251Y987685D02*
X887590D01*
X874780Y964875D02*
X891780D01*
X928780Y927875D01*
X889760Y961895D02*
X916280Y935375D01*
X876800Y961895D02*
X889760D01*
X864620Y949715D02*
X876800Y961895D01*
X614940Y949715D02*
X864620D01*
X594280Y970375D02*
X614940Y949715D01*
X916280Y922375D02*
Y935375D01*
X557280Y949375D02*
X583050Y975145D01*
Y984396D01*
X595642Y996989D01*
X585820Y980095D02*
X599178Y993453D01*
X609100Y1003375D01*
X611280D01*
X594280Y970375D02*
Y981484D01*
X602713Y989917D01*
X558780Y946375D02*
X585820Y973415D01*
Y980095D01*
X636247Y1115375D02*
X638776Y1117904D01*
X626780Y1115375D02*
X634304D01*
X636247D01*
X637780Y1077875D02*
X648244D01*
X663524Y1093155D01*
X922759Y794396D02*
X925840Y791315D01*
X924165Y797166D02*
X927246Y794085D01*
X925313Y799936D02*
X928394Y796855D01*
X974880Y802375D02*
X981280D01*
X991115Y791375D02*
X1004115Y804375D01*
X989967Y794145D02*
X1013780Y817958D01*
X928394Y796855D02*
X988260D01*
X1000780Y809375D01*
X927246Y794085D02*
X989407D01*
X989467Y794145D01*
X989967D01*
X925840Y791315D02*
X990555D01*
X990615Y791375D01*
X991115D01*
X874353Y851296D02*
Y851302D01*
X954880Y822375D02*
X974880Y802375D01*
X918859Y822355D02*
X918879Y822375D01*
X954880D01*
X903294Y822355D02*
X918859D01*
X874353Y851296D02*
X903294Y822355D01*
X865280Y851875D02*
X909780Y807375D01*
X927874D01*
X927894Y807395D01*
X937260D01*
X942280Y802375D01*
X949879Y801876D02*
X955780D01*
X941589Y810165D02*
X949879Y801876D01*
X910990Y810165D02*
X941589D01*
X871280Y849875D02*
X910990Y810165D01*
X815780Y866375D02*
X847280D01*
X854280Y859375D01*
X866280D01*
X874353Y851302D01*
X871197Y849875D02*
X871280D01*
X866427Y854645D02*
X871197Y849875D01*
X852927Y854645D02*
X866427D01*
X844427Y863145D02*
X852927Y854645D01*
X811927Y863145D02*
X844427D01*
X800280Y874792D02*
X811927Y863145D01*
X800280Y874792D02*
Y879875D01*
X788280Y882375D02*
X788780D01*
X810780Y860375D01*
X809780Y872375D02*
X815780Y866375D01*
X809780Y872375D02*
Y883375D01*
X797780Y882375D02*
X800280Y879875D01*
X658280Y1056875D02*
X665280Y1049875D01*
X658280Y1056875D02*
Y1073375D01*
X348530Y1019371D02*
Y1029757D01*
X347800Y1030487D02*
X348530Y1029757D01*
X347800Y1030487D02*
Y1040723D01*
X350570Y1031634D02*
X351300Y1030904D01*
X350570Y1031634D02*
Y1041870D01*
X353340Y1032781D02*
X354070Y1032051D01*
X353340Y1032781D02*
Y1043018D01*
X356110Y1033929D02*
X356840Y1033199D01*
X356110Y1033929D02*
Y1044165D01*
X358880Y1035076D02*
X359610Y1034346D01*
X358880Y1035076D02*
Y1045312D01*
X400189Y972328D02*
Y972836D01*
X395780Y970375D02*
X416780Y949375D01*
X412180Y983275D02*
X432780Y1003875D01*
X423180Y983475D02*
X439080Y999375D01*
X404281Y975875D02*
X405281D01*
X400189Y972328D02*
X413142Y959375D01*
X394281Y970375D02*
X395780D01*
X393781Y962376D02*
X394780Y963375D01*
X283030Y1037875D02*
X283530Y1038375D01*
X332050Y1037788D02*
Y1038415D01*
X335780Y1037601D02*
Y1083562D01*
X338777Y1036681D02*
Y1097378D01*
X341547Y1035534D02*
Y1044533D01*
X283530Y1038375D02*
X324280D01*
X327280Y1041375D01*
X329450Y999094D02*
Y1035188D01*
X332050Y1037788D01*
X332220Y1034041D02*
X335780Y1037601D01*
X334990Y1032894D02*
X338777Y1036681D01*
X337760Y1031746D02*
X341547Y1035534D01*
X337760Y1024263D02*
Y1031746D01*
X334990Y1023116D02*
Y1032894D01*
X327531Y993257D02*
X332220Y997946D01*
Y1034041D01*
X324761Y994404D02*
X329450Y999094D01*
X397281Y975744D02*
X400189Y972836D01*
X338301Y911854D02*
Y925428D01*
X366780Y905375D02*
Y918227D01*
X374089Y914835D02*
X375237D01*
X389280Y900792D01*
X376384Y917605D02*
X397615Y896375D01*
X375237Y917605D02*
X376384D01*
X377532Y920375D02*
X395032Y902875D01*
X376384Y920375D02*
X377532D01*
X378679Y923145D02*
X396180Y905645D01*
X377531Y923145D02*
X378679D01*
X379827Y925915D02*
X397327Y908415D01*
X378679Y925915D02*
X379827D01*
X380974Y928685D02*
X398474Y911185D01*
X379826Y928685D02*
X380974D01*
X404180Y983275D02*
X412180D01*
X393781Y962375D02*
Y962376D01*
X347550Y1018391D02*
X348530Y1019371D01*
X397281Y975744D02*
Y978375D01*
X359610Y1014781D02*
Y1034346D01*
X356840Y1015928D02*
Y1033199D01*
X354070Y1017076D02*
Y1032051D01*
X351300Y1018223D02*
Y1030904D01*
X337760Y1024263D02*
X344780Y1017243D01*
X358630Y949881D02*
X379826Y928685D01*
X358630Y949881D02*
Y1013801D01*
X359610Y1014781D01*
X355860Y1014949D02*
X356840Y1015928D01*
X355860Y948734D02*
Y1014949D01*
Y948734D02*
X378679Y925915D01*
X353090Y947587D02*
X377531Y923145D01*
X353090Y947587D02*
Y1016096D01*
X354070Y1017076D01*
X350320Y1017243D02*
X351300Y1018223D01*
X350320Y946439D02*
Y1017243D01*
X344780Y944145D02*
Y1017243D01*
X341780Y984776D02*
X341800Y984796D01*
Y1016306D01*
X334990Y1023116D02*
X341800Y1016306D01*
X324761Y979394D02*
Y994404D01*
Y979394D02*
X330240Y973915D01*
Y946998D02*
Y973915D01*
X327531Y980542D02*
Y993257D01*
Y980542D02*
X333010Y975062D01*
Y948145D02*
Y975062D01*
X1087030Y845125D02*
X1088780Y846875D01*
X394780Y963375D02*
X411780Y946375D01*
D44*
X1116280Y670385D02*
X1122280Y676385D01*
X1110780Y664885D02*
X1116280Y670385D01*
X1122280Y676385D02*
X1128680Y682785D01*
X1141780D01*
X1088780Y363635D02*
X1091280Y361135D01*
X1066530Y469635D02*
X1072280Y475385D01*
X1066530Y453385D02*
Y469635D01*
X1054530Y367385D02*
Y376135D01*
X1070780Y392385D01*
Y399885D01*
X1066530Y453385D02*
X1070780Y449135D01*
Y429885D02*
Y449135D01*
X1108780Y361135D02*
X1123780D01*
X1091280D02*
X1108780D01*
X1116280Y1170375D02*
X1122280Y1176375D01*
X1110780Y1164875D02*
X1116280Y1170375D01*
X1122280Y1176375D02*
X1128680Y1182775D01*
X1141780D01*
X1088780Y863625D02*
X1091280Y861125D01*
X1066530Y969625D02*
X1072280Y975375D01*
X1066530Y953375D02*
Y969625D01*
X1054530Y867375D02*
Y876125D01*
X1070780Y892375D01*
Y899875D01*
X1066530Y953375D02*
X1070780Y949125D01*
Y929875D02*
Y949125D01*
X1108780Y861125D02*
X1123780D01*
X1091280D02*
X1108780D01*
D45*
X396781Y536886D02*
X397160Y536506D01*
X318530Y682135D02*
X324280Y687885D01*
X1126530Y373635D02*
X1133280Y366885D01*
X1123780Y373635D02*
X1126530D01*
X326280Y687885D02*
X331861Y693466D01*
X324280Y687885D02*
X326280D01*
X303030Y665635D02*
X318530Y681135D01*
Y682135D01*
X316530Y605135D02*
X316780D01*
X304530Y593135D02*
X316530Y605135D01*
X304530Y582385D02*
Y593135D01*
X694780Y551885D02*
Y556385D01*
X721780Y537885D02*
X732780Y548885D01*
X791280D01*
X805280Y562885D01*
X658780Y729385D02*
Y746385D01*
X654550Y725155D02*
X658780Y729385D01*
X591550Y725155D02*
X654550D01*
X582780Y716385D02*
X591550Y725155D01*
X582780Y701885D02*
Y716385D01*
X729780Y621385D02*
Y639885D01*
Y621385D02*
X735280Y615885D01*
X753780D01*
X1155273Y310881D02*
X1156780Y309374D01*
Y292385D02*
Y309374D01*
X293780Y665635D02*
X303030D01*
X293780Y605135D02*
Y665635D01*
X278281Y495885D02*
X293780D01*
X295780Y493885D01*
X313280D01*
X316780Y605135D02*
Y618885D01*
X314030Y621635D02*
X316780Y618885D01*
X302280Y621635D02*
X314030D01*
X302280D02*
Y632635D01*
X1108780Y373635D02*
X1123780D01*
X1132280Y382135D01*
Y385885D01*
X304530Y521536D02*
Y528885D01*
Y521536D02*
X313280Y512786D01*
Y493885D02*
Y512786D01*
X694780Y543078D02*
X699974Y537885D01*
X694780Y543078D02*
Y551885D01*
X699974Y537885D02*
X721780D01*
X700280Y561885D02*
Y564885D01*
X694780Y556385D02*
X700280Y561885D01*
X396781Y536886D02*
X399780Y539885D01*
X397160Y499748D02*
Y536506D01*
X396781Y1036876D02*
X397160Y1036496D01*
X318530Y1182125D02*
X324280Y1187875D01*
X1126530Y873625D02*
X1133280Y866875D01*
X1123780Y873625D02*
X1126530D01*
X326280Y1187875D02*
X331861Y1193456D01*
X324280Y1187875D02*
X326280D01*
X303030Y1165625D02*
X318530Y1181125D01*
Y1182125D01*
X316530Y1105125D02*
X316780D01*
X304530Y1093125D02*
X316530Y1105125D01*
X304530Y1082375D02*
Y1093125D01*
X694780Y1051875D02*
Y1056375D01*
X721780Y1037875D02*
X732780Y1048875D01*
X791280D01*
X805280Y1062875D01*
X658780Y1229375D02*
Y1246375D01*
X654550Y1225145D02*
X658780Y1229375D01*
X591550Y1225145D02*
X654550D01*
X582780Y1216375D02*
X591550Y1225145D01*
X582780Y1201875D02*
Y1216375D01*
X729780Y1121375D02*
Y1139875D01*
Y1121375D02*
X735280Y1115875D01*
X753780D01*
X1155273Y810871D02*
X1156780Y809364D01*
Y792375D02*
Y809364D01*
X293780Y1165625D02*
X303030D01*
X293780Y1105125D02*
Y1165625D01*
X278281Y995875D02*
X293780D01*
X295780Y993875D01*
X313280D01*
X316780Y1105125D02*
Y1118875D01*
X314030Y1121625D02*
X316780Y1118875D01*
X302280Y1121625D02*
X314030D01*
X302280D02*
Y1132625D01*
X1108780Y873625D02*
X1123780D01*
X1132280Y882125D01*
Y885875D01*
X304530Y1021526D02*
Y1028875D01*
Y1021526D02*
X313280Y1012776D01*
Y993875D02*
Y1012776D01*
X694780Y1043068D02*
X699974Y1037875D01*
X694780Y1043068D02*
Y1051875D01*
X699974Y1037875D02*
X721780D01*
X700280Y1061875D02*
Y1064875D01*
X694780Y1056375D02*
X700280Y1061875D01*
X396781Y1036876D02*
X399780Y1039875D01*
X397160Y999738D02*
Y1036496D01*
D46*
X337781Y396885D02*
X338380Y396286D01*
X640780Y656521D02*
X654598Y642703D01*
X640780Y656521D02*
Y657885D01*
X1128780Y416885D02*
X1149780D01*
X781280Y278385D02*
Y298678D01*
X777573Y302385D02*
X781280Y298678D01*
X560287Y532354D02*
X578780Y550847D01*
Y556885D01*
X582280Y560385D01*
X334780Y337385D02*
Y341385D01*
X324780Y327385D02*
X334780Y337385D01*
X337781Y396885D02*
X338280D01*
X359280Y393885D02*
X367780D01*
X338380Y389985D02*
Y396286D01*
X344780Y393885D02*
X350280D01*
X340880Y389985D02*
X344780Y393885D01*
X338380Y389985D02*
X340880D01*
X642280Y507636D02*
X652918Y496998D01*
X642280Y507636D02*
Y515385D01*
X574280Y409385D02*
X574280Y409385D01*
X574280Y405385D02*
Y409385D01*
X1070780Y429885D02*
X1075780D01*
X1065780D02*
X1070780D01*
X310780Y341385D02*
X315780Y336385D01*
X310780Y341385D02*
Y347385D01*
X757780Y607885D02*
X761780D01*
X769780Y615885D01*
X805280Y593385D02*
Y600885D01*
X803780Y591885D02*
X805280Y593385D01*
X795280Y591885D02*
X803780D01*
X812030Y613635D02*
Y615885D01*
X805280Y606885D02*
X812030Y613635D01*
X805280Y600885D02*
Y606885D01*
X1085030Y367385D02*
Y388135D01*
X1094280Y397385D01*
Y413885D01*
X1090780Y417385D02*
X1094280Y413885D01*
X1083280Y417385D02*
X1090780D01*
X304780Y336385D02*
X315780D01*
X299780Y341385D02*
X304780Y336385D01*
X299780Y341385D02*
Y343385D01*
X299781Y343386D01*
X688273Y532354D02*
X698780Y521847D01*
Y520385D02*
Y521847D01*
X642311Y486392D02*
X652770Y475933D01*
Y475905D02*
Y475933D01*
X662845Y629506D02*
Y634456D01*
X654598Y642703D02*
X662845Y634456D01*
X689715Y621678D02*
Y625264D01*
Y621678D02*
X698144Y613249D01*
X689715Y625264D02*
X712836Y648385D01*
X721780D01*
X632780Y701885D02*
X638280D01*
X640780Y704385D01*
X777280Y623885D02*
Y639191D01*
X777780Y639691D01*
X737780Y607885D02*
X748780D01*
X518800Y600905D02*
X524280Y606385D01*
X518780Y593885D02*
X518800D01*
X520780Y583885D02*
Y591885D01*
X518780Y593885D02*
X520780Y591885D01*
X1018780Y504385D02*
Y511885D01*
X1024280Y517385D01*
X1027780D01*
X1018780Y495385D02*
X1029280D01*
X1030280Y494385D01*
X642780Y531385D02*
X648280D01*
X634280Y539885D02*
X642780Y531385D01*
X634280Y539885D02*
Y557885D01*
X658780Y582385D01*
X660280D01*
X667060Y589165D01*
Y589630D01*
X696639Y572385D02*
X702280D01*
X691809Y564881D02*
X696639Y569711D01*
Y572385D01*
X518800Y593885D02*
Y600905D01*
X337781Y896875D02*
X338380Y896276D01*
X640780Y1156511D02*
X654598Y1142693D01*
X640780Y1156511D02*
Y1157875D01*
X1128780Y916875D02*
X1149780D01*
X781280Y778375D02*
Y798668D01*
X777573Y802375D02*
X781280Y798668D01*
X560287Y1032344D02*
X578780Y1050837D01*
Y1056875D01*
X582280Y1060375D01*
X334780Y837375D02*
Y841375D01*
X324780Y827375D02*
X334780Y837375D01*
X337781Y896875D02*
X338280D01*
X359280Y893875D02*
X367780D01*
X338380Y889975D02*
Y896276D01*
X344780Y893875D02*
X350280D01*
X340880Y889975D02*
X344780Y893875D01*
X338380Y889975D02*
X340880D01*
X642280Y1007626D02*
X652918Y996989D01*
X642280Y1007626D02*
Y1015375D01*
X574280Y909375D02*
X574280Y909376D01*
X574280Y905375D02*
Y909375D01*
X1070780Y929875D02*
X1075780D01*
X1065780D02*
X1070780D01*
X310780Y841375D02*
X315780Y836375D01*
X310780Y841375D02*
Y847375D01*
X757780Y1107875D02*
X761780D01*
X769780Y1115875D01*
X805280Y1093375D02*
Y1100875D01*
X803780Y1091875D02*
X805280Y1093375D01*
X795280Y1091875D02*
X803780D01*
X812030Y1113625D02*
Y1115875D01*
X805280Y1106875D02*
X812030Y1113625D01*
X805280Y1100875D02*
Y1106875D01*
X1085030Y867375D02*
Y888125D01*
X1094280Y897375D01*
Y913875D01*
X1090780Y917375D02*
X1094280Y913875D01*
X1083280Y917375D02*
X1090780D01*
X304780Y836375D02*
X315780D01*
X299780Y841375D02*
X304780Y836375D01*
X299780Y841375D02*
Y843375D01*
X299781Y843376D01*
X688273Y1032344D02*
X698780Y1021837D01*
Y1020375D02*
Y1021837D01*
X642311Y986382D02*
X652770Y975923D01*
Y975895D02*
Y975923D01*
X662845Y1129496D02*
Y1134446D01*
X654598Y1142693D02*
X662845Y1134446D01*
X689715Y1121668D02*
Y1125254D01*
Y1121668D02*
X698144Y1113239D01*
X689715Y1125254D02*
X712836Y1148375D01*
X721780D01*
X632780Y1201875D02*
X638280D01*
X640780Y1204375D01*
X777280Y1123875D02*
Y1139181D01*
X777780Y1139681D01*
X737780Y1107875D02*
X748780D01*
X518800Y1100895D02*
X524280Y1106375D01*
X518780Y1093875D02*
X518800D01*
X520780Y1083875D02*
Y1091875D01*
X518780Y1093875D02*
X520780Y1091875D01*
X1018780Y1004375D02*
Y1011875D01*
X1024280Y1017375D01*
X1027780D01*
X1018780Y995375D02*
X1029280D01*
X1030280Y994375D01*
X642780Y1031375D02*
X648280D01*
X634280Y1039875D02*
X642780Y1031375D01*
X634280Y1039875D02*
Y1057875D01*
X658780Y1082375D01*
X660280D01*
X667060Y1089155D01*
Y1089619D01*
X696639Y1072375D02*
X702280D01*
X691809Y1064871D02*
X696639Y1069701D01*
Y1072375D01*
X518800Y1093875D02*
Y1100895D01*
D51*
X293780Y293885D02*
D03*
X1083780D02*
D03*
Y713885D02*
D03*
X293780D02*
D03*
Y793875D02*
D03*
X1083780D02*
D03*
Y1213875D02*
D03*
X293780D02*
D03*
D52*
X1118780Y584885D02*
D03*
X1116780Y558385D02*
D03*
X544280Y660885D02*
D03*
X620780Y674385D02*
D03*
X629280Y674885D02*
D03*
X641780Y686385D02*
D03*
X836280Y613885D02*
D03*
X568280Y379385D02*
D03*
X1146280Y703385D02*
D03*
X1154780D02*
D03*
X1172280Y646385D02*
D03*
Y653885D02*
D03*
Y660885D02*
D03*
X1116280Y670385D02*
D03*
X1110780Y664885D02*
D03*
X1168280Y720885D02*
D03*
X1173780Y715385D02*
D03*
X1162180Y726985D02*
D03*
X1137280Y703385D02*
D03*
X1122280Y676385D02*
D03*
X1172280Y667885D02*
D03*
X879280Y445885D02*
D03*
X888280Y428386D02*
D03*
X886780Y451385D02*
D03*
X879280Y456885D02*
D03*
X887780Y404385D02*
D03*
X882780Y397385D02*
D03*
X640780Y657885D02*
D03*
X1149780Y416885D02*
D03*
X567280Y486885D02*
D03*
X595280Y562885D02*
D03*
X582280Y560385D02*
D03*
X573280Y553385D02*
D03*
X626780Y615385D02*
D03*
X573280Y498385D02*
D03*
X343781Y429885D02*
D03*
X415723Y273828D02*
D03*
X403023Y273642D02*
D03*
X421973Y289885D02*
D03*
X409273D02*
D03*
X421773Y314885D02*
D03*
X409073D02*
D03*
X702280Y572385D02*
D03*
X1072280Y475385D02*
D03*
X366780Y296885D02*
D03*
X635280Y501385D02*
D03*
X658780Y746385D02*
D03*
X1010280Y451885D02*
D03*
X1006780Y405385D02*
D03*
X611280Y503385D02*
D03*
X979780Y396885D02*
D03*
X921780Y413385D02*
D03*
X711780Y519385D02*
D03*
X399780Y539885D02*
D03*
X319280Y405385D02*
D03*
X334780Y341385D02*
D03*
X1056780Y669885D02*
D03*
X1005280Y660385D02*
D03*
X962980Y685381D02*
D03*
X649280Y718885D02*
D03*
X549280Y605385D02*
D03*
X565280Y610385D02*
D03*
X555280Y600385D02*
D03*
X562780Y602385D02*
D03*
X607780Y648885D02*
D03*
X582280Y658385D02*
D03*
X807280Y684385D02*
D03*
X917780Y339885D02*
D03*
X980780Y340885D02*
D03*
X967780Y340385D02*
D03*
X818280Y272885D02*
D03*
X904780Y289386D02*
D03*
X917780D02*
D03*
X815280Y327885D02*
D03*
X853280Y341885D02*
D03*
X866280Y315385D02*
D03*
X841280Y326885D02*
D03*
X803280Y327885D02*
D03*
X828780Y277392D02*
D03*
X916780Y327385D02*
D03*
X904780Y339885D02*
D03*
X992780Y341385D02*
D03*
X1006173Y365885D02*
D03*
X891780Y304385D02*
D03*
X891280Y288385D02*
D03*
X942280Y302385D02*
D03*
X338280Y396885D02*
D03*
X367780Y393885D02*
D03*
X366780Y405385D02*
D03*
X347780D02*
D03*
X892780Y522385D02*
D03*
X948780Y571885D02*
D03*
X894280Y640385D02*
D03*
X1017279Y574885D02*
D03*
X622780Y715385D02*
D03*
X612780Y715885D02*
D03*
X872780Y380385D02*
D03*
X942800Y431846D02*
D03*
X937780Y425385D02*
D03*
X1026780Y395385D02*
D03*
X691280Y502885D02*
D03*
X858780Y403385D02*
D03*
X987280Y379385D02*
D03*
X637780Y577885D02*
D03*
X642280Y542885D02*
D03*
Y515385D02*
D03*
X645780Y587385D02*
D03*
X603780Y590385D02*
D03*
X575280Y620385D02*
D03*
X585780Y619385D02*
D03*
X575017Y610282D02*
D03*
X936780Y460385D02*
D03*
X922280Y498885D02*
D03*
X913280Y499385D02*
D03*
X930780Y455885D02*
D03*
X1058280Y495385D02*
D03*
X1030280Y494385D02*
D03*
X1045780Y495385D02*
D03*
X1126280Y314385D02*
D03*
X659280Y525385D02*
D03*
X886780Y439385D02*
D03*
X885280Y417886D02*
D03*
X880780Y424385D02*
D03*
X880780Y434385D02*
D03*
X881780Y409885D02*
D03*
X612280Y340385D02*
D03*
X930280Y690385D02*
D03*
X938280Y698385D02*
D03*
X624780Y352792D02*
D03*
X574780Y340885D02*
D03*
X574280Y409385D02*
D03*
X287781Y359386D02*
D03*
X274780Y363885D02*
D03*
X289781Y349386D02*
D03*
X1093780Y546385D02*
D03*
Y566385D02*
D03*
Y576385D02*
D03*
X305280Y549885D02*
D03*
Y560885D02*
D03*
X299780Y463885D02*
D03*
Y474885D02*
D03*
X978000Y710000D02*
D03*
X962499Y715499D02*
D03*
X968000Y710000D02*
D03*
X973095Y715595D02*
D03*
X983000Y716000D02*
D03*
X988000Y710000D02*
D03*
X992905Y716095D02*
D03*
X997999Y709999D02*
D03*
X1003000Y716000D02*
D03*
X904500Y705000D02*
D03*
X409000Y365612D02*
D03*
X458500Y691999D02*
D03*
X548780Y339885D02*
D03*
X548673Y352885D02*
D03*
X536473Y353385D02*
D03*
X536273Y365885D02*
D03*
X498280Y353292D02*
D03*
X536473Y302385D02*
D03*
X561780Y352386D02*
D03*
X587073Y365885D02*
D03*
X599780Y365892D02*
D03*
X625573Y340885D02*
D03*
X599780Y327792D02*
D03*
X612780Y315392D02*
D03*
X625173Y302385D02*
D03*
X650873Y315385D02*
D03*
X663280Y302392D02*
D03*
X650780Y340692D02*
D03*
X644323Y382842D02*
D03*
X663273Y365885D02*
D03*
X682423Y382528D02*
D03*
X701373Y365885D02*
D03*
X701373Y353385D02*
D03*
X676173D02*
D03*
X688573Y340385D02*
D03*
X701473Y327885D02*
D03*
X701873Y302885D02*
D03*
X714173Y327885D02*
D03*
X720523Y273642D02*
D03*
X739280Y315478D02*
D03*
X739780Y302692D02*
D03*
X752373Y289885D02*
D03*
X764780Y328078D02*
D03*
X720523Y381128D02*
D03*
X733280Y364886D02*
D03*
X745923Y352028D02*
D03*
X761780Y381385D02*
D03*
X765073Y353385D02*
D03*
X790373Y327885D02*
D03*
X777573Y302385D02*
D03*
X790273Y365885D02*
D03*
X802780Y352992D02*
D03*
X816280Y341092D02*
D03*
X828473Y327885D02*
D03*
X841280Y353392D02*
D03*
X834823Y382928D02*
D03*
X866280Y327592D02*
D03*
X879280Y315192D02*
D03*
X929973Y302385D02*
D03*
X879373Y353385D02*
D03*
X911023Y383142D02*
D03*
X942673Y365885D02*
D03*
X942773Y327885D02*
D03*
X955073Y352885D02*
D03*
X790280Y353192D02*
D03*
X764780Y314992D02*
D03*
X853780Y274885D02*
D03*
X472780Y289385D02*
D03*
X402779Y576884D02*
D03*
X1080280Y551385D02*
D03*
X392780Y582885D02*
D03*
X1080280Y541385D02*
D03*
X400279Y587884D02*
D03*
X1080780Y531885D02*
D03*
X390780Y592885D02*
D03*
X1079780Y523885D02*
D03*
X385280Y598885D02*
D03*
X1079780Y515885D02*
D03*
X394280Y606385D02*
D03*
X1080280Y507885D02*
D03*
X393280Y571885D02*
D03*
Y563885D02*
D03*
Y555885D02*
D03*
X403780Y559885D02*
D03*
X1110780Y441385D02*
D03*
X1115800Y429385D02*
D03*
X323780Y383485D02*
D03*
X312780D02*
D03*
X323780Y372485D02*
D03*
X312780D02*
D03*
X323780Y361485D02*
D03*
X312780D02*
D03*
X510780Y365885D02*
D03*
X485280Y328385D02*
D03*
X561780Y302385D02*
D03*
X548780D02*
D03*
X484781Y376886D02*
D03*
X496781D02*
D03*
X510780Y379885D02*
D03*
X498273Y327885D02*
D03*
X1034780Y378885D02*
D03*
X587780Y379385D02*
D03*
X599780Y380905D02*
D03*
X587280Y353385D02*
D03*
X624673Y365385D02*
D03*
X612780Y353385D02*
D03*
X586780Y340885D02*
D03*
X298280Y549885D02*
D03*
Y560885D02*
D03*
X302280Y621635D02*
D03*
Y632635D02*
D03*
X341780Y644385D02*
D03*
X334780Y650885D02*
D03*
X333280Y659385D02*
D03*
X621280Y606418D02*
D03*
X672100Y566385D02*
D03*
X673280Y540276D02*
D03*
X619780Y598385D02*
D03*
X668780Y555885D02*
D03*
X990280Y510385D02*
D03*
X1093780Y556385D02*
D03*
X1080280Y561385D02*
D03*
X1073279Y565385D02*
D03*
X1065280Y565885D02*
D03*
X1039779Y565385D02*
D03*
X1053280Y563885D02*
D03*
X336280Y329385D02*
D03*
X910280Y568385D02*
D03*
X973780Y605280D02*
D03*
X1124780Y329385D02*
D03*
X1019780Y335885D02*
D03*
X389280Y395885D02*
D03*
X401395Y396385D02*
D03*
X553780Y706885D02*
D03*
X993780Y327885D02*
D03*
X942280Y352885D02*
D03*
X967780Y327885D02*
D03*
X351780Y342885D02*
D03*
X523280Y692385D02*
D03*
X279780Y585885D02*
D03*
X320781Y584885D02*
D03*
X306280Y572885D02*
D03*
X314281Y644385D02*
D03*
X324280Y687885D02*
D03*
X302780Y396885D02*
D03*
X271280Y585885D02*
D03*
X281281Y576385D02*
D03*
X368037Y557633D02*
D03*
X343280Y613885D02*
D03*
X299781Y343386D02*
D03*
X698780Y520385D02*
D03*
X652770Y475905D02*
D03*
X583780Y546385D02*
D03*
X598780Y515885D02*
D03*
X616280Y548885D02*
D03*
X649280Y538885D02*
D03*
X597280Y639885D02*
D03*
X640780Y704385D02*
D03*
X340699Y718304D02*
D03*
X351781Y603385D02*
D03*
X350281Y648385D02*
D03*
X372280Y651385D02*
D03*
X384030Y641365D02*
D03*
X389281Y648385D02*
D03*
X342780Y527385D02*
D03*
X830280Y730885D02*
D03*
X940280Y659385D02*
D03*
X1046033Y675138D02*
D03*
X1062280Y647385D02*
D03*
X1011779Y631385D02*
D03*
X995279Y539885D02*
D03*
X943280Y600385D02*
D03*
X940929Y580236D02*
D03*
X968280Y530885D02*
D03*
X982280Y501885D02*
D03*
X1009780Y599885D02*
D03*
X939280Y620385D02*
D03*
X872780Y277386D02*
D03*
X967780Y402885D02*
D03*
X1063780Y418885D02*
D03*
X1072780D02*
D03*
X1063780Y410885D02*
D03*
X1072780Y410385D02*
D03*
X1016779Y422385D02*
D03*
X1023279Y473885D02*
D03*
X1170600Y371625D02*
D03*
Y350875D02*
D03*
Y334125D02*
D03*
Y313375D02*
D03*
X1147600Y367125D02*
D03*
Y317875D02*
D03*
X1132780Y292385D02*
D03*
X1132280Y385885D02*
D03*
X1133280Y366885D02*
D03*
X1121780Y476385D02*
D03*
X1112780Y459385D02*
D03*
X1042779Y434385D02*
D03*
X1083280Y396885D02*
D03*
X1114279Y404385D02*
D03*
X1116279Y578385D02*
D03*
X1152780Y678385D02*
D03*
X1170780Y633885D02*
D03*
X1171280Y601885D02*
D03*
Y618385D02*
D03*
Y585885D02*
D03*
Y569885D02*
D03*
Y553885D02*
D03*
Y537885D02*
D03*
X1166280Y501885D02*
D03*
X1117280Y602885D02*
D03*
X1009780Y460885D02*
D03*
X936780Y440385D02*
D03*
X941780Y450885D02*
D03*
X928780Y427885D02*
D03*
X916280Y422385D02*
D03*
X981280Y302385D02*
D03*
X967280Y301885D02*
D03*
X955780Y301886D02*
D03*
X918280Y315385D02*
D03*
X788280Y382385D02*
D03*
X809780Y383385D02*
D03*
X797780Y382385D02*
D03*
X648280Y531385D02*
D03*
X658280Y573385D02*
D03*
X366780Y303385D02*
D03*
X358780D02*
D03*
Y296885D02*
D03*
X299781Y516385D02*
D03*
X405281Y475885D02*
D03*
X394281Y470385D02*
D03*
X882280Y739885D02*
D03*
X925280Y536885D02*
D03*
X939280Y629885D02*
D03*
X333281Y490885D02*
D03*
X300510Y433576D02*
D03*
X700280Y564885D02*
D03*
X324281Y531385D02*
D03*
X261780Y686885D02*
D03*
X261280Y677885D02*
D03*
Y669885D02*
D03*
X268780Y681885D02*
D03*
X268280Y673885D02*
D03*
X316780Y685885D02*
D03*
X319781Y526885D02*
D03*
X379281Y489385D02*
D03*
X393781Y462385D02*
D03*
X336780Y486885D02*
D03*
X397281Y478385D02*
D03*
X397160Y499748D02*
D03*
X1088780Y346885D02*
D03*
X1104780Y323385D02*
D03*
X1110280Y318885D02*
D03*
X1118780Y1084875D02*
D03*
X1116780Y1058375D02*
D03*
X544280Y1160875D02*
D03*
X620780Y1174375D02*
D03*
X629280Y1174875D02*
D03*
X641780Y1186375D02*
D03*
X836280Y1113875D02*
D03*
X568280Y879375D02*
D03*
X1146280Y1203375D02*
D03*
X1154780D02*
D03*
X1172280Y1146375D02*
D03*
Y1153875D02*
D03*
Y1160875D02*
D03*
X1116280Y1170375D02*
D03*
X1110780Y1164875D02*
D03*
X1168280Y1220875D02*
D03*
X1173780Y1215375D02*
D03*
X1162180Y1226975D02*
D03*
X1137280Y1203375D02*
D03*
X1122280Y1176375D02*
D03*
X1172280Y1167875D02*
D03*
X879280Y945875D02*
D03*
X888280Y928375D02*
D03*
X886780Y951375D02*
D03*
X879280Y956875D02*
D03*
X887780Y904375D02*
D03*
X882780Y897375D02*
D03*
X640780Y1157875D02*
D03*
X1149780Y916875D02*
D03*
X567280Y986875D02*
D03*
X595280Y1062875D02*
D03*
X582280Y1060375D02*
D03*
X573280Y1053375D02*
D03*
X626780Y1115375D02*
D03*
X573280Y998375D02*
D03*
X343781Y929875D02*
D03*
X415723Y773818D02*
D03*
X403023Y773632D02*
D03*
X421973Y789875D02*
D03*
X409273D02*
D03*
X421773Y814875D02*
D03*
X409073D02*
D03*
X702280Y1072375D02*
D03*
X1072280Y975375D02*
D03*
X366780Y796875D02*
D03*
X635280Y1001375D02*
D03*
X658780Y1246375D02*
D03*
X1010280Y951875D02*
D03*
X1006780Y905375D02*
D03*
X611280Y1003375D02*
D03*
X979780Y896875D02*
D03*
X921780Y913375D02*
D03*
X711780Y1019375D02*
D03*
X399780Y1039875D02*
D03*
X319280Y905375D02*
D03*
X334780Y841375D02*
D03*
X1056780Y1169875D02*
D03*
X1005280Y1160375D02*
D03*
X962980Y1185371D02*
D03*
X649280Y1218875D02*
D03*
X549280Y1105375D02*
D03*
X565280Y1110375D02*
D03*
X555280Y1100375D02*
D03*
X562780Y1102375D02*
D03*
X607780Y1148875D02*
D03*
X582280Y1158375D02*
D03*
X807280Y1184375D02*
D03*
X917780Y839875D02*
D03*
X980780Y840875D02*
D03*
X967780Y840375D02*
D03*
X818280Y772875D02*
D03*
X904780Y789376D02*
D03*
X917780D02*
D03*
X815280Y827875D02*
D03*
X853280Y841875D02*
D03*
X866280Y815375D02*
D03*
X841280Y826875D02*
D03*
X803280Y827875D02*
D03*
X828780Y777382D02*
D03*
X916780Y827375D02*
D03*
X904780Y839875D02*
D03*
X992780Y841375D02*
D03*
X1006173Y865875D02*
D03*
X891780Y804375D02*
D03*
X891280Y788375D02*
D03*
X942280Y802375D02*
D03*
X338280Y896875D02*
D03*
X367780Y893875D02*
D03*
X366780Y905375D02*
D03*
X347780D02*
D03*
X892780Y1022375D02*
D03*
X948780Y1071875D02*
D03*
X894280Y1140375D02*
D03*
X1017279Y1074875D02*
D03*
X622780Y1215375D02*
D03*
X612780Y1215875D02*
D03*
X872780Y880375D02*
D03*
X942800Y931835D02*
D03*
X937780Y925375D02*
D03*
X1026780Y895375D02*
D03*
X691280Y1002875D02*
D03*
X858780Y903375D02*
D03*
X987280Y879375D02*
D03*
X637780Y1077875D02*
D03*
X642280Y1042875D02*
D03*
Y1015375D02*
D03*
X645780Y1087375D02*
D03*
X603780Y1090375D02*
D03*
X575280Y1120375D02*
D03*
X585780Y1119375D02*
D03*
X575017Y1110272D02*
D03*
X936780Y960375D02*
D03*
X922280Y998875D02*
D03*
X913280Y999375D02*
D03*
X930780Y955875D02*
D03*
X1058280Y995375D02*
D03*
X1030280Y994375D02*
D03*
X1045780Y995375D02*
D03*
X1126280Y814375D02*
D03*
X659280Y1025375D02*
D03*
X886780Y939375D02*
D03*
X885280Y917876D02*
D03*
X880780Y924375D02*
D03*
X880780Y934375D02*
D03*
X881780Y909875D02*
D03*
X612280Y840375D02*
D03*
X930280Y1190375D02*
D03*
X938280Y1198375D02*
D03*
X624780Y852782D02*
D03*
X574780Y840875D02*
D03*
X574280Y909376D02*
D03*
X287781Y859376D02*
D03*
X274780Y863875D02*
D03*
X289781Y849376D02*
D03*
X1093780Y1046375D02*
D03*
Y1066375D02*
D03*
Y1076375D02*
D03*
X305280Y1049875D02*
D03*
Y1060875D02*
D03*
X299780Y963875D02*
D03*
Y974875D02*
D03*
X978000Y1209990D02*
D03*
X962499Y1215489D02*
D03*
X968000Y1209990D02*
D03*
X973095Y1215585D02*
D03*
X983000Y1215990D02*
D03*
X988000Y1209990D02*
D03*
X992905Y1216085D02*
D03*
X997999Y1209989D02*
D03*
X1003000Y1215990D02*
D03*
X904500Y1204990D02*
D03*
X409000Y865602D02*
D03*
X458500Y1191989D02*
D03*
X548780Y839875D02*
D03*
X548673Y852875D02*
D03*
X536473Y853375D02*
D03*
X536273Y865875D02*
D03*
X498280Y853282D02*
D03*
X536473Y802375D02*
D03*
X561780Y852376D02*
D03*
X587073Y865875D02*
D03*
X599780Y865882D02*
D03*
X625573Y840875D02*
D03*
X599780Y827782D02*
D03*
X612780Y815382D02*
D03*
X625173Y802375D02*
D03*
X650873Y815375D02*
D03*
X663280Y802382D02*
D03*
X650780Y840682D02*
D03*
X644323Y882832D02*
D03*
X663273Y865875D02*
D03*
X682423Y882518D02*
D03*
X701373Y865875D02*
D03*
X701373Y853375D02*
D03*
X676173D02*
D03*
X688573Y840375D02*
D03*
X701473Y827875D02*
D03*
X701873Y802875D02*
D03*
X714173Y827875D02*
D03*
X720523Y773632D02*
D03*
X739280Y815468D02*
D03*
X739780Y802682D02*
D03*
X752373Y789875D02*
D03*
X764780Y828068D02*
D03*
X720523Y881118D02*
D03*
X733280Y864876D02*
D03*
X745923Y852018D02*
D03*
X761780Y881375D02*
D03*
X765073Y853375D02*
D03*
X790373Y827875D02*
D03*
X777573Y802375D02*
D03*
X790273Y865875D02*
D03*
X802780Y852982D02*
D03*
X816280Y841082D02*
D03*
X828473Y827875D02*
D03*
X841280Y853382D02*
D03*
X834823Y882918D02*
D03*
X866280Y827582D02*
D03*
X879280Y815182D02*
D03*
X929973Y802375D02*
D03*
X879373Y853375D02*
D03*
X911023Y883132D02*
D03*
X942673Y865875D02*
D03*
X942773Y827875D02*
D03*
X955073Y852875D02*
D03*
X790280Y853182D02*
D03*
X764780Y814982D02*
D03*
X853780Y774875D02*
D03*
X472780Y789375D02*
D03*
X402779Y1076874D02*
D03*
X1080280Y1051375D02*
D03*
X392780Y1082875D02*
D03*
X1080280Y1041375D02*
D03*
X400279Y1087874D02*
D03*
X1080780Y1031875D02*
D03*
X390780Y1092875D02*
D03*
X1079780Y1023875D02*
D03*
X385280Y1098875D02*
D03*
X1079780Y1015875D02*
D03*
X394280Y1106375D02*
D03*
X1080280Y1007875D02*
D03*
X393280Y1071875D02*
D03*
Y1063875D02*
D03*
Y1055875D02*
D03*
X403780Y1059875D02*
D03*
X1110780Y941375D02*
D03*
X1115800Y929375D02*
D03*
X323780Y883475D02*
D03*
X312780D02*
D03*
X323780Y872475D02*
D03*
X312780D02*
D03*
X323780Y861475D02*
D03*
X312780D02*
D03*
X510780Y865875D02*
D03*
X485280Y828375D02*
D03*
X561780Y802375D02*
D03*
X548780D02*
D03*
X484781Y876876D02*
D03*
X496781D02*
D03*
X510780Y879875D02*
D03*
X498273Y827875D02*
D03*
X1034780Y878875D02*
D03*
X587780Y879375D02*
D03*
X599780Y880895D02*
D03*
X587280Y853375D02*
D03*
X624673Y865375D02*
D03*
X612780Y853375D02*
D03*
X586780Y840875D02*
D03*
X298280Y1049875D02*
D03*
Y1060875D02*
D03*
X302280Y1121625D02*
D03*
Y1132625D02*
D03*
X341780Y1144375D02*
D03*
X334780Y1150875D02*
D03*
X333280Y1159375D02*
D03*
X621280Y1106408D02*
D03*
X672100Y1066375D02*
D03*
X673280Y1040266D02*
D03*
X619780Y1098375D02*
D03*
X668780Y1055875D02*
D03*
X990280Y1010375D02*
D03*
X1093780Y1056375D02*
D03*
X1080280Y1061375D02*
D03*
X1073279Y1065375D02*
D03*
X1065280Y1065875D02*
D03*
X1039779Y1065375D02*
D03*
X1053280Y1063875D02*
D03*
X336280Y829375D02*
D03*
X910280Y1068375D02*
D03*
X973780Y1105270D02*
D03*
X1124780Y829375D02*
D03*
X1019780Y835875D02*
D03*
X389280Y895875D02*
D03*
X401395Y896375D02*
D03*
X553780Y1206875D02*
D03*
X993780Y827875D02*
D03*
X942280Y852875D02*
D03*
X967780Y827875D02*
D03*
X351780Y842875D02*
D03*
X523280Y1192375D02*
D03*
X279780Y1085875D02*
D03*
X320781Y1084875D02*
D03*
X306280Y1072875D02*
D03*
X314281Y1144375D02*
D03*
X324280Y1187875D02*
D03*
X302780Y896875D02*
D03*
X271280Y1085875D02*
D03*
X281281Y1076375D02*
D03*
X368037Y1057623D02*
D03*
X343280Y1113875D02*
D03*
X299781Y843376D02*
D03*
X698780Y1020375D02*
D03*
X652770Y975895D02*
D03*
X583780Y1046375D02*
D03*
X598780Y1015875D02*
D03*
X616280Y1048875D02*
D03*
X649280Y1038875D02*
D03*
X597280Y1139875D02*
D03*
X640780Y1204375D02*
D03*
X340699Y1218294D02*
D03*
X351781Y1103375D02*
D03*
X350281Y1148375D02*
D03*
X372280Y1151375D02*
D03*
X384030Y1141355D02*
D03*
X389281Y1148375D02*
D03*
X342780Y1027375D02*
D03*
X830280Y1230875D02*
D03*
X940280Y1159375D02*
D03*
X1046033Y1175128D02*
D03*
X1062280Y1147375D02*
D03*
X1011779Y1131375D02*
D03*
X995279Y1039875D02*
D03*
X943280Y1100375D02*
D03*
X940929Y1080226D02*
D03*
X968280Y1030875D02*
D03*
X982280Y1001875D02*
D03*
X1009780Y1099875D02*
D03*
X939280Y1120375D02*
D03*
X872780Y777376D02*
D03*
X967780Y902875D02*
D03*
X1063780Y918875D02*
D03*
X1072780D02*
D03*
X1063780Y910875D02*
D03*
X1072780Y910375D02*
D03*
X1016779Y922375D02*
D03*
X1023279Y973875D02*
D03*
X1170600Y871615D02*
D03*
Y850865D02*
D03*
Y834115D02*
D03*
Y813365D02*
D03*
X1147600Y867115D02*
D03*
Y817865D02*
D03*
X1132780Y792375D02*
D03*
X1132280Y885875D02*
D03*
X1133280Y866875D02*
D03*
X1121780Y976375D02*
D03*
X1112780Y959375D02*
D03*
X1042779Y934375D02*
D03*
X1083280Y896875D02*
D03*
X1114279Y904376D02*
D03*
X1116279Y1078375D02*
D03*
X1152780Y1178375D02*
D03*
X1170780Y1133875D02*
D03*
X1171280Y1101875D02*
D03*
Y1118375D02*
D03*
Y1085875D02*
D03*
Y1069875D02*
D03*
Y1053875D02*
D03*
Y1037875D02*
D03*
X1166280Y1001875D02*
D03*
X1117280Y1102875D02*
D03*
X1009780Y960875D02*
D03*
X936780Y940375D02*
D03*
X941780Y950875D02*
D03*
X928780Y927875D02*
D03*
X916280Y922375D02*
D03*
X981280Y802375D02*
D03*
X967280Y801875D02*
D03*
X955780Y801876D02*
D03*
X918280Y815375D02*
D03*
X788280Y882375D02*
D03*
X809780Y883375D02*
D03*
X797780Y882375D02*
D03*
X648280Y1031375D02*
D03*
X658280Y1073375D02*
D03*
X366780Y803375D02*
D03*
X358780D02*
D03*
Y796875D02*
D03*
X299781Y1016375D02*
D03*
X405281Y975875D02*
D03*
X394281Y970375D02*
D03*
X882280Y1239875D02*
D03*
X925280Y1036875D02*
D03*
X939280Y1129875D02*
D03*
X333281Y990875D02*
D03*
X300510Y933566D02*
D03*
X700280Y1064875D02*
D03*
X324281Y1031375D02*
D03*
X261780Y1186875D02*
D03*
X261280Y1177875D02*
D03*
Y1169875D02*
D03*
X268780Y1181875D02*
D03*
X268280Y1173875D02*
D03*
X316780Y1185875D02*
D03*
X319781Y1026875D02*
D03*
X379281Y989375D02*
D03*
X393781Y962375D02*
D03*
X336780Y986875D02*
D03*
X397281Y978375D02*
D03*
X397160Y999738D02*
D03*
X1088780Y846875D02*
D03*
X1104780Y823375D02*
D03*
X1110280Y818875D02*
D03*
D53*
X540280Y520385D02*
D03*
X537280Y527385D02*
D03*
X532780Y541385D02*
D03*
X541780Y505885D02*
D03*
X710280Y674385D02*
D03*
X800933Y568538D02*
D03*
X801780Y575885D02*
D03*
X841780Y600385D02*
D03*
X843780Y590385D02*
D03*
X838280Y605885D02*
D03*
X837280Y585385D02*
D03*
X841710Y581655D02*
D03*
X842280Y575885D02*
D03*
X837780Y571885D02*
D03*
X817780Y591885D02*
D03*
X741280Y480385D02*
D03*
X882780Y501385D02*
D03*
X404780Y667885D02*
D03*
X432780Y639885D02*
D03*
X488780Y615885D02*
D03*
X540780Y667885D02*
D03*
X424780Y655885D02*
D03*
X432780Y647885D02*
D03*
X440780Y639885D02*
D03*
X448780Y631885D02*
D03*
Y583885D02*
D03*
X424780Y559885D02*
D03*
X520780Y559885D02*
D03*
X512780Y567885D02*
D03*
X496780Y631885D02*
D03*
X504780Y639885D02*
D03*
X512780Y647885D02*
D03*
X520780Y655885D02*
D03*
X440780Y567885D02*
D03*
X504780D02*
D03*
X472780Y615885D02*
D03*
X440780Y647885D02*
D03*
X504780D02*
D03*
X512780Y575885D02*
D03*
X480780Y615885D02*
D03*
X809780Y575885D02*
D03*
X801780Y647885D02*
D03*
X737780D02*
D03*
X769780Y615885D02*
D03*
X737780Y567885D02*
D03*
X769780Y599885D02*
D03*
X817780Y655885D02*
D03*
X809780Y647885D02*
D03*
X801780Y639885D02*
D03*
X793780Y631885D02*
D03*
Y583885D02*
D03*
X809780Y567885D02*
D03*
X817780Y559885D02*
D03*
X721780Y559885D02*
D03*
X729780Y567885D02*
D03*
X737780Y575885D02*
D03*
X745780Y583885D02*
D03*
X769780Y607885D02*
D03*
X745780Y631885D02*
D03*
X737780Y639885D02*
D03*
X729780Y647885D02*
D03*
X721780Y655885D02*
D03*
X837780Y667885D02*
D03*
Y547885D02*
D03*
X729780Y575885D02*
D03*
X785780Y599885D02*
D03*
X753780D02*
D03*
Y615885D02*
D03*
X729780Y639885D02*
D03*
X472780Y575885D02*
D03*
X456780Y583885D02*
D03*
X472780Y647885D02*
D03*
X769780D02*
D03*
X761780Y631885D02*
D03*
X769780Y575885D02*
D03*
X448780Y607885D02*
D03*
X516080Y483085D02*
D03*
X506780Y482885D02*
D03*
X487780D02*
D03*
X478680Y482985D02*
D03*
X450780Y485385D02*
D03*
X459680Y483785D02*
D03*
X431880Y483285D02*
D03*
X541280Y483885D02*
D03*
Y477385D02*
D03*
X543780Y497385D02*
D03*
X547780Y472385D02*
D03*
X537780Y511885D02*
D03*
X556780Y470190D02*
D03*
X760280Y480385D02*
D03*
X769280D02*
D03*
X788280Y480885D02*
D03*
X797280Y480885D02*
D03*
X816280D02*
D03*
X825280Y480885D02*
D03*
X844280Y480885D02*
D03*
X853280D02*
D03*
X825780Y567885D02*
D03*
X844280Y563885D02*
D03*
X839780Y555885D02*
D03*
X488780Y655885D02*
D03*
X737780D02*
D03*
X745780Y675885D02*
D03*
X785780Y655885D02*
D03*
X789780Y675885D02*
D03*
X424780Y599885D02*
D03*
X432780Y575885D02*
D03*
X456780Y599885D02*
D03*
X785780Y615885D02*
D03*
X777780Y639691D02*
D03*
X737780Y607885D02*
D03*
X520780Y583885D02*
D03*
X405781Y546885D02*
D03*
X423180Y483485D02*
D03*
X456780Y615885D02*
D03*
X464780D02*
D03*
X504780Y575885D02*
D03*
X496780Y583885D02*
D03*
Y607885D02*
D03*
X488780Y599885D02*
D03*
X472780Y609385D02*
D03*
X472780Y597885D02*
D03*
X701780Y543885D02*
D03*
X404180Y483285D02*
D03*
X540280Y1020375D02*
D03*
X537280Y1027375D02*
D03*
X532780Y1041375D02*
D03*
X541780Y1005875D02*
D03*
X710280Y1174375D02*
D03*
X800933Y1068528D02*
D03*
X801780Y1075875D02*
D03*
X841780Y1100375D02*
D03*
X843780Y1090375D02*
D03*
X838280Y1105875D02*
D03*
X837280Y1085375D02*
D03*
X841710Y1081645D02*
D03*
X842280Y1075875D02*
D03*
X837780Y1071875D02*
D03*
X817780Y1091875D02*
D03*
X741280Y980375D02*
D03*
X882780Y1001375D02*
D03*
X404780Y1167875D02*
D03*
X432780Y1139875D02*
D03*
X488780Y1115875D02*
D03*
X540780Y1167875D02*
D03*
X424780Y1155875D02*
D03*
X432780Y1147875D02*
D03*
X440780Y1139875D02*
D03*
X448780Y1131875D02*
D03*
Y1083875D02*
D03*
X424780Y1059875D02*
D03*
X520780Y1059875D02*
D03*
X512780Y1067875D02*
D03*
X496780Y1131875D02*
D03*
X504780Y1139875D02*
D03*
X512780Y1147875D02*
D03*
X520780Y1155875D02*
D03*
X440780Y1067875D02*
D03*
X504780D02*
D03*
X472780Y1115875D02*
D03*
X440780Y1147875D02*
D03*
X504780D02*
D03*
X512780Y1075875D02*
D03*
X480780Y1115875D02*
D03*
X809780Y1075875D02*
D03*
X801780Y1147875D02*
D03*
X737780D02*
D03*
X769780Y1115875D02*
D03*
X737780Y1067875D02*
D03*
X769780Y1099875D02*
D03*
X817780Y1155875D02*
D03*
X809780Y1147875D02*
D03*
X801780Y1139875D02*
D03*
X793780Y1131875D02*
D03*
Y1083875D02*
D03*
X809780Y1067875D02*
D03*
X817780Y1059875D02*
D03*
X721780Y1059875D02*
D03*
X729780Y1067875D02*
D03*
X737780Y1075875D02*
D03*
X745780Y1083875D02*
D03*
X769780Y1107875D02*
D03*
X745780Y1131875D02*
D03*
X737780Y1139875D02*
D03*
X729780Y1147875D02*
D03*
X721780Y1155875D02*
D03*
X837780Y1167875D02*
D03*
Y1047875D02*
D03*
X729780Y1075875D02*
D03*
X785780Y1099875D02*
D03*
X753780D02*
D03*
Y1115875D02*
D03*
X729780Y1139875D02*
D03*
X472780Y1075875D02*
D03*
X456780Y1083875D02*
D03*
X472780Y1147875D02*
D03*
X769780D02*
D03*
X761780Y1131875D02*
D03*
X769780Y1075875D02*
D03*
X448780Y1107875D02*
D03*
X516080Y983075D02*
D03*
X506780Y982875D02*
D03*
X487780D02*
D03*
X478680Y982975D02*
D03*
X450780Y985375D02*
D03*
X459680Y983775D02*
D03*
X431880Y983275D02*
D03*
X541280Y983875D02*
D03*
Y977375D02*
D03*
X543780Y997375D02*
D03*
X547780Y972375D02*
D03*
X537780Y1011875D02*
D03*
X556780Y970180D02*
D03*
X760280Y980375D02*
D03*
X769280D02*
D03*
X788280Y980875D02*
D03*
X797280Y980875D02*
D03*
X816280D02*
D03*
X825280Y980875D02*
D03*
X844280Y980875D02*
D03*
X853280D02*
D03*
X825780Y1067875D02*
D03*
X844280Y1063875D02*
D03*
X839780Y1055875D02*
D03*
X488780Y1155875D02*
D03*
X737780D02*
D03*
X745780Y1175875D02*
D03*
X785780Y1155875D02*
D03*
X789780Y1175875D02*
D03*
X424780Y1099875D02*
D03*
X432780Y1075875D02*
D03*
X456780Y1099875D02*
D03*
X785780Y1115875D02*
D03*
X777780Y1139681D02*
D03*
X737780Y1107875D02*
D03*
X520780Y1083875D02*
D03*
X405781Y1046875D02*
D03*
X423180Y983475D02*
D03*
X456780Y1115875D02*
D03*
X464780D02*
D03*
X504780Y1075875D02*
D03*
X496780Y1083875D02*
D03*
Y1107875D02*
D03*
X488780Y1099875D02*
D03*
X472780Y1109375D02*
D03*
X472780Y1097875D02*
D03*
X701780Y1043875D02*
D03*
X404180Y983275D02*
D03*
D54*
X283280Y646885D02*
D03*
X278281Y495885D02*
D03*
X264780Y440385D02*
D03*
X283280Y1146875D02*
D03*
X278281Y995875D02*
D03*
X264780Y940375D02*
D03*
D55*
X740280Y531885D02*
D03*
X765780Y528385D02*
D03*
X787875Y537900D02*
D03*
X783780Y528885D02*
D03*
X512280Y516885D02*
D03*
X504780Y527885D02*
D03*
X497780Y535385D02*
D03*
X482280Y524385D02*
D03*
X740280Y1031875D02*
D03*
X765780Y1028375D02*
D03*
X787875Y1037890D02*
D03*
X783780Y1028875D02*
D03*
X512280Y1016875D02*
D03*
X504780Y1027875D02*
D03*
X497780Y1035375D02*
D03*
X482280Y1024375D02*
D03*
D56*
X1172280Y690385D02*
D03*
Y677385D02*
D03*
Y1190375D02*
D03*
Y1177375D02*
D03*
D57*
X1141780Y726985D02*
D03*
Y682785D02*
D03*
Y1226975D02*
D03*
Y1182775D02*
D03*
D58*
X799780Y310385D02*
D03*
X849780D02*
D03*
X837280D02*
D03*
X824780D02*
D03*
X812280D02*
D03*
X799780Y810375D02*
D03*
X849780D02*
D03*
X837280D02*
D03*
X824780D02*
D03*
X812280D02*
D03*
D59*
X868280Y278385D02*
D03*
X781280D02*
D03*
X868280Y778375D02*
D03*
X781280D02*
D03*
D60*
X904830Y360612D02*
D03*
X917530D02*
D03*
X930230D02*
D03*
X968330D02*
D03*
X981030D02*
D03*
X993730D02*
D03*
X968330Y276157D02*
D03*
X981030D02*
D03*
X993730D02*
D03*
X930230D02*
D03*
X917530D02*
D03*
X904830D02*
D03*
Y860602D02*
D03*
X917530D02*
D03*
X930230D02*
D03*
X968330D02*
D03*
X981030D02*
D03*
X993730D02*
D03*
X968330Y776148D02*
D03*
X981030D02*
D03*
X993730D02*
D03*
X930230D02*
D03*
X917530D02*
D03*
X904830D02*
D03*
D61*
X582780Y701885D02*
D03*
X632780D02*
D03*
X592780D02*
D03*
X602780D02*
D03*
X612780D02*
D03*
X622780D02*
D03*
X582780Y1201875D02*
D03*
X632780D02*
D03*
X592780D02*
D03*
X602780D02*
D03*
X612780D02*
D03*
X622780D02*
D03*
D62*
X569780Y740635D02*
D03*
X645780D02*
D03*
X569780Y1240625D02*
D03*
X645780D02*
D03*
D63*
X1046780Y546385D02*
D03*
X1027780D02*
D03*
Y517385D02*
D03*
X1037280D02*
D03*
X1046780D02*
D03*
X1155273Y339881D02*
D03*
X1136273D02*
D03*
Y310881D02*
D03*
X1145773D02*
D03*
X1155273D02*
D03*
X1046780Y1046375D02*
D03*
X1027780D02*
D03*
Y1017375D02*
D03*
X1037280D02*
D03*
X1046780D02*
D03*
X1155273Y839871D02*
D03*
X1136273D02*
D03*
Y810871D02*
D03*
X1145773D02*
D03*
X1155273D02*
D03*
D64*
X1107780Y591385D02*
D03*
Y581385D02*
D03*
Y571385D02*
D03*
Y561385D02*
D03*
Y521385D02*
D03*
Y526385D02*
D03*
Y531385D02*
D03*
Y536385D02*
D03*
Y541385D02*
D03*
Y551385D02*
D03*
Y601385D02*
D03*
Y546385D02*
D03*
Y556385D02*
D03*
Y566385D02*
D03*
Y576385D02*
D03*
Y586385D02*
D03*
Y596385D02*
D03*
Y606385D02*
D03*
Y611385D02*
D03*
Y616385D02*
D03*
Y1091375D02*
D03*
Y1081375D02*
D03*
Y1071375D02*
D03*
Y1061375D02*
D03*
Y1021375D02*
D03*
Y1026375D02*
D03*
Y1031375D02*
D03*
Y1036375D02*
D03*
Y1041375D02*
D03*
Y1051375D02*
D03*
Y1101375D02*
D03*
Y1046375D02*
D03*
Y1056375D02*
D03*
Y1066375D02*
D03*
Y1076375D02*
D03*
Y1086375D02*
D03*
Y1096375D02*
D03*
Y1106375D02*
D03*
Y1111375D02*
D03*
Y1116375D02*
D03*
D65*
X1124780Y640885D02*
D03*
Y496885D02*
D03*
Y1140875D02*
D03*
Y996875D02*
D03*
D66*
X1140030Y635385D02*
D03*
Y502385D02*
D03*
Y1135375D02*
D03*
Y1002375D02*
D03*
D67*
X1039000Y740000D02*
D03*
Y1239990D02*
D03*
D68*
X904000Y735500D02*
D03*
Y1235490D02*
D03*
D69*
Y694000D02*
D03*
Y1193990D02*
D03*
D70*
Y632000D02*
D03*
X1015500Y589000D02*
D03*
X904000Y1131990D02*
D03*
X1015500Y1088990D02*
D03*
D71*
X913500Y589000D02*
D03*
X923000D02*
D03*
X934000D02*
D03*
X945000D02*
D03*
X956000D02*
D03*
X967000D02*
D03*
X978000D02*
D03*
X989000D02*
D03*
X1000000D02*
D03*
X913500Y1088990D02*
D03*
X923000D02*
D03*
X934000D02*
D03*
X945000D02*
D03*
X956000D02*
D03*
X967000D02*
D03*
X978000D02*
D03*
X989000D02*
D03*
X1000000D02*
D03*
D72*
X318280Y372485D02*
D03*
Y872475D02*
D03*
D73*
X338380Y389985D02*
D03*
Y384985D02*
D03*
Y379985D02*
D03*
Y374985D02*
D03*
Y369985D02*
D03*
Y364985D02*
D03*
Y359985D02*
D03*
Y354985D02*
D03*
X325780Y347385D02*
D03*
X310780D02*
D03*
X298180Y354985D02*
D03*
Y359985D02*
D03*
Y364985D02*
D03*
Y369985D02*
D03*
Y374985D02*
D03*
Y379985D02*
D03*
Y384985D02*
D03*
Y389985D02*
D03*
X310780Y397585D02*
D03*
X325780D02*
D03*
X338380Y889975D02*
D03*
Y884975D02*
D03*
Y879975D02*
D03*
Y874975D02*
D03*
Y869975D02*
D03*
Y864975D02*
D03*
Y859975D02*
D03*
Y854975D02*
D03*
X325780Y847375D02*
D03*
X310780D02*
D03*
X298180Y854975D02*
D03*
Y859975D02*
D03*
Y864975D02*
D03*
Y869975D02*
D03*
Y874975D02*
D03*
Y879975D02*
D03*
Y884975D02*
D03*
Y889975D02*
D03*
X310780Y897575D02*
D03*
X325780D02*
D03*
D74*
X1075780Y399885D02*
D03*
X1070780D02*
D03*
X1065780D02*
D03*
X1060780D02*
D03*
Y429885D02*
D03*
X1065780D02*
D03*
X1070780D02*
D03*
X1075780D02*
D03*
Y899875D02*
D03*
X1070780D02*
D03*
X1065780D02*
D03*
X1060780D02*
D03*
Y929875D02*
D03*
X1065780D02*
D03*
X1070780D02*
D03*
X1075780D02*
D03*
D75*
X1053280Y407385D02*
D03*
Y412385D02*
D03*
Y417385D02*
D03*
Y422385D02*
D03*
X1083280D02*
D03*
Y417385D02*
D03*
Y412385D02*
D03*
Y407385D02*
D03*
X1053280Y907375D02*
D03*
Y912375D02*
D03*
Y917375D02*
D03*
Y922375D02*
D03*
X1083280D02*
D03*
Y917375D02*
D03*
Y912375D02*
D03*
Y907375D02*
D03*
D76*
X1068280Y414885D02*
D03*
Y914875D02*
D03*
D77*
X1085030Y367385D02*
D03*
X1054530D02*
D03*
X1085030Y867375D02*
D03*
X1054530D02*
D03*
D78*
X638776Y617914D02*
D03*
X642311Y614378D02*
D03*
X645847Y610843D02*
D03*
X649382Y607307D02*
D03*
X652918Y603772D02*
D03*
X656453Y600236D02*
D03*
X659989Y596701D02*
D03*
X663524Y593165D02*
D03*
X667060Y589630D02*
D03*
X670595Y586094D02*
D03*
X674131Y582558D02*
D03*
X677667Y579023D02*
D03*
X681202Y575487D02*
D03*
X684738Y571952D02*
D03*
X688273Y568416D02*
D03*
X691809Y564881D02*
D03*
X609784Y482856D02*
D03*
X606249Y486392D02*
D03*
X602713Y489927D02*
D03*
X599178Y493463D02*
D03*
X595642Y496998D02*
D03*
X592107Y500534D02*
D03*
X588571Y504070D02*
D03*
X585036Y507605D02*
D03*
X581500Y511141D02*
D03*
X577965Y514676D02*
D03*
X574429Y518212D02*
D03*
X570893Y521747D02*
D03*
X567358Y525283D02*
D03*
X563822Y528818D02*
D03*
X560287Y532354D02*
D03*
X556751Y535889D02*
D03*
X638776Y1117904D02*
D03*
X642311Y1114368D02*
D03*
X645847Y1110833D02*
D03*
X649382Y1107297D02*
D03*
X652918Y1103762D02*
D03*
X656453Y1100226D02*
D03*
X659989Y1096691D02*
D03*
X663524Y1093155D02*
D03*
X667060Y1089619D02*
D03*
X670595Y1086084D02*
D03*
X674131Y1082548D02*
D03*
X677667Y1079013D02*
D03*
X681202Y1075477D02*
D03*
X684738Y1071942D02*
D03*
X688273Y1068406D02*
D03*
X691809Y1064871D02*
D03*
X609784Y982846D02*
D03*
X606249Y986382D02*
D03*
X602713Y989917D02*
D03*
X599178Y993453D02*
D03*
X595642Y996989D02*
D03*
X592107Y1000524D02*
D03*
X588571Y1004060D02*
D03*
X585036Y1007595D02*
D03*
X581500Y1011131D02*
D03*
X577965Y1014666D02*
D03*
X574429Y1018202D02*
D03*
X570893Y1021737D02*
D03*
X567358Y1025273D02*
D03*
X563822Y1028808D02*
D03*
X560287Y1032344D02*
D03*
X556751Y1035879D02*
D03*
D79*
X691809Y535889D02*
D03*
X688273Y532354D02*
D03*
X684738Y528818D02*
D03*
X681202Y525283D02*
D03*
X677667Y521747D02*
D03*
X674131Y518212D02*
D03*
X670595Y514676D02*
D03*
X667060Y511141D02*
D03*
X663524Y507605D02*
D03*
X659989Y504070D02*
D03*
X656453Y500534D02*
D03*
X652918Y496998D02*
D03*
X649382Y493463D02*
D03*
X645847Y489927D02*
D03*
X642311Y486392D02*
D03*
X638776Y482856D02*
D03*
X556751Y564881D02*
D03*
X560287Y568416D02*
D03*
X563822Y571952D02*
D03*
X567358Y575487D02*
D03*
X570893Y579023D02*
D03*
X574429Y582558D02*
D03*
X577965Y586094D02*
D03*
X581500Y589630D02*
D03*
X585036Y593165D02*
D03*
X588571Y596701D02*
D03*
X592107Y600236D02*
D03*
X595642Y603772D02*
D03*
X599178Y607307D02*
D03*
X602713Y610843D02*
D03*
X606249Y614378D02*
D03*
X609784Y617914D02*
D03*
X691809Y1035879D02*
D03*
X688273Y1032344D02*
D03*
X684738Y1028808D02*
D03*
X681202Y1025273D02*
D03*
X677667Y1021737D02*
D03*
X674131Y1018202D02*
D03*
X670595Y1014666D02*
D03*
X667060Y1011131D02*
D03*
X663524Y1007595D02*
D03*
X659989Y1004060D02*
D03*
X656453Y1000524D02*
D03*
X652918Y996989D02*
D03*
X649382Y993453D02*
D03*
X645847Y989917D02*
D03*
X642311Y986382D02*
D03*
X638776Y982846D02*
D03*
X556751Y1064871D02*
D03*
X560287Y1068406D02*
D03*
X563822Y1071942D02*
D03*
X567358Y1075477D02*
D03*
X570893Y1079013D02*
D03*
X574429Y1082548D02*
D03*
X577965Y1086084D02*
D03*
X581500Y1089619D02*
D03*
X585036Y1093155D02*
D03*
X588571Y1096691D02*
D03*
X592107Y1100226D02*
D03*
X595642Y1103762D02*
D03*
X599178Y1107297D02*
D03*
X602713Y1110833D02*
D03*
X606249Y1114368D02*
D03*
X609784Y1117904D02*
D03*
D80*
X340699Y702304D02*
D03*
X331861Y693466D02*
D03*
X340699Y1202294D02*
D03*
X331861Y1193456D02*
D03*
D81*
X316780Y605135D02*
D03*
X293780D02*
D03*
X270780D02*
D03*
X316780Y1105125D02*
D03*
X293780D02*
D03*
X270780D02*
D03*
D82*
X293780Y665635D02*
D03*
Y1165625D02*
D03*
D83*
X698144Y613249D02*
D03*
X691780Y606885D02*
D03*
X654598Y642703D02*
D03*
X660962Y649067D02*
D03*
X698144Y1113239D02*
D03*
X691780Y1106875D02*
D03*
X654598Y1142693D02*
D03*
X660962Y1149057D02*
D03*
D84*
X689715Y625264D02*
D03*
X674159Y640820D02*
D03*
X662845Y629506D02*
D03*
X678401Y613950D02*
D03*
X689715Y1125254D02*
D03*
X674159Y1140810D02*
D03*
X662845Y1129496D02*
D03*
X678401Y1113940D02*
D03*
D85*
X870775Y708391D02*
D03*
Y727391D02*
D03*
X843775D02*
D03*
Y717891D02*
D03*
Y708391D02*
D03*
X870775Y1208381D02*
D03*
Y1227381D02*
D03*
X843775D02*
D03*
Y1217881D02*
D03*
Y1208381D02*
D03*
D86*
X1085030Y367385D02*
X1088780Y363635D01*
X444780Y536885D02*
X461280Y553385D01*
X507280D02*
X523780Y536885D01*
X461280Y553385D02*
X507280D01*
X537240Y612345D02*
X541780Y616885D01*
X537240Y591898D02*
X541780Y587358D01*
X537240Y591898D02*
Y612345D01*
X541780Y553885D02*
Y587358D01*
X411280Y536885D02*
X444780D01*
X532780Y625885D02*
X541780Y616885D01*
X515280Y625885D02*
X532780D01*
X541780Y616885D02*
Y639385D01*
X546280Y643885D01*
X1088780Y346885D02*
Y363635D01*
X523780Y536885D02*
X533280D01*
X1085030Y867375D02*
X1088780Y863625D01*
X444780Y1036875D02*
X461280Y1053375D01*
X507280D02*
X523780Y1036875D01*
X461280Y1053375D02*
X507280D01*
X537240Y1112335D02*
X541780Y1116875D01*
X537240Y1091888D02*
X541780Y1087348D01*
X537240Y1091888D02*
Y1112335D01*
X541780Y1053875D02*
Y1087348D01*
X411280Y1036875D02*
X444780D01*
X532780Y1125875D02*
X541780Y1116875D01*
X515280Y1125875D02*
X532780D01*
X541780Y1116875D02*
Y1139375D01*
X546280Y1143875D01*
X1088780Y846875D02*
Y863625D01*
X523780Y1036875D02*
X533280D01*
M02*
