G04 Layer_Color=16711935*
%FSLAX44Y44*%
%MOMM*%
G71*
G01*
G75*
%ADD89R,0.7100X0.7100*%
%ADD90R,0.8000X0.8000*%
%ADD91R,0.8000X0.8000*%
%ADD101R,0.7100X0.7100*%
%ADD104R,1.7300X2.4800*%
%ADD105O,0.9800X0.4800*%
%ADD106R,1.1100X1.1600*%
%ADD108R,1.1600X1.1100*%
%ADD116R,2.8600X1.1600*%
%ADD117R,1.8600X0.7600*%
%ADD120C,0.1600*%
%ADD121C,6.1600*%
%ADD122R,1.1100X0.9600*%
%ADD123R,2.9030X2.3190*%
%ADD124R,0.7600X1.8600*%
%ADD125R,1.1600X2.8600*%
%ADD126R,0.9220X1.8745*%
%ADD127R,0.7400X1.6900*%
%ADD128R,1.3400X1.9400*%
%ADD129R,0.8100X1.3600*%
%ADD130R,0.8800X0.3800*%
%ADD131R,2.2800X2.4800*%
%ADD132R,0.9300X1.3800*%
%ADD133R,0.7400X0.7400*%
%ADD134R,0.7200X0.7200*%
%ADD135R,0.7400X0.7400*%
%ADD136R,0.7200X0.7200*%
%ADD137R,1.3800X1.9800*%
%ADD138R,1.0800X2.8800*%
%ADD139R,1.0800X0.8800*%
%ADD140R,1.0800X1.2800*%
%ADD141R,0.7800X1.2800*%
%ADD142R,2.2100X3.2100*%
%ADD143C,0.2400*%
%ADD144O,0.2900X0.9400*%
%ADD145O,0.9400X0.2900*%
%ADD146R,1.7400X1.7400*%
%ADD147R,1.5600X1.9600*%
%ADD148R,2.6100X3.5100*%
G04:AMPARAMS|DCode=149|XSize=0.38mm|YSize=1.68mm|CornerRadius=0mm|HoleSize=0mm|Usage=FLASHONLY|Rotation=135.000|XOffset=0mm|YOffset=0mm|HoleType=Round|Shape=Round|*
%AMOVALD149*
21,1,1.3000,0.3800,0.0000,0.0000,225.0*
1,1,0.3800,0.4596,0.4596*
1,1,0.3800,-0.4596,-0.4596*
%
%ADD149OVALD149*%

G04:AMPARAMS|DCode=150|XSize=0.38mm|YSize=1.68mm|CornerRadius=0mm|HoleSize=0mm|Usage=FLASHONLY|Rotation=225.000|XOffset=0mm|YOffset=0mm|HoleType=Round|Shape=Round|*
%AMOVALD150*
21,1,1.3000,0.3800,0.0000,0.0000,315.0*
1,1,0.3800,-0.4596,0.4596*
1,1,0.3800,0.4596,-0.4596*
%
%ADD150OVALD150*%

G04:AMPARAMS|DCode=151|XSize=1.16mm|YSize=1.11mm|CornerRadius=0mm|HoleSize=0mm|Usage=FLASHONLY|Rotation=135.000|XOffset=0mm|YOffset=0mm|HoleType=Round|Shape=Rectangle|*
%AMROTATEDRECTD151*
4,1,4,0.8026,-0.0177,0.0177,-0.8026,-0.8026,0.0177,-0.0177,0.8026,0.8026,-0.0177,0.0*
%
%ADD151ROTATEDRECTD151*%

%ADD152R,1.1600X2.5100*%
%ADD153R,3.4600X2.5100*%
%ADD154P,1.1314X4X360.0*%
G04:AMPARAMS|DCode=155|XSize=1.56mm|YSize=1.31mm|CornerRadius=0mm|HoleSize=0mm|Usage=FLASHONLY|Rotation=135.000|XOffset=0mm|YOffset=0mm|HoleType=Round|Shape=Rectangle|*
%AMROTATEDRECTD155*
4,1,4,1.0147,-0.0884,0.0884,-1.0147,-1.0147,0.0884,-0.0884,1.0147,1.0147,-0.0884,0.0*
%
%ADD155ROTATEDRECTD155*%

%ADD156R,1.1600X0.7600*%
%ADD157C,0.6800*%
%ADD158C,0.9600*%
%ADD159C,0.8800*%
G36*
X327278Y899468D02*
X327372Y899439D01*
X327459Y899393D01*
X327535Y899330D01*
X327598Y899254D01*
X327644Y899167D01*
X327673Y899073D01*
X327682Y898975D01*
Y891909D01*
X327686Y891875D01*
Y891294D01*
Y891294D01*
D01*
X327685Y891285D01*
X327676Y891196D01*
X327648Y891101D01*
X327626Y891061D01*
X327601Y891015D01*
X327573Y890980D01*
X327539Y890938D01*
X327538Y890938D01*
X326717Y890117D01*
X326717Y890116D01*
X326682Y890088D01*
X326640Y890054D01*
X326554Y890007D01*
X326459Y889979D01*
X326451Y889978D01*
X326361Y889969D01*
X326361Y889969D01*
X325199D01*
X325199Y889969D01*
X325110Y889978D01*
X325101Y889979D01*
X325006Y890007D01*
X324920Y890054D01*
X324878Y890088D01*
X324843Y890116D01*
X324843Y890117D01*
X324021Y890938D01*
X323959Y891015D01*
X323913Y891101D01*
X323906Y891123D01*
X323884Y891196D01*
X323879Y891245D01*
X323874Y891294D01*
X323874Y891294D01*
Y891875D01*
X323878Y891909D01*
Y898975D01*
X323887Y899073D01*
X323916Y899167D01*
X323962Y899254D01*
X324025Y899330D01*
X324101Y899393D01*
X324188Y899439D01*
X324282Y899468D01*
X324380Y899477D01*
X327180D01*
X327278Y899468D01*
D02*
G37*
G36*
X312278D02*
X312372Y899439D01*
X312459Y899393D01*
X312535Y899330D01*
X312598Y899254D01*
X312644Y899167D01*
X312673Y899073D01*
X312682Y898975D01*
Y891909D01*
X312686Y891875D01*
Y891294D01*
Y891294D01*
D01*
X312685Y891285D01*
X312676Y891196D01*
X312647Y891101D01*
X312626Y891061D01*
X312601Y891015D01*
X312573Y890980D01*
X312539Y890938D01*
X312539Y890938D01*
X311717Y890117D01*
X311716Y890116D01*
X311682Y890088D01*
X311640Y890054D01*
X311553Y890007D01*
X311459Y889979D01*
X311451Y889978D01*
X311361Y889969D01*
X311361Y889969D01*
X310199D01*
X310199Y889969D01*
X310110Y889978D01*
X310101Y889979D01*
X310007Y890007D01*
X309920Y890054D01*
X309878Y890088D01*
X309844Y890116D01*
X309843Y890117D01*
X309021Y890938D01*
X308959Y891015D01*
X308913Y891101D01*
X308906Y891123D01*
X308884Y891196D01*
X308879Y891245D01*
X308874Y891294D01*
X308874Y891294D01*
Y891875D01*
X308878Y891909D01*
Y898975D01*
X308887Y899073D01*
X308916Y899167D01*
X308962Y899254D01*
X309025Y899330D01*
X309101Y899393D01*
X309188Y899439D01*
X309282Y899468D01*
X309380Y899477D01*
X312180D01*
X312278Y899468D01*
D02*
G37*
G36*
X332099Y891881D02*
X332680D01*
X332714Y891877D01*
X339780D01*
X339878Y891868D01*
X339972Y891839D01*
X340059Y891793D01*
X340135Y891730D01*
X340198Y891654D01*
X340244Y891567D01*
X340273Y891473D01*
X340283Y891375D01*
Y888575D01*
X340273Y888477D01*
X340244Y888383D01*
X340198Y888296D01*
X340135Y888220D01*
X340059Y888157D01*
X339972Y888111D01*
X339878Y888082D01*
X339780Y888073D01*
X332714D01*
X332680Y888069D01*
X332099D01*
X332099Y888069D01*
X332010Y888078D01*
X332001Y888079D01*
X331907Y888108D01*
X331820Y888154D01*
X331778Y888188D01*
X331744Y888216D01*
X331743Y888216D01*
X330921Y889038D01*
X330859Y889115D01*
X330812Y889201D01*
X330806Y889223D01*
X330784Y889296D01*
X330779Y889345D01*
X330774Y889394D01*
X330774Y889394D01*
Y890556D01*
X330784Y890654D01*
X330806Y890727D01*
X330812Y890749D01*
X330859Y890835D01*
X330921Y890911D01*
X331743Y891733D01*
X331744Y891734D01*
X331820Y891796D01*
X331907Y891842D01*
X331928Y891849D01*
X332001Y891871D01*
X332050Y891876D01*
X332099Y891881D01*
X332099Y891881D01*
D02*
G37*
G36*
X304510Y891876D02*
X304559Y891871D01*
X304632Y891849D01*
X304654Y891842D01*
X304740Y891796D01*
X304817Y891734D01*
X305639Y890911D01*
X305701Y890835D01*
X305748Y890749D01*
X305754Y890727D01*
X305776Y890654D01*
X305781Y890605D01*
X305786Y890556D01*
X305786Y890556D01*
Y889394D01*
Y889394D01*
D01*
X305785Y889385D01*
X305776Y889296D01*
X305748Y889201D01*
X305726Y889161D01*
X305701Y889115D01*
X305673Y889080D01*
X305639Y889038D01*
X305639Y889038D01*
X304817Y888216D01*
X304817Y888216D01*
X304782Y888188D01*
X304740Y888154D01*
X304653Y888108D01*
X304559Y888079D01*
X304550Y888078D01*
X304461Y888069D01*
X304461Y888069D01*
X303880D01*
X303846Y888073D01*
X296780D01*
X296682Y888082D01*
X296588Y888111D01*
X296501Y888157D01*
X296425Y888220D01*
X296362Y888296D01*
X296316Y888383D01*
X296287Y888477D01*
X296278Y888575D01*
Y891375D01*
X296287Y891473D01*
X296316Y891567D01*
X296362Y891654D01*
X296425Y891730D01*
X296501Y891793D01*
X296588Y891839D01*
X296682Y891868D01*
X296780Y891877D01*
X303846D01*
X303880Y891881D01*
X304461D01*
X304461Y891881D01*
X304510Y891876D01*
D02*
G37*
G36*
X332099Y886881D02*
X332680D01*
X332714Y886877D01*
X339780D01*
X339878Y886868D01*
X339972Y886839D01*
X340059Y886793D01*
X340135Y886730D01*
X340198Y886654D01*
X340244Y886567D01*
X340273Y886473D01*
X340283Y886375D01*
Y883575D01*
X340273Y883477D01*
X340244Y883383D01*
X340198Y883296D01*
X340135Y883220D01*
X340059Y883157D01*
X339972Y883111D01*
X339878Y883082D01*
X339780Y883073D01*
X332714D01*
X332680Y883069D01*
X332099D01*
X332099Y883069D01*
X332010Y883078D01*
X332001Y883079D01*
X331907Y883108D01*
X331820Y883154D01*
X331778Y883188D01*
X331744Y883216D01*
X331743Y883216D01*
X330921Y884038D01*
X330859Y884115D01*
X330812Y884201D01*
X330806Y884223D01*
X330784Y884296D01*
X330779Y884345D01*
X330774Y884394D01*
X330774Y884394D01*
Y885556D01*
X330784Y885654D01*
X330806Y885727D01*
X330812Y885749D01*
X330859Y885835D01*
X330921Y885911D01*
X331743Y886733D01*
X331744Y886734D01*
X331820Y886796D01*
X331907Y886842D01*
X331928Y886849D01*
X332001Y886871D01*
X332050Y886876D01*
X332099Y886881D01*
X332099Y886881D01*
D02*
G37*
G36*
X304510Y886876D02*
X304559Y886871D01*
X304632Y886849D01*
X304654Y886842D01*
X304740Y886796D01*
X304817Y886734D01*
X305639Y885911D01*
X305701Y885835D01*
X305748Y885749D01*
X305754Y885727D01*
X305776Y885654D01*
X305781Y885605D01*
X305786Y885556D01*
X305786Y885556D01*
Y884394D01*
Y884394D01*
D01*
X305785Y884385D01*
X305776Y884296D01*
X305748Y884202D01*
X305726Y884161D01*
X305701Y884115D01*
X305673Y884080D01*
X305639Y884038D01*
X305639Y884038D01*
X304817Y883216D01*
X304817Y883216D01*
X304782Y883188D01*
X304740Y883154D01*
X304653Y883108D01*
X304559Y883079D01*
X304550Y883078D01*
X304461Y883069D01*
X304461Y883069D01*
X303880D01*
X303846Y883073D01*
X296780D01*
X296682Y883082D01*
X296588Y883111D01*
X296501Y883157D01*
X296425Y883220D01*
X296362Y883296D01*
X296316Y883383D01*
X296287Y883477D01*
X296278Y883575D01*
Y886375D01*
X296287Y886473D01*
X296316Y886567D01*
X296362Y886654D01*
X296425Y886730D01*
X296501Y886793D01*
X296588Y886839D01*
X296682Y886868D01*
X296780Y886877D01*
X303846D01*
X303880Y886881D01*
X304461D01*
X304461Y886881D01*
X304510Y886876D01*
D02*
G37*
G36*
X332099Y881881D02*
X332680D01*
X332714Y881877D01*
X339780D01*
X339878Y881868D01*
X339972Y881839D01*
X340059Y881793D01*
X340135Y881730D01*
X340198Y881654D01*
X340244Y881567D01*
X340273Y881473D01*
X340283Y881375D01*
Y878575D01*
X340273Y878477D01*
X340244Y878383D01*
X340198Y878296D01*
X340135Y878220D01*
X340059Y878157D01*
X339972Y878111D01*
X339878Y878082D01*
X339780Y878073D01*
X332714D01*
X332680Y878069D01*
X332099D01*
X332099Y878069D01*
X332010Y878078D01*
X332001Y878079D01*
X331907Y878108D01*
X331820Y878154D01*
X331778Y878188D01*
X331744Y878216D01*
X331743Y878217D01*
X330921Y879038D01*
X330859Y879115D01*
X330812Y879201D01*
X330806Y879223D01*
X330784Y879296D01*
X330779Y879345D01*
X330774Y879394D01*
X330774Y879394D01*
Y880556D01*
X330784Y880654D01*
X330806Y880727D01*
X330812Y880749D01*
X330859Y880835D01*
X330921Y880911D01*
X331743Y881733D01*
X331744Y881734D01*
X331820Y881796D01*
X331907Y881842D01*
X331928Y881849D01*
X332001Y881871D01*
X332050Y881876D01*
X332099Y881881D01*
X332099Y881881D01*
D02*
G37*
G36*
X304510Y881876D02*
X304559Y881871D01*
X304632Y881849D01*
X304654Y881842D01*
X304740Y881796D01*
X304817Y881734D01*
X305639Y880911D01*
X305701Y880835D01*
X305748Y880749D01*
X305754Y880727D01*
X305776Y880654D01*
X305781Y880605D01*
X305786Y880556D01*
X305786Y880556D01*
Y879394D01*
Y879394D01*
D01*
X305785Y879385D01*
X305776Y879296D01*
X305748Y879202D01*
X305726Y879161D01*
X305701Y879115D01*
X305673Y879080D01*
X305639Y879038D01*
X305639Y879038D01*
X304817Y878217D01*
X304817Y878216D01*
X304782Y878188D01*
X304740Y878154D01*
X304653Y878108D01*
X304559Y878079D01*
X304550Y878078D01*
X304461Y878069D01*
X304461Y878069D01*
X303880D01*
X303846Y878073D01*
X296780D01*
X296682Y878082D01*
X296588Y878111D01*
X296501Y878157D01*
X296425Y878220D01*
X296362Y878296D01*
X296316Y878383D01*
X296287Y878477D01*
X296278Y878575D01*
Y881375D01*
X296287Y881473D01*
X296316Y881567D01*
X296362Y881654D01*
X296425Y881730D01*
X296501Y881793D01*
X296588Y881839D01*
X296682Y881868D01*
X296780Y881877D01*
X303846D01*
X303880Y881881D01*
X304461D01*
X304461Y881881D01*
X304510Y881876D01*
D02*
G37*
G36*
X332099Y876881D02*
X332680D01*
X332714Y876877D01*
X339780D01*
X339878Y876868D01*
X339972Y876839D01*
X340059Y876793D01*
X340135Y876730D01*
X340198Y876654D01*
X340244Y876567D01*
X340273Y876473D01*
X340283Y876375D01*
Y873575D01*
X340273Y873477D01*
X340244Y873383D01*
X340198Y873296D01*
X340135Y873220D01*
X340059Y873157D01*
X339972Y873111D01*
X339878Y873082D01*
X339780Y873073D01*
X332714D01*
X332680Y873069D01*
X332099D01*
X332099Y873069D01*
X332010Y873078D01*
X332001Y873079D01*
X331907Y873108D01*
X331820Y873154D01*
X331778Y873188D01*
X331744Y873216D01*
X331743Y873216D01*
X330921Y874038D01*
X330859Y874115D01*
X330812Y874201D01*
X330806Y874223D01*
X330784Y874296D01*
X330779Y874345D01*
X330774Y874394D01*
X330774Y874394D01*
Y875556D01*
X330784Y875654D01*
X330806Y875727D01*
X330812Y875749D01*
X330859Y875835D01*
X330921Y875911D01*
X331743Y876733D01*
X331744Y876734D01*
X331820Y876796D01*
X331907Y876842D01*
X331928Y876849D01*
X332001Y876871D01*
X332050Y876876D01*
X332099Y876881D01*
X332099Y876881D01*
D02*
G37*
G36*
X304510Y876876D02*
X304559Y876871D01*
X304632Y876849D01*
X304654Y876842D01*
X304740Y876796D01*
X304817Y876734D01*
X305639Y875911D01*
X305701Y875835D01*
X305748Y875749D01*
X305754Y875727D01*
X305776Y875654D01*
X305781Y875605D01*
X305786Y875556D01*
X305786Y875556D01*
Y874394D01*
Y874394D01*
D01*
X305785Y874385D01*
X305776Y874296D01*
X305748Y874202D01*
X305726Y874161D01*
X305701Y874115D01*
X305673Y874080D01*
X305639Y874038D01*
X305639Y874038D01*
X304817Y873216D01*
X304817Y873216D01*
X304782Y873188D01*
X304740Y873154D01*
X304653Y873108D01*
X304559Y873079D01*
X304550Y873078D01*
X304461Y873069D01*
X304461Y873069D01*
X303880D01*
X303846Y873073D01*
X296780D01*
X296682Y873082D01*
X296588Y873111D01*
X296501Y873157D01*
X296425Y873220D01*
X296362Y873296D01*
X296316Y873383D01*
X296287Y873477D01*
X296278Y873575D01*
Y876375D01*
X296287Y876473D01*
X296316Y876567D01*
X296362Y876654D01*
X296425Y876730D01*
X296501Y876793D01*
X296588Y876839D01*
X296682Y876868D01*
X296780Y876877D01*
X303846D01*
X303880Y876881D01*
X304461D01*
X304461Y876881D01*
X304510Y876876D01*
D02*
G37*
G36*
X332099Y871881D02*
X332680D01*
X332714Y871877D01*
X339780D01*
X339878Y871868D01*
X339972Y871839D01*
X340059Y871793D01*
X340135Y871730D01*
X340198Y871654D01*
X340244Y871567D01*
X340273Y871473D01*
X340283Y871375D01*
Y868575D01*
X340273Y868477D01*
X340244Y868383D01*
X340198Y868296D01*
X340135Y868220D01*
X340059Y868157D01*
X339972Y868111D01*
X339878Y868082D01*
X339780Y868073D01*
X332714D01*
X332680Y868069D01*
X332099D01*
X332099Y868069D01*
X332010Y868078D01*
X332001Y868079D01*
X331907Y868108D01*
X331820Y868154D01*
X331778Y868188D01*
X331744Y868216D01*
X331743Y868217D01*
X330921Y869038D01*
X330859Y869115D01*
X330812Y869201D01*
X330806Y869223D01*
X330784Y869296D01*
X330779Y869345D01*
X330774Y869394D01*
X330774Y869394D01*
Y870556D01*
X330784Y870654D01*
X330806Y870727D01*
X330812Y870749D01*
X330859Y870835D01*
X330921Y870911D01*
X331743Y871733D01*
X331744Y871734D01*
X331820Y871796D01*
X331907Y871842D01*
X331928Y871849D01*
X332001Y871871D01*
X332050Y871876D01*
X332099Y871881D01*
X332099Y871881D01*
D02*
G37*
G36*
X304510Y871876D02*
X304559Y871871D01*
X304632Y871849D01*
X304654Y871842D01*
X304740Y871796D01*
X304817Y871734D01*
X305639Y870911D01*
X305701Y870835D01*
X305748Y870749D01*
X305754Y870727D01*
X305776Y870654D01*
X305781Y870605D01*
X305786Y870556D01*
X305786Y870556D01*
Y869394D01*
Y869394D01*
D01*
X305785Y869385D01*
X305776Y869296D01*
X305748Y869202D01*
X305726Y869161D01*
X305701Y869115D01*
X305673Y869080D01*
X305639Y869038D01*
X305639Y869038D01*
X304817Y868217D01*
X304817Y868216D01*
X304782Y868188D01*
X304740Y868154D01*
X304653Y868108D01*
X304559Y868079D01*
X304550Y868078D01*
X304461Y868069D01*
X304461Y868069D01*
X303880D01*
X303846Y868073D01*
X296780D01*
X296682Y868082D01*
X296588Y868111D01*
X296501Y868157D01*
X296425Y868220D01*
X296362Y868296D01*
X296316Y868383D01*
X296287Y868477D01*
X296278Y868575D01*
Y871375D01*
X296287Y871473D01*
X296316Y871567D01*
X296362Y871654D01*
X296425Y871730D01*
X296501Y871793D01*
X296588Y871839D01*
X296682Y871868D01*
X296780Y871877D01*
X303846D01*
X303880Y871881D01*
X304461D01*
X304461Y871881D01*
X304510Y871876D01*
D02*
G37*
G36*
X332099Y866881D02*
X332680D01*
X332714Y866877D01*
X339780D01*
X339878Y866868D01*
X339972Y866839D01*
X340059Y866793D01*
X340135Y866730D01*
X340198Y866654D01*
X340244Y866567D01*
X340273Y866473D01*
X340283Y866375D01*
Y863575D01*
X340273Y863477D01*
X340244Y863383D01*
X340198Y863296D01*
X340135Y863220D01*
X340059Y863157D01*
X339972Y863111D01*
X339878Y863082D01*
X339780Y863073D01*
X332714D01*
X332680Y863069D01*
X332099D01*
X332099Y863069D01*
X332010Y863078D01*
X332001Y863079D01*
X331907Y863108D01*
X331820Y863154D01*
X331778Y863188D01*
X331744Y863216D01*
X331743Y863216D01*
X330921Y864038D01*
X330859Y864115D01*
X330812Y864201D01*
X330806Y864223D01*
X330784Y864296D01*
X330779Y864345D01*
X330774Y864394D01*
X330774Y864394D01*
Y865556D01*
X330784Y865654D01*
X330806Y865727D01*
X330812Y865749D01*
X330859Y865835D01*
X330921Y865911D01*
X331743Y866733D01*
X331744Y866734D01*
X331820Y866796D01*
X331907Y866842D01*
X331928Y866849D01*
X332001Y866871D01*
X332050Y866876D01*
X332099Y866881D01*
X332099Y866881D01*
D02*
G37*
G36*
X304510Y866876D02*
X304559Y866871D01*
X304632Y866849D01*
X304654Y866842D01*
X304740Y866796D01*
X304817Y866734D01*
X305639Y865911D01*
X305701Y865835D01*
X305748Y865749D01*
X305754Y865727D01*
X305776Y865654D01*
X305781Y865605D01*
X305786Y865556D01*
X305786Y865556D01*
Y864394D01*
Y864394D01*
D01*
X305785Y864385D01*
X305776Y864296D01*
X305748Y864201D01*
X305726Y864161D01*
X305701Y864115D01*
X305673Y864080D01*
X305639Y864038D01*
X305639Y864038D01*
X304817Y863216D01*
X304817Y863216D01*
X304782Y863188D01*
X304740Y863154D01*
X304653Y863108D01*
X304559Y863079D01*
X304550Y863078D01*
X304461Y863069D01*
X304461Y863069D01*
X303880D01*
X303846Y863073D01*
X296780D01*
X296682Y863082D01*
X296588Y863111D01*
X296501Y863157D01*
X296425Y863220D01*
X296362Y863296D01*
X296316Y863383D01*
X296287Y863477D01*
X296278Y863575D01*
Y866375D01*
X296287Y866473D01*
X296316Y866567D01*
X296362Y866654D01*
X296425Y866730D01*
X296501Y866793D01*
X296588Y866839D01*
X296682Y866868D01*
X296780Y866877D01*
X303846D01*
X303880Y866881D01*
X304461D01*
X304461Y866881D01*
X304510Y866876D01*
D02*
G37*
G36*
X332099Y861881D02*
X332680D01*
X332714Y861877D01*
X339780D01*
X339878Y861868D01*
X339972Y861839D01*
X340059Y861793D01*
X340135Y861730D01*
X340198Y861654D01*
X340244Y861567D01*
X340273Y861473D01*
X340283Y861375D01*
Y858575D01*
X340273Y858477D01*
X340244Y858383D01*
X340198Y858296D01*
X340135Y858220D01*
X340059Y858157D01*
X339972Y858111D01*
X339878Y858082D01*
X339780Y858073D01*
X332714D01*
X332680Y858069D01*
X332099D01*
X332099Y858069D01*
X332010Y858078D01*
X332001Y858079D01*
X331907Y858108D01*
X331820Y858154D01*
X331778Y858188D01*
X331744Y858216D01*
X331743Y858216D01*
X330921Y859038D01*
X330859Y859115D01*
X330812Y859201D01*
X330806Y859223D01*
X330784Y859296D01*
X330779Y859345D01*
X330774Y859394D01*
X330774Y859394D01*
Y860556D01*
X330784Y860654D01*
X330806Y860727D01*
X330812Y860749D01*
X330859Y860835D01*
X330921Y860911D01*
X331743Y861733D01*
X331744Y861734D01*
X331820Y861796D01*
X331907Y861842D01*
X331928Y861849D01*
X332001Y861871D01*
X332050Y861876D01*
X332099Y861881D01*
X332099Y861881D01*
D02*
G37*
G36*
X304510Y861876D02*
X304559Y861871D01*
X304632Y861849D01*
X304654Y861842D01*
X304740Y861796D01*
X304817Y861734D01*
X305639Y860911D01*
X305701Y860835D01*
X305748Y860749D01*
X305754Y860727D01*
X305776Y860654D01*
X305781Y860605D01*
X305786Y860556D01*
X305786Y860556D01*
Y859394D01*
Y859394D01*
D01*
X305785Y859385D01*
X305776Y859296D01*
X305748Y859202D01*
X305726Y859161D01*
X305701Y859115D01*
X305673Y859080D01*
X305639Y859038D01*
X305639Y859038D01*
X304817Y858216D01*
X304817Y858216D01*
X304782Y858188D01*
X304740Y858154D01*
X304653Y858108D01*
X304559Y858079D01*
X304550Y858078D01*
X304461Y858069D01*
X304461Y858069D01*
X303880D01*
X303846Y858073D01*
X296780D01*
X296682Y858082D01*
X296588Y858111D01*
X296501Y858157D01*
X296425Y858220D01*
X296362Y858296D01*
X296316Y858383D01*
X296287Y858477D01*
X296278Y858575D01*
Y861375D01*
X296287Y861473D01*
X296316Y861567D01*
X296362Y861654D01*
X296425Y861730D01*
X296501Y861793D01*
X296588Y861839D01*
X296682Y861868D01*
X296780Y861877D01*
X303846D01*
X303880Y861881D01*
X304461D01*
X304461Y861881D01*
X304510Y861876D01*
D02*
G37*
G36*
X326410Y854976D02*
X326459Y854971D01*
X326532Y854949D01*
X326554Y854942D01*
X326640Y854896D01*
X326717Y854834D01*
X327539Y854012D01*
X327601Y853935D01*
X327648Y853848D01*
X327654Y853827D01*
X327676Y853754D01*
X327681Y853705D01*
X327686Y853656D01*
X327686Y853656D01*
Y853075D01*
X327682Y853041D01*
Y845975D01*
X327673Y845877D01*
X327644Y845783D01*
X327598Y845696D01*
X327535Y845620D01*
X327459Y845557D01*
X327372Y845511D01*
X327278Y845482D01*
X327180Y845473D01*
X324380D01*
X324282Y845482D01*
X324188Y845511D01*
X324101Y845557D01*
X324025Y845620D01*
X323962Y845696D01*
X323916Y845783D01*
X323887Y845877D01*
X323878Y845975D01*
Y853041D01*
X323874Y853075D01*
Y853656D01*
X323884Y853754D01*
X323906Y853827D01*
X323913Y853848D01*
X323959Y853935D01*
X324021Y854012D01*
X324843Y854833D01*
X324843Y854834D01*
X324920Y854896D01*
X325006Y854942D01*
X325028Y854949D01*
X325101Y854971D01*
X325150Y854976D01*
X325199Y854981D01*
X325199Y854981D01*
X326361D01*
X326361Y854981D01*
X326410Y854976D01*
D02*
G37*
G36*
X311410D02*
X311459Y854971D01*
X311532Y854949D01*
X311554Y854942D01*
X311640Y854896D01*
X311716Y854834D01*
X312539Y854012D01*
X312601Y853935D01*
X312647Y853848D01*
X312654Y853827D01*
X312676Y853754D01*
X312681Y853705D01*
X312686Y853656D01*
X312686Y853656D01*
Y853075D01*
X312682Y853041D01*
Y845975D01*
X312673Y845877D01*
X312644Y845783D01*
X312598Y845696D01*
X312535Y845620D01*
X312459Y845557D01*
X312372Y845511D01*
X312278Y845482D01*
X312180Y845473D01*
X309380D01*
X309282Y845482D01*
X309188Y845511D01*
X309101Y845557D01*
X309025Y845620D01*
X308962Y845696D01*
X308916Y845783D01*
X308887Y845877D01*
X308878Y845975D01*
Y853041D01*
X308874Y853075D01*
Y853656D01*
X308884Y853754D01*
X308906Y853827D01*
X308913Y853848D01*
X308959Y853935D01*
X309021Y854012D01*
X309843Y854833D01*
X309844Y854834D01*
X309920Y854896D01*
X310007Y854942D01*
X310028Y854949D01*
X310101Y854971D01*
X310150Y854976D01*
X310199Y854981D01*
X310199Y854981D01*
X311361D01*
X311361Y854981D01*
X311410Y854976D01*
D02*
G37*
G36*
X332099Y856881D02*
X332680D01*
X332714Y856877D01*
X339780D01*
X339878Y856868D01*
X339972Y856839D01*
X340059Y856793D01*
X340135Y856730D01*
X340198Y856654D01*
X340244Y856567D01*
X340273Y856473D01*
X340283Y856375D01*
Y853575D01*
X340273Y853477D01*
X340244Y853383D01*
X340198Y853296D01*
X340135Y853220D01*
X340059Y853157D01*
X339972Y853111D01*
X339878Y853082D01*
X339780Y853073D01*
X332714D01*
X332680Y853069D01*
X332099D01*
X332099Y853069D01*
X332010Y853078D01*
X332001Y853079D01*
X331907Y853108D01*
X331820Y853154D01*
X331778Y853188D01*
X331744Y853216D01*
X331743Y853217D01*
X330921Y854038D01*
X330859Y854115D01*
X330812Y854201D01*
X330806Y854223D01*
X330784Y854296D01*
X330779Y854345D01*
X330774Y854394D01*
X330774Y854394D01*
Y855556D01*
X330784Y855654D01*
X330806Y855727D01*
X330812Y855749D01*
X330859Y855835D01*
X330921Y855911D01*
X331743Y856733D01*
X331744Y856734D01*
X331820Y856796D01*
X331907Y856842D01*
X331928Y856849D01*
X332001Y856871D01*
X332050Y856876D01*
X332099Y856881D01*
X332099Y856881D01*
D02*
G37*
G36*
X304510Y856876D02*
X304559Y856871D01*
X304632Y856849D01*
X304654Y856842D01*
X304740Y856796D01*
X304817Y856734D01*
X305639Y855911D01*
X305701Y855835D01*
X305748Y855749D01*
X305754Y855727D01*
X305776Y855654D01*
X305781Y855605D01*
X305786Y855556D01*
X305786Y855556D01*
Y854394D01*
Y854394D01*
D01*
X305785Y854385D01*
X305776Y854296D01*
X305748Y854202D01*
X305726Y854161D01*
X305701Y854115D01*
X305673Y854080D01*
X305639Y854038D01*
X305639Y854038D01*
X304817Y853217D01*
X304817Y853216D01*
X304782Y853188D01*
X304740Y853154D01*
X304653Y853108D01*
X304559Y853079D01*
X304550Y853078D01*
X304461Y853069D01*
X304461Y853069D01*
X303880D01*
X303846Y853073D01*
X296780D01*
X296682Y853082D01*
X296588Y853111D01*
X296501Y853157D01*
X296425Y853220D01*
X296362Y853296D01*
X296316Y853383D01*
X296287Y853477D01*
X296278Y853575D01*
Y856375D01*
X296287Y856473D01*
X296316Y856567D01*
X296362Y856654D01*
X296425Y856730D01*
X296501Y856793D01*
X296588Y856839D01*
X296682Y856868D01*
X296780Y856877D01*
X303846D01*
X303880Y856881D01*
X304461D01*
X304461Y856881D01*
X304510Y856876D01*
D02*
G37*
G36*
X327278Y399478D02*
X327372Y399449D01*
X327459Y399403D01*
X327535Y399340D01*
X327598Y399264D01*
X327644Y399177D01*
X327673Y399083D01*
X327682Y398985D01*
Y391919D01*
X327686Y391885D01*
Y391304D01*
Y391304D01*
D01*
X327685Y391295D01*
X327676Y391206D01*
X327648Y391111D01*
X327626Y391071D01*
X327601Y391025D01*
X327573Y390990D01*
X327539Y390948D01*
X327538Y390948D01*
X326717Y390127D01*
X326717Y390126D01*
X326682Y390098D01*
X326640Y390064D01*
X326554Y390018D01*
X326459Y389989D01*
X326451Y389988D01*
X326361Y389979D01*
X326361Y389979D01*
X325199D01*
X325199Y389979D01*
X325110Y389988D01*
X325101Y389989D01*
X325006Y390018D01*
X324920Y390064D01*
X324878Y390098D01*
X324843Y390126D01*
X324843Y390127D01*
X324021Y390948D01*
X323959Y391025D01*
X323913Y391111D01*
X323906Y391133D01*
X323884Y391206D01*
X323879Y391255D01*
X323874Y391304D01*
X323874Y391304D01*
Y391885D01*
X323878Y391919D01*
Y398985D01*
X323887Y399083D01*
X323916Y399177D01*
X323962Y399264D01*
X324025Y399340D01*
X324101Y399403D01*
X324188Y399449D01*
X324282Y399478D01*
X324380Y399487D01*
X327180D01*
X327278Y399478D01*
D02*
G37*
G36*
X312278D02*
X312372Y399449D01*
X312459Y399403D01*
X312535Y399340D01*
X312598Y399264D01*
X312644Y399177D01*
X312673Y399083D01*
X312682Y398985D01*
Y391919D01*
X312686Y391885D01*
Y391304D01*
Y391304D01*
D01*
X312685Y391295D01*
X312676Y391206D01*
X312647Y391111D01*
X312626Y391071D01*
X312601Y391025D01*
X312573Y390990D01*
X312539Y390948D01*
X312539Y390948D01*
X311717Y390127D01*
X311716Y390126D01*
X311682Y390098D01*
X311640Y390064D01*
X311553Y390018D01*
X311459Y389989D01*
X311451Y389988D01*
X311361Y389979D01*
X311361Y389979D01*
X310199D01*
X310199Y389979D01*
X310110Y389988D01*
X310101Y389989D01*
X310007Y390018D01*
X309920Y390064D01*
X309878Y390098D01*
X309844Y390126D01*
X309843Y390127D01*
X309021Y390948D01*
X308959Y391025D01*
X308913Y391111D01*
X308906Y391133D01*
X308884Y391206D01*
X308879Y391255D01*
X308874Y391304D01*
X308874Y391304D01*
Y391885D01*
X308878Y391919D01*
Y398985D01*
X308887Y399083D01*
X308916Y399177D01*
X308962Y399264D01*
X309025Y399340D01*
X309101Y399403D01*
X309188Y399449D01*
X309282Y399478D01*
X309380Y399487D01*
X312180D01*
X312278Y399478D01*
D02*
G37*
G36*
X332099Y391891D02*
X332680D01*
X332714Y391887D01*
X339780D01*
X339878Y391878D01*
X339972Y391849D01*
X340059Y391803D01*
X340135Y391740D01*
X340198Y391664D01*
X340244Y391577D01*
X340273Y391483D01*
X340283Y391385D01*
Y388585D01*
X340273Y388487D01*
X340244Y388393D01*
X340198Y388306D01*
X340135Y388230D01*
X340059Y388167D01*
X339972Y388121D01*
X339878Y388092D01*
X339780Y388083D01*
X332714D01*
X332680Y388079D01*
X332099D01*
X332099Y388079D01*
X332010Y388088D01*
X332001Y388089D01*
X331907Y388117D01*
X331820Y388164D01*
X331778Y388198D01*
X331744Y388226D01*
X331743Y388227D01*
X330921Y389048D01*
X330859Y389125D01*
X330812Y389211D01*
X330806Y389233D01*
X330784Y389306D01*
X330779Y389355D01*
X330774Y389404D01*
X330774Y389404D01*
Y390566D01*
X330784Y390664D01*
X330806Y390737D01*
X330812Y390759D01*
X330859Y390845D01*
X330921Y390922D01*
X331743Y391743D01*
X331744Y391744D01*
X331820Y391806D01*
X331907Y391852D01*
X331928Y391859D01*
X332001Y391881D01*
X332050Y391886D01*
X332099Y391891D01*
X332099Y391891D01*
D02*
G37*
G36*
X304510Y391886D02*
X304559Y391881D01*
X304632Y391859D01*
X304654Y391852D01*
X304740Y391806D01*
X304817Y391744D01*
X305639Y390922D01*
X305701Y390845D01*
X305748Y390759D01*
X305754Y390737D01*
X305776Y390664D01*
X305781Y390615D01*
X305786Y390566D01*
X305786Y390566D01*
Y389404D01*
Y389404D01*
D01*
X305785Y389395D01*
X305776Y389306D01*
X305748Y389212D01*
X305726Y389171D01*
X305701Y389125D01*
X305673Y389090D01*
X305639Y389048D01*
X305639Y389048D01*
X304817Y388227D01*
X304817Y388226D01*
X304782Y388198D01*
X304740Y388164D01*
X304653Y388117D01*
X304559Y388089D01*
X304550Y388088D01*
X304461Y388079D01*
X304461Y388079D01*
X303880D01*
X303846Y388083D01*
X296780D01*
X296682Y388092D01*
X296588Y388121D01*
X296501Y388167D01*
X296425Y388230D01*
X296362Y388306D01*
X296316Y388393D01*
X296287Y388487D01*
X296278Y388585D01*
Y391385D01*
X296287Y391483D01*
X296316Y391577D01*
X296362Y391664D01*
X296425Y391740D01*
X296501Y391803D01*
X296588Y391849D01*
X296682Y391878D01*
X296780Y391887D01*
X303846D01*
X303880Y391891D01*
X304461D01*
X304461Y391891D01*
X304510Y391886D01*
D02*
G37*
G36*
X332099Y386891D02*
X332680D01*
X332714Y386887D01*
X339780D01*
X339878Y386878D01*
X339972Y386849D01*
X340059Y386803D01*
X340135Y386740D01*
X340198Y386664D01*
X340244Y386577D01*
X340273Y386483D01*
X340283Y386385D01*
Y383585D01*
X340273Y383487D01*
X340244Y383393D01*
X340198Y383306D01*
X340135Y383230D01*
X340059Y383167D01*
X339972Y383121D01*
X339878Y383092D01*
X339780Y383083D01*
X332714D01*
X332680Y383079D01*
X332099D01*
X332099Y383079D01*
X332010Y383088D01*
X332001Y383089D01*
X331907Y383117D01*
X331820Y383164D01*
X331778Y383198D01*
X331744Y383226D01*
X331743Y383227D01*
X330921Y384049D01*
X330859Y384125D01*
X330812Y384211D01*
X330806Y384233D01*
X330784Y384306D01*
X330779Y384355D01*
X330774Y384404D01*
X330774Y384404D01*
Y385566D01*
X330784Y385664D01*
X330806Y385737D01*
X330812Y385759D01*
X330859Y385845D01*
X330921Y385922D01*
X331743Y386743D01*
X331744Y386744D01*
X331820Y386806D01*
X331907Y386852D01*
X331928Y386859D01*
X332001Y386881D01*
X332050Y386886D01*
X332099Y386891D01*
X332099Y386891D01*
D02*
G37*
G36*
X304510Y386886D02*
X304559Y386881D01*
X304632Y386859D01*
X304654Y386852D01*
X304740Y386806D01*
X304817Y386744D01*
X305639Y385922D01*
X305701Y385845D01*
X305748Y385759D01*
X305754Y385737D01*
X305776Y385664D01*
X305781Y385615D01*
X305786Y385566D01*
X305786Y385566D01*
Y384404D01*
Y384404D01*
D01*
X305785Y384395D01*
X305776Y384306D01*
X305748Y384212D01*
X305726Y384171D01*
X305701Y384125D01*
X305673Y384090D01*
X305639Y384049D01*
X305639Y384048D01*
X304817Y383227D01*
X304817Y383226D01*
X304782Y383198D01*
X304740Y383164D01*
X304653Y383117D01*
X304559Y383089D01*
X304550Y383088D01*
X304461Y383079D01*
X304461Y383079D01*
X303880D01*
X303846Y383083D01*
X296780D01*
X296682Y383092D01*
X296588Y383121D01*
X296501Y383167D01*
X296425Y383230D01*
X296362Y383306D01*
X296316Y383393D01*
X296287Y383487D01*
X296278Y383585D01*
Y386385D01*
X296287Y386483D01*
X296316Y386577D01*
X296362Y386664D01*
X296425Y386740D01*
X296501Y386803D01*
X296588Y386849D01*
X296682Y386878D01*
X296780Y386887D01*
X303846D01*
X303880Y386891D01*
X304461D01*
X304461Y386891D01*
X304510Y386886D01*
D02*
G37*
G36*
X332099Y381891D02*
X332680D01*
X332714Y381887D01*
X339780D01*
X339878Y381878D01*
X339972Y381849D01*
X340059Y381803D01*
X340135Y381740D01*
X340198Y381664D01*
X340244Y381577D01*
X340273Y381483D01*
X340283Y381385D01*
Y378585D01*
X340273Y378487D01*
X340244Y378393D01*
X340198Y378306D01*
X340135Y378230D01*
X340059Y378167D01*
X339972Y378121D01*
X339878Y378092D01*
X339780Y378083D01*
X332714D01*
X332680Y378079D01*
X332099D01*
X332099Y378079D01*
X332010Y378088D01*
X332001Y378089D01*
X331907Y378117D01*
X331820Y378164D01*
X331778Y378198D01*
X331744Y378226D01*
X331743Y378227D01*
X330921Y379049D01*
X330859Y379125D01*
X330812Y379212D01*
X330806Y379233D01*
X330784Y379306D01*
X330779Y379355D01*
X330774Y379404D01*
X330774Y379404D01*
Y380566D01*
X330784Y380664D01*
X330806Y380737D01*
X330812Y380759D01*
X330859Y380845D01*
X330921Y380922D01*
X331743Y381744D01*
X331744Y381744D01*
X331820Y381806D01*
X331907Y381852D01*
X331928Y381859D01*
X332001Y381881D01*
X332050Y381886D01*
X332099Y381891D01*
X332099Y381891D01*
D02*
G37*
G36*
X304510Y381886D02*
X304559Y381881D01*
X304632Y381859D01*
X304654Y381852D01*
X304740Y381806D01*
X304817Y381744D01*
X305639Y380922D01*
X305701Y380845D01*
X305748Y380759D01*
X305754Y380737D01*
X305776Y380664D01*
X305781Y380615D01*
X305786Y380566D01*
X305786Y380566D01*
Y379404D01*
Y379404D01*
D01*
X305785Y379395D01*
X305776Y379306D01*
X305748Y379212D01*
X305726Y379171D01*
X305701Y379125D01*
X305673Y379090D01*
X305639Y379049D01*
X305639Y379048D01*
X304817Y378227D01*
X304817Y378226D01*
X304782Y378198D01*
X304740Y378164D01*
X304653Y378117D01*
X304559Y378089D01*
X304550Y378088D01*
X304461Y378079D01*
X304461Y378079D01*
X303880D01*
X303846Y378083D01*
X296780D01*
X296682Y378092D01*
X296588Y378121D01*
X296501Y378167D01*
X296425Y378230D01*
X296362Y378306D01*
X296316Y378393D01*
X296287Y378487D01*
X296278Y378585D01*
Y381385D01*
X296287Y381483D01*
X296316Y381577D01*
X296362Y381664D01*
X296425Y381740D01*
X296501Y381803D01*
X296588Y381849D01*
X296682Y381878D01*
X296780Y381887D01*
X303846D01*
X303880Y381891D01*
X304461D01*
X304461Y381891D01*
X304510Y381886D01*
D02*
G37*
G36*
X332099Y376891D02*
X332680D01*
X332714Y376887D01*
X339780D01*
X339878Y376878D01*
X339972Y376849D01*
X340059Y376803D01*
X340135Y376740D01*
X340198Y376664D01*
X340244Y376577D01*
X340273Y376483D01*
X340283Y376385D01*
Y373585D01*
X340273Y373487D01*
X340244Y373393D01*
X340198Y373306D01*
X340135Y373230D01*
X340059Y373167D01*
X339972Y373121D01*
X339878Y373092D01*
X339780Y373083D01*
X332714D01*
X332680Y373079D01*
X332099D01*
X332099Y373079D01*
X332010Y373088D01*
X332001Y373089D01*
X331907Y373117D01*
X331820Y373164D01*
X331778Y373198D01*
X331744Y373226D01*
X331743Y373227D01*
X330921Y374049D01*
X330859Y374125D01*
X330812Y374211D01*
X330806Y374233D01*
X330784Y374306D01*
X330779Y374355D01*
X330774Y374404D01*
X330774Y374404D01*
Y375566D01*
X330784Y375664D01*
X330806Y375737D01*
X330812Y375759D01*
X330859Y375845D01*
X330921Y375922D01*
X331743Y376743D01*
X331744Y376744D01*
X331820Y376806D01*
X331907Y376852D01*
X331928Y376859D01*
X332001Y376881D01*
X332050Y376886D01*
X332099Y376891D01*
X332099Y376891D01*
D02*
G37*
G36*
X304510Y376886D02*
X304559Y376881D01*
X304632Y376859D01*
X304654Y376852D01*
X304740Y376806D01*
X304817Y376744D01*
X305639Y375922D01*
X305701Y375845D01*
X305748Y375759D01*
X305754Y375737D01*
X305776Y375664D01*
X305781Y375615D01*
X305786Y375566D01*
X305786Y375566D01*
Y374404D01*
Y374404D01*
D01*
X305785Y374395D01*
X305776Y374306D01*
X305748Y374212D01*
X305726Y374171D01*
X305701Y374125D01*
X305673Y374090D01*
X305639Y374049D01*
X305639Y374048D01*
X304817Y373227D01*
X304817Y373226D01*
X304782Y373198D01*
X304740Y373164D01*
X304653Y373117D01*
X304559Y373089D01*
X304550Y373088D01*
X304461Y373079D01*
X304461Y373079D01*
X303880D01*
X303846Y373083D01*
X296780D01*
X296682Y373092D01*
X296588Y373121D01*
X296501Y373167D01*
X296425Y373230D01*
X296362Y373306D01*
X296316Y373393D01*
X296287Y373487D01*
X296278Y373585D01*
Y376385D01*
X296287Y376483D01*
X296316Y376577D01*
X296362Y376664D01*
X296425Y376740D01*
X296501Y376803D01*
X296588Y376849D01*
X296682Y376878D01*
X296780Y376887D01*
X303846D01*
X303880Y376891D01*
X304461D01*
X304461Y376891D01*
X304510Y376886D01*
D02*
G37*
G36*
X332099Y371891D02*
X332680D01*
X332714Y371887D01*
X339780D01*
X339878Y371878D01*
X339972Y371849D01*
X340059Y371803D01*
X340135Y371740D01*
X340198Y371664D01*
X340244Y371577D01*
X340273Y371483D01*
X340283Y371385D01*
Y368585D01*
X340273Y368487D01*
X340244Y368393D01*
X340198Y368306D01*
X340135Y368230D01*
X340059Y368167D01*
X339972Y368121D01*
X339878Y368092D01*
X339780Y368083D01*
X332714D01*
X332680Y368079D01*
X332099D01*
X332099Y368079D01*
X332010Y368088D01*
X332001Y368089D01*
X331907Y368117D01*
X331820Y368164D01*
X331778Y368198D01*
X331744Y368226D01*
X331743Y368227D01*
X330921Y369049D01*
X330859Y369125D01*
X330812Y369212D01*
X330806Y369233D01*
X330784Y369306D01*
X330779Y369355D01*
X330774Y369404D01*
X330774Y369404D01*
Y370566D01*
X330784Y370664D01*
X330806Y370737D01*
X330812Y370759D01*
X330859Y370845D01*
X330921Y370922D01*
X331743Y371744D01*
X331744Y371744D01*
X331820Y371806D01*
X331907Y371852D01*
X331928Y371859D01*
X332001Y371881D01*
X332050Y371886D01*
X332099Y371891D01*
X332099Y371891D01*
D02*
G37*
G36*
X304510Y371886D02*
X304559Y371881D01*
X304632Y371859D01*
X304654Y371852D01*
X304740Y371806D01*
X304817Y371744D01*
X305639Y370922D01*
X305701Y370845D01*
X305748Y370759D01*
X305754Y370737D01*
X305776Y370664D01*
X305781Y370615D01*
X305786Y370566D01*
X305786Y370566D01*
Y369404D01*
Y369404D01*
D01*
X305785Y369395D01*
X305776Y369306D01*
X305748Y369212D01*
X305726Y369171D01*
X305701Y369125D01*
X305673Y369090D01*
X305639Y369049D01*
X305639Y369048D01*
X304817Y368227D01*
X304817Y368226D01*
X304782Y368198D01*
X304740Y368164D01*
X304653Y368117D01*
X304559Y368089D01*
X304550Y368088D01*
X304461Y368079D01*
X304461Y368079D01*
X303880D01*
X303846Y368083D01*
X296780D01*
X296682Y368092D01*
X296588Y368121D01*
X296501Y368167D01*
X296425Y368230D01*
X296362Y368306D01*
X296316Y368393D01*
X296287Y368487D01*
X296278Y368585D01*
Y371385D01*
X296287Y371483D01*
X296316Y371577D01*
X296362Y371664D01*
X296425Y371740D01*
X296501Y371803D01*
X296588Y371849D01*
X296682Y371878D01*
X296780Y371887D01*
X303846D01*
X303880Y371891D01*
X304461D01*
X304461Y371891D01*
X304510Y371886D01*
D02*
G37*
G36*
X332099Y366891D02*
X332680D01*
X332714Y366887D01*
X339780D01*
X339878Y366878D01*
X339972Y366849D01*
X340059Y366803D01*
X340135Y366740D01*
X340198Y366664D01*
X340244Y366577D01*
X340273Y366483D01*
X340283Y366385D01*
Y363585D01*
X340273Y363487D01*
X340244Y363393D01*
X340198Y363306D01*
X340135Y363230D01*
X340059Y363167D01*
X339972Y363121D01*
X339878Y363092D01*
X339780Y363083D01*
X332714D01*
X332680Y363079D01*
X332099D01*
X332099Y363079D01*
X332010Y363088D01*
X332001Y363089D01*
X331907Y363117D01*
X331820Y363164D01*
X331778Y363198D01*
X331744Y363226D01*
X331743Y363227D01*
X330921Y364048D01*
X330859Y364125D01*
X330812Y364211D01*
X330806Y364233D01*
X330784Y364306D01*
X330779Y364355D01*
X330774Y364404D01*
X330774Y364404D01*
Y365566D01*
X330784Y365664D01*
X330806Y365737D01*
X330812Y365759D01*
X330859Y365845D01*
X330921Y365922D01*
X331743Y366743D01*
X331744Y366744D01*
X331820Y366806D01*
X331907Y366852D01*
X331928Y366859D01*
X332001Y366881D01*
X332050Y366886D01*
X332099Y366891D01*
X332099Y366891D01*
D02*
G37*
G36*
X304510Y366886D02*
X304559Y366881D01*
X304632Y366859D01*
X304654Y366852D01*
X304740Y366806D01*
X304817Y366744D01*
X305639Y365922D01*
X305701Y365845D01*
X305748Y365759D01*
X305754Y365737D01*
X305776Y365664D01*
X305781Y365615D01*
X305786Y365566D01*
X305786Y365566D01*
Y364404D01*
Y364404D01*
D01*
X305785Y364395D01*
X305776Y364306D01*
X305748Y364212D01*
X305726Y364171D01*
X305701Y364125D01*
X305673Y364090D01*
X305639Y364048D01*
X305639Y364048D01*
X304817Y363227D01*
X304817Y363226D01*
X304782Y363198D01*
X304740Y363164D01*
X304653Y363117D01*
X304559Y363089D01*
X304550Y363088D01*
X304461Y363079D01*
X304461Y363079D01*
X303880D01*
X303846Y363083D01*
X296780D01*
X296682Y363092D01*
X296588Y363121D01*
X296501Y363167D01*
X296425Y363230D01*
X296362Y363306D01*
X296316Y363393D01*
X296287Y363487D01*
X296278Y363585D01*
Y366385D01*
X296287Y366483D01*
X296316Y366577D01*
X296362Y366664D01*
X296425Y366740D01*
X296501Y366803D01*
X296588Y366849D01*
X296682Y366878D01*
X296780Y366887D01*
X303846D01*
X303880Y366891D01*
X304461D01*
X304461Y366891D01*
X304510Y366886D01*
D02*
G37*
G36*
X332099Y361891D02*
X332680D01*
X332714Y361887D01*
X339780D01*
X339878Y361878D01*
X339972Y361849D01*
X340059Y361803D01*
X340135Y361740D01*
X340198Y361664D01*
X340244Y361577D01*
X340273Y361483D01*
X340283Y361385D01*
Y358585D01*
X340273Y358487D01*
X340244Y358393D01*
X340198Y358306D01*
X340135Y358230D01*
X340059Y358167D01*
X339972Y358121D01*
X339878Y358092D01*
X339780Y358083D01*
X332714D01*
X332680Y358079D01*
X332099D01*
X332099Y358079D01*
X332010Y358088D01*
X332001Y358089D01*
X331907Y358117D01*
X331820Y358164D01*
X331778Y358198D01*
X331744Y358226D01*
X331743Y358227D01*
X330921Y359049D01*
X330859Y359125D01*
X330812Y359211D01*
X330806Y359233D01*
X330784Y359306D01*
X330779Y359355D01*
X330774Y359404D01*
X330774Y359404D01*
Y360566D01*
X330784Y360664D01*
X330806Y360737D01*
X330812Y360759D01*
X330859Y360845D01*
X330921Y360922D01*
X331743Y361743D01*
X331744Y361744D01*
X331820Y361806D01*
X331907Y361852D01*
X331928Y361859D01*
X332001Y361881D01*
X332050Y361886D01*
X332099Y361891D01*
X332099Y361891D01*
D02*
G37*
G36*
X304510Y361886D02*
X304559Y361881D01*
X304632Y361859D01*
X304654Y361852D01*
X304740Y361806D01*
X304817Y361744D01*
X305639Y360922D01*
X305701Y360845D01*
X305748Y360759D01*
X305754Y360737D01*
X305776Y360664D01*
X305781Y360615D01*
X305786Y360566D01*
X305786Y360566D01*
Y359404D01*
Y359404D01*
D01*
X305785Y359395D01*
X305776Y359306D01*
X305748Y359212D01*
X305726Y359171D01*
X305701Y359125D01*
X305673Y359090D01*
X305639Y359049D01*
X305639Y359048D01*
X304817Y358227D01*
X304817Y358226D01*
X304782Y358198D01*
X304740Y358164D01*
X304653Y358117D01*
X304559Y358089D01*
X304550Y358088D01*
X304461Y358079D01*
X304461Y358079D01*
X303880D01*
X303846Y358083D01*
X296780D01*
X296682Y358092D01*
X296588Y358121D01*
X296501Y358167D01*
X296425Y358230D01*
X296362Y358306D01*
X296316Y358393D01*
X296287Y358487D01*
X296278Y358585D01*
Y361385D01*
X296287Y361483D01*
X296316Y361577D01*
X296362Y361664D01*
X296425Y361740D01*
X296501Y361803D01*
X296588Y361849D01*
X296682Y361878D01*
X296780Y361887D01*
X303846D01*
X303880Y361891D01*
X304461D01*
X304461Y361891D01*
X304510Y361886D01*
D02*
G37*
G36*
X326410Y354986D02*
X326459Y354981D01*
X326532Y354959D01*
X326554Y354953D01*
X326640Y354906D01*
X326717Y354844D01*
X327539Y354021D01*
X327601Y353945D01*
X327648Y353859D01*
X327654Y353837D01*
X327676Y353764D01*
X327681Y353715D01*
X327686Y353666D01*
X327686Y353666D01*
Y353085D01*
X327682Y353051D01*
Y345985D01*
X327673Y345887D01*
X327644Y345793D01*
X327598Y345706D01*
X327535Y345630D01*
X327459Y345567D01*
X327372Y345521D01*
X327278Y345492D01*
X327180Y345483D01*
X324380D01*
X324282Y345492D01*
X324188Y345521D01*
X324101Y345567D01*
X324025Y345630D01*
X323962Y345706D01*
X323916Y345793D01*
X323887Y345887D01*
X323878Y345985D01*
Y353051D01*
X323874Y353085D01*
Y353666D01*
X323884Y353764D01*
X323906Y353837D01*
X323913Y353859D01*
X323959Y353945D01*
X324021Y354021D01*
X324843Y354843D01*
X324843Y354844D01*
X324920Y354906D01*
X325006Y354953D01*
X325028Y354959D01*
X325101Y354981D01*
X325150Y354986D01*
X325199Y354991D01*
X325199Y354991D01*
X326361D01*
X326361Y354991D01*
X326410Y354986D01*
D02*
G37*
G36*
X311410D02*
X311459Y354981D01*
X311532Y354959D01*
X311554Y354953D01*
X311640Y354906D01*
X311716Y354844D01*
X312539Y354021D01*
X312601Y353945D01*
X312647Y353859D01*
X312654Y353837D01*
X312676Y353764D01*
X312681Y353715D01*
X312686Y353666D01*
X312686Y353666D01*
Y353085D01*
X312682Y353051D01*
Y345985D01*
X312673Y345887D01*
X312644Y345793D01*
X312598Y345706D01*
X312535Y345630D01*
X312459Y345567D01*
X312372Y345521D01*
X312278Y345492D01*
X312180Y345483D01*
X309380D01*
X309282Y345492D01*
X309188Y345521D01*
X309101Y345567D01*
X309025Y345630D01*
X308962Y345706D01*
X308916Y345793D01*
X308887Y345887D01*
X308878Y345985D01*
Y353051D01*
X308874Y353085D01*
Y353666D01*
X308884Y353764D01*
X308906Y353837D01*
X308913Y353859D01*
X308959Y353945D01*
X309021Y354021D01*
X309843Y354843D01*
X309844Y354844D01*
X309920Y354906D01*
X310007Y354953D01*
X310028Y354959D01*
X310101Y354981D01*
X310150Y354986D01*
X310199Y354991D01*
X310199Y354991D01*
X311361D01*
X311361Y354991D01*
X311410Y354986D01*
D02*
G37*
G36*
X332099Y356891D02*
X332680D01*
X332714Y356887D01*
X339780D01*
X339878Y356878D01*
X339972Y356849D01*
X340059Y356803D01*
X340135Y356740D01*
X340198Y356664D01*
X340244Y356577D01*
X340273Y356483D01*
X340283Y356385D01*
Y353585D01*
X340273Y353487D01*
X340244Y353393D01*
X340198Y353306D01*
X340135Y353230D01*
X340059Y353167D01*
X339972Y353121D01*
X339878Y353092D01*
X339780Y353083D01*
X332714D01*
X332680Y353079D01*
X332099D01*
X332099Y353079D01*
X332010Y353088D01*
X332001Y353089D01*
X331907Y353117D01*
X331820Y353164D01*
X331778Y353198D01*
X331744Y353226D01*
X331743Y353227D01*
X330921Y354049D01*
X330859Y354125D01*
X330812Y354212D01*
X330806Y354233D01*
X330784Y354306D01*
X330779Y354355D01*
X330774Y354404D01*
X330774Y354404D01*
Y355566D01*
X330784Y355664D01*
X330806Y355737D01*
X330812Y355759D01*
X330859Y355845D01*
X330921Y355922D01*
X331743Y356744D01*
X331744Y356744D01*
X331820Y356806D01*
X331907Y356852D01*
X331928Y356859D01*
X332001Y356881D01*
X332050Y356886D01*
X332099Y356891D01*
X332099Y356891D01*
D02*
G37*
G36*
X304510Y356886D02*
X304559Y356881D01*
X304632Y356859D01*
X304654Y356852D01*
X304740Y356806D01*
X304817Y356744D01*
X305639Y355922D01*
X305701Y355845D01*
X305748Y355759D01*
X305754Y355737D01*
X305776Y355664D01*
X305781Y355615D01*
X305786Y355566D01*
X305786Y355566D01*
Y354404D01*
Y354404D01*
D01*
X305785Y354395D01*
X305776Y354306D01*
X305748Y354212D01*
X305726Y354171D01*
X305701Y354125D01*
X305673Y354090D01*
X305639Y354049D01*
X305639Y354048D01*
X304817Y353227D01*
X304817Y353226D01*
X304782Y353198D01*
X304740Y353164D01*
X304653Y353117D01*
X304559Y353089D01*
X304550Y353088D01*
X304461Y353079D01*
X304461Y353079D01*
X303880D01*
X303846Y353083D01*
X296780D01*
X296682Y353092D01*
X296588Y353121D01*
X296501Y353167D01*
X296425Y353230D01*
X296362Y353306D01*
X296316Y353393D01*
X296287Y353487D01*
X296278Y353585D01*
Y356385D01*
X296287Y356483D01*
X296316Y356577D01*
X296362Y356664D01*
X296425Y356740D01*
X296501Y356803D01*
X296588Y356849D01*
X296682Y356878D01*
X296780Y356887D01*
X303846D01*
X303880Y356891D01*
X304461D01*
X304461Y356891D01*
X304510Y356886D01*
D02*
G37*
D89*
X278780Y382885D02*
D03*
Y391885D02*
D03*
X269780Y382885D02*
D03*
Y391885D02*
D03*
X265280Y353885D02*
D03*
Y344885D02*
D03*
X274280Y353885D02*
D03*
Y344885D02*
D03*
X1101780Y412885D02*
D03*
Y421885D02*
D03*
X1028780Y420385D02*
D03*
Y411385D02*
D03*
X1037780Y420385D02*
D03*
Y411385D02*
D03*
X1042780Y399385D02*
D03*
Y390385D02*
D03*
X988780Y562885D02*
D03*
Y571885D02*
D03*
X978280Y562885D02*
D03*
Y571885D02*
D03*
X956280Y562885D02*
D03*
Y571885D02*
D03*
X1000280Y562885D02*
D03*
Y571885D02*
D03*
X922780Y562885D02*
D03*
Y571885D02*
D03*
X934280Y562885D02*
D03*
Y571885D02*
D03*
X327280Y550385D02*
D03*
Y541385D02*
D03*
Y559885D02*
D03*
Y568885D02*
D03*
X269280Y551385D02*
D03*
Y542385D02*
D03*
Y569385D02*
D03*
Y560385D02*
D03*
X1018780Y495385D02*
D03*
Y504385D02*
D03*
X1156280Y367385D02*
D03*
Y376385D02*
D03*
X278780Y882875D02*
D03*
Y891875D02*
D03*
X269780Y882875D02*
D03*
Y891875D02*
D03*
X265280Y853875D02*
D03*
Y844875D02*
D03*
X274280Y853875D02*
D03*
Y844875D02*
D03*
X1101780Y912875D02*
D03*
Y921875D02*
D03*
X1028780Y920375D02*
D03*
Y911375D02*
D03*
X1037780Y920375D02*
D03*
Y911375D02*
D03*
X1042780Y899375D02*
D03*
Y890375D02*
D03*
X988780Y1062875D02*
D03*
Y1071875D02*
D03*
X978280Y1062875D02*
D03*
Y1071875D02*
D03*
X956280Y1062875D02*
D03*
Y1071875D02*
D03*
X1000280Y1062875D02*
D03*
Y1071875D02*
D03*
X922780Y1062875D02*
D03*
Y1071875D02*
D03*
X934280Y1062875D02*
D03*
Y1071875D02*
D03*
X327280Y1050375D02*
D03*
Y1041375D02*
D03*
Y1059875D02*
D03*
Y1068875D02*
D03*
X269280Y1051375D02*
D03*
Y1042375D02*
D03*
Y1069375D02*
D03*
Y1060375D02*
D03*
X1018780Y995375D02*
D03*
Y1004375D02*
D03*
X1156280Y867375D02*
D03*
Y876375D02*
D03*
D90*
X350280Y393885D02*
D03*
X359280D02*
D03*
X748780Y607885D02*
D03*
X757780D02*
D03*
X411280Y547885D02*
D03*
X420280D02*
D03*
X489280Y592885D02*
D03*
X498280D02*
D03*
X509780Y593885D02*
D03*
X518780D02*
D03*
X456280Y592885D02*
D03*
X447280D02*
D03*
X456280Y623885D02*
D03*
X488780D02*
D03*
X432380Y583885D02*
D03*
X456280Y607885D02*
D03*
X465280D02*
D03*
X480280D02*
D03*
X489280D02*
D03*
X744280Y591885D02*
D03*
X753280D02*
D03*
X795280D02*
D03*
X786280D02*
D03*
X777280Y623885D02*
D03*
X786280D02*
D03*
X752280D02*
D03*
X796280Y600885D02*
D03*
X805280D02*
D03*
X1153280Y356885D02*
D03*
X1144280D02*
D03*
X1155280Y281385D02*
D03*
X1146280D02*
D03*
X350280Y893875D02*
D03*
X359280D02*
D03*
X748780Y1107875D02*
D03*
X757780D02*
D03*
X411280Y1047875D02*
D03*
X420280D02*
D03*
X489280Y1092875D02*
D03*
X498280D02*
D03*
X509780Y1093875D02*
D03*
X518780D02*
D03*
X456280Y1092875D02*
D03*
X447280D02*
D03*
X456280Y1123875D02*
D03*
X488780D02*
D03*
X432380Y1083875D02*
D03*
X456280Y1107875D02*
D03*
X465280D02*
D03*
X480280D02*
D03*
X489280D02*
D03*
X744280Y1091875D02*
D03*
X753280D02*
D03*
X795280D02*
D03*
X786280D02*
D03*
X777280Y1123875D02*
D03*
X786280D02*
D03*
X752280D02*
D03*
X796280Y1100875D02*
D03*
X805280D02*
D03*
X1153280Y856875D02*
D03*
X1144280D02*
D03*
X1155280Y781375D02*
D03*
X1146280D02*
D03*
D91*
X963780Y384885D02*
D03*
Y393885D02*
D03*
X1012280Y574885D02*
D03*
Y565885D02*
D03*
X530780Y550385D02*
D03*
Y559385D02*
D03*
X424780Y639385D02*
D03*
Y648385D02*
D03*
X414780Y666385D02*
D03*
Y657385D02*
D03*
X530780Y666385D02*
D03*
Y657385D02*
D03*
X449780Y639385D02*
D03*
Y648385D02*
D03*
X472780Y641385D02*
D03*
X495780Y639385D02*
D03*
Y648385D02*
D03*
X459780Y567385D02*
D03*
Y576385D02*
D03*
X477780Y591385D02*
D03*
Y582385D02*
D03*
X449780Y567385D02*
D03*
X495780D02*
D03*
Y576385D02*
D03*
X467780Y582385D02*
D03*
Y591385D02*
D03*
X530780Y576385D02*
D03*
Y567385D02*
D03*
X521780Y576385D02*
D03*
Y567385D02*
D03*
X721780Y639385D02*
D03*
Y648385D02*
D03*
Y567385D02*
D03*
Y576385D02*
D03*
X711780Y550385D02*
D03*
Y559385D02*
D03*
X827780D02*
D03*
Y550385D02*
D03*
Y658385D02*
D03*
Y667385D02*
D03*
X711780D02*
D03*
Y658385D02*
D03*
X754780Y648385D02*
D03*
Y639385D02*
D03*
X793780Y648385D02*
D03*
Y639385D02*
D03*
X745780Y648385D02*
D03*
Y639385D02*
D03*
X769780Y640385D02*
D03*
X755780Y565385D02*
D03*
Y574385D02*
D03*
X792780Y567385D02*
D03*
Y576385D02*
D03*
X762780Y591385D02*
D03*
Y582385D02*
D03*
X776780Y591385D02*
D03*
Y582385D02*
D03*
X746780Y574385D02*
D03*
Y565385D02*
D03*
X818780Y576385D02*
D03*
Y567385D02*
D03*
X829780Y576385D02*
D03*
Y585385D02*
D03*
X883780Y713885D02*
D03*
Y722885D02*
D03*
X963780Y884875D02*
D03*
Y893875D02*
D03*
X1012280Y1074875D02*
D03*
Y1065875D02*
D03*
X530780Y1050375D02*
D03*
Y1059375D02*
D03*
X424780Y1139375D02*
D03*
Y1148375D02*
D03*
X414780Y1166375D02*
D03*
Y1157375D02*
D03*
X530780Y1166375D02*
D03*
Y1157375D02*
D03*
X449780Y1139375D02*
D03*
Y1148375D02*
D03*
X472780Y1141375D02*
D03*
X495780Y1139375D02*
D03*
Y1148375D02*
D03*
X459780Y1067375D02*
D03*
Y1076375D02*
D03*
X477780Y1091375D02*
D03*
Y1082375D02*
D03*
X449780Y1067375D02*
D03*
X495780D02*
D03*
Y1076375D02*
D03*
X467780Y1082375D02*
D03*
Y1091375D02*
D03*
X530780Y1076375D02*
D03*
Y1067375D02*
D03*
X521780Y1076375D02*
D03*
Y1067375D02*
D03*
X721780Y1139375D02*
D03*
Y1148375D02*
D03*
Y1067375D02*
D03*
Y1076375D02*
D03*
X711780Y1050375D02*
D03*
Y1059375D02*
D03*
X827780D02*
D03*
Y1050375D02*
D03*
Y1158375D02*
D03*
Y1167375D02*
D03*
X711780D02*
D03*
Y1158375D02*
D03*
X754780Y1148375D02*
D03*
Y1139375D02*
D03*
X793780Y1148375D02*
D03*
Y1139375D02*
D03*
X745780Y1148375D02*
D03*
Y1139375D02*
D03*
X769780Y1140375D02*
D03*
X755780Y1065375D02*
D03*
Y1074375D02*
D03*
X792780Y1067375D02*
D03*
Y1076375D02*
D03*
X762780Y1091375D02*
D03*
Y1082375D02*
D03*
X776780Y1091375D02*
D03*
Y1082375D02*
D03*
X746780Y1074375D02*
D03*
Y1065375D02*
D03*
X818780Y1076375D02*
D03*
Y1067375D02*
D03*
X829780Y1076375D02*
D03*
Y1085375D02*
D03*
X883780Y1213875D02*
D03*
Y1222875D02*
D03*
D101*
X613780Y676885D02*
D03*
X604780D02*
D03*
X613780Y686385D02*
D03*
X604780D02*
D03*
X315780Y336385D02*
D03*
X324780D02*
D03*
X1083780Y630885D02*
D03*
X1074780D02*
D03*
X1083780Y639885D02*
D03*
X1074780D02*
D03*
X735280Y691885D02*
D03*
X726280D02*
D03*
X1074780Y621885D02*
D03*
X1083780D02*
D03*
X1074780Y613385D02*
D03*
X1083780D02*
D03*
X861780Y738885D02*
D03*
X852780D02*
D03*
X324780Y327385D02*
D03*
X315780D02*
D03*
X613780Y1176875D02*
D03*
X604780D02*
D03*
X613780Y1186375D02*
D03*
X604780D02*
D03*
X315780Y836375D02*
D03*
X324780D02*
D03*
X1083780Y1130875D02*
D03*
X1074780D02*
D03*
X1083780Y1139875D02*
D03*
X1074780D02*
D03*
X735280Y1191875D02*
D03*
X726280D02*
D03*
X1074780Y1121875D02*
D03*
X1083780D02*
D03*
X1074780Y1113375D02*
D03*
X1083780D02*
D03*
X861780Y1238875D02*
D03*
X852780D02*
D03*
X324780Y827375D02*
D03*
X315780D02*
D03*
D104*
X298280Y555385D02*
D03*
Y1055375D02*
D03*
D105*
X283030Y564885D02*
D03*
Y555385D02*
D03*
Y545885D02*
D03*
X313530D02*
D03*
Y555385D02*
D03*
Y564885D02*
D03*
X283030Y1064875D02*
D03*
Y1055375D02*
D03*
Y1045875D02*
D03*
X313530D02*
D03*
Y1055375D02*
D03*
Y1064875D02*
D03*
D106*
X511780Y606385D02*
D03*
X524280D02*
D03*
X799530Y615885D02*
D03*
X812030D02*
D03*
X304530Y528885D02*
D03*
X292030D02*
D03*
X304530Y582385D02*
D03*
X292030D02*
D03*
X1144280Y292385D02*
D03*
X1156780D02*
D03*
X511780Y1106375D02*
D03*
X524280D02*
D03*
X799530Y1115875D02*
D03*
X812030D02*
D03*
X304530Y1028875D02*
D03*
X292030D02*
D03*
X304530Y1082375D02*
D03*
X292030D02*
D03*
X1144280Y792375D02*
D03*
X1156780D02*
D03*
D108*
X1108780Y373635D02*
D03*
Y361135D02*
D03*
X1123780Y373635D02*
D03*
Y361135D02*
D03*
X967780Y560135D02*
D03*
Y572635D02*
D03*
X828280Y719635D02*
D03*
Y707135D02*
D03*
X1115780Y346135D02*
D03*
Y333635D02*
D03*
X1108780Y873625D02*
D03*
Y861125D02*
D03*
X1123780Y873625D02*
D03*
Y861125D02*
D03*
X967780Y1060125D02*
D03*
Y1072625D02*
D03*
X828280Y1219625D02*
D03*
Y1207125D02*
D03*
X1115780Y846125D02*
D03*
Y833625D02*
D03*
D116*
X1160780Y472885D02*
D03*
Y398385D02*
D03*
X281280Y512385D02*
D03*
Y412885D02*
D03*
X1160780Y972875D02*
D03*
Y898375D02*
D03*
X281280Y1012375D02*
D03*
Y912875D02*
D03*
D117*
X1128780Y416885D02*
D03*
Y429385D02*
D03*
Y441885D02*
D03*
Y454385D02*
D03*
X313280Y493885D02*
D03*
Y481385D02*
D03*
Y431385D02*
D03*
Y443885D02*
D03*
Y456385D02*
D03*
Y468885D02*
D03*
X1128780Y916875D02*
D03*
Y929375D02*
D03*
Y941875D02*
D03*
Y954375D02*
D03*
X313280Y993875D02*
D03*
Y981375D02*
D03*
Y931375D02*
D03*
Y943875D02*
D03*
Y956375D02*
D03*
Y968875D02*
D03*
D120*
X353366Y327885D02*
D03*
X1024180Y358365D02*
D03*
X353366Y827875D02*
D03*
X1024180Y858355D02*
D03*
D121*
X293780Y293885D02*
D03*
X1083780D02*
D03*
Y713885D02*
D03*
X293780D02*
D03*
Y793875D02*
D03*
X1083780D02*
D03*
Y1213875D02*
D03*
X293780D02*
D03*
D122*
X1172280Y690385D02*
D03*
Y677385D02*
D03*
Y1190375D02*
D03*
Y1177375D02*
D03*
D123*
X1141780Y726985D02*
D03*
Y682785D02*
D03*
Y1226975D02*
D03*
Y1182775D02*
D03*
D124*
X799780Y310385D02*
D03*
X849780D02*
D03*
X837280D02*
D03*
X824780D02*
D03*
X812280D02*
D03*
X799780Y810375D02*
D03*
X849780D02*
D03*
X837280D02*
D03*
X824780D02*
D03*
X812280D02*
D03*
D125*
X868280Y278385D02*
D03*
X781280D02*
D03*
X868280Y778375D02*
D03*
X781280D02*
D03*
D126*
X904830Y360612D02*
D03*
X917530D02*
D03*
X930230D02*
D03*
X968330D02*
D03*
X981030D02*
D03*
X993730D02*
D03*
X968330Y276157D02*
D03*
X981030D02*
D03*
X993730D02*
D03*
X930230D02*
D03*
X917530D02*
D03*
X904830D02*
D03*
Y860602D02*
D03*
X917530D02*
D03*
X930230D02*
D03*
X968330D02*
D03*
X981030D02*
D03*
X993730D02*
D03*
X968330Y776148D02*
D03*
X981030D02*
D03*
X993730D02*
D03*
X930230D02*
D03*
X917530D02*
D03*
X904830D02*
D03*
D127*
X582780Y701885D02*
D03*
X632780D02*
D03*
X592780D02*
D03*
X602780D02*
D03*
X612780D02*
D03*
X622780D02*
D03*
X582780Y1201875D02*
D03*
X632780D02*
D03*
X592780D02*
D03*
X602780D02*
D03*
X612780D02*
D03*
X622780D02*
D03*
D128*
X569780Y740635D02*
D03*
X645780D02*
D03*
X569780Y1240625D02*
D03*
X645780D02*
D03*
D129*
X1046780Y546385D02*
D03*
X1027780D02*
D03*
Y517385D02*
D03*
X1037280D02*
D03*
X1046780D02*
D03*
X1155273Y339881D02*
D03*
X1136273D02*
D03*
Y310881D02*
D03*
X1145773D02*
D03*
X1155273D02*
D03*
X1046780Y1046375D02*
D03*
X1027780D02*
D03*
Y1017375D02*
D03*
X1037280D02*
D03*
X1046780D02*
D03*
X1155273Y839871D02*
D03*
X1136273D02*
D03*
Y810871D02*
D03*
X1145773D02*
D03*
X1155273D02*
D03*
D130*
X1107780Y591385D02*
D03*
Y581385D02*
D03*
Y571385D02*
D03*
Y561385D02*
D03*
Y521385D02*
D03*
Y526385D02*
D03*
Y531385D02*
D03*
Y536385D02*
D03*
Y541385D02*
D03*
Y551385D02*
D03*
Y601385D02*
D03*
Y546385D02*
D03*
Y556385D02*
D03*
Y566385D02*
D03*
Y576385D02*
D03*
Y586385D02*
D03*
Y596385D02*
D03*
Y606385D02*
D03*
Y611385D02*
D03*
Y616385D02*
D03*
Y1091375D02*
D03*
Y1081375D02*
D03*
Y1071375D02*
D03*
Y1061375D02*
D03*
Y1021375D02*
D03*
Y1026375D02*
D03*
Y1031375D02*
D03*
Y1036375D02*
D03*
Y1041375D02*
D03*
Y1051375D02*
D03*
Y1101375D02*
D03*
Y1046375D02*
D03*
Y1056375D02*
D03*
Y1066375D02*
D03*
Y1076375D02*
D03*
Y1086375D02*
D03*
Y1096375D02*
D03*
Y1106375D02*
D03*
Y1111375D02*
D03*
Y1116375D02*
D03*
D131*
X1124780Y640885D02*
D03*
Y496885D02*
D03*
Y1140875D02*
D03*
Y996875D02*
D03*
D132*
X1140030Y635385D02*
D03*
Y502385D02*
D03*
Y1135375D02*
D03*
Y1002375D02*
D03*
D133*
X465280Y623885D02*
D03*
X479780D02*
D03*
X465280Y1123875D02*
D03*
X479780D02*
D03*
D134*
X441380Y583885D02*
D03*
X761280Y623885D02*
D03*
X441380Y1083875D02*
D03*
X761280Y1123875D02*
D03*
D135*
X472780Y632385D02*
D03*
Y1132375D02*
D03*
D136*
X449780Y576385D02*
D03*
X769780Y631385D02*
D03*
X449780Y1076375D02*
D03*
X769780Y1131375D02*
D03*
D137*
X1039000Y740000D02*
D03*
Y1239990D02*
D03*
D138*
X904000Y735500D02*
D03*
Y1235490D02*
D03*
D139*
Y694000D02*
D03*
Y1193990D02*
D03*
D140*
Y632000D02*
D03*
X1015500Y589000D02*
D03*
X904000Y1131990D02*
D03*
X1015500Y1088990D02*
D03*
D141*
X913500Y589000D02*
D03*
X923000D02*
D03*
X934000D02*
D03*
X945000D02*
D03*
X956000D02*
D03*
X967000D02*
D03*
X978000D02*
D03*
X989000D02*
D03*
X1000000D02*
D03*
X913500Y1088990D02*
D03*
X923000D02*
D03*
X934000D02*
D03*
X945000D02*
D03*
X956000D02*
D03*
X967000D02*
D03*
X978000D02*
D03*
X989000D02*
D03*
X1000000D02*
D03*
D142*
X318280Y372485D02*
D03*
Y872475D02*
D03*
D143*
X338380Y389985D02*
D03*
Y384985D02*
D03*
Y379985D02*
D03*
Y374985D02*
D03*
Y369985D02*
D03*
Y364985D02*
D03*
Y359985D02*
D03*
Y354985D02*
D03*
X325780Y347385D02*
D03*
X310780D02*
D03*
X298180Y354985D02*
D03*
Y359985D02*
D03*
Y364985D02*
D03*
Y369985D02*
D03*
Y374985D02*
D03*
Y379985D02*
D03*
Y384985D02*
D03*
Y389985D02*
D03*
X310780Y397585D02*
D03*
X325780D02*
D03*
X338380Y889975D02*
D03*
Y884975D02*
D03*
Y879975D02*
D03*
Y874975D02*
D03*
Y869975D02*
D03*
Y864975D02*
D03*
Y859975D02*
D03*
Y854975D02*
D03*
X325780Y847375D02*
D03*
X310780D02*
D03*
X298180Y854975D02*
D03*
Y859975D02*
D03*
Y864975D02*
D03*
Y869975D02*
D03*
Y874975D02*
D03*
Y879975D02*
D03*
Y884975D02*
D03*
Y889975D02*
D03*
X310780Y897575D02*
D03*
X325780D02*
D03*
D144*
X1075780Y399885D02*
D03*
X1070780D02*
D03*
X1065780D02*
D03*
X1060780D02*
D03*
Y429885D02*
D03*
X1065780D02*
D03*
X1070780D02*
D03*
X1075780D02*
D03*
Y899875D02*
D03*
X1070780D02*
D03*
X1065780D02*
D03*
X1060780D02*
D03*
Y929875D02*
D03*
X1065780D02*
D03*
X1070780D02*
D03*
X1075780D02*
D03*
D145*
X1053280Y407385D02*
D03*
Y412385D02*
D03*
Y417385D02*
D03*
Y422385D02*
D03*
X1083280D02*
D03*
Y417385D02*
D03*
Y412385D02*
D03*
Y407385D02*
D03*
X1053280Y907375D02*
D03*
Y912375D02*
D03*
Y917375D02*
D03*
Y922375D02*
D03*
X1083280D02*
D03*
Y917375D02*
D03*
Y912375D02*
D03*
Y907375D02*
D03*
D146*
X1068280Y414885D02*
D03*
Y914875D02*
D03*
D147*
X1066530Y453385D02*
D03*
X1094030D02*
D03*
X1066530Y953375D02*
D03*
X1094030D02*
D03*
D148*
X1085030Y367385D02*
D03*
X1054530D02*
D03*
X1085030Y867375D02*
D03*
X1054530D02*
D03*
D149*
X638776Y617914D02*
D03*
X642311Y614378D02*
D03*
X645847Y610843D02*
D03*
X649382Y607307D02*
D03*
X652918Y603772D02*
D03*
X656453Y600236D02*
D03*
X659989Y596701D02*
D03*
X663524Y593165D02*
D03*
X667060Y589630D02*
D03*
X670595Y586094D02*
D03*
X674131Y582558D02*
D03*
X677667Y579023D02*
D03*
X681202Y575487D02*
D03*
X684738Y571952D02*
D03*
X688273Y568416D02*
D03*
X691809Y564881D02*
D03*
X609784Y482856D02*
D03*
X606249Y486392D02*
D03*
X602713Y489927D02*
D03*
X599178Y493463D02*
D03*
X595642Y496998D02*
D03*
X592107Y500534D02*
D03*
X588571Y504070D02*
D03*
X585036Y507605D02*
D03*
X581500Y511141D02*
D03*
X577965Y514676D02*
D03*
X574429Y518212D02*
D03*
X570893Y521747D02*
D03*
X567358Y525283D02*
D03*
X563822Y528818D02*
D03*
X560287Y532354D02*
D03*
X556751Y535889D02*
D03*
X638776Y1117904D02*
D03*
X642311Y1114368D02*
D03*
X645847Y1110833D02*
D03*
X649382Y1107297D02*
D03*
X652918Y1103762D02*
D03*
X656453Y1100226D02*
D03*
X659989Y1096691D02*
D03*
X663524Y1093155D02*
D03*
X667060Y1089619D02*
D03*
X670595Y1086084D02*
D03*
X674131Y1082548D02*
D03*
X677667Y1079013D02*
D03*
X681202Y1075477D02*
D03*
X684738Y1071942D02*
D03*
X688273Y1068406D02*
D03*
X691809Y1064871D02*
D03*
X609784Y982846D02*
D03*
X606249Y986382D02*
D03*
X602713Y989917D02*
D03*
X599178Y993453D02*
D03*
X595642Y996989D02*
D03*
X592107Y1000524D02*
D03*
X588571Y1004060D02*
D03*
X585036Y1007595D02*
D03*
X581500Y1011131D02*
D03*
X577965Y1014666D02*
D03*
X574429Y1018202D02*
D03*
X570893Y1021737D02*
D03*
X567358Y1025273D02*
D03*
X563822Y1028808D02*
D03*
X560287Y1032344D02*
D03*
X556751Y1035879D02*
D03*
D150*
X691809Y535889D02*
D03*
X688273Y532354D02*
D03*
X684738Y528818D02*
D03*
X681202Y525283D02*
D03*
X677667Y521747D02*
D03*
X674131Y518212D02*
D03*
X670595Y514676D02*
D03*
X667060Y511141D02*
D03*
X663524Y507605D02*
D03*
X659989Y504070D02*
D03*
X656453Y500534D02*
D03*
X652918Y496998D02*
D03*
X649382Y493463D02*
D03*
X645847Y489927D02*
D03*
X642311Y486392D02*
D03*
X638776Y482856D02*
D03*
X556751Y564881D02*
D03*
X560287Y568416D02*
D03*
X563822Y571952D02*
D03*
X567358Y575487D02*
D03*
X570893Y579023D02*
D03*
X574429Y582558D02*
D03*
X577965Y586094D02*
D03*
X581500Y589630D02*
D03*
X585036Y593165D02*
D03*
X588571Y596701D02*
D03*
X592107Y600236D02*
D03*
X595642Y603772D02*
D03*
X599178Y607307D02*
D03*
X602713Y610843D02*
D03*
X606249Y614378D02*
D03*
X609784Y617914D02*
D03*
X691809Y1035879D02*
D03*
X688273Y1032344D02*
D03*
X684738Y1028808D02*
D03*
X681202Y1025273D02*
D03*
X677667Y1021737D02*
D03*
X674131Y1018202D02*
D03*
X670595Y1014666D02*
D03*
X667060Y1011131D02*
D03*
X663524Y1007595D02*
D03*
X659989Y1004060D02*
D03*
X656453Y1000524D02*
D03*
X652918Y996989D02*
D03*
X649382Y993453D02*
D03*
X645847Y989917D02*
D03*
X642311Y986382D02*
D03*
X638776Y982846D02*
D03*
X556751Y1064871D02*
D03*
X560287Y1068406D02*
D03*
X563822Y1071942D02*
D03*
X567358Y1075477D02*
D03*
X570893Y1079013D02*
D03*
X574429Y1082548D02*
D03*
X577965Y1086084D02*
D03*
X581500Y1089619D02*
D03*
X585036Y1093155D02*
D03*
X588571Y1096691D02*
D03*
X592107Y1100226D02*
D03*
X595642Y1103762D02*
D03*
X599178Y1107297D02*
D03*
X602713Y1110833D02*
D03*
X606249Y1114368D02*
D03*
X609784Y1117904D02*
D03*
D151*
X340699Y702304D02*
D03*
X331861Y693466D02*
D03*
X340699Y1202294D02*
D03*
X331861Y1193456D02*
D03*
D152*
X316780Y605135D02*
D03*
X293780D02*
D03*
X270780D02*
D03*
X316780Y1105125D02*
D03*
X293780D02*
D03*
X270780D02*
D03*
D153*
X293780Y665635D02*
D03*
Y1165625D02*
D03*
D154*
X698144Y613249D02*
D03*
X691780Y606885D02*
D03*
X654598Y642703D02*
D03*
X660962Y649067D02*
D03*
X698144Y1113239D02*
D03*
X691780Y1106875D02*
D03*
X654598Y1142693D02*
D03*
X660962Y1149057D02*
D03*
D155*
X689715Y625264D02*
D03*
X674159Y640820D02*
D03*
X662845Y629506D02*
D03*
X678401Y613950D02*
D03*
X689715Y1125254D02*
D03*
X674159Y1140810D02*
D03*
X662845Y1129496D02*
D03*
X678401Y1113940D02*
D03*
D156*
X870775Y708391D02*
D03*
Y727391D02*
D03*
X843775D02*
D03*
Y717891D02*
D03*
Y708391D02*
D03*
X870775Y1208381D02*
D03*
Y1227381D02*
D03*
X843775D02*
D03*
Y1217881D02*
D03*
Y1208381D02*
D03*
D157*
X879280Y445885D02*
D03*
X888280Y428386D02*
D03*
X886780Y451385D02*
D03*
X879280Y456885D02*
D03*
X887780Y404385D02*
D03*
X882780Y397385D02*
D03*
X886780Y439385D02*
D03*
X885280Y417886D02*
D03*
X880780Y424385D02*
D03*
X880780Y434385D02*
D03*
X881780Y409885D02*
D03*
X879280Y945875D02*
D03*
X888280Y928375D02*
D03*
X886780Y951375D02*
D03*
X879280Y956875D02*
D03*
X887780Y904375D02*
D03*
X882780Y897375D02*
D03*
X886780Y939375D02*
D03*
X885280Y917876D02*
D03*
X880780Y924375D02*
D03*
X880780Y934375D02*
D03*
X881780Y909875D02*
D03*
D158*
X740280Y531885D02*
D03*
X765780Y528385D02*
D03*
X512280Y516885D02*
D03*
X482280Y524385D02*
D03*
X740280Y1031875D02*
D03*
X765780Y1028375D02*
D03*
X512280Y1016875D02*
D03*
X482280Y1024375D02*
D03*
D159*
X787875Y537900D02*
D03*
X783780Y528885D02*
D03*
X504780Y527885D02*
D03*
X497780Y535385D02*
D03*
X787875Y1037890D02*
D03*
X783780Y1028875D02*
D03*
X504780Y1027875D02*
D03*
X497780Y1035375D02*
D03*
M02*
