G04 Layer_Color=65535*
%FSLAX44Y44*%
%MOMM*%
G71*
G01*
G75*
%ADD40C,0.2500*%
%ADD43C,0.1500*%
%ADD44C,0.6000*%
%ADD46C,0.2000*%
%ADD87C,0.1000*%
G36*
X839780Y1037875D02*
X829780D01*
X839780Y1047875D01*
Y1037875D01*
D02*
G37*
G36*
X542780D02*
X532780D01*
X542780Y1047875D01*
Y1037875D01*
D02*
G37*
G36*
X839780Y537885D02*
X829780D01*
X839780Y547885D01*
Y537885D01*
D02*
G37*
G36*
X542780D02*
X532780D01*
X542780Y547885D01*
Y537885D01*
D02*
G37*
D40*
X1132850Y329500D02*
G03*
X1132850Y329500I-1250J0D01*
G01*
X1023780Y672885D02*
G03*
X1023780Y672885I-1250J0D01*
G01*
X351285Y441131D02*
G03*
X351285Y441131I-1250J0D01*
G01*
X376785Y541639D02*
G03*
X376785Y541639I-1250J0D01*
G01*
X351285Y603631D02*
G03*
X351285Y603631I-1250J0D01*
G01*
X550530Y539385D02*
G03*
X550530Y539385I-1250J0D01*
G01*
X847530D02*
G03*
X847530Y539385I-1250J0D01*
G01*
X1040780Y489185D02*
G03*
X1040780Y489185I-1250J0D01*
G01*
X1028030Y430385D02*
G03*
X1028030Y430385I-1250J0D01*
G01*
X1132850Y829490D02*
G03*
X1132850Y829490I-1250J0D01*
G01*
X1023780Y1172875D02*
G03*
X1023780Y1172875I-1250J0D01*
G01*
X351285Y941121D02*
G03*
X351285Y941121I-1250J0D01*
G01*
X376785Y1041629D02*
G03*
X376785Y1041629I-1250J0D01*
G01*
X351285Y1103621D02*
G03*
X351285Y1103621I-1250J0D01*
G01*
X550530Y1039375D02*
G03*
X550530Y1039375I-1250J0D01*
G01*
X847530D02*
G03*
X847530Y1039375I-1250J0D01*
G01*
X1040780Y989175D02*
G03*
X1040780Y989175I-1250J0D01*
G01*
X1028030Y930375D02*
G03*
X1028030Y930375I-1250J0D01*
G01*
D43*
X346381Y388591D02*
X1020574D01*
X1031165Y378000D01*
Y364715D02*
Y378000D01*
X346381Y297532D02*
Y320265D01*
Y335505D02*
Y358238D01*
Y267179D02*
Y297532D01*
Y358238D02*
Y388591D01*
X338253Y335505D02*
X346381D01*
X338253Y320265D02*
X346381D01*
X338253D02*
Y335505D01*
X1031165Y267179D02*
Y352015D01*
X346381Y267179D02*
X1031165D01*
X346381Y888581D02*
X1020574D01*
X1031165Y877990D01*
Y864705D02*
Y877990D01*
X346381Y797522D02*
Y820255D01*
Y835495D02*
Y858228D01*
Y767169D02*
Y797522D01*
Y858228D02*
Y888581D01*
X338253Y835495D02*
X346381D01*
X338253Y820255D02*
X346381D01*
X338253D02*
Y835495D01*
X1031165Y767169D02*
Y852005D01*
X346381Y767169D02*
X1031165D01*
D44*
X1016780Y650885D02*
G03*
X1016780Y650885I-3000J0D01*
G01*
X1064780Y476385D02*
G03*
X1064780Y476385I-3000J0D01*
G01*
X1064280Y422385D02*
G03*
X1064280Y422385I-3000J0D01*
G01*
X1016780Y1150875D02*
G03*
X1016780Y1150875I-3000J0D01*
G01*
X1064780Y976375D02*
G03*
X1064780Y976375I-3000J0D01*
G01*
X1064280Y922375D02*
G03*
X1064280Y922375I-3000J0D01*
G01*
D46*
X1145100Y305000D02*
Y306500D01*
Y305000D02*
X1156950D01*
X1145100Y378500D02*
Y380000D01*
X1156950D01*
X931780Y568885D02*
Y660885D01*
X1023780Y568885D02*
Y660885D01*
X931780Y568885D02*
X1023780D01*
X931780Y660885D02*
X1023780D01*
X353285Y448881D02*
Y454881D01*
X375285Y448881D02*
Y454881D01*
X353285Y448881D02*
X375285D01*
X353285Y454881D02*
X375285D01*
X372285Y527889D02*
Y533889D01*
X350285Y527889D02*
Y533889D01*
X372285D01*
X350285Y527889D02*
X372285D01*
X353285Y611381D02*
Y617381D01*
X375285Y611381D02*
Y617381D01*
X353285Y611381D02*
X375285D01*
X353285Y617381D02*
X375285D01*
X317030Y572385D02*
X322280D01*
X317030Y538385D02*
X322280D01*
X288280D02*
X293530D01*
X288280Y570885D02*
Y572385D01*
X293530D01*
X288280Y538385D02*
Y539885D01*
X322280Y538385D02*
Y539885D01*
Y570885D02*
Y572385D01*
X311530Y486385D02*
X316780D01*
X311530Y452385D02*
X316780D01*
X282780D02*
X288030D01*
X282780Y484885D02*
Y486385D01*
X288030D01*
X282780Y452385D02*
Y453885D01*
X316780Y452385D02*
Y453885D01*
Y484885D02*
Y486385D01*
X532780Y537885D02*
X542780Y547885D01*
Y537885D02*
Y677885D01*
X402780Y537885D02*
Y677885D01*
Y537885D02*
X542780D01*
X402780Y677885D02*
X542780D01*
X829780Y537885D02*
X839780Y547885D01*
Y537885D02*
Y677885D01*
X699780Y537885D02*
Y677885D01*
Y537885D02*
X839780D01*
X699780Y677885D02*
X839780D01*
X1051780Y436385D02*
X1083780D01*
X1051780Y486385D02*
X1083780D01*
Y436385D02*
Y486385D01*
X1051780Y436385D02*
Y486385D01*
X1051280Y382385D02*
X1083280D01*
X1051280Y432385D02*
X1083280D01*
Y382385D02*
Y432385D01*
X1051280Y382385D02*
Y432385D01*
X1171780Y408385D02*
Y462885D01*
X1131280Y394385D02*
X1142280D01*
X1131280D02*
Y408885D01*
Y461885D02*
Y476385D01*
X1142280D01*
X314030Y644135D02*
X319280D01*
X285280Y642635D02*
Y644135D01*
X290530D01*
X319280Y642635D02*
Y644135D01*
X291780Y606385D02*
X297780D01*
X291780Y590385D02*
X297780D01*
X1113278Y680885D02*
Y690215D01*
X1108780Y742387D02*
X1118110D01*
X1113445Y737722D02*
Y747052D01*
X1145100Y804990D02*
Y806490D01*
Y804990D02*
X1156950D01*
X1145100Y878490D02*
Y879990D01*
X1156950D01*
X931780Y1068875D02*
Y1160875D01*
X1023780Y1068875D02*
Y1160875D01*
X931780Y1068875D02*
X1023780D01*
X931780Y1160875D02*
X1023780D01*
X353285Y948871D02*
Y954871D01*
X375285Y948871D02*
Y954871D01*
X353285Y948871D02*
X375285D01*
X353285Y954871D02*
X375285D01*
X372285Y1027879D02*
Y1033879D01*
X350285Y1027879D02*
Y1033879D01*
X372285D01*
X350285Y1027879D02*
X372285D01*
X353285Y1111371D02*
Y1117371D01*
X375285Y1111371D02*
Y1117371D01*
X353285Y1111371D02*
X375285D01*
X353285Y1117371D02*
X375285D01*
X317030Y1072375D02*
X322280D01*
X317030Y1038375D02*
X322280D01*
X288280D02*
X293530D01*
X288280Y1070875D02*
Y1072375D01*
X293530D01*
X288280Y1038375D02*
Y1039875D01*
X322280Y1038375D02*
Y1039875D01*
Y1070875D02*
Y1072375D01*
X311530Y986375D02*
X316780D01*
X311530Y952375D02*
X316780D01*
X282780D02*
X288030D01*
X282780Y984875D02*
Y986375D01*
X288030D01*
X282780Y952375D02*
Y953875D01*
X316780Y952375D02*
Y953875D01*
Y984875D02*
Y986375D01*
X532780Y1037875D02*
X542780Y1047875D01*
Y1037875D02*
Y1177875D01*
X402780Y1037875D02*
Y1177875D01*
Y1037875D02*
X542780D01*
X402780Y1177875D02*
X542780D01*
X829780Y1037875D02*
X839780Y1047875D01*
Y1037875D02*
Y1177875D01*
X699780Y1037875D02*
Y1177875D01*
Y1037875D02*
X839780D01*
X699780Y1177875D02*
X839780D01*
X1051780Y936375D02*
X1083780D01*
X1051780Y986375D02*
X1083780D01*
Y936375D02*
Y986375D01*
X1051780Y936375D02*
Y986375D01*
X1051280Y882375D02*
X1083280D01*
X1051280Y932375D02*
X1083280D01*
Y882375D02*
Y932375D01*
X1051280Y882375D02*
Y932375D01*
X1171780Y908375D02*
Y962875D01*
X1131280Y894375D02*
X1142280D01*
X1131280D02*
Y908875D01*
Y961875D02*
Y976375D01*
X1142280D01*
X314030Y1144125D02*
X319280D01*
X285280Y1142625D02*
Y1144125D01*
X290530D01*
X319280Y1142625D02*
Y1144125D01*
X291780Y1106375D02*
X297780D01*
X291780Y1090375D02*
X297780D01*
X1113278Y1180875D02*
Y1190205D01*
X1108780Y1242377D02*
X1118110D01*
X1113445Y1237712D02*
Y1247042D01*
D87*
X284780Y572385D02*
G03*
X284780Y572385I-500J0D01*
G01*
X279280Y486385D02*
G03*
X279280Y486385I-500J0D01*
G01*
X281780Y644135D02*
G03*
X281780Y644135I-500J0D01*
G01*
X284780Y1072375D02*
G03*
X284780Y1072375I-500J0D01*
G01*
X279280Y986375D02*
G03*
X279280Y986375I-500J0D01*
G01*
X281780Y1144125D02*
G03*
X281780Y1144125I-500J0D01*
G01*
M02*
