M48
;Layer_Color=9474304
;FILE_FORMAT=4:4
METRIC,LZ
;TYPE=PLATED
T1F00S00C0.2500
T2F00S00C0.3000
T3F00S00C0.6000
T4F00S00C3.5000
;TYPE=NON_PLATED
T5F00S00C1.2700
%
T01
X0079728Y00480885
X0081628
X0082528Y00480885
X0084428Y00480885
X0085328
X0088278Y00501385
X0083778Y00547885
X0083978Y00555885
X0084428Y00563885
X0084228Y00575885
X0084171Y00581655
X0083728Y00585385
X0084378Y00590385
X0084178Y00600385
X0083828Y00605885
X0081778Y00591885
X0080978Y00575885
X0080178
X00800933Y00568538
X0080978Y00567885
X0082578Y00567885
X0081778Y00559885
X0083778Y00571885
X0079378Y00583885
Y00631885
X0080178Y00639885
Y00647885
X0080978
X0081778Y00655885
X0083778Y00667885
X0078978Y00675885
X0078578Y00655885
X0076978Y00647885
X0077778Y00639691
X0076178Y00631885
X0074578
X0073778Y00639885
Y00647885
X0072978
Y00639885
X0072178Y00655885
X0073778
X0074578Y00675885
X0071028Y00674385
X0073778Y00607885
X0075378Y00615885
Y00599885
X0076978
Y00607885
Y00615885
X0078578
Y00599885
X0076978Y00575885
X0074578Y00583885
X0073778Y00575885
X0072978
Y00567885
X0073778
X0072178Y00559885
X0070178Y00543885
X0074128Y00480385
X0076028
X0076928
X0078828Y00480885
X0055678Y0047019
X0054778Y00472385
X0054128Y00477385
Y00483885
X0054378Y00497385
X0054178Y00505885
X0053778Y00511885
X0054028Y00520385
X0053728Y00527385
X0053278Y00541385
X0052078Y00559885
X0051278Y00567885
X0050478
Y00575885
X0051278
X0052078Y00583885
X0049678Y00583885
Y00607885
X0048878Y00599885
Y00615885
X0048078
X0047278
X0047278Y00609385
X0047278Y00597885
X0045678Y00599885
X0044878Y00607885
X0045678Y00615885
X0046478
X0044878Y00631885
X0044078Y00639885
X0043278
Y00647885
X0044078
X0042478Y00655885
X0040478Y00667885
X0042478Y00599885
X0043278Y00575885
X0044078Y00567885
X0042478Y00559885
X00405781Y00546885
X0040418Y00483285
X0042318Y00483485
X0043188Y00483285
X0045078Y00485385
X0045968Y00483785
X0047868Y00482985
X0048778Y00482885
X0050678
X0051608Y00483085
X0047278Y00575885
X0045678Y00583885
X0044878
X0047278Y00647885
X0048878Y00655885
X0050478Y00647885
Y00639885
X0049678Y00631885
X0051278Y00647885
X0052078Y00655885
X0054078Y00667885
X0054128Y00977375
Y00983875
X0054378Y00997375
X0054178Y01005875
X0053778Y01011875
X0054028Y01020375
X0053728Y01027375
X0053278Y01041375
X0052078Y01059875
X0051278Y01067875
X0050478
Y01075875
X0051278
X0052078Y01083875
X0049678Y01083875
Y01107875
X0048878Y01099875
Y01115875
X0048078
X0047278
X0047278Y01109375
X0047278Y01097875
X0045678Y01099875
X0044878Y01107875
X0045678Y01115875
X0046478
X0044878Y01131875
X0044078Y01139875
X0043278
Y01147875
X0044078
X0042478Y01155875
X0040478Y01167875
X0042478Y01099875
X0043278Y01075875
X0044078Y01067875
X0042478Y01059875
X00405781Y01046875
X0040418Y00983275
X0042318Y00983475
X0043188Y00983275
X0045078Y00985375
X0045968Y00983775
X0047868Y00982975
X0048778Y00982875
X0050678
X0051608Y00983075
X0054778Y00972375
X0055678Y0097018
X0047278Y01075875
X0045678Y01083875
X0044878
X0047278Y01147875
X0048878Y01155875
X0050478Y01147875
Y01139875
X0049678Y01131875
X0051278Y01147875
X0052078Y01155875
X0054078Y01167875
X0071028Y01174375
X0072178Y01155875
X0072978Y01147875
X0073778
Y01139875
X0072978
X0074578Y01131875
X0076178
X0077778Y01139681
X0076978Y01147875
X0078578Y01155875
X0078978Y01175875
X0074578
X0073778Y01155875
Y01107875
X0075378Y01115875
Y01099875
X0076978
Y01107875
Y01115875
X0078578
Y01099875
X0076978Y01075875
X0074578Y01083875
X0073778Y01075875
X0072978
Y01067875
X0073778
X0072178Y01059875
X0070178Y01043875
X0074128Y00980375
X0076028
X0076928
X0078828Y00980875
X0079728Y00980875
X0081628
X0082528Y00980875
X0084428Y00980875
X0085328
X0088278Y01001375
X0083778Y01047875
X0083978Y01055875
X0084428Y01063875
X0084228Y01075875
X0084171Y01081645
X0083728Y01085375
X0084378Y01090375
X0084178Y01100375
X0083828Y01105875
X0081778Y01091875
X0080978Y01075875
X0080178
X00800933Y01068528
X0080978Y01067875
X0082578Y01067875
X0081778Y01059875
X0083778Y01071875
X0079378Y01083875
Y01131875
X0080178Y01139875
Y01147875
X0080978
X0081778Y01155875
X0083778Y01167875
T02
X0027478Y00363885
X00287781Y00359386
X00289781Y00349386
X00299781Y00343386
X0031278Y00361485
Y00372485
Y00383485
X0032378
Y00372485
Y00361485
X0033478Y00341385
X0033628Y00329385
X0035178Y00342885
X0035878Y00303385
Y00296885
X0036678
Y00303385
X0036778Y00393885
X0038928Y00395885
X00401395Y00396385
X00409Y00365612
X00409073Y00314885
X00421773
X00421973Y00289885
X00409273
X00403023Y00273642
X00415723Y00273828
X0047278Y00289385
X0048528Y00328385
X00498273Y00327885
X0049828Y00353292
X0051078Y00365885
Y00379885
X00496781Y00376886
X00484781
X00536273Y00365885
X00536473Y00353385
X00548673Y00352885
X0054878Y00339885
X0056178Y00352386
X0057478Y00340885
X0058678
X0058728Y00353385
X00587073Y00365885
X0059978Y00365892
Y00380905
X0058778Y00379385
X0056828
X00624673Y00365385
X0062478Y00352792
X0061278Y00353385
X0061228Y00340385
X00625573Y00340885
X0065078Y00340692
X00650873Y00315385
X0066328Y00302392
X00625173Y00302385
X0061278Y00315392
X0059978Y00327792
X0056178Y00302385
X0054878
X00536473
X00701873Y00302885
X00701473Y00327885
X00714173
X0073928Y00315478
X0073978Y00302692
X00752373Y00289885
X0076478Y00314992
Y00328078
X00765073Y00353385
X00745923Y00352028
X0073328Y00364886
X00720523Y00381128
X00701373Y00365885
X00701373Y00353385
X00676173
X00663273Y00365885
X00682423Y00382528
X00644323Y00382842
X00688573Y00340385
X00720523Y00273642
X00777573Y00302385
X00790373Y00327885
X0079028Y00353192
X00790273Y00365885
X0078828Y00382385
X0076178Y00381385
X0079778Y00382385
X0080978Y00383385
X00834823Y00382928
X0084128Y00353392
X0085328Y00341885
X0084128Y00326885
X00828473Y00327885
X0081528
X0080328
X0080278Y00352992
X0081628Y00341092
X0086628Y00327592
Y00315385
X0087928Y00315192
X0089178Y00304385
X0089128Y00288385
X0090478Y00289386
X0091778
X00929973Y00302385
X0094228
X0095578Y00301886
X0096728Y00301885
X0098128Y00302385
X0099378Y00327885
X0099278Y00341385
X0098078Y00340885
X0096778Y00340385
Y00327885
X00942773
X0094228Y00352885
X00955073
X00942673Y00365885
X00911023Y00383142
X0087278Y00380385
X00879373Y00353385
X0090478Y00339885
X0091778
X0091678Y00327385
X0091828Y00315385
X0087278Y00277386
X0085378Y00274885
X0082878Y00277392
X0081828Y00272885
X0101978Y00335885
X01006173Y00365885
X0098728Y00379385
X0103478Y00378885
X0102678Y00395385
X0108878Y00346885
X0110478Y00323385
X0111028Y00318885
X0112628Y00314385
X0112478Y00329385
X011476Y00317875
X011706Y00313375
Y00334125
Y00350875
Y00371625
X011476Y00367125
X0113328Y00366885
X0113228Y00385885
X0113278Y00292385
X01114279Y00404385
X011158Y00429385
X0111078Y00441385
X0111278Y00459385
X0112178Y00476385
X0107228Y00475385
X0105828Y00495385
X0104578
X0103028Y00494385
X01023279Y00473885
X0100978Y00460885
X0101028Y00451885
X01016779Y00422385
X0100678Y00405385
X0097978Y00396885
X0096778Y00402885
X0093778Y00425385
X009428Y00431846
X0093678Y00440385
X0094178Y00450885
X0093678Y00460385
X0093078Y00455885
X0092878Y00427885
X0091628Y00422385
X0092178Y00413385
X0088528Y00417886
X0088078Y00424385
X0088078Y00434385
X0088678Y00439385
X0088678Y00451385
X0087928Y00456885
Y00445885
X0088828Y00428386
X0088778Y00404385
X0088178Y00409885
X0088278Y00397385
X0085878Y00403385
X0091328Y00499385
X0092228Y00498885
X0092528Y00536885
X0091028Y00568385
X0094878Y00571885
X00940929Y00580236
X0094328Y00600385
X0093928Y00620385
Y00629885
X0094028Y00659385
X0093828Y00698385
X0093028Y00690385
X0096298Y00685381
X00968Y0071
X00978Y0071
X00988
X00997999Y00709999
X01003Y00716
X00992905Y00716095
X00983Y00716
X00973095Y00715595
X00962499Y00715499
X009045Y00705
X0088228Y00739885
X0087278Y00777376
X0085378Y00774875
X0082878Y00777382
X0081828Y00772875
X0083028Y00730885
X0080728Y00684385
X0083628Y00613885
X0089428Y00640385
X0097378Y0060528
X0100978Y00599885
X01017279Y00574885
X01039779Y00565385
X0105328Y00563885
X0106528Y00565885
X01073279Y00565385
X0108028Y00561385
Y00551385
Y00541385
X0108078Y00531885
X0107978Y00523885
Y00515885
X0108028Y00507885
X0109378Y00546385
Y00556385
Y00566385
Y00576385
X01116279Y00578385
X0111878Y00584885
X0111728Y00602885
X0111678Y00558385
X0117128Y00553885
Y00537885
Y00569885
Y00585885
Y00601885
Y00618385
X0117078Y00633885
X0117228Y00646385
Y00653885
Y00660885
Y00667885
X0115278Y00678385
X0115478Y00703385
X0114628
X0113728
X0112228Y00676385
X0111628Y00670385
X0111078Y00664885
X0105678Y00669885
X01046033Y00675138
X0106228Y00647385
X01011779Y00631385
X0100528Y00660385
X00995279Y00539885
X0099028Y00510385
X0098228Y00501885
X0096828Y00530885
X0089278Y00522385
X01042779Y00434385
X0106378Y00418885
Y00410885
X0107278Y00410385
Y00418885
X0108328Y00396885
X0114978Y00416885
X0116628Y00501885
X0116828Y00720885
X0117378Y00715385
X0116218Y00726985
X0113278Y00792375
X0091778Y00789376
X0090478
X0089128Y00788375
X00752373Y00789875
X00720523Y00773632
X0065878Y00746385
X0064928Y00718885
X0064078Y00704385
X0064178Y00686385
X0062928Y00674885
X0062078Y00674385
X0064078Y00657885
X0060778Y00648885
X0059728Y00639885
X0058578Y00619385
X0057528Y00620385
X00575017Y00610282
X0056528Y00610385
X0056278Y00602385
X0055528Y00600385
X0054928Y00605385
X0054428Y00660885
X0058228Y00658385
X0055378Y00706885
X0052328Y00692385
X004585Y00691999
X0047278Y00789375
X00421973Y00789875
X00409273
X00403023Y00773632
X00415723Y00773818
X00400279Y00587884
X00402779Y00576884
X0040378Y00559885
X0039978Y00539885
X0039716Y00499748
X00397281Y00478385
X00405281Y00475885
X0048228Y00524385
X0050478Y00527885
X0049778Y00535385
X0051228Y00516885
X0057328Y00498385
X0056728Y00486885
X0061128Y00503385
X0059878Y00515885
X0064228Y00515385
X0063528Y00501385
X0065277Y00475905
X0065928Y00525385
X0064828Y00531385
X0064928Y00538885
X0064228Y00542885
X0061628Y00548885
X0059528Y00562885
X0058228Y00560385
X0058378Y00546385
X0057328Y00553385
X0060378Y00590385
X0061978Y00598385
X0062128Y00606418
X0062678Y00615385
X0064578Y00587385
X0063778Y00577885
X0065828Y00573385
X006721Y00566385
X0066878Y00555885
X0067328Y00540276
X0069878Y00520385
X0071178Y00519385
X0069128Y00502885
X0070028Y00564885
X0070228Y00572385
X0074028Y00531885
X0076578Y00528385
X0078378Y00528885
X00787875Y005379
X0057428Y00409385
X0061278Y00715885
X0062278Y00715385
X00340699Y00718304
X0032428Y00687885
X0031678Y00685885
X0033328Y00659385
X0033478Y00650885
X0034178Y00644385
X00350281Y00648385
X0037228Y00651385
X00389281Y00648385
X0038403Y00641365
X0038528Y00598885
X0039078Y00592885
X0039278Y00582885
X0039328Y00571885
Y00563885
Y00555885
X00368037Y00557633
X0034278Y00527385
X00324281Y00531385
X00319781Y00526885
X00299781Y00516385
X0029828Y00549885
X0030528Y00549885
Y00560885
X0029828Y00560885
X0030628Y00572885
X00320781Y00584885
X0027978Y00585885
X0027128
X00281281Y00576385
X0030228Y00621635
Y00632635
X00314281Y00644385
X0034328Y00613885
X00351781Y00603385
X0039428Y00606385
X00379281Y00489385
X00394281Y00470385
X00393781Y00462385
X0033678Y00486885
X00333281Y00490885
X0029978Y00474885
Y00463885
X0030051Y00433576
X0030278Y00396885
X0031928Y00405385
X0033828Y00396885
X0034778Y00405385
X0036678
X00343781Y00429885
X0026828Y00673885
X0026878Y00681885
X0026128Y00677885
Y00669885
X0026178Y00686885
X0027478Y00863875
X00287781Y00859376
X00289781Y00849376
X00299781Y00843376
X0031278Y00861475
Y00872475
Y00883475
X0032378
Y00872475
Y00861475
X0033478Y00841375
X0033628Y00829375
X0035178Y00842875
X0035878Y00803375
Y00796875
X0036678
Y00803375
X0036778Y00893875
X0036678Y00905375
X0034778
X0033828Y00896875
X0031928Y00905375
X0030278Y00896875
X0030051Y00933566
X0029978Y00963875
Y00974875
X00299781Y01016375
X00319781Y01026875
X00324281Y01031375
X0034278Y01027375
X00333281Y00990875
X0033678Y00986875
X00379281Y00989375
X00394281Y00970375
X00393781Y00962375
X0038928Y00895875
X00343781Y00929875
X00368037Y01057623
X0039328Y01055875
Y01063875
Y01071875
X0039278Y01082875
X0039078Y01092875
X0038528Y01098875
X0039428Y01106375
X0038403Y01141355
X00389281Y01148375
X0037228Y01151375
X00350281Y01148375
X0034178Y01144375
X0033478Y01150875
X0033328Y01159375
X00314281Y01144375
X0030228Y01132625
Y01121625
X0034328Y01113875
X00351781Y01103375
X00320781Y01084875
X0030628Y01072875
X0030528Y01060875
X0029828Y01060875
Y01049875
X0030528Y01049875
X00281281Y01076375
X0027978Y01085875
X0027128
X0026828Y01173875
X0026878Y01181875
X0026128Y01177875
Y01169875
X0026178Y01186875
X0031678Y01185875
X0032428Y01187875
X00400279Y01087874
X00402779Y01076874
X0040378Y01059875
X0039978Y01039875
X0039716Y00999738
X00397281Y00978375
X00405281Y00975875
X00401395Y00896375
X00409Y00865602
X00409073Y00814875
X00421773
X0048528Y00828375
X00498273Y00827875
X0049828Y00853282
X0051078Y00865875
Y00879875
X00496781Y00876876
X00484781
X00536273Y00865875
X00536473Y00853375
X00548673Y00852875
X0054878Y00839875
X0056178Y00852376
X0057478Y00840875
X0058678
X0058728Y00853375
X00587073Y00865875
X0059978Y00865882
Y00880895
X0058778Y00879375
X0056828
X0057428Y00909376
X0056728Y00986875
X0057328Y00998375
X0061128Y01003375
X0059878Y01015875
X0064228Y01015375
X0063528Y01001375
X0065277Y00975895
X0065928Y01025375
X0064828Y01031375
X0064928Y01038875
X0064228Y01042875
X0061628Y01048875
X0059528Y01062875
X0058228Y01060375
X0058378Y01046375
X0057328Y01053375
X00575017Y01110272
X0056528Y01110375
X0056278Y01102375
X0055528Y01100375
X0054928Y01105375
X0057528Y01120375
X0058578Y01119375
X0059728Y01139875
X0060778Y01148875
X0058228Y01158375
X0054428Y01160875
X0062078Y01174375
X0062928Y01174875
X0064178Y01186375
X0064078Y01157875
X0062678Y01115375
X0062128Y01106408
X0061978Y01098375
X0060378Y01090375
X0064578Y01087375
X0063778Y01077875
X0065828Y01073375
X006721Y01066375
X0066878Y01055875
X0067328Y01040266
X0069878Y01020375
X0071178Y01019375
X0069128Y01002875
X0070028Y01064875
X0070228Y01072375
X0074028Y01031875
X0076578Y01028375
X0078378Y01028875
X00787875Y0103789
X0078828Y00882375
X00790273Y00865875
X0079028Y00853182
X00765073Y00853375
X00745923Y00852018
X0073328Y00864876
X00720523Y00881118
X00701373Y00865875
X00701373Y00853375
X00676173
X00663273Y00865875
X00682423Y00882518
X00644323Y00882832
X00624673Y00865375
X0062478Y00852782
X0061278Y00853375
X0061228Y00840375
X00625573Y00840875
X0065078Y00840682
X00650873Y00815375
X0066328Y00802382
X00625173Y00802375
X0061278Y00815382
X0059978Y00827782
X0056178Y00802375
X0054878
X00536473
X00701873Y00802875
X00701473Y00827875
X00714173
X0073928Y00815468
X0073978Y00802682
X0076478Y00814982
Y00828068
X00790373Y00827875
X00777573Y00802375
X0076178Y00881375
X00688573Y00840375
X0051228Y01016875
X0050478Y01027875
X0049778Y01035375
X0048228Y01024375
X0089278Y01022375
X0091328Y00999375
X0092228Y00998875
X0092528Y01036875
X0091028Y01068375
X0094878Y01071875
X00940929Y01080226
X0094328Y01100375
X0093928Y01120375
Y01129875
X0094028Y01159375
X0093028Y01190375
X0096298Y01185371
X0100528Y01160375
X01011779Y01131375
X0100978Y01099875
X01017279Y01074875
X01039779Y01065375
X0105328Y01063875
X0106528Y01065875
X01073279Y01065375
X0108028Y01061375
Y01051375
Y01041375
X0108078Y01031875
X0107978Y01023875
Y01015875
X0108028Y01007875
X0105828Y00995375
X0104578
X0103028Y00994375
X01023279Y00973875
X0100978Y00960875
X0101028Y00951875
X01016779Y00922375
X0100678Y00905375
X0102678Y00895375
X0103478Y00878875
X01006173Y00865875
X0098728Y00879375
X0097978Y00896875
X0096778Y00902875
X0093778Y00925375
X009428Y00931835
X0093678Y00940375
X0094178Y00950875
X0093678Y00960375
X0093078Y00955875
X0092878Y00927875
X0091628Y00922375
X0092178Y00913375
X00911023Y00883132
X0087278Y00880375
X0088278Y00897375
X0088778Y00904375
X0088178Y00909875
X0088528Y00917876
X0088078Y00924375
X0088078Y00934375
X0088678Y00939375
X0088678Y00951375
X0087928Y00956875
Y00945875
X0088828Y00928375
X0085878Y00903375
X00834823Y00882918
X0080978Y00883375
X0079778Y00882375
X0080278Y00852982
X0081628Y00841082
X0081528Y00827875
X0080328
X00828473
X0084128Y00826875
X0086628Y00827582
Y00815375
X0087928Y00815182
X0089178Y00804375
X0091828Y00815375
X0091678Y00827375
X0091778Y00839875
X0090478
X00879373Y00853375
X0085328Y00841875
X0084128Y00853382
X0094228Y00852875
X00955073
X0096778Y00840375
Y00827875
X00942773
X0094228Y00802375
X00929973
X0095578Y00801876
X0096728Y00801875
X0098128Y00802375
X0099378Y00827875
X0099278Y00841375
X0098078Y00840875
X0101978Y00835875
X0108878Y00846875
X0110478Y00823375
X0111028Y00818875
X0112628Y00814375
X0112478Y00829375
X011476Y00817865
X011706Y00813365
Y00834115
Y00850865
Y00871615
X011476Y00867115
X0113328Y00866875
X0113228Y00885875
X01114279Y00904376
X011158Y00929375
X0111078Y00941375
X0111278Y00959375
X0112178Y00976375
X0107228Y00975375
X0107278Y00918875
Y00910375
X0106378Y00910875
Y00918875
X01042779Y00934375
X0108328Y00896875
X0114978Y00916875
X0116628Y01001875
X0117128Y01037875
Y01053875
Y01069875
Y01085875
Y01101875
Y01118375
X0117078Y01133875
X0117228Y01146375
Y01153875
Y01160875
Y01167875
X0115278Y01178375
X0112228Y01176375
X0111628Y01170375
X0111078Y01164875
X0105678Y01169875
X01046033Y01175128
X0106228Y01147375
X0111728Y01102875
X0111878Y01084875
X01116279Y01078375
X0111678Y01058375
X0109378Y01056375
Y01066375
Y01076375
Y01046375
X00995279Y01039875
X0099028Y01010375
X0098228Y01001875
X0096828Y01030875
X0097378Y0110527
X0089428Y01140375
X0083628Y01113875
X0080728Y01184375
X00942673Y00865875
X0093828Y01198375
X009045Y0120499
X0088228Y01239875
X0083028Y01230875
X00962499Y01215489
X00973095Y01215585
X00983Y0121599
X00992905Y01216085
X01003Y0121599
X00997999Y01209989
X00988Y0120999
X00978
X00968Y0120999
X0113728Y01203375
X0114628
X0115478
X0116828Y01220875
X0117378Y01215375
X0116218Y01226975
X0064928Y01218875
X0064078Y01204375
X0062278Y01215375
X0061278Y01215875
X0055378Y01206875
X0052328Y01192375
X004585Y01191989
X0065878Y01246375
X00340699Y01218294
T03
X0026478Y00440385
X00278281Y00495885
X0028328Y00646885
X0026478Y00940375
X00278281Y00995875
X0028328Y01146875
T04
X0029378Y00293885
X0108378
Y00713885
X0029378
Y00793875
X0108378
Y01213875
X0029378
T05
X00353366Y00327885
X0102418Y00358365
X00353366Y00827875
X0102418Y00858355
M30
